<svg width="500" height="151" viewBox="0 0 500 151" fill="none" xmlns="http://www.w3.org/2000/svg">
<g clip-path="url(#clip0_87_9560)">
<rect width="500" height="151" rx="8" fill="#F5F5F5"/>
<g filter="url(#filter0_d_87_9560)">
<rect x="26" y="25" width="219" height="100" rx="8" fill="#3168B9"/>
</g>
<g filter="url(#filter1_d_87_9560)">
<rect x="255" y="25" width="219" height="100" rx="8" fill="white"/>
</g>
<path d="M135.5 60C131.082 60 127.5 56.4182 127.5 52C127.5 47.5817 131.082 44 135.5 44C139.918 44 143.5 47.5817 143.5 52C143.5 56.4182 139.918 60 135.5 60ZM133.668 58.1339C132.898 56.5007 132.426 54.6994 132.322 52.8H129.15C129.466 55.3412 131.273 57.4198 133.668 58.1339ZM133.925 52.8C134.045 54.751 134.602 56.5838 135.5 58.2016C136.398 56.5838 136.955 54.751 137.075 52.8H133.925ZM141.85 52.8H138.678C138.574 54.6994 138.102 56.5007 137.332 58.1339C139.727 57.4198 141.534 55.3412 141.85 52.8ZM129.15 51.2H132.322C132.426 49.3006 132.898 47.4993 133.668 45.866C131.273 46.5803 129.466 48.6588 129.15 51.2ZM133.925 51.2H137.075C136.955 49.249 136.398 47.4162 135.5 45.7984C134.602 47.4162 134.045 49.249 133.925 51.2ZM137.332 45.866C138.102 47.4993 138.574 49.3006 138.678 51.2H141.85C141.534 48.6588 139.727 46.5803 137.332 45.866Z" fill="white"/>
<path d="M84.7482 78.6719C84.7085 78.2997 84.5408 78.0099 84.2454 77.8026C83.9528 77.5952 83.5721 77.4915 83.1033 77.4915C82.7738 77.4915 82.4911 77.5412 82.2553 77.6406C82.0195 77.7401 81.8391 77.875 81.7141 78.0455C81.5891 78.2159 81.5252 78.4105 81.5224 78.6293C81.5224 78.8111 81.5636 78.9687 81.646 79.1023C81.7312 79.2358 81.8462 79.3494 81.9911 79.4432C82.136 79.5341 82.2965 79.6108 82.4727 79.6733C82.6488 79.7358 82.8263 79.7884 83.0053 79.831L83.8235 80.0355C84.1531 80.1122 84.4698 80.2159 84.7738 80.3466C85.0806 80.4773 85.3548 80.642 85.5962 80.8409C85.8406 81.0398 86.0337 81.2798 86.1758 81.5611C86.3178 81.8423 86.3888 82.1719 86.3888 82.5497C86.3888 83.0611 86.2582 83.5114 85.9968 83.9006C85.7354 84.2869 85.3576 84.5895 84.8633 84.8082C84.3718 85.0241 83.7766 85.1321 83.0778 85.1321C82.3988 85.1321 81.8093 85.027 81.3093 84.8168C80.8121 84.6065 80.4229 84.2997 80.1417 83.8963C79.8633 83.4929 79.7127 83.0014 79.69 82.4219H81.2454C81.2681 82.7259 81.3619 82.9787 81.5266 83.1804C81.6914 83.3821 81.9059 83.5327 82.1701 83.6321C82.4371 83.7315 82.7354 83.7812 83.065 83.7812C83.4087 83.7812 83.7099 83.7301 83.9684 83.6278C84.2298 83.5227 84.4343 83.3778 84.582 83.1932C84.7298 83.0057 84.805 82.7869 84.8079 82.5369C84.805 82.3097 84.7383 82.1222 84.6076 81.9744C84.4769 81.8239 84.2937 81.6989 84.0579 81.5994C83.8249 81.4972 83.5522 81.4062 83.2397 81.3267L82.2468 81.071C81.5281 80.8864 80.9599 80.6065 80.5423 80.2315C80.1275 79.8537 79.9201 79.3523 79.9201 78.7273C79.9201 78.2131 80.0593 77.7628 80.3377 77.3764C80.619 76.9901 81.0011 76.6903 81.484 76.4773C81.967 76.2614 82.5138 76.1534 83.1246 76.1534C83.744 76.1534 84.2866 76.2614 84.7525 76.4773C85.2212 76.6903 85.5891 76.9872 85.8562 77.3679C86.1232 77.7457 86.261 78.1804 86.2695 78.6719H84.7482ZM91.902 82.2472V78.4545H93.4446V85H91.9489V83.8366H91.8807C91.733 84.2031 91.4901 84.5028 91.152 84.7358C90.8168 84.9687 90.4034 85.0852 89.9119 85.0852C89.483 85.0852 89.1037 84.9901 88.7741 84.7997C88.4474 84.6065 88.1918 84.3267 88.0071 83.9602C87.8224 83.5909 87.7301 83.1449 87.7301 82.6222V78.4545H89.2727V82.3835C89.2727 82.7983 89.3864 83.1278 89.6136 83.3722C89.8409 83.6165 90.1392 83.7386 90.5085 83.7386C90.7358 83.7386 90.956 83.6832 91.169 83.5724C91.3821 83.4616 91.5568 83.2969 91.6932 83.0781C91.8324 82.8565 91.902 82.5795 91.902 82.2472ZM97.8775 87.5909C97.3235 87.5909 96.8477 87.5156 96.4499 87.3651C96.0522 87.2173 95.7326 87.0185 95.4911 86.7685C95.2496 86.5185 95.082 86.2415 94.9883 85.9375L96.3775 85.6009C96.44 85.7287 96.5309 85.8551 96.6502 85.9801C96.7695 86.108 96.93 86.2131 97.1317 86.2955C97.3363 86.3807 97.5934 86.4233 97.9031 86.4233C98.3406 86.4233 98.7028 86.3168 98.9897 86.1037C99.2766 85.8935 99.4201 85.5469 99.4201 85.0639V83.8239H99.3434C99.2638 83.983 99.1474 84.1463 98.994 84.3139C98.8434 84.4815 98.6431 84.6222 98.3931 84.7358C98.146 84.8494 97.8349 84.9062 97.4599 84.9062C96.957 84.9062 96.5011 84.7884 96.092 84.5526C95.6857 84.3139 95.3619 83.9588 95.1204 83.4872C94.8817 83.0128 94.7624 82.419 94.7624 81.706C94.7624 80.9872 94.8817 80.3807 95.1204 79.8864C95.3619 79.3892 95.6871 79.0128 96.0962 78.7571C96.5053 78.4986 96.9613 78.3693 97.4641 78.3693C97.8477 78.3693 98.163 78.4347 98.4102 78.5653C98.6602 78.6932 98.859 78.848 99.0067 79.0298C99.1545 79.2088 99.2667 79.3778 99.3434 79.5369H99.4286V78.4545H100.95V85.1065C100.95 85.6662 100.816 86.1293 100.549 86.4957C100.282 86.8622 99.9173 87.1364 99.4542 87.3182C98.9911 87.5 98.4656 87.5909 97.8775 87.5909ZM97.8903 83.696C98.217 83.696 98.4954 83.6165 98.7255 83.4574C98.9556 83.2983 99.1303 83.0696 99.2496 82.7713C99.369 82.473 99.4286 82.1151 99.4286 81.6974C99.4286 81.2855 99.369 80.9247 99.2496 80.6151C99.1332 80.3054 98.9599 80.0653 98.7298 79.8949C98.5025 79.7216 98.2227 79.6349 97.8903 79.6349C97.5465 79.6349 97.2596 79.7244 97.0295 79.9034C96.7994 80.0824 96.6261 80.3281 96.5096 80.6406C96.3931 80.9503 96.3349 81.3026 96.3349 81.6974C96.3349 82.098 96.3931 82.4489 96.5096 82.75C96.6289 83.0483 96.8036 83.2812 97.0337 83.4489C97.2667 83.6136 97.5522 83.696 97.8903 83.696ZM105.377 87.5909C104.824 87.5909 104.348 87.5156 103.95 87.3651C103.552 87.2173 103.233 87.0185 102.991 86.7685C102.75 86.5185 102.582 86.2415 102.488 85.9375L103.877 85.6009C103.94 85.7287 104.031 85.8551 104.15 85.9801C104.27 86.108 104.43 86.2131 104.632 86.2955C104.836 86.3807 105.093 86.4233 105.403 86.4233C105.841 86.4233 106.203 86.3168 106.49 86.1037C106.777 85.8935 106.92 85.5469 106.92 85.0639V83.8239H106.843C106.764 83.983 106.647 84.1463 106.494 84.3139C106.343 84.4815 106.143 84.6222 105.893 84.7358C105.646 84.8494 105.335 84.9062 104.96 84.9062C104.457 84.9062 104.001 84.7884 103.592 84.5526C103.186 84.3139 102.862 83.9588 102.62 83.4872C102.382 83.0128 102.262 82.419 102.262 81.706C102.262 80.9872 102.382 80.3807 102.62 79.8864C102.862 79.3892 103.187 79.0128 103.596 78.7571C104.005 78.4986 104.461 78.3693 104.964 78.3693C105.348 78.3693 105.663 78.4347 105.91 78.5653C106.16 78.6932 106.359 78.848 106.507 79.0298C106.654 79.2088 106.767 79.3778 106.843 79.5369H106.929V78.4545H108.45V85.1065C108.45 85.6662 108.316 86.1293 108.049 86.4957C107.782 86.8622 107.417 87.1364 106.954 87.3182C106.491 87.5 105.966 87.5909 105.377 87.5909ZM105.39 83.696C105.717 83.696 105.995 83.6165 106.225 83.4574C106.456 83.2983 106.63 83.0696 106.75 82.7713C106.869 82.473 106.929 82.1151 106.929 81.6974C106.929 81.2855 106.869 80.9247 106.75 80.6151C106.633 80.3054 106.46 80.0653 106.23 79.8949C106.002 79.7216 105.723 79.6349 105.39 79.6349C105.047 79.6349 104.76 79.7244 104.529 79.9034C104.299 80.0824 104.126 80.3281 104.01 80.6406C103.893 80.9503 103.835 81.3026 103.835 81.6974C103.835 82.098 103.893 82.4489 104.01 82.75C104.129 83.0483 104.304 83.2812 104.534 83.4489C104.767 83.6136 105.052 83.696 105.39 83.696ZM112.929 85.1278C112.272 85.1278 111.706 84.9915 111.228 84.7188C110.754 84.4432 110.389 84.054 110.133 83.5511C109.877 83.0455 109.75 82.4503 109.75 81.7656C109.75 81.0923 109.877 80.5014 110.133 79.9929C110.392 79.4815 110.752 79.0838 111.216 78.7997C111.679 78.5128 112.223 78.3693 112.848 78.3693C113.251 78.3693 113.632 78.4347 113.99 78.5653C114.35 78.6932 114.669 78.892 114.944 79.1619C115.223 79.4318 115.441 79.7756 115.6 80.1932C115.76 80.608 115.839 81.1023 115.839 81.6761V82.1491H110.474V81.1094H114.36C114.358 80.8139 114.294 80.5511 114.169 80.321C114.044 80.0881 113.869 79.9048 113.645 79.7713C113.423 79.6378 113.164 79.571 112.869 79.571C112.554 79.571 112.277 79.6477 112.038 79.8011C111.799 79.9517 111.613 80.1506 111.48 80.3977C111.349 80.642 111.282 80.9105 111.279 81.2031V82.1108C111.279 82.4915 111.349 82.8182 111.488 83.0909C111.627 83.3608 111.822 83.5682 112.072 83.7131C112.322 83.8551 112.615 83.9261 112.95 83.9261C113.174 83.9261 113.377 83.8949 113.559 83.8324C113.741 83.767 113.899 83.6719 114.032 83.5469C114.166 83.4219 114.267 83.267 114.335 83.0824L115.775 83.2443C115.684 83.625 115.511 83.9574 115.255 84.2415C115.002 84.5227 114.679 84.7415 114.284 84.8977C113.889 85.0511 113.437 85.1278 112.929 85.1278ZM122.317 80.1847L120.911 80.3381C120.871 80.196 120.802 80.0625 120.702 79.9375C120.606 79.8125 120.475 79.7116 120.31 79.6349C120.146 79.5582 119.944 79.5199 119.705 79.5199C119.384 79.5199 119.114 79.5895 118.896 79.7287C118.68 79.8679 118.573 80.0483 118.576 80.2699C118.573 80.4602 118.643 80.6151 118.785 80.7344C118.93 80.8537 119.168 80.9517 119.501 81.0284L120.617 81.267C121.237 81.4006 121.697 81.6122 121.998 81.902C122.302 82.1918 122.455 82.571 122.458 83.0398C122.455 83.4517 122.335 83.8153 122.096 84.1307C121.86 84.4432 121.532 84.6875 121.112 84.8636C120.691 85.0398 120.208 85.1278 119.663 85.1278C118.862 85.1278 118.217 84.9602 117.728 84.625C117.239 84.2869 116.948 83.8168 116.854 83.2145L118.359 83.0696C118.427 83.3651 118.572 83.5881 118.793 83.7386C119.015 83.8892 119.303 83.9645 119.658 83.9645C120.025 83.9645 120.319 83.8892 120.54 83.7386C120.765 83.5881 120.877 83.402 120.877 83.1804C120.877 82.9929 120.805 82.8381 120.66 82.7159C120.518 82.5937 120.296 82.5 119.995 82.4347L118.879 82.2003C118.251 82.0696 117.786 81.8494 117.485 81.5398C117.184 81.2273 117.035 80.8324 117.038 80.3551C117.035 79.9517 117.144 79.6023 117.366 79.3068C117.59 79.0085 117.901 78.7784 118.299 78.6165C118.7 78.4517 119.161 78.3693 119.684 78.3693C120.451 78.3693 121.055 78.5327 121.495 78.8594C121.938 79.1861 122.212 79.6278 122.317 80.1847ZM126.999 78.4545V79.6477H123.236V78.4545H126.999ZM124.165 76.8864H125.707V83.0312C125.707 83.2386 125.739 83.3977 125.801 83.5085C125.866 83.6165 125.952 83.6903 126.057 83.7301C126.162 83.7699 126.278 83.7898 126.406 83.7898C126.503 83.7898 126.591 83.7827 126.67 83.7685C126.753 83.7543 126.815 83.7415 126.858 83.7301L127.118 84.9361C127.036 84.9645 126.918 84.9957 126.764 85.0298C126.614 85.0639 126.429 85.0838 126.21 85.0895C125.824 85.1009 125.476 85.0426 125.166 84.9148C124.857 84.7841 124.611 84.5824 124.429 84.3097C124.25 84.0369 124.162 83.696 124.165 83.2869V76.8864ZM131.116 85.1278C130.46 85.1278 129.893 84.9915 129.416 84.7188C128.941 84.4432 128.576 84.054 128.321 83.5511C128.065 83.0455 127.937 82.4503 127.937 81.7656C127.937 81.0923 128.065 80.5014 128.321 79.9929C128.579 79.4815 128.94 79.0838 129.403 78.7997C129.866 78.5128 130.41 78.3693 131.035 78.3693C131.439 78.3693 131.819 78.4347 132.177 78.5653C132.538 78.6932 132.856 78.892 133.132 79.1619C133.41 79.4318 133.629 79.7756 133.788 80.1932C133.947 80.608 134.027 81.1023 134.027 81.6761V82.1491H128.662V81.1094H132.548C132.545 80.8139 132.481 80.5511 132.356 80.321C132.231 80.0881 132.056 79.9048 131.832 79.7713C131.61 79.6378 131.352 79.571 131.056 79.571C130.741 79.571 130.464 79.6477 130.225 79.8011C129.987 79.9517 129.801 80.1506 129.667 80.3977C129.537 80.642 129.47 80.9105 129.467 81.2031V82.1108C129.467 82.4915 129.537 82.8182 129.676 83.0909C129.815 83.3608 130.01 83.5682 130.26 83.7131C130.51 83.8551 130.802 83.9261 131.137 83.9261C131.362 83.9261 131.565 83.8949 131.747 83.8324C131.929 83.767 132.086 83.6719 132.22 83.5469C132.353 83.4219 132.454 83.267 132.522 83.0824L133.963 83.2443C133.872 83.625 133.699 83.9574 133.443 84.2415C133.19 84.5227 132.866 84.7415 132.471 84.8977C132.076 85.0511 131.625 85.1278 131.116 85.1278ZM137.761 85.1151C137.246 85.1151 136.786 84.983 136.38 84.7188C135.974 84.4545 135.653 84.071 135.417 83.5682C135.181 83.0653 135.063 82.4545 135.063 81.7358C135.063 81.0085 135.183 80.3949 135.421 79.8949C135.663 79.392 135.988 79.0128 136.397 78.7571C136.806 78.4986 137.262 78.3693 137.765 78.3693C138.148 78.3693 138.464 78.4347 138.711 78.5653C138.958 78.6932 139.154 78.848 139.299 79.0298C139.444 79.2088 139.556 79.3778 139.636 79.5369H139.7V76.2727H141.246V85H139.729V83.9688H139.636C139.556 84.1278 139.441 84.2969 139.29 84.4759C139.14 84.652 138.941 84.8026 138.694 84.9276C138.447 85.0526 138.136 85.1151 137.761 85.1151ZM138.191 83.8494C138.518 83.8494 138.796 83.7614 139.026 83.5852C139.256 83.4062 139.431 83.1577 139.55 82.8395C139.67 82.5213 139.729 82.1506 139.729 81.7273C139.729 81.304 139.67 80.9361 139.55 80.6236C139.434 80.3111 139.261 80.0682 139.031 79.8949C138.803 79.7216 138.523 79.6349 138.191 79.6349C137.847 79.6349 137.56 79.7244 137.33 79.9034C137.1 80.0824 136.927 80.3295 136.81 80.6449C136.694 80.9602 136.636 81.321 136.636 81.7273C136.636 82.1364 136.694 82.5014 136.81 82.8224C136.93 83.1406 137.104 83.392 137.335 83.5767C137.567 83.7585 137.853 83.8494 138.191 83.8494ZM147.75 85.1321C147.336 85.1321 146.962 85.0582 146.63 84.9105C146.3 84.7599 146.039 84.5384 145.846 84.2457C145.655 83.9531 145.56 83.5923 145.56 83.1634C145.56 82.794 145.628 82.4886 145.765 82.2472C145.901 82.0057 146.087 81.8125 146.323 81.6676C146.559 81.5227 146.824 81.4134 147.12 81.3395C147.418 81.2628 147.726 81.2074 148.044 81.1733C148.428 81.1335 148.739 81.098 148.978 81.0668C149.216 81.0327 149.39 80.9815 149.498 80.9134C149.608 80.8423 149.664 80.733 149.664 80.5852V80.5597C149.664 80.2386 149.569 79.9901 149.378 79.8139C149.188 79.6378 148.914 79.5497 148.556 79.5497C148.178 79.5497 147.878 79.6321 147.657 79.7969C147.438 79.9616 147.29 80.1562 147.213 80.3807L145.773 80.1761C145.887 79.7784 146.074 79.446 146.336 79.179C146.597 78.9091 146.917 78.7074 147.294 78.5739C147.672 78.4375 148.09 78.3693 148.547 78.3693C148.863 78.3693 149.176 78.4062 149.489 78.4801C149.801 78.554 150.087 78.6761 150.346 78.8466C150.604 79.0142 150.811 79.2429 150.968 79.5327C151.127 79.8224 151.206 80.1847 151.206 80.6193V85H149.723V84.1009H149.672C149.578 84.2827 149.446 84.4531 149.276 84.6122C149.108 84.7685 148.897 84.8949 148.641 84.9915C148.388 85.0852 148.091 85.1321 147.75 85.1321ZM148.151 83.9986C148.461 83.9986 148.729 83.9375 148.956 83.8153C149.184 83.6903 149.358 83.5256 149.48 83.321C149.605 83.1165 149.668 82.8935 149.668 82.652V81.8807C149.62 81.9205 149.537 81.9574 149.421 81.9915C149.307 82.0256 149.179 82.0554 149.037 82.081C148.895 82.1065 148.755 82.1293 148.615 82.1491C148.476 82.169 148.355 82.1861 148.253 82.2003C148.023 82.2315 147.817 82.2827 147.635 82.3537C147.453 82.4247 147.31 82.5241 147.205 82.652C147.1 82.777 147.047 82.9389 147.047 83.1378C147.047 83.4219 147.151 83.6364 147.358 83.7812C147.566 83.9261 147.83 83.9986 148.151 83.9986ZM155.186 85.1151C154.672 85.1151 154.212 84.983 153.806 84.7188C153.4 84.4545 153.078 84.071 152.843 83.5682C152.607 83.0653 152.489 82.4545 152.489 81.7358C152.489 81.0085 152.608 80.3949 152.847 79.8949C153.088 79.392 153.414 79.0128 153.823 78.7571C154.232 78.4986 154.688 78.3693 155.191 78.3693C155.574 78.3693 155.89 78.4347 156.137 78.5653C156.384 78.6932 156.58 78.848 156.725 79.0298C156.87 79.2088 156.982 79.3778 157.061 79.5369H157.125V76.2727H158.672V85H157.155V83.9688H157.061C156.982 84.1278 156.867 84.2969 156.716 84.4759C156.566 84.652 156.367 84.8026 156.12 84.9276C155.873 85.0526 155.561 85.1151 155.186 85.1151ZM155.617 83.8494C155.944 83.8494 156.222 83.7614 156.452 83.5852C156.682 83.4062 156.857 83.1577 156.976 82.8395C157.096 82.5213 157.155 82.1506 157.155 81.7273C157.155 81.304 157.096 80.9361 156.976 80.6236C156.86 80.3111 156.686 80.0682 156.456 79.8949C156.229 79.7216 155.949 79.6349 155.617 79.6349C155.273 79.6349 154.986 79.7244 154.756 79.9034C154.526 80.0824 154.353 80.3295 154.236 80.6449C154.12 80.9602 154.061 81.321 154.061 81.7273C154.061 82.1364 154.12 82.5014 154.236 82.8224C154.355 83.1406 154.53 83.392 154.76 83.5767C154.993 83.7585 155.279 83.8494 155.617 83.8494ZM162.745 85.1151C162.231 85.1151 161.771 84.983 161.364 84.7188C160.958 84.4545 160.637 84.071 160.401 83.5682C160.165 83.0653 160.048 82.4545 160.048 81.7358C160.048 81.0085 160.167 80.3949 160.406 79.8949C160.647 79.392 160.972 79.0128 161.381 78.7571C161.79 78.4986 162.246 78.3693 162.749 78.3693C163.133 78.3693 163.448 78.4347 163.695 78.5653C163.942 78.6932 164.138 78.848 164.283 79.0298C164.428 79.2088 164.54 79.3778 164.62 79.5369H164.684V76.2727H166.231V85H164.714V83.9688H164.62C164.54 84.1278 164.425 84.2969 164.275 84.4759C164.124 84.652 163.925 84.8026 163.678 84.9276C163.431 85.0526 163.12 85.1151 162.745 85.1151ZM163.175 83.8494C163.502 83.8494 163.781 83.7614 164.011 83.5852C164.241 83.4062 164.415 83.1577 164.535 82.8395C164.654 82.5213 164.714 82.1506 164.714 81.7273C164.714 81.304 164.654 80.9361 164.535 80.6236C164.418 80.3111 164.245 80.0682 164.015 79.8949C163.788 79.7216 163.508 79.6349 163.175 79.6349C162.832 79.6349 162.545 79.7244 162.315 79.9034C162.085 80.0824 161.911 80.3295 161.795 80.6449C161.678 80.9602 161.62 81.321 161.62 81.7273C161.62 82.1364 161.678 82.5014 161.795 82.8224C161.914 83.1406 162.089 83.392 162.319 83.5767C162.552 83.7585 162.837 83.8494 163.175 83.8494ZM167.875 85V78.4545H169.37V79.5455H169.439C169.558 79.1676 169.762 78.8764 170.052 78.6719C170.345 78.4645 170.679 78.3608 171.054 78.3608C171.139 78.3608 171.234 78.3651 171.339 78.3736C171.447 78.3793 171.537 78.3892 171.608 78.4034V79.8224C171.542 79.7997 171.439 79.7798 171.297 79.7628C171.157 79.7429 171.022 79.733 170.892 79.733C170.61 79.733 170.358 79.794 170.133 79.9162C169.912 80.0355 169.737 80.2017 169.609 80.4148C169.481 80.6278 169.417 80.8736 169.417 81.152V85H167.875ZM175.261 85.1278C174.604 85.1278 174.038 84.9915 173.56 84.7188C173.086 84.4432 172.721 84.054 172.465 83.5511C172.21 83.0455 172.082 82.4503 172.082 81.7656C172.082 81.0923 172.21 80.5014 172.465 79.9929C172.724 79.4815 173.085 79.0838 173.548 78.7997C174.011 78.5128 174.555 78.3693 175.18 78.3693C175.583 78.3693 175.964 78.4347 176.322 78.5653C176.683 78.6932 177.001 78.892 177.276 79.1619C177.555 79.4318 177.773 79.7756 177.933 80.1932C178.092 80.608 178.171 81.1023 178.171 81.6761V82.1491H172.806V81.1094H176.692C176.69 80.8139 176.626 80.5511 176.501 80.321C176.376 80.0881 176.201 79.9048 175.977 79.7713C175.755 79.6378 175.496 79.571 175.201 79.571C174.886 79.571 174.609 79.6477 174.37 79.8011C174.131 79.9517 173.945 80.1506 173.812 80.3977C173.681 80.642 173.614 80.9105 173.612 81.2031V82.1108C173.612 82.4915 173.681 82.8182 173.82 83.0909C173.96 83.3608 174.154 83.5682 174.404 83.7131C174.654 83.8551 174.947 83.9261 175.282 83.9261C175.506 83.9261 175.71 83.8949 175.891 83.8324C176.073 83.767 176.231 83.6719 176.364 83.5469C176.498 83.4219 176.599 83.267 176.667 83.0824L178.107 83.2443C178.016 83.625 177.843 83.9574 177.587 84.2415C177.335 84.5227 177.011 84.7415 176.616 84.8977C176.221 85.0511 175.769 85.1278 175.261 85.1278ZM184.65 80.1847L183.243 80.3381C183.203 80.196 183.134 80.0625 183.034 79.9375C182.938 79.8125 182.807 79.7116 182.642 79.6349C182.478 79.5582 182.276 79.5199 182.037 79.5199C181.716 79.5199 181.446 79.5895 181.228 79.7287C181.012 79.8679 180.905 80.0483 180.908 80.2699C180.905 80.4602 180.975 80.6151 181.117 80.7344C181.262 80.8537 181.5 80.9517 181.833 81.0284L182.949 81.267C183.569 81.4006 184.029 81.6122 184.33 81.902C184.634 82.1918 184.787 82.571 184.79 83.0398C184.787 83.4517 184.667 83.8153 184.428 84.1307C184.192 84.4432 183.864 84.6875 183.444 84.8636C183.023 85.0398 182.54 85.1278 181.995 85.1278C181.194 85.1278 180.549 84.9602 180.06 84.625C179.571 84.2869 179.28 83.8168 179.186 83.2145L180.691 83.0696C180.759 83.3651 180.904 83.5881 181.125 83.7386C181.347 83.8892 181.635 83.9645 181.99 83.9645C182.357 83.9645 182.651 83.8892 182.873 83.7386C183.097 83.5881 183.209 83.402 183.209 83.1804C183.209 82.9929 183.137 82.8381 182.992 82.7159C182.85 82.5937 182.628 82.5 182.327 82.4347L181.211 82.2003C180.583 82.0696 180.118 81.8494 179.817 81.5398C179.516 81.2273 179.367 80.8324 179.37 80.3551C179.367 79.9517 179.476 79.6023 179.698 79.3068C179.922 79.0085 180.233 78.7784 180.631 78.6165C181.032 78.4517 181.493 78.3693 182.016 78.3693C182.783 78.3693 183.387 78.5327 183.827 78.8594C184.27 79.1861 184.544 79.6278 184.65 80.1847ZM191.235 80.1847L189.829 80.3381C189.789 80.196 189.72 80.0625 189.62 79.9375C189.524 79.8125 189.393 79.7116 189.228 79.6349C189.064 79.5582 188.862 79.5199 188.623 79.5199C188.302 79.5199 188.032 79.5895 187.814 79.7287C187.598 79.8679 187.491 80.0483 187.494 80.2699C187.491 80.4602 187.561 80.6151 187.703 80.7344C187.848 80.8537 188.086 80.9517 188.419 81.0284L189.535 81.267C190.154 81.4006 190.615 81.6122 190.916 81.902C191.22 82.1918 191.373 82.571 191.376 83.0398C191.373 83.4517 191.252 83.8153 191.014 84.1307C190.778 84.4432 190.45 84.6875 190.029 84.8636C189.609 85.0398 189.126 85.1278 188.581 85.1278C187.779 85.1278 187.135 84.9602 186.646 84.625C186.157 84.2869 185.866 83.8168 185.772 83.2145L187.277 83.0696C187.345 83.3651 187.49 83.5881 187.711 83.7386C187.933 83.8892 188.221 83.9645 188.576 83.9645C188.943 83.9645 189.237 83.8892 189.458 83.7386C189.683 83.5881 189.795 83.402 189.795 83.1804C189.795 82.9929 189.723 82.8381 189.578 82.7159C189.436 82.5937 189.214 82.5 188.913 82.4347L187.797 82.2003C187.169 82.0696 186.704 81.8494 186.403 81.5398C186.102 81.2273 185.953 80.8324 185.956 80.3551C185.953 79.9517 186.062 79.6023 186.284 79.3068C186.508 79.0085 186.819 78.7784 187.217 78.6165C187.618 78.4517 188.079 78.3693 188.602 78.3693C189.369 78.3693 189.973 78.5327 190.413 78.8594C190.856 79.1861 191.13 79.6278 191.235 80.1847Z" fill="white"/>
<path d="M60.1122 97.2727V106H59.0554V98.3807H59.0043L56.8736 99.7955V98.7216L59.0554 97.2727H60.1122ZM62.6222 106V105.233L65.5028 102.08C65.8409 101.71 66.1193 101.389 66.3381 101.116C66.5568 100.841 66.7188 100.582 66.8239 100.341C66.9318 100.097 66.9858 99.8409 66.9858 99.5739C66.9858 99.267 66.9119 99.0014 66.7642 98.777C66.6193 98.5526 66.4205 98.3793 66.1676 98.2571C65.9148 98.1349 65.6307 98.0739 65.3153 98.0739C64.9801 98.0739 64.6875 98.1435 64.4375 98.2827C64.1903 98.419 63.9986 98.6108 63.8622 98.858C63.7287 99.1051 63.6619 99.3949 63.6619 99.7273H62.6562C62.6562 99.2159 62.7741 98.767 63.0099 98.3807C63.2457 97.9943 63.5668 97.6932 63.973 97.4773C64.3821 97.2614 64.8409 97.1534 65.3494 97.1534C65.8608 97.1534 66.3139 97.2614 66.7088 97.4773C67.1037 97.6932 67.4134 97.9844 67.6378 98.3509C67.8622 98.7173 67.9744 99.125 67.9744 99.5739C67.9744 99.8949 67.9162 100.209 67.7997 100.516C67.6861 100.82 67.4872 101.159 67.2031 101.534C66.9219 101.906 66.5312 102.361 66.0312 102.898L64.071 104.994V105.062H68.1278V106H62.6222ZM72.8366 106.119C72.2741 106.119 71.7727 106.023 71.3324 105.83C70.8949 105.636 70.5469 105.368 70.2884 105.024C70.0327 104.678 69.8935 104.276 69.8707 103.818H70.9446C70.9673 104.099 71.0639 104.342 71.2344 104.547C71.4048 104.749 71.6278 104.905 71.9034 105.016C72.179 105.126 72.4844 105.182 72.8196 105.182C73.1946 105.182 73.527 105.116 73.8168 104.986C74.1065 104.855 74.3338 104.673 74.4986 104.44C74.6634 104.207 74.7457 103.938 74.7457 103.631C74.7457 103.31 74.6662 103.027 74.5071 102.783C74.348 102.536 74.1151 102.342 73.8082 102.203C73.5014 102.064 73.1264 101.994 72.6832 101.994H71.9844V101.057H72.6832C73.0298 101.057 73.3338 100.994 73.5952 100.869C73.8594 100.744 74.0653 100.568 74.2131 100.341C74.3636 100.114 74.4389 99.8466 74.4389 99.5398C74.4389 99.2443 74.3736 98.9872 74.2429 98.7685C74.1122 98.5497 73.9276 98.3793 73.6889 98.2571C73.4531 98.1349 73.1747 98.0739 72.8537 98.0739C72.5526 98.0739 72.2685 98.1293 72.0014 98.2401C71.7372 98.348 71.5213 98.5057 71.3537 98.7131C71.1861 98.9176 71.0952 99.1648 71.081 99.4545H70.0582C70.0753 98.9972 70.2131 98.5966 70.4716 98.2528C70.7301 97.9062 71.0682 97.6364 71.4858 97.4432C71.9063 97.25 72.3679 97.1534 72.8707 97.1534C73.4105 97.1534 73.8736 97.2628 74.2599 97.4815C74.6463 97.6974 74.9432 97.983 75.1506 98.3381C75.358 98.6932 75.4616 99.0767 75.4616 99.4886C75.4616 99.9801 75.3324 100.399 75.0739 100.746C74.8182 101.092 74.4702 101.332 74.0298 101.466V101.534C74.581 101.625 75.0114 101.859 75.321 102.237C75.6307 102.612 75.7855 103.077 75.7855 103.631C75.7855 104.105 75.6563 104.531 75.3977 104.909C75.142 105.284 74.7926 105.58 74.3494 105.795C73.9063 106.011 73.402 106.119 72.8366 106.119ZM78.7759 104.807L78.7077 105.267C78.6594 105.591 78.5856 105.938 78.4862 106.307C78.3896 106.676 78.2887 107.024 78.1836 107.351C78.0785 107.678 77.9918 107.938 77.9237 108.131H77.1566C77.1935 107.949 77.2418 107.709 77.3015 107.411C77.3612 107.112 77.4208 106.778 77.4805 106.409C77.543 106.043 77.5941 105.668 77.6339 105.284L77.685 104.807H78.7759ZM88.9233 99.4545C88.8722 99.0227 88.6648 98.6875 88.3011 98.4489C87.9375 98.2102 87.4915 98.0909 86.9631 98.0909C86.5767 98.0909 86.2386 98.1534 85.9489 98.2784C85.6619 98.4034 85.4375 98.5753 85.2756 98.794C85.1165 99.0128 85.0369 99.2614 85.0369 99.5398C85.0369 99.7727 85.0923 99.973 85.2031 100.141C85.3168 100.305 85.4616 100.443 85.6378 100.554C85.8139 100.662 85.9986 100.751 86.1918 100.822C86.3849 100.891 86.5625 100.946 86.7244 100.989L87.6108 101.227C87.8381 101.287 88.0909 101.369 88.3693 101.474C88.6506 101.58 88.919 101.723 89.1747 101.905C89.4332 102.084 89.6463 102.314 89.8139 102.595C89.9815 102.876 90.0653 103.222 90.0653 103.631C90.0653 104.102 89.9418 104.528 89.6946 104.909C89.4503 105.29 89.0923 105.592 88.6207 105.817C88.152 106.041 87.5824 106.153 86.9119 106.153C86.2869 106.153 85.7457 106.053 85.2884 105.851C84.8338 105.649 84.4759 105.368 84.2145 105.007C83.956 104.646 83.8097 104.227 83.7756 103.75H84.8665C84.8949 104.08 85.0057 104.352 85.1989 104.568C85.3949 104.781 85.642 104.94 85.9403 105.045C86.2415 105.148 86.5653 105.199 86.9119 105.199C87.3153 105.199 87.6776 105.134 87.9986 105.003C88.3196 104.869 88.5739 104.685 88.7614 104.449C88.9489 104.21 89.0426 103.932 89.0426 103.614C89.0426 103.324 88.9616 103.088 88.7997 102.906C88.6378 102.724 88.4247 102.577 88.1605 102.463C87.8963 102.349 87.6108 102.25 87.304 102.165L86.2301 101.858C85.5483 101.662 85.0085 101.382 84.6108 101.018C84.2131 100.655 84.0142 100.179 84.0142 99.5909C84.0142 99.1023 84.1463 98.6761 84.4105 98.3125C84.6776 97.946 85.0355 97.6619 85.4844 97.4602C85.9361 97.2557 86.4403 97.1534 86.9972 97.1534C87.5597 97.1534 88.0597 97.2543 88.4972 97.456C88.9347 97.6548 89.2813 97.9276 89.5369 98.2741C89.7955 98.6207 89.9318 99.0142 89.946 99.4545H88.9233ZM91.6665 106V99.4545H92.6381V100.477H92.7234C92.8597 100.128 93.0799 99.8565 93.3839 99.6634C93.6879 99.4673 94.0529 99.3693 94.479 99.3693C94.9109 99.3693 95.2702 99.4673 95.5572 99.6634C95.8469 99.8565 96.0728 100.128 96.2347 100.477H96.3029C96.4705 100.139 96.7219 99.8707 97.0572 99.6719C97.3924 99.4702 97.7944 99.3693 98.2631 99.3693C98.8484 99.3693 99.3271 99.5526 99.6992 99.919C100.071 100.283 100.257 100.849 100.257 101.619V106H99.2518V101.619C99.2518 101.136 99.1197 100.791 98.8555 100.584C98.5913 100.376 98.2802 100.273 97.9222 100.273C97.462 100.273 97.1055 100.412 96.8526 100.69C96.5998 100.966 96.4734 101.315 96.4734 101.739V106H95.4506V101.517C95.4506 101.145 95.3299 100.845 95.0884 100.618C94.8469 100.388 94.5359 100.273 94.1552 100.273C93.8938 100.273 93.6495 100.342 93.4222 100.482C93.1978 100.621 93.016 100.814 92.8768 101.061C92.7404 101.305 92.6722 101.588 92.6722 101.909V106H91.6665ZM104.022 106.153C103.608 106.153 103.231 106.075 102.893 105.919C102.555 105.76 102.287 105.531 102.088 105.233C101.889 104.932 101.789 104.568 101.789 104.142C101.789 103.767 101.863 103.463 102.011 103.23C102.159 102.994 102.356 102.81 102.603 102.676C102.85 102.543 103.123 102.443 103.422 102.378C103.723 102.31 104.025 102.256 104.329 102.216C104.727 102.165 105.049 102.126 105.297 102.101C105.547 102.072 105.728 102.026 105.842 101.96C105.958 101.895 106.017 101.781 106.017 101.619V101.585C106.017 101.165 105.902 100.838 105.672 100.605C105.444 100.372 105.099 100.256 104.636 100.256C104.156 100.256 103.779 100.361 103.507 100.571C103.234 100.781 103.042 101.006 102.931 101.244L101.977 100.903C102.147 100.506 102.375 100.196 102.659 99.9744C102.946 99.75 103.258 99.5937 103.596 99.5057C103.937 99.4148 104.272 99.3693 104.602 99.3693C104.812 99.3693 105.054 99.3949 105.326 99.446C105.602 99.4943 105.868 99.5952 106.123 99.7486C106.382 99.902 106.596 100.134 106.767 100.443C106.937 100.753 107.022 101.168 107.022 101.688V106H106.017V105.114H105.966C105.897 105.256 105.784 105.408 105.625 105.57C105.466 105.732 105.254 105.869 104.99 105.983C104.725 106.097 104.403 106.153 104.022 106.153ZM104.176 105.25C104.574 105.25 104.909 105.172 105.181 105.016C105.457 104.859 105.664 104.658 105.804 104.411C105.946 104.163 106.017 103.903 106.017 103.631V102.71C105.974 102.761 105.88 102.808 105.735 102.851C105.593 102.891 105.429 102.926 105.241 102.957C105.056 102.986 104.876 103.011 104.7 103.034C104.527 103.054 104.386 103.071 104.278 103.085C104.017 103.119 103.772 103.175 103.545 103.251C103.321 103.325 103.139 103.437 103 103.588C102.863 103.736 102.795 103.937 102.795 104.193C102.795 104.543 102.924 104.807 103.183 104.986C103.444 105.162 103.775 105.25 104.176 105.25ZM108.858 106V99.4545H109.83V100.443H109.898C110.017 100.119 110.233 99.8565 110.545 99.6548C110.858 99.4531 111.21 99.3523 111.602 99.3523C111.676 99.3523 111.768 99.3537 111.879 99.3565C111.99 99.3594 112.074 99.3636 112.131 99.3693V100.392C112.097 100.384 112.018 100.371 111.896 100.354C111.777 100.334 111.651 100.324 111.517 100.324C111.199 100.324 110.915 100.391 110.665 100.524C110.418 100.655 110.222 100.837 110.077 101.07C109.935 101.3 109.864 101.562 109.864 101.858V106H108.858ZM116.58 99.4545V100.307H113.188V99.4545H116.58ZM114.176 97.8864H115.182V104.125C115.182 104.409 115.223 104.622 115.305 104.764C115.391 104.903 115.499 104.997 115.629 105.045C115.763 105.091 115.903 105.114 116.051 105.114C116.162 105.114 116.253 105.108 116.324 105.097C116.395 105.082 116.452 105.071 116.494 105.062L116.699 105.966C116.631 105.991 116.536 106.017 116.413 106.043C116.291 106.071 116.136 106.085 115.949 106.085C115.665 106.085 115.386 106.024 115.114 105.902C114.844 105.78 114.619 105.594 114.44 105.344C114.264 105.094 114.176 104.778 114.176 104.398V97.8864ZM126.104 100.92L125.2 101.176C125.143 101.026 125.06 100.879 124.949 100.737C124.841 100.592 124.693 100.473 124.506 100.379C124.318 100.286 124.078 100.239 123.786 100.239C123.385 100.239 123.051 100.331 122.784 100.516C122.52 100.697 122.388 100.929 122.388 101.21C122.388 101.46 122.479 101.658 122.661 101.803C122.842 101.947 123.126 102.068 123.513 102.165L124.484 102.403C125.07 102.545 125.506 102.763 125.793 103.055C126.08 103.345 126.223 103.719 126.223 104.176C126.223 104.551 126.115 104.886 125.899 105.182C125.686 105.477 125.388 105.71 125.004 105.881C124.621 106.051 124.175 106.136 123.666 106.136C122.999 106.136 122.446 105.991 122.009 105.702C121.571 105.412 121.294 104.989 121.178 104.432L122.132 104.193C122.223 104.545 122.395 104.81 122.648 104.986C122.903 105.162 123.237 105.25 123.649 105.25C124.118 105.25 124.49 105.151 124.766 104.952C125.044 104.75 125.183 104.509 125.183 104.227C125.183 104 125.104 103.81 124.945 103.656C124.786 103.5 124.541 103.384 124.212 103.307L123.121 103.051C122.521 102.909 122.081 102.689 121.8 102.391C121.521 102.089 121.382 101.713 121.382 101.261C121.382 100.892 121.486 100.565 121.693 100.281C121.903 99.9972 122.189 99.7741 122.55 99.6122C122.913 99.4503 123.325 99.3693 123.786 99.3693C124.433 99.3693 124.942 99.5114 125.311 99.7955C125.683 100.08 125.947 100.455 126.104 100.92ZM130.583 99.4545V100.307H127.191V99.4545H130.583ZM128.18 97.8864H129.186V104.125C129.186 104.409 129.227 104.622 129.309 104.764C129.395 104.903 129.502 104.997 129.633 105.045C129.767 105.091 129.907 105.114 130.055 105.114C130.166 105.114 130.257 105.108 130.328 105.097C130.399 105.082 130.456 105.071 130.498 105.062L130.703 105.966C130.635 105.991 130.539 106.017 130.417 106.043C130.295 106.071 130.14 106.085 129.953 106.085C129.669 106.085 129.39 106.024 129.118 105.902C128.848 105.78 128.623 105.594 128.444 105.344C128.268 105.094 128.18 104.778 128.18 104.398V97.8864ZM132.096 106V99.4545H133.068V100.443H133.136C133.255 100.119 133.471 99.8565 133.784 99.6548C134.096 99.4531 134.449 99.3523 134.841 99.3523C134.914 99.3523 135.007 99.3537 135.118 99.3565C135.228 99.3594 135.312 99.3636 135.369 99.3693V100.392C135.335 100.384 135.257 100.371 135.135 100.354C135.015 100.334 134.889 100.324 134.755 100.324C134.437 100.324 134.153 100.391 133.903 100.524C133.656 100.655 133.46 100.837 133.315 101.07C133.173 101.3 133.102 101.562 133.102 101.858V106H132.096ZM139.106 106.136C138.475 106.136 137.931 105.997 137.474 105.719C137.02 105.438 136.669 105.045 136.422 104.543C136.177 104.037 136.055 103.449 136.055 102.778C136.055 102.108 136.177 101.517 136.422 101.006C136.669 100.491 137.012 100.091 137.453 99.804C137.896 99.5142 138.413 99.3693 139.004 99.3693C139.345 99.3693 139.681 99.4261 140.014 99.5398C140.346 99.6534 140.649 99.8381 140.922 100.094C141.194 100.347 141.412 100.682 141.574 101.099C141.735 101.517 141.816 102.031 141.816 102.642V103.068H136.771V102.199H140.794C140.794 101.83 140.72 101.5 140.572 101.21C140.427 100.92 140.22 100.692 139.95 100.524C139.683 100.357 139.368 100.273 139.004 100.273C138.603 100.273 138.257 100.372 137.964 100.571C137.674 100.767 137.451 101.023 137.295 101.338C137.139 101.653 137.061 101.991 137.061 102.352V102.932C137.061 103.426 137.146 103.845 137.316 104.189C137.49 104.53 137.73 104.79 138.037 104.969C138.343 105.145 138.7 105.233 139.106 105.233C139.37 105.233 139.609 105.196 139.822 105.122C140.038 105.045 140.224 104.932 140.38 104.781C140.537 104.628 140.657 104.437 140.743 104.21L141.714 104.483C141.612 104.812 141.44 105.102 141.199 105.352C140.957 105.599 140.659 105.793 140.304 105.932C139.949 106.068 139.549 106.136 139.106 106.136ZM146.091 106.136C145.46 106.136 144.916 105.997 144.458 105.719C144.004 105.438 143.653 105.045 143.406 104.543C143.162 104.037 143.039 103.449 143.039 102.778C143.039 102.108 143.162 101.517 143.406 101.006C143.653 100.491 143.997 100.091 144.437 99.804C144.88 99.5142 145.397 99.3693 145.988 99.3693C146.329 99.3693 146.666 99.4261 146.998 99.5398C147.331 99.6534 147.633 99.8381 147.906 100.094C148.179 100.347 148.396 100.682 148.558 101.099C148.72 101.517 148.801 102.031 148.801 102.642V103.068H143.755V102.199H147.778C147.778 101.83 147.704 101.5 147.556 101.21C147.412 100.92 147.204 100.692 146.934 100.524C146.667 100.357 146.352 100.273 145.988 100.273C145.588 100.273 145.241 100.372 144.949 100.571C144.659 100.767 144.436 101.023 144.279 101.338C144.123 101.653 144.045 101.991 144.045 102.352V102.932C144.045 103.426 144.13 103.845 144.301 104.189C144.474 104.53 144.714 104.79 145.021 104.969C145.328 105.145 145.684 105.233 146.091 105.233C146.355 105.233 146.593 105.196 146.806 105.122C147.022 105.045 147.208 104.932 147.365 104.781C147.521 104.628 147.642 104.437 147.727 104.21L148.699 104.483C148.596 104.812 148.424 105.102 148.183 105.352C147.941 105.599 147.643 105.793 147.288 105.932C146.933 106.068 146.534 106.136 146.091 106.136ZM153.177 99.4545V100.307H149.785V99.4545H153.177ZM150.774 97.8864H151.779V104.125C151.779 104.409 151.821 104.622 151.903 104.764C151.988 104.903 152.096 104.997 152.227 105.045C152.36 105.091 152.501 105.114 152.649 105.114C152.76 105.114 152.85 105.108 152.922 105.097C152.993 105.082 153.049 105.071 153.092 105.062L153.297 105.966C153.228 105.991 153.133 106.017 153.011 106.043C152.889 106.071 152.734 106.085 152.547 106.085C152.262 106.085 151.984 106.024 151.711 105.902C151.441 105.78 151.217 105.594 151.038 105.344C150.862 105.094 150.774 104.778 150.774 104.398V97.8864ZM156.19 104.807L156.122 105.267C156.074 105.591 156 105.938 155.9 106.307C155.804 106.676 155.703 107.024 155.598 107.351C155.493 107.678 155.406 107.938 155.338 108.131H154.571C154.608 107.949 154.656 107.709 154.716 107.411C154.775 107.112 154.835 106.778 154.895 106.409C154.957 106.043 155.008 105.668 155.048 105.284L155.099 104.807H156.19ZM168.485 97.2727V106H167.462L162.707 99.1477H162.621V106H161.565V97.2727H162.587L167.36 104.142H167.445V97.2727H168.485ZM173.208 106.136C172.577 106.136 172.033 105.997 171.576 105.719C171.121 105.438 170.77 105.045 170.523 104.543C170.279 104.037 170.157 103.449 170.157 102.778C170.157 102.108 170.279 101.517 170.523 101.006C170.77 100.491 171.114 100.091 171.554 99.804C171.998 99.5142 172.515 99.3693 173.105 99.3693C173.446 99.3693 173.783 99.4261 174.115 99.5398C174.448 99.6534 174.75 99.8381 175.023 100.094C175.296 100.347 175.513 100.682 175.675 101.099C175.837 101.517 175.918 102.031 175.918 102.642V103.068H170.873V102.199H174.895C174.895 101.83 174.821 101.5 174.674 101.21C174.529 100.92 174.321 100.692 174.051 100.524C173.784 100.357 173.469 100.273 173.105 100.273C172.705 100.273 172.358 100.372 172.066 100.571C171.776 100.767 171.553 101.023 171.397 101.338C171.24 101.653 171.162 101.991 171.162 102.352V102.932C171.162 103.426 171.248 103.845 171.418 104.189C171.591 104.53 171.831 104.79 172.138 104.969C172.445 105.145 172.801 105.233 173.208 105.233C173.472 105.233 173.711 105.196 173.924 105.122C174.14 105.045 174.326 104.932 174.482 104.781C174.638 104.628 174.759 104.437 174.844 104.21L175.816 104.483C175.713 104.812 175.542 105.102 175.3 105.352C175.059 105.599 174.76 105.793 174.405 105.932C174.05 106.068 173.651 106.136 173.208 106.136ZM178.931 106L176.936 99.4545H177.993L179.408 104.466H179.476L180.874 99.4545H181.948L183.328 104.449H183.397L184.811 99.4545H185.868L183.874 106H182.885L181.453 100.972H181.351L179.919 106H178.931ZM189.959 97.2727H191.169L193.59 101.347H193.692L196.113 97.2727H197.323L194.169 102.403V106H193.113V102.403L189.959 97.2727ZM200.287 106.136C199.696 106.136 199.177 105.996 198.731 105.714C198.288 105.433 197.941 105.04 197.691 104.534C197.444 104.028 197.321 103.437 197.321 102.761C197.321 102.08 197.444 101.484 197.691 100.976C197.941 100.467 198.288 100.072 198.731 99.7912C199.177 99.5099 199.696 99.3693 200.287 99.3693C200.877 99.3693 201.395 99.5099 201.838 99.7912C202.284 100.072 202.63 100.467 202.877 100.976C203.127 101.484 203.252 102.08 203.252 102.761C203.252 103.437 203.127 104.028 202.877 104.534C202.63 105.04 202.284 105.433 201.838 105.714C201.395 105.996 200.877 106.136 200.287 106.136ZM200.287 105.233C200.735 105.233 201.105 105.118 201.395 104.888C201.684 104.658 201.899 104.355 202.038 103.98C202.177 103.605 202.247 103.199 202.247 102.761C202.247 102.324 202.177 101.916 202.038 101.538C201.899 101.161 201.684 100.855 201.395 100.622C201.105 100.389 200.735 100.273 200.287 100.273C199.838 100.273 199.468 100.389 199.179 100.622C198.889 100.855 198.674 101.161 198.535 101.538C198.396 101.916 198.326 102.324 198.326 102.761C198.326 103.199 198.396 103.605 198.535 103.98C198.674 104.355 198.889 104.658 199.179 104.888C199.468 105.118 199.838 105.233 200.287 105.233ZM204.788 106V99.4545H205.759V100.443H205.827C205.947 100.119 206.163 99.8565 206.475 99.6548C206.788 99.4531 207.14 99.3523 207.532 99.3523C207.606 99.3523 207.698 99.3537 207.809 99.3565C207.92 99.3594 208.004 99.3636 208.06 99.3693V100.392C208.026 100.384 207.948 100.371 207.826 100.354C207.707 100.334 207.58 100.324 207.447 100.324C207.129 100.324 206.844 100.391 206.594 100.524C206.347 100.655 206.151 100.837 206.006 101.07C205.864 101.3 205.793 101.562 205.793 101.858V106H204.788ZM210.19 103.614L210.173 102.369H210.377L213.241 99.4545H214.485L211.434 102.54H211.349L210.19 103.614ZM209.252 106V97.2727H210.258V106H209.252ZM213.412 106L210.855 102.761L211.571 102.062L214.69 106H213.412Z" fill="white"/>
<path d="M302.508 58.2727H304.294L306.429 62.1335H306.514L308.649 58.2727H310.434L307.26 63.7443V67H305.683V63.7443L302.508 58.2727ZM313.122 67.1278C312.483 67.1278 311.929 66.9872 311.46 66.706C310.992 66.4247 310.628 66.0312 310.369 65.5256C310.114 65.0199 309.986 64.429 309.986 63.7528C309.986 63.0767 310.114 62.4844 310.369 61.9759C310.628 61.4673 310.992 61.0724 311.46 60.7912C311.929 60.5099 312.483 60.3693 313.122 60.3693C313.762 60.3693 314.316 60.5099 314.784 60.7912C315.253 61.0724 315.615 61.4673 315.871 61.9759C316.129 62.4844 316.259 63.0767 316.259 63.7528C316.259 64.429 316.129 65.0199 315.871 65.5256C315.615 66.0312 315.253 66.4247 314.784 66.706C314.316 66.9872 313.762 67.1278 313.122 67.1278ZM313.131 65.892C313.477 65.892 313.767 65.7969 314 65.6065C314.233 65.4134 314.406 65.1548 314.52 64.831C314.637 64.5071 314.695 64.1463 314.695 63.7486C314.695 63.348 314.637 62.9858 314.52 62.6619C314.406 62.3352 314.233 62.0753 314 61.8821C313.767 61.6889 313.477 61.5923 313.131 61.5923C312.776 61.5923 312.48 61.6889 312.244 61.8821C312.012 62.0753 311.837 62.3352 311.72 62.6619C311.607 62.9858 311.55 63.348 311.55 63.7486C311.55 64.1463 311.607 64.5071 311.72 64.831C311.837 65.1548 312.012 65.4134 312.244 65.6065C312.48 65.7969 312.776 65.892 313.131 65.892ZM321.74 64.2472V60.4545H323.282V67H321.787V65.8366H321.719C321.571 66.2031 321.328 66.5028 320.99 66.7358C320.655 66.9687 320.241 67.0852 319.75 67.0852C319.321 67.0852 318.942 66.9901 318.612 66.7997C318.285 66.6065 318.03 66.3267 317.845 65.9602C317.66 65.5909 317.568 65.1449 317.568 64.6222V60.4545H319.111V64.3835C319.111 64.7983 319.224 65.1278 319.452 65.3722C319.679 65.6165 319.977 65.7386 320.346 65.7386C320.574 65.7386 320.794 65.6832 321.007 65.5724C321.22 65.4616 321.395 65.2969 321.531 65.0781C321.67 64.8565 321.74 64.5795 321.74 64.2472ZM324.869 67V60.4545H326.365V61.5455H326.433C326.552 61.1676 326.757 60.8764 327.046 60.6719C327.339 60.4645 327.673 60.3608 328.048 60.3608C328.133 60.3608 328.228 60.3651 328.333 60.3736C328.441 60.3793 328.531 60.3892 328.602 60.4034V61.8224C328.536 61.7997 328.433 61.7798 328.291 61.7628C328.151 61.7429 328.017 61.733 327.886 61.733C327.605 61.733 327.352 61.794 327.127 61.9162C326.906 62.0355 326.731 62.2017 326.603 62.4148C326.475 62.6278 326.411 62.8736 326.411 63.152V67H324.869ZM335.501 67.1278C334.845 67.1278 334.278 66.9915 333.801 66.7188C333.326 66.4432 332.961 66.054 332.705 65.5511C332.45 65.0455 332.322 64.4503 332.322 63.7656C332.322 63.0923 332.45 62.5014 332.705 61.9929C332.964 61.4815 333.325 61.0838 333.788 60.7997C334.251 60.5128 334.795 60.3693 335.42 60.3693C335.823 60.3693 336.204 60.4347 336.562 60.5653C336.923 60.6932 337.241 60.892 337.517 61.1619C337.795 61.4318 338.014 61.7756 338.173 62.1932C338.332 62.608 338.411 63.1023 338.411 63.6761V64.1491H333.046V63.1094H336.933C336.93 62.8139 336.866 62.5511 336.741 62.321C336.616 62.0881 336.441 61.9048 336.217 61.7713C335.995 61.6378 335.737 61.571 335.441 61.571C335.126 61.571 334.849 61.6477 334.61 61.8011C334.372 61.9517 334.186 62.1506 334.052 62.3977C333.921 62.642 333.855 62.9105 333.852 63.2031V64.1108C333.852 64.4915 333.921 64.8182 334.061 65.0909C334.2 65.3608 334.394 65.5682 334.644 65.7131C334.894 65.8551 335.187 65.9261 335.522 65.9261C335.747 65.9261 335.95 65.8949 336.132 65.8324C336.313 65.767 336.471 65.6719 336.605 65.5469C336.738 65.4219 336.839 65.267 336.907 65.0824L338.347 65.2443C338.257 65.625 338.083 65.9574 337.828 66.2415C337.575 66.5227 337.251 66.7415 336.856 66.8977C336.461 67.0511 336.009 67.1278 335.501 67.1278ZM341.259 63.1648V67H339.716V60.4545H341.191V61.5668H341.268C341.418 61.2003 341.658 60.9091 341.988 60.6932C342.32 60.4773 342.731 60.3693 343.219 60.3693C343.671 60.3693 344.064 60.4659 344.4 60.6591C344.738 60.8523 344.999 61.1321 345.184 61.4986C345.371 61.8651 345.464 62.3097 345.461 62.8324V67H343.918V63.071C343.918 62.6335 343.805 62.2912 343.577 62.044C343.353 61.7969 343.042 61.6733 342.644 61.6733C342.374 61.6733 342.134 61.733 341.924 61.8523C341.716 61.9687 341.553 62.1378 341.434 62.3594C341.317 62.581 341.259 62.8494 341.259 63.1648ZM350.297 60.4545V61.6477H346.535V60.4545H350.297ZM347.464 58.8864H349.006V65.0312C349.006 65.2386 349.037 65.3977 349.1 65.5085C349.165 65.6165 349.251 65.6903 349.356 65.7301C349.461 65.7699 349.577 65.7898 349.705 65.7898C349.802 65.7898 349.89 65.7827 349.969 65.7685C350.052 65.7543 350.114 65.7415 350.157 65.7301L350.417 66.9361C350.334 66.9645 350.216 66.9957 350.063 67.0298C349.912 67.0639 349.728 67.0838 349.509 67.0895C349.123 67.1009 348.775 67.0426 348.465 66.9148C348.155 66.7841 347.91 66.5824 347.728 66.3097C347.549 66.0369 347.461 65.696 347.464 65.2869V58.8864ZM354.415 67.1278C353.759 67.1278 353.192 66.9915 352.715 66.7188C352.24 66.4432 351.875 66.054 351.619 65.5511C351.364 65.0455 351.236 64.4503 351.236 63.7656C351.236 63.0923 351.364 62.5014 351.619 61.9929C351.878 61.4815 352.239 61.0838 352.702 60.7997C353.165 60.5128 353.709 60.3693 354.334 60.3693C354.737 60.3693 355.118 60.4347 355.476 60.5653C355.837 60.6932 356.155 60.892 356.431 61.1619C356.709 61.4318 356.928 61.7756 357.087 62.1932C357.246 62.608 357.325 63.1023 357.325 63.6761V64.1491H351.96V63.1094H355.847C355.844 62.8139 355.78 62.5511 355.655 62.321C355.53 62.0881 355.355 61.9048 355.131 61.7713C354.909 61.6378 354.651 61.571 354.355 61.571C354.04 61.571 353.763 61.6477 353.524 61.8011C353.286 61.9517 353.1 62.1506 352.966 62.3977C352.835 62.642 352.769 62.9105 352.766 63.2031V64.1108C352.766 64.4915 352.835 64.8182 352.975 65.0909C353.114 65.3608 353.308 65.5682 353.558 65.7131C353.808 65.8551 354.101 65.9261 354.436 65.9261C354.661 65.9261 354.864 65.8949 355.046 65.8324C355.227 65.767 355.385 65.6719 355.519 65.5469C355.652 65.4219 355.753 65.267 355.821 65.0824L357.262 65.2443C357.171 65.625 356.997 65.9574 356.742 66.2415C356.489 66.5227 356.165 66.7415 355.77 66.8977C355.375 67.0511 354.923 67.1278 354.415 67.1278ZM358.631 67V60.4545H360.126V61.5455H360.194C360.314 61.1676 360.518 60.8764 360.808 60.6719C361.101 60.4645 361.434 60.3608 361.809 60.3608C361.895 60.3608 361.99 60.3651 362.095 60.3736C362.203 60.3793 362.292 60.3892 362.363 60.4034V61.8224C362.298 61.7997 362.194 61.7798 362.052 61.7628C361.913 61.7429 361.778 61.733 361.648 61.733C361.366 61.733 361.113 61.794 360.889 61.9162C360.667 62.0355 360.493 62.2017 360.365 62.4148C360.237 62.6278 360.173 62.8736 360.173 63.152V67H358.631ZM366.017 67.1278C365.36 67.1278 364.794 66.9915 364.316 66.7188C363.842 66.4432 363.477 66.054 363.221 65.5511C362.965 65.0455 362.838 64.4503 362.838 63.7656C362.838 63.0923 362.965 62.5014 363.221 61.9929C363.48 61.4815 363.84 61.0838 364.303 60.7997C364.767 60.5128 365.311 60.3693 365.936 60.3693C366.339 60.3693 366.72 60.4347 367.078 60.5653C367.438 60.6932 367.757 60.892 368.032 61.1619C368.311 61.4318 368.529 61.7756 368.688 62.1932C368.847 62.608 368.927 63.1023 368.927 63.6761V64.1491H363.562V63.1094H367.448C367.445 62.8139 367.382 62.5511 367.257 62.321C367.132 62.0881 366.957 61.9048 366.732 61.7713C366.511 61.6378 366.252 61.571 365.957 61.571C365.642 61.571 365.365 61.6477 365.126 61.8011C364.887 61.9517 364.701 62.1506 364.568 62.3977C364.437 62.642 364.37 62.9105 364.367 63.2031V64.1108C364.367 64.4915 364.437 64.8182 364.576 65.0909C364.715 65.3608 364.91 65.5682 365.16 65.7131C365.41 65.8551 365.703 65.9261 366.038 65.9261C366.262 65.9261 366.465 65.8949 366.647 65.8324C366.829 65.767 366.987 65.6719 367.12 65.5469C367.254 65.4219 367.355 65.267 367.423 65.0824L368.863 65.2443C368.772 65.625 368.599 65.9574 368.343 66.2415C368.09 66.5227 367.767 66.7415 367.372 66.8977C366.977 67.0511 366.525 67.1278 366.017 67.1278ZM372.661 67.1151C372.147 67.1151 371.687 66.983 371.28 66.7188C370.874 66.4545 370.553 66.071 370.317 65.5682C370.081 65.0653 369.964 64.4545 369.964 63.7358C369.964 63.0085 370.083 62.3949 370.322 61.8949C370.563 61.392 370.888 61.0128 371.297 60.7571C371.706 60.4986 372.162 60.3693 372.665 60.3693C373.049 60.3693 373.364 60.4347 373.611 60.5653C373.858 60.6932 374.055 60.848 374.199 61.0298C374.344 61.2088 374.456 61.3778 374.536 61.5369H374.6V58.2727H376.147V67H374.63V65.9688H374.536C374.456 66.1278 374.341 66.2969 374.191 66.4759C374.04 66.652 373.841 66.8026 373.594 66.9276C373.347 67.0526 373.036 67.1151 372.661 67.1151ZM373.091 65.8494C373.418 65.8494 373.697 65.7614 373.927 65.5852C374.157 65.4062 374.331 65.1577 374.451 64.8395C374.57 64.5213 374.63 64.1506 374.63 63.7273C374.63 63.304 374.57 62.9361 374.451 62.6236C374.334 62.3111 374.161 62.0682 373.931 61.8949C373.704 61.7216 373.424 61.6349 373.091 61.6349C372.748 61.6349 372.461 61.7244 372.231 61.9034C372.001 62.0824 371.827 62.3295 371.711 62.6449C371.594 62.9602 371.536 63.321 371.536 63.7273C371.536 64.1364 371.594 64.5014 371.711 64.8224C371.83 65.1406 372.005 65.392 372.235 65.5767C372.468 65.7585 372.753 65.8494 373.091 65.8494ZM382.651 67.1321C382.236 67.1321 381.862 67.0582 381.53 66.9105C381.2 66.7599 380.939 66.5384 380.746 66.2457C380.556 65.9531 380.46 65.5923 380.46 65.1634C380.46 64.794 380.529 64.4886 380.665 64.2472C380.801 64.0057 380.987 63.8125 381.223 63.6676C381.459 63.5227 381.725 63.4134 382.02 63.3395C382.318 63.2628 382.627 63.2074 382.945 63.1733C383.328 63.1335 383.639 63.098 383.878 63.0668C384.117 63.0327 384.29 62.9815 384.398 62.9134C384.509 62.8423 384.564 62.733 384.564 62.5852V62.5597C384.564 62.2386 384.469 61.9901 384.279 61.8139C384.088 61.6378 383.814 61.5497 383.456 61.5497C383.078 61.5497 382.779 61.6321 382.557 61.7969C382.338 61.9616 382.191 62.1562 382.114 62.3807L380.673 62.1761C380.787 61.7784 380.975 61.446 381.236 61.179C381.497 60.9091 381.817 60.7074 382.195 60.5739C382.573 60.4375 382.99 60.3693 383.448 60.3693C383.763 60.3693 384.077 60.4062 384.389 60.4801C384.702 60.554 384.987 60.6761 385.246 60.8466C385.504 61.0142 385.712 61.2429 385.868 61.5327C386.027 61.8224 386.107 62.1847 386.107 62.6193V67H384.624V66.1009H384.573C384.479 66.2827 384.347 66.4531 384.176 66.6122C384.009 66.7685 383.797 66.8949 383.541 66.9915C383.289 67.0852 382.992 67.1321 382.651 67.1321ZM383.051 65.9986C383.361 65.9986 383.629 65.9375 383.857 65.8153C384.084 65.6903 384.259 65.5256 384.381 65.321C384.506 65.1165 384.568 64.8935 384.568 64.652V63.8807C384.52 63.9205 384.438 63.9574 384.321 63.9915C384.208 64.0256 384.08 64.0554 383.938 64.081C383.796 64.1065 383.655 64.1293 383.516 64.1491C383.377 64.169 383.256 64.1861 383.154 64.2003C382.923 64.2315 382.718 64.2827 382.536 64.3537C382.354 64.4247 382.21 64.5241 382.105 64.652C382 64.777 381.948 64.9389 381.948 65.1378C381.948 65.4219 382.051 65.6364 382.259 65.7812C382.466 65.9261 382.73 65.9986 383.051 65.9986ZM390.087 67.1151C389.573 67.1151 389.112 66.983 388.706 66.7188C388.3 66.4545 387.979 66.071 387.743 65.5682C387.507 65.0653 387.389 64.4545 387.389 63.7358C387.389 63.0085 387.509 62.3949 387.747 61.8949C387.989 61.392 388.314 61.0128 388.723 60.7571C389.132 60.4986 389.588 60.3693 390.091 60.3693C390.475 60.3693 390.79 60.4347 391.037 60.5653C391.284 60.6932 391.48 60.848 391.625 61.0298C391.77 61.2088 391.882 61.3778 391.962 61.5369H392.026V58.2727H393.573V67H392.056V65.9688H391.962C391.882 66.1278 391.767 66.2969 391.617 66.4759C391.466 66.652 391.267 66.8026 391.02 66.9276C390.773 67.0526 390.462 67.1151 390.087 67.1151ZM390.517 65.8494C390.844 65.8494 391.122 65.7614 391.352 65.5852C391.583 65.4062 391.757 65.1577 391.877 64.8395C391.996 64.5213 392.056 64.1506 392.056 63.7273C392.056 63.304 391.996 62.9361 391.877 62.6236C391.76 62.3111 391.587 62.0682 391.357 61.8949C391.129 61.7216 390.85 61.6349 390.517 61.6349C390.173 61.6349 389.887 61.7244 389.656 61.9034C389.426 62.0824 389.253 62.3295 389.137 62.6449C389.02 62.9602 388.962 63.321 388.962 63.7273C388.962 64.1364 389.02 64.5014 389.137 64.8224C389.256 65.1406 389.431 65.392 389.661 65.5767C389.894 65.7585 390.179 65.8494 390.517 65.8494ZM397.645 67.1151C397.131 67.1151 396.671 66.983 396.265 66.7188C395.858 66.4545 395.537 66.071 395.302 65.5682C395.066 65.0653 394.948 64.4545 394.948 63.7358C394.948 63.0085 395.067 62.3949 395.306 61.8949C395.547 61.392 395.873 61.0128 396.282 60.7571C396.691 60.4986 397.147 60.3693 397.65 60.3693C398.033 60.3693 398.349 60.4347 398.596 60.5653C398.843 60.6932 399.039 60.848 399.184 61.0298C399.329 61.2088 399.441 61.3778 399.52 61.5369H399.584V58.2727H401.131V67H399.614V65.9688H399.52C399.441 66.1278 399.326 66.2969 399.175 66.4759C399.025 66.652 398.826 66.8026 398.579 66.9276C398.331 67.0526 398.02 67.1151 397.645 67.1151ZM398.076 65.8494C398.403 65.8494 398.681 65.7614 398.911 65.5852C399.141 65.4062 399.316 65.1577 399.435 64.8395C399.555 64.5213 399.614 64.1506 399.614 63.7273C399.614 63.304 399.555 62.9361 399.435 62.6236C399.319 62.3111 399.145 62.0682 398.915 61.8949C398.688 61.7216 398.408 61.6349 398.076 61.6349C397.732 61.6349 397.445 61.7244 397.215 61.9034C396.985 62.0824 396.812 62.3295 396.695 62.6449C396.579 62.9602 396.52 63.321 396.52 63.7273C396.52 64.1364 396.579 64.5014 396.695 64.8224C396.814 65.1406 396.989 65.392 397.219 65.5767C397.452 65.7585 397.738 65.8494 398.076 65.8494ZM402.775 67V60.4545H404.271V61.5455H404.339C404.458 61.1676 404.663 60.8764 404.953 60.6719C405.245 60.4645 405.579 60.3608 405.954 60.3608C406.039 60.3608 406.134 60.3651 406.24 60.3736C406.347 60.3793 406.437 60.3892 406.508 60.4034V61.8224C406.443 61.7997 406.339 61.7798 406.197 61.7628C406.058 61.7429 405.923 61.733 405.792 61.733C405.511 61.733 405.258 61.794 405.034 61.9162C404.812 62.0355 404.637 62.2017 404.509 62.4148C404.382 62.6278 404.318 62.8736 404.318 63.152V67H402.775ZM410.161 67.1278C409.505 67.1278 408.938 66.9915 408.461 66.7188C407.986 66.4432 407.621 66.054 407.366 65.5511C407.11 65.0455 406.982 64.4503 406.982 63.7656C406.982 63.0923 407.11 62.5014 407.366 61.9929C407.624 61.4815 407.985 61.0838 408.448 60.7997C408.911 60.5128 409.455 60.3693 410.08 60.3693C410.483 60.3693 410.864 60.4347 411.222 60.5653C411.583 60.6932 411.901 60.892 412.177 61.1619C412.455 61.4318 412.674 61.7756 412.833 62.1932C412.992 62.608 413.072 63.1023 413.072 63.6761V64.1491H407.706V63.1094H411.593C411.59 62.8139 411.526 62.5511 411.401 62.321C411.276 62.0881 411.101 61.9048 410.877 61.7713C410.655 61.6378 410.397 61.571 410.101 61.571C409.786 61.571 409.509 61.6477 409.27 61.8011C409.032 61.9517 408.846 62.1506 408.712 62.3977C408.581 62.642 408.515 62.9105 408.512 63.2031V64.1108C408.512 64.4915 408.581 64.8182 408.721 65.0909C408.86 65.3608 409.055 65.5682 409.305 65.7131C409.555 65.8551 409.847 65.9261 410.182 65.9261C410.407 65.9261 410.61 65.8949 410.792 65.8324C410.974 65.767 411.131 65.6719 411.265 65.5469C411.398 65.4219 411.499 65.267 411.567 65.0824L413.008 65.2443C412.917 65.625 412.743 65.9574 412.488 66.2415C412.235 66.5227 411.911 66.7415 411.516 66.8977C411.121 67.0511 410.67 67.1278 410.161 67.1278ZM419.55 62.1847L418.144 62.3381C418.104 62.196 418.034 62.0625 417.935 61.9375C417.838 61.8125 417.708 61.7116 417.543 61.6349C417.378 61.5582 417.176 61.5199 416.938 61.5199C416.617 61.5199 416.347 61.5895 416.128 61.7287C415.912 61.8679 415.806 62.0483 415.808 62.2699C415.806 62.4602 415.875 62.6151 416.017 62.7344C416.162 62.8537 416.401 62.9517 416.733 63.0284L417.85 63.267C418.469 63.4006 418.929 63.6122 419.23 63.902C419.534 64.1918 419.688 64.571 419.691 65.0398C419.688 65.4517 419.567 65.8153 419.328 66.1307C419.093 66.4432 418.764 66.6875 418.344 66.8636C417.923 67.0398 417.441 67.1278 416.895 67.1278C416.094 67.1278 415.449 66.9602 414.96 66.625C414.472 66.2869 414.181 65.8168 414.087 65.2145L415.591 65.0696C415.659 65.3651 415.804 65.5881 416.026 65.7386C416.247 65.8892 416.536 65.9645 416.891 65.9645C417.257 65.9645 417.551 65.8892 417.773 65.7386C417.997 65.5881 418.11 65.402 418.11 65.1804C418.11 64.9929 418.037 64.8381 417.892 64.7159C417.75 64.5937 417.529 64.5 417.227 64.4347L416.111 64.2003C415.483 64.0696 415.019 63.8494 414.718 63.5398C414.416 63.2273 414.267 62.8324 414.27 62.3551C414.267 61.9517 414.377 61.6023 414.598 61.3068C414.823 61.0085 415.134 60.7784 415.531 60.6165C415.932 60.4517 416.394 60.3693 416.916 60.3693C417.683 60.3693 418.287 60.5327 418.727 60.8594C419.171 61.1861 419.445 61.6278 419.55 62.1847ZM426.136 62.1847L424.73 62.3381C424.69 62.196 424.62 62.0625 424.521 61.9375C424.424 61.8125 424.294 61.7116 424.129 61.6349C423.964 61.5582 423.762 61.5199 423.524 61.5199C423.203 61.5199 422.933 61.5895 422.714 61.7287C422.498 61.8679 422.392 62.0483 422.394 62.2699C422.392 62.4602 422.461 62.6151 422.603 62.7344C422.748 62.8537 422.987 62.9517 423.319 63.0284L424.436 63.267C425.055 63.4006 425.515 63.6122 425.816 63.902C426.12 64.1918 426.274 64.571 426.276 65.0398C426.274 65.4517 426.153 65.8153 425.914 66.1307C425.678 66.4432 425.35 66.6875 424.93 66.8636C424.509 67.0398 424.026 67.1278 423.481 67.1278C422.68 67.1278 422.035 66.9602 421.546 66.625C421.058 66.2869 420.767 65.8168 420.673 65.2145L422.177 65.0696C422.245 65.3651 422.39 65.5881 422.612 65.7386C422.833 65.8892 423.122 65.9645 423.477 65.9645C423.843 65.9645 424.137 65.8892 424.359 65.7386C424.583 65.5881 424.695 65.402 424.695 65.1804C424.695 64.9929 424.623 64.8381 424.478 64.7159C424.336 64.5937 424.115 64.5 423.813 64.4347L422.697 64.2003C422.069 64.0696 421.605 63.8494 421.303 63.5398C421.002 63.2273 420.853 62.8324 420.856 62.3551C420.853 61.9517 420.963 61.6023 421.184 61.3068C421.409 61.0085 421.72 60.7784 422.117 60.6165C422.518 60.4517 422.98 60.3693 423.502 60.3693C424.269 60.3693 424.873 60.5327 425.313 60.8594C425.757 61.1861 426.031 61.6278 426.136 62.1847Z" fill="#111111"/>
<path d="M290.46 83.2727V92H289.403V84.3807H289.352L287.221 85.7955V84.7216L289.403 83.2727H290.46ZM292.97 92V91.233L295.85 88.0795C296.189 87.7102 296.467 87.3892 296.686 87.1165C296.904 86.8409 297.066 86.5824 297.172 86.3409C297.279 86.0966 297.333 85.8409 297.333 85.5739C297.333 85.267 297.26 85.0014 297.112 84.777C296.967 84.5526 296.768 84.3793 296.515 84.2571C296.262 84.1349 295.978 84.0739 295.663 84.0739C295.328 84.0739 295.035 84.1435 294.785 84.2827C294.538 84.419 294.346 84.6108 294.21 84.858C294.076 85.1051 294.01 85.3949 294.01 85.7273H293.004C293.004 85.2159 293.122 84.767 293.358 84.3807C293.593 83.9943 293.914 83.6932 294.321 83.4773C294.73 83.2614 295.189 83.1534 295.697 83.1534C296.208 83.1534 296.662 83.2614 297.056 83.4773C297.451 83.6932 297.761 83.9844 297.985 84.3509C298.21 84.7173 298.322 85.125 298.322 85.5739C298.322 85.8949 298.264 86.2088 298.147 86.5156C298.034 86.8196 297.835 87.1591 297.551 87.5341C297.27 87.9062 296.879 88.3608 296.379 88.8977L294.419 90.9943V91.0625H298.475V92H292.97ZM303.184 92.1193C302.622 92.1193 302.12 92.0227 301.68 91.8295C301.243 91.6364 300.895 91.3679 300.636 91.0241C300.38 90.6776 300.241 90.2756 300.218 89.8182H301.292C301.315 90.0994 301.412 90.3423 301.582 90.5469C301.752 90.7486 301.975 90.9048 302.251 91.0156C302.527 91.1264 302.832 91.1818 303.167 91.1818C303.542 91.1818 303.875 91.1165 304.164 90.9858C304.454 90.8551 304.681 90.6733 304.846 90.4403C305.011 90.2074 305.093 89.9375 305.093 89.6307C305.093 89.3097 305.014 89.027 304.855 88.7827C304.696 88.5355 304.463 88.3423 304.156 88.2031C303.849 88.0639 303.474 87.9943 303.031 87.9943H302.332V87.0568H303.031C303.377 87.0568 303.681 86.9943 303.943 86.8693C304.207 86.7443 304.413 86.5682 304.561 86.3409C304.711 86.1136 304.787 85.8466 304.787 85.5398C304.787 85.2443 304.721 84.9872 304.591 84.7685C304.46 84.5497 304.275 84.3793 304.037 84.2571C303.801 84.1349 303.522 84.0739 303.201 84.0739C302.9 84.0739 302.616 84.1293 302.349 84.2401C302.085 84.348 301.869 84.5057 301.701 84.7131C301.534 84.9176 301.443 85.1648 301.429 85.4545H300.406C300.423 84.9972 300.561 84.5966 300.819 84.2528C301.078 83.9062 301.416 83.6364 301.833 83.4432C302.254 83.25 302.716 83.1534 303.218 83.1534C303.758 83.1534 304.221 83.2628 304.608 83.4815C304.994 83.6974 305.291 83.983 305.498 84.3381C305.706 84.6932 305.809 85.0767 305.809 85.4886C305.809 85.9801 305.68 86.3991 305.422 86.7457C305.166 87.0923 304.818 87.3324 304.377 87.4659V87.5341C304.929 87.625 305.359 87.8594 305.669 88.2372C305.978 88.6122 306.133 89.0767 306.133 89.6307C306.133 90.1051 306.004 90.5312 305.745 90.9091C305.49 91.2841 305.14 91.5795 304.697 91.7955C304.254 92.0114 303.75 92.1193 303.184 92.1193ZM309.124 90.8068L309.055 91.267C309.007 91.5909 308.933 91.9375 308.834 92.3068C308.737 92.6761 308.636 93.0241 308.531 93.3509C308.426 93.6776 308.339 93.9375 308.271 94.1307H307.504C307.541 93.9489 307.589 93.7088 307.649 93.4105C307.709 93.1122 307.768 92.7784 307.828 92.4091C307.891 92.0426 307.942 91.6676 307.982 91.2841L308.033 90.8068H309.124ZM319.271 85.4545C319.22 85.0227 319.012 84.6875 318.649 84.4489C318.285 84.2102 317.839 84.0909 317.311 84.0909C316.924 84.0909 316.586 84.1534 316.297 84.2784C316.01 84.4034 315.785 84.5753 315.623 84.794C315.464 85.0128 315.385 85.2614 315.385 85.5398C315.385 85.7727 315.44 85.973 315.551 86.1406C315.664 86.3054 315.809 86.4432 315.985 86.554C316.162 86.6619 316.346 86.7514 316.539 86.8224C316.733 86.8906 316.91 86.946 317.072 86.9886L317.958 87.2273C318.186 87.2869 318.439 87.3693 318.717 87.4744C318.998 87.5795 319.267 87.723 319.522 87.9048C319.781 88.0838 319.994 88.3139 320.162 88.5952C320.329 88.8764 320.413 89.2216 320.413 89.6307C320.413 90.1023 320.289 90.5284 320.042 90.9091C319.798 91.2898 319.44 91.5923 318.968 91.8168C318.5 92.0412 317.93 92.1534 317.26 92.1534C316.635 92.1534 316.093 92.0526 315.636 91.8509C315.181 91.6491 314.824 91.3679 314.562 91.0071C314.304 90.6463 314.157 90.2273 314.123 89.75H315.214C315.243 90.0795 315.353 90.3523 315.547 90.5682C315.743 90.7812 315.99 90.9403 316.288 91.0455C316.589 91.1477 316.913 91.1989 317.26 91.1989C317.663 91.1989 318.025 91.1335 318.346 91.0028C318.667 90.8693 318.922 90.6847 319.109 90.4489C319.297 90.2102 319.39 89.9318 319.39 89.6136C319.39 89.3239 319.309 89.0881 319.147 88.9062C318.985 88.7244 318.772 88.5767 318.508 88.4631C318.244 88.3494 317.958 88.25 317.652 88.1648L316.578 87.858C315.896 87.6619 315.356 87.3821 314.958 87.0185C314.561 86.6548 314.362 86.179 314.362 85.5909C314.362 85.1023 314.494 84.6761 314.758 84.3125C315.025 83.946 315.383 83.6619 315.832 83.4602C316.284 83.2557 316.788 83.1534 317.345 83.1534C317.907 83.1534 318.407 83.2543 318.845 83.456C319.282 83.6548 319.629 83.9276 319.885 84.2741C320.143 84.6207 320.279 85.0142 320.294 85.4545H319.271ZM322.014 92V85.4545H322.986V86.4773H323.071C323.207 86.1278 323.428 85.8565 323.732 85.6634C324.036 85.4673 324.401 85.3693 324.827 85.3693C325.259 85.3693 325.618 85.4673 325.905 85.6634C326.195 85.8565 326.42 86.1278 326.582 86.4773H326.651C326.818 86.1392 327.07 85.8707 327.405 85.6719C327.74 85.4702 328.142 85.3693 328.611 85.3693C329.196 85.3693 329.675 85.5526 330.047 85.919C330.419 86.2827 330.605 86.8494 330.605 87.6193V92H329.599V87.6193C329.599 87.1364 329.467 86.7912 329.203 86.5838C328.939 86.3764 328.628 86.2727 328.27 86.2727C327.81 86.2727 327.453 86.4119 327.2 86.6903C326.947 86.9659 326.821 87.3153 326.821 87.7386V92H325.798V87.517C325.798 87.1449 325.678 86.8452 325.436 86.6179C325.195 86.3878 324.884 86.2727 324.503 86.2727C324.241 86.2727 323.997 86.3423 323.77 86.4815C323.545 86.6207 323.364 86.8139 323.224 87.0611C323.088 87.3054 323.02 87.5881 323.02 87.9091V92H322.014ZM334.37 92.1534C333.955 92.1534 333.579 92.0753 333.241 91.919C332.903 91.7599 332.634 91.5312 332.435 91.233C332.237 90.9318 332.137 90.5682 332.137 90.142C332.137 89.767 332.211 89.4631 332.359 89.2301C332.506 88.9943 332.704 88.8097 332.951 88.6761C333.198 88.5426 333.471 88.4432 333.769 88.3778C334.07 88.3097 334.373 88.2557 334.677 88.2159C335.075 88.1648 335.397 88.1264 335.644 88.1009C335.894 88.0724 336.076 88.0256 336.19 87.9602C336.306 87.8949 336.364 87.7812 336.364 87.6193V87.5852C336.364 87.1648 336.249 86.8381 336.019 86.6051C335.792 86.3722 335.447 86.2557 334.984 86.2557C334.504 86.2557 334.127 86.3608 333.854 86.571C333.582 86.7812 333.39 87.0057 333.279 87.2443L332.325 86.9034C332.495 86.5057 332.722 86.196 333.006 85.9744C333.293 85.75 333.606 85.5937 333.944 85.5057C334.285 85.4148 334.62 85.3693 334.95 85.3693C335.16 85.3693 335.401 85.3949 335.674 85.446C335.95 85.4943 336.215 85.5952 336.471 85.7486C336.729 85.902 336.944 86.1335 337.114 86.4432C337.285 86.7528 337.37 87.1676 337.37 87.6875V92H336.364V91.1136H336.313C336.245 91.2557 336.131 91.4077 335.972 91.5696C335.813 91.7315 335.602 91.8693 335.337 91.983C335.073 92.0966 334.751 92.1534 334.37 92.1534ZM334.523 91.25C334.921 91.25 335.256 91.1719 335.529 91.0156C335.805 90.8594 336.012 90.6577 336.151 90.4105C336.293 90.1634 336.364 89.9034 336.364 89.6307V88.7102C336.322 88.7614 336.228 88.8082 336.083 88.8509C335.941 88.8906 335.776 88.9261 335.589 88.9574C335.404 88.9858 335.224 89.0114 335.048 89.0341C334.874 89.054 334.734 89.071 334.626 89.0852C334.364 89.1193 334.12 89.1747 333.893 89.2514C333.668 89.3253 333.487 89.4375 333.347 89.5881C333.211 89.7358 333.143 89.9375 333.143 90.1932C333.143 90.5426 333.272 90.8068 333.531 90.9858C333.792 91.1619 334.123 91.25 334.523 91.25ZM339.206 92V85.4545H340.177V86.4432H340.245C340.365 86.1193 340.581 85.8565 340.893 85.6548C341.206 85.4531 341.558 85.3523 341.95 85.3523C342.024 85.3523 342.116 85.3537 342.227 85.3565C342.338 85.3594 342.422 85.3636 342.478 85.3693V86.392C342.444 86.3835 342.366 86.3707 342.244 86.3537C342.125 86.3338 341.998 86.3239 341.865 86.3239C341.547 86.3239 341.262 86.3906 341.012 86.5241C340.765 86.6548 340.569 86.8366 340.424 87.0696C340.282 87.2997 340.211 87.5625 340.211 87.858V92H339.206ZM346.927 85.4545V86.3068H343.535V85.4545H346.927ZM344.524 83.8864H345.529V90.125C345.529 90.4091 345.571 90.6222 345.653 90.7642C345.738 90.9034 345.846 90.9972 345.977 91.0455C346.11 91.0909 346.251 91.1136 346.399 91.1136C346.51 91.1136 346.6 91.108 346.672 91.0966C346.743 91.0824 346.799 91.071 346.842 91.0625L347.047 91.9659C346.978 91.9915 346.883 92.017 346.761 92.0426C346.639 92.071 346.484 92.0852 346.297 92.0852C346.012 92.0852 345.734 92.0241 345.461 91.902C345.191 91.7798 344.967 91.5938 344.788 91.3438C344.612 91.0938 344.524 90.7784 344.524 90.3977V83.8864ZM352.821 83.2727V92H351.815V83.2727H352.821ZM354.663 92V85.4545H355.668V92H354.663ZM355.174 84.3636C354.978 84.3636 354.809 84.2969 354.667 84.1634C354.528 84.0298 354.458 83.8693 354.458 83.6818C354.458 83.4943 354.528 83.3338 354.667 83.2003C354.809 83.0668 354.978 83 355.174 83C355.37 83 355.538 83.0668 355.677 83.2003C355.819 83.3338 355.89 83.4943 355.89 83.6818C355.89 83.8693 355.819 84.0298 355.677 84.1634C355.538 84.2969 355.37 84.3636 355.174 84.3636ZM360.152 94.5909C359.667 94.5909 359.249 94.5284 358.9 94.4034C358.55 94.2812 358.259 94.1193 358.026 93.9176C357.796 93.7188 357.613 93.5057 357.476 93.2784L358.277 92.7159C358.368 92.8352 358.483 92.9716 358.623 93.125C358.762 93.2812 358.952 93.4162 359.194 93.5298C359.438 93.6463 359.757 93.7045 360.152 93.7045C360.681 93.7045 361.117 93.5767 361.461 93.321C361.804 93.0653 361.976 92.6648 361.976 92.1193V90.7898H361.891C361.817 90.9091 361.712 91.0568 361.576 91.233C361.442 91.4062 361.249 91.5611 360.996 91.6974C360.746 91.831 360.408 91.8977 359.982 91.8977C359.453 91.8977 358.979 91.7727 358.559 91.5227C358.141 91.2727 357.81 90.9091 357.566 90.4318C357.324 89.9545 357.203 89.375 357.203 88.6932C357.203 88.0227 357.321 87.4389 357.557 86.9418C357.793 86.4418 358.121 86.0554 358.542 85.7827C358.962 85.5071 359.448 85.3693 359.999 85.3693C360.425 85.3693 360.763 85.4403 361.013 85.5824C361.266 85.7216 361.459 85.8807 361.593 86.0597C361.729 86.2358 361.834 86.3807 361.908 86.4943H362.01V85.4545H362.982V92.1875C362.982 92.75 362.854 93.2074 362.598 93.5597C362.346 93.9148 362.005 94.1747 361.576 94.3395C361.15 94.5071 360.675 94.5909 360.152 94.5909ZM360.118 90.9943C360.522 90.9943 360.863 90.902 361.141 90.7173C361.419 90.5327 361.631 90.267 361.776 89.9205C361.921 89.5739 361.993 89.1591 361.993 88.6761C361.993 88.2045 361.922 87.7884 361.78 87.4276C361.638 87.0668 361.428 86.7841 361.15 86.5795C360.871 86.375 360.527 86.2727 360.118 86.2727C359.692 86.2727 359.337 86.3807 359.053 86.5966C358.772 86.8125 358.56 87.1023 358.418 87.4659C358.279 87.8295 358.209 88.233 358.209 88.6761C358.209 89.1307 358.28 89.5327 358.422 89.8821C358.567 90.2287 358.78 90.5014 359.061 90.7003C359.346 90.8963 359.698 90.9943 360.118 90.9943ZM365.828 88.0625V92H364.823V83.2727H365.828V86.4773H365.914C366.067 86.1392 366.297 85.8707 366.604 85.6719C366.914 85.4702 367.326 85.3693 367.84 85.3693C368.286 85.3693 368.676 85.4588 369.012 85.6378C369.347 85.8139 369.607 86.0852 369.792 86.4517C369.979 86.8153 370.073 87.2784 370.073 87.8409V92H369.067V87.9091C369.067 87.3892 368.932 86.9872 368.662 86.7031C368.395 86.4162 368.025 86.2727 367.55 86.2727C367.221 86.2727 366.925 86.3423 366.664 86.4815C366.405 86.6207 366.201 86.8239 366.05 87.0909C365.902 87.358 365.828 87.6818 365.828 88.0625ZM374.759 85.4545V86.3068H371.367V85.4545H374.759ZM372.356 83.8864H373.362V90.125C373.362 90.4091 373.403 90.6222 373.485 90.7642C373.57 90.9034 373.678 90.9972 373.809 91.0455C373.942 91.0909 374.083 91.1136 374.231 91.1136C374.342 91.1136 374.433 91.108 374.504 91.0966C374.575 91.0824 374.631 91.071 374.674 91.0625L374.879 91.9659C374.81 91.9915 374.715 92.017 374.593 92.0426C374.471 92.071 374.316 92.0852 374.129 92.0852C373.844 92.0852 373.566 92.0241 373.293 91.902C373.023 91.7798 372.799 91.5938 372.62 91.3438C372.444 91.0938 372.356 90.7784 372.356 90.3977V83.8864ZM377.772 90.8068L377.704 91.267C377.656 91.5909 377.582 91.9375 377.482 92.3068C377.386 92.6761 377.285 93.0241 377.18 93.3509C377.075 93.6776 376.988 93.9375 376.92 94.1307H376.153C376.19 93.9489 376.238 93.7088 376.298 93.4105C376.357 93.1122 376.417 92.7784 376.477 92.4091C376.539 92.0426 376.59 91.6676 376.63 91.2841L376.681 90.8068H377.772ZM390.067 83.2727V92H389.044L384.289 85.1477H384.203V92H383.147V83.2727H384.169L388.942 90.142H389.027V83.2727H390.067ZM394.79 92.1364C394.159 92.1364 393.615 91.9972 393.158 91.7188C392.703 91.4375 392.352 91.0455 392.105 90.5426C391.861 90.0369 391.739 89.4489 391.739 88.7784C391.739 88.108 391.861 87.517 392.105 87.0057C392.352 86.4915 392.696 86.0909 393.136 85.804C393.58 85.5142 394.097 85.3693 394.688 85.3693C395.028 85.3693 395.365 85.4261 395.697 85.5398C396.03 85.6534 396.332 85.8381 396.605 86.0938C396.878 86.3466 397.095 86.6818 397.257 87.0994C397.419 87.517 397.5 88.0312 397.5 88.642V89.0682H392.455V88.1989H396.477C396.477 87.8295 396.403 87.5 396.256 87.2102C396.111 86.9205 395.903 86.6918 395.634 86.5241C395.366 86.3565 395.051 86.2727 394.688 86.2727C394.287 86.2727 393.94 86.3722 393.648 86.571C393.358 86.767 393.135 87.0227 392.979 87.3381C392.822 87.6534 392.744 87.9915 392.744 88.3523V88.9318C392.744 89.4261 392.83 89.8452 393 90.1889C393.173 90.5298 393.413 90.7898 393.72 90.9688C394.027 91.1449 394.384 91.233 394.79 91.233C395.054 91.233 395.293 91.196 395.506 91.1222C395.722 91.0455 395.908 90.9318 396.064 90.7812C396.22 90.6278 396.341 90.4375 396.426 90.2102L397.398 90.483C397.295 90.8125 397.124 91.1023 396.882 91.3523C396.641 91.5994 396.342 91.7926 395.987 91.9318C395.632 92.0682 395.233 92.1364 394.79 92.1364ZM400.513 92L398.518 85.4545H399.575L400.99 90.4659H401.058L402.456 85.4545H403.53L404.911 90.4489H404.979L406.393 85.4545H407.45L405.456 92H404.467L403.036 86.9716H402.933L401.501 92H400.513ZM412.803 94.4545C412.632 94.4545 412.48 94.4403 412.347 94.4119C412.213 94.3864 412.121 94.3608 412.07 94.3352L412.325 93.4489C412.57 93.5114 412.786 93.5341 412.973 93.517C413.161 93.5 413.327 93.4162 413.472 93.2656C413.619 93.1179 413.754 92.8778 413.876 92.5455L414.064 92.0341L411.643 85.4545H412.734L414.541 90.6705H414.609L416.416 85.4545H417.507L414.729 92.9545C414.604 93.2926 414.449 93.5724 414.264 93.794C414.08 94.0185 413.865 94.1847 413.621 94.2926C413.379 94.4006 413.107 94.4545 412.803 94.4545ZM419.482 94.4545C419.312 94.4545 419.16 94.4403 419.026 94.4119C418.893 94.3864 418.8 94.3608 418.749 94.3352L419.005 93.4489C419.249 93.5114 419.465 93.5341 419.653 93.517C419.84 93.5 420.006 93.4162 420.151 93.2656C420.299 93.1179 420.434 92.8778 420.556 92.5455L420.744 92.0341L418.323 85.4545H419.414L421.221 90.6705H421.289L423.096 85.4545H424.187L421.408 92.9545C421.283 93.2926 421.129 93.5724 420.944 93.794C420.759 94.0185 420.545 94.1847 420.3 94.2926C420.059 94.4006 419.786 94.4545 419.482 94.4545ZM427.939 92.1364C427.348 92.1364 426.83 91.9957 426.384 91.7145C425.94 91.4332 425.594 91.0398 425.344 90.5341C425.097 90.0284 424.973 89.4375 424.973 88.7614C424.973 88.0795 425.097 87.4844 425.344 86.9759C425.594 86.4673 425.94 86.0724 426.384 85.7912C426.83 85.5099 427.348 85.3693 427.939 85.3693C428.53 85.3693 429.047 85.5099 429.49 85.7912C429.936 86.0724 430.283 86.4673 430.53 86.9759C430.78 87.4844 430.905 88.0795 430.905 88.7614C430.905 89.4375 430.78 90.0284 430.53 90.5341C430.283 91.0398 429.936 91.4332 429.49 91.7145C429.047 91.9957 428.53 92.1364 427.939 92.1364ZM427.939 91.233C428.388 91.233 428.757 91.1179 429.047 90.8878C429.337 90.6577 429.551 90.3551 429.69 89.9801C429.83 89.6051 429.899 89.1989 429.899 88.7614C429.899 88.3239 429.83 87.9162 429.69 87.5384C429.551 87.1605 429.337 86.8551 429.047 86.6222C428.757 86.3892 428.388 86.2727 427.939 86.2727C427.49 86.2727 427.121 86.3892 426.831 86.6222C426.541 86.8551 426.327 87.1605 426.188 87.5384C426.048 87.9162 425.979 88.3239 425.979 88.7614C425.979 89.1989 426.048 89.6051 426.188 89.9801C426.327 90.3551 426.541 90.6577 426.831 90.8878C427.121 91.1179 427.49 91.233 427.939 91.233ZM432.44 92V85.4545H433.412V86.4432H433.48C433.599 86.1193 433.815 85.8565 434.127 85.6548C434.44 85.4531 434.792 85.3523 435.184 85.3523C435.258 85.3523 435.35 85.3537 435.461 85.3565C435.572 85.3594 435.656 85.3636 435.713 85.3693V86.392C435.679 86.3835 435.6 86.3707 435.478 86.3537C435.359 86.3338 435.233 86.3239 435.099 86.3239C434.781 86.3239 434.497 86.3906 434.247 86.5241C434 86.6548 433.804 86.8366 433.659 87.0696C433.517 87.2997 433.446 87.5625 433.446 87.858V92H432.44ZM437.842 89.6136L437.825 88.3693H438.03L440.893 85.4545H442.138L439.087 88.5398H439.001L437.842 89.6136ZM436.905 92V83.2727H437.911V92H436.905ZM441.064 92L438.507 88.7614L439.223 88.0625L442.342 92H441.064Z" fill="#111111"/>
<path d="M230 47C226.134 47 223 43.866 223 40C223 36.134 226.134 33 230 33C233.866 33 237 36.134 237 40C237 43.866 233.866 47 230 47ZM229.302 42.8L234.252 37.8503L233.262 36.8603L229.302 40.8201L227.322 38.8402L226.332 39.8302L229.302 42.8Z" fill="white"/>
<path d="M233.5 53.5L232 44L241 48.5L236 49.5L233.5 53.5Z" fill="#111111" stroke="white"/>
</g>
<defs>
<filter id="filter0_d_87_9560" x="2" y="5" width="267" height="148" filterUnits="userSpaceOnUse" color-interpolation-filters="sRGB">
<feFlood flood-opacity="0" result="BackgroundImageFix"/>
<feColorMatrix in="SourceAlpha" type="matrix" values="0 0 0 0 0 0 0 0 0 0 0 0 0 0 0 0 0 0 127 0" result="hardAlpha"/>
<feOffset dy="4"/>
<feGaussianBlur stdDeviation="12"/>
<feComposite in2="hardAlpha" operator="out"/>
<feColorMatrix type="matrix" values="0 0 0 0 0.192157 0 0 0 0 0.407843 0 0 0 0 0.72549 0 0 0 0.2 0"/>
<feBlend mode="normal" in2="BackgroundImageFix" result="effect1_dropShadow_87_9560"/>
<feBlend mode="normal" in="SourceGraphic" in2="effect1_dropShadow_87_9560" result="shape"/>
</filter>
<filter id="filter1_d_87_9560" x="251" y="25" width="227" height="108" filterUnits="userSpaceOnUse" color-interpolation-filters="sRGB">
<feFlood flood-opacity="0" result="BackgroundImageFix"/>
<feColorMatrix in="SourceAlpha" type="matrix" values="0 0 0 0 0 0 0 0 0 0 0 0 0 0 0 0 0 0 127 0" result="hardAlpha"/>
<feOffset dy="4"/>
<feGaussianBlur stdDeviation="2"/>
<feComposite in2="hardAlpha" operator="out"/>
<feColorMatrix type="matrix" values="0 0 0 0 0 0 0 0 0 0 0 0 0 0 0 0 0 0 0.1 0"/>
<feBlend mode="normal" in2="BackgroundImageFix" result="effect1_dropShadow_87_9560"/>
<feBlend mode="normal" in="SourceGraphic" in2="effect1_dropShadow_87_9560" result="shape"/>
</filter>
<clipPath id="clip0_87_9560">
<rect width="500" height="151" rx="8" fill="white"/>
</clipPath>
</defs>
</svg>
