<svg width="500" height="151" viewBox="0 0 500 151" fill="none" xmlns="http://www.w3.org/2000/svg">
<rect width="500" height="151" rx="8" fill="#F5F5F5"/>
<path d="M24.33 35C24.33 30.764 27.764 27.33 32 27.33H236C240.236 27.33 243.67 30.764 243.67 35V61C243.67 65.236 240.236 68.67 236 68.67H32C27.764 68.67 24.33 65.236 24.33 61V35Z" fill="#FDFDFD"/>
<path d="M24.33 35C24.33 30.764 27.764 27.33 32 27.33H236C240.236 27.33 243.67 30.764 243.67 35V61C243.67 65.236 240.236 68.67 236 68.67H32C27.764 68.67 24.33 65.236 24.33 61V35Z" stroke="#8A8A8A" stroke-width="0.66"/>
<path opacity="0.2" d="M37.0895 53V43.5455H42.8601V44.6673H38.3775V47.7049H42.4354V48.8267H38.3775V53H37.0895ZM44.5774 53V45.9091H45.8146V53H44.5774ZM45.2053 44.7734C44.9806 44.7734 44.7867 44.6965 44.6236 44.5426C44.4635 44.3887 44.3835 44.2041 44.3835 43.9886C44.3835 43.7763 44.4635 43.5932 44.6236 43.4393C44.7867 43.2854 44.9806 43.2085 45.2053 43.2085C45.4299 43.2085 45.6223 43.2854 45.7823 43.4393C45.9454 43.5932 46.027 43.7763 46.027 43.9886C46.027 44.2041 45.9454 44.3887 45.7823 44.5426C45.6223 44.6965 45.4299 44.7734 45.2053 44.7734ZM47.7385 53V45.9091H48.9342V47.0078H49.0081C49.1373 46.6416 49.3682 46.3492 49.7006 46.1307C50.036 45.9091 50.413 45.7983 50.8316 45.7983C50.9147 45.7983 51.0147 45.8014 51.1317 45.8075C51.2517 45.8106 51.3456 45.8168 51.4133 45.826V47.0401C51.3671 47.0278 51.2748 47.0124 51.1363 46.994C51.0009 46.9724 50.8624 46.9616 50.7208 46.9616C50.3853 46.9616 50.0853 47.0324 49.8206 47.174C49.559 47.3125 49.3528 47.5049 49.202 47.7511C49.0512 47.9973 48.9758 48.2773 48.9758 48.5913V53H47.7385ZM57.8221 47.571L56.7049 47.8203C56.6495 47.6572 56.5633 47.5018 56.4464 47.354C56.3325 47.2032 56.1771 47.0786 55.9801 46.9801C55.7831 46.8816 55.5339 46.8324 55.2322 46.8324C54.8198 46.8324 54.4751 46.9263 54.1982 47.114C53.9242 47.3017 53.7873 47.5402 53.7873 47.8295C53.7873 48.0819 53.8812 48.2835 54.0689 48.4343C54.2566 48.5851 54.5521 48.7098 54.9553 48.8082L56.0447 49.0668C56.688 49.2176 57.1665 49.4515 57.4805 49.7685C57.7975 50.0824 57.956 50.4886 57.956 50.9872C57.956 51.4027 57.8359 51.7736 57.5959 52.0998C57.3589 52.4229 57.0281 52.6784 56.6033 52.8661C56.1786 53.0539 55.6847 53.1477 55.1214 53.1477C54.3613 53.1477 53.738 52.9846 53.2518 52.6584C52.7655 52.3291 52.4608 51.8567 52.3377 51.2411L53.5241 51.0103C53.6165 51.3765 53.795 51.652 54.0597 51.8366C54.3274 52.0182 54.6767 52.109 55.1076 52.109C55.5877 52.109 55.9693 52.0075 56.2525 51.8043C56.5387 51.6012 56.6834 51.355 56.6864 51.0657C56.6834 50.8318 56.5972 50.6364 56.4279 50.4794C56.2617 50.3194 56.0047 50.1993 55.657 50.1193L54.4659 49.8469C53.8104 49.6961 53.3272 49.4576 53.0163 49.1314C52.7086 48.8021 52.5547 48.3897 52.5547 47.8942C52.5547 47.4848 52.6686 47.1248 52.8963 46.8139C53.1271 46.5 53.4441 46.2553 53.8473 46.0799C54.2505 45.9045 54.7106 45.8168 55.2276 45.8168C55.9601 45.8168 56.5372 45.9768 56.9588 46.2969C57.3804 46.617 57.6682 47.0417 57.8221 47.571ZM62.7317 45.9091V46.9247H58.96V45.9091H62.7317ZM60.0126 44.2102H61.2498V50.9457C61.2498 51.2319 61.2914 51.4473 61.3745 51.592C61.4606 51.7335 61.5714 51.829 61.7069 51.8782C61.8423 51.9274 61.9885 51.9521 62.1454 51.9521C62.2593 51.9521 62.3562 51.9459 62.4363 51.9336C62.5163 51.9182 62.5794 51.9059 62.6255 51.8967L62.861 52.9538C62.784 52.9815 62.6748 53.0108 62.5332 53.0415C62.3947 53.0754 62.2193 53.0923 62.0069 53.0923C61.6715 53.0954 61.3514 53.0308 61.0467 52.8984C60.742 52.763 60.4927 52.5568 60.2988 52.2798C60.108 52.0028 60.0126 51.6535 60.0126 51.2319V44.2102ZM69.1105 48.7621V53H67.8733V45.9091H69.0644V47.0401H69.1567C69.3198 46.6708 69.5737 46.3754 69.9184 46.1538C70.2631 45.9291 70.7017 45.8168 71.2341 45.8168C71.7173 45.8168 72.1389 45.9168 72.499 46.1168C72.8591 46.3138 73.1392 46.6108 73.3392 47.0078C73.5423 47.4048 73.6439 47.9003 73.6439 48.4943V53H72.4067V48.6143C72.4067 48.0758 72.2667 47.6572 71.9866 47.3587C71.7096 47.0571 71.328 46.9062 70.8417 46.9062C70.5093 46.9062 70.2123 46.9786 69.9507 47.1232C69.6891 47.2679 69.4829 47.4787 69.3321 47.7557C69.1844 48.0327 69.1105 48.3681 69.1105 48.7621ZM77.6314 53.1616C77.1821 53.1616 76.7743 53.0769 76.408 52.9077C76.0449 52.7384 75.7556 52.4937 75.5401 52.1737C75.3278 51.8505 75.2216 51.4566 75.2216 50.9918C75.2216 50.5887 75.3001 50.2594 75.457 50.0039C75.6171 49.7454 75.8294 49.5423 76.0941 49.3945C76.3588 49.2468 76.6527 49.136 76.9759 49.0621C77.299 48.9883 77.6268 48.9313 77.9592 48.8913C78.387 48.8359 78.7332 48.7929 78.9979 48.7621C79.2656 48.7313 79.4611 48.6805 79.5842 48.6097C79.7073 48.5389 79.7688 48.4174 79.7688 48.245V48.2081C79.7688 47.7803 79.6503 47.4479 79.4134 47.2109C79.1764 46.974 78.8209 46.8555 78.3469 46.8555C77.8545 46.8555 77.4683 46.9632 77.1882 47.1786C76.9081 47.3941 76.7112 47.6295 76.5973 47.8849L75.4339 47.5526C75.6032 47.1217 75.8387 46.7801 76.1403 46.5277C76.445 46.2723 76.785 46.0907 77.1605 45.983C77.5391 45.8722 77.9253 45.8168 78.3192 45.8168C78.5747 45.8168 78.8563 45.8475 79.1641 45.9091C79.4718 45.9676 79.7642 46.083 80.0412 46.2553C80.3213 46.4246 80.5521 46.6754 80.7337 47.0078C80.9152 47.3371 81.006 47.7711 81.006 48.3097V53H79.7873V52.0352H79.7319C79.6519 52.2013 79.5241 52.3722 79.3487 52.5476C79.1733 52.7199 78.944 52.8661 78.6609 52.9862C78.3777 53.1031 78.0346 53.1616 77.6314 53.1616ZM77.8622 52.1183C78.2715 52.1183 78.6178 52.0382 78.9009 51.8782C79.1841 51.7182 79.3995 51.5104 79.5472 51.255C79.698 50.9995 79.7734 50.7272 79.7734 50.4379V49.4822C79.7242 49.5346 79.6257 49.5823 79.478 49.6254C79.3303 49.6684 79.161 49.7054 78.9702 49.7362C78.7824 49.7669 78.5978 49.7946 78.4162 49.8192C78.2377 49.8408 78.09 49.8593 77.973 49.8746C77.6991 49.9116 77.4452 49.9701 77.2113 50.0501C76.9805 50.1301 76.7943 50.2486 76.6527 50.4055C76.5142 50.5594 76.445 50.7672 76.445 51.0288C76.445 51.3888 76.5788 51.6612 76.8466 51.8459C77.1143 52.0275 77.4529 52.1183 77.8622 52.1183ZM82.9173 53V45.9091H84.1083V47.0401H84.2006C84.3484 46.6554 84.5869 46.3554 84.9162 46.1399C85.2486 45.9245 85.6471 45.8168 86.1119 45.8168C86.5827 45.8168 86.9767 45.9245 87.2937 46.1399C87.6138 46.3554 87.8554 46.6554 88.0185 47.0401H88.0923C88.2678 46.6677 88.5386 46.3707 88.9048 46.1491C89.2711 45.9276 89.7096 45.8168 90.2205 45.8168C90.8576 45.8168 91.3777 46.0168 91.7809 46.4169C92.1871 46.817 92.3903 47.4279 92.3903 48.2496V53H91.1577V48.3143C91.1577 47.8126 91.0207 47.4525 90.7468 47.234C90.4729 47.0124 90.1482 46.9016 89.7727 46.9016C89.2988 46.9016 88.931 47.0463 88.6694 47.3356C88.4078 47.6218 88.277 47.9865 88.277 48.4297V53H87.0352V48.2173C87.0352 47.8234 86.909 47.5064 86.6566 47.2663C86.4073 47.0232 86.0842 46.9016 85.6871 46.9016C85.4132 46.9016 85.1593 46.974 84.9254 47.1186C84.6946 47.2633 84.5084 47.4633 84.3668 47.7188C84.2253 47.9711 84.1545 48.2635 84.1545 48.5959V53H82.9173ZM97.3241 53.1477C96.6317 53.1477 96.0361 52.9969 95.5376 52.6953C95.039 52.3906 94.6543 51.9659 94.3834 51.4212C94.1157 50.8733 93.9818 50.2347 93.9818 49.5053C93.9818 48.779 94.1157 48.1388 94.3834 47.5849C94.6543 47.0278 95.0313 46.5939 95.5145 46.283C96.0007 45.9722 96.5686 45.8168 97.218 45.8168C97.6027 45.8168 97.9781 45.8814 98.3444 46.0107C98.7137 46.1368 99.0461 46.34 99.3415 46.62C99.6401 46.897 99.8755 47.2617 100.048 47.7141C100.223 48.1665 100.311 48.719 100.311 49.3714V49.8469H94.7574V48.859H99.0784C99.0784 48.4774 99.0015 48.1388 98.8476 47.8434C98.6968 47.5449 98.4813 47.3094 98.2013 47.1371C97.9243 46.9647 97.598 46.8786 97.2226 46.8786C96.8102 46.8786 96.4532 46.9786 96.1515 47.1786C95.853 47.3787 95.6222 47.6403 95.4591 47.9634C95.296 48.2866 95.2144 48.6344 95.2144 49.0067V49.7223C95.2144 50.227 95.3021 50.6564 95.4775 51.0103C95.656 51.3612 95.9038 51.6289 96.2208 51.8136C96.5378 51.9951 96.9071 52.0859 97.3287 52.0859C97.6027 52.0859 97.8519 52.0475 98.0766 51.9705C98.3013 51.8905 98.4936 51.772 98.6537 51.6151C98.8168 51.4581 98.943 51.2611 99.0322 51.0241L100.214 51.2919C100.106 51.6612 99.9186 51.9859 99.6508 52.266C99.3862 52.543 99.0553 52.7599 98.6583 52.9169C98.2644 53.0708 97.8196 53.1477 97.3241 53.1477Z" fill="#303030"/>
<path d="M256.33 35C256.33 30.764 259.764 27.33 264 27.33H468C472.236 27.33 475.67 30.764 475.67 35V61C475.67 65.236 472.236 68.67 468 68.67H264C259.764 68.67 256.33 65.236 256.33 61V35Z" fill="#FDFDFD"/>
<path d="M256.33 35C256.33 30.764 259.764 27.33 264 27.33H468C472.236 27.33 475.67 30.764 475.67 35V61C475.67 65.236 472.236 68.67 468 68.67H264C259.764 68.67 256.33 65.236 256.33 61V35Z" stroke="#8A8A8A" stroke-width="0.66"/>
<path opacity="0.2" d="M269.089 53V43.5455H270.377V51.8782H274.717V53H269.089ZM278.363 53.1616C277.914 53.1616 277.506 53.0769 277.139 52.9077C276.776 52.7384 276.487 52.4937 276.272 52.1737C276.059 51.8505 275.953 51.4566 275.953 50.9918C275.953 50.5887 276.032 50.2594 276.188 50.0039C276.349 49.7454 276.561 49.5423 276.826 49.3945C277.09 49.2468 277.384 49.136 277.707 49.0621C278.03 48.9883 278.358 48.9313 278.691 48.8913C279.118 48.8359 279.465 48.7929 279.729 48.7621C279.997 48.7313 280.193 48.6805 280.316 48.6097C280.439 48.5389 280.5 48.4174 280.5 48.245V48.2081C280.5 47.7803 280.382 47.4479 280.145 47.2109C279.908 46.974 279.552 46.8555 279.078 46.8555C278.586 46.8555 278.2 46.9632 277.92 47.1786C277.64 47.3941 277.443 47.6295 277.329 47.8849L276.165 47.5526C276.335 47.1217 276.57 46.7801 276.872 46.5277C277.176 46.2723 277.516 46.0907 277.892 45.983C278.271 45.8722 278.657 45.8168 279.051 45.8168C279.306 45.8168 279.588 45.8475 279.896 45.9091C280.203 45.9676 280.496 46.083 280.773 46.2553C281.053 46.4246 281.284 46.6754 281.465 47.0078C281.647 47.3371 281.737 47.7711 281.737 48.3097V53H280.519V52.0352H280.463C280.383 52.2013 280.256 52.3722 280.08 52.5476C279.905 52.7199 279.675 52.8661 279.392 52.9862C279.109 53.1031 278.766 53.1616 278.363 53.1616ZM278.594 52.1183C279.003 52.1183 279.349 52.0382 279.632 51.8782C279.916 51.7182 280.131 51.5104 280.279 51.255C280.429 50.9995 280.505 50.7272 280.505 50.4379V49.4822C280.456 49.5346 280.357 49.5823 280.209 49.6254C280.062 49.6684 279.892 49.7054 279.702 49.7362C279.514 49.7669 279.329 49.7946 279.148 49.8192C278.969 49.8408 278.821 49.8593 278.704 49.8746C278.431 49.9116 278.177 49.9701 277.943 50.0501C277.712 50.1301 277.526 50.2486 277.384 50.4055C277.246 50.5594 277.176 50.7672 277.176 51.0288C277.176 51.3888 277.31 51.6612 277.578 51.8459C277.846 52.0275 278.184 52.1183 278.594 52.1183ZM288.819 47.571L287.702 47.8203C287.647 47.6572 287.56 47.5018 287.443 47.354C287.33 47.2032 287.174 47.0786 286.977 46.9801C286.78 46.8816 286.531 46.8324 286.229 46.8324C285.817 46.8324 285.472 46.9263 285.195 47.114C284.921 47.3017 284.784 47.5402 284.784 47.8295C284.784 48.0819 284.878 48.2835 285.066 48.4343C285.254 48.5851 285.549 48.7098 285.952 48.8082L287.042 49.0668C287.685 49.2176 288.164 49.4515 288.478 49.7685C288.795 50.0824 288.953 50.4886 288.953 50.9872C288.953 51.4027 288.833 51.7736 288.593 52.0998C288.356 52.4229 288.025 52.6784 287.6 52.8661C287.176 53.0539 286.682 53.1477 286.119 53.1477C285.358 53.1477 284.735 52.9846 284.249 52.6584C283.763 52.3291 283.458 51.8567 283.335 51.2411L284.521 51.0103C284.614 51.3765 284.792 51.652 285.057 51.8366C285.324 52.0182 285.674 52.109 286.105 52.109C286.585 52.109 286.966 52.0075 287.25 51.8043C287.536 51.6012 287.68 51.355 287.684 51.0657C287.68 50.8318 287.594 50.6364 287.425 50.4794C287.259 50.3194 287.002 50.1993 286.654 50.1193L285.463 49.8469C284.807 49.6961 284.324 49.4576 284.013 49.1314C283.706 48.8021 283.552 48.3897 283.552 47.8942C283.552 47.4848 283.666 47.1248 283.893 46.8139C284.124 46.5 284.441 46.2553 284.844 46.0799C285.248 45.9045 285.708 45.8168 286.225 45.8168C286.957 45.8168 287.534 45.9768 287.956 46.2969C288.378 46.617 288.665 47.0417 288.819 47.571ZM293.729 45.9091V46.9247H289.957V45.9091H293.729ZM291.01 44.2102H292.247V50.9457C292.247 51.2319 292.288 51.4473 292.372 51.592C292.458 51.7335 292.569 51.829 292.704 51.8782C292.839 51.9274 292.986 51.9521 293.142 51.9521C293.256 51.9521 293.353 51.9459 293.433 51.9336C293.513 51.9182 293.576 51.9059 293.623 51.8967L293.858 52.9538C293.781 52.9815 293.672 53.0108 293.53 53.0415C293.392 53.0754 293.216 53.0923 293.004 53.0923C292.669 53.0954 292.348 53.0308 292.044 52.8984C291.739 52.763 291.49 52.5568 291.296 52.2798C291.105 52.0028 291.01 51.6535 291.01 51.2319V44.2102ZM300.108 48.7621V53H298.87V45.9091H300.061V47.0401H300.154C300.317 46.6708 300.571 46.3754 300.915 46.1538C301.26 45.9291 301.699 45.8168 302.231 45.8168C302.714 45.8168 303.136 45.9168 303.496 46.1168C303.856 46.3138 304.136 46.6108 304.336 47.0078C304.539 47.4048 304.641 47.9003 304.641 48.4943V53H303.404V48.6143C303.404 48.0758 303.264 47.6572 302.984 47.3587C302.707 47.0571 302.325 46.9062 301.839 46.9062C301.506 46.9062 301.209 46.9786 300.948 47.1232C300.686 47.2679 300.48 47.4787 300.329 47.7557C300.181 48.0327 300.108 48.3681 300.108 48.7621ZM308.628 53.1616C308.179 53.1616 307.771 53.0769 307.405 52.9077C307.042 52.7384 306.753 52.4937 306.537 52.1737C306.325 51.8505 306.219 51.4566 306.219 50.9918C306.219 50.5887 306.297 50.2594 306.454 50.0039C306.614 49.7454 306.826 49.5423 307.091 49.3945C307.356 49.2468 307.65 49.136 307.973 49.0621C308.296 48.9883 308.624 48.9313 308.956 48.8913C309.384 48.8359 309.73 48.7929 309.995 48.7621C310.263 48.7313 310.458 48.6805 310.581 48.6097C310.704 48.5389 310.766 48.4174 310.766 48.245V48.2081C310.766 47.7803 310.647 47.4479 310.41 47.2109C310.173 46.974 309.818 46.8555 309.344 46.8555C308.852 46.8555 308.465 46.9632 308.185 47.1786C307.905 47.3941 307.708 47.6295 307.594 47.8849L306.431 47.5526C306.6 47.1217 306.836 46.7801 307.137 46.5277C307.442 46.2723 307.782 46.0907 308.158 45.983C308.536 45.8722 308.922 45.8168 309.316 45.8168C309.572 45.8168 309.853 45.8475 310.161 45.9091C310.469 45.9676 310.761 46.083 311.038 46.2553C311.318 46.4246 311.549 46.6754 311.731 47.0078C311.912 47.3371 312.003 47.7711 312.003 48.3097V53H310.784V52.0352H310.729C310.649 52.2013 310.521 52.3722 310.346 52.5476C310.17 52.7199 309.941 52.8661 309.658 52.9862C309.375 53.1031 309.032 53.1616 308.628 53.1616ZM308.859 52.1183C309.269 52.1183 309.615 52.0382 309.898 51.8782C310.181 51.7182 310.397 51.5104 310.544 51.255C310.695 50.9995 310.771 50.7272 310.771 50.4379V49.4822C310.721 49.5346 310.623 49.5823 310.475 49.6254C310.327 49.6684 310.158 49.7054 309.967 49.7362C309.78 49.7669 309.595 49.7946 309.413 49.8192C309.235 49.8408 309.087 49.8593 308.97 49.8746C308.696 49.9116 308.442 49.9701 308.208 50.0501C307.978 50.1301 307.791 50.2486 307.65 50.4055C307.511 50.5594 307.442 50.7672 307.442 51.0288C307.442 51.3888 307.576 51.6612 307.844 51.8459C308.111 52.0275 308.45 52.1183 308.859 52.1183ZM313.914 53V45.9091H315.105V47.0401H315.198C315.345 46.6554 315.584 46.3554 315.913 46.1399C316.246 45.9245 316.644 45.8168 317.109 45.8168C317.58 45.8168 317.974 45.9245 318.291 46.1399C318.611 46.3554 318.852 46.6554 319.016 47.0401H319.089C319.265 46.6677 319.536 46.3707 319.902 46.1491C320.268 45.9276 320.707 45.8168 321.218 45.8168C321.855 45.8168 322.375 46.0168 322.778 46.4169C323.184 46.817 323.387 47.4279 323.387 48.2496V53H322.155V48.3143C322.155 47.8126 322.018 47.4525 321.744 47.234C321.47 47.0124 321.145 46.9016 320.77 46.9016C320.296 46.9016 319.928 47.0463 319.666 47.3356C319.405 47.6218 319.274 47.9865 319.274 48.4297V53H318.032V48.2173C318.032 47.8234 317.906 47.5064 317.654 47.2663C317.404 47.0232 317.081 46.9016 316.684 46.9016C316.41 46.9016 316.156 46.974 315.922 47.1186C315.692 47.2633 315.505 47.4633 315.364 47.7188C315.222 47.9711 315.152 48.2635 315.152 48.5959V53H313.914ZM328.321 53.1477C327.629 53.1477 327.033 52.9969 326.535 52.6953C326.036 52.3906 325.651 51.9659 325.381 51.4212C325.113 50.8733 324.979 50.2347 324.979 49.5053C324.979 48.779 325.113 48.1388 325.381 47.5849C325.651 47.0278 326.028 46.5939 326.512 46.283C326.998 45.9722 327.566 45.8168 328.215 45.8168C328.6 45.8168 328.975 45.8814 329.341 46.0107C329.711 46.1368 330.043 46.34 330.339 46.62C330.637 46.897 330.873 47.2617 331.045 47.7141C331.22 48.1665 331.308 48.719 331.308 49.3714V49.8469H325.754V48.859H330.075C330.075 48.4774 329.999 48.1388 329.845 47.8434C329.694 47.5449 329.478 47.3094 329.198 47.1371C328.921 46.9647 328.595 46.8786 328.22 46.8786C327.807 46.8786 327.45 46.9786 327.149 47.1786C326.85 47.3787 326.619 47.6403 326.456 47.9634C326.293 48.2866 326.211 48.6344 326.211 49.0067V49.7223C326.211 50.227 326.299 50.6564 326.475 51.0103C326.653 51.3612 326.901 51.6289 327.218 51.8136C327.535 51.9951 327.904 52.0859 328.326 52.0859C328.6 52.0859 328.849 52.0475 329.074 51.9705C329.298 51.8905 329.491 51.772 329.651 51.6151C329.814 51.4581 329.94 51.2611 330.029 51.0241L331.211 51.2919C331.103 51.6612 330.916 51.9859 330.648 52.266C330.383 52.543 330.052 52.7599 329.655 52.9169C329.261 53.0708 328.817 53.1477 328.321 53.1477Z" fill="#303030"/>
<path d="M24.33 89C24.33 84.764 27.764 81.33 32 81.33H236C240.236 81.33 243.67 84.764 243.67 89V115C243.67 119.236 240.236 122.67 236 122.67H32C27.764 122.67 24.33 119.236 24.33 115V89Z" fill="#FDFDFD"/>
<path d="M24.33 89C24.33 84.764 27.764 81.33 32 81.33H236C240.236 81.33 243.67 84.764 243.67 89V115C243.67 119.236 240.236 122.67 236 122.67H32C27.764 122.67 24.33 119.236 24.33 115V89Z" stroke="#8A8A8A" stroke-width="0.66"/>
<path opacity="0.2" d="M37.0895 107V97.5455H42.9062V98.6673H38.3775V101.705H42.6062V102.827H38.3775V105.878H42.9709V107H37.0895ZM44.7678 107V99.9091H45.9589V101.04H46.0512C46.199 100.655 46.4375 100.355 46.7668 100.14C47.0992 99.9245 47.4977 99.8168 47.9624 99.8168C48.4333 99.8168 48.8273 99.9245 49.1443 100.14C49.4643 100.355 49.7059 100.655 49.8691 101.04H49.9429C50.1183 100.668 50.3892 100.371 50.7554 100.149C51.1217 99.9276 51.5602 99.8168 52.0711 99.8168C52.7082 99.8168 53.2283 100.017 53.6315 100.417C54.0377 100.817 54.2409 101.428 54.2409 102.25V107H53.0083V102.314C53.0083 101.813 52.8713 101.453 52.5974 101.234C52.3235 101.012 51.9988 100.902 51.6233 100.902C51.1494 100.902 50.7816 101.046 50.52 101.336C50.2584 101.622 50.1276 101.987 50.1276 102.43V107H48.8857V102.217C48.8857 101.823 48.7596 101.506 48.5072 101.266C48.2579 101.023 47.9347 100.902 47.5377 100.902C47.2638 100.902 47.0099 100.974 46.776 101.119C46.5452 101.263 46.359 101.463 46.2174 101.719C46.0758 101.971 46.0051 102.263 46.0051 102.596V107H44.7678ZM58.233 107.162C57.7836 107.162 57.3758 107.077 57.0096 106.908C56.6464 106.738 56.3571 106.494 56.1417 106.174C55.9293 105.85 55.8232 105.457 55.8232 104.992C55.8232 104.589 55.9016 104.259 56.0586 104.004C56.2186 103.745 56.431 103.542 56.6957 103.395C56.9603 103.247 57.2543 103.136 57.5774 103.062C57.9006 102.988 58.2283 102.931 58.5607 102.891C58.9885 102.836 59.3348 102.793 59.5994 102.762C59.8672 102.731 60.0626 102.681 60.1857 102.61C60.3088 102.539 60.3704 102.417 60.3704 102.245V102.208C60.3704 101.78 60.2519 101.448 60.0149 101.211C59.7779 100.974 59.4225 100.855 58.9485 100.855C58.4561 100.855 58.0698 100.963 57.7898 101.179C57.5097 101.394 57.3127 101.629 57.1989 101.885L56.0355 101.553C56.2048 101.122 56.4402 100.78 56.7418 100.528C57.0465 100.272 57.3866 100.091 57.7621 99.983C58.1406 99.8722 58.5269 99.8168 58.9208 99.8168C59.1763 99.8168 59.4579 99.8475 59.7656 99.9091C60.0734 99.9676 60.3658 100.083 60.6428 100.255C60.9228 100.425 61.1536 100.675 61.3352 101.008C61.5168 101.337 61.6076 101.771 61.6076 102.31V107H60.3888V106.035H60.3335C60.2534 106.201 60.1257 106.372 59.9503 106.548C59.7749 106.72 59.5456 106.866 59.2624 106.986C58.9793 107.103 58.6361 107.162 58.233 107.162ZM58.4638 106.118C58.8731 106.118 59.2193 106.038 59.5025 105.878C59.7856 105.718 60.0011 105.51 60.1488 105.255C60.2996 105 60.375 104.727 60.375 104.438V103.482C60.3258 103.535 60.2273 103.582 60.0795 103.625C59.9318 103.668 59.7625 103.705 59.5717 103.736C59.384 103.767 59.1993 103.795 59.0178 103.819C58.8393 103.841 58.6915 103.859 58.5746 103.875C58.3007 103.912 58.0468 103.97 57.8129 104.05C57.582 104.13 57.3958 104.249 57.2543 104.406C57.1158 104.559 57.0465 104.767 57.0465 105.029C57.0465 105.389 57.1804 105.661 57.4482 105.846C57.7159 106.027 58.0545 106.118 58.4638 106.118ZM63.5188 107V99.9091H64.756V107H63.5188ZM64.1467 98.7734C63.922 98.7734 63.7281 98.6965 63.565 98.5426C63.4049 98.3887 63.3249 98.2041 63.3249 97.9886C63.3249 97.7763 63.4049 97.5932 63.565 97.4393C63.7281 97.2854 63.922 97.2085 64.1467 97.2085C64.3713 97.2085 64.5637 97.2854 64.7237 97.4393C64.8868 97.5932 64.9684 97.7763 64.9684 97.9886C64.9684 98.2041 64.8868 98.3887 64.7237 98.5426C64.5637 98.6965 64.3713 98.7734 64.1467 98.7734ZM67.9172 97.5455V107H66.68V97.5455H67.9172Z" fill="#303030"/>
<path d="M256.33 89C256.33 84.764 259.764 81.33 264 81.33H468C472.236 81.33 475.67 84.764 475.67 89V115C475.67 119.236 472.236 122.67 468 122.67H264C259.764 122.67 256.33 119.236 256.33 115V89Z" fill="#FDFDFD"/>
<path d="M256.33 89C256.33 84.764 259.764 81.33 264 81.33H468C472.236 81.33 475.67 84.764 475.67 89V115C475.67 119.236 472.236 122.67 468 122.67H264C259.764 122.67 256.33 119.236 256.33 115V89Z" stroke="#8A8A8A" stroke-width="0.66"/>
<path opacity="0.2" d="M269.089 107V97.5455H272.376C273.112 97.5455 273.718 97.6793 274.195 97.9471C274.675 98.2148 275.032 98.578 275.266 99.0366C275.5 99.4921 275.617 100.004 275.617 100.574C275.617 101.143 275.5 101.657 275.266 102.116C275.032 102.574 274.677 102.939 274.2 103.21C273.723 103.478 273.117 103.612 272.381 103.612H270.077V102.499H272.298C272.784 102.499 273.177 102.414 273.475 102.245C273.774 102.076 273.991 101.846 274.126 101.557C274.265 101.268 274.334 100.94 274.334 100.574C274.334 100.205 274.265 99.8768 274.126 99.5906C273.991 99.3013 273.772 99.075 273.471 98.9119C273.169 98.7457 272.772 98.6626 272.279 98.6626H270.377V107H269.089ZM278.475 102.762V107H277.238V97.5455H278.466V101.04H278.558C278.721 100.665 278.972 100.368 279.31 100.149C279.649 99.9276 280.095 99.8168 280.649 99.8168C281.132 99.8168 281.556 99.9152 281.919 100.112C282.285 100.306 282.568 100.602 282.768 100.999C282.971 101.396 283.073 101.894 283.073 102.494V107H281.836V102.614C281.836 102.073 281.696 101.653 281.415 101.354C281.138 101.056 280.752 100.906 280.257 100.906C279.915 100.906 279.609 100.979 279.338 101.123C279.07 101.268 278.859 101.479 278.706 101.756C278.552 102.033 278.475 102.368 278.475 102.762ZM287.93 107.148C287.278 107.148 286.707 106.995 286.218 106.691C285.728 106.383 285.348 105.955 285.078 105.407C284.807 104.859 284.671 104.221 284.671 103.491C284.671 102.753 284.807 102.108 285.078 101.557C285.348 101.006 285.728 100.578 286.218 100.274C286.707 99.9691 287.278 99.8168 287.93 99.8168C288.583 99.8168 289.154 99.9691 289.643 100.274C290.133 100.578 290.513 101.006 290.783 101.557C291.054 102.108 291.19 102.753 291.19 103.491C291.19 104.221 291.054 104.859 290.783 105.407C290.513 105.955 290.133 106.383 289.643 106.691C289.154 106.995 288.583 107.148 287.93 107.148ZM287.93 106.077C288.392 106.077 288.771 105.958 289.066 105.721C289.365 105.481 289.586 105.166 289.731 104.775C289.876 104.381 289.948 103.952 289.948 103.487C289.948 103.025 289.876 102.597 289.731 102.203C289.586 101.806 289.365 101.488 289.066 101.248C288.771 101.005 288.392 100.883 287.93 100.883C287.472 100.883 287.093 101.005 286.795 101.248C286.496 101.488 286.275 101.806 286.13 102.203C285.985 102.597 285.913 103.025 285.913 103.487C285.913 103.952 285.985 104.381 286.13 104.775C286.275 105.166 286.496 105.481 286.795 105.721C287.093 105.958 287.472 106.077 287.93 106.077ZM294.027 102.762V107H292.789V99.9091H293.98V101.04H294.073C294.236 100.671 294.49 100.375 294.834 100.154C295.179 99.9291 295.618 99.8168 296.15 99.8168C296.633 99.8168 297.055 99.9168 297.415 100.117C297.775 100.314 298.055 100.611 298.255 101.008C298.458 101.405 298.56 101.9 298.56 102.494V107H297.323V102.614C297.323 102.076 297.183 101.657 296.903 101.359C296.626 101.057 296.244 100.906 295.758 100.906C295.425 100.906 295.128 100.979 294.867 101.123C294.605 101.268 294.399 101.479 294.248 101.756C294.1 102.033 294.027 102.368 294.027 102.762ZM303.489 107.148C302.797 107.148 302.201 106.997 301.703 106.695C301.204 106.391 300.819 105.966 300.548 105.421C300.281 104.873 300.147 104.235 300.147 103.505C300.147 102.779 300.281 102.139 300.548 101.585C300.819 101.028 301.196 100.594 301.68 100.283C302.166 99.9722 302.734 99.8168 303.383 99.8168C303.768 99.8168 304.143 99.8814 304.509 100.011C304.879 100.137 305.211 100.34 305.507 100.62C305.805 100.897 306.041 101.262 306.213 101.714C306.388 102.167 306.476 102.719 306.476 103.371V103.847H300.922V102.859H305.243C305.243 102.477 305.166 102.139 305.013 101.843C304.862 101.545 304.646 101.309 304.366 101.137C304.089 100.965 303.763 100.879 303.388 100.879C302.975 100.879 302.618 100.979 302.317 101.179C302.018 101.379 301.787 101.64 301.624 101.963C301.461 102.287 301.379 102.634 301.379 103.007V103.722C301.379 104.227 301.467 104.656 301.643 105.01C301.821 105.361 302.069 105.629 302.386 105.814C302.703 105.995 303.072 106.086 303.494 106.086C303.768 106.086 304.017 106.047 304.242 105.971C304.466 105.891 304.659 105.772 304.819 105.615C304.982 105.458 305.108 105.261 305.197 105.024L306.379 105.292C306.271 105.661 306.084 105.986 305.816 106.266C305.551 106.543 305.22 106.76 304.823 106.917C304.429 107.071 303.985 107.148 303.489 107.148Z" fill="#303030"/>
<path d="M216.5 75L214 59L229 66.5789L220.667 68.2632L216.5 75Z" fill="#3168B9" stroke="white"/>
</svg>
