<svg width="48" height="64" viewBox="0 0 48 64" fill="none" xmlns="http://www.w3.org/2000/svg">
<path d="M48 63.5H42V57.5C42 52.5293 37.9707 48.5 33 48.5H15C10.0294 48.5 6 52.5293 6 57.5V63.5H0V57.5C0 49.2158 6.71574 42.5 15 42.5H33C41.2842 42.5 48 49.2158 48 57.5V63.5ZM24 36.5C14.0589 36.5 6 28.4411 6 18.5C6 8.55887 14.0589 0.5 24 0.5C33.9411 0.5 42 8.55887 42 18.5C42 28.4411 33.9411 36.5 24 36.5ZM24 30.5C30.6273 30.5 36 25.1274 36 18.5C36 11.8726 30.6273 6.5 24 6.5C17.3726 6.5 12 11.8726 12 18.5C12 25.1274 17.3726 30.5 24 30.5Z" fill="#C4C4C4"/>
</svg>
