<svg width="11" height="18" viewBox="0 0 11 18" fill="none" xmlns="http://www.w3.org/2000/svg">
<path d="M9.08333 5.66667C8.91746 5.19603 8.61454 4.7858 8.21356 4.48878C7.81258 4.19176 7.33188 4.02153 6.83333 4H3.5C2.83696 4 2.20107 4.26339 1.73223 4.73223C1.26339 5.20107 1 5.83696 1 6.5C1 7.16304 1.26339 7.79893 1.73223 8.26777C2.20107 8.73661 2.83696 9 3.5 9H6.83333C7.49637 9 8.13226 9.26339 8.6011 9.73223C9.06994 10.2011 9.33333 10.837 9.33333 11.5C9.33333 12.163 9.06994 12.7989 8.6011 13.2678C8.13226 13.7366 7.49637 14 6.83333 14H3.5C3.00145 13.9785 2.52076 13.8082 2.11977 13.5112C1.71879 13.2142 1.41587 12.804 1.25 12.3333M5.16667 1.5V4M5.16667 14V16.5" stroke="#14804A" stroke-width="2" stroke-linecap="round" stroke-linejoin="round"/>
</svg>
