<svg width="17" height="18" viewBox="0 0 17 18" fill="none" xmlns="http://www.w3.org/2000/svg">
<path d="M12.4167 5.66667C12.2508 5.19603 11.9479 4.7858 11.5469 4.48878C11.1459 4.19176 10.6652 4.02153 10.1667 4H6.83333M4.7025 5.1925C4.47002 5.57138 4.34276 6.00539 4.33384 6.44981C4.32491 6.89424 4.43465 7.33301 4.65173 7.72091C4.86882 8.10881 5.18541 8.43182 5.56887 8.65665C5.95234 8.88148 6.38882 9 6.83333 9H8.5M12.3033 12.7983C12.0804 13.1653 11.7666 13.4686 11.3924 13.679C11.0182 13.8895 10.596 14 10.1667 14H6.83333C6.33479 13.9785 5.85409 13.8082 5.45311 13.5112C5.05213 13.2142 4.74921 12.804 4.58333 12.3333M8.5 1.5V4M8.5 14V16.5M1 1.5L16 16.5" stroke="#CBCBCB" stroke-width="2" stroke-linecap="round" stroke-linejoin="round"/>
</svg>
