<?xml version="1.0" encoding="UTF-8"?>
<svg id="Layer_2" data-name="Layer 2" xmlns="http://www.w3.org/2000/svg" viewBox="0 0 53.75 54.23">
  <defs>
    <style>
      .cls-1 {
        fill: #caa453;
      }

      .cls-2 {
        fill: #3b4752;
      }
    </style>
  </defs>
  <g id="Layer_1-2" data-name="Layer 1">
    <path class="cls-2" d="m0,27.36c0-7.43,2.61-13.75,7.82-18.97C13.12,3.09,19.44.48,26.87.48s13.75,2.61,18.97,7.9c5.3,5.22,7.9,11.54,7.9,18.97s-2.61,13.75-7.9,19.05c-5.22,5.22-11.54,7.83-18.97,7.83s-13.75-2.61-19.05-7.83C2.61,41.11,0,34.78,0,27.36Zm8.22,0c0,5.22,1.82,9.72,5.45,13.44,3.71,3.71,8.06,5.53,13.2,5.53s9.48-1.82,13.12-5.53c3.71-3.72,5.53-8.22,5.53-13.44s-1.82-9.64-5.53-13.36c-3.64-3.71-7.98-5.61-13.12-5.61s-9.48,1.9-13.2,5.61c-3.64,3.71-5.45,8.14-5.45,13.36Z"/>
    <path class="cls-1" d="m40.03,35.9l-7.52-19.68c-.54-1.85-.99-4.95-.99-6.88V2.98c.63-.18,1.1-.78,1.1-1.47,0-.83-.67-1.5-1.5-1.5h-8.49c-.83,0-1.5.67-1.5,1.5,0,.73.53,1.34,1.22,1.48v5.97c0,1.93-.44,5.02-.99,6.88l-7.64,20.08c-.54,1.85.59,3.37,2.52,3.37h21.27c1.93,0,3.06-1.52,2.52-3.37Zm-20.3-8.51l1.09-2.87h5.33v-2.76h-4.28l1.15-3.03h3.13v-2.76h-2.15c.54-2.09.94-5.04.94-7.03V2.98h3.98s0,6.37,0,6.37c0,2.18.48,5.52,1.09,7.61l.03.1.04.1,3.91,10.24h-14.26Z"/>
  </g>
</svg>