<?xml version="1.0" encoding="UTF-8"?>
<svg id="Layer_2" data-name="Layer 2" xmlns="http://www.w3.org/2000/svg" viewBox="0 0 53.75 57.35">
  <defs>
    <style>
      .cls-1 {
        fill: #caa453;
      }

      .cls-2 {
        fill: #3b4752;
      }
    </style>
  </defs>
  <g id="Layer_1-2" data-name="Layer 1">
    <path class="cls-2" d="m0,30.48c0-7.43,2.61-13.75,7.82-18.97,5.3-5.3,11.62-7.9,19.05-7.9s13.75,2.61,18.97,7.9c5.3,5.22,7.9,11.54,7.9,18.97s-2.61,13.75-7.9,19.05c-5.22,5.22-11.54,7.83-18.97,7.83s-13.75-2.61-19.05-7.83C2.61,44.23,0,37.91,0,30.48Zm8.22,0c0,5.22,1.82,9.72,5.45,13.44,3.71,3.71,8.06,5.53,13.2,5.53s9.48-1.82,13.12-5.53c3.71-3.72,5.53-8.22,5.53-13.44s-1.82-9.64-5.53-13.36c-3.64-3.71-7.98-5.61-13.12-5.61s-9.48,1.9-13.2,5.61c-3.64,3.71-5.45,8.14-5.45,13.36Z"/>
    <g>
      <path class="cls-1" d="m42.95,15.98c-.66.2-1.31.92-1.63,1.8h0s-.29.99-.29.99c-.41,1.1-1.22,2-2.05,2.26l-8.19,2.51c-.82.25-1.64,1.15-2.05,2.26h0c-.41,1.1-1.22,2.01-2.05,2.26l-9.58,2.93-1.42,4.36,9.73-2.98c.82-.25,1.64-1.15,2.05-2.26h0c.41-1.1,1.22-2.01,2.05-2.26l8.19-2.51c.82-.25,1.64-1.15,2.05-2.26h0s.55-1.87.55-1.87c.32-.88.98-1.6,1.63-1.8l4.02-1.23c2.26-.69,4.07-2.4,4.89-4.62h0l-7.9,2.42Z"/>
      <path class="cls-1" d="m40.34,24.64c-.66.2-1.31.92-1.63,1.8h0l-.25.84c-.41,1.1-1.22,2-2.05,2.26l-8.19,2.51c-.82.25-1.64,1.15-2.05,2.26h0c-.41,1.1-1.22,2.01-2.05,2.26l-9.8,2.99-1.43,4.42,9.97-3.09c.82-.25,1.64-1.15,2.05-2.26h0c.41-1.1,1.22-2.01,2.05-2.26l8.19-2.51c.82-.25,1.64-1.15,2.05-2.26l.51-1.72c.32-.88.98-1.6,1.63-1.8l4.02-1.23c2.26-.69,4.07-2.4,4.89-4.62h0s-7.9,2.42-7.9,2.42Z"/>
      <path class="cls-1" d="m36.9,35.7l-4.79,1.47,9.35,6.8-3.06-9.42c-.43.57-.97.99-1.5,1.16Z"/>
      <path class="cls-1" d="m45.42,7.55c-.66.2-1.31.92-1.63,1.8h0s-.27.92-.27.92c-.41,1.1-1.22,1.99-2.04,2.25l-8.19,2.51c-.35.11-.7.33-1.02.64L27.18,0l-5.46,16.79H4.06l13.93,10.12v-.03s9.93-3.04,9.93-3.04c.82-.25,1.64-1.15,2.05-2.26h0c.41-1.1,1.22-2.01,2.05-2.26l8.19-2.51c.82-.25,1.64-1.15,2.05-2.26h0s.53-1.8.53-1.8c.33-.87.97-1.59,1.63-1.79l4.02-1.23c2.26-.69,4.07-2.4,4.89-4.62h0s-7.9,2.42-7.9,2.42Zm-22.96,16.59l-1.6-1.16-1.6,1.16.61-1.88-1.6-1.16h1.98l.61-1.88.61,1.88h1.98l-1.6,1.16.61,1.88Zm1.94-7.27l-.67.48.25-.78-.67-.48h.82l.25-.78.25.78h.82l-.67.48.25.78-.67-.48Zm3.94,4.14l-1.27-.92-1.27.92.48-1.49-1.27-.92h1.57l.48-1.49.48,1.49h1.57l-1.27.92.48,1.49Zm1.25-6.11l-.87-.63-.87.63.33-1.02-.87-.63h1.07l.33-1.02.33,1.02h1.07l-.87.63.33,1.02Z"/>
    </g>
  </g>
</svg>