<?xml version="1.0" encoding="UTF-8"?>
<svg id="Layer_2" data-name="Layer 2" xmlns="http://www.w3.org/2000/svg" viewBox="0 0 53.75 53.75">
  <defs>
    <style>
      .cls-1 {
        fill: #caa453;
      }

      .cls-2 {
        fill: #3b4752;
      }
    </style>
  </defs>
  <g id="Layer_1-2" data-name="Layer 1">
    <g>
      <path class="cls-1" d="m37.31,24.17c-.68.5-1.36.91-2.04,1.25l-5.16-5.16c-.12.79-.16,1.7-.1,2.73l3.2,3.2c-.89.22-1.77.3-2.65.24.28,1.27.48,2.44.61,3.51,3.15,0,6.87-1.28,10.82-5.23.68-.68.68-1.78,0-2.46s-1.78-.68-2.46,0c-.22.22-.45.44-.67.64l-6.93-6.93c-.29.33-.71.9-1.09,1.74l6.47,6.47Z"/>
      <path class="cls-1" d="m16.22,29.96c.65-.36,1.39-.72,2.2-1.04l5.56,5.56c.2-.68.29-1.51.24-2.59l-3.61-3.61c.99-.2,2.02-.27,3.05-.14-.04-.16-.07-.33-.11-.5-.25-1.07-.42-2.08-.52-3.05-6.03-.2-11.24,4.12-11.51,4.35-.73.62-.83,1.71-.21,2.44.03.04.07.08.1.11.63.63,1.65.68,2.34.1.01-.01.28-.23.75-.56.03.04.06.08.1.12l6.74,6.74c.16-.15.32-.3.48-.44.35-.32.67-.62.97-.94l-6.56-6.56Z"/>
      <path class="cls-1" d="m28.68,26.34c-2.14-7.3,2.44-12.09,2.65-12.31.67-.68.67-1.78,0-2.45s-1.78-.68-2.46,0c-.26.26-6.26,6.4-3.52,15.74,1.71,5.83-.84,9.96-3.27,12.39-.68.68-.68,1.78,0,2.46s1.78.68,2.46,0c2.54-2.54,6.45-7.97,4.15-15.83Z"/>
    </g>
    <path class="cls-2" d="m0,26.87c0-7.43,2.61-13.75,7.82-18.97C13.12,2.61,19.44,0,26.87,0s13.75,2.61,18.97,7.9c5.3,5.22,7.9,11.54,7.9,18.97s-2.61,13.75-7.9,19.05c-5.22,5.22-11.54,7.83-18.97,7.83s-13.75-2.61-19.05-7.83C2.61,40.63,0,34.3,0,26.87Zm8.22,0c0,5.22,1.82,9.72,5.45,13.44,3.71,3.71,8.06,5.53,13.2,5.53s9.48-1.82,13.12-5.53c3.71-3.72,5.53-8.22,5.53-13.44s-1.82-9.64-5.53-13.36c-3.64-3.71-7.98-5.61-13.12-5.61s-9.48,1.9-13.2,5.61c-3.64,3.71-5.45,8.14-5.45,13.36Z"/>
    <rect class="cls-2" x="6.39" y="11.47" width="16.69" height="8.45" rx="1.91" ry="1.91" transform="translate(15.42 -5.82) rotate(45)"/>
    <rect class="cls-2" x="29.97" y="35.05" width="16.69" height="8.45" rx="1.93" ry="1.93" transform="translate(38.99 -15.59) rotate(45)"/>
  </g>
</svg>