<?xml version="1.0" encoding="UTF-8"?>
<svg id="Layer_2" data-name="Layer 2" xmlns="http://www.w3.org/2000/svg" viewBox="0 0 53.75 53.75">
  <defs>
    <style>
      .cls-1 {
        fill: #caa453;
      }

      .cls-2 {
        fill: #3b4752;
      }
    </style>
  </defs>
  <g id="Layer_1-2" data-name="Layer 1">
    <path class="cls-2" d="m0,26.87c0-7.43,2.61-13.75,7.82-18.97C13.12,2.61,19.44,0,26.87,0s13.75,2.61,18.97,7.9c5.3,5.22,7.9,11.54,7.9,18.97s-2.61,13.75-7.9,19.05c-5.22,5.22-11.54,7.83-18.97,7.83s-13.75-2.61-19.05-7.83C2.61,40.63,0,34.3,0,26.87Zm8.22,0c0,5.22,1.82,9.72,5.45,13.44,3.71,3.71,8.06,5.53,13.2,5.53s9.48-1.82,13.12-5.53c3.71-3.72,5.53-8.22,5.53-13.44s-1.82-9.64-5.53-13.36c-3.64-3.71-7.98-5.61-13.12-5.61s-9.48,1.9-13.2,5.61c-3.64,3.71-5.45,8.14-5.45,13.36Z"/>
    <path class="cls-1" d="m31.2,21.07c1.58.23,3.08-.34,4.56-.84,1.55-.52,3-1.31,4.57-1.82.97-.32,1.94-.8,2.67-1.59.13-.14.41-.26.29-.5-.13-.26-.43-.19-.67-.18-1.39.06-2.76-.15-4.15-.09-.93.04-1.79.18-2.66.46-.67.21-1.21.69-1.87.88-.12-.34.2-.24.31-.34,1.08-.99,2.15-1.99,3.3-2.9.66-.53,1.28-1.11,2.13-1.35.76-.21,1.5-.46,2.25-.7,2.08-.66,3.65-2.08,5.08-3.66,1-1.1,1.96-2.23,2.89-3.38.18-.22.42-.55.26-.88-.1-.21-.35-.32-.61-.21-.92.4-1.93.43-2.86.76-1.13.41-2.33.66-3.32,1.37-.83.6-1.64,1.23-2.37,1.97-1.14,1.16-2.04,2.48-2.73,3.93-.19.41-.4.82-.72,1.11-1.49,1.33-3.02,2.62-4.67,3.83.06-.98.33-1.88.53-2.78.25-1.15.52-2.3.94-3.41.33-.87.64-1.75.85-2.66.07-.29-.08-.39-.25-.51-.19-.14-.41.01-.44.12-.18.69-.77,1.05-1.2,1.53-.52.58-1.04,1.17-1.62,1.7-1.16,1.07-1.75,2.49-1.9,4.03-.1.98-.05,2.01.11,2.98.22,1.29-.29,2.3-1.04,3.19-.75.88-1.57,1.71-2.22,2.7.02-1.08.09-2.15.16-3.22.11-1.65.34-3.29.09-4.95-.05-.31-.2-.41-.4-.46-.21-.06-.48.02-.52.26-.18,1.15-.94,2.01-1.5,2.95-.9,1.5-1.15,3.14-1.23,4.82-.07,1.53,0,3.06.45,4.56.09.3.19.76,0,1.19-.55,1.24-1.22,2.42-1.84,3.62-.52,1.01-.91,2.08-1.4,3.16.01-.21.02-.41.03-.62.03-.65.15-1.28.14-1.94-.02-.99-.39-1.91-.38-2.91.02-1.1-.05-2.2,0-3.31.04-.78.13-1.57-.07-2.36-.06-.27-.2-.34-.44-.36-.24-.02-.28.16-.33.32-.63,2.17-1.24,4.35-1.93,6.51-.21.65-.28,1.34-.23,2.03.14,2.09.95,3.93,2.08,5.65.11.16.17.29.11.47-.44,1.33-.26,2.72-.39,4.08-.03.34.07.78.44.76.29-.02.54-.41.54-.79,0-1.03.14-2.05.2-3.08.03-.48.3-.72.69-.88,1.08-.44,2.16-.86,3.24-1.29,2.1-.84,3.77-2.19,5.25-3.85.4-.45.75-.94,1.16-1.36.71-.73,1.33-1.5,1.77-2.41.08-.16.4-.29.12-.53-.22-.18-.45-.14-.69-.04-.99.41-1.99.78-2.97,1.2-1,.43-2.06.73-2.97,1.32-1.22.78-2.29,1.76-3.23,2.86-.17.2-.34.4-.52.59-.17.19-.25.51-.62.49.44-1.03.61-2.13,1.2-3.1.72-1.18,1.29-2.45,1.9-3.7.15-.31.35-.43.65-.44.73-.03,1.46-.07,2.18-.07,1.33,0,2.56-.35,3.72-1.02,1.7-.98,3.34-2.05,4.82-3.34.63-.55,1.27-1.07,1.96-1.54.34-.23.6-.64.48-1.04-.14-.45-.58-.18-.9-.17-1.39.06-2.75.33-4.11.6-1.81.36-3.52.98-5.16,1.84-.32.17-.52.71-1.06.52.46-.57.69-1.24,1.15-1.78.3-.35.68-.63.93-1.03.45-.73.97-1.16,1.99-1.01Z"/>
    <rect class="cls-2" x="6.74" y="11.47" width="16.69" height="8.45" rx="1.91" ry="1.91" transform="translate(15.52 -6.07) rotate(45)"/>
  </g>
</svg>