<?xml version="1.0" encoding="UTF-8"?>
<svg id="Layer_2" data-name="Layer 2" xmlns="http://www.w3.org/2000/svg" viewBox="0 0 53.75 53.75">
  <defs>
    <style>
      .cls-1 {
        fill: #caa453;
      }

      .cls-2 {
        fill: #3b4752;
      }
    </style>
  </defs>
  <g id="Layer_1-2" data-name="Layer 1">
    <path class="cls-2" d="m0,26.87c0-7.43,2.61-13.75,7.82-18.97C13.12,2.61,19.44,0,26.87,0s13.75,2.61,18.97,7.9c5.3,5.22,7.9,11.54,7.9,18.97s-2.61,13.75-7.9,19.05c-5.22,5.22-11.54,7.83-18.97,7.83s-13.75-2.61-19.05-7.83C2.61,40.63,0,34.3,0,26.87Zm8.22,0c0,5.22,1.82,9.72,5.45,13.44,3.71,3.71,8.06,5.53,13.2,5.53s9.48-1.82,13.12-5.53c3.71-3.72,5.53-8.22,5.53-13.44s-1.82-9.64-5.53-13.36c-3.64-3.71-7.98-5.61-13.12-5.61s-9.48,1.9-13.2,5.61c-3.64,3.71-5.45,8.14-5.45,13.36Z"/>
    <path class="cls-1" d="m48.62,6.15c-.78-1.35-2.16-2.24-3.99-2.59-.31-.44-.81-.71-1.36-.71h-1.35c-.92,0-1.67.75-1.67,1.67s.75,1.67,1.67,1.67h1.35c.34,0,.68-.11.96-.3,1.12.22,1.92.72,2.34,1.44.58,1.01.41,2.44-.51,4.02l-5.82,10.07c-.91,1.58-2.06,2.45-3.23,2.45s-2.32-.87-3.23-2.45l-5.81-10.07c-.91-1.58-1.09-3.01-.51-4.02.42-.73,1.23-1.22,2.34-1.44.28.2.61.3.96.3h1.35c.92,0,1.67-.75,1.67-1.67s-.75-1.67-1.67-1.67h-1.35c-.54,0-1.05.27-1.36.71-1.84.35-3.22,1.24-3.99,2.59-1.03,1.78-.85,4.05.51,6.39l4.03,6.99v3.93c0,3.37,2.43,6.28,5.7,6.92v1.65c0,4.6-3.74,8.34-8.34,8.34s-8.34-3.74-8.34-8.34v-5.92c2.2-.58,3.76-2.57,3.76-4.87,0-2.78-2.26-5.04-5.04-5.04s-5.04,2.26-5.04,5.04c0,2.25,1.52,4.24,3.66,4.85v5.94c0,6.07,4.94,11,11,11s11-4.94,11-11v-1.64c3.31-.62,5.76-3.54,5.76-6.94v-3.94l4.03-6.99c1.35-2.34,1.53-4.61.51-6.39Zm-7.23,17.78c-.23,2.21-2.11,3.94-4.38,3.94s-4.14-1.73-4.37-3.93c1.23,1.51,2.75,2.32,4.37,2.32s3.14-.81,4.38-2.32Zm-23.69-4.94c1.25,0,2.26,1.02,2.26,2.26s-1.02,2.27-2.26,2.27-2.26-1.02-2.26-2.27,1.01-2.26,2.26-2.26Z"/>
  </g>
</svg>