<?xml version="1.0" encoding="UTF-8"?>
<svg id="Layer_2" data-name="Layer 2" xmlns="http://www.w3.org/2000/svg" viewBox="0 0 53.75 57.29">
  <defs>
    <style>
      .cls-1 {
        fill: #caa453;
      }

      .cls-2 {
        fill: #3b4752;
      }
    </style>
  </defs>
  <g id="Layer_1-2" data-name="Layer 1">
    <path class="cls-2" d="m0,30.42c0-7.43,2.61-13.75,7.82-18.97,5.3-5.3,11.62-7.9,19.05-7.9s13.75,2.61,18.97,7.9c5.3,5.22,7.9,11.54,7.9,18.97s-2.61,13.75-7.9,19.05c-5.22,5.22-11.54,7.83-18.97,7.83s-13.75-2.61-19.05-7.83C2.61,44.17,0,37.84,0,30.42Zm8.22,0c0,5.22,1.82,9.72,5.45,13.44,3.71,3.71,8.06,5.53,13.2,5.53s9.48-1.82,13.12-5.53c3.71-3.72,5.53-8.22,5.53-13.44s-1.82-9.64-5.53-13.36c-3.64-3.71-7.98-5.61-13.12-5.61s-9.48,1.9-13.2,5.61c-3.64,3.71-5.45,8.14-5.45,13.36Z"/>
    <g>
      <path class="cls-1" d="m14.58,26.7h15.05c.61,0,1.1.49,1.1,1.1v.92c0,.61-.49,1.1-1.1,1.1h-15.06c-.61,0-1.1-.49-1.1-1.1v-.92c0-.61.49-1.1,1.1-1.1Z"/>
      <path class="cls-1" d="m40.91,36.85h-5.86c2.65-3.04,3.6-7.06,3.23-10.13-.41-3.44-1.64-6.23-3.86-8.67,1.25-.78,2.08-2.16,2.08-3.73,0-.77-.22-1.48-.56-2.11l2.21-2.21c.49-.49.49-1.29,0-1.78l-.04-.04,3.79-3.79c.49-.49.49-1.29,0-1.78l-2.23-2.23c-.49-.49-1.29-.49-1.78,0l-3.79,3.79-.04-.04c-.49-.49-1.29-.49-1.78,0l-11.88,11.88c-.49.49-.49,1.29,0,1.78l.04.04-1.11,1.11c-.49.49-.49,1.29,0,1.78l2.23,2.23c.49.49,1.29.49,1.78,0l1.11-1.11.04.04c.49.49,1.29.49,1.78,0l2.33-2.33c3.01,1.86,4.71,4.08,4.71,7.87,0,5.76-6.94,9.35-12.69,9.43h-5.89c-.7,0-1.26.56-1.26,1.26v2.45c0,.7.56,1.26,1.26,1.26h26.17c.7,0,1.26-.56,1.26-1.26v-2.45c0-.7-.57-1.26-1.26-1.26Zm-8.83-20.44c-1.16,0-2.1-.94-2.1-2.1s.94-2.1,2.1-2.1,2.1.94,2.1,2.1-.94,2.1-2.1,2.1Z"/>
    </g>
  </g>
</svg>