<?xml version="1.0" encoding="UTF-8"?>
<svg id="Layer_2" data-name="Layer 2" xmlns="http://www.w3.org/2000/svg" viewBox="0 0 54.54 53.75">
  <defs>
    <style>
      .cls-1 {
        fill: #3b4752;
      }

      .cls-2 {
        fill: #caa453;
        fill-rule: evenodd;
      }
    </style>
  </defs>
  <g id="Layer_1-2" data-name="Layer 1">
    <path class="cls-1" d="m0,26.87c0-7.43,2.61-13.75,7.82-18.97C13.12,2.61,19.44,0,26.87,0s13.75,2.61,18.97,7.9c5.3,5.22,7.9,11.54,7.9,18.97s-2.61,13.75-7.9,19.05c-5.22,5.22-11.54,7.83-18.97,7.83s-13.75-2.61-19.05-7.83C2.61,40.63,0,34.3,0,26.87Zm8.22,0c0,5.22,1.82,9.72,5.45,13.44,3.71,3.71,8.06,5.53,13.2,5.53s9.48-1.82,13.12-5.53c3.71-3.72,5.53-8.22,5.53-13.44s-1.82-9.64-5.53-13.36c-3.64-3.71-7.98-5.61-13.12-5.61s-9.48,1.9-13.2,5.61c-3.64,3.71-5.45,8.14-5.45,13.36Z"/>
    <path class="cls-2" d="m54.51,4.65c-.9-1.69-19.71,6.7-28.19,20.72-1.26-2.36-1.85-3.66-2.87-5.3-1.66-2.71-7.17-1.26-7.17,2.88,6.38,17.31,12.54,19.11,14.81,12.05C39.31,13.43,55.42,6.34,54.51,4.65Z"/>
  </g>
</svg>