<?xml version="1.0" encoding="UTF-8"?>
<svg id="Layer_2" data-name="Layer 2" xmlns="http://www.w3.org/2000/svg" viewBox="0 0 53.75 53.75">
  <defs>
    <style>
      .cls-1 {
        fill: #caa453;
      }

      .cls-2 {
        fill: #3b4752;
      }
    </style>
  </defs>
  <g id="Layer_1-2" data-name="Layer 1">
    <path class="cls-2" d="m0,26.87c0-7.43,2.61-13.75,7.82-18.97C13.12,2.61,19.44,0,26.87,0s13.75,2.61,18.97,7.9c5.3,5.22,7.9,11.54,7.9,18.97s-2.61,13.75-7.9,19.05c-5.22,5.22-11.54,7.83-18.97,7.83s-13.75-2.61-19.05-7.83C2.61,40.63,0,34.3,0,26.87Zm8.22,0c0,5.22,1.82,9.72,5.45,13.44,3.71,3.71,8.06,5.53,13.2,5.53s9.48-1.82,13.12-5.53c3.71-3.72,5.53-8.22,5.53-13.44s-1.82-9.64-5.53-13.36c-3.64-3.71-7.98-5.61-13.12-5.61s-9.48,1.9-13.2,5.61c-3.64,3.71-5.45,8.14-5.45,13.36Z"/>
    <g>
      <path class="cls-1" d="m23.8,32.95c-.99.99-2.3,1.53-3.69,1.53s-2.71-.54-3.69-1.53c-.99-.99-1.53-2.3-1.53-3.69s.54-2.71,1.53-3.69l6.76-6.76,5.33,5.33c1.5-1.17,3.38-1.87,5.43-1.87,1.41,0,2.73.34,3.92.92l.94-.94.68-.68c1.61-1.61,2.42-3.72,2.42-5.83,0-2.11-.81-4.22-2.42-5.83-.1-.1-.21-.19-.31-.28-3.04-2.75-7.63-2.84-10.76-.26-.2.17-.4.35-.6.54l-13.53,13.53c-3.22,3.22-3.22,8.45,0,11.67,1.61,1.61,3.72,2.42,5.83,2.42s4.22-.81,5.83-2.42l.04-.04c-.51-1.03-.82-2.18-.9-3.39l-1.28,1.28Z"/>
      <path class="cls-1" d="m33.94,24c-3.94,0-7.14,3.2-7.14,7.14,0,.6.08,1.17.22,1.73l13.04-5.39c-1.25-2.08-3.52-3.48-6.12-3.48Z"/>
      <path class="cls-1" d="m27.81,34.79c1.25,2.08,3.52,3.48,6.12,3.48,3.94,0,7.14-3.2,7.14-7.14,0-.6-.08-1.17-.22-1.73l-13.04,5.39Z"/>
    </g>
  </g>
</svg>