<svg width="40" height="40" viewBox="0 0 40 40" fill="none" xmlns="http://www.w3.org/2000/svg">
<path d="M31.3283 25.4165H14.0008C13.6693 25.4165 13.3513 25.2848 13.1169 25.0504C12.8825 24.816 12.7508 24.498 12.7508 24.1665C12.7508 23.835 12.8825 23.517 13.1169 23.2826C13.3513 23.0482 13.6693 22.9165 14.0008 22.9165H31.3283C31.613 22.918 31.8895 22.8215 32.1115 22.6433C32.3335 22.465 32.4874 22.2158 32.5474 21.9375L35.1092 10.4165H10.9995C10.668 10.4165 10.35 10.2848 10.1156 10.0504C9.88121 9.81597 9.74951 9.49802 9.74951 9.1665C9.74951 8.83498 9.88121 8.51704 10.1156 8.28262C10.35 8.0482 10.668 7.9165 10.9995 7.9165H35.6285C35.9403 7.91689 36.2481 7.98719 36.5292 8.12223C36.8103 8.25727 37.0576 8.45362 37.2528 8.69683C37.448 8.94004 37.5861 9.22392 37.6571 9.52758C37.7281 9.83125 37.7301 10.147 37.663 10.4515L34.9888 22.4795C34.8076 23.3144 34.3452 24.0617 33.6788 24.5964C33.0124 25.131 32.1826 25.4206 31.3283 25.4165Z" fill="black"/>
<path d="M33.3335 30.4165H16.3657C15.692 30.4151 15.0395 30.181 14.5184 29.754C13.9974 29.3269 13.6397 28.7331 13.506 28.0728L9.04313 5.75097C9.02378 5.65679 8.97262 5.57214 8.89822 5.51123C8.82383 5.45032 8.73074 5.41688 8.6346 5.4165H3.3335C3.00198 5.4165 2.68403 5.28481 2.44961 5.05039C2.21519 4.81597 2.0835 4.49802 2.0835 4.1665C2.0835 3.83498 2.21519 3.51704 2.44961 3.28262C2.68403 3.0482 3.00198 2.9165 3.3335 2.9165H8.6346C9.3083 2.91794 9.96084 3.15197 10.4819 3.57902C11.003 4.00607 11.3606 4.59995 11.4943 5.26025L15.9572 27.582C15.9765 27.6762 16.0277 27.7609 16.1021 27.8218C16.1765 27.8827 16.2696 27.9161 16.3657 27.9165H33.3335C33.665 27.9165 33.983 28.0482 34.2174 28.2826C34.4518 28.517 34.5835 28.835 34.5835 29.1665C34.5835 29.498 34.4518 29.816 34.2174 30.0504C33.983 30.2848 33.665 30.4165 33.3335 30.4165Z" fill="black"/>
<path d="M17.5 36.6665C18.8807 36.6665 20 35.5472 20 34.1665C20 32.7858 18.8807 31.6665 17.5 31.6665C16.1193 31.6665 15 32.7858 15 34.1665C15 35.5472 16.1193 36.6665 17.5 36.6665Z" fill="black"/>
<path d="M30 36.6665C31.3807 36.6665 32.5 35.5472 32.5 34.1665C32.5 32.7858 31.3807 31.6665 30 31.6665C28.6193 31.6665 27.5 32.7858 27.5 34.1665C27.5 35.5472 28.6193 36.6665 30 36.6665Z" fill="black"/>
</svg>
