<svg width="40" height="40" viewBox="0 0 40 40" fill="none" xmlns="http://www.w3.org/2000/svg">
<path d="M20 0C14.1845 0 9.45312 4.73133 9.45312 10.5469C9.45312 16.3624 14.1845 21.0938 20 21.0938C25.8155 21.0938 30.5469 16.3624 30.5469 10.5469C30.5469 4.73133 25.8155 0 20 0ZM20 18.75C15.4768 18.75 11.7969 15.0701 11.7969 10.5469C11.7969 6.02367 15.4768 2.34375 20 2.34375C24.5232 2.34375 28.2031 6.02367 28.2031 10.5469C28.2031 15.0701 24.5232 18.75 20 18.75Z" fill="black"/>
<path d="M33.1223 27.984C30.2348 25.0521 26.407 23.4375 22.3438 23.4375H17.6562C13.5931 23.4375 9.76516 25.0521 6.87766 27.984C4.0043 30.9015 2.42188 34.7526 2.42188 38.8281C2.42188 39.4753 2.94656 40 3.59375 40H36.4062C37.0534 40 37.5781 39.4753 37.5781 38.8281C37.5781 34.7526 35.9957 30.9015 33.1223 27.984ZM4.81719 37.6562C5.4043 31.0089 10.9384 25.7812 17.6562 25.7812H22.3438C29.0616 25.7812 34.5957 31.0089 35.1828 37.6562H4.81719Z" fill="black"/>
</svg>
