<svg width="160" height="32" viewBox="0 0 160 32" fill="none" xmlns="http://www.w3.org/2000/svg">
<path d="M15.0919 1.96866C15.4494 1.19379 16.5506 1.19379 16.9081 1.96866L20.2797 9.27846C20.4254 9.59426 20.7247 9.81171 21.0701 9.85266L29.064 10.8005C29.9114 10.9009 30.2517 11.9483 29.6252 12.5277L23.7151 17.9932C23.4597 18.2293 23.3454 18.5812 23.4132 18.9223L24.982 26.8178C25.1483 27.6548 24.2574 28.3021 23.5128 27.8853L16.4884 23.9534C16.185 23.7835 15.815 23.7835 15.5116 23.9534L8.48722 27.8853C7.74261 28.3021 6.85165 27.6548 7.01795 26.8178L8.5868 18.9223C8.65458 18.5812 8.54026 18.2293 8.28492 17.9932L2.3748 12.5277C1.7483 11.9483 2.08862 10.9009 2.93601 10.8005L10.9299 9.85266C11.2753 9.81171 11.5746 9.59426 11.7203 9.27846L15.0919 1.96866Z" fill="#FDB600"/>
<path d="M47.0919 1.96866C47.4494 1.19379 48.5506 1.19379 48.9081 1.96866L52.2797 9.27846C52.4254 9.59426 52.7247 9.81171 53.0701 9.85266L61.064 10.8005C61.9114 10.9009 62.2517 11.9483 61.6252 12.5277L55.7151 17.9932C55.4597 18.2293 55.3454 18.5812 55.4132 18.9223L56.982 26.8178C57.1483 27.6548 56.2574 28.3021 55.5128 27.8853L48.4884 23.9534C48.185 23.7835 47.815 23.7835 47.5116 23.9534L40.4872 27.8853C39.7426 28.3021 38.8517 27.6548 39.018 26.8178L40.5868 18.9223C40.6546 18.5812 40.5403 18.2293 40.2849 17.9932L34.3748 12.5277C33.7483 11.9483 34.0886 10.9009 34.936 10.8005L42.9299 9.85266C43.2753 9.81171 43.5746 9.59426 43.7203 9.27846L47.0919 1.96866Z" fill="#FDB600"/>
<path d="M79.0919 1.96866C79.4494 1.19379 80.5506 1.19379 80.9081 1.96866L84.2797 9.27846C84.4254 9.59426 84.7247 9.81171 85.0701 9.85266L93.064 10.8005C93.9114 10.9009 94.2517 11.9483 93.6252 12.5277L87.7151 17.9932C87.4597 18.2293 87.3454 18.5812 87.4132 18.9223L88.982 26.8178C89.1483 27.6548 88.2574 28.3021 87.5128 27.8853L80.4884 23.9534C80.185 23.7835 79.815 23.7835 79.5116 23.9534L72.4872 27.8853C71.7426 28.3021 70.8517 27.6548 71.018 26.8178L72.5868 18.9223C72.6546 18.5812 72.5403 18.2293 72.2849 17.9932L66.3748 12.5277C65.7483 11.9483 66.0886 10.9009 66.936 10.8005L74.9299 9.85266C75.2753 9.81171 75.5746 9.59426 75.7203 9.27846L79.0919 1.96866Z" fill="#FDB600"/>
<path d="M111.092 1.96866C111.449 1.19379 112.551 1.19379 112.908 1.96866L116.28 9.27846C116.425 9.59426 116.725 9.81171 117.07 9.85266L125.064 10.8005C125.911 10.9009 126.252 11.9483 125.625 12.5277L119.715 17.9932C119.46 18.2293 119.345 18.5812 119.413 18.9223L120.982 26.8178C121.148 27.6548 120.257 28.3021 119.513 27.8853L112.488 23.9534C112.185 23.7835 111.815 23.7835 111.512 23.9534L104.487 27.8853C103.743 28.3021 102.852 27.6548 103.018 26.8178L104.587 18.9223C104.655 18.5812 104.54 18.2293 104.285 17.9932L98.3748 12.5277C97.7483 11.9483 98.0886 10.9009 98.936 10.8005L106.93 9.85266C107.275 9.81171 107.575 9.59426 107.72 9.27846L111.092 1.96866Z" fill="#FDB600"/>
<path d="M143.092 1.96866C143.449 1.19379 144.551 1.19379 144.908 1.96866L148.28 9.27846C148.425 9.59426 148.725 9.81171 149.07 9.85266L157.064 10.8005C157.911 10.9009 158.252 11.9483 157.625 12.5277L151.715 17.9932C151.46 18.2293 151.345 18.5812 151.413 18.9223L152.982 26.8178C153.148 27.6548 152.257 28.3021 151.513 27.8853L144.488 23.9534C144.185 23.7835 143.815 23.7835 143.512 23.9534L136.487 27.8853C135.743 28.3021 134.852 27.6548 135.018 26.8178L136.587 18.9223C136.655 18.5812 136.54 18.2293 136.285 17.9932L130.375 12.5277C129.748 11.9483 130.089 10.9009 130.936 10.8005L138.93 9.85266C139.275 9.81171 139.575 9.59426 139.72 9.27846L143.092 1.96866Z" fill="#FDB600"/>
</svg>
