<svg width="40" height="40" viewBox="0 0 40 40" fill="none" xmlns="http://www.w3.org/2000/svg">
<path d="M37.1338 35.3662L28.06 26.2922C30.0494 23.9069 31.25 20.8419 31.25 17.5C31.25 9.91813 25.0819 3.75 17.5 3.75C9.91813 3.75 3.75 9.91813 3.75 17.5C3.75 25.0819 9.91813 31.25 17.5 31.25C20.8419 31.25 23.9069 30.0494 26.2922 28.06L35.3662 37.1341C35.6103 37.3781 35.9303 37.5003 36.25 37.5003C36.5697 37.5003 36.8897 37.3781 37.1338 37.1341C37.6222 36.6456 37.6222 35.8544 37.1338 35.3662ZM6.25 17.5C6.25 11.2969 11.2963 6.25 17.5 6.25C23.7037 6.25 28.75 11.2969 28.75 17.5C28.75 23.7031 23.7037 28.75 17.5 28.75C11.2963 28.75 6.25 23.7031 6.25 17.5Z" fill="black"/>
</svg>
