<svg width="18" height="18" viewBox="0 0 18 18" fill="none" xmlns="http://www.w3.org/2000/svg">
<path d="M9.15639 0.989442C9.20554 0.882897 9.35696 0.882897 9.40611 0.989441L11.8676 6.32594C11.8876 6.36936 11.9288 6.39926 11.9763 6.40489L17.8122 7.09684C17.9287 7.11065 17.9755 7.25467 17.8894 7.33433L13.5747 11.3244C13.5396 11.3569 13.5239 11.4053 13.5332 11.4522L14.6785 17.2163C14.7014 17.3314 14.5789 17.4204 14.4765 17.3631L9.34841 14.4926C9.30668 14.4692 9.25582 14.4692 9.21409 14.4926L4.08599 17.3631C3.9836 17.4204 3.8611 17.3314 3.88396 17.2163L5.02929 11.4522C5.03861 11.4053 5.02289 11.3569 4.98779 11.3244L0.673117 7.33433C0.586973 7.25467 0.633766 7.11065 0.750283 7.09684L6.58624 6.40489C6.63372 6.39926 6.67487 6.36936 6.6949 6.32594L9.15639 0.989442Z" fill="#FEBE28"/>
</svg>
