<svg width="162" height="53" viewBox="0 0 162 53" fill="none" xmlns="http://www.w3.org/2000/svg">
<g clip-path="url(#clip0_2200_8185)">
<path d="M51.6962 0.581055H52.1877L52.6387 8.52002C52.6395 8.54623 52.6483 8.57159 52.6638 8.59276C52.6794 8.61394 52.701 8.62994 52.7259 8.63867C52.7508 8.6474 52.7777 8.64844 52.8032 8.64167C52.8287 8.63489 52.8515 8.62062 52.8687 8.60071C54.5734 6.62232 56.7757 5.87519 59.4756 6.35933C63.0564 7.00037 64.0079 10.6717 64.2154 13.9486C64.4589 17.7739 64.6588 21.5693 64.8152 25.3349C64.817 25.3755 64.8106 25.416 64.7964 25.4542C64.7821 25.4924 64.7604 25.5275 64.7323 25.5575C64.7042 25.5875 64.6704 25.6118 64.6328 25.6289C64.5952 25.6461 64.5545 25.6559 64.513 25.6576L59.7326 25.8324C59.5552 25.8384 59.462 25.7547 59.453 25.5814C59.2035 20.238 58.972 16.1751 58.7585 13.3928C58.4338 9.20588 52.8867 10.4476 53.013 14.5538C53.1333 18.3432 53.3152 22.0848 53.5587 25.7786C53.5618 25.8252 53.5556 25.8718 53.5404 25.916C53.5253 25.9601 53.5015 26.0008 53.4705 26.0358C53.4395 26.0708 53.4019 26.0994 53.3597 26.1198C53.3176 26.1403 53.2718 26.1523 53.225 26.1552L48.4311 26.4331C48.2687 26.4421 48.183 26.3659 48.174 26.2045L46.9338 1.35657C46.9312 1.29169 46.9535 1.22824 46.9962 1.17911C47.0389 1.12999 47.0988 1.09887 47.1638 1.09209L51.6962 0.581055Z" fill="white"/>
<path d="M21.6336 30.0465L17.3223 6.11306C17.3114 6.05437 17.3235 5.99376 17.3562 5.94372C17.389 5.89368 17.4398 5.85803 17.4981 5.8441L22.2244 4.70548C22.2556 4.69758 22.288 4.69613 22.3197 4.70122C22.3515 4.70631 22.3818 4.71783 22.4089 4.73507C22.4359 4.7523 22.4592 4.77488 22.4771 4.80141C22.495 4.82794 22.5072 4.85784 22.513 4.88927L26.9281 29.1186C26.9386 29.1792 26.9246 29.2415 26.8891 29.2918C26.8537 29.3422 26.7996 29.3766 26.7387 29.3875L21.9042 30.2348C21.8432 30.2452 21.7806 30.2313 21.7299 30.196C21.6792 30.1608 21.6446 30.107 21.6336 30.0465Z" fill="white"/>
<path d="M77.8932 14.392C78.06 11.9265 77.7173 8.50612 74.3575 9.33095C73.2616 9.59992 72.8106 10.3799 72.982 11.4513C73.0091 11.6157 72.9399 11.7083 72.7746 11.7292L68.9322 12.2492C68.8537 12.2601 68.7739 12.2413 68.7088 12.1965C68.6436 12.1516 68.5978 12.084 68.5804 12.0072C67.1147 5.62819 73.92 4.35509 78.3847 5.62371C84.7391 7.43026 82.7953 15.571 82.7953 20.3092C82.7953 21.2267 83.2373 21.5883 84.1212 21.3941C84.1806 21.381 84.2421 21.3805 84.3016 21.3927C84.3611 21.4049 84.4173 21.4293 84.4663 21.4645C84.5154 21.4997 84.5562 21.5448 84.5862 21.5968C84.6161 21.6488 84.6344 21.7065 84.6398 21.7661L84.9059 24.5947C84.921 24.7561 84.8548 24.8727 84.7075 24.9444C82.2361 26.1458 79.6971 25.6796 78.2269 23.5189C78.1397 23.3904 78.0345 23.3739 77.9112 23.4696C75.3617 25.4659 72.6498 25.8066 69.7755 24.4916C66.551 23.0168 66.0098 18.5341 68.3459 15.9923C70.5377 13.612 74.7047 13.6568 77.6271 14.5758C77.6569 14.5846 77.6884 14.5866 77.7191 14.5817C77.7498 14.5768 77.779 14.5651 77.8046 14.5475C77.8301 14.5298 77.8514 14.5067 77.8667 14.4798C77.882 14.4528 77.8911 14.4228 77.8932 14.392ZM72.3371 20.3137C73.0812 22.6716 76.5042 21.4568 77.5504 20.0985C77.6383 19.985 77.6873 19.8467 77.6902 19.7041L77.7263 17.8661C77.7323 17.6958 77.6572 17.5762 77.5008 17.5075C75.4038 16.5706 71.2908 16.9965 72.3371 20.3137Z" fill="white"/>
<path d="M102.198 24.9003L102.107 31.2659C102.106 31.3316 102.079 31.3944 102.032 31.4405C101.985 31.4866 101.921 31.5124 101.855 31.5124L96.9662 31.5079C96.9339 31.5079 96.9018 31.5016 96.872 31.4894C96.8421 31.4772 96.8151 31.4593 96.7924 31.4367C96.7697 31.4142 96.7519 31.3875 96.7399 31.3581C96.728 31.3288 96.7221 31.2974 96.7227 31.2659L97.0384 6.9155C97.0389 6.85783 97.0512 6.80085 97.0743 6.74796C97.0974 6.69507 97.1311 6.64734 97.1731 6.60761C97.2152 6.56789 97.2649 6.53697 97.3192 6.51671C97.3735 6.49644 97.4314 6.48724 97.4894 6.48964L101.413 6.64206C101.623 6.64803 101.753 6.75412 101.801 6.96033L102.116 8.32757C102.153 8.477 102.226 8.49941 102.337 8.39481C106.721 4.28412 112.823 6.27447 114.085 12.0393C115.253 17.3693 113.873 26.0076 106.992 26.3572C105.269 26.4424 103.772 25.8641 102.491 24.7703C102.464 24.7491 102.433 24.7354 102.399 24.7309C102.365 24.7264 102.331 24.7312 102.301 24.7448C102.27 24.7584 102.244 24.7802 102.226 24.8077C102.208 24.8352 102.198 24.8673 102.198 24.9003ZM102.54 20.7C104.425 22.5693 107.379 22.5827 108.281 19.7586C108.94 17.701 109.337 13.29 107.848 11.4431C106.004 9.14792 102.576 11.2593 102.387 13.8503C102.319 14.841 101.999 20.1621 102.54 20.7Z" fill="white"/>
<path d="M125.873 25.6575C121.9 28.401 114.774 27.0427 115.122 21.1837C115.455 15.5579 122.22 15.0962 126.175 16.7593C126.301 16.8101 126.381 16.7697 126.414 16.6382C127.009 14.1817 126.554 10.712 123.217 11.2948C122.543 11.4113 122.083 11.7744 121.837 12.3841C121.78 12.5216 121.763 12.665 121.787 12.8144C121.817 12.9908 121.802 13.1566 121.742 13.312C121.712 13.3898 121.66 13.4576 121.593 13.5076C121.525 13.5575 121.444 13.5877 121.359 13.5944L117.692 13.8589C117.506 13.8739 117.395 13.7902 117.358 13.6079C116.015 7.08098 123.609 6.26063 127.826 7.96408C133.454 10.2413 131.497 17.6334 130.915 22.5599C130.783 23.6597 131.28 24.1364 132.408 23.9899C132.445 23.9855 132.483 23.9888 132.518 23.9996C132.554 24.0104 132.587 24.0284 132.615 24.0525C132.643 24.0766 132.666 24.1063 132.681 24.1395C132.697 24.1728 132.705 24.2089 132.705 24.2455L132.759 27.2803C132.761 27.3249 132.748 27.369 132.723 27.4066C132.698 27.4443 132.662 27.4737 132.62 27.491C129.911 28.6236 127.751 28.0289 126.139 25.7068C126.067 25.6022 125.978 25.5858 125.873 25.6575ZM125.828 19.6506C120.073 16.822 118.337 24.0796 123.393 23.5327C125.269 23.3295 126.151 22.143 126.04 19.9734C126.034 19.824 125.963 19.7164 125.828 19.6506Z" fill="white"/>
<path d="M34.5722 27.4779L35.4561 33.9734C35.4676 34.0625 35.4433 34.1526 35.3884 34.2239C35.3335 34.2953 35.2525 34.3422 35.163 34.3545L30.5314 34.9372C30.2818 34.9701 30.139 34.8625 30.1029 34.6145L26.8333 10.3538C26.8063 10.1715 26.8845 10.0684 27.0679 10.0445L31.1357 9.50654C31.2168 9.49602 31.299 9.51283 31.3693 9.55427C31.4397 9.59572 31.4939 9.65942 31.5235 9.73517L32.0557 11.1248C32.1339 11.3221 32.2346 11.3355 32.3579 11.1652C33.8641 9.07022 35.865 8.08252 38.3604 8.20206C46.1624 8.57413 47.5875 22.3362 42.753 26.6531C40.48 28.6853 37.8087 28.9214 34.739 27.3614C34.6067 27.2956 34.5511 27.3345 34.5722 27.4779ZM34.1257 23.1028C35.4967 24.6583 37.9996 24.5148 39.0143 23.2596C40.6604 21.2155 40.0877 15.5628 38.3514 13.6262C36.8586 11.9631 34.3782 12.9448 33.4447 14.599C32.5879 16.1231 33.6792 20.9062 33.9453 22.7217C33.9664 22.8682 34.0265 22.9952 34.1257 23.1028Z" fill="white"/>
<path d="M150.475 26.5226C150.476 26.5503 150.486 26.5771 150.505 26.5985C150.523 26.6198 150.548 26.6344 150.575 26.6397C150.602 26.645 150.63 26.6407 150.654 26.6275C150.677 26.6143 150.695 26.5931 150.705 26.5675L155.26 14.7509C155.276 14.7079 155.301 14.6687 155.333 14.6356C155.365 14.6026 155.404 14.5764 155.446 14.5588C155.489 14.5411 155.535 14.5324 155.581 14.533C155.627 14.5337 155.673 14.5438 155.715 14.5626L160.221 16.5933C160.356 16.6561 160.39 16.7517 160.324 16.8802L152.824 31.7764C152.737 31.9527 152.596 32.023 152.401 31.9871L147.16 31.0009C147.031 30.977 146.963 30.8978 146.957 30.7633L146.596 18.9513C146.597 18.9353 146.592 18.92 146.582 18.9079C146.572 18.8959 146.558 18.8878 146.542 18.8852C146.526 18.8825 146.509 18.8854 146.494 18.8934C146.479 18.9014 146.468 18.9139 146.461 18.9288L141.78 29.7323C141.711 29.8937 141.588 29.9579 141.41 29.925L136.233 28.9299C136.052 28.897 135.956 28.7894 135.944 28.6071L134.731 9.6585C134.729 9.62585 134.734 9.59306 134.746 9.56262C134.758 9.53218 134.777 9.50489 134.801 9.48284C134.826 9.4608 134.855 9.44456 134.886 9.43538C134.918 9.42621 134.951 9.42432 134.984 9.42988L139.868 10.2323C140.024 10.2592 140.102 10.3518 140.102 10.5102L140.003 24.5592C140.004 24.5813 140.013 24.6023 140.027 24.619C140.042 24.6357 140.062 24.647 140.084 24.6511C140.105 24.6553 140.128 24.652 140.148 24.6418C140.168 24.6316 140.183 24.6152 140.192 24.595L145.334 11.7699C145.367 11.685 145.431 11.6153 145.513 11.574C145.595 11.5327 145.69 11.5226 145.78 11.5457C147.043 11.8864 148.328 12.2361 149.636 12.5947C150.809 12.9175 150.362 13.4733 150.385 14.3519C150.49 18.4253 150.52 22.4822 150.475 26.5226Z" fill="white"/>
<path d="M0.361328 20.2648V18.8214C1.01675 16.8041 2.44486 15.4309 4.64564 14.7017C15.1354 11.2321 15.388 20.3903 16.777 27.2535C16.9724 28.2307 17.5587 28.5191 18.5358 28.1186C18.5663 28.1065 18.5989 28.1006 18.6317 28.1012C18.6645 28.1019 18.6968 28.1092 18.7267 28.1226C18.7566 28.136 18.7834 28.1552 18.8057 28.1792C18.8279 28.2032 18.845 28.2314 18.856 28.2621L19.8527 31.0683C19.8751 31.1316 19.8771 31.2003 19.8585 31.2653C19.84 31.3302 19.8017 31.3882 19.749 31.4314C17.909 32.9286 14.8558 33.5338 13.1602 31.4269C13.0489 31.2864 12.9392 31.2879 12.8309 31.4314C9.71015 35.6093 1.99388 35.9052 1.05584 29.8176C0.262112 24.64 6.41349 22.4569 10.5084 22.9769C10.6737 22.9978 10.7459 22.9261 10.7249 22.7617C10.6031 21.6814 10.1972 20.4262 9.75074 19.5386C8.6278 17.3107 4.37505 17.8576 5.2229 20.8745C5.24369 20.9488 5.23579 21.0282 5.20075 21.097C5.16571 21.1659 5.10605 21.2192 5.03348 21.2466L1.46623 22.5779C1.28584 22.6437 1.16407 22.5854 1.10094 22.4031L0.361328 20.2648ZM10.7384 29.5845C11.8298 28.5041 11.8523 27.361 11.2345 26.0072C11.1443 25.807 10.9879 25.7009 10.7654 25.689C3.03113 25.3259 6.76525 33.4979 10.7384 29.5845Z" fill="white"/>
<path d="M161.36 31.4184V32.3105C160.752 34.404 158.749 35.6457 156.819 34.4353C152.39 31.6605 158.939 25.4698 161.36 31.4184Z" fill="white"/>
<path d="M79.8459 44.9606V49.4434C79.8459 49.5808 79.7827 49.678 79.6565 49.7347C78.3576 50.3444 78.8267 45.5972 78.8267 44.9875C78.8237 44.8201 78.738 44.7365 78.5696 44.7365H78.2629C78.1066 44.7365 78.0314 44.6603 78.0374 44.5078L78.0555 44.0013C78.0615 43.7861 78.1667 43.7174 78.3712 43.7951C78.6929 43.9176 78.8657 43.8459 78.8898 43.5799C79.0191 42.2411 79.7497 41.5821 81.0816 41.603C81.2229 41.603 81.2965 41.6747 81.3025 41.8182L81.3161 42.2306C81.3221 42.4069 81.2364 42.4981 81.059 42.5041C80.2923 42.525 79.9045 42.8985 79.8955 43.6247C79.8955 43.6818 79.9183 43.7365 79.9589 43.7769C79.9995 43.8172 80.0545 43.8399 80.1119 43.8399H81.0635C81.2169 43.8399 81.2965 43.9161 81.3025 44.0685L81.3161 44.463C81.3221 44.6423 81.2349 44.7335 81.0545 44.7365C80.7268 44.7365 80.3991 44.7365 80.0714 44.7365C79.921 44.7365 79.8459 44.8112 79.8459 44.9606Z" fill="white"/>
<path d="M35.2425 41.8214L33.7814 41.8239C33.6842 41.8241 33.6056 41.9025 33.6058 41.999L33.6191 49.5928C33.6193 49.6894 33.6982 49.7675 33.7953 49.7673L35.2565 49.7648C35.3536 49.7646 35.4322 49.6862 35.432 49.5897L35.4187 41.9959C35.4185 41.8993 35.3397 41.8212 35.2425 41.8214Z" fill="white"/>
<path d="M54.93 44.3999V42.1047C54.93 41.9164 55.0247 41.8223 55.2141 41.8223H56.5085C56.6588 41.8223 56.7339 41.897 56.7339 42.0464V49.5012C56.7339 49.6865 56.6392 49.7792 56.4498 49.7792H55.2096C55.0232 49.7792 54.93 49.6865 54.93 49.5012V49.2457C54.93 49.0216 54.8443 48.9797 54.673 49.1202C50.4338 52.563 48.1834 43.1536 53.5726 43.7274C54.0266 43.7782 54.3858 44.0278 54.6504 44.4761C54.8368 44.7899 54.93 44.7644 54.93 44.3999ZM53.5065 48.1988C53.8504 48.2185 54.1891 48.0847 54.448 47.8267C54.707 47.5687 54.865 47.2077 54.8873 46.8231C54.9096 46.4386 54.7944 46.0619 54.567 45.7761C54.3396 45.4902 54.0186 45.3185 53.6747 45.2988C53.3308 45.2791 52.9922 45.413 52.7332 45.671C52.4743 45.929 52.3163 46.2899 52.294 46.6745C52.2717 47.0591 52.3869 47.4357 52.6143 47.7216C52.8417 48.0074 53.1626 48.1791 53.5065 48.1988Z" fill="white"/>
<path d="M90.3687 44.6464C91.2165 43.3867 93.0971 43.5123 93.9269 44.5478C94.8288 45.6774 94.5132 48.0264 94.4996 49.5371C94.4998 49.572 94.4926 49.6066 94.4783 49.6386C94.464 49.6707 94.443 49.6994 94.4167 49.723C94.3904 49.7467 94.3593 49.7647 94.3254 49.7759C94.2916 49.7871 94.2557 49.7913 94.22 49.7881L93.742 49.7433C93.5706 49.7254 93.4849 49.6312 93.4849 49.4609C93.4985 48.3223 93.7285 46.1123 93.1332 45.2157C92.2132 43.8395 90.0439 44.7226 90.1206 46.5605C90.1627 47.5318 90.1387 48.5046 90.0485 49.4788C90.0334 49.6193 89.9583 49.7059 89.823 49.7388C89.2547 49.8793 88.9766 49.7448 88.9887 49.3354C89.0939 46.0928 89.1179 43.6557 89.0608 42.024C89.0578 41.8895 89.1239 41.8223 89.2592 41.8223H89.8455C89.8852 41.8222 89.9244 41.8302 89.9609 41.8457C89.9974 41.8611 90.0303 41.8838 90.0577 41.9123C90.0851 41.9408 90.1064 41.9745 90.1203 42.0115C90.1343 42.0484 90.1405 42.0877 90.1387 42.1271L90.0304 44.5388C90.0293 44.5786 90.0413 44.6177 90.0644 44.6501C90.0876 44.6826 90.1208 44.7067 90.1589 44.7188C90.197 44.731 90.2381 44.7305 90.2759 44.7174C90.3138 44.7043 90.3463 44.6794 90.3687 44.6464Z" fill="white"/>
<path d="M128.657 45.8119L129.978 43.9157C129.991 43.8961 130.008 43.8798 130.028 43.8681C130.049 43.8564 130.072 43.8497 130.095 43.8485L132.07 43.7812C132.099 43.7808 132.127 43.7884 132.151 43.8032C132.175 43.8181 132.195 43.8395 132.207 43.865C132.219 43.8904 132.224 43.9189 132.221 43.9469C132.217 43.975 132.206 44.0015 132.188 44.0233L130.023 46.6367C130.001 46.6632 129.989 46.6965 129.989 46.7309C129.989 46.7652 130.001 46.7985 130.023 46.825L132.269 49.5371C132.287 49.5589 132.298 49.5854 132.302 49.6135C132.305 49.6415 132.301 49.67 132.288 49.6954C132.276 49.7209 132.256 49.7423 132.232 49.7572C132.208 49.772 132.18 49.7796 132.152 49.7792H130.24C130.214 49.7794 130.19 49.7734 130.168 49.7616C130.146 49.7499 130.127 49.7328 130.113 49.7119L128.639 47.5199C128.62 47.4941 128.594 47.4748 128.564 47.4648C128.534 47.4547 128.502 47.4544 128.472 47.4639C128.442 47.4734 128.415 47.4922 128.397 47.5176C128.378 47.5429 128.368 47.5736 128.368 47.605L128.454 49.6447C128.454 49.6649 128.451 49.685 128.443 49.7037C128.436 49.7225 128.424 49.7396 128.41 49.7538C128.396 49.7681 128.379 49.7793 128.36 49.7868C128.341 49.7942 128.321 49.7977 128.3 49.7971L126.668 49.7523C126.629 49.7511 126.592 49.735 126.565 49.7074C126.538 49.6798 126.523 49.6428 126.523 49.6043V41.9702C126.523 41.931 126.539 41.8933 126.567 41.8656C126.595 41.8379 126.633 41.8223 126.672 41.8223H128.264C128.304 41.8223 128.342 41.8379 128.369 41.8656C128.397 41.8933 128.413 41.931 128.413 41.9702L128.386 45.7267C128.386 45.7582 128.396 45.7888 128.415 45.8142C128.433 45.8396 128.46 45.8584 128.49 45.8679C128.52 45.8774 128.552 45.8771 128.582 45.867C128.612 45.8569 128.638 45.8377 128.657 45.8119Z" fill="white"/>
<path d="M86.6292 43.8397H87.5897C87.7972 43.8397 87.8859 43.9413 87.8558 44.1445L87.8197 44.4269C87.7957 44.5973 87.6965 44.6854 87.5221 44.6914L86.6201 44.7138C86.4638 44.7168 86.3856 44.796 86.3856 44.9514V48.43C86.3856 48.6273 86.4848 48.7319 86.6833 48.7438L87.5852 48.7886C87.7626 48.7976 87.8513 48.8903 87.8513 49.0666V49.4566C87.8513 49.609 87.7761 49.7016 87.6258 49.7345C84.7035 50.3486 85.159 46.5518 85.3123 44.9514C85.3243 44.8259 85.2672 44.7586 85.1409 44.7497L84.6493 44.7138C84.5732 44.7082 84.502 44.674 84.4501 44.6183C84.3982 44.5626 84.3695 44.4894 84.3697 44.4135L84.3652 44.1266C84.3652 44.0505 84.3961 43.9775 84.4511 43.9237C84.5061 43.8699 84.5806 43.8397 84.6584 43.8397H85.1229C85.3123 43.8397 85.3799 43.75 85.3258 43.5707C85.2176 43.2091 85.195 42.9147 85.2582 42.6876C85.3002 42.5351 85.4034 42.3948 85.5451 42.2975C85.6869 42.2002 85.8556 42.1539 86.0141 42.1687C86.1725 42.1836 86.3078 42.2584 86.3902 42.3768C86.4726 42.4951 86.4953 42.6472 86.4533 42.7997C86.3661 43.1165 86.348 43.4019 86.3992 43.6559C86.4262 43.7784 86.5029 43.8397 86.6292 43.8397Z" fill="white"/>
<path d="M40.4857 47.6184L42.0731 47.6587C42.1192 47.6592 42.1644 47.6718 42.204 47.6953C42.2437 47.7187 42.2764 47.7522 42.2988 47.7922C42.3212 47.8323 42.3326 47.8775 42.3318 47.9233C42.331 47.9692 42.318 48.014 42.2941 48.0532C40.1159 51.6663 35.0965 49.2053 36.5892 45.4308C37.6896 42.6425 42.6053 43.158 42.3573 46.9146C42.3482 47.0311 42.2866 47.0894 42.1723 47.0894H38.4743C38.4366 47.0891 38.3993 47.0976 38.3655 47.1144C38.3317 47.1311 38.3024 47.1556 38.28 47.1858C38.2575 47.2159 38.2426 47.251 38.2364 47.288C38.2302 47.325 38.2329 47.3629 38.2443 47.3987C38.5961 48.5284 39.8047 48.5822 40.4361 47.6453C40.4418 47.637 40.4494 47.6302 40.458 47.6255C40.4666 47.6208 40.4761 47.6184 40.4857 47.6184ZM38.3661 46.3139L40.4406 46.2959C40.4621 46.2959 40.4828 46.2874 40.498 46.2723C40.5132 46.2572 40.5218 46.2367 40.5218 46.2153V46.1615C40.5206 46.0331 40.4923 45.9062 40.4384 45.7881C40.3846 45.67 40.3062 45.5629 40.2078 45.4729C40.1093 45.383 39.9928 45.312 39.8648 45.264C39.7369 45.216 39.6 45.192 39.462 45.1932H39.3267C39.048 45.1956 38.7818 45.3009 38.5864 45.4859C38.391 45.6708 38.2826 45.9203 38.2849 46.1794V46.2332C38.2849 46.2546 38.2935 46.2751 38.3087 46.2902C38.3239 46.3054 38.3445 46.3139 38.3661 46.3139Z" fill="white"/>
<path d="M47.3391 49.0938L46.8926 49.5151C46.7934 49.6078 46.6761 49.6675 46.5409 49.6944C40.8089 50.8331 42.9601 40.8007 47.3707 44.3869C47.524 44.5094 47.6007 44.4735 47.6007 44.2793V43.952C47.6007 43.8026 47.6758 43.7294 47.8261 43.7324L49.1385 43.7503C49.3159 43.7533 49.4046 43.8444 49.4046 44.0238V49.4972C49.4046 49.6855 49.3114 49.7796 49.125 49.7796H47.9389C47.7134 49.7796 47.6007 49.6675 47.6007 49.4434V49.2058C47.6007 48.9667 47.5135 48.9294 47.3391 49.0938ZM46.3596 48.2068C46.5297 48.1943 46.6953 48.1445 46.8471 48.06C46.9989 47.9755 47.1338 47.858 47.2441 47.7143C47.3544 47.5706 47.438 47.4035 47.4901 47.2225C47.5421 47.0414 47.5617 46.85 47.5476 46.6592C47.5335 46.4684 47.486 46.2819 47.4079 46.1104C47.3298 45.9388 47.2225 45.7856 47.0923 45.6595C46.962 45.5333 46.8113 45.4367 46.6488 45.3752C46.4862 45.3136 46.315 45.2883 46.1449 45.3008C45.9748 45.3132 45.8091 45.363 45.6574 45.4475C45.5056 45.532 45.3707 45.6495 45.2604 45.7932C45.1501 45.9369 45.0665 46.104 45.0144 46.2851C44.9623 46.4661 44.9428 46.6575 44.9569 46.8483C44.971 47.0391 45.0184 47.2256 45.0965 47.3971C45.1747 47.5687 45.2819 47.7219 45.4122 47.848C45.5424 47.9742 45.6931 48.0708 45.8557 48.1323C46.0182 48.1939 46.1895 48.2192 46.3596 48.2068Z" fill="white"/>
<path d="M59.6064 47.3136C59.6695 48.385 60.8917 48.6047 61.5456 47.856C61.6689 47.7186 61.8222 47.6498 62.0056 47.6498H62.9391C63.6397 47.6498 63.7765 47.9263 63.3495 48.4791C61.4103 50.976 57.3831 49.7522 57.7168 46.426C58.1091 42.5171 64.1027 42.8936 63.7103 46.8205C63.6923 46.9939 63.5946 47.082 63.4172 47.085L59.8093 47.1029C59.665 47.1029 59.5974 47.1732 59.6064 47.3136ZM59.6695 46.3095L61.8117 46.2826C61.8218 46.2826 61.8317 46.2806 61.841 46.2768C61.8503 46.273 61.8588 46.2674 61.8659 46.2603C61.873 46.2532 61.8787 46.2448 61.8825 46.2356C61.8864 46.2263 61.8884 46.2164 61.8884 46.2064V46.1616C61.8852 45.904 61.7666 45.6584 61.5586 45.4786C61.3507 45.2988 61.0703 45.1994 60.779 45.2023H60.6797C60.535 45.2037 60.3919 45.2303 60.2586 45.2807C60.1254 45.331 60.0046 45.4041 59.9032 45.4957C59.8018 45.5873 59.7218 45.6957 59.6678 45.8146C59.6138 45.9334 59.5868 46.0605 59.5884 46.1885V46.2333C59.5883 46.2437 59.5905 46.254 59.5946 46.2635C59.5987 46.2731 59.6048 46.2817 59.6124 46.2888C59.62 46.296 59.629 46.3015 59.6388 46.305C59.6486 46.3086 59.6591 46.3101 59.6695 46.3095Z" fill="white"/>
<path d="M66.8137 44.6013C67.1955 44.0813 67.7262 43.7869 68.4057 43.7182C68.5921 43.7002 68.6853 43.7854 68.6853 43.9737V45.3633C68.6853 45.4888 68.6236 45.5636 68.5004 45.5875L66.9896 45.8923C66.8971 45.9112 66.8135 45.9603 66.7522 46.0317C66.691 46.1032 66.6555 46.193 66.6514 46.2868L66.489 49.5861C66.483 49.6997 66.4244 49.7579 66.3131 49.7609L65.0774 49.7788C64.8279 49.7848 64.7031 49.6638 64.7031 49.4157L64.7076 43.9423C64.7076 43.8048 64.7768 43.7361 64.9151 43.7361L66.259 43.7226C66.4484 43.7226 66.5431 43.8168 66.5431 44.0051V44.5161C66.5431 44.8179 66.6333 44.8463 66.8137 44.6013Z" fill="white"/>
<path d="M77.4425 46.7938C77.4425 47.5952 77.1222 48.3637 76.5522 48.9303C75.9822 49.4969 75.209 49.8152 74.4029 49.8152C74.0037 49.8152 73.6085 49.7371 73.2397 49.5852C72.8709 49.4334 72.5358 49.2108 72.2536 48.9303C71.9713 48.6497 71.7474 48.3166 71.5947 47.9501C71.4419 47.5835 71.3633 47.1906 71.3633 46.7938C71.3633 46.3971 71.4419 46.0042 71.5947 45.6376C71.7474 45.271 71.9713 44.938 72.2536 44.6574C72.5358 44.3768 72.8709 44.1543 73.2397 44.0025C73.6085 43.8506 74.0037 43.7725 74.4029 43.7725C75.209 43.7725 75.9822 44.0908 76.5522 44.6574C77.1222 45.224 77.4425 45.9925 77.4425 46.7938ZM74.4209 48.9276C74.94 48.9276 75.4379 48.7028 75.8049 48.3027C76.172 47.9025 76.3782 47.3598 76.3782 46.7938C76.3782 46.2279 76.172 45.6852 75.8049 45.285C75.4379 44.8849 74.94 44.66 74.4209 44.66C73.9018 44.66 73.404 44.8849 73.0369 45.285C72.6699 45.6852 72.4637 46.2279 72.4637 46.7938C72.4637 47.3598 72.6699 47.9025 73.0369 48.3027C73.404 48.7028 73.9018 48.9276 74.4209 48.9276Z" fill="white"/>
<path d="M96.7725 47.1932C96.8086 49.2239 99.4378 49.6632 100.304 47.9015C100.382 47.7401 100.511 47.6594 100.692 47.6594H101.17C101.368 47.6594 101.437 47.752 101.377 47.9373C100.498 50.6135 96.4162 50.4163 95.7894 47.5697C94.7341 42.7777 101.936 42.6342 101.427 46.7494C101.406 46.9018 101.318 46.978 101.165 46.978H96.9844C96.8401 46.978 96.7695 47.0497 96.7725 47.1932ZM96.8762 46.5566L100.313 46.5028C100.345 46.5028 100.376 46.4901 100.399 46.4674C100.422 46.4447 100.434 46.4139 100.434 46.3818V46.3056C100.431 46.0804 100.385 45.858 100.298 45.6511C100.211 45.4442 100.085 45.2569 99.9266 45.0999C99.7687 44.943 99.5821 44.8194 99.3775 44.7363C99.1729 44.6532 98.9543 44.6122 98.7343 44.6156L98.4005 44.6246C97.9574 44.6314 97.5352 44.818 97.2266 45.1432C96.918 45.4685 96.7482 45.9059 96.7544 46.3594V46.4356C96.7544 46.4677 96.7673 46.4985 96.7901 46.5212C96.8129 46.5439 96.8439 46.5566 96.8762 46.5566Z" fill="white"/>
<path d="M106.96 52.5814H105.269L105.242 43.9476C105.242 43.8894 105.265 43.8335 105.307 43.7923C105.348 43.7511 105.405 43.728 105.463 43.728H106.794C107.019 43.728 107.132 43.8401 107.132 44.0642V44.2794C107.132 44.4766 107.208 44.511 107.362 44.3825C111.055 41.2445 113.585 48.6501 109.666 49.7439C108.812 49.9799 108.02 49.7409 107.29 49.0266C107.267 49.0052 107.238 48.9913 107.206 48.9869C107.175 48.9825 107.143 48.9877 107.115 49.0019C107.087 49.0161 107.064 49.0386 107.049 49.0663C107.035 49.094 107.029 49.1255 107.033 49.1566C107.219 50.364 107.195 51.5056 106.96 52.5814ZM108.508 48.2129C108.68 48.2034 108.847 48.1562 109.002 48.0741C109.156 47.992 109.294 47.8765 109.407 47.7343C109.521 47.592 109.608 47.4259 109.664 47.2452C109.72 47.0645 109.743 46.8729 109.732 46.6813C109.721 46.4897 109.677 46.3018 109.601 46.1284C109.526 45.9551 109.42 45.7995 109.291 45.6708C109.163 45.542 109.013 45.4426 108.85 45.3781C108.687 45.3135 108.516 45.2852 108.344 45.2948C108.173 45.3043 108.005 45.3515 107.851 45.4336C107.696 45.5157 107.558 45.6312 107.445 45.7734C107.331 45.9157 107.244 46.0819 107.188 46.2625C107.133 46.4432 107.11 46.6348 107.12 46.8264C107.131 47.018 107.176 47.2059 107.251 47.3793C107.327 47.5527 107.432 47.7082 107.561 47.8369C107.69 47.9657 107.84 48.0651 108.002 48.1297C108.165 48.1942 108.337 48.2225 108.508 48.2129Z" fill="white"/>
<path d="M116.691 44.4046C116.73 43.5379 117.347 43.4393 118.54 44.1087C118.568 44.1239 118.59 44.146 118.606 44.1728C118.622 44.1996 118.63 44.2301 118.631 44.2612V49.5015C118.631 49.6868 118.536 49.7794 118.346 49.7794H117.052C116.827 49.7794 116.714 49.6674 116.714 49.4432V49.2012C116.714 48.9531 116.625 48.9172 116.448 49.0936L116.064 49.4746C115.944 49.5912 115.803 49.6674 115.641 49.7032C111.69 50.546 111.09 44.7049 114.324 43.7143C115.141 43.4662 115.865 43.7187 116.493 44.4718C116.616 44.6183 116.682 44.5959 116.691 44.4046ZM115.435 48.2058C115.606 48.2087 115.776 48.1741 115.935 48.1039C116.095 48.0336 116.24 47.9292 116.364 47.7964C116.487 47.6636 116.586 47.5052 116.654 47.3302C116.723 47.1551 116.76 46.9669 116.763 46.7762C116.767 46.5855 116.736 46.396 116.674 46.2187C116.611 46.0414 116.518 45.8796 116.4 45.7427C116.281 45.6057 116.139 45.4963 115.982 45.4206C115.826 45.3448 115.657 45.3043 115.486 45.3014C115.314 45.2984 115.144 45.333 114.985 45.4033C114.826 45.4735 114.68 45.578 114.557 45.7107C114.433 45.8435 114.334 46.0019 114.266 46.177C114.197 46.352 114.16 46.5403 114.157 46.731C114.154 46.9217 114.184 47.1111 114.246 47.2884C114.309 47.4658 114.402 47.6275 114.521 47.7645C114.639 47.9014 114.781 48.0109 114.938 48.0866C115.095 48.1623 115.264 48.2028 115.435 48.2058Z" fill="white"/>
<path d="M119.6 47.1968C119.081 43.3685 124.443 42.324 125.467 45.7399C125.506 45.8684 125.461 45.9536 125.332 45.9954C124.58 46.2405 123.931 46.1523 123.383 45.7309C121.192 44.032 120.727 48.3892 122.802 48.1696C122.952 48.1516 123.077 48.0844 123.176 47.9678C123.684 47.3701 124.392 47.2058 125.3 47.4747C125.411 47.5076 125.461 47.5823 125.449 47.6989C125.079 50.6978 120.042 50.4692 119.6 47.1968Z" fill="white"/>
</g>
<defs>
<clipPath id="clip0_2200_8185">
<rect width="161" height="52" fill="white" transform="translate(0.361328 0.581055)"/>
</clipPath>
</defs>
</svg>
