<svg width="185" height="26" viewBox="0 0 185 26" fill="none" xmlns="http://www.w3.org/2000/svg">
<path d="M80.8065 6.58465C79.7568 4.80919 78.3028 3.4147 76.4444 2.40181C74.586 1.38828 72.5089 0.881836 70.213 0.881836C67.9171 0.881836 65.8068 1.38828 63.949 2.40181C62.0906 3.4147 60.6308 4.81501 59.5708 6.60082C58.5101 8.38792 57.9805 10.3814 57.9805 12.5811C57.9805 14.7809 58.5101 16.7756 59.5708 18.562C60.6308 20.3485 62.0906 21.7482 63.949 22.7611C65.8075 23.7739 67.8956 24.281 70.213 24.281C72.5303 24.281 74.586 23.7739 76.4444 22.7611C78.3028 21.7482 79.7568 20.3543 80.8065 18.5782C81.8561 16.8028 82.3806 14.8035 82.3806 12.5811C82.3806 10.3587 81.8561 8.36076 80.8065 6.58465ZM77.9367 17.0751C77.1604 18.4152 76.1004 19.4663 74.7554 20.2288C73.4105 20.9914 71.8968 21.3724 70.213 21.3724C68.5292 21.3724 67.0038 20.9914 65.638 20.2288C64.2717 19.4663 63.2 18.4152 62.4243 17.0751C61.6479 15.7355 61.2598 14.2376 61.2598 12.5818C61.2598 10.926 61.6479 9.42862 62.4243 8.08846C63.2 6.74894 64.2717 5.69789 65.638 4.93532C67.0044 4.17274 68.5292 3.79178 70.213 3.79178C71.8968 3.79178 73.4105 4.17339 74.7554 4.93532C76.1004 5.69789 77.1604 6.74894 77.9367 8.08846C78.7124 9.42862 79.1012 10.9266 79.1012 12.5818C79.1012 14.2369 78.7131 15.7355 77.9367 17.0751Z" fill="white"/>
<path d="M134.852 21.1768V13.791H143.576V11.013H134.852V3.98688H145.776L147.774 1.14355H131.572V24.0195H146.236L148.233 21.1768H134.852Z" fill="white"/>
<path d="M112.759 21.4051L116.038 24.6727V1.1435H112.759V16.8956L99.5742 3.7585L96.2949 0.490234V24.0194H99.5742V8.26733L112.759 21.4051Z" fill="white"/>
<path d="M49.531 1.14355H30.6405L28.6426 3.98688H36.9642V24.0195H40.211V3.98688H47.533L49.531 1.14355Z" fill="white"/>
<path d="M16.9072 14.3462C16.1529 13.497 15.2506 12.8651 14.2017 12.4511C13.1521 12.0378 11.7636 11.6232 10.0363 11.2093C8.70241 10.904 7.6476 10.6155 6.87126 10.3432C6.09493 10.0709 5.44452 9.68928 4.92004 9.19965C4.39555 8.70938 4.13266 8.07229 4.13266 7.28772C4.13266 6.2205 4.59678 5.34862 5.52631 4.67336C6.45518 3.99811 7.84948 3.65983 9.70788 3.65983C10.7575 3.65983 11.8285 3.8183 12.9216 4.13393C13.8161 4.39265 14.6651 4.75098 15.472 5.20633L17.087 2.90825C16.1464 2.25434 15.0209 1.75372 13.709 1.4051C12.3971 1.05647 11.0632 0.881836 9.70788 0.881836C7.76185 0.881836 6.13322 1.17613 4.82137 1.76407C3.50952 2.35201 2.53066 3.13657 1.88609 4.11712C1.24087 5.09766 0.918915 6.19787 0.918915 7.41773C0.918915 8.87755 1.29605 10.0379 2.05032 10.8981C2.80458 11.759 3.71139 12.3961 4.77269 12.8101C5.83269 13.224 7.22698 13.638 8.95426 14.0519C10.3317 14.3786 11.3975 14.6729 12.1518 14.9342C12.9061 15.1955 13.5402 15.5713 14.0537 16.0615C14.5671 16.5518 14.8242 17.1889 14.8242 17.9735C14.8242 19.0413 14.3536 19.8964 13.4137 20.5393C12.4731 21.1822 11.0522 21.5037 9.15029 21.5037C7.70732 21.5037 6.30199 21.2585 4.93626 20.7683C3.75164 20.3433 2.752 19.8078 1.93737 19.1616L0.361328 21.4047C1.27982 22.2546 2.54234 22.9467 4.14954 23.4803C5.75674 24.0139 7.42366 24.281 9.15094 24.281C11.097 24.281 12.7366 23.9926 14.0706 23.415C15.4038 22.838 16.3989 22.0535 17.0552 21.0619C17.7114 20.071 18.0392 18.976 18.0392 17.7775C18.0392 16.3397 17.6621 15.1955 16.9078 14.3462H16.9072Z" fill="white"/>
<path d="M159.107 0V1.7968L166.686 12.5815L159.107 23.3662V25.163L170.127 14.1823C171.014 13.2982 171.014 11.8642 170.127 10.9794L159.107 0Z" fill="white"/>
<path d="M184.361 0V1.7968L176.782 12.5815L184.361 23.3662V25.163L173.341 14.1823C172.454 13.2982 172.454 11.8642 173.341 10.9794L184.361 0Z" fill="white"/>
</svg>
