<svg width="257" height="39" viewBox="0 0 257 39" fill="none" xmlns="http://www.w3.org/2000/svg">
<path d="M14.0302 0.263672C14.0575 0.274314 14.0853 0.274314 14.1134 0.263672L19.5364 0.280329L19.8289 0.278247L21.1298 0.283105L21.6274 0.324054C21.8019 0.407801 21.9778 0.458004 22.1551 0.474661C22.2715 0.514915 22.3897 0.579461 22.5097 0.600282C23.0241 0.689814 23.4795 0.880676 23.9981 1.04169C24.252 1.12012 24.5162 1.26101 24.7291 1.34291C25.4715 1.62816 26.042 1.89051 26.6988 2.29583C26.8785 2.40688 27.1282 2.51168 27.3272 2.65604C27.5449 2.81428 27.7439 2.90034 27.9725 3.08912C28.0829 3.18073 28.2047 3.21474 28.309 3.30566C28.4763 3.44956 28.6544 3.57333 28.8434 3.67697C28.8615 3.68669 28.876 3.70127 28.8868 3.7207C28.9531 3.83452 29.0444 3.90925 29.1606 3.94487C29.1813 3.95114 29.1992 3.96567 29.2113 3.98582C29.3054 4.14268 29.4598 4.21486 29.5484 4.29398C29.7064 4.43417 29.8654 4.57206 30.0255 4.70763C30.134 4.79924 30.2582 4.98663 30.4356 5.06367C30.4536 5.07154 30.4657 5.08611 30.4717 5.1074C30.5144 5.25546 30.6024 5.34684 30.7359 5.38154C30.7491 5.38503 30.7615 5.39189 30.7721 5.40161C30.7828 5.41134 30.7914 5.42369 30.7974 5.43776C30.8529 5.56963 30.9393 5.66356 31.0567 5.71954C31.0793 5.73065 31.0963 5.74846 31.108 5.77298L31.193 5.95343C31.2035 5.97533 31.2209 5.99213 31.2419 6.00063C31.3738 6.05523 31.4606 6.16049 31.5024 6.31642C31.5057 6.32799 31.511 6.33862 31.5181 6.34759C31.5252 6.35657 31.5338 6.36369 31.5434 6.36847L31.6882 6.44065C31.6975 6.44523 31.7058 6.45207 31.7125 6.4607C31.7193 6.46932 31.7244 6.47953 31.7274 6.49062C31.7712 6.65257 31.8611 6.76708 31.997 6.83417C32.0077 6.83933 32.0172 6.84748 32.0246 6.8579C32.032 6.86831 32.037 6.88067 32.0392 6.89386C32.0673 7.04979 32.1429 7.16153 32.266 7.22908C32.2846 7.2394 32.2994 7.25716 32.3076 7.27906C32.4366 7.61914 32.6742 7.7281 32.7798 8.12024C32.7862 8.14383 32.7991 8.16095 32.8184 8.1716C32.9334 8.23452 33.0011 8.34117 33.0216 8.49155C33.0251 8.51613 33.0363 8.53835 33.053 8.55401C33.2066 8.70115 33.3133 8.88114 33.3732 9.09398C33.4239 9.27582 33.5493 9.32995 33.5958 9.48819C33.6796 9.77345 33.8503 9.9879 33.9383 10.2385C33.9974 10.4057 34.039 10.5508 34.1259 10.7167C34.2544 10.963 34.2724 11.2184 34.39 11.4662C34.5042 11.7068 34.5784 11.9604 34.6126 12.2269C34.6387 12.4615 34.7167 12.6984 34.8466 12.9376C34.9117 13.2837 34.935 13.6455 34.9165 14.0231L34.9334 14.3736L34.919 18.7648C34.9218 19.2011 34.9009 19.4808 34.8562 19.6039C34.659 20.1466 34.5058 20.7997 34.3496 21.2508C34.0473 22.1216 33.6722 22.9505 33.2243 23.7376C33.0675 24.0129 32.9103 24.288 32.7527 24.5628C32.7165 24.6253 32.6457 24.7284 32.5404 24.8723C32.4384 25.0118 32.3757 25.1514 32.2647 25.2943C32.1984 25.3799 32.1166 25.5021 32.0193 25.6608C31.9174 25.8273 31.4554 26.1966 31.4295 25.6983C31.429 25.6866 31.425 25.6754 31.4182 25.6665C31.4115 25.6576 31.4023 25.6514 31.3921 25.649C31.2445 25.6147 31.1422 25.518 31.0851 25.3589C31.0766 25.3357 31.062 25.3202 31.0411 25.3124C30.8879 25.2527 30.7707 25.1423 30.6895 24.9813C30.6521 24.9073 30.528 24.8175 30.3174 24.712C30.2976 24.7022 30.2819 24.6841 30.2733 24.6614C30.2158 24.5128 30.1151 24.4263 29.9712 24.4018C29.9619 24.4003 29.9532 24.3958 29.9461 24.3888C29.9389 24.3818 29.9336 24.3726 29.9308 24.3622C29.9 24.2505 29.868 24.1915 29.7643 24.1512C29.5273 24.0589 29.549 23.918 29.3856 23.7702C29.2776 23.673 29.2264 23.5814 29.3265 23.4523C29.3389 23.4361 29.3546 23.4278 29.3735 23.4273C29.5195 23.4227 29.5961 23.3334 29.6033 23.1594C29.6041 23.1354 29.6135 23.1171 29.6316 23.1046L29.789 22.9936C29.805 22.9829 29.817 22.9656 29.8228 22.945C29.8727 22.7682 29.9655 22.6308 30.1014 22.5327C30.1206 22.5188 30.1354 22.4981 30.1437 22.4737C30.2176 22.2549 30.3298 22.0686 30.4802 21.915C30.4959 21.8993 30.5067 21.8799 30.5128 21.8567C30.5586 21.6735 30.6744 21.5722 30.7377 21.4257C30.8326 21.2059 30.9379 20.9936 31.0537 20.7886C31.147 20.623 31.2572 20.3412 31.3842 19.9433C31.6339 19.1625 31.7943 18.6988 31.8305 18.0048L32.0808 16.8652L32.0711 14.9156L32.0645 14.7678C32.0569 14.5984 32.0193 14.4425 31.9517 14.3L31.9071 14.1917C31.8991 14.1732 31.891 14.1732 31.883 14.1917C31.8782 14.2028 31.8776 14.2218 31.8812 14.2486C31.88 14.1792 31.8703 14.1438 31.8522 14.1424C31.8181 13.7024 31.7638 13.3448 31.6894 13.0695C31.5061 12.3942 31.225 11.6425 30.88 10.9568C30.8089 10.8157 30.7468 10.669 30.6937 10.5168C30.686 10.4955 30.6734 10.4795 30.6557 10.4689C30.4464 10.3405 30.5779 10.1003 30.3252 9.98652C30.3157 9.98215 30.3071 9.97564 30.2999 9.9674C30.2927 9.95916 30.2872 9.94936 30.2836 9.93863C30.2008 9.69803 30.0789 9.49166 29.9181 9.31954C29.8481 9.24459 29.8282 9.17865 29.8041 9.07871C29.8017 9.0684 29.7971 9.05892 29.7908 9.05107C29.7845 9.04322 29.7767 9.03723 29.7679 9.0336C29.6208 8.97391 29.545 8.8506 29.5406 8.66367C29.5403 8.65064 29.5357 8.63824 29.5277 8.62896C29.5198 8.61968 29.5091 8.61422 29.4977 8.6137C29.3309 8.60537 29.2457 8.50265 29.242 8.30554C29.2419 8.29451 29.2388 8.28378 29.2332 8.27474C29.2276 8.2657 29.2198 8.25878 29.2107 8.25488L29.008 8.16882C29.0016 8.16598 28.9958 8.1616 28.991 8.15597C28.9862 8.15034 28.9826 8.14359 28.9803 8.1362L28.9067 7.90578C28.9039 7.8966 28.8986 7.88862 28.8916 7.88292C28.8846 7.87722 28.8762 7.87405 28.8675 7.87385C28.7099 7.87246 28.6239 7.78386 28.6094 7.60803C28.6084 7.59669 28.6048 7.58585 28.5989 7.57667C28.5929 7.5675 28.5849 7.56034 28.5756 7.55598L28.3718 7.46298C28.3517 7.45372 28.3374 7.43776 28.3289 7.41509C28.2524 7.21312 28.0913 7.17426 27.9785 7.06182C27.8338 6.91746 27.681 6.78605 27.5202 6.6676C27.4285 6.60028 27.3863 6.47882 27.2778 6.43996C27.1696 6.40155 27.083 6.32914 27.0178 6.22272C27.0062 6.20329 26.9911 6.18848 26.9726 6.1783C26.6747 6.01659 26.5185 5.83822 26.2851 5.70774C26.0661 5.58559 25.8701 5.42388 25.644 5.31908C25.4293 5.22052 25.2453 5.06367 25.0367 4.96095C24.9104 4.89941 24.7458 4.81081 24.5427 4.69513C24.2721 4.54106 23.8948 4.3805 23.4107 4.21347C23.4059 4.21208 23.2099 4.13782 22.8227 3.99068C22.4626 3.85395 22.1183 3.81717 21.7371 3.64852C21.7259 3.64343 21.715 3.64435 21.7046 3.65129C21.6981 3.65546 21.6951 3.66032 21.6955 3.66587C21.5942 3.55852 21.47 3.51225 21.3228 3.52706L20.54 3.40491C20.4893 3.36697 20.4334 3.35355 20.3723 3.36465C20.2971 3.2934 20.2159 3.25338 20.1287 3.24459C19.9445 3.17564 19.7535 3.15274 19.5557 3.17588L19.1915 3.16685C19.1376 3.15297 19.0839 3.14326 19.0304 3.1377C18.9894 3.13308 18.9589 3.1229 18.9388 3.10717C18.9014 3.07755 18.8863 3.04123 18.8935 2.9982C18.8959 2.98382 18.8956 2.96904 18.8926 2.95483C18.8897 2.94061 18.8842 2.92727 18.8765 2.91568C18.8688 2.90409 18.8591 2.89451 18.848 2.88756C18.8369 2.88061 18.8247 2.87645 18.8121 2.87535C18.2746 2.82677 17.729 2.80826 17.1753 2.81983C17.0865 2.82122 16.9823 2.84412 16.8629 2.88854C16.7057 2.94638 16.5441 2.97738 16.378 2.98154C16.3652 2.98154 16.3644 2.98432 16.3756 2.98987C16.3796 2.99172 16.3841 2.99265 16.3889 2.99265C16.5835 2.98293 16.7745 2.94962 16.9618 2.89271C16.9638 2.89178 16.9652 2.89294 16.966 2.89618C16.9664 2.89756 16.967 2.90011 16.9678 2.90381C16.9691 2.90936 16.9668 2.91144 16.9612 2.91006C16.9467 2.90682 16.9359 2.91515 16.9286 2.93504C16.9281 2.93636 16.928 2.93782 16.9282 2.93924C16.9284 2.94067 16.9289 2.942 16.9297 2.94309C16.9305 2.94418 16.9316 2.94498 16.9328 2.9454C16.934 2.94582 16.9353 2.94583 16.9365 2.94545C17.0068 2.92232 17.0772 2.90959 17.1476 2.90728C17.1484 2.90728 17.149 2.90797 17.1494 2.90936C17.157 2.93342 17.1568 2.93203 17.1488 2.9052C17.1484 2.90381 17.1476 2.90335 17.1464 2.90381C16.9859 2.94499 16.8291 3.00352 16.6759 3.0794C16.6571 3.08866 16.6376 3.0912 16.6175 3.08704C16.496 3.06113 16.4144 3.08866 16.3726 3.16963C15.8644 3.15482 15.4374 3.16269 15.0916 3.19323C15.0414 3.19739 14.9778 3.22053 14.901 3.26263C14.7647 3.27929 14.6453 3.32833 14.5428 3.40977C14.2674 3.4764 14.0933 3.50971 14.0205 3.50971C13.8026 3.51017 13.6245 3.53539 13.4862 3.58536C13.3322 3.64088 12.9969 3.7473 12.4802 3.90462C11.9672 4.06055 11.3388 4.30832 10.5949 4.64794C10.1595 4.8469 9.59582 5.1657 8.90387 5.60433C8.7149 5.72417 8.50221 5.87385 8.26579 6.05338C7.98716 6.26437 7.70009 6.46078 7.44257 6.70022C7.13861 6.98154 6.83485 7.26309 6.53129 7.54487C6.42997 7.63926 6.30031 7.82943 6.14049 7.92521C6.12199 7.93585 6.10712 7.95112 6.09586 7.97102C5.98429 8.16951 5.83713 8.27084 5.72013 8.46587C5.65801 8.56997 5.56996 8.64007 5.50845 8.72475C5.09352 9.29479 4.78996 9.74753 4.59777 10.083C4.16153 10.8437 3.79827 11.6483 3.50798 12.4969C3.49351 12.539 3.48828 12.5758 3.4923 12.6072C3.41912 12.7562 3.38073 12.9015 3.37711 13.0431C3.26373 13.3392 3.2006 13.6395 3.18774 13.9439L3.10451 14.3284C3.10009 14.3502 3.08803 14.3608 3.06832 14.3604H3.0243C3.01433 14.3603 3.00463 14.3641 2.99676 14.3712C2.98889 14.3782 2.9833 14.3881 2.98088 14.3992C2.93504 14.6056 2.90991 14.8157 2.90549 15.0294C2.89021 15.7753 2.89101 16.5214 2.9079 17.2677C2.91594 17.6055 3.00962 17.8669 3.18894 18.052C3.19457 18.1478 3.2 18.2512 3.20523 18.3622C3.21005 18.4645 3.22835 18.5647 3.26011 18.6627C3.34293 18.9172 3.41752 19.1745 3.48386 19.4345C3.54376 19.671 3.61433 19.8891 3.69554 20.089C3.78962 20.3217 3.88049 20.5561 3.96814 20.7921C3.979 20.8212 3.9997 20.8356 4.03026 20.8351C4.05117 20.8351 4.06444 20.8467 4.07006 20.8698C4.1159 21.0593 4.14666 21.1821 4.26607 21.3431C4.38629 21.5051 4.4669 21.6927 4.50791 21.906C4.50959 21.9145 4.51295 21.9224 4.51775 21.9293C4.52256 21.9361 4.52867 21.9417 4.53565 21.9456L4.64361 22.0046C4.66063 22.0134 4.67405 22.0299 4.681 22.0504C4.73769 22.2204 4.78051 22.3294 4.90776 22.4626C5.01994 22.5797 5.10075 22.7234 5.15021 22.8936C5.15379 22.906 5.15971 22.9173 5.16753 22.9266C5.17536 22.936 5.1849 22.9432 5.19544 22.9478C5.33817 23.0098 5.422 23.1296 5.44693 23.3073C5.44858 23.3192 5.45312 23.3303 5.46004 23.3395C5.46696 23.3487 5.47599 23.3556 5.48613 23.3593L5.63268 23.4121C5.63937 23.4145 5.64559 23.4185 5.65097 23.4239C5.65636 23.4293 5.66081 23.4359 5.66404 23.4433L5.7732 23.6994C5.77682 23.708 5.78189 23.7157 5.7881 23.722C5.79431 23.7283 5.80155 23.7331 5.80939 23.7362C5.93443 23.7857 6.01826 23.8826 6.06088 24.027C6.06447 24.0389 6.07034 24.0497 6.07807 24.0586C6.0858 24.0675 6.09518 24.0742 6.10551 24.0784C6.23859 24.1302 6.33388 24.2294 6.39138 24.3761C6.39873 24.3953 6.41207 24.4107 6.42877 24.4191L6.60547 24.5114C6.62363 24.5212 6.63772 24.5389 6.64468 24.5607C6.70137 24.7419 6.83887 24.7745 6.93235 24.8751C7.14947 25.1097 7.39674 25.2811 7.61626 25.5067C7.70612 25.599 7.82131 25.6219 7.90032 25.7184C8.05893 25.912 8.32369 26.0002 8.45034 26.1098C8.56212 26.2075 8.65881 26.2806 8.74043 26.3291C9.1819 26.5943 9.57813 26.8906 9.88631 27.0398C10.2747 27.2282 10.6625 27.4188 11.0497 27.6117C11.303 27.738 11.6027 27.8081 11.8735 27.9359C12.0573 28.0219 12.2143 28.0809 12.3445 28.1128C12.5683 28.1684 12.754 28.2038 12.9844 28.3051C13.3318 28.4571 13.7485 28.473 14.0284 28.5404C14.7346 28.709 15.2774 28.852 16.1133 28.8506C16.1933 28.8497 16.2598 28.8689 16.3129 28.9082C16.3212 28.9145 16.3273 28.9239 16.3301 28.9348C16.333 28.9457 16.3325 28.9574 16.3286 28.9679C16.3032 29.0345 16.3089 29.0882 16.3455 29.1289C16.3708 29.1567 16.4122 29.1712 16.4697 29.1726C17.148 29.187 17.8508 29.1884 18.5781 29.1768C18.6179 29.1763 18.6436 29.1544 18.6553 29.1109L18.7114 28.902C18.7174 28.8788 18.7311 28.8666 18.7524 28.8652L19.0117 28.8499L19.6052 28.7951C20.0225 28.7312 20.4055 28.6965 20.8373 28.5799C21.1575 28.4932 21.5043 28.4467 21.7986 28.362C22.068 28.2852 22.3368 28.2065 22.605 28.126C22.7915 28.07 23.0145 27.9884 23.2738 27.881C23.5699 27.7589 23.8751 27.6617 24.1579 27.5208C24.6489 27.2765 25.1368 27.0579 25.6126 26.7553C25.8132 26.6276 26.0155 26.5033 26.2193 26.3826C26.4274 26.2583 26.6131 26.0619 26.8405 25.9328C26.9434 25.8741 27.0407 25.804 27.1324 25.7225C27.2538 25.6147 27.3861 25.5252 27.5292 25.454C27.5461 25.4452 27.5624 25.447 27.5781 25.4595L27.9014 25.7184C27.9215 25.7346 27.9357 25.7563 27.9442 25.7836C27.9936 25.9433 28.0958 26.0122 28.2505 25.9904C28.2551 25.9899 28.2597 25.9904 28.2641 25.992C28.2684 25.9935 28.2725 25.9961 28.2759 25.9996C28.2794 26.003 28.2822 26.0073 28.2841 26.012C28.2861 26.0168 28.2872 26.022 28.2873 26.0272C28.2934 26.2313 28.3891 26.3254 28.5744 26.3097C28.5837 26.3089 28.5929 26.3117 28.6007 26.3178C28.6085 26.3238 28.6143 26.3327 28.6172 26.343L28.6715 26.5339C28.6771 26.5533 28.6888 26.5635 28.7065 26.5644C28.929 26.579 29.0044 26.7574 29.1317 26.8691C29.2012 26.9302 29.2688 26.9952 29.3343 27.0641C29.3487 27.0794 29.3671 27.0882 29.3862 27.0891C29.4827 27.0951 29.5426 27.1518 29.5659 27.2592C29.5684 27.27 29.5729 27.2802 29.5791 27.2888C29.5854 27.2974 29.5932 27.3044 29.6021 27.3091C29.783 27.4056 30.0345 27.3265 30.0128 27.6714C29.9881 28.0677 29.7722 28.0247 29.5737 28.2246C29.2396 28.5612 28.9538 28.7416 28.6341 28.9991C28.4556 29.143 28.2713 29.2749 28.0811 29.3947C27.7645 29.5946 27.4466 29.8431 27.1481 30.0166C26.4847 30.4025 25.8074 30.7525 25.1163 31.0667C24.787 31.2159 24.3889 31.3415 24.0271 31.4963C23.6616 31.6525 23.2877 31.7219 22.9113 31.8558C22.456 32.0175 22.0344 32.0911 21.5291 32.2202C21.2456 32.2933 20.8998 32.3541 20.4917 32.4027L15.4939 32.4332C15.0162 32.4319 14.5392 32.3948 14.0627 32.3222C13.9526 32.3055 13.7881 32.2607 13.5694 32.1876C13.257 32.0841 12.8988 32.0682 12.6238 31.9939C12.3554 31.921 12.0997 31.7954 11.8186 31.7996C11.8089 31.7998 11.7993 31.8029 11.7909 31.8084C11.7824 31.814 11.7754 31.822 11.7704 31.8315C11.6672 32.0307 11.5744 32.2118 11.4405 32.3881C11.1619 32.7583 10.8774 33.1217 10.5871 33.4785C10.5503 33.5236 10.4942 33.5451 10.4586 33.6083C10.3646 33.7748 10.2047 33.8963 10.1155 33.9997C9.52325 34.6826 8.89844 35.323 8.24107 35.9208C8.03762 36.1054 7.84443 36.2838 7.66149 36.4559C7.46931 36.6364 7.27471 36.8134 7.0777 36.9869C6.70137 37.3186 6.32483 37.6483 5.9481 37.9759C5.8898 37.9953 5.84216 38.0335 5.80517 38.0904L5.6755 38.2257C5.67077 38.2307 5.66508 38.2339 5.65922 38.2347L5.46321 38.2715C5.45802 38.2726 5.45305 38.2747 5.44859 38.2779C5.44413 38.2812 5.44028 38.2853 5.43725 38.2902C5.43422 38.2952 5.43207 38.3007 5.43094 38.3065C5.42981 38.3124 5.42971 38.3184 5.43065 38.3243C5.47528 38.6116 5.20268 38.5714 5.06336 38.5283C5.04647 38.5228 5.03863 38.5299 5.03984 38.5498L5.05854 38.8233C5.05938 38.8339 5.05704 38.8445 5.0519 38.8535C5.04675 38.8624 5.0391 38.8692 5.03019 38.8726C4.92003 38.9124 4.81288 38.9094 4.70874 38.8636C4.70638 38.8624 4.70429 38.8607 4.70265 38.8584C4.70101 38.8562 4.69987 38.8535 4.69934 38.8506C4.6988 38.8478 4.69888 38.8448 4.69958 38.8419C4.70027 38.8391 4.70155 38.8365 4.70331 38.8344L4.71779 38.8177C4.72261 38.8122 4.72261 38.8066 4.71779 38.8011L4.70331 38.783C4.69809 38.777 4.69809 38.7712 4.70331 38.7657L4.71839 38.7476C4.72201 38.7439 4.72482 38.7444 4.72683 38.749C4.72884 38.7546 4.73106 38.7599 4.73347 38.765C4.73375 38.7656 4.73415 38.7661 4.73465 38.7665C4.73515 38.7669 4.73572 38.7672 4.73632 38.7672C4.73692 38.7673 4.73752 38.7672 4.73808 38.7669C4.73863 38.7667 4.73912 38.7662 4.7395 38.7657L4.88665 38.5436C4.89429 38.532 4.90193 38.532 4.90957 38.5436C4.91319 38.5496 4.91641 38.5561 4.91922 38.563C4.93048 38.5889 4.93611 38.5892 4.93611 38.5637C4.93611 38.517 4.95862 38.5015 5.00365 38.5172C5.01083 38.5198 5.01845 38.5202 5.0258 38.5184C5.03315 38.5167 5.03999 38.5128 5.04571 38.5072C5.05142 38.5016 5.05581 38.4944 5.05847 38.4864C5.06114 38.4783 5.06199 38.4696 5.06095 38.461L5.04768 38.3479C5.04527 38.3298 5.05029 38.3148 5.06276 38.3028C5.14599 38.2241 5.17835 38.1246 5.15986 38.0043C5.15809 37.993 5.15871 37.9813 5.16167 37.9703C5.16463 37.9593 5.16985 37.9492 5.17688 37.941C5.18391 37.9328 5.19254 37.9266 5.20207 37.923C5.2116 37.9194 5.22173 37.9185 5.23162 37.9203C5.40411 37.9544 5.4415 37.8051 5.44572 37.6393C5.44814 37.5476 5.49096 37.5051 5.57418 37.5116C5.58424 37.5124 5.5943 37.5094 5.60288 37.5031C5.61146 37.4967 5.6181 37.4873 5.62183 37.4762C5.69721 37.2478 5.76235 37.0535 5.87995 36.8418C6.15858 36.3407 6.30755 35.8632 6.47219 35.2788C6.551 34.9998 6.62015 34.6887 6.67966 34.3453C6.79304 33.6909 6.92511 33.0509 6.97035 32.3888C7.03709 31.4172 7.08031 30.5758 7.10001 29.8646C7.10524 29.68 7.06865 29.4889 6.99025 29.2913C6.98593 29.2805 6.97957 29.2709 6.97163 29.2634C6.9637 29.2558 6.95439 29.2504 6.94441 29.2476C6.71685 29.1842 6.52466 29.0509 6.36786 28.8478C6.35646 28.8329 6.34155 28.8223 6.32504 28.8173C6.19678 28.7766 6.09566 28.694 6.02168 28.5695C6.0092 28.5484 5.99088 28.533 5.96981 28.5258C5.86447 28.4902 5.77139 28.433 5.69058 28.3544C5.5776 28.2452 5.49759 28.1727 5.45055 28.1371C5.30379 28.0256 5.17292 27.8928 5.05793 27.7387C5.03622 27.7101 4.97511 27.6809 4.87459 27.6513C4.86404 27.6484 4.85437 27.6422 4.84662 27.6334C4.83886 27.6246 4.83331 27.6135 4.83057 27.6013C4.79438 27.4422 4.70351 27.3501 4.55797 27.3251C4.54626 27.3232 4.53523 27.3177 4.526 27.3093C4.51678 27.3009 4.5097 27.2898 4.5055 27.2772L4.43675 27.0759C4.43338 27.0664 4.42814 27.058 4.42144 27.0513C4.41474 27.0445 4.40676 27.0396 4.39815 27.0371L4.17199 26.9704C4.16022 26.967 4.15002 26.9585 4.14342 26.9467C4.13683 26.9348 4.13432 26.9205 4.1364 26.9066C4.16254 26.7377 4.10605 26.6556 3.96693 26.6602C3.9515 26.6607 3.93638 26.6568 3.92291 26.6491C3.83124 26.5977 3.79103 26.5126 3.80229 26.3937C3.80351 26.3812 3.80051 26.3687 3.7939 26.3587C3.78729 26.3486 3.77757 26.3418 3.76671 26.3396L3.62498 26.3097C3.59527 26.3035 3.56854 26.285 3.54978 26.2577C3.53102 26.2304 3.52152 26.1961 3.52306 26.1612C3.5307 25.9743 3.45028 25.8912 3.28182 25.912C3.26965 25.9135 3.25746 25.9096 3.24772 25.9013C3.23798 25.8929 3.23141 25.8806 3.22935 25.8669L3.19196 25.6219C3.19029 25.6115 3.1863 25.6019 3.18037 25.5938C3.17445 25.5858 3.1668 25.5797 3.15819 25.5761L2.95615 25.4949C2.94856 25.4917 2.94209 25.4858 2.93773 25.4779C2.93337 25.47 2.93137 25.4606 2.93202 25.4512C2.94569 25.2661 2.87393 25.1615 2.71672 25.1375C2.6938 25.1342 2.67872 25.1201 2.67149 25.0951C2.60676 24.8772 2.53338 24.722 2.45136 24.6294C2.31868 24.48 2.23746 24.3361 2.20771 24.1977C2.20329 24.1783 2.19404 24.1628 2.17997 24.1512L2.07201 24.061C2.05472 24.0467 2.04286 24.0279 2.03643 24.0048C1.97692 23.7984 1.88545 23.6159 1.76202 23.4572C1.64683 23.3087 1.65105 23.1553 1.55033 23.0179C1.3875 22.7965 1.33985 22.5549 1.21562 22.3245C1.06364 22.0427 0.996694 21.7471 0.878487 21.4445C0.70178 20.9913 0.584177 20.5672 0.461748 20.1154C0.374903 19.794 0.32364 19.4068 0.236794 19.0556C0.153567 18.7206 0.105118 18.4788 0.0914483 18.3303C0.0685307 18.0851 0.063103 17.8354 0.0751649 17.5814L0.0625 14.6963C0.0697371 14.4765 0.0962733 14.2294 0.142108 13.9551C0.371284 12.5804 0.754451 11.2821 1.29161 10.0601C1.40258 9.80676 1.61366 9.47015 1.72704 9.13284C1.73508 9.10878 1.74835 9.08958 1.76685 9.07524C1.87741 8.99057 1.94315 8.87304 1.96406 8.72266C1.96727 8.70231 1.97471 8.68449 1.98637 8.66922C2.13634 8.47212 2.26098 8.25534 2.36029 8.01891C2.36817 7.99945 2.38077 7.98325 2.39648 7.9724C2.5183 7.88496 2.59148 7.75818 2.616 7.59207C2.61789 7.57882 2.62232 7.56618 2.62899 7.55503C2.63565 7.54388 2.6444 7.53449 2.6546 7.52752L2.77582 7.44701C2.79311 7.43591 2.80738 7.42087 2.81864 7.4019C3.06028 7.00722 3.23377 6.75343 3.33911 6.64054C3.44204 6.52995 3.52366 6.43209 3.58397 6.34696C3.65715 6.24331 3.7253 6.1628 3.78842 6.10543C3.9219 5.9842 4.04313 5.84817 4.15209 5.69733C4.26848 5.53631 4.39212 5.44123 4.52661 5.31214C4.62371 5.21844 4.74553 5.0137 4.86555 4.95679C5.00024 4.89247 5.09151 4.80688 5.13935 4.69999C5.1494 4.67686 5.16508 4.66113 5.18639 4.6528C5.30581 4.60745 5.39346 4.52024 5.44934 4.39114C5.45404 4.37992 5.46088 4.37008 5.46935 4.36239C5.47782 4.35469 5.48768 4.34933 5.49819 4.34673C5.64495 4.30786 5.75813 4.21532 5.83773 4.06911C5.8502 4.0469 5.86668 4.02978 5.88719 4.01775C6.05043 3.92521 6.20381 3.81717 6.34735 3.69363C6.37992 3.66587 6.4541 3.61451 6.56989 3.53955C6.68026 3.46876 6.74298 3.35771 6.85093 3.29109C7.17098 3.09259 7.48519 2.88322 7.79357 2.66298C7.84584 2.62504 7.95319 2.56512 8.11562 2.48322C8.2093 2.43649 8.31565 2.37055 8.43466 2.28542C8.64896 2.13227 9.05505 1.92822 9.65291 1.67327C9.78017 1.61914 9.91526 1.52128 10.0407 1.47478C10.8977 1.15621 11.6479 0.821682 12.6105 0.589872C12.6217 0.587559 12.8561 0.523013 13.3137 0.396234C13.5497 0.330994 13.7885 0.286807 14.0302 0.263672ZM16.7817 3.00563C16.7813 3.00128 16.7761 2.99755 16.7664 2.99465C16.7567 2.99176 16.7428 2.98976 16.7253 2.98876C16.7078 2.98777 16.6871 2.9878 16.6645 2.98885C16.6418 2.98991 16.6177 2.99197 16.5933 2.99491C16.569 2.99785 16.545 3.00163 16.5226 3.00601C16.5003 3.0104 16.4801 3.01531 16.4631 3.02047C16.4462 3.02563 16.4329 3.03093 16.424 3.03608C16.415 3.04122 16.4106 3.04611 16.411 3.05046C16.4114 3.05481 16.4166 3.05854 16.4263 3.06144C16.4359 3.06433 16.4499 3.06633 16.4674 3.06733C16.4849 3.06832 16.5056 3.06829 16.5282 3.06723C16.5509 3.06618 16.575 3.06412 16.5994 3.06118C16.6237 3.05823 16.6477 3.05446 16.6701 3.05008C16.6924 3.04569 16.7126 3.04078 16.7295 3.03562C16.7465 3.03046 16.7598 3.02516 16.7687 3.02001C16.7777 3.01487 16.7821 3.00998 16.7817 3.00563Z" fill="white"/>
<path d="M25.6076 9.23142C25.6397 9.29805 25.6902 9.35195 25.759 9.39313C25.7823 9.54443 25.8144 9.69342 25.8555 9.84009C25.8711 9.89562 25.9043 9.91921 25.9483 9.9324L25.9972 10.1004L25.9616 10.0434C25.9479 10.0212 25.9411 10.0238 25.9411 10.0511C25.9411 10.0733 25.9437 10.0899 25.9489 10.1011C25.9522 10.108 25.9542 10.1075 25.955 10.0997C25.9574 10.0802 25.9493 10.0592 25.9308 10.0365C25.9281 10.0333 25.9247 10.0311 25.9209 10.0302C25.9171 10.0293 25.9131 10.0297 25.9095 10.0315C25.9059 10.0332 25.9029 10.0361 25.9008 10.0399C25.8987 10.0436 25.8976 10.048 25.8977 10.0525C25.9025 10.3808 25.8555 10.6223 26.002 10.9582C26.0221 11.0035 26.0211 11.1039 25.999 11.2594C25.9942 11.3071 25.9817 11.3492 25.9616 11.3857C25.927 11.45 25.9083 11.4875 25.9055 11.4982C25.8866 11.5685 25.8848 11.6395 25.9001 11.7112C25.8896 12.2146 25.8283 12.7009 25.7161 13.1701C25.682 13.3131 25.5575 13.7531 25.3428 14.4902C25.0847 15.3758 24.7817 16.1441 24.434 16.7951C24.2778 17.088 24.1397 17.3899 24.0027 17.6245C23.6379 18.2498 23.2314 18.9223 22.7682 19.4554C22.6916 19.5435 22.644 19.649 22.5692 19.7337C22.1784 20.1758 21.7767 20.6463 21.3727 21.0308C20.6807 21.6902 20.0048 22.2248 19.345 22.6348C18.3688 23.2423 17.4284 23.6925 16.5238 23.9854C16.3549 24.04 15.9528 24.1385 15.3176 24.281C15.2661 24.2926 15.1734 24.3259 15.0396 24.381C14.9603 24.3782 14.8807 24.3949 14.8007 24.431C13.8358 24.4818 12.8071 24.4939 11.7147 24.467C11.4119 24.4596 11.1259 24.405 10.8565 24.3033C10.8393 24.2965 10.8248 24.2833 10.8155 24.2658C10.7524 24.151 10.6601 24.0876 10.5387 24.0756C10.5153 24.0733 10.4948 24.0629 10.4771 24.0444C10.3191 23.8764 10.1436 23.7358 9.95064 23.6224C9.93105 23.6107 9.91522 23.5922 9.90541 23.5696C9.84108 23.4211 9.73715 23.3311 9.59361 23.2997C9.5723 23.295 9.55943 23.2807 9.55501 23.2566C9.52043 23.0716 9.41952 22.9709 9.25226 22.9547C9.24251 22.9538 9.23343 22.9487 9.22692 22.9404C9.2204 22.9322 9.21695 22.9214 9.21728 22.9103C9.22371 22.7164 9.14149 22.6142 8.97061 22.6035C8.9485 22.6022 8.93483 22.5892 8.9296 22.5647C8.86507 22.2468 8.60091 22.0893 8.5002 21.8824C8.43466 21.7487 8.3651 21.6583 8.29153 21.6111C8.2744 21.6003 8.26096 21.5826 8.25353 21.5611C8.20106 21.4077 8.23544 21.1717 8.0515 21.1467C8.04273 21.1456 8.03464 21.1406 8.02875 21.1328C8.02286 21.125 8.01958 21.1149 8.01953 21.1044L8.02074 20.6949C8.02074 20.6783 8.02616 20.6644 8.03702 20.6533L8.48693 20.2112C8.49123 20.2067 8.4967 20.2038 8.50261 20.2028C8.63529 20.1806 8.75209 20.126 8.85301 20.0391C8.95875 19.9484 9.03776 19.8889 9.09002 19.8607C9.18129 19.8112 9.27176 19.7603 9.36142 19.708C9.44887 19.6566 9.52667 19.5414 9.631 19.4921C9.78298 19.42 9.91566 19.3179 10.0562 19.2215C10.134 19.168 10.3439 19.0889 10.4512 18.9695C10.5075 18.9071 10.558 18.8633 10.6026 18.8384C10.9451 18.6473 11.2787 18.4372 11.6031 18.2082C11.7316 18.1172 11.9216 18.0402 12.0591 17.909C12.1049 17.8655 12.1523 17.8269 12.2014 17.7931C12.272 17.7439 12.3214 17.6883 12.401 17.6543C12.5015 17.6118 12.6189 17.5384 12.7532 17.4343C12.9004 17.3212 13.3045 17.1157 13.521 17.1706C13.6772 17.2108 13.8689 17.2441 13.9256 17.4433C13.9292 17.4556 13.935 17.4668 13.9426 17.4762C13.9502 17.4857 13.9594 17.4931 13.9697 17.4982C14.1224 17.5727 14.2107 17.7068 14.2344 17.9007C14.2361 17.9136 14.2407 17.9258 14.2478 17.936C14.2549 17.9462 14.2642 17.9542 14.2748 17.959L14.4274 18.0284C14.4361 18.0324 14.4437 18.0389 14.4495 18.0471C14.4553 18.0554 14.4591 18.0652 14.4606 18.0756C14.4855 18.2422 14.5627 18.3629 14.6922 18.4379C14.7111 18.4485 14.7251 18.465 14.7344 18.4872C14.7903 18.6218 14.8655 18.738 14.9599 18.8356C15.1047 18.9862 15.136 19.0945 15.1939 19.2902C15.202 19.317 15.2185 19.3309 15.2434 19.3318C15.4336 19.3378 15.5106 19.4595 15.4744 19.6969C15.4731 19.7046 15.4746 19.7126 15.4784 19.7191C15.4823 19.7256 15.4882 19.7301 15.4949 19.7316C15.6837 19.7732 15.8489 19.8753 16.0371 19.8343C16.1464 19.8107 16.2638 19.7781 16.3893 19.7364C16.4017 19.7322 16.4132 19.7247 16.4226 19.7145C16.4321 19.7042 16.4394 19.6915 16.4438 19.6774C16.4483 19.6634 16.4498 19.6482 16.4483 19.6333C16.4468 19.6183 16.4423 19.604 16.4351 19.5914C16.4166 19.559 16.412 19.525 16.4212 19.4894C16.4239 19.479 16.43 19.4702 16.4382 19.4648C16.4465 19.4595 16.4562 19.4581 16.4653 19.4609C16.8205 19.5692 16.6776 19.1319 16.9049 19.1361C16.9258 19.1366 16.9441 19.1289 16.9598 19.1132C17.122 18.9543 17.2318 18.8127 17.432 18.6766C17.5273 18.6123 17.6077 18.5286 17.6733 18.4254C17.6877 18.4027 17.7056 18.3847 17.7269 18.3713L17.8976 18.2623C17.9169 18.2498 17.9294 18.2315 17.935 18.2075C17.9989 17.9236 18.3113 18.1193 18.3397 17.7314C18.3406 17.7203 18.3446 17.71 18.3512 17.7021C18.3578 17.6941 18.3665 17.689 18.3759 17.6876C18.4748 17.6733 18.5355 17.6539 18.558 17.6293C18.8471 17.3129 19.1547 17.0234 19.4807 16.7611C19.4976 16.7477 19.5095 16.7299 19.5163 16.7076C19.5857 16.4807 19.8143 16.6188 19.8933 16.2954C19.8962 16.2837 19.9018 16.2732 19.9096 16.2651C19.9174 16.257 19.927 16.2516 19.9373 16.2496C20.0935 16.2197 20.2232 16.1462 20.2587 15.9484C20.2628 15.9252 20.2746 15.9107 20.2943 15.9046C20.4137 15.8676 20.5074 15.7897 20.5754 15.6707C20.5854 15.6536 20.5987 15.6416 20.6152 15.6347L20.6658 15.6131C20.6831 15.6055 20.698 15.5919 20.7086 15.5743C20.7758 15.4614 20.852 15.3582 20.9372 15.2647C21.0084 15.1875 21.0472 15.1141 21.0536 15.0447C21.0777 14.79 20.851 14.461 20.7267 14.2813C20.7232 14.2758 20.7207 14.2694 20.7195 14.2625L20.7026 14.1355C20.699 14.1105 20.6865 14.096 20.6652 14.0918C20.4992 14.0576 20.4115 13.9407 20.4023 13.7413C20.4017 13.7293 20.3977 13.7178 20.3908 13.7088C20.3838 13.6999 20.3745 13.6939 20.3643 13.692C20.2155 13.6647 20.1456 13.5592 20.1544 13.3755C20.1553 13.3576 20.1527 13.3396 20.1468 13.323C20.1408 13.3063 20.1317 13.2914 20.1201 13.2793C20.1085 13.2672 20.0947 13.2582 20.0796 13.253C20.0646 13.2478 20.0487 13.2465 20.0332 13.2492C19.9097 13.2714 19.8561 13.2078 19.8722 13.0584C19.8733 13.0498 19.8723 13.0408 19.8691 13.0327C19.8193 12.8939 19.7401 12.8224 19.6315 12.8182C19.6122 12.8178 19.6014 12.8064 19.599 12.7842C19.5841 12.6371 19.5238 12.5258 19.418 12.4504C19.4228 12.3801 19.4021 12.338 19.3559 12.3241C19.0381 12.0548 19.1062 11.4107 19.2672 11.081C19.3547 10.902 19.529 10.7659 19.6128 10.5258C19.6206 10.5047 19.6345 10.4873 19.652 10.4765C19.7286 10.4307 19.7714 10.4023 19.8149 10.3065C19.8623 10.2001 19.9401 10.0839 20.0483 9.95808C20.1709 9.81603 20.344 9.53795 20.5675 9.12384C20.5786 9.10341 20.5944 9.08684 20.6134 9.07595C20.7476 8.99822 20.8188 8.87052 20.8268 8.69284C20.8272 8.68198 20.83 8.6714 20.8348 8.66207C20.8397 8.65273 20.8465 8.64494 20.8546 8.6394L21.006 8.53807C21.0245 8.52558 21.0373 8.50776 21.0446 8.48463C21.0751 8.387 21.1453 8.27803 21.255 8.15773C21.333 8.07213 21.4269 7.89978 21.5367 7.64067C21.5459 7.61939 21.561 7.60689 21.5819 7.60319C21.743 7.57404 21.7653 7.41858 21.793 7.26589C21.7951 7.25502 21.7994 7.2449 21.8056 7.23643C21.8118 7.22796 21.8197 7.22139 21.8286 7.21731C21.948 7.16525 21.9902 7.11181 22.0252 6.95982C22.0662 6.78353 22.2152 6.69608 22.3177 6.56629C22.5855 6.22899 22.9582 6.2623 23.2519 6.51493C23.3842 6.62876 23.4859 6.71112 23.5571 6.76201C23.7026 6.86658 23.8351 6.98989 23.9545 7.13194C24.0184 7.20828 24.0691 7.22702 24.1541 7.25617C24.1637 7.25951 24.1722 7.26577 24.179 7.27431C24.1858 7.28285 24.1905 7.29336 24.1927 7.30476C24.2249 7.47688 24.3164 7.56271 24.4671 7.56224C24.476 7.5623 24.4846 7.56598 24.4912 7.57261C24.4978 7.57925 24.5022 7.58838 24.5033 7.59834C24.5218 7.78434 24.6111 7.89099 24.7711 7.91829C24.7801 7.91999 24.7887 7.92432 24.7958 7.93088C24.803 7.93744 24.8086 7.94601 24.8121 7.95577L24.9002 8.20632C24.9043 8.21819 24.9107 8.22881 24.919 8.23735C24.9272 8.2459 24.9371 8.25214 24.9478 8.25559L25.0781 8.29793C25.0882 8.30126 25.0973 8.30778 25.1044 8.31674C25.1114 8.32571 25.1161 8.33675 25.1179 8.3486C25.1388 8.48694 25.1778 8.57578 25.2349 8.61511C25.4466 8.76155 25.4978 9.00308 25.6076 9.23142Z" fill="white"/>
<path d="M71.1325 15.582H68.4904C68.3342 14.8221 68.0607 14.1545 67.6701 13.5792C67.2866 13.0039 66.8178 12.521 66.2639 12.1303C65.717 11.7326 65.1097 11.4343 64.4421 11.2354C63.7745 11.0366 63.0785 10.9371 62.354 10.9371C61.033 10.9371 59.8363 11.271 58.7638 11.9386C57.6985 12.6062 56.8498 13.5898 56.2177 14.8896C55.5927 16.1893 55.2802 17.7837 55.2802 19.6729C55.2802 21.5621 55.5927 23.1566 56.2177 24.4563C56.8498 25.756 57.6985 26.7397 58.7638 27.4073C59.8363 28.0749 61.033 28.4087 62.354 28.4087C63.0785 28.4087 63.7745 28.3093 64.4421 28.1104C65.1097 27.9116 65.717 27.6168 66.2639 27.2262C66.8178 26.8285 67.2866 26.342 67.6701 25.7667C68.0607 25.1843 68.3342 24.5167 68.4904 23.7638H71.1325C70.9336 24.8789 70.5714 25.8768 70.0458 26.7575C69.5202 27.6381 68.8668 28.3874 68.0856 29.0053C67.3043 29.6161 66.4272 30.0813 65.4542 30.4009C64.4883 30.7205 63.4549 30.8803 62.354 30.8803C60.4933 30.8803 58.8384 30.4258 57.3896 29.5167C55.9407 28.6076 54.8008 27.315 53.9698 25.6388C53.1388 23.9627 52.7234 21.9741 52.7234 19.6729C52.7234 17.3718 53.1388 15.3832 53.9698 13.707C54.8008 12.0309 55.9407 10.7383 57.3896 9.82919C58.8384 8.9201 60.4933 8.46555 62.354 8.46555C63.4549 8.46555 64.4883 8.62535 65.4542 8.94496C66.4272 9.26456 67.3043 9.73331 68.0856 10.3512C68.8668 10.962 69.5202 11.7077 70.0458 12.5884C70.5714 13.462 70.9336 14.4599 71.1325 15.582ZM75.4018 30.582V8.76385H78.0439V28.2383H88.1859V30.582H75.4018ZM109.836 19.6729C109.836 21.9741 109.421 23.9627 108.59 25.6388C107.759 27.315 106.619 28.6076 105.17 29.5167C103.721 30.4258 102.066 30.8803 100.206 30.8803C98.3448 30.8803 96.69 30.4258 95.2411 29.5167C93.7923 28.6076 92.6523 27.315 91.8214 25.6388C90.9904 23.9627 90.5749 21.9741 90.5749 19.6729C90.5749 17.3718 90.9904 15.3832 91.8214 13.707C92.6523 12.0309 93.7923 10.7383 95.2411 9.82919C96.69 8.9201 98.3448 8.46555 100.206 8.46555C102.066 8.46555 103.721 8.9201 105.17 9.82919C106.619 10.7383 107.759 12.0309 108.59 13.707C109.421 15.3832 109.836 17.3718 109.836 19.6729ZM107.279 19.6729C107.279 17.7837 106.963 16.1893 106.331 14.8896C105.706 13.5898 104.858 12.6062 103.785 11.9386C102.72 11.271 101.527 10.9371 100.206 10.9371C98.8846 10.9371 97.6879 11.271 96.6154 11.9386C95.5501 12.6062 94.7013 13.5898 94.0692 14.8896C93.4442 16.1893 93.1317 17.7837 93.1317 19.6729C93.1317 21.5621 93.4442 23.1566 94.0692 24.4563C94.7013 25.756 95.5501 26.7397 96.6154 27.4073C97.6879 28.0749 98.8846 28.4087 100.206 28.4087C101.527 28.4087 102.72 28.0749 103.785 27.4073C104.858 26.7397 105.706 25.756 106.331 24.4563C106.963 23.1566 107.279 21.5621 107.279 19.6729ZM128.597 8.76385H131.239V23.2099C131.239 24.7013 130.887 26.033 130.184 27.2049C129.488 28.3697 128.505 29.2894 127.233 29.9641C125.962 30.6317 124.471 30.9656 122.759 30.9656C121.047 30.9656 119.556 30.6317 118.284 29.9641C117.013 29.2894 116.026 28.3697 115.323 27.2049C114.627 26.033 114.279 24.7013 114.279 23.2099V8.76385H116.921V22.9968C116.921 24.0621 117.155 25.0103 117.624 25.8413C118.093 26.6651 118.76 27.315 119.627 27.7908C120.5 28.2596 121.544 28.494 122.759 28.494C123.973 28.494 125.017 28.2596 125.891 27.7908C126.765 27.315 127.432 26.6651 127.894 25.8413C128.363 25.0103 128.597 24.0621 128.597 22.9968V8.76385ZM143.248 30.582H136.515V8.76385H143.546C145.663 8.76385 147.474 9.20064 148.98 10.0742C150.485 10.9407 151.639 12.1871 152.442 13.8136C153.244 15.4329 153.646 17.3718 153.646 19.6303C153.646 21.9031 153.241 23.8597 152.431 25.5004C151.622 27.1339 150.443 28.391 148.894 29.2717C147.346 30.1452 145.464 30.582 143.248 30.582ZM139.157 28.2383H143.078C144.882 28.2383 146.377 27.8903 147.563 27.1942C148.749 26.4982 149.633 25.5075 150.215 24.2219C150.798 22.9364 151.089 21.4059 151.089 19.6303C151.089 17.869 150.801 16.3526 150.226 15.0813C149.651 13.8029 148.791 12.8228 147.648 12.141C146.504 11.4521 145.08 11.1076 143.376 11.1076H139.157V28.2383ZM170.009 14.2184C169.882 13.1388 169.363 12.3008 168.454 11.7042C167.545 11.1076 166.43 10.8093 165.109 10.8093C164.143 10.8093 163.298 10.9656 162.573 11.2781C161.856 11.5906 161.295 12.0202 160.89 12.5671C160.492 13.114 160.294 13.7354 160.294 14.4315C160.294 15.0138 160.432 15.5146 160.709 15.9336C160.993 16.3455 161.355 16.69 161.796 16.967C162.236 17.2369 162.698 17.4606 163.181 17.6381C163.664 17.8086 164.107 17.9471 164.512 18.0536L166.728 18.6502C167.296 18.7994 167.928 19.0053 168.624 19.2681C169.328 19.5309 169.999 19.8896 170.638 20.3441C171.284 20.7915 171.817 21.3668 172.236 22.07C172.655 22.7731 172.865 23.636 172.865 24.6587C172.865 25.8377 172.556 26.9031 171.938 27.8548C171.327 28.8065 170.432 29.5629 169.253 30.1239C168.081 30.685 166.657 30.9656 164.981 30.9656C163.419 30.9656 162.066 30.7134 160.922 30.2092C159.786 29.7049 158.891 29.0018 158.237 28.0998C157.591 27.1978 157.225 26.1502 157.14 24.957H159.867C159.938 25.7809 160.215 26.4627 160.698 27.0025C161.188 27.5352 161.806 27.9329 162.552 28.1957C163.305 28.4513 164.115 28.5792 164.981 28.5792C165.99 28.5792 166.895 28.4158 167.698 28.0891C168.5 27.7553 169.136 27.2937 169.605 26.7042C170.073 26.1076 170.308 25.4116 170.308 24.6161C170.308 23.8917 170.105 23.3022 169.7 22.8477C169.296 22.3931 168.763 22.0238 168.102 21.7397C167.442 21.4556 166.728 21.207 165.961 20.994L163.276 20.2269C161.572 19.7369 160.222 19.0373 159.228 18.1282C158.234 17.2191 157.737 16.0295 157.737 14.5593C157.737 13.3377 158.067 12.2724 158.727 11.3633C159.395 10.4471 160.29 9.73686 161.412 9.2326C162.541 8.72124 163.802 8.46555 165.194 8.46555C166.6 8.46555 167.85 8.71768 168.944 9.22195C170.038 9.7191 170.904 10.4009 171.544 11.2674C172.19 12.1339 172.531 13.1175 172.566 14.2184H170.009ZM177.208 30.582V8.76385H179.85V18.4798H191.484V8.76385H194.126V30.582H191.484V20.8235H179.85V30.582H177.208ZM217.825 19.6729C217.825 21.9741 217.409 23.9627 216.578 25.6388C215.747 27.315 214.607 28.6076 213.158 29.5167C211.71 30.4258 210.055 30.8803 208.194 30.8803C206.333 30.8803 204.678 30.4258 203.229 29.5167C201.781 28.6076 200.641 27.315 199.81 25.6388C198.979 23.9627 198.563 21.9741 198.563 19.6729C198.563 17.3718 198.979 15.3832 199.81 13.707C200.641 12.0309 201.781 10.7383 203.229 9.82919C204.678 8.9201 206.333 8.46555 208.194 8.46555C210.055 8.46555 211.71 8.9201 213.158 9.82919C214.607 10.7383 215.747 12.0309 216.578 13.707C217.409 15.3832 217.825 17.3718 217.825 19.6729ZM215.268 19.6729C215.268 17.7837 214.952 16.1893 214.32 14.8896C213.695 13.5898 212.846 12.6062 211.773 11.9386C210.708 11.271 209.515 10.9371 208.194 10.9371C206.873 10.9371 205.676 11.271 204.604 11.9386C203.538 12.6062 202.69 13.5898 202.058 14.8896C201.433 16.1893 201.12 17.7837 201.12 19.6729C201.12 21.5621 201.433 23.1566 202.058 24.4563C202.69 25.756 203.538 26.7397 204.604 27.4073C205.676 28.0749 206.873 28.4087 208.194 28.4087C209.515 28.4087 210.708 28.0749 211.773 27.4073C212.846 26.7397 213.695 25.756 214.32 24.4563C214.952 23.1566 215.268 21.5621 215.268 19.6729ZM222.267 30.582V8.76385H229.639C231.351 8.76385 232.75 9.0728 233.837 9.6907C234.93 10.3015 235.74 11.1289 236.266 12.1729C236.791 13.217 237.054 14.3817 237.054 15.6673C237.054 16.9528 236.791 18.1211 236.266 19.1722C235.747 20.2234 234.945 21.0614 233.858 21.6864C232.771 22.3043 231.379 22.6133 229.682 22.6133H224.398V20.2695H229.597C230.768 20.2695 231.71 20.0671 232.42 19.6623C233.13 19.2575 233.645 18.7106 233.964 18.0217C234.291 17.3256 234.455 16.5408 234.455 15.6673C234.455 14.7937 234.291 14.0124 233.964 13.3235C233.645 12.6346 233.126 12.0948 232.409 11.7042C231.692 11.3065 230.74 11.1076 229.554 11.1076H224.909V30.582H222.267ZM241.31 30.582V8.76385H254.478V11.1076H243.952V18.4798H253.796V20.8235H243.952V28.2383H254.648V30.582H241.31Z" fill="white"/>
</svg>
