<svg width="258" height="54" viewBox="0 0 258 54" fill="none" xmlns="http://www.w3.org/2000/svg">
<path d="M53.7046 26.5811C53.7046 33.6093 50.9091 40.3497 45.933 45.3194C40.9569 50.2891 34.2079 53.0811 27.1707 53.0811C20.1334 53.0811 13.3844 50.2891 8.40833 45.3194C3.43225 40.3497 0.636719 33.6093 0.636719 26.5811C0.636719 19.5528 3.43225 12.8124 8.40833 7.84272C13.3844 2.87301 20.1334 0.0810547 27.1707 0.0810547C34.2079 0.0810547 40.9569 2.87301 45.933 7.84272C50.9091 12.8124 53.7046 19.5528 53.7046 26.5811ZM51.9731 26.5824C51.9731 20.0125 49.3599 13.7116 44.7082 9.06591C40.0566 4.42024 33.7477 1.81033 27.1693 1.81033C20.5909 1.81033 14.282 4.42024 9.63033 9.06591C4.97871 13.7116 2.36546 20.0125 2.36546 26.5824C2.36546 33.1524 4.97871 39.4533 9.63033 44.0989C14.282 48.7446 20.5909 51.3545 27.1693 51.3545C33.7477 51.3545 40.0566 48.7446 44.7082 44.0989C49.3599 39.4533 51.9731 33.1524 51.9731 26.5824Z" fill="white"/>
<path d="M41.6934 18.9687L44.2439 20.3021C44.3219 20.3425 44.3214 20.3832 44.2425 20.4245L41.8476 21.6864C41.8291 21.696 41.8134 21.7104 41.8021 21.7282C41.7907 21.7461 41.7841 21.7667 41.7829 21.7881C41.7095 22.9217 41.693 24.0562 41.7333 25.1917C41.7337 25.2128 41.7397 25.2334 41.7506 25.2513C41.7615 25.2692 41.7769 25.2837 41.7953 25.2934L44.1764 26.5388C44.2939 26.6002 44.2948 26.6616 44.1792 26.723L41.765 28C41.7448 28.0106 41.7276 28.0262 41.7151 28.0454C41.7026 28.0647 41.6951 28.0869 41.6934 28.11C41.3452 32.7672 36.51 33.6786 32.7896 33.9631C32.752 33.966 32.7169 33.982 32.6913 34.0081C32.6658 34.0341 32.6517 34.0681 32.652 34.1034L32.6602 34.8649C32.6602 34.8852 32.6665 34.9054 32.6784 34.9233C32.6903 34.9413 32.7074 34.9563 32.7277 34.9666L35.0304 36.1735C35.1405 36.2313 35.1405 36.2895 35.0304 36.3481L32.7098 37.5812C32.6919 37.5907 32.6769 37.6052 32.6665 37.6231C32.656 37.6411 32.6505 37.6617 32.6506 37.6829L32.6423 41.1181C32.6424 41.1396 32.6483 41.1607 32.6594 41.1791C32.6706 41.1975 32.6866 41.2125 32.7056 41.2225L35.0483 42.4473C35.1373 42.4941 35.1373 42.5413 35.0483 42.5889L32.7125 43.8357C32.6938 43.8457 32.6781 43.8604 32.6672 43.8783C32.6563 43.8962 32.6506 43.9167 32.6506 43.9374L32.6341 45.5361C32.6341 45.5573 32.6291 45.5783 32.6195 45.5971C32.61 45.616 32.5961 45.6323 32.579 45.6447C29.3252 47.9939 24.8726 48.0915 21.6065 45.6529C21.5821 45.6346 21.5624 45.6108 21.5488 45.5834C21.5352 45.5559 21.5281 45.5257 21.528 45.4949L21.5198 41.9098C21.5198 41.889 21.5142 41.8686 21.5035 41.8506C21.4929 41.8327 21.4775 41.818 21.4592 41.8081L19.0037 40.5077C18.9267 40.4674 18.9262 40.4271 19.0024 40.3868L21.4661 39.0781C21.4848 39.0682 21.5004 39.0533 21.5113 39.0351C21.5223 39.017 21.528 38.9962 21.528 38.975V38.153C21.528 38.1395 21.5253 38.1262 21.5201 38.1138C21.5149 38.1013 21.5073 38.09 21.4977 38.0806C21.4881 38.0711 21.4767 38.0637 21.4642 38.0586C21.4517 38.0536 21.4383 38.0511 21.4248 38.0513C18.0059 38.0911 13.845 37.2196 12.2567 33.7253C12.238 33.6835 12.2065 33.6496 12.1672 33.6291L9.31811 32.1143C9.2392 32.0721 9.23874 32.0304 9.31674 31.9892L11.6511 30.7561C11.669 30.7466 11.684 30.7321 11.6944 30.7142C11.7048 30.6962 11.7103 30.6756 11.7103 30.6544L11.7268 26.8C11.7268 26.7636 11.7171 26.7281 11.6986 26.6973C11.6802 26.6665 11.6537 26.6416 11.6222 26.6254L9.27682 25.4047C9.22543 25.3782 9.22543 25.3516 9.27682 25.325L11.8231 23.9861C11.8421 23.9761 11.8581 23.9614 11.8697 23.9436C11.8813 23.9258 11.888 23.9054 11.8892 23.8844C12.0709 21.2011 12.9876 18.3942 16.2978 18.6017C19.9328 18.8299 20.1723 22.3022 20.354 25.0968C20.3553 25.1195 20.3617 25.141 20.3725 25.1593C20.3834 25.1776 20.3983 25.1921 20.4159 25.2013L21.2954 25.6797C21.3053 25.6849 21.3163 25.6874 21.3275 25.6869C21.3386 25.6865 21.3495 25.6831 21.359 25.6772C21.3686 25.6712 21.3765 25.6629 21.382 25.653C21.3875 25.6431 21.3904 25.6319 21.3904 25.6206V20.8355C21.3904 20.814 21.3847 20.793 21.3741 20.7748C21.3634 20.7567 21.3481 20.742 21.3298 20.7324L19.0216 19.5282C18.9179 19.4742 18.917 19.4205 19.0189 19.3674L21.3271 18.1467C21.3462 18.1367 21.3622 18.122 21.3734 18.104C21.3845 18.0861 21.3904 18.0657 21.3904 18.045L21.3821 12.8709C21.3822 12.8498 21.3767 12.8291 21.3663 12.8112C21.3558 12.7933 21.3409 12.7787 21.3229 12.7692L19.0106 11.5417C18.9225 11.494 18.9225 11.4473 19.0106 11.4014L21.3023 10.189C21.3214 10.1793 21.3378 10.165 21.35 10.1472C21.3623 10.1295 21.37 10.1089 21.3725 10.0873C21.7937 6.65074 24.563 5.21564 27.8222 5.66376C31.3871 6.1545 32.6492 9.20754 32.6423 12.42C32.6419 12.4606 32.6528 12.5006 32.6739 12.5357C32.695 12.5709 32.7255 12.5998 32.7621 12.6194L35.0648 13.8373C35.1391 13.8767 35.1391 13.9161 35.0648 13.9555L32.7318 15.1748C32.7048 15.1889 32.6822 15.2102 32.6664 15.2364C32.6506 15.2625 32.6423 15.2926 32.6423 15.3232L32.6506 21.0664C32.6506 21.0902 32.6561 21.1129 32.6664 21.1319C32.6766 21.1509 32.6912 21.1654 32.7084 21.1736L33.0084 21.3166C33.1057 21.3624 33.1498 21.3294 33.1406 21.2176C32.9135 18.4161 33.4916 14.8627 36.9779 14.4779C40.2579 14.1163 41.4154 15.8965 41.6274 18.867C41.6291 18.8886 41.6361 18.9092 41.6476 18.927C41.6592 18.9448 41.6749 18.9592 41.6934 18.9687ZM31.0154 36.4925L31.3086 36.3426C31.4903 36.2501 31.4875 36.19 31.3004 36.1625C31.0187 36.1213 30.8874 35.9728 30.9067 35.7172C30.9865 34.6656 30.9218 33.515 30.9218 32.3865C30.9218 32.3721 30.9247 32.3578 30.9304 32.3446C30.936 32.3313 30.9442 32.3193 30.9546 32.3092C30.9649 32.2991 30.9773 32.2911 30.9908 32.2857C31.0043 32.2803 31.0188 32.2777 31.0333 32.2779C33.3085 32.3012 38.5966 31.9218 39.6536 29.3843C39.9243 28.7336 40.0537 27.957 40.0418 27.0543C40.0413 27.0299 40.0459 27.0066 40.0548 26.987C40.0638 26.9673 40.0769 26.9521 40.0927 26.9429L40.4919 26.7148C40.5033 26.7084 40.513 26.6992 40.5201 26.6882C40.5272 26.6771 40.5314 26.6646 40.5322 26.6518C40.533 26.6391 40.5305 26.6265 40.5249 26.6154C40.5193 26.6042 40.5107 26.5949 40.5001 26.5883L40.0734 26.3285C40.0553 26.3176 40.0403 26.3023 40.0297 26.284C40.0191 26.2658 40.0133 26.2451 40.0129 26.224C39.9578 24.4274 40.0886 22.6143 40.0115 20.8479C40.0087 20.7896 40.0241 20.7319 40.0557 20.6826C40.0872 20.6334 40.1333 20.5951 40.1877 20.5729C40.5464 20.4263 40.5575 20.2916 40.2207 20.1688C40.0546 20.1083 39.9716 19.9901 39.9716 19.8141C39.9743 19.0732 39.7995 17.2422 39.2517 16.636C38.8016 16.137 37.7941 16.1384 37.1844 16.1989C34.3683 16.4807 34.8335 20.3379 34.8776 22.1757C34.8784 22.2216 34.8962 22.2645 34.9271 22.2953L35.0689 22.4369C35.0743 22.4424 35.0784 22.449 35.0809 22.4564C35.0834 22.4637 35.0842 22.4715 35.0833 22.4792C35.0824 22.487 35.0797 22.4945 35.0756 22.5012C35.0714 22.5079 35.0659 22.5137 35.0593 22.518C34.9381 22.5978 34.8895 22.7357 34.9134 22.9318C34.9528 23.2599 34.9092 23.8331 34.7826 24.6514C34.5789 25.9587 33.5342 26.4591 32.3271 26.1347C30.8737 25.7443 30.7691 24.2487 30.7842 22.9634C30.7846 22.9233 30.7971 22.8833 30.8203 22.8473C30.8435 22.8113 30.8767 22.7807 30.9163 22.7586L31.3472 22.5222C31.3541 22.5183 31.3599 22.5127 31.3639 22.5059C31.368 22.499 31.3702 22.4913 31.3704 22.4834C31.3705 22.4754 31.3686 22.4676 31.3647 22.4607C31.3609 22.4537 31.3553 22.4479 31.3485 22.4438L30.9218 22.1661C30.9039 22.1545 30.8894 22.1389 30.8797 22.121C30.87 22.1031 30.8656 22.0836 30.8668 22.0644C31.0664 19.5117 30.9191 16.8285 30.9301 14.2909C30.93 14.2408 30.9455 14.1919 30.9746 14.1506C31.0036 14.1093 31.0448 14.0777 31.0925 14.06C31.2962 13.9857 31.6032 13.9321 31.193 13.7562C30.9847 13.6673 30.8943 13.4725 30.9218 13.172C31.0044 12.2684 30.92 11.324 30.6686 10.3389C30.2034 8.50786 29.116 7.45077 27.1795 7.31331C24.907 7.1511 22.8769 8.29754 23.126 10.864C23.1824 11.4413 22.2465 11.3767 22.9801 11.6461C23.016 11.6593 23.0469 11.6833 23.0688 11.7147C23.0907 11.7462 23.1025 11.7836 23.1026 11.8221L23.1109 19.0663C23.1109 19.1186 23.0931 19.1693 23.0603 19.2103C23.0276 19.2512 22.9818 19.28 22.9306 19.2918C22.7324 19.3367 22.6521 19.3981 22.6897 19.476C22.6969 19.49 22.7109 19.5035 22.7303 19.5152C22.7497 19.5269 22.7741 19.5366 22.8012 19.5433C23.2017 19.6437 23.1095 19.9186 23.1122 20.2348C23.126 22.5927 23.1168 24.9502 23.0847 27.3072C23.0558 29.3307 22.4846 30.6613 20.1929 30.4853C18.8055 30.3781 18.6101 28.2062 18.6431 27.134C18.644 27.1113 18.65 27.0896 18.6606 27.0708C18.6712 27.0521 18.686 27.0369 18.7037 27.0268L19.2611 26.7134C19.2739 26.7061 19.2847 26.6956 19.2923 26.6831C19.3 26.6705 19.3042 26.6562 19.3046 26.6417C19.3051 26.6272 19.3016 26.613 19.2947 26.6005C19.2878 26.5879 19.2776 26.5776 19.2652 26.5704L18.672 26.2171C18.6499 26.2039 18.6318 26.1847 18.6195 26.1615C18.6071 26.1383 18.601 26.112 18.6018 26.0852C18.6445 24.4109 18.7216 20.4891 16.3418 20.3104C14.8071 20.1949 14.269 20.8712 13.9152 22.2706C13.695 23.1384 13.5688 24.0205 13.5367 24.9167C13.5303 25.0844 13.3982 25.193 13.1403 25.2425C13.0064 25.2691 12.9554 25.3163 12.9876 25.3841C12.9948 25.399 13.0085 25.4133 13.0274 25.4257C13.0463 25.4381 13.0699 25.4484 13.0963 25.4556C13.2403 25.4959 13.3546 25.5752 13.439 25.6934C13.4631 25.7262 13.4752 25.7709 13.4734 25.8199C13.3798 27.7645 13.3881 29.7082 13.4982 31.651C13.4994 31.6752 13.4951 31.6984 13.4858 31.718C13.4765 31.7375 13.4626 31.7525 13.4459 31.761L13.077 31.9424C12.9541 32.0029 12.9527 32.0712 13.0729 32.1473L13.6579 32.5157C13.6716 32.5242 13.6849 32.5388 13.6968 32.5582C13.7087 32.5777 13.7189 32.6016 13.7267 32.6284C14.4383 35.1165 17.7361 36.2491 20.0484 36.3179C21.0834 36.349 22.1189 36.3632 23.1549 36.3605C23.1733 36.3605 23.1909 36.3675 23.2041 36.3801C23.2172 36.3927 23.2247 36.4099 23.2251 36.4278L23.2471 39.9689C23.2471 40.0061 23.2348 40.0439 23.2115 40.0781C23.1882 40.1123 23.1548 40.1415 23.115 40.1627L22.7654 40.351C22.6094 40.4344 22.6213 40.5077 22.8012 40.571C23.3297 40.7538 23.2485 40.8376 23.2485 41.3889C23.2485 42.4629 23.2485 43.5218 23.2485 44.5656C23.2485 44.6075 23.2599 44.6485 23.2815 44.6842C23.3032 44.7198 23.3341 44.7487 23.371 44.7677C25.8668 46.0553 28.3595 46.041 30.8489 44.7251C30.8709 44.7135 30.8894 44.6958 30.9022 44.674C30.9151 44.6522 30.9219 44.6271 30.9218 44.6014L30.9287 42.9064C30.9291 42.8834 30.9345 42.8613 30.9444 42.8423C30.9543 42.8233 30.9683 42.808 30.9852 42.7978L31.3416 42.5848C31.3489 42.5805 31.3554 42.5746 31.3603 42.5678C31.3653 42.5609 31.3686 42.5533 31.3699 42.5456C31.3713 42.5379 31.3707 42.5305 31.3682 42.5239C31.3656 42.5172 31.3612 42.5117 31.3554 42.5078L30.9934 42.2645C30.974 42.2515 30.958 42.2357 30.947 42.2186C30.9359 42.2015 30.9301 42.1837 30.9301 42.1669L30.9218 36.634C30.9218 36.606 30.9306 36.5779 30.9471 36.5529C30.9636 36.5279 30.9872 36.507 31.0154 36.4925ZM32.9135 24.503C32.9307 24.5067 32.9484 24.5071 32.9655 24.5044C32.9826 24.5017 32.9987 24.4958 33.0129 24.4871C33.027 24.4785 33.0388 24.4672 33.0475 24.4541C33.0562 24.441 33.0617 24.4262 33.0635 24.4109L33.1599 23.6356C33.1718 23.5394 33.1355 23.5183 33.0511 23.5724L32.6451 23.8322C32.6267 23.8441 32.6114 23.8604 32.6004 23.8798C32.5894 23.8991 32.583 23.921 32.5818 23.9435C32.5643 24.2643 32.6749 24.4507 32.9135 24.503ZM20.6279 28.73C21.2995 28.9595 21.3298 28.0825 21.345 27.6839C21.3455 27.6757 21.344 27.6675 21.3406 27.6601C21.3372 27.6526 21.3321 27.6462 21.3257 27.6415C21.3192 27.6368 21.3118 27.6339 21.3041 27.6331C21.2964 27.6323 21.2886 27.6337 21.2816 27.6371L20.4833 28.0468C20.464 28.0571 20.4485 28.0734 20.4393 28.093C20.4301 28.1126 20.4277 28.1345 20.4324 28.1554L20.5398 28.6406C20.544 28.6602 20.5543 28.6788 20.5698 28.6945C20.5852 28.7102 20.6053 28.7224 20.6279 28.73Z" fill="white"/>
<path d="M86.9354 33.592C86.9186 33.5831 86.906 33.5679 86.9001 33.5495C86.8942 33.5311 86.8955 33.5109 86.9038 33.493L94.0926 17.9186C94.1029 17.8967 94.119 17.8783 94.1393 17.8654C94.1595 17.8525 94.183 17.8456 94.2069 17.8457H95.6631C95.6844 17.8457 95.7053 17.8518 95.7231 17.8632C95.741 17.8747 95.755 17.8911 95.7636 17.9103L102.801 33.3762C102.809 33.3942 102.811 33.4143 102.805 33.4325C102.799 33.4506 102.787 33.4654 102.771 33.4738L101.016 34.4044C101.008 34.4086 100.999 34.411 100.99 34.4116C100.981 34.4121 100.972 34.4107 100.963 34.4075C100.954 34.4042 100.946 34.3993 100.94 34.3928C100.933 34.3864 100.927 34.3786 100.924 34.3701L98.2947 28.4537C98.287 28.4365 98.2743 28.4219 98.2582 28.4117C98.2421 28.4014 98.2232 28.396 98.2039 28.3959H91.3633C91.3255 28.396 91.2887 28.4068 91.2572 28.427C91.2257 28.4473 91.2009 28.4761 91.1857 28.51L88.5609 34.3371C88.5549 34.351 88.5461 34.3636 88.5349 34.374C88.5238 34.3843 88.5107 34.3923 88.4963 34.3973C88.482 34.4023 88.4667 34.4044 88.4515 34.4032C88.4364 34.4021 88.4216 34.3978 88.4082 34.3907L86.9354 33.592ZM91.9716 26.7519C91.967 26.762 91.965 26.7731 91.9658 26.7841C91.9666 26.7952 91.9702 26.8059 91.9762 26.8152C91.9822 26.8246 91.9905 26.8322 92.0003 26.8375C92.0101 26.8427 92.0211 26.8455 92.0322 26.8454L97.4978 26.8536C97.5087 26.8536 97.5195 26.8509 97.5291 26.8457C97.5387 26.8405 97.5469 26.833 97.5529 26.8239C97.5589 26.8147 97.5626 26.8042 97.5635 26.7934C97.5645 26.7825 97.5627 26.7715 97.5584 26.7615L94.8359 20.5936C94.8307 20.5818 94.8223 20.5718 94.8115 20.5647C94.8007 20.5577 94.7882 20.554 94.7753 20.554C94.7624 20.554 94.7499 20.5577 94.7391 20.5647C94.7284 20.5718 94.7199 20.5818 94.7147 20.5936L91.9716 26.7519Z" fill="white"/>
<path d="M65.4736 25.2908C65.3203 25.3549 65.3263 25.398 65.4915 25.42C67.4459 25.6867 69.1637 26.8441 69.3288 28.9459C69.6564 33.1412 65.0359 34.1516 61.8564 34.1351C60.2066 34.1269 58.9247 34.0911 58.0108 34.0279C57.9923 34.0268 57.9749 34.0185 57.9623 34.0046C57.9498 33.9908 57.943 33.9725 57.9434 33.9536C58.0278 28.7026 58.0278 23.4511 57.9434 18.1991C57.9431 18.1797 57.9496 18.1609 57.9618 18.1463C57.974 18.1316 57.9909 18.122 58.0094 18.1194C58.3912 18.0616 58.7747 18.0277 59.1601 18.0176C61.7119 17.9489 66.8734 17.5626 67.7859 20.881C68.2924 22.723 67.1693 24.5815 65.4736 25.2908ZM59.946 20.6212C59.9056 24.5526 59.9116 28.4804 59.9639 32.4045C59.9642 32.4243 59.9719 32.4433 59.9854 32.4576C59.999 32.4719 60.0174 32.4804 60.0369 32.4814C62.2583 32.623 67.746 32.8086 67.2285 29.0572C66.9835 27.2716 65.2561 26.4537 63.61 26.5142C63.1521 26.5316 62.6786 26.5403 62.1895 26.5403C62.1696 26.5402 62.1505 26.5331 62.1356 26.5202C62.1206 26.5073 62.111 26.4895 62.1083 26.4702L61.9239 25.1877C61.9217 25.1721 61.923 25.1563 61.9275 25.1413C61.932 25.1263 61.9398 25.1124 61.9502 25.1005C61.9606 25.0887 61.9735 25.0792 61.988 25.0726C62.0024 25.0661 62.0181 25.0627 62.034 25.0626C63.3237 25.064 64.8157 24.6021 65.4736 23.4309C66.0737 22.3656 65.9278 21.0734 64.9134 20.3311C63.738 19.4706 61.4421 19.4954 60.0589 19.6177C60.0397 19.6193 60.0217 19.6276 60.0081 19.6412C59.9945 19.6548 59.9861 19.6728 59.9846 19.6919C59.9616 20.0008 59.9488 20.3105 59.946 20.6212Z" fill="white"/>
<path d="M107.32 20.9282L107.415 34.0325C107.415 34.0482 107.409 34.0632 107.398 34.0743C107.388 34.0854 107.373 34.0916 107.358 34.0916L105.641 34.0985C105.625 34.0987 105.61 34.0957 105.595 34.0898C105.581 34.0838 105.568 34.075 105.557 34.0639C105.546 34.0527 105.537 34.0395 105.531 34.0249C105.525 34.0103 105.522 33.9947 105.522 33.9789C105.576 29.088 105.575 24.0784 105.52 18.9501C105.519 18.9069 105.531 18.8645 105.554 18.8277C105.578 18.7909 105.611 18.7614 105.65 18.7426L107.228 17.9907C107.262 17.9738 107.302 17.9693 107.339 17.9778C107.377 17.9863 107.41 18.0073 107.434 18.0374L117.417 30.5726C117.495 30.6716 117.534 30.6583 117.533 30.5327L117.427 18.1639C117.426 18.1494 117.429 18.135 117.434 18.1215C117.44 18.1081 117.447 18.0959 117.457 18.0857C117.467 18.0754 117.479 18.0673 117.492 18.0619C117.505 18.0564 117.519 18.0537 117.533 18.0539L119.261 18.0731C119.279 18.0735 119.297 18.0813 119.309 18.0949C119.322 18.1086 119.329 18.1269 119.329 18.146C119.274 23.2 119.271 28.2545 119.321 33.3095C119.321 33.3314 119.315 33.3527 119.305 33.3709C119.294 33.3891 119.279 33.4035 119.261 33.4126L117.765 34.1425C117.749 34.1505 117.729 34.1518 117.71 34.1463C117.692 34.1408 117.674 34.1287 117.662 34.1122C114.317 29.6456 110.887 25.245 107.371 20.9104C107.337 20.8682 107.32 20.8742 107.32 20.9282Z" fill="white"/>
<path d="M79.6656 26.9191C79.6581 26.9238 79.6517 26.9302 79.6469 26.9376C79.6421 26.9451 79.639 26.9535 79.6378 26.9623C79.6367 26.9711 79.6374 26.98 79.6401 26.9885C79.6427 26.9969 79.6472 27.0047 79.6532 27.0112C81.4719 29.0768 83.3429 31.0939 85.2661 33.0623C85.2789 33.0755 85.2859 33.0932 85.2856 33.1117C85.2854 33.1302 85.2779 33.148 85.2648 33.1613C84.8243 33.5929 84.349 33.9819 83.8388 34.3283C83.8231 34.3389 83.8039 34.3434 83.785 34.3409C83.766 34.3383 83.7484 34.329 83.7356 34.3146L77.0367 26.7349C77.0211 26.7176 77.0102 26.6966 77.0048 26.6739C76.9994 26.6512 76.9998 26.6275 77.006 26.6048C77.0121 26.5821 77.0237 26.5611 77.0399 26.5438C77.0561 26.5265 77.0763 26.5133 77.0987 26.5054C78.9141 25.8648 80.6208 24.6854 80.5589 22.519C80.4749 19.5759 77.0835 19.5621 74.9983 19.6666C74.9804 19.6673 74.9634 19.675 74.9509 19.688C74.9383 19.701 74.9312 19.7185 74.9309 19.7367C74.8767 24.4324 74.8772 29.184 74.9322 33.9916C74.9324 34.0056 74.9298 34.0195 74.9247 34.0325C74.9195 34.0455 74.9118 34.0573 74.9021 34.0673C74.8924 34.0773 74.8808 34.0852 74.868 34.0906C74.8552 34.096 74.8415 34.0988 74.8276 34.0988L73.0122 34.0933C72.9943 34.0933 72.9771 34.0858 72.9645 34.0723C72.9518 34.0589 72.9447 34.0408 72.9447 34.0218L72.9434 18.1628C72.9433 18.1441 72.9504 18.1262 72.9632 18.1127C72.976 18.0991 72.9936 18.091 73.0122 18.0899C75.586 17.914 79.7207 17.6088 81.6586 19.7546C82.6923 20.8996 82.9208 22.6674 82.3317 24.1135C81.8761 25.2297 80.6993 26.2621 79.6656 26.9191Z" fill="white"/>
<path d="M127.027 34.1855C126.092 34.1883 125.156 34.1484 124.222 34.1278C124.188 34.1271 124.156 34.1133 124.133 34.0893C124.11 34.0654 124.097 34.0333 124.098 34C124.189 28.6518 124.194 23.3732 124.111 18.1643C124.111 18.1454 124.118 18.1271 124.13 18.1133C124.143 18.0995 124.16 18.0911 124.179 18.0901C129.119 17.7354 136.313 18.5877 137.424 24.6828C138.599 31.1394 132.381 34.1704 127.027 34.1855ZM126.132 19.7589C126.187 23.9845 126.074 28.2197 126.131 32.4508C126.131 32.4695 126.138 32.4875 126.151 32.501C126.164 32.5145 126.182 32.5226 126.201 32.5236C130.658 32.7875 136.427 30.4631 135.355 24.9247C134.551 20.772 129.8 19.5857 126.219 19.6681C126.207 19.6683 126.196 19.6708 126.185 19.6755C126.174 19.6801 126.165 19.6868 126.157 19.6953C126.149 19.7037 126.142 19.7136 126.138 19.7246C126.134 19.7355 126.132 19.7471 126.132 19.7589Z" fill="white"/>
<path d="M153.462 23.7823L156.73 23.8152C156.75 23.8152 156.769 23.8226 156.783 23.8357C156.798 23.8488 156.806 23.8666 156.806 23.8854L156.82 24.9122C156.82 24.9228 156.818 24.9333 156.814 24.9431C156.81 24.9529 156.803 24.9619 156.795 24.9694C156.787 24.977 156.778 24.983 156.768 24.9871C156.757 24.9912 156.746 24.9933 156.735 24.9933L153.492 25.0016C153.478 25.0015 153.464 25.0043 153.451 25.0097C153.438 25.0151 153.426 25.0231 153.416 25.033C153.407 25.043 153.399 25.0548 153.393 25.0678C153.388 25.0808 153.386 25.0948 153.386 25.1088L153.411 34.0067C153.411 34.019 153.408 34.0311 153.403 34.0425C153.399 34.0538 153.392 34.0641 153.383 34.0728C153.375 34.0815 153.364 34.0884 153.353 34.0931C153.341 34.0978 153.329 34.1002 153.317 34.1002H151.864C151.851 34.1002 151.838 34.0976 151.826 34.0927C151.814 34.0877 151.804 34.0804 151.794 34.0712C151.785 34.062 151.778 34.0511 151.773 34.0391C151.768 34.0271 151.766 34.0142 151.766 34.0012L151.802 25.1046C151.802 25.0746 151.789 25.0458 151.767 25.0245C151.746 25.0031 151.716 24.9909 151.685 24.9906L149.899 24.9713C149.88 24.9709 149.861 24.9631 149.848 24.9495C149.834 24.9359 149.827 24.9175 149.827 24.8985L149.809 23.8551C149.808 23.8467 149.81 23.8383 149.813 23.8305C149.817 23.8227 149.822 23.8156 149.828 23.8095C149.834 23.8035 149.842 23.7987 149.85 23.7955C149.858 23.7922 149.867 23.7905 149.876 23.7905L151.726 23.7823C151.735 23.7823 151.743 23.7805 151.752 23.7771C151.76 23.7737 151.767 23.7687 151.773 23.7625C151.779 23.7562 151.784 23.7487 151.787 23.7406C151.791 23.7324 151.792 23.7237 151.792 23.7149C151.736 20.5368 153.674 18.9161 156.799 19.2048C156.82 19.2068 156.84 19.2152 156.855 19.2286C156.871 19.2421 156.88 19.2598 156.883 19.279L157.043 20.4034C157.044 20.4147 157.044 20.4262 157.04 20.437C157.037 20.4479 157.031 20.458 157.023 20.4665C157.015 20.475 157.005 20.4817 156.995 20.4863C156.984 20.4908 156.972 20.493 156.96 20.4928C154.704 20.468 153.178 21.1334 153.387 23.7149C153.389 23.7331 153.397 23.75 153.411 23.7625C153.425 23.775 153.443 23.782 153.462 23.7823Z" fill="white"/>
<path d="M186.582 23.7809L186.581 19.2598C186.581 19.25 186.583 19.2404 186.587 19.2314C186.59 19.2224 186.596 19.2142 186.603 19.2073C186.61 19.2004 186.618 19.1949 186.627 19.1912C186.636 19.1875 186.646 19.1855 186.655 19.1855H188.098C188.127 19.1855 188.156 19.1974 188.177 19.2186C188.197 19.2397 188.209 19.2684 188.209 19.2983L188.208 34.1511C188.208 34.1826 188.196 34.2128 188.174 34.2352C188.152 34.2575 188.122 34.2703 188.091 34.2707C185.51 34.3119 183.296 34.2789 181.265 32.9235C178.953 31.3798 178.815 28.0161 180.561 26.0161C181.943 24.4297 184.45 23.8826 186.512 23.851C186.531 23.8507 186.549 23.8431 186.562 23.83C186.575 23.8169 186.582 23.7993 186.582 23.7809ZM181.451 30.8011C182.389 32.4905 184.755 32.9854 186.52 32.929C186.539 32.9287 186.557 32.921 186.57 32.9076C186.583 32.8943 186.591 32.8763 186.591 32.8576V25.3177C186.591 25.3078 186.589 25.298 186.585 25.2888C186.581 25.2796 186.575 25.2713 186.568 25.2643C186.561 25.2573 186.553 25.2517 186.544 25.2479C186.535 25.2441 186.525 25.2421 186.515 25.2421C185.152 25.2435 183.552 25.5336 182.479 26.3061C181.099 27.3027 180.609 29.2863 181.451 30.8011Z" fill="white"/>
<path d="M141.421 28.6782C141.456 29.985 141.943 31.0096 142.88 31.7519C144.347 32.9148 146.235 32.8227 147.991 32.7114C148 32.7109 148.008 32.7122 148.016 32.7154C148.024 32.7185 148.031 32.7234 148.036 32.7296C148.042 32.7358 148.046 32.7432 148.049 32.7512C148.051 32.7592 148.052 32.7677 148.051 32.776L147.887 33.9966C147.885 34.0162 147.876 34.0344 147.863 34.0484C147.849 34.0623 147.831 34.0712 147.812 34.0736C145.236 34.3719 142.175 33.9911 140.677 31.6873C138.759 28.7346 140.138 24.0966 143.912 23.5605C147.192 23.0959 148.766 25.5592 148.739 28.4858C148.738 28.5165 148.726 28.5459 148.704 28.5675C148.681 28.5891 148.652 28.6013 148.62 28.6012L141.489 28.6095C141.48 28.6095 141.471 28.6113 141.463 28.6148C141.454 28.6182 141.447 28.6233 141.44 28.6297C141.434 28.6361 141.429 28.6437 141.425 28.652C141.422 28.6604 141.42 28.6693 141.421 28.6782ZM147.133 27.316C146.468 23.687 142.359 24.0815 141.569 27.316C141.567 27.3259 141.567 27.3362 141.569 27.3461C141.571 27.356 141.576 27.3652 141.582 27.3732C141.589 27.3811 141.597 27.3875 141.606 27.3919C141.615 27.3963 141.625 27.3985 141.635 27.3984H147.065C147.075 27.3984 147.085 27.3962 147.094 27.3919C147.103 27.3875 147.111 27.3812 147.118 27.3733C147.124 27.3655 147.129 27.3562 147.131 27.3463C147.134 27.3364 147.134 27.3261 147.133 27.316Z" fill="white"/>
<path d="M159.141 28.7131C159.157 29.7304 159.482 30.5927 160.117 31.3002C161.567 32.9167 163.744 32.8356 165.705 32.7092C165.715 32.7087 165.725 32.7103 165.734 32.714C165.743 32.7178 165.751 32.7234 165.758 32.7307C165.764 32.7379 165.769 32.7465 165.772 32.7559C165.775 32.7652 165.776 32.7751 165.774 32.7848L165.604 33.9793C165.599 34.0086 165.585 34.0357 165.564 34.0559C165.543 34.0761 165.516 34.0884 165.487 34.0907C163.507 34.246 161.443 34.1718 159.746 33.0432C155.922 30.5001 157.27 23.4689 162.328 23.5198C165.298 23.55 166.49 25.8512 166.487 28.5234C166.487 28.542 166.48 28.5599 166.467 28.573C166.454 28.5862 166.437 28.5935 166.418 28.5935L159.252 28.6018C159.237 28.6018 159.222 28.6047 159.209 28.6103C159.196 28.6159 159.183 28.6241 159.173 28.6345C159.163 28.6448 159.155 28.6571 159.149 28.6706C159.144 28.6841 159.141 28.6986 159.141 28.7131ZM164.844 27.3275C164.402 23.7466 160.058 24.0435 159.293 27.3248C159.291 27.3326 159.291 27.3407 159.293 27.3486C159.295 27.3565 159.298 27.3638 159.304 27.3702C159.309 27.3765 159.316 27.3817 159.323 27.3852C159.331 27.3888 159.339 27.3907 159.348 27.3907L164.78 27.399C164.789 27.3991 164.798 27.3972 164.806 27.3936C164.815 27.3899 164.822 27.3845 164.828 27.3778C164.834 27.371 164.838 27.3631 164.841 27.3544C164.844 27.3457 164.845 27.3366 164.844 27.3275Z" fill="white"/>
<path d="M170.383 24.9168C171.658 24.1773 173.601 23.1917 175.154 23.6522C177.071 24.2213 177.168 25.7292 177.146 27.618C177.12 29.756 177.125 31.8944 177.162 34.0333C177.162 34.041 177.161 34.0487 177.158 34.0559C177.155 34.063 177.151 34.0696 177.146 34.0751C177.141 34.0806 177.134 34.0849 177.128 34.0879C177.121 34.0909 177.113 34.0925 177.106 34.0924L175.651 34.0993C175.636 34.0993 175.622 34.0964 175.609 34.0908C175.596 34.0852 175.584 34.077 175.573 34.0666C175.563 34.0563 175.555 34.044 175.55 34.0305C175.545 34.017 175.542 34.0025 175.542 33.988C175.581 31.6685 175.581 29.4036 175.545 27.1932C175.484 23.6137 172.032 25.2481 170.381 26.2722C170.363 26.2832 170.348 26.2984 170.338 26.3164C170.327 26.3344 170.322 26.3546 170.321 26.3753C170.256 28.9083 170.263 31.4596 170.342 34.0292C170.342 34.0385 170.341 34.0477 170.338 34.0564C170.334 34.065 170.329 34.0729 170.323 34.0796C170.316 34.0863 170.309 34.0916 170.3 34.0952C170.292 34.0988 170.283 34.1007 170.273 34.1007H168.772C168.762 34.1007 168.752 34.0987 168.743 34.0949C168.734 34.0911 168.725 34.0855 168.719 34.0785C168.712 34.0714 168.706 34.0631 168.703 34.0539C168.699 34.0448 168.697 34.035 168.697 34.0251C168.746 30.6389 168.746 27.2624 168.699 23.8955C168.698 23.8854 168.7 23.8754 168.703 23.8661C168.707 23.8567 168.712 23.8482 168.718 23.8411C168.724 23.8339 168.732 23.8282 168.74 23.8243C168.748 23.8205 168.757 23.8185 168.766 23.8185L170.221 23.8116C170.24 23.8113 170.258 23.8189 170.271 23.8328C170.285 23.8467 170.293 23.8657 170.294 23.8859L170.324 24.8825C170.324 24.8893 170.326 24.8961 170.33 24.902C170.333 24.908 170.338 24.9129 170.344 24.9164C170.35 24.9198 170.357 24.9217 170.364 24.9218C170.371 24.9219 170.377 24.9202 170.383 24.9168Z" fill="white"/>
<path d="M191.602 31.9724C189.642 29.4582 190.425 25.1556 193.481 23.8676C194.786 23.3177 196.497 23.403 197.66 24.1879C199.036 25.1185 199.494 26.9289 199.467 28.5303C199.467 28.5493 199.459 28.5675 199.446 28.5809C199.432 28.5943 199.414 28.6018 199.395 28.6018H192.239C192.224 28.6018 192.21 28.6048 192.196 28.6107C192.182 28.6165 192.17 28.6251 192.16 28.6359C192.149 28.6467 192.141 28.6595 192.136 28.6735C192.131 28.6875 192.129 28.7024 192.129 28.7173C192.242 31.0596 193.864 32.5016 196.122 32.7257C196.824 32.7953 197.682 32.7884 198.695 32.7051C198.703 32.7044 198.712 32.7056 198.72 32.7086C198.728 32.7116 198.735 32.7163 198.741 32.7223C198.747 32.7284 198.751 32.7357 198.754 32.7436C198.757 32.7516 198.758 32.76 198.757 32.7683L198.576 34.0219C198.574 34.0416 198.564 34.0597 198.549 34.0733C198.533 34.0868 198.513 34.0949 198.492 34.0962C195.983 34.2446 193.291 34.1402 191.602 31.9724ZM197.827 27.322C197.474 23.7741 193.02 24.0353 192.292 27.322C192.29 27.3303 192.29 27.3389 192.292 27.3471C192.293 27.3554 192.297 27.3631 192.302 27.3697C192.307 27.3763 192.314 27.3817 192.321 27.3853C192.329 27.3889 192.337 27.3908 192.345 27.3908H197.764C197.773 27.3908 197.782 27.389 197.79 27.3854C197.798 27.3819 197.806 27.3767 197.812 27.3702C197.818 27.3637 197.822 27.3561 197.825 27.3478C197.828 27.3395 197.828 27.3307 197.827 27.322Z" fill="white"/>
<path d="M235.59 34.3712C231.437 34.356 229.615 29.7827 231.143 26.4176C232.069 24.3749 234.136 23.2958 236.344 23.5611C242.329 24.2842 241.974 34.3918 235.59 34.3712ZM238.933 29.4266C238.981 29.1517 238.981 28.8768 238.933 28.6019C238.801 26.5097 237.488 24.5797 235.138 24.8821C231.349 25.3715 231.245 32.7464 235.432 33.0337C237.543 33.178 238.801 31.3154 238.933 29.4266Z" fill="white"/>
<path d="M251.117 26.2059L251.134 34.022C251.134 34.0317 251.132 34.0413 251.129 34.0502C251.125 34.0592 251.12 34.0673 251.114 34.074C251.108 34.0808 251.1 34.0862 251.092 34.0897C251.084 34.0933 251.075 34.0951 251.066 34.0949L249.568 34.0646C249.559 34.0645 249.55 34.0624 249.542 34.0584C249.534 34.0545 249.526 34.0487 249.52 34.0416C249.514 34.0344 249.509 34.026 249.506 34.0167C249.503 34.0075 249.501 33.9976 249.502 33.9877C249.525 32.8513 249.534 30.6895 249.526 27.5022C249.525 26.7489 249.515 25.9557 248.98 25.4196C247.926 24.3625 245.678 25.5392 244.661 26.2925C244.644 26.3053 244.63 26.3219 244.62 26.341C244.611 26.3601 244.606 26.3811 244.606 26.4025L244.643 33.9794C244.643 34.0094 244.631 34.0382 244.611 34.0596C244.59 34.081 244.562 34.0931 244.533 34.0935L243.099 34.099C243.089 34.0992 243.079 34.0973 243.069 34.0935C243.06 34.0897 243.052 34.0841 243.045 34.0769C243.038 34.0697 243.032 34.0611 243.028 34.0517C243.025 34.0423 243.023 34.0322 243.023 34.022C243.068 30.6835 243.067 27.3107 243.021 23.9034C243.021 23.8891 243.024 23.8749 243.029 23.8616C243.034 23.8484 243.042 23.8363 243.052 23.8262C243.061 23.8161 243.073 23.8081 243.086 23.8027C243.099 23.7973 243.112 23.7946 243.126 23.7948L244.545 23.8127C244.566 23.8127 244.585 23.8204 244.6 23.834C244.614 23.8477 244.622 23.8662 244.622 23.8856L244.615 24.8698C244.615 24.9422 244.643 24.9582 244.698 24.9179C246.445 23.6436 249.243 22.5645 250.762 24.9014C250.772 24.9168 250.788 24.9277 250.806 24.9318C250.824 24.936 250.843 24.9329 250.859 24.9234C251.861 24.325 252.85 23.8901 253.827 23.6189C255.132 23.256 256.755 23.7742 257.329 25.0705C257.643 25.7812 257.621 26.4973 257.608 27.3042C257.576 29.544 257.586 31.7837 257.637 34.0234C257.638 34.0328 257.636 34.0422 257.633 34.051C257.629 34.0598 257.624 34.0677 257.618 34.0744C257.612 34.0811 257.604 34.0863 257.596 34.0898C257.588 34.0934 257.579 34.0951 257.57 34.0949L256.071 34.0646C256.062 34.0645 256.053 34.0624 256.045 34.0585C256.037 34.0546 256.03 34.049 256.024 34.042C256.018 34.035 256.013 34.0267 256.009 34.0176C256.006 34.0085 256.005 33.9988 256.005 33.989C256.033 31.884 256.05 29.779 256.056 27.674C256.058 27.1846 256.009 26.6999 255.91 26.2197C255.447 23.9667 252.278 25.4045 251.175 26.1001C251.158 26.1109 251.143 26.1264 251.133 26.1449C251.123 26.1634 251.117 26.1844 251.117 26.2059Z" fill="white"/>
<path d="M203.295 25.1655C203.294 25.1824 203.298 25.1991 203.306 25.214C203.314 25.2288 203.326 25.2414 203.34 25.2503C203.354 25.2592 203.37 25.2642 203.386 25.2648C203.402 25.2653 203.418 25.2614 203.432 25.2535C204.672 24.5753 205.948 24.0127 207.26 23.5654C207.272 23.5613 207.285 23.5598 207.297 23.5609C207.31 23.5621 207.322 23.5659 207.333 23.5721C207.344 23.5783 207.354 23.5868 207.361 23.5971C207.369 23.6073 207.374 23.619 207.377 23.6314L207.666 24.8947C207.672 24.9222 207.668 24.951 207.654 24.9754C207.641 24.9999 207.618 25.0182 207.592 25.0267C206.147 25.4858 204.744 26.0366 203.383 26.679C203.352 26.6937 203.326 26.7166 203.308 26.7451C203.289 26.7735 203.28 26.8064 203.28 26.8398L203.317 33.9617C203.317 33.9786 203.314 33.9954 203.308 34.011C203.301 34.0266 203.293 34.0407 203.281 34.0526C203.27 34.0645 203.257 34.0739 203.243 34.0802C203.228 34.0866 203.213 34.0898 203.197 34.0896L201.775 34.0662C201.757 34.0658 201.739 34.0576 201.726 34.0432C201.713 34.0288 201.706 34.0094 201.706 33.9892L201.695 23.8692C201.695 23.8485 201.704 23.8285 201.718 23.8138C201.733 23.7991 201.753 23.7909 201.774 23.7909H203.191C203.207 23.7909 203.223 23.7939 203.237 23.7997C203.252 23.8055 203.265 23.8141 203.276 23.8248C203.287 23.8355 203.295 23.8483 203.301 23.8623C203.307 23.8763 203.31 23.8913 203.31 23.9064L203.295 25.1655Z" fill="white"/>
<path d="M209.056 34.111C208.888 34.0881 208.8 33.9891 208.792 33.8141L208.748 32.8134C208.748 32.8044 208.749 32.7954 208.753 32.787C208.756 32.7786 208.761 32.771 208.768 32.7648C208.774 32.7585 208.782 32.7537 208.79 32.7507C208.799 32.7477 208.808 32.7466 208.817 32.7474C209.988 32.8532 212.453 33.0856 213.241 32.0477C214.325 30.6154 212.16 29.6957 211.21 29.2957C209.619 28.6277 208.286 27.0949 209.363 25.3176C210.429 23.5608 212.958 23.6391 214.702 23.7491C214.73 23.7511 214.756 23.763 214.775 23.7827C214.795 23.8024 214.806 23.8285 214.808 23.8563L214.89 24.956C214.891 24.9832 214.887 25.0104 214.877 25.0357C214.868 25.061 214.852 25.0837 214.833 25.1022C214.813 25.1206 214.79 25.1344 214.764 25.1424C214.739 25.1504 214.712 25.1525 214.686 25.1485C213.535 24.9767 211.122 24.8199 210.686 26.2042C210.539 26.6697 210.677 27.0652 211.099 27.3905C211.939 28.0366 213.077 28.361 213.994 29.0016C215.289 29.9061 215.523 31.4223 214.647 32.6828C213.576 34.2279 210.785 34.3433 209.056 34.111Z" fill="white"/>
<path d="M229.302 34.1292C225.957 34.2667 221.656 32.9663 221.727 28.8287C221.794 25.0237 226.045 23.5941 229.197 23.7783C229.217 23.7796 229.236 23.7877 229.25 23.8011C229.265 23.8145 229.273 23.8323 229.274 23.8512L229.353 25.032C229.354 25.0514 229.351 25.0709 229.343 25.0892C229.336 25.1074 229.325 25.1241 229.31 25.1379C229.296 25.1518 229.278 25.1626 229.259 25.1697C229.24 25.1768 229.219 25.18 229.198 25.1791C227.424 25.1021 225.23 25.4196 224.106 26.8437C222.654 28.683 223.473 31.3621 225.618 32.202C226.723 32.6346 227.991 32.8243 229.421 32.7711C229.44 32.7703 229.458 32.7767 229.472 32.789C229.487 32.8013 229.495 32.8185 229.497 32.8371C229.532 33.2073 229.501 33.6092 229.404 34.0426C229.398 34.0662 229.386 34.0875 229.367 34.1032C229.349 34.1188 229.326 34.128 229.302 34.1292Z" fill="white"/>
<path d="M219.722 31.8989L217.8 31.9022C217.761 31.9023 217.729 31.9343 217.729 31.9738L217.732 34.0303C217.732 34.0697 217.764 34.1017 217.804 34.1016L219.725 34.0983C219.765 34.0982 219.797 34.0661 219.797 34.0267L219.793 31.9702C219.793 31.9307 219.761 31.8988 219.722 31.8989Z" fill="white"/>
</svg>
