<svg width="162" height="52" viewBox="0 0 162 52" fill="none" xmlns="http://www.w3.org/2000/svg">
<g clip-path="url(#clip0_425_798)">
<path d="M51.8351 0H52.3266L52.7776 7.93897C52.7784 7.96518 52.7872 7.99054 52.8027 8.01171C52.8183 8.03289 52.8399 8.04889 52.8648 8.05762C52.8897 8.06634 52.9166 8.06739 52.9421 8.06061C52.9676 8.05384 52.9905 8.03956 53.0076 8.01966C54.7123 6.04126 56.9146 5.29414 59.6145 5.77828C63.1953 6.41931 64.1468 10.0907 64.3543 13.3676C64.5978 17.1929 64.7978 20.9883 64.9541 24.7538C64.9559 24.7944 64.9495 24.835 64.9353 24.8732C64.921 24.9114 64.8993 24.9465 64.8712 24.9765C64.8432 25.0064 64.8093 25.0307 64.7717 25.0479C64.7341 25.0651 64.6934 25.0748 64.6519 25.0766L59.8715 25.2514C59.6942 25.2574 59.601 25.1737 59.5919 25.0003C59.3424 19.6569 59.1109 15.594 58.8974 12.8117C58.5727 8.62483 53.0257 9.86655 53.1519 13.9728C53.2722 17.7622 53.4541 21.5038 53.6976 25.1976C53.7007 25.2441 53.6945 25.2908 53.6793 25.3349C53.6642 25.379 53.6405 25.4198 53.6094 25.4548C53.5784 25.4897 53.5408 25.5183 53.4986 25.5388C53.4565 25.5593 53.4107 25.5713 53.3639 25.5741L48.57 25.8521C48.4076 25.861 48.3219 25.7848 48.3129 25.6234L47.0727 0.775517C47.0701 0.710635 47.0924 0.647184 47.1351 0.598058C47.1778 0.548932 47.2378 0.517816 47.3027 0.511034L51.8351 0Z" fill="white"/>
<path d="M21.7728 29.4652L17.4614 5.53173C17.4505 5.47304 17.4627 5.41243 17.4954 5.36239C17.5281 5.31235 17.5789 5.2767 17.6373 5.26277L22.3636 4.12415C22.3947 4.11625 22.4272 4.1148 22.4589 4.11989C22.4906 4.12498 22.521 4.1365 22.548 4.15374C22.5751 4.17097 22.5983 4.19355 22.6162 4.22008C22.6342 4.24661 22.6464 4.27651 22.6522 4.30794L27.0673 28.5373C27.0778 28.5979 27.0638 28.6601 27.0283 28.7105C26.9928 28.7609 26.9388 28.7953 26.8779 28.8062L22.0434 29.6535C21.9824 29.6639 21.9198 29.65 21.8691 29.6147C21.8184 29.5794 21.7838 29.5257 21.7728 29.4652Z" fill="white"/>
<path d="M78.0326 13.8114C78.1994 11.3459 77.8567 7.92553 74.4969 8.75036C73.401 9.01932 72.95 9.79932 73.1214 10.8707C73.1485 11.0351 73.0793 11.1277 72.914 11.1486L69.0716 11.6686C68.9931 11.6795 68.9133 11.6607 68.8482 11.6159C68.783 11.571 68.7372 11.5034 68.7198 11.4266C67.2542 5.0476 74.0594 3.77449 78.5241 5.04311C84.8785 6.84967 82.9347 14.9904 82.9347 19.7286C82.9347 20.6461 83.3767 21.0077 84.2606 20.8135C84.32 20.8004 84.3815 20.7999 84.441 20.8121C84.5005 20.8243 84.5567 20.8487 84.6057 20.8839C84.6548 20.9191 84.6956 20.9642 84.7256 21.0162C84.7555 21.0682 84.7738 21.1259 84.7793 21.1855L85.0453 24.0141C85.0604 24.1755 84.9942 24.2921 84.8469 24.3638C82.3755 25.5652 79.8365 25.099 78.3663 22.9383C78.2791 22.8098 78.1739 22.7933 78.0506 22.889C75.5011 24.8853 72.7892 25.226 69.9149 23.911C66.6904 22.4362 66.1492 17.9535 68.4853 15.4117C70.6771 13.0314 74.8442 13.0762 77.7665 13.9952C77.7963 14.004 77.8278 14.006 77.8585 14.0011C77.8892 13.9962 77.9184 13.9845 77.944 13.9669C77.9695 13.9492 77.9908 13.9261 78.0061 13.8992C78.0214 13.8722 78.0305 13.8422 78.0326 13.8114ZM72.4765 19.7331C73.2206 22.091 76.6436 20.8762 77.6898 19.5179C77.7777 19.4044 77.8267 19.2661 77.8296 19.1235L77.8657 17.2855C77.8717 17.1152 77.7966 16.9956 77.6402 16.9269C75.5432 15.99 71.4302 16.4159 72.4765 19.7331Z" fill="white"/>
<path d="M102.336 24.319L102.246 30.6845C102.245 30.7503 102.217 30.813 102.17 30.8591C102.123 30.9052 102.059 30.9311 101.993 30.931L97.1045 30.9266C97.0722 30.9266 97.0401 30.9203 97.0103 30.908C96.9804 30.8958 96.9534 30.8779 96.9307 30.8554C96.908 30.8328 96.8902 30.8061 96.8782 30.7768C96.8663 30.7474 96.8604 30.7161 96.861 30.6845L97.1767 6.33414C97.1772 6.27647 97.1895 6.21949 97.2126 6.1666C97.2357 6.11371 97.2694 6.06598 97.3114 6.02625C97.3535 5.98653 97.4032 5.95561 97.4575 5.93535C97.5118 5.91508 97.5697 5.90588 97.6277 5.90828L101.551 6.0607C101.762 6.06667 101.891 6.17276 101.939 6.37897L102.255 7.74621C102.291 7.89564 102.364 7.91805 102.476 7.81345C106.859 3.70276 112.961 5.69311 114.224 11.4579C115.392 16.7879 114.012 25.4262 107.13 25.7759C105.407 25.861 103.91 25.2828 102.629 24.189C102.603 24.1677 102.571 24.1541 102.537 24.1496C102.504 24.1451 102.47 24.1499 102.439 24.1634C102.408 24.177 102.382 24.1988 102.364 24.2263C102.346 24.2539 102.336 24.286 102.336 24.319ZM102.679 20.1186C104.564 21.9879 107.518 22.0014 108.42 19.1772C109.078 17.1197 109.475 12.7086 107.987 10.8617C106.142 8.56656 102.715 10.6779 102.525 13.269C102.458 14.2597 102.137 19.5807 102.679 20.1186Z" fill="white"/>
<path d="M126.012 25.0765C122.039 27.82 114.914 26.4617 115.261 20.6027C115.595 14.9769 122.359 14.5152 126.315 16.1783C126.441 16.2291 126.521 16.1887 126.554 16.0572C127.149 13.6007 126.693 10.131 123.356 10.7138C122.683 10.8303 122.223 11.1934 121.976 11.8031C121.919 11.9406 121.902 12.084 121.927 12.2334C121.957 12.4098 121.942 12.5756 121.881 12.731C121.852 12.8088 121.8 12.8766 121.732 12.9266C121.664 12.9765 121.583 13.0067 121.498 13.0134L117.832 13.2779C117.645 13.2929 117.534 13.2092 117.498 13.0269C116.154 6.49999 123.748 5.67964 127.965 7.38309C133.593 9.66033 131.636 17.0524 131.054 21.979C130.922 23.0787 131.42 23.5554 132.547 23.409C132.584 23.4045 132.622 23.4078 132.658 23.4186C132.693 23.4294 132.726 23.4474 132.755 23.4715C132.783 23.4956 132.805 23.5253 132.821 23.5585C132.836 23.5918 132.844 23.6279 132.845 23.6645L132.899 26.6993C132.9 26.7439 132.887 26.788 132.862 26.8257C132.837 26.8633 132.801 26.8927 132.759 26.91C130.05 28.0426 127.89 27.4479 126.278 25.1258C126.206 25.0212 126.118 25.0048 126.012 25.0765ZM125.967 19.0696C120.213 16.241 118.477 23.4986 123.532 22.9517C125.408 22.7485 126.29 21.5621 126.179 19.3924C126.173 19.243 126.103 19.1354 125.967 19.0696Z" fill="white"/>
<path d="M34.7113 26.8966L35.5952 33.3921C35.6068 33.4812 35.5825 33.5712 35.5276 33.6426C35.4727 33.7139 35.3916 33.7608 35.3021 33.7731L30.6705 34.3559C30.421 34.3888 30.2782 34.2812 30.2421 34.0331L26.9725 9.77243C26.9454 9.59013 27.0236 9.48702 27.207 9.46312L31.2749 8.92519C31.3559 8.91466 31.4382 8.93147 31.5085 8.97291C31.5788 9.01436 31.6331 9.07806 31.6627 9.15381L32.1949 10.5435C32.273 10.7407 32.3737 10.7542 32.497 10.5838C34.0033 8.48886 36.0041 7.50116 38.4996 7.6207C46.3015 7.99277 47.7266 21.7548 42.8921 26.0717C40.6192 28.1039 37.9479 28.34 34.8782 26.78C34.7459 26.7143 34.6903 26.7531 34.7113 26.8966ZM34.2649 22.5214C35.6358 24.0769 38.1388 23.9335 39.1535 22.6783C40.7996 20.6342 40.2268 14.9814 38.4905 13.0448C36.9978 11.3817 34.5174 12.3635 33.5839 14.0176C32.727 15.5417 33.8184 20.3248 34.0845 22.1404C34.1055 22.2868 34.1656 22.4138 34.2649 22.5214Z" fill="white"/>
<path d="M150.613 25.9417C150.614 25.9694 150.625 25.9962 150.643 26.0176C150.661 26.0389 150.686 26.0535 150.713 26.0588C150.741 26.0641 150.768 26.0598 150.792 26.0466C150.816 26.0334 150.834 26.0122 150.843 25.9866L155.398 14.17C155.415 14.127 155.44 14.0878 155.472 14.0547C155.504 14.0217 155.542 13.9955 155.585 13.9779C155.628 13.9602 155.674 13.9515 155.72 13.9521C155.766 13.9528 155.812 13.9629 155.854 13.9817L160.359 16.0124C160.494 16.0752 160.529 16.1708 160.463 16.2993L152.963 31.1955C152.876 31.3718 152.734 31.4421 152.539 31.4062L147.299 30.42C147.169 30.3961 147.102 30.3169 147.096 30.1824L146.735 18.3704C146.736 18.3544 146.73 18.3391 146.72 18.327C146.71 18.315 146.696 18.3069 146.68 18.3043C146.664 18.3016 146.647 18.3045 146.633 18.3125C146.618 18.3205 146.606 18.333 146.6 18.3479L141.918 29.1514C141.849 29.3128 141.726 29.377 141.549 29.3441L136.371 28.349C136.191 28.3161 136.095 28.2085 136.083 28.0262L134.87 9.0776C134.867 9.04495 134.872 9.01215 134.884 8.98171C134.896 8.95127 134.915 8.92399 134.94 8.90194C134.964 8.87989 134.993 8.86366 135.025 8.85448C135.056 8.8453 135.09 8.84342 135.122 8.84897L140.006 9.65139C140.163 9.67829 140.241 9.77093 140.241 9.92932L140.142 23.9783C140.143 24.0004 140.151 24.0214 140.166 24.0381C140.18 24.0548 140.2 24.0661 140.222 24.0702C140.244 24.0744 140.267 24.0711 140.286 24.0609C140.306 24.0507 140.322 24.0343 140.331 24.0141L145.472 11.189C145.505 11.1041 145.569 11.0344 145.652 10.9931C145.734 10.9518 145.829 10.9417 145.919 10.9648C147.181 11.3055 148.467 11.6552 149.775 12.0138C150.947 12.3366 150.501 12.8924 150.523 13.771C150.628 17.8444 150.658 21.9013 150.613 25.9417Z" fill="white"/>
<path d="M0.5 19.6838V18.2403C1.15542 16.2231 2.58353 14.8499 4.78431 14.1207C15.2741 10.651 15.5267 19.8093 16.9157 26.6724C17.1111 27.6496 17.6974 27.938 18.6745 27.5376C18.7049 27.5254 18.7375 27.5195 18.7703 27.5202C18.8031 27.5209 18.8354 27.5281 18.8653 27.5415C18.8952 27.5549 18.9221 27.5742 18.9443 27.5981C18.9666 27.6221 18.9837 27.6503 18.9947 27.681L19.9914 30.4872C20.0137 30.5505 20.0158 30.6193 19.9972 30.6842C19.9787 30.7492 19.9404 30.8071 19.8876 30.8503C18.0476 32.3476 14.9945 32.9527 13.2988 30.8458C13.1876 30.7054 13.0778 30.7069 12.9696 30.8503C9.84882 35.0283 2.13255 35.3241 1.19451 29.2365C0.400784 24.059 6.55216 21.8758 10.6471 22.3958C10.8124 22.4168 10.8846 22.345 10.8635 22.1807C10.7418 21.1003 10.3359 19.8452 9.88941 18.9576C8.76647 16.7296 4.51373 17.2765 5.36157 20.2934C5.38236 20.3678 5.37446 20.4471 5.33942 20.516C5.30438 20.5848 5.24472 20.6381 5.17216 20.6655L1.6049 21.9969C1.42451 22.0626 1.30275 22.0044 1.23961 21.8221L0.5 19.6838ZM10.8771 29.0034C11.9684 27.9231 11.991 26.78 11.3731 25.4262C11.2829 25.226 11.1266 25.1199 10.9041 25.1079C3.1698 24.7448 6.90392 32.9169 10.8771 29.0034Z" fill="white"/>
<path d="M161.5 30.8369V31.729C160.891 33.8224 158.889 35.0641 156.959 33.8538C152.53 31.079 159.078 24.8883 161.5 30.8369Z" fill="white"/>
<path d="M79.9853 44.3793V48.8621C79.9853 48.9995 79.9221 49.0967 79.7959 49.1534C78.497 49.7631 78.9661 45.0159 78.9661 44.4062C78.9631 44.2388 78.8774 44.1552 78.709 44.1552H78.4023C78.246 44.1552 78.1708 44.079 78.1768 43.9265L78.1949 43.42C78.2009 43.2048 78.3061 43.1361 78.5106 43.2138C78.8323 43.3363 79.0051 43.2646 79.0292 42.9986C79.1585 41.6598 79.8891 41.0008 81.221 41.0217C81.3623 41.0217 81.4359 41.0934 81.4419 41.2369L81.4555 41.6493C81.4615 41.8256 81.3758 41.9168 81.1984 41.9228C80.4317 41.9437 80.0439 42.3172 80.0349 43.0434C80.0349 43.1005 80.0577 43.1552 80.0983 43.1956C80.1389 43.2359 80.1939 43.2586 80.2514 43.2586H81.2029C81.3563 43.2586 81.4359 43.3348 81.4419 43.4872L81.4555 43.8817C81.4615 44.061 81.3743 44.1522 81.1939 44.1552C80.8662 44.1552 80.5385 44.1552 80.2108 44.1552C80.0604 44.1552 79.9853 44.2299 79.9853 44.3793Z" fill="white"/>
<path d="M35.3808 41.2401L33.9197 41.2426C33.8225 41.2428 33.7439 41.3212 33.7441 41.4178L33.7574 49.0116C33.7576 49.1081 33.8365 49.1862 33.9336 49.1861L35.3948 49.1835C35.4919 49.1834 35.5705 49.105 35.5704 49.0084L35.557 41.4146C35.5569 41.3181 35.478 41.2399 35.3808 41.2401Z" fill="white"/>
<path d="M55.0686 43.819V41.5238C55.0686 41.3355 55.1633 41.2414 55.3527 41.2414H56.647C56.7973 41.2414 56.8725 41.3161 56.8725 41.4655V48.9204C56.8725 49.1056 56.7778 49.1983 56.5884 49.1983H55.3482C55.1618 49.1983 55.0686 49.1056 55.0686 48.9204V48.6648C55.0686 48.4407 54.9829 48.3989 54.8115 48.5393C50.5723 51.9821 48.3219 42.5728 53.7111 43.1466C54.1651 43.1974 54.5244 43.4469 54.789 43.8952C54.9754 44.209 55.0686 44.1836 55.0686 43.819ZM53.6451 47.6179C53.9889 47.6376 54.3276 47.5038 54.5866 47.2458C54.8455 46.9878 55.0035 46.6268 55.0258 46.2423C55.0481 45.8577 54.9329 45.4811 54.7055 45.1952C54.4781 44.9093 54.1572 44.7377 53.8133 44.718C53.4694 44.6982 53.1307 44.8321 52.8718 45.0901C52.6128 45.3481 52.4548 45.7091 52.4325 46.0936C52.4102 46.4782 52.5254 46.8548 52.7528 47.1407C52.9802 47.4266 53.3012 47.5982 53.6451 47.6179Z" fill="white"/>
<path d="M90.5067 44.0655C91.3546 42.8059 93.2351 42.9314 94.065 43.9669C94.9669 45.0966 94.6512 47.4455 94.6377 48.9562C94.6379 48.9912 94.6306 49.0258 94.6164 49.0578C94.6021 49.0898 94.5811 49.1185 94.5548 49.1422C94.5285 49.1658 94.4974 49.1838 94.4635 49.195C94.4296 49.2062 94.3937 49.2104 94.3581 49.2073L93.88 49.1624C93.7087 49.1445 93.623 49.0504 93.623 48.88C93.6365 47.7414 93.8665 45.5314 93.2712 44.6348C92.3512 43.2586 90.182 44.1417 90.2587 45.9797C90.3008 46.9509 90.2767 47.9237 90.1865 48.8979C90.1715 49.0384 90.0963 49.1251 89.961 49.1579C89.3928 49.2984 89.1147 49.1639 89.1267 48.7545C89.2319 45.512 89.256 43.0748 89.1989 41.4431C89.1959 41.3086 89.262 41.2414 89.3973 41.2414H89.9836C90.0232 41.2414 90.0625 41.2493 90.099 41.2648C90.1354 41.2803 90.1684 41.3029 90.1958 41.3314C90.2232 41.3599 90.2445 41.3937 90.2584 41.4306C90.2723 41.4675 90.2785 41.5068 90.2767 41.5462L90.1685 43.9579C90.1674 43.9977 90.1793 44.0368 90.2025 44.0693C90.2257 44.1017 90.2588 44.1258 90.297 44.138C90.3351 44.1501 90.3762 44.1496 90.414 44.1365C90.4518 44.1235 90.4844 44.0986 90.5067 44.0655Z" fill="white"/>
<path d="M128.795 45.231L130.116 43.3348C130.129 43.3152 130.146 43.2989 130.167 43.2872C130.187 43.2755 130.21 43.2688 130.234 43.2676L132.209 43.2004C132.237 43.1999 132.265 43.2075 132.289 43.2224C132.314 43.2372 132.333 43.2586 132.345 43.2841C132.358 43.3096 132.362 43.338 132.359 43.3661C132.356 43.3941 132.344 43.4206 132.326 43.4424L130.161 46.0559C130.139 46.0824 130.127 46.1157 130.127 46.15C130.127 46.1844 130.139 46.2177 130.161 46.2442L132.407 48.9562C132.425 48.978 132.437 49.0045 132.44 49.0326C132.444 49.0606 132.439 49.0891 132.427 49.1146C132.414 49.14 132.395 49.1614 132.371 49.1763C132.346 49.1911 132.318 49.1988 132.29 49.1983H130.378C130.353 49.1985 130.328 49.1925 130.306 49.1808C130.284 49.169 130.265 49.1519 130.252 49.131L128.777 46.939C128.759 46.9132 128.733 46.894 128.703 46.8839C128.673 46.8738 128.64 46.8735 128.61 46.883C128.58 46.8925 128.554 46.9113 128.535 46.9367C128.516 46.9621 128.506 46.9927 128.506 47.0242L128.592 49.0638C128.593 49.084 128.589 49.1041 128.582 49.1229C128.574 49.1416 128.563 49.1587 128.548 49.173C128.534 49.1872 128.517 49.1984 128.498 49.2059C128.479 49.2133 128.459 49.2168 128.439 49.2162L126.806 49.1714C126.767 49.1702 126.731 49.1541 126.704 49.1265C126.677 49.0989 126.662 49.0619 126.662 49.0235V41.3893C126.662 41.3501 126.677 41.3125 126.705 41.2847C126.733 41.257 126.771 41.2414 126.811 41.2414H128.403C128.442 41.2414 128.48 41.257 128.508 41.2847C128.536 41.3125 128.551 41.3501 128.551 41.3893L128.524 45.1459C128.524 45.1773 128.534 45.208 128.553 45.2333C128.572 45.2587 128.598 45.2775 128.628 45.287C128.658 45.2965 128.691 45.2962 128.721 45.2861C128.751 45.2761 128.777 45.2568 128.795 45.231Z" fill="white"/>
<path d="M86.7681 43.2586H87.7287C87.9361 43.2586 88.0248 43.3602 87.9947 43.5635L87.9587 43.8459C87.9346 44.0162 87.8354 44.1044 87.661 44.1104L86.7591 44.1328C86.6027 44.1358 86.5245 44.2149 86.5245 44.3704V47.849C86.5245 48.0462 86.6238 48.1508 86.8222 48.1628L87.7242 48.2076C87.9015 48.2166 87.9902 48.3092 87.9902 48.4855V48.8755C87.9902 49.0279 87.9151 49.1206 87.7647 49.1535C84.8424 49.7676 85.2979 45.9707 85.4512 44.3704C85.4632 44.2448 85.4061 44.1776 85.2798 44.1686L84.7883 44.1328C84.7121 44.1271 84.6409 44.093 84.589 44.0372C84.5372 43.9815 84.5084 43.9083 84.5087 43.8324L84.5042 43.5455C84.5042 43.4694 84.535 43.3965 84.59 43.3427C84.645 43.2889 84.7195 43.2586 84.7973 43.2586H85.2618C85.4512 43.2586 85.5189 43.169 85.4647 42.9897C85.3565 42.6281 85.334 42.3337 85.3971 42.1066C85.4391 41.9541 85.5423 41.8138 85.6841 41.7165C85.8258 41.6191 85.9945 41.5728 86.153 41.5877C86.3115 41.6025 86.4468 41.6774 86.5291 41.7957C86.6115 41.914 86.6342 42.0662 86.5922 42.2186C86.505 42.5354 86.487 42.8208 86.5381 43.0748C86.5651 43.1974 86.6418 43.2586 86.7681 43.2586Z" fill="white"/>
<path d="M40.6237 47.0376L42.2112 47.0779C42.2573 47.0784 42.3025 47.091 42.3421 47.1145C42.3817 47.1379 42.4144 47.1714 42.4369 47.2114C42.4593 47.2515 42.4707 47.2967 42.4699 47.3425C42.469 47.3884 42.456 47.4332 42.4322 47.4724C40.2539 51.0855 35.2345 48.6245 36.7273 44.85C37.8277 42.0617 42.7434 42.5772 42.4953 46.3338C42.4863 46.4503 42.4247 46.5086 42.3104 46.5086H38.6124C38.5746 46.5083 38.5373 46.5168 38.5036 46.5336C38.4698 46.5503 38.4405 46.5748 38.418 46.605C38.3956 46.6351 38.3807 46.6702 38.3745 46.7072C38.3683 46.7442 38.371 46.7822 38.3824 46.8179C38.7341 47.9476 39.9428 48.0014 40.5741 47.0645C40.5799 47.0562 40.5874 47.0494 40.5961 47.0447C40.6047 47.04 40.6142 47.0376 40.6237 47.0376ZM38.5041 45.7331L40.5786 45.7152C40.6002 45.7152 40.6208 45.7067 40.636 45.6915C40.6513 45.6764 40.6598 45.6559 40.6598 45.6345V45.5807C40.6587 45.4523 40.6304 45.3254 40.5765 45.2073C40.5226 45.0892 40.4442 44.9821 40.3458 44.8922C40.2474 44.8023 40.1309 44.7313 40.0029 44.6833C39.8749 44.6353 39.738 44.6112 39.6 44.6124H39.4647C39.1861 44.6149 38.9198 44.7201 38.7245 44.9051C38.5291 45.09 38.4206 45.3395 38.423 45.5986V45.6524C38.423 45.6738 38.4315 45.6943 38.4467 45.7095C38.462 45.7246 38.4826 45.7331 38.5041 45.7331Z" fill="white"/>
<path d="M47.4786 48.5124L47.0321 48.9338C46.9329 49.0265 46.8157 49.0862 46.6804 49.1131C40.9484 50.2517 43.0996 40.2193 47.5102 43.8055C47.6635 43.9281 47.7402 43.8922 47.7402 43.6979V43.3707C47.7402 43.2213 47.8153 43.1481 47.9657 43.151L49.278 43.169C49.4554 43.172 49.5441 43.2631 49.5441 43.4424V48.9159C49.5441 49.1042 49.4509 49.1983 49.2645 49.1983H48.0784C47.8529 49.1983 47.7402 49.0862 47.7402 48.8621V48.6245C47.7402 48.3854 47.653 48.3481 47.4786 48.5124ZM46.4991 47.6254C46.6692 47.613 46.8349 47.5631 46.9866 47.4786C47.1384 47.3942 47.2733 47.2767 47.3836 47.133C47.4939 46.9893 47.5775 46.8222 47.6296 46.6411C47.6817 46.4601 47.7012 46.2687 47.6871 46.0779C47.673 45.8871 47.6255 45.7006 47.5474 45.529C47.4693 45.3575 47.3621 45.2043 47.2318 45.0781C47.1016 44.952 46.9509 44.8554 46.7883 44.7938C46.6257 44.7323 46.4545 44.707 46.2844 44.7194C46.1143 44.7318 45.9486 44.7817 45.7969 44.8662C45.6451 44.9507 45.5102 45.0681 45.3999 45.2118C45.2896 45.3555 45.206 45.5227 45.1539 45.7037C45.1019 45.8848 45.0823 46.0762 45.0964 46.267C45.1105 46.4578 45.158 46.6443 45.2361 46.8158C45.3142 46.9873 45.4214 47.1406 45.5517 47.2667C45.6819 47.3928 45.8327 47.4895 45.9952 47.551C46.1578 47.6126 46.329 47.6378 46.4991 47.6254Z" fill="white"/>
<path d="M59.7453 46.7328C59.8085 47.8041 61.0306 48.0238 61.6845 47.2752C61.8078 47.1377 61.9611 47.069 62.1445 47.069H63.0781C63.7786 47.069 63.9154 47.3454 63.4885 47.8983C61.5492 50.3952 57.522 49.1714 57.8557 45.8452C58.2481 41.9362 64.2416 42.3128 63.8492 46.2397C63.8312 46.413 63.7335 46.5011 63.5561 46.5041L59.9483 46.5221C59.804 46.5221 59.7363 46.5923 59.7453 46.7328ZM59.8085 45.7286L61.9506 45.7017C61.9607 45.7017 61.9707 45.6998 61.98 45.6959C61.9893 45.6921 61.9977 45.6865 62.0048 45.6794C62.0119 45.6723 62.0176 45.6639 62.0214 45.6547C62.0253 45.6454 62.0273 45.6355 62.0273 45.6255V45.5807C62.0241 45.3232 61.9055 45.0776 61.6976 44.8977C61.4896 44.7179 61.2092 44.6185 60.9179 44.6214H60.8187C60.6739 44.6228 60.5308 44.6494 60.3975 44.6998C60.2643 44.7501 60.1435 44.8232 60.0421 44.9148C59.9407 45.0065 59.8607 45.1148 59.8067 45.2337C59.7527 45.3526 59.7257 45.4796 59.7273 45.6076V45.6524C59.7273 45.6628 59.7294 45.6731 59.7335 45.6827C59.7376 45.6922 59.7437 45.7008 59.7513 45.708C59.7589 45.7151 59.7679 45.7206 59.7777 45.7242C59.7876 45.7277 59.798 45.7292 59.8085 45.7286Z" fill="white"/>
<path d="M66.952 44.0207C67.3339 43.5007 67.8645 43.2063 68.544 43.1376C68.7304 43.1197 68.8236 43.2048 68.8236 43.3931V44.7828C68.8236 44.9083 68.762 44.983 68.6387 45.0069L67.1279 45.3117C67.0354 45.3306 66.9518 45.3797 66.8906 45.4512C66.8293 45.5226 66.7938 45.6124 66.7897 45.7062L66.6273 49.0055C66.6213 49.1191 66.5627 49.1774 66.4514 49.1803L65.2157 49.1983C64.9662 49.2043 64.8414 49.0832 64.8414 48.8352L64.8459 43.3617C64.8459 43.2243 64.9151 43.1555 65.0534 43.1555L66.3973 43.1421C66.5867 43.1421 66.6814 43.2362 66.6814 43.4245V43.9355C66.6814 44.2374 66.7716 44.2658 66.952 44.0207Z" fill="white"/>
<path d="M77.5815 46.2128C77.5815 47.0141 77.2613 47.7826 76.6913 48.3492C76.1212 48.9158 75.3481 49.2341 74.5419 49.2341C74.1428 49.2341 73.7475 49.156 73.3787 49.0041C73.0099 48.8523 72.6748 48.6298 72.3926 48.3492C72.1103 48.0686 71.8864 47.7356 71.7337 47.369C71.5809 47.0024 71.5023 46.6095 71.5023 46.2128C71.5023 45.816 71.5809 45.4231 71.7337 45.0565C71.8864 44.69 72.1103 44.3569 72.3926 44.0763C72.6748 43.7958 73.0099 43.5732 73.3787 43.4214C73.7475 43.2695 74.1428 43.1914 74.5419 43.1914C75.3481 43.1914 76.1212 43.5097 76.6913 44.0763C77.2613 44.6429 77.5815 45.4114 77.5815 46.2128ZM74.56 48.3465C75.0791 48.3465 75.5769 48.1217 75.944 47.7216C76.311 47.3214 76.5172 46.7787 76.5172 46.2128C76.5172 45.6468 76.311 45.1041 75.944 44.7039C75.5769 44.3038 75.0791 44.079 74.56 44.079C74.0409 44.079 73.543 44.3038 73.176 44.7039C72.8089 45.1041 72.6027 45.6468 72.6027 46.2128C72.6027 46.7787 72.8089 47.3214 73.176 47.7216C73.543 48.1217 74.0409 48.3465 74.56 48.3465Z" fill="white"/>
<path d="M96.9105 46.6117C96.9466 48.6424 99.5758 49.0817 100.442 47.32C100.52 47.1586 100.649 47.0779 100.83 47.0779H101.308C101.506 47.0779 101.575 47.1706 101.515 47.3558C100.636 50.0321 96.5543 49.8348 95.9274 46.9883C94.8721 42.1962 102.074 42.0527 101.565 46.1679C101.544 46.3203 101.456 46.3965 101.303 46.3965H97.1225C96.9782 46.3965 96.9075 46.4683 96.9105 46.6117ZM97.0143 45.9752L100.451 45.9214C100.483 45.9214 100.514 45.9086 100.537 45.8859C100.56 45.8632 100.573 45.8324 100.573 45.8003V45.7241C100.569 45.4989 100.523 45.2765 100.436 45.0696C100.349 44.8627 100.223 44.6754 100.065 44.5185C99.9067 44.3615 99.7201 44.2379 99.5155 44.1548C99.3109 44.0717 99.0923 44.0307 98.8723 44.0341L98.5386 44.0431C98.0955 44.05 97.6733 44.2365 97.3647 44.5617C97.0561 44.887 96.8862 45.3244 96.8925 45.7779V45.8541C96.8925 45.8862 96.9053 45.917 96.9282 45.9397C96.951 45.9624 96.982 45.9752 97.0143 45.9752Z" fill="white"/>
<path d="M107.098 52H105.407L105.38 43.3662C105.38 43.3079 105.403 43.2521 105.445 43.2109C105.486 43.1697 105.542 43.1465 105.601 43.1465H106.931C107.157 43.1465 107.27 43.2586 107.27 43.4828V43.6979C107.27 43.8952 107.346 43.9295 107.5 43.801C111.193 40.6631 113.723 48.0686 109.804 49.1624C108.95 49.3985 108.158 49.1594 107.427 48.4452C107.404 48.4237 107.375 48.4099 107.344 48.4054C107.313 48.401 107.281 48.4063 107.253 48.4205C107.225 48.4347 107.202 48.4572 107.187 48.4849C107.172 48.5125 107.167 48.5441 107.17 48.5752C107.357 49.7825 107.333 50.9241 107.098 52ZM108.646 47.6315C108.817 47.622 108.985 47.5748 109.139 47.4927C109.294 47.4105 109.432 47.2951 109.545 47.1528C109.659 47.0106 109.746 46.8444 109.802 46.6637C109.857 46.4831 109.881 46.2914 109.87 46.0998C109.859 45.9082 109.815 45.7204 109.739 45.547C109.663 45.3736 109.558 45.2181 109.429 45.0893C109.3 44.9606 109.15 44.8611 108.988 44.7966C108.825 44.7321 108.653 44.7038 108.482 44.7133C108.31 44.7228 108.143 44.77 107.988 44.8522C107.834 44.9343 107.696 45.0498 107.583 45.192C107.469 45.3342 107.382 45.5004 107.326 45.6811C107.27 45.8618 107.247 46.0534 107.258 46.245C107.269 46.4366 107.313 46.6245 107.389 46.7978C107.465 46.9712 107.57 47.1267 107.699 47.2555C107.827 47.3842 107.977 47.4837 108.14 47.5482C108.303 47.6127 108.475 47.641 108.646 47.6315Z" fill="white"/>
<path d="M116.83 43.8235C116.87 42.9568 117.486 42.8582 118.679 43.5276C118.707 43.5427 118.73 43.5648 118.745 43.5916C118.761 43.6184 118.77 43.6489 118.77 43.68V48.9203C118.77 49.1056 118.675 49.1983 118.486 49.1983H117.191C116.966 49.1983 116.853 49.0862 116.853 48.8621V48.62C116.853 48.372 116.764 48.3361 116.587 48.5124L116.204 48.8935C116.083 49.01 115.942 49.0862 115.78 49.1221C111.829 49.9648 111.229 44.1238 114.463 43.1331C115.281 42.8851 116.004 43.1376 116.632 43.8907C116.755 44.0371 116.821 44.0147 116.83 43.8235ZM115.574 47.6246C115.745 47.6276 115.915 47.593 116.074 47.5227C116.234 47.4525 116.379 47.348 116.503 47.2153C116.626 47.0825 116.725 46.9241 116.793 46.749C116.862 46.574 116.899 46.3857 116.902 46.195C116.906 46.0043 116.875 45.8149 116.813 45.6376C116.751 45.4602 116.657 45.2985 116.539 45.1615C116.42 45.0246 116.278 44.9151 116.122 44.8394C115.965 44.7637 115.796 44.7232 115.625 44.7202C115.454 44.7173 115.284 44.7519 115.124 44.8221C114.965 44.8924 114.819 44.9968 114.696 45.1296C114.572 45.2623 114.474 45.4208 114.405 45.5958C114.336 45.7709 114.299 45.9591 114.296 46.1498C114.293 46.3405 114.323 46.53 114.386 46.7073C114.448 46.8846 114.541 47.0464 114.66 47.1833C114.778 47.3203 114.92 47.4297 115.077 47.5054C115.234 47.5811 115.403 47.6216 115.574 47.6246Z" fill="white"/>
<path d="M119.739 46.6162C119.221 42.7879 124.583 41.7434 125.606 45.1593C125.646 45.2878 125.6 45.373 125.471 45.4148C124.72 45.6599 124.07 45.5717 123.523 45.1503C121.331 43.4514 120.867 47.8086 122.941 47.589C123.092 47.571 123.216 47.5038 123.315 47.3872C123.824 46.7895 124.532 46.6252 125.44 46.8941C125.551 46.927 125.6 47.0017 125.588 47.1183C125.219 50.1172 120.181 49.8886 119.739 46.6162Z" fill="white"/>
</g>
<defs>
<clipPath id="clip0_425_798">
<rect width="161" height="52" fill="white" transform="translate(0.5)"/>
</clipPath>
</defs>
</svg>
