<svg width="18" height="13" viewBox="0 0 18 13" fill="none" xmlns="http://www.w3.org/2000/svg">
<path d="M17 5.7C17.4418 5.7 17.8 6.05817 17.8 6.5C17.8 6.94183 17.4418 7.3 17 7.3V5.7ZM0.434315 7.06569C0.121895 6.75327 0.121895 6.24673 0.434315 5.93431L5.52548 0.843146C5.8379 0.530726 6.34443 0.530726 6.65685 0.843146C6.96927 1.15557 6.96927 1.6621 6.65685 1.97452L2.13137 6.5L6.65685 11.0255C6.96927 11.3379 6.96927 11.8444 6.65685 12.1569C6.34443 12.4693 5.8379 12.4693 5.52548 12.1569L0.434315 7.06569ZM17 7.3L1 7.3V5.7L17 5.7V7.3Z" fill="white"/>
</svg>
