<svg width="502" height="164" viewBox="0 0 502 164" fill="none" xmlns="http://www.w3.org/2000/svg">
<path d="M44.0237 145.869L0.657227 21.6831C208.028 55.325 421.619 35.7006 502 21.6831L455.677 145.869C281.16 177.408 108.307 159.01 44.0237 145.869Z" fill="#020D1C"/>
<ellipse cx="251" cy="20.6976" rx="251" ry="20.6976" fill="black"/>
<path d="M227.814 124.731V109.382H229.412V124.731H227.814ZM233.883 124.731V113.587H235.144V118.276H234.892C234.892 117.253 235.032 116.37 235.312 115.627C235.607 114.884 236.041 114.309 236.616 113.902C237.191 113.482 237.92 113.272 238.803 113.272H238.866C239.749 113.272 240.478 113.475 241.052 113.881C241.627 114.288 242.055 114.863 242.335 115.606C242.615 116.349 242.756 117.239 242.756 118.276H242.251C242.251 117.253 242.391 116.37 242.671 115.627C242.966 114.884 243.4 114.309 243.975 113.902C244.564 113.482 245.3 113.272 246.183 113.272H246.246C247.129 113.272 247.858 113.475 248.433 113.881C249.021 114.288 249.456 114.863 249.736 115.606C250.031 116.349 250.178 117.239 250.178 118.276V124.731H248.601V117.918C248.601 116.937 248.363 116.159 247.886 115.585C247.409 115.01 246.723 114.722 245.825 114.722C244.9 114.722 244.164 115.024 243.618 115.627C243.085 116.215 242.819 117.014 242.819 118.024V124.731H241.242V117.918C241.242 116.937 241.003 116.159 240.527 115.585C240.05 115.01 239.363 114.722 238.466 114.722C237.541 114.722 236.805 115.024 236.259 115.627C235.726 116.215 235.46 117.014 235.46 118.024V124.731H233.883ZM254.108 128.936V113.608H255.369V118.381L254.991 118.423C255.047 117.302 255.285 116.356 255.706 115.585C256.14 114.814 256.722 114.232 257.451 113.839C258.194 113.433 259.021 113.23 259.932 113.23C260.745 113.23 261.481 113.391 262.14 113.713C262.813 114.022 263.38 114.449 263.843 114.996C264.32 115.529 264.677 116.145 264.915 116.846C265.168 117.533 265.294 118.255 265.294 119.012V119.306C265.294 120.063 265.168 120.792 264.915 121.493C264.663 122.18 264.299 122.797 263.822 123.343C263.359 123.876 262.792 124.303 262.119 124.626C261.46 124.934 260.717 125.088 259.89 125.088C259.007 125.088 258.194 124.892 257.451 124.5C256.722 124.093 256.126 123.497 255.664 122.712C255.215 121.927 254.97 120.96 254.928 119.811L255.685 121.388V128.936H254.108ZM259.68 123.701C260.521 123.701 261.243 123.504 261.846 123.112C262.448 122.705 262.911 122.159 263.233 121.472C263.556 120.771 263.717 120 263.717 119.159C263.717 118.29 263.549 117.519 263.212 116.846C262.89 116.159 262.427 115.62 261.825 115.227C261.222 114.821 260.507 114.617 259.68 114.617C258.923 114.617 258.236 114.786 257.619 115.122C257.003 115.458 256.512 115.935 256.147 116.552C255.797 117.155 255.622 117.869 255.622 118.696V119.727C255.622 120.512 255.797 121.206 256.147 121.808C256.512 122.397 257.003 122.86 257.619 123.196C258.236 123.532 258.923 123.701 259.68 123.701ZM268.481 124.731V113.608H269.743V118.255H269.617C269.617 116.629 269.974 115.43 270.689 114.659C271.404 113.874 272.525 113.482 274.053 113.482H274.411V114.912H273.759C272.553 114.912 271.635 115.227 271.004 115.858C270.374 116.475 270.058 117.386 270.058 118.591V124.731H268.481ZM281.465 125.088C280.511 125.088 279.684 124.927 278.984 124.605C278.283 124.268 277.708 123.827 277.259 123.28C276.811 122.719 276.474 122.096 276.25 121.409C276.04 120.722 275.935 120.014 275.935 119.285V118.991C275.935 118.276 276.04 117.575 276.25 116.888C276.474 116.201 276.811 115.585 277.259 115.038C277.708 114.491 278.269 114.057 278.941 113.734C279.628 113.398 280.427 113.23 281.338 113.23C282.502 113.23 283.469 113.489 284.24 114.008C285.025 114.526 285.614 115.192 286.006 116.005C286.399 116.804 286.595 117.666 286.595 118.591V119.411H276.65V118.192H285.502L285.102 118.802C285.102 117.975 284.955 117.253 284.661 116.636C284.38 116.005 283.96 115.514 283.399 115.164C282.852 114.8 282.165 114.617 281.338 114.617C280.469 114.617 279.747 114.821 279.173 115.227C278.598 115.634 278.164 116.173 277.869 116.846C277.589 117.519 277.449 118.283 277.449 119.138C277.449 119.979 277.589 120.75 277.869 121.451C278.164 122.138 278.605 122.684 279.194 123.091C279.797 123.497 280.553 123.701 281.465 123.701C282.432 123.701 283.217 123.483 283.82 123.049C284.422 122.6 284.794 122.075 284.934 121.472H286.406C286.266 122.215 285.971 122.86 285.523 123.406C285.074 123.939 284.506 124.352 283.82 124.647C283.133 124.941 282.348 125.088 281.465 125.088ZM293.142 125.046C291.712 125.046 290.612 124.738 289.841 124.121C289.07 123.49 288.677 122.649 288.663 121.598H290.135C290.163 122.131 290.402 122.614 290.85 123.049C291.313 123.483 292.077 123.701 293.142 123.701C294.137 123.701 294.88 123.497 295.371 123.091C295.875 122.67 296.128 122.166 296.128 121.577C296.128 121.03 295.917 120.61 295.497 120.315C295.09 120.007 294.495 119.811 293.71 119.727L292.448 119.601C291.439 119.488 290.619 119.18 289.988 118.675C289.371 118.157 289.063 117.449 289.063 116.552C289.063 115.893 289.231 115.318 289.568 114.828C289.904 114.337 290.374 113.959 290.976 113.692C291.593 113.412 292.315 113.272 293.142 113.272C294.334 113.272 295.301 113.552 296.044 114.113C296.801 114.673 297.186 115.472 297.2 116.51H295.728C295.714 115.977 295.49 115.529 295.055 115.164C294.621 114.8 293.983 114.617 293.142 114.617C292.273 114.617 291.621 114.807 291.187 115.185C290.766 115.564 290.556 116.026 290.556 116.573C290.556 117.035 290.717 117.421 291.039 117.729C291.362 118.024 291.866 118.206 292.553 118.276L293.815 118.402C294.936 118.528 295.847 118.851 296.548 119.369C297.263 119.888 297.621 120.631 297.621 121.598C297.621 122.257 297.431 122.853 297.053 123.385C296.688 123.904 296.17 124.31 295.497 124.605C294.824 124.899 294.039 125.046 293.142 125.046ZM304.271 125.046C302.841 125.046 301.741 124.738 300.97 124.121C300.199 123.49 299.807 122.649 299.793 121.598H301.264C301.292 122.131 301.531 122.614 301.979 123.049C302.442 123.483 303.206 123.701 304.271 123.701C305.266 123.701 306.009 123.497 306.5 123.091C307.005 122.67 307.257 122.166 307.257 121.577C307.257 121.03 307.047 120.61 306.626 120.315C306.22 120.007 305.624 119.811 304.839 119.727L303.577 119.601C302.568 119.488 301.748 119.18 301.117 118.675C300.5 118.157 300.192 117.449 300.192 116.552C300.192 115.893 300.36 115.318 300.697 114.828C301.033 114.337 301.503 113.959 302.105 113.692C302.722 113.412 303.444 113.272 304.271 113.272C305.463 113.272 306.43 113.552 307.173 114.113C307.93 114.673 308.315 115.472 308.329 116.51H306.857C306.843 115.977 306.619 115.529 306.185 115.164C305.75 114.8 305.112 114.617 304.271 114.617C303.402 114.617 302.75 114.807 302.316 115.185C301.895 115.564 301.685 116.026 301.685 116.573C301.685 117.035 301.846 117.421 302.169 117.729C302.491 118.024 302.996 118.206 303.682 118.276L304.944 118.402C306.065 118.528 306.976 118.851 307.677 119.369C308.392 119.888 308.75 120.631 308.75 121.598C308.75 122.257 308.56 122.853 308.182 123.385C307.818 123.904 307.299 124.31 306.626 124.605C305.953 124.899 305.168 125.046 304.271 125.046ZM312.478 124.731V113.608H314.034V124.731H312.478ZM310.69 114.87V113.608H314.034V114.87H310.69ZM312.814 111.548C312.436 111.548 312.148 111.449 311.952 111.253C311.77 111.043 311.679 110.784 311.679 110.475C311.679 110.167 311.77 109.915 311.952 109.718C312.148 109.508 312.436 109.403 312.814 109.403C313.192 109.403 313.473 109.508 313.655 109.718C313.837 109.915 313.928 110.167 313.928 110.475C313.928 110.784 313.837 111.043 313.655 111.253C313.473 111.449 313.192 111.548 312.814 111.548ZM323.155 125.088C322.202 125.088 321.361 124.927 320.632 124.605C319.917 124.268 319.307 123.827 318.803 123.28C318.312 122.719 317.934 122.096 317.667 121.409C317.415 120.722 317.289 120.021 317.289 119.306V119.012C317.289 118.297 317.422 117.596 317.688 116.909C317.955 116.208 318.34 115.585 318.845 115.038C319.35 114.491 319.959 114.057 320.674 113.734C321.403 113.398 322.23 113.23 323.155 113.23C324.094 113.23 324.921 113.398 325.636 113.734C326.365 114.057 326.982 114.491 327.487 115.038C327.991 115.585 328.37 116.208 328.622 116.909C328.888 117.596 329.022 118.297 329.022 119.012V119.306C329.022 120.021 328.895 120.722 328.643 121.409C328.391 122.096 328.012 122.719 327.508 123.28C327.017 123.827 326.407 124.268 325.678 124.605C324.949 124.927 324.108 125.088 323.155 125.088ZM323.155 123.68C324.08 123.68 324.858 123.476 325.489 123.07C326.134 122.649 326.625 122.103 326.961 121.43C327.297 120.743 327.466 119.986 327.466 119.159C327.466 118.318 327.29 117.561 326.94 116.888C326.604 116.201 326.113 115.662 325.468 115.269C324.823 114.863 324.052 114.659 323.155 114.659C322.272 114.659 321.508 114.863 320.863 115.269C320.219 115.662 319.721 116.201 319.371 116.888C319.034 117.561 318.866 118.318 318.866 119.159C318.866 119.986 319.034 120.743 319.371 121.43C319.707 122.103 320.191 122.649 320.821 123.07C321.466 123.476 322.244 123.68 323.155 123.68ZM332.237 124.731V113.608H333.499V118.276H333.247C333.247 117.239 333.401 116.349 333.709 115.606C334.018 114.863 334.48 114.288 335.097 113.881C335.714 113.475 336.492 113.272 337.431 113.272H337.494C338.896 113.272 339.94 113.713 340.627 114.596C341.314 115.465 341.657 116.692 341.657 118.276V124.731H340.101V117.94C340.101 116.972 339.835 116.194 339.302 115.606C338.77 115.017 338.027 114.722 337.073 114.722C336.092 114.722 335.3 115.031 334.697 115.648C334.109 116.25 333.814 117.049 333.814 118.045V124.731H332.237ZM349.095 125.046C347.666 125.046 346.565 124.738 345.794 124.121C345.023 123.49 344.631 122.649 344.617 121.598H346.089C346.117 122.131 346.355 122.614 346.804 123.049C347.266 123.483 348.03 123.701 349.095 123.701C350.091 123.701 350.834 123.497 351.324 123.091C351.829 122.67 352.081 122.166 352.081 121.577C352.081 121.03 351.871 120.61 351.45 120.315C351.044 120.007 350.448 119.811 349.663 119.727L348.402 119.601C347.392 119.488 346.572 119.18 345.942 118.675C345.325 118.157 345.016 117.449 345.016 116.552C345.016 115.893 345.185 115.318 345.521 114.828C345.857 114.337 346.327 113.959 346.93 113.692C347.547 113.412 348.268 113.272 349.095 113.272C350.287 113.272 351.254 113.552 351.997 114.113C352.754 114.673 353.14 115.472 353.154 116.51H351.682C351.668 115.977 351.443 115.529 351.009 115.164C350.574 114.8 349.937 114.617 349.095 114.617C348.226 114.617 347.575 114.807 347.14 115.185C346.72 115.564 346.509 116.026 346.509 116.573C346.509 117.035 346.67 117.421 346.993 117.729C347.315 118.024 347.82 118.206 348.507 118.276L349.768 118.402C350.89 118.528 351.801 118.851 352.502 119.369C353.217 119.888 353.574 120.631 353.574 121.598C353.574 122.257 353.385 122.853 353.006 123.385C352.642 123.904 352.123 124.31 351.45 124.605C350.778 124.899 349.993 125.046 349.095 125.046Z" fill="white"/>
<path d="M153.619 123.363V112.729H155.451V123.363H153.619ZM149.419 118.895V117.197H159.651V118.895H149.419ZM165.68 125.731V110.495L166.663 111.254H162.061V109.423H167.824V125.731H165.68ZM171.576 121.866V119.23L178.345 109.02L179.842 110.204L173.519 119.766L173.72 120.168H184.265V121.866H171.576ZM180.087 125.731V114.181H182.098V125.731H180.087ZM191.897 126.133C190.646 126.133 189.588 125.88 188.724 125.374C187.86 124.852 187.205 124.175 186.758 123.341C186.312 122.507 186.088 121.62 186.088 120.682H188.188C188.188 121.367 188.337 121.978 188.635 122.514C188.948 123.05 189.38 123.475 189.931 123.787C190.482 124.1 191.137 124.256 191.897 124.256C192.641 124.256 193.289 124.108 193.84 123.81C194.406 123.497 194.846 123.072 195.158 122.536C195.471 121.985 195.627 121.367 195.627 120.682C195.627 119.997 195.471 119.379 195.158 118.828C194.86 118.277 194.428 117.837 193.863 117.51C193.311 117.182 192.656 117.018 191.897 117.018C191.346 117.018 190.787 117.115 190.221 117.309C189.655 117.487 189.201 117.748 188.858 118.091H186.892L187.719 109.423H196.275V111.254H188.97L189.506 110.517L188.881 116.84L188.3 116.638C188.732 116.207 189.253 115.864 189.864 115.611C190.489 115.358 191.197 115.231 191.986 115.231C193.237 115.231 194.287 115.492 195.136 116.013C195.985 116.519 196.625 117.182 197.057 118.001C197.504 118.805 197.727 119.647 197.727 120.526V120.838C197.727 121.717 197.504 122.566 197.057 123.385C196.61 124.189 195.948 124.852 195.069 125.374C194.205 125.88 193.148 126.133 191.897 126.133ZM204.364 125.731L210.529 109.423H212.227L206.061 125.731H204.364ZM203.157 118.18C202.308 118.18 201.616 117.986 201.08 117.599C200.558 117.212 200.171 116.698 199.918 116.058C199.68 115.417 199.56 114.725 199.56 113.98V113.399C199.56 112.595 199.687 111.88 199.94 111.254C200.193 110.614 200.588 110.115 201.124 109.758C201.66 109.385 202.338 109.199 203.157 109.199C203.991 109.199 204.669 109.385 205.19 109.758C205.726 110.115 206.121 110.614 206.374 111.254C206.627 111.88 206.754 112.595 206.754 113.399V113.98C206.754 114.725 206.627 115.417 206.374 116.058C206.136 116.698 205.756 117.212 205.235 117.599C204.714 117.986 204.021 118.18 203.157 118.18ZM203.157 116.705C203.842 116.705 204.349 116.46 204.676 115.968C205.019 115.462 205.19 114.71 205.19 113.712C205.19 112.654 205.019 111.887 204.676 111.411C204.334 110.919 203.827 110.674 203.157 110.674C202.487 110.674 201.981 110.919 201.638 111.411C201.295 111.887 201.124 112.647 201.124 113.69C201.124 114.687 201.288 115.44 201.616 115.946C201.958 116.452 202.472 116.705 203.157 116.705ZM213.344 125.954C212.495 125.954 211.803 125.761 211.267 125.374C210.745 124.986 210.358 124.472 210.105 123.832C209.867 123.192 209.748 122.499 209.748 121.754V121.174C209.748 120.369 209.874 119.654 210.127 119.029C210.381 118.388 210.775 117.89 211.311 117.532C211.848 117.16 212.525 116.974 213.344 116.974C214.178 116.974 214.856 117.16 215.377 117.532C215.913 117.89 216.308 118.388 216.561 119.029C216.815 119.654 216.941 120.369 216.941 121.174V121.754C216.941 122.499 216.815 123.192 216.561 123.832C216.323 124.472 215.943 124.986 215.422 125.374C214.901 125.761 214.208 125.954 213.344 125.954ZM213.344 124.48C214.029 124.48 214.536 124.234 214.863 123.743C215.206 123.236 215.377 122.484 215.377 121.486C215.377 120.429 215.206 119.662 214.863 119.185C214.521 118.694 214.015 118.448 213.344 118.448C212.674 118.448 212.168 118.694 211.825 119.185C211.483 119.662 211.311 120.421 211.311 121.464C211.311 122.462 211.475 123.214 211.803 123.72C212.145 124.227 212.659 124.48 213.344 124.48Z" fill="white"/>
<path d="M162.113 90.0109V87.6139H165.96C166.661 87.6139 167.194 87.4247 167.558 87.0462C167.923 86.6537 168.105 86.121 168.105 85.4482C168.105 84.7754 167.923 84.2567 167.558 83.8923C167.194 83.5138 166.661 83.3246 165.96 83.3246H162.113V81.4953H165.75C166.773 81.4953 167.685 81.6214 168.484 81.8738C169.297 82.1121 169.927 82.5186 170.376 83.0933C170.838 83.668 171.07 84.439 171.07 85.4062V85.7005C171.07 86.6117 170.866 87.3896 170.46 88.0344C170.067 88.6652 169.472 89.1558 168.673 89.5063C167.888 89.8427 166.914 90.0109 165.75 90.0109H162.113ZM159.61 90.0109V74.4515H162.533V90.0109H159.61ZM162.113 82.841V81.0117H165.393C166.108 81.0117 166.633 80.8225 166.97 80.444C167.306 80.0655 167.474 79.5609 167.474 78.9301C167.474 78.2993 167.306 77.7947 166.97 77.4162C166.633 77.0377 166.108 76.8485 165.393 76.8485H162.113V74.4515H165.119C166.857 74.4515 168.175 74.816 169.072 75.5449C169.983 76.2738 170.439 77.3181 170.439 78.6778V78.9721C170.439 79.9253 170.208 80.6893 169.745 81.264C169.297 81.8247 168.673 82.2312 167.874 82.4835C167.075 82.7218 166.157 82.841 165.119 82.841H162.113ZM173.855 89.9058V78.4885H176.168V83.3246H176.105C176.105 81.6845 176.455 80.444 177.156 79.6029C177.857 78.7619 178.887 78.3414 180.247 78.3414H180.668V80.8855H179.869C178.887 80.8855 178.124 81.1519 177.577 81.6845C177.044 82.2032 176.778 82.9601 176.778 83.9554V89.9058H173.855ZM189.479 89.9058V86.5205H188.995V82.7569C188.995 82.098 188.834 81.6074 188.512 81.285C188.189 80.9626 187.692 80.8014 187.019 80.8014C186.668 80.8014 186.248 80.8084 185.757 80.8225C185.267 80.8365 184.769 80.8575 184.264 80.8855C183.774 80.8995 183.332 80.9206 182.94 80.9486V78.4675C183.262 78.4395 183.627 78.4115 184.033 78.3834C184.44 78.3554 184.853 78.3414 185.274 78.3414C185.708 78.3273 186.115 78.3203 186.493 78.3203C187.671 78.3203 188.645 78.4745 189.416 78.7829C190.201 79.0913 190.79 79.5749 191.182 80.2337C191.589 80.8925 191.792 81.7546 191.792 82.8199V89.9058H189.479ZM185.799 90.2001C184.972 90.2001 184.243 90.0529 183.613 89.7586C182.996 89.4642 182.512 89.0437 182.162 88.497C181.825 87.9503 181.657 87.2915 181.657 86.5205C181.657 85.6795 181.86 84.9926 182.267 84.46C182.688 83.9273 183.269 83.5278 184.012 83.2615C184.769 82.9952 185.652 82.862 186.661 82.862H189.311V84.6072H186.619C185.947 84.6072 185.428 84.7754 185.063 85.1118C184.713 85.4342 184.538 85.8547 184.538 86.3734C184.538 86.892 184.713 87.3125 185.063 87.6349C185.428 87.9573 185.947 88.1185 186.619 88.1185C187.026 88.1185 187.397 88.0484 187.734 87.9083C188.084 87.7541 188.372 87.5018 188.596 87.1513C188.834 86.7869 188.967 86.2963 188.995 85.6795L189.71 86.4995C189.64 87.2985 189.444 87.9714 189.122 88.518C188.813 89.0647 188.379 89.4852 187.818 89.7796C187.271 90.06 186.598 90.2001 185.799 90.2001ZM194.922 89.9058V78.4885H197.235V83.3876H197.025C197.025 82.2242 197.179 81.257 197.488 80.486C197.796 79.7011 198.252 79.1123 198.854 78.7198C199.471 78.3273 200.235 78.1311 201.146 78.1311H201.272C202.632 78.1311 203.662 78.5727 204.363 79.4558C205.064 80.3248 205.415 81.6285 205.415 83.3666V89.9058H202.492V83.1143C202.492 82.4134 202.289 81.8457 201.882 81.4112C201.49 80.9766 200.943 80.7594 200.242 80.7594C199.527 80.7594 198.945 80.9837 198.497 81.4322C198.062 81.8668 197.845 82.4555 197.845 83.1984V89.9058H194.922ZM213.287 90.2842C212.488 90.2842 211.753 90.137 211.08 89.8427C210.407 89.5483 209.825 89.1348 209.335 88.6021C208.844 88.0695 208.465 87.4527 208.199 86.7518C207.933 86.0369 207.8 85.266 207.8 84.439V83.9974C207.8 83.1844 207.926 82.4204 208.178 81.7056C208.444 80.9907 208.809 80.3669 209.271 79.8342C209.748 79.3016 210.316 78.888 210.975 78.5937C211.647 78.2853 212.39 78.1311 213.203 78.1311C214.101 78.1311 214.885 78.3273 215.558 78.7198C216.245 79.0983 216.792 79.673 217.198 80.444C217.605 81.2149 217.829 82.1821 217.871 83.3456L217.009 82.3363V74.5567H219.932V89.9058H217.619V85.0487H218.124C218.081 86.2122 217.843 87.1864 217.409 87.9714C216.974 88.7423 216.399 89.324 215.684 89.7165C214.984 90.095 214.185 90.2842 213.287 90.2842ZM213.939 87.8242C214.514 87.8242 215.04 87.698 215.516 87.4457C215.993 87.1794 216.371 86.8009 216.652 86.3103C216.946 85.8057 217.093 85.2169 217.093 84.5441V83.703C217.093 83.0302 216.946 82.4695 216.652 82.0209C216.357 81.5584 215.972 81.2079 215.495 80.9696C215.019 80.7173 214.5 80.5912 213.939 80.5912C213.309 80.5912 212.748 80.7454 212.257 81.0537C211.781 81.3481 211.402 81.7686 211.122 82.3153C210.855 82.862 210.722 83.4998 210.722 84.2287C210.722 84.9576 210.862 85.5954 211.143 86.1421C211.423 86.6747 211.802 87.0883 212.278 87.3826C212.769 87.677 213.323 87.8242 213.939 87.8242ZM226.514 89.9058L231.749 74.5567H236.627L242.01 89.9058H238.94L234.378 76.5962L235.45 77.0588H232.822L233.915 76.5962L229.499 89.9058H226.514ZM230.172 85.8267L231.119 83.3035H237.342L238.267 85.8267H230.172ZM247.682 89.9058L249.848 78.867H253.212L255.714 89.9058H253.401L250.857 78.9301H252.077L249.827 89.9058H247.682ZM246.82 89.9058L246.799 87.5088H249.133V89.9058H246.82ZM245.643 89.9058L242.531 78.4885H245.369L248.334 89.9058H245.643ZM254.137 89.9058V87.5088H256.471L256.45 89.9058H254.137ZM255.062 89.9058L257.691 78.4885H260.34L257.586 89.9058H255.062ZM269.415 89.9058V86.5205H268.932V82.7569C268.932 82.098 268.771 81.6074 268.448 81.285C268.126 80.9626 267.628 80.8014 266.955 80.8014C266.605 80.8014 266.184 80.8084 265.694 80.8225C265.203 80.8365 264.706 80.8575 264.201 80.8855C263.71 80.8995 263.269 80.9206 262.876 80.9486V78.4675C263.199 78.4395 263.563 78.4115 263.97 78.3834C264.376 78.3554 264.79 78.3414 265.21 78.3414C265.645 78.3273 266.051 78.3203 266.43 78.3203C267.607 78.3203 268.581 78.4745 269.352 78.7829C270.137 79.0913 270.726 79.5749 271.119 80.2337C271.525 80.8925 271.728 81.7546 271.728 82.8199V89.9058H269.415ZM265.736 90.2001C264.909 90.2001 264.18 90.0529 263.549 89.7586C262.932 89.4642 262.449 89.0437 262.098 88.497C261.762 87.9503 261.594 87.2915 261.594 86.5205C261.594 85.6795 261.797 84.9926 262.203 84.46C262.624 83.9273 263.206 83.5278 263.949 83.2615C264.706 82.9952 265.589 82.862 266.598 82.862H269.247V84.6072H266.556C265.883 84.6072 265.364 84.7754 265 85.1118C264.649 85.4342 264.474 85.8547 264.474 86.3734C264.474 86.892 264.649 87.3125 265 87.6349C265.364 87.9573 265.883 88.1185 266.556 88.1185C266.962 88.1185 267.334 88.0484 267.67 87.9083C268.021 87.7541 268.308 87.5018 268.532 87.1513C268.771 86.7869 268.904 86.2963 268.932 85.6795L269.647 86.4995C269.577 87.2985 269.38 87.9714 269.058 88.518C268.75 89.0647 268.315 89.4852 267.754 89.7796C267.208 90.06 266.535 90.2001 265.736 90.2001ZM274.859 89.9058V78.4885H277.172V83.3246H277.109C277.109 81.6845 277.459 80.444 278.16 79.6029C278.861 78.7619 279.891 78.3414 281.251 78.3414H281.671V80.8855H280.872C279.891 80.8855 279.127 81.1519 278.581 81.6845C278.048 82.2032 277.782 82.9601 277.782 83.9554V89.9058H274.859ZM288.654 90.3053C287.673 90.3053 286.811 90.137 286.068 89.8006C285.339 89.4642 284.729 89.0157 284.238 88.455C283.762 87.8802 283.397 87.2424 283.145 86.5416C282.907 85.8407 282.788 85.1258 282.788 84.3969V83.9974C282.788 83.2405 282.907 82.5116 283.145 81.8107C283.397 81.0958 283.762 80.465 284.238 79.9183C284.729 79.3576 285.332 78.9161 286.047 78.5937C286.761 78.2573 287.589 78.089 288.528 78.089C289.761 78.089 290.792 78.3624 291.619 78.9091C292.46 79.4417 293.09 80.1496 293.511 81.0327C293.931 81.9018 294.142 82.841 294.142 83.8502V84.9015H284.028V83.1143H292.312L291.408 83.9974C291.408 83.2685 291.303 82.6447 291.093 82.1261C290.883 81.6074 290.56 81.2079 290.126 80.9276C289.705 80.6472 289.172 80.5071 288.528 80.5071C287.883 80.5071 287.336 80.6542 286.888 80.9486C286.439 81.243 286.096 81.6705 285.857 82.2312C285.633 82.7779 285.521 83.4367 285.521 84.2077C285.521 84.9226 285.633 85.5604 285.857 86.121C286.082 86.6677 286.425 87.1023 286.888 87.4247C287.35 87.7331 287.939 87.8872 288.654 87.8872C289.369 87.8872 289.95 87.7471 290.399 87.4667C290.848 87.1724 291.135 86.8149 291.261 86.3944H293.952C293.784 87.1794 293.462 87.8662 292.985 88.455C292.509 89.0437 291.899 89.4993 291.156 89.8217C290.427 90.1441 289.593 90.3053 288.654 90.3053ZM296.583 89.9058V78.4885H298.896V83.3876H298.686C298.686 82.2242 298.84 81.257 299.148 80.486C299.457 79.7011 299.912 79.1123 300.515 78.7198C301.132 78.3273 301.896 78.1311 302.807 78.1311H302.933C304.293 78.1311 305.323 78.5727 306.024 79.4558C306.725 80.3248 307.075 81.6285 307.075 83.3666V89.9058H304.153V83.1143C304.153 82.4134 303.949 81.8457 303.543 81.4112C303.15 80.9766 302.604 80.7594 301.903 80.7594C301.188 80.7594 300.606 80.9837 300.158 81.4322C299.723 81.8668 299.506 82.4555 299.506 83.1984V89.9058H296.583ZM315.327 90.3053C314.345 90.3053 313.483 90.137 312.74 89.8006C312.012 89.4642 311.402 89.0157 310.911 88.455C310.435 87.8802 310.07 87.2424 309.818 86.5416C309.58 85.8407 309.46 85.1258 309.46 84.3969V83.9974C309.46 83.2405 309.58 82.5116 309.818 81.8107C310.07 81.0958 310.435 80.465 310.911 79.9183C311.402 79.3576 312.005 78.9161 312.719 78.5937C313.434 78.2573 314.261 78.089 315.201 78.089C316.434 78.089 317.464 78.3624 318.291 78.9091C319.132 79.4417 319.763 80.1496 320.184 81.0327C320.604 81.9018 320.815 82.841 320.815 83.8502V84.9015H310.701V83.1143H318.985L318.081 83.9974C318.081 83.2685 317.976 82.6447 317.766 82.1261C317.555 81.6074 317.233 81.2079 316.799 80.9276C316.378 80.6472 315.845 80.5071 315.201 80.5071C314.556 80.5071 314.009 80.6542 313.561 80.9486C313.112 81.243 312.769 81.6705 312.53 82.2312C312.306 82.7779 312.194 83.4367 312.194 84.2077C312.194 84.9226 312.306 85.5604 312.53 86.121C312.755 86.6677 313.098 87.1023 313.561 87.4247C314.023 87.7331 314.612 87.8872 315.327 87.8872C316.042 87.8872 316.623 87.7471 317.072 87.4667C317.52 87.1724 317.808 86.8149 317.934 86.3944H320.625C320.457 87.1794 320.135 87.8662 319.658 88.455C319.182 89.0437 318.572 89.4993 317.829 89.8217C317.1 90.1441 316.266 90.3053 315.327 90.3053ZM327.398 90.2632C325.828 90.2632 324.595 89.9338 323.698 89.275C322.814 88.6021 322.352 87.677 322.31 86.4995H324.938C324.98 86.892 325.197 87.2495 325.59 87.5719C325.982 87.8943 326.599 88.0555 327.44 88.0555C328.141 88.0555 328.695 87.9293 329.101 87.677C329.522 87.4247 329.732 87.0812 329.732 86.6467C329.732 86.2682 329.571 85.9669 329.248 85.7426C328.94 85.5183 328.407 85.3711 327.651 85.301L326.641 85.1959C325.366 85.0557 324.384 84.6913 323.698 84.1025C323.011 83.5138 322.667 82.7288 322.667 81.7476C322.667 80.9626 322.864 80.3038 323.256 79.7711C323.649 79.2385 324.188 78.839 324.875 78.5727C325.576 78.2923 326.375 78.1521 327.272 78.1521C328.674 78.1521 329.809 78.4605 330.678 79.0773C331.547 79.694 332.003 80.5982 332.045 81.7897H329.417C329.389 81.3972 329.192 81.0607 328.828 80.7804C328.464 80.5001 327.938 80.3599 327.251 80.3599C326.634 80.3599 326.158 80.479 325.821 80.7173C325.485 80.9556 325.317 81.264 325.317 81.6425C325.317 82.0069 325.45 82.2873 325.716 82.4835C325.996 82.6798 326.445 82.8129 327.062 82.883L328.071 82.9881C329.417 83.1283 330.468 83.4998 331.225 84.1025C331.996 84.7053 332.381 85.5183 332.381 86.5416C332.381 87.2985 332.171 87.9573 331.751 88.518C331.344 89.0647 330.769 89.4922 330.026 89.8006C329.284 90.109 328.407 90.2632 327.398 90.2632ZM338.938 90.2632C337.368 90.2632 336.134 89.9338 335.237 89.275C334.354 88.6021 333.892 87.677 333.85 86.4995H336.478C336.52 86.892 336.737 87.2495 337.13 87.5719C337.522 87.8943 338.139 88.0555 338.98 88.0555C339.681 88.0555 340.235 87.9293 340.641 87.677C341.062 87.4247 341.272 87.0812 341.272 86.6467C341.272 86.2682 341.111 85.9669 340.788 85.7426C340.48 85.5183 339.947 85.3711 339.19 85.301L338.181 85.1959C336.905 85.0557 335.924 84.6913 335.237 84.1025C334.55 83.5138 334.207 82.7288 334.207 81.7476C334.207 80.9626 334.403 80.3038 334.796 79.7711C335.188 79.2385 335.728 78.839 336.415 78.5727C337.116 78.2923 337.915 78.1521 338.812 78.1521C340.214 78.1521 341.349 78.4605 342.218 79.0773C343.087 79.694 343.543 80.5982 343.585 81.7897H340.956C340.928 81.3972 340.732 81.0607 340.368 80.7804C340.003 80.5001 339.478 80.3599 338.791 80.3599C338.174 80.3599 337.697 80.479 337.361 80.7173C337.025 80.9556 336.856 81.264 336.856 81.6425C336.856 82.0069 336.99 82.2873 337.256 82.4835C337.536 82.6798 337.985 82.8129 338.602 82.883L339.611 82.9881C340.956 83.1283 342.008 83.4998 342.765 84.1025C343.536 84.7053 343.921 85.5183 343.921 86.5416C343.921 87.2985 343.711 87.9573 343.29 88.518C342.884 89.0647 342.309 89.4922 341.566 89.8006C340.823 90.109 339.947 90.2632 338.938 90.2632Z" fill="white"/>
</svg>
