<svg width="412" height="150" viewBox="0 0 412 150" fill="none" xmlns="http://www.w3.org/2000/svg">
<path d="M411.204 6.42831C411.204 12.7721 319.208 24.7215 205.725 24.7215C92.2415 24.7215 0.245117 12.7721 0.245117 6.42831C0.245117 0.0845197 92.2415 0.046875 205.725 0.046875C319.208 0.046875 411.204 0.0845197 411.204 6.42831Z" fill="#000F23"/>
<path d="M36.1641 131.617L0.0253906 6.77441C130.125 26.1579 268.438 31.743 411.35 6.77441L374.554 131.617C231.09 163.229 89.0089 144.789 36.1641 131.617Z" fill="#051A37"/>
<path d="M124.131 75.3966C122.814 75.3966 121.65 75.1793 120.641 74.7448C119.646 74.2962 118.805 73.7005 118.118 72.9575C117.445 72.2006 116.933 71.3525 116.583 70.4134C116.246 69.4602 116.078 68.4719 116.078 67.4487V66.9861C116.078 66.0189 116.246 65.0727 116.583 64.1476C116.919 63.2224 117.41 62.3884 118.055 61.6454C118.713 60.9025 119.519 60.3138 120.473 59.8792C121.44 59.4307 122.547 59.2064 123.795 59.2064C125.14 59.2064 126.332 59.4587 127.369 59.9634C128.407 60.454 129.241 61.1478 129.871 62.0449C130.502 62.928 130.874 63.9583 130.986 65.1358H127.979C127.881 64.477 127.636 63.9163 127.243 63.4537C126.851 62.9771 126.353 62.6127 125.75 62.3603C125.161 62.108 124.51 61.9819 123.795 61.9819C123.08 61.9819 122.428 62.108 121.839 62.3603C121.265 62.6127 120.774 62.9701 120.368 63.4327C119.961 63.8952 119.646 64.4489 119.421 65.0937C119.211 65.7385 119.106 66.4534 119.106 67.2384C119.106 68.0935 119.225 68.8574 119.463 69.5303C119.702 70.2031 120.038 70.7778 120.473 71.2544C120.907 71.717 121.433 72.0744 122.05 72.3267C122.666 72.565 123.36 72.6842 124.131 72.6842C125.154 72.6842 126.052 72.4739 126.823 72.0534C127.594 71.6189 128.154 71.0582 128.505 70.3713L127.979 72.7893V68.8364H130.733V72.2426C130.075 73.2379 129.177 74.0158 128.042 74.5765C126.907 75.1232 125.603 75.3966 124.131 75.3966ZM123.648 69.4251V67.1964H132.016V69.4251H123.648ZM141.163 74.9971V71.6119H140.679V67.8482C140.679 67.1893 140.518 66.6987 140.196 66.3763C139.873 66.0539 139.376 65.8927 138.703 65.8927C138.353 65.8927 137.932 65.8997 137.441 65.9138C136.951 65.9278 136.453 65.9488 135.949 65.9768C135.458 65.9909 135.016 66.0119 134.624 66.0399V63.5588C134.946 63.5308 135.311 63.5028 135.717 63.4747C136.124 63.4467 136.537 63.4327 136.958 63.4327C137.392 63.4187 137.799 63.4116 138.177 63.4116C139.355 63.4116 140.329 63.5658 141.1 63.8742C141.885 64.1826 142.474 64.6662 142.866 65.325C143.273 65.9838 143.476 66.8459 143.476 67.9112V74.9971H141.163ZM137.483 75.2914C136.656 75.2914 135.928 75.1443 135.297 74.8499C134.68 74.5555 134.196 74.135 133.846 73.5883C133.51 73.0416 133.341 72.3828 133.341 71.6119C133.341 70.7708 133.545 70.084 133.951 69.5513C134.372 69.0186 134.953 68.6191 135.696 68.3528C136.453 68.0865 137.336 67.9533 138.346 67.9533H140.995V69.6985H138.303C137.631 69.6985 137.112 69.8667 136.748 70.2031C136.397 70.5255 136.222 70.946 136.222 71.4647C136.222 71.9833 136.397 72.4038 136.748 72.7262C137.112 73.0486 137.631 73.2098 138.303 73.2098C138.71 73.2098 139.081 73.1398 139.418 72.9996C139.768 72.8454 140.056 72.5931 140.28 72.2426C140.518 71.8782 140.651 71.3876 140.679 70.7708L141.394 71.5908C141.324 72.3898 141.128 73.0627 140.806 73.6093C140.497 74.156 140.063 74.5765 139.502 74.8709C138.955 75.1513 138.282 75.2914 137.483 75.2914ZM150.496 75.3545C149.179 75.3545 148.155 74.92 147.427 74.0509C146.712 73.1818 146.354 71.8922 146.354 70.1821V63.5588H149.277V70.4344C149.277 71.1353 149.473 71.696 149.866 72.1165C150.258 72.523 150.791 72.7262 151.464 72.7262C152.136 72.7262 152.683 72.509 153.104 72.0744C153.538 71.6399 153.755 71.0512 153.755 70.3082V63.5588H156.678V74.9971H154.365V70.14H154.596C154.596 71.2895 154.449 72.2496 154.155 73.0206C153.861 73.7916 153.419 74.3733 152.83 74.7658C152.242 75.1583 151.506 75.3545 150.623 75.3545H150.496ZM164.493 79.4967C163.946 79.4967 163.386 79.4756 162.811 79.4336C162.25 79.3915 161.724 79.3355 161.234 79.2654V76.8263C161.738 76.8824 162.278 76.9315 162.853 76.9735C163.428 77.0296 163.967 77.0576 164.472 77.0576C165.411 77.0576 166.168 76.9455 166.743 76.7212C167.331 76.4969 167.759 76.1395 168.025 75.6489C168.306 75.1723 168.446 74.5625 168.446 73.8196V71.5698L169.077 70.14C169.035 71.1913 168.817 72.0884 168.425 72.8314C168.032 73.5603 167.5 74.121 166.827 74.5135C166.154 74.8919 165.376 75.0812 164.493 75.0812C163.708 75.0812 162.993 74.934 162.348 74.6396C161.717 74.3453 161.171 73.9388 160.708 73.4201C160.26 72.9015 159.909 72.2917 159.657 71.5908C159.405 70.89 159.278 70.14 159.278 69.341V68.8995C159.278 68.1005 159.405 67.3576 159.657 66.6707C159.923 65.9698 160.295 65.3601 160.771 64.8414C161.248 64.3228 161.816 63.9233 162.474 63.6429C163.133 63.3626 163.862 63.2224 164.661 63.2224C165.6 63.2224 166.413 63.4257 167.1 63.8322C167.801 64.2387 168.348 64.8274 168.74 65.5984C169.133 66.3693 169.35 67.3155 169.392 68.4369L168.887 68.521V63.5799H171.2V73.6514C171.2 75.0391 170.962 76.1605 170.485 77.0156C170.009 77.8706 169.273 78.4944 168.278 78.8869C167.296 79.2934 166.035 79.4967 164.493 79.4967ZM165.334 72.5791C165.895 72.5791 166.406 72.4529 166.869 72.2006C167.331 71.9483 167.703 71.5838 167.983 71.1072C168.264 70.6306 168.404 70.0559 168.404 69.3831V68.6472C168.404 68.0024 168.257 67.4557 167.962 67.0071C167.682 66.5586 167.31 66.2221 166.848 65.9979C166.385 65.7596 165.881 65.6404 165.334 65.6404C164.717 65.6404 164.171 65.7876 163.694 66.082C163.231 66.3623 162.867 66.7618 162.601 67.2805C162.334 67.7991 162.201 68.4159 162.201 69.1308C162.201 69.8316 162.334 70.4414 162.601 70.96C162.867 71.4787 163.231 71.8782 163.694 72.1585C164.171 72.4389 164.717 72.5791 165.334 72.5791ZM174.935 74.9971V63.5799H177.858V74.9971H174.935ZM173.337 65.7666V63.5799H177.858V65.7666H173.337ZM176.007 62.2132C175.432 62.2132 175.005 62.066 174.725 61.7716C174.458 61.4632 174.325 61.0847 174.325 60.6362C174.325 60.1596 174.458 59.7741 174.725 59.4798C175.005 59.1854 175.432 59.0382 176.007 59.0382C176.582 59.0382 177.002 59.1854 177.269 59.4798C177.535 59.7741 177.668 60.1596 177.668 60.6362C177.668 61.0847 177.535 61.4632 177.269 61.7716C177.002 62.066 176.582 62.2132 176.007 62.2132ZM181.226 74.9971V63.5799H183.539V68.479H183.328C183.328 67.3155 183.483 66.3483 183.791 65.5773C184.099 64.7924 184.555 64.2036 185.158 63.8111C185.774 63.4187 186.538 63.2224 187.45 63.2224H187.576C188.935 63.2224 189.966 63.664 190.667 64.5471C191.367 65.4161 191.718 66.7198 191.718 68.4579V74.9971H188.795V68.2056C188.795 67.5047 188.592 66.937 188.185 66.5025C187.793 66.068 187.246 65.8507 186.545 65.8507C185.831 65.8507 185.249 66.075 184.8 66.5235C184.366 66.9581 184.148 67.5468 184.148 68.2897V74.9971H181.226ZM199.318 79.4967C198.771 79.4967 198.21 79.4756 197.635 79.4336C197.075 79.3915 196.549 79.3355 196.058 79.2654V76.8263C196.563 76.8824 197.103 76.9315 197.677 76.9735C198.252 77.0296 198.792 77.0576 199.296 77.0576C200.236 77.0576 200.993 76.9455 201.567 76.7212C202.156 76.4969 202.584 76.1395 202.85 75.6489C203.13 75.1723 203.27 74.5625 203.27 73.8196V71.5698L203.901 70.14C203.859 71.1913 203.642 72.0884 203.249 72.8314C202.857 73.5603 202.324 74.121 201.651 74.5135C200.979 74.8919 200.201 75.0812 199.318 75.0812C198.533 75.0812 197.818 74.934 197.173 74.6396C196.542 74.3453 195.995 73.9388 195.533 73.4201C195.084 72.9015 194.734 72.2917 194.481 71.5908C194.229 70.89 194.103 70.14 194.103 69.341V68.8995C194.103 68.1005 194.229 67.3576 194.481 66.6707C194.748 65.9698 195.119 65.3601 195.596 64.8414C196.072 64.3228 196.64 63.9233 197.299 63.6429C197.958 63.3626 198.687 63.2224 199.486 63.2224C200.425 63.2224 201.238 63.4257 201.925 63.8322C202.626 64.2387 203.172 64.8274 203.565 65.5984C203.957 66.3693 204.175 67.3155 204.217 68.4369L203.712 68.521V63.5799H206.025V73.6514C206.025 75.0391 205.787 76.1605 205.31 77.0156C204.833 77.8706 204.097 78.4944 203.102 78.8869C202.121 79.2934 200.859 79.4967 199.318 79.4967ZM200.159 72.5791C200.719 72.5791 201.231 72.4529 201.693 72.2006C202.156 71.9483 202.528 71.5838 202.808 71.1072C203.088 70.6306 203.228 70.0559 203.228 69.3831V68.6472C203.228 68.0024 203.081 67.4557 202.787 67.0071C202.506 66.5586 202.135 66.2221 201.672 65.9979C201.21 65.7596 200.705 65.6404 200.159 65.6404C199.542 65.6404 198.995 65.7876 198.519 66.082C198.056 66.3623 197.691 66.7618 197.425 67.2805C197.159 67.7991 197.026 68.4159 197.026 69.1308C197.026 69.8316 197.159 70.4414 197.425 70.96C197.691 71.4787 198.056 71.8782 198.519 72.1585C198.995 72.4389 199.542 72.5791 200.159 72.5791ZM214.024 74.9971V59.648H217.01V74.9971H214.024ZM220.609 74.9971V63.5799H222.922V68.479H222.711C222.711 67.3155 222.866 66.3483 223.174 65.5773C223.482 64.7924 223.938 64.2036 224.541 63.8111C225.157 63.4187 225.921 63.2224 226.833 63.2224H226.959C228.318 63.2224 229.349 63.664 230.05 64.5471C230.75 65.4161 231.101 66.7198 231.101 68.4579V74.9971H228.178V68.2056C228.178 67.5047 227.975 66.937 227.568 66.5025C227.176 66.068 226.629 65.8507 225.928 65.8507C225.214 65.8507 224.632 66.075 224.183 66.5235C223.749 66.9581 223.531 67.5468 223.531 68.2897V74.9971H220.609ZM239.205 75.1443C238.154 75.1443 237.285 75.0111 236.598 74.7448C235.925 74.4644 235.42 74.0018 235.084 73.357C234.748 72.6982 234.579 71.8151 234.579 70.7077L234.6 60.3629H237.334L237.313 70.897C237.313 71.4577 237.46 71.8922 237.754 72.2006C238.063 72.495 238.497 72.6421 239.058 72.6421H240.845V75.1443H239.205ZM232.771 65.7245V63.5799H240.845V65.7245H232.771ZM248.346 75.3966C247.365 75.3966 246.503 75.2284 245.76 74.8919C245.031 74.5555 244.421 74.107 243.93 73.5463C243.454 72.9715 243.089 72.3338 242.837 71.6329C242.599 70.932 242.48 70.2171 242.48 69.4882V69.0887C242.48 68.3318 242.599 67.6029 242.837 66.902C243.089 66.1871 243.454 65.5563 243.93 65.0096C244.421 64.4489 245.024 64.0074 245.739 63.685C246.454 63.3486 247.281 63.1804 248.22 63.1804C249.453 63.1804 250.484 63.4537 251.311 64.0004C252.152 64.533 252.782 65.2409 253.203 66.124C253.624 66.9931 253.834 67.9323 253.834 68.9415V69.9928H243.72V68.2056H252.005L251.1 69.0887C251.1 68.3598 250.995 67.736 250.785 67.2174C250.575 66.6987 250.252 66.2992 249.818 66.0189C249.397 65.7385 248.865 65.5984 248.22 65.5984C247.575 65.5984 247.028 65.7456 246.58 66.0399C246.131 66.3343 245.788 66.7618 245.549 67.3225C245.325 67.8692 245.213 68.528 245.213 69.299C245.213 70.0139 245.325 70.6517 245.549 71.2124C245.774 71.759 246.117 72.1936 246.58 72.516C247.042 72.8244 247.631 72.9786 248.346 72.9786C249.061 72.9786 249.643 72.8384 250.091 72.558C250.54 72.2637 250.827 71.9062 250.953 71.4857H253.645C253.476 72.2707 253.154 72.9575 252.677 73.5463C252.201 74.135 251.591 74.5906 250.848 74.913C250.119 75.2354 249.285 75.3966 248.346 75.3966ZM256.275 74.9971V63.5799H258.588V68.4159H258.525C258.525 66.7758 258.876 65.5353 259.576 64.6942C260.277 63.8532 261.308 63.4327 262.667 63.4327H263.088V65.9768H262.289C261.308 65.9768 260.544 66.2432 259.997 66.7758C259.464 67.2945 259.198 68.0514 259.198 69.0467V74.9971H256.275ZM270.07 75.3966C269.089 75.3966 268.227 75.2284 267.484 74.8919C266.755 74.5555 266.145 74.107 265.655 73.5463C265.178 72.9715 264.814 72.3338 264.561 71.6329C264.323 70.932 264.204 70.2171 264.204 69.4882V69.0887C264.204 68.3318 264.323 67.6029 264.561 66.902C264.814 66.1871 265.178 65.5563 265.655 65.0096C266.145 64.4489 266.748 64.0074 267.463 63.685C268.178 63.3486 269.005 63.1804 269.944 63.1804C271.178 63.1804 272.208 63.4537 273.035 64.0004C273.876 64.533 274.507 65.2409 274.927 66.124C275.348 66.9931 275.558 67.9323 275.558 68.9415V69.9928H265.445V68.2056H273.729L272.825 69.0887C272.825 68.3598 272.72 67.736 272.509 67.2174C272.299 66.6987 271.977 66.2992 271.542 66.0189C271.122 65.7385 270.589 65.5984 269.944 65.5984C269.299 65.5984 268.753 65.7456 268.304 66.0399C267.856 66.3343 267.512 66.7618 267.274 67.3225C267.05 67.8692 266.937 68.528 266.937 69.299C266.937 70.0139 267.05 70.6517 267.274 71.2124C267.498 71.759 267.841 72.1936 268.304 72.516C268.767 72.8244 269.355 72.9786 270.07 72.9786C270.785 72.9786 271.367 72.8384 271.815 72.558C272.264 72.2637 272.551 71.9062 272.678 71.4857H275.369C275.201 72.2707 274.878 72.9575 274.402 73.5463C273.925 74.135 273.315 74.5906 272.572 74.913C271.843 75.2354 271.009 75.3966 270.07 75.3966ZM282.142 75.3545C280.572 75.3545 279.338 75.0251 278.441 74.3663C277.558 73.6934 277.095 72.7683 277.053 71.5908H279.682C279.724 71.9833 279.941 72.3408 280.334 72.6632C280.726 72.9856 281.343 73.1468 282.184 73.1468C282.885 73.1468 283.438 73.0206 283.845 72.7683C284.265 72.516 284.476 72.1726 284.476 71.738C284.476 71.3595 284.314 71.0582 283.992 70.8339C283.684 70.6096 283.151 70.4624 282.394 70.3923L281.385 70.2872C280.109 70.147 279.128 69.7826 278.441 69.1938C277.754 68.6051 277.411 67.8201 277.411 66.8389C277.411 66.0539 277.607 65.3951 278 64.8625C278.392 64.3298 278.932 63.9303 279.619 63.664C280.319 63.3836 281.118 63.2434 282.016 63.2434C283.417 63.2434 284.553 63.5518 285.422 64.1686C286.291 64.7854 286.746 65.6895 286.789 66.881H284.16C284.132 66.4885 283.936 66.1521 283.572 65.8717C283.207 65.5914 282.681 65.4512 281.995 65.4512C281.378 65.4512 280.901 65.5703 280.565 65.8086C280.228 66.0469 280.06 66.3553 280.06 66.7338C280.06 67.0982 280.193 67.3786 280.46 67.5748C280.74 67.7711 281.189 67.9042 281.805 67.9743L282.815 68.0795C284.16 68.2196 285.212 68.5911 285.969 69.1938C286.739 69.7966 287.125 70.6096 287.125 71.6329C287.125 72.3898 286.915 73.0486 286.494 73.6093C286.088 74.156 285.513 74.5836 284.77 74.8919C284.027 75.2003 283.151 75.3545 282.142 75.3545ZM294.502 75.1443C293.45 75.1443 292.581 75.0111 291.894 74.7448C291.221 74.4644 290.717 74.0018 290.38 73.357C290.044 72.6982 289.876 71.8151 289.876 70.7077L289.897 60.3629H292.63L292.609 70.897C292.609 71.4577 292.756 71.8922 293.051 72.2006C293.359 72.495 293.794 72.6421 294.354 72.6421H296.142V75.1443H294.502ZM288.068 65.7245V63.5799H296.142V65.7245H288.068Z" fill="white"/>
<path d="M213.308 110.179C211.934 110.179 210.757 109.941 209.776 109.464C208.809 108.974 208.017 108.336 207.4 107.551C206.797 106.766 206.356 105.918 206.075 105.007C205.795 104.082 205.655 103.185 205.655 102.315V101.916C205.655 100.977 205.795 100.045 206.075 99.1195C206.37 98.1803 206.818 97.3322 207.421 96.5753C208.038 95.8183 208.823 95.2156 209.776 94.767C210.729 94.3045 211.857 94.0732 213.161 94.0732C214.479 94.0732 215.614 94.3045 216.567 94.767C217.534 95.2296 218.305 95.8814 218.88 96.7225C219.455 97.5495 219.805 98.5307 219.931 99.6661H218.312C218.2 98.755 217.906 97.9981 217.429 97.3953C216.953 96.7785 216.343 96.316 215.6 96.0076C214.871 95.6992 214.058 95.545 213.161 95.545C212.194 95.545 211.339 95.7202 210.596 96.0707C209.867 96.4071 209.257 96.8837 208.767 97.5004C208.276 98.1032 207.904 98.8041 207.652 99.6031C207.4 100.388 207.274 101.229 207.274 102.126C207.274 102.981 207.393 103.801 207.631 104.586C207.883 105.371 208.262 106.079 208.767 106.71C209.271 107.327 209.902 107.817 210.659 108.182C211.416 108.532 212.299 108.707 213.308 108.707C214.71 108.707 215.887 108.357 216.841 107.656C217.794 106.941 218.383 105.918 218.607 104.586H220.226C220.072 105.638 219.707 106.591 219.132 107.446C218.558 108.287 217.78 108.953 216.799 109.443C215.831 109.934 214.668 110.179 213.308 110.179ZM223.21 109.822V94.4727H224.787V109.822H223.21ZM221.591 95.7553V94.4727H224.787V95.7553H221.591ZM229.464 109.822V98.6989H231.02V109.822H229.464ZM227.677 99.9605V98.6989H231.02V99.9605H227.677ZM229.8 96.6384C229.422 96.6384 229.134 96.5402 228.938 96.344C228.756 96.1337 228.665 95.8744 228.665 95.566C228.665 95.2576 228.756 95.0053 228.938 94.8091C229.134 94.5988 229.422 94.4937 229.8 94.4937C230.179 94.4937 230.459 94.5988 230.641 94.8091C230.824 95.0053 230.915 95.2576 230.915 95.566C230.915 95.8744 230.824 96.1337 230.641 96.344C230.459 96.5402 230.179 96.6384 229.8 96.6384ZM239.847 110.179C238.908 110.179 238.088 110.018 237.387 109.696C236.7 109.359 236.126 108.911 235.663 108.35C235.2 107.775 234.85 107.144 234.612 106.458C234.387 105.771 234.275 105.077 234.275 104.376V104.082C234.275 103.367 234.387 102.673 234.612 102C234.85 101.313 235.2 100.696 235.663 100.15C236.126 99.589 236.7 99.1475 237.387 98.8251C238.088 98.4887 238.894 98.3205 239.805 98.3205C240.73 98.3205 241.55 98.4887 242.265 98.8251C242.994 99.1615 243.583 99.6381 244.031 100.255C244.48 100.872 244.746 101.601 244.83 102.442H243.316C243.19 101.671 242.826 101.033 242.223 100.528C241.634 100.01 240.828 99.7502 239.805 99.7502C238.922 99.7502 238.186 99.9535 237.597 100.36C237.023 100.752 236.588 101.292 236.294 101.979C235.999 102.652 235.852 103.402 235.852 104.229C235.852 105.042 235.999 105.799 236.294 106.5C236.588 107.186 237.03 107.74 237.618 108.161C238.207 108.567 238.95 108.77 239.847 108.77C240.534 108.77 241.13 108.651 241.634 108.413C242.153 108.161 242.567 107.824 242.875 107.404C243.197 106.983 243.387 106.521 243.443 106.016H244.957C244.9 106.857 244.634 107.593 244.158 108.224C243.695 108.841 243.092 109.324 242.349 109.675C241.606 110.011 240.772 110.179 239.847 110.179ZM255.417 109.822L250.939 104.607H249.131L254.408 98.6989H256.09L251.359 103.976L251.464 103.114L257.268 109.822H255.417ZM247.848 109.822V94.4727H249.425V109.822H247.848ZM262.776 110.137C261.346 110.137 260.246 109.829 259.475 109.212C258.704 108.581 258.311 107.74 258.297 106.689H259.769C259.797 107.222 260.035 107.705 260.484 108.14C260.947 108.574 261.711 108.791 262.776 108.791C263.771 108.791 264.514 108.588 265.005 108.182C265.509 107.761 265.762 107.257 265.762 106.668C265.762 106.121 265.551 105.701 265.131 105.406C264.724 105.098 264.129 104.902 263.344 104.818L262.082 104.691C261.073 104.579 260.253 104.271 259.622 103.766C259.005 103.248 258.697 102.54 258.697 101.643C258.697 100.984 258.865 100.409 259.201 99.9184C259.538 99.4278 260.007 99.0494 260.61 98.783C261.227 98.5027 261.949 98.3625 262.776 98.3625C263.967 98.3625 264.935 98.6429 265.677 99.2036C266.434 99.7643 266.82 100.563 266.834 101.601H265.362C265.348 101.068 265.124 100.619 264.689 100.255C264.255 99.8904 263.617 99.7082 262.776 99.7082C261.907 99.7082 261.255 99.8974 260.82 100.276C260.4 100.654 260.19 101.117 260.19 101.664C260.19 102.126 260.351 102.512 260.673 102.82C260.996 103.114 261.5 103.297 262.187 103.367L263.449 103.493C264.57 103.619 265.481 103.941 266.182 104.46C266.897 104.979 267.254 105.722 267.254 106.689C267.254 107.348 267.065 107.943 266.687 108.476C266.322 108.995 265.804 109.401 265.131 109.696C264.458 109.99 263.673 110.137 262.776 110.137Z" fill="white"/>
<path d="M145.268 108.454V97.8197H147.1V108.454H145.268ZM141.068 103.986V102.288H151.3V103.986H141.068ZM159.83 111.224C158.579 111.224 157.522 110.971 156.658 110.464C155.794 109.943 155.139 109.265 154.692 108.431C154.245 107.597 154.022 106.711 154.022 105.773H156.122C156.122 106.458 156.27 107.069 156.568 107.605C156.881 108.141 157.313 108.565 157.864 108.878C158.415 109.191 159.07 109.347 159.83 109.347C160.575 109.347 161.223 109.198 161.774 108.901C162.34 108.588 162.779 108.163 163.092 107.627C163.405 107.076 163.561 106.458 163.561 105.773C163.561 105.088 163.405 104.47 163.092 103.919C162.794 103.368 162.362 102.928 161.796 102.601C161.245 102.273 160.59 102.109 159.83 102.109C159.279 102.109 158.72 102.206 158.155 102.399C157.589 102.578 157.134 102.839 156.792 103.181H154.826L155.652 94.5133H164.209V96.3453H156.903L157.44 95.608L156.814 101.93L156.233 101.729C156.665 101.297 157.186 100.955 157.797 100.702C158.423 100.448 159.13 100.322 159.919 100.322C161.17 100.322 162.22 100.582 163.069 101.104C163.918 101.61 164.559 102.273 164.991 103.092C165.437 103.896 165.661 104.738 165.661 105.616V105.929C165.661 106.808 165.437 107.657 164.991 108.476C164.544 109.28 163.881 109.943 163.002 110.464C162.139 110.971 161.081 111.224 159.83 111.224ZM171.247 110.822V95.5857L172.23 96.3453H167.628V94.5133H173.392V110.822H171.247ZM181.678 110.822L187.844 94.5133H189.542L183.376 110.822H181.678ZM180.472 103.271C179.623 103.271 178.93 103.077 178.394 102.69C177.873 102.303 177.486 101.789 177.232 101.148C176.994 100.508 176.875 99.8154 176.875 99.0708V98.4899C176.875 97.6857 177.002 96.9708 177.255 96.3453C177.508 95.7048 177.903 95.2059 178.439 94.8485C178.975 94.4761 179.653 94.2899 180.472 94.2899C181.306 94.2899 181.984 94.4761 182.505 94.8485C183.041 95.2059 183.436 95.7048 183.689 96.3453C183.942 96.9708 184.069 97.6857 184.069 98.4899V99.0708C184.069 99.8154 183.942 100.508 183.689 101.148C183.451 101.789 183.071 102.303 182.549 102.69C182.028 103.077 181.336 103.271 180.472 103.271ZM180.472 101.796C181.157 101.796 181.663 101.551 181.991 101.059C182.334 100.553 182.505 99.8006 182.505 98.8027C182.505 97.7452 182.334 96.9782 181.991 96.5016C181.648 96.0101 181.142 95.7644 180.472 95.7644C179.802 95.7644 179.295 96.0101 178.953 96.5016C178.61 96.9782 178.439 97.7378 178.439 98.7803C178.439 99.7782 178.603 100.53 178.93 101.037C179.273 101.543 179.787 101.796 180.472 101.796ZM190.659 111.045C189.81 111.045 189.118 110.852 188.581 110.464C188.06 110.077 187.673 109.563 187.42 108.923C187.181 108.282 187.062 107.59 187.062 106.845V106.264C187.062 105.46 187.189 104.745 187.442 104.12C187.695 103.479 188.09 102.98 188.626 102.623C189.162 102.251 189.84 102.064 190.659 102.064C191.493 102.064 192.171 102.251 192.692 102.623C193.228 102.98 193.623 103.479 193.876 104.12C194.129 104.745 194.256 105.46 194.256 106.264V106.845C194.256 107.59 194.129 108.282 193.876 108.923C193.638 109.563 193.258 110.077 192.737 110.464C192.215 110.852 191.523 111.045 190.659 111.045ZM190.659 109.571C191.344 109.571 191.85 109.325 192.178 108.833C192.521 108.327 192.692 107.575 192.692 106.577C192.692 105.52 192.521 104.753 192.178 104.276C191.836 103.785 191.329 103.539 190.659 103.539C189.989 103.539 189.482 103.785 189.14 104.276C188.797 104.753 188.626 105.512 188.626 106.555C188.626 107.553 188.79 108.305 189.118 108.811C189.46 109.318 189.974 109.571 190.659 109.571Z" fill="white"/>
</svg>
