<svg width="278" height="150" viewBox="0 0 278 150" fill="none" xmlns="http://www.w3.org/2000/svg">
<path d="M277.136 7.35407C277.136 13.6978 215.233 25.6472 138.873 25.6472C62.5127 25.6472 0.610352 13.6978 0.610352 7.35407C0.610352 1.0103 62.5127 0.972656 138.873 0.972656C215.233 0.972656 277.136 1.0103 277.136 7.35407Z" fill="#0B4592"/>
<path d="M25.1547 132.355L0.387695 7.25586C88.0905 26.6734 181.33 32.2683 277.67 7.25586L252.365 132.355C155.653 164.022 60.7785 145.549 25.1547 132.355Z" fill="#166ADB"/>
<path d="M83.2422 54.9986V52.4124H86.2279C86.8307 52.4124 87.3353 52.2933 87.7418 52.055C88.1624 51.8167 88.4777 51.4873 88.688 51.0667C88.9123 50.6462 89.0244 50.1626 89.0244 49.6159C89.0244 49.0692 88.9123 48.5856 88.688 48.1651C88.4777 47.7446 88.1624 47.4222 87.7418 47.1979C87.3353 46.9596 86.8307 46.8405 86.2279 46.8405H83.2422V44.2543H85.9756C87.2652 44.2543 88.3586 44.4645 89.2557 44.885C90.1668 45.3056 90.8607 45.9083 91.3373 46.6933C91.8139 47.4643 92.0522 48.3824 92.0522 49.4477V49.7841C92.0522 50.8495 91.8139 51.7746 91.3373 52.5596C90.8607 53.3306 90.1668 53.9333 89.2557 54.3678C88.3586 54.7884 87.2652 54.9986 85.9756 54.9986H83.2422ZM80.677 59.7085V44.2543H83.6627V59.7085H80.677ZM98.1751 60.0659C96.8574 60.0659 95.8342 59.6314 95.1053 58.7623C94.3904 57.8932 94.0329 56.6036 94.0329 54.8935V48.2703H96.9556V55.1458C96.9556 55.8467 97.1518 56.4074 97.5443 56.8279C97.9368 57.2344 98.4694 57.4377 99.1423 57.4377C99.8151 57.4377 100.362 57.2204 100.782 56.7859C101.217 56.3513 101.434 55.7626 101.434 55.0197V48.2703H104.357V59.7085H102.044V54.8514H102.275C102.275 56.0009 102.128 56.9611 101.834 57.732C101.539 58.503 101.098 59.0847 100.509 59.4772C99.9203 59.8697 99.1843 60.0659 98.3012 60.0659H98.1751ZM107.714 59.7085V48.2913H110.027V53.1273H109.964C109.964 51.4873 110.314 50.2467 111.015 49.4057C111.716 48.5646 112.746 48.1441 114.106 48.1441H114.527V50.6883H113.728C112.746 50.6883 111.982 50.9546 111.436 51.4873C110.903 52.0059 110.637 52.7628 110.637 53.7581V59.7085H107.714ZM121.467 60.108C120.472 60.108 119.61 59.9398 118.881 59.6034C118.166 59.2669 117.563 58.8184 117.073 58.2577C116.596 57.697 116.238 57.0662 116 56.3653C115.762 55.6645 115.643 54.9496 115.643 54.2207V53.8212C115.643 53.0502 115.762 52.3143 116 51.6134C116.253 50.8985 116.624 50.2677 117.115 49.7211C117.605 49.1604 118.208 48.7188 118.923 48.3964C119.652 48.06 120.493 47.8918 121.446 47.8918C122.441 47.8918 123.331 48.088 124.116 48.4805C124.901 48.859 125.525 49.3917 125.988 50.0785C126.464 50.7654 126.731 51.5644 126.787 52.4755H123.948C123.878 51.8868 123.626 51.3961 123.191 51.0037C122.771 50.6112 122.189 50.4149 121.446 50.4149C120.801 50.4149 120.261 50.5691 119.827 50.8775C119.406 51.1859 119.091 51.6134 118.881 52.1601C118.671 52.6928 118.565 53.3095 118.565 54.0104C118.565 54.6832 118.664 55.293 118.86 55.8397C119.07 56.3864 119.385 56.8139 119.806 57.1223C120.24 57.4307 120.794 57.5849 121.467 57.5849C121.972 57.5849 122.406 57.4937 122.771 57.3115C123.135 57.1293 123.422 56.877 123.633 56.5546C123.857 56.2322 123.997 55.8677 124.053 55.4612H126.892C126.836 56.3864 126.562 57.1994 126.072 57.9002C125.595 58.5871 124.957 59.1268 124.158 59.5193C123.373 59.9117 122.476 60.108 121.467 60.108ZM129.233 59.7085V44.3594H132.156V53.3165H131.651C131.651 52.1671 131.798 51.1929 132.093 50.3939C132.387 49.5949 132.822 48.9851 133.396 48.5646C133.985 48.1441 134.728 47.9338 135.625 47.9338H135.751C137.055 47.9338 138.043 48.3824 138.716 49.2795C139.389 50.1766 139.725 51.4803 139.725 53.1904V59.7085H136.802V52.917C136.802 52.1881 136.592 51.6134 136.172 51.1929C135.765 50.7724 135.226 50.5621 134.553 50.5621C133.838 50.5621 133.256 50.8004 132.807 51.277C132.373 51.7396 132.156 52.3493 132.156 53.1063V59.7085H129.233ZM149.785 59.7085V56.3233H149.301V52.5596C149.301 51.9008 149.14 51.4102 148.818 51.0878C148.495 50.7654 147.998 50.6042 147.325 50.6042C146.974 50.6042 146.554 50.6112 146.063 50.6252C145.573 50.6392 145.075 50.6602 144.57 50.6883C144.08 50.7023 143.638 50.7233 143.246 50.7513V48.2703C143.568 48.2422 143.933 48.2142 144.339 48.1862C144.746 48.1581 145.159 48.1441 145.58 48.1441C146.014 48.1301 146.421 48.1231 146.799 48.1231C147.977 48.1231 148.951 48.2773 149.722 48.5856C150.507 48.894 151.095 49.3776 151.488 50.0365C151.894 50.6953 152.098 51.5573 152.098 52.6227V59.7085H149.785ZM146.105 60.0029C145.278 60.0029 144.549 59.8557 143.919 59.5613C143.302 59.2669 142.818 58.8464 142.468 58.2997C142.131 57.7531 141.963 57.0942 141.963 56.3233C141.963 55.4822 142.166 54.7954 142.573 54.2627C142.993 53.7301 143.575 53.3306 144.318 53.0642C145.075 52.7979 145.958 52.6647 146.967 52.6647H149.617V54.4099H146.925C146.252 54.4099 145.734 54.5781 145.369 54.9145C145.019 55.2369 144.844 55.6575 144.844 56.1761C144.844 56.6947 145.019 57.1153 145.369 57.4377C145.734 57.7601 146.252 57.9213 146.925 57.9213C147.332 57.9213 147.703 57.8512 148.04 57.711C148.39 57.5568 148.677 57.3045 148.902 56.9541C149.14 56.5896 149.273 56.099 149.301 55.4822L150.016 56.3023C149.946 57.1013 149.75 57.7741 149.427 58.3208C149.119 58.8674 148.684 59.288 148.124 59.5823C147.577 59.8627 146.904 60.0029 146.105 60.0029ZM159.37 60.0659C157.801 60.0659 156.567 59.7365 155.67 59.0777C154.787 58.4049 154.324 57.4797 154.282 56.3023H156.91C156.952 56.6947 157.17 57.0522 157.562 57.3746C157.955 57.697 158.571 57.8582 159.413 57.8582C160.113 57.8582 160.667 57.732 161.074 57.4797C161.494 57.2274 161.704 56.884 161.704 56.4494C161.704 56.071 161.543 55.7696 161.221 55.5453C160.912 55.321 160.38 55.1739 159.623 55.1038L158.614 54.9986C157.338 54.8585 156.357 54.494 155.67 53.9053C154.983 53.3165 154.64 52.5316 154.64 51.5503C154.64 50.7654 154.836 50.1065 155.228 49.5739C155.621 49.0412 156.16 48.6417 156.847 48.3754C157.548 48.095 158.347 47.9549 159.244 47.9549C160.646 47.9549 161.781 48.2632 162.651 48.88C163.52 49.4968 163.975 50.4009 164.017 51.5924H161.389C161.361 51.1999 161.165 50.8635 160.8 50.5831C160.436 50.3028 159.91 50.1626 159.223 50.1626C158.607 50.1626 158.13 50.2818 157.793 50.5201C157.457 50.7584 157.289 51.0667 157.289 51.4452C157.289 51.8097 157.422 52.09 157.688 52.2863C157.969 52.4825 158.417 52.6157 159.034 52.6858L160.043 52.7909C161.389 52.9311 162.44 53.3025 163.197 53.9053C163.968 54.508 164.354 55.321 164.354 56.3443C164.354 57.1013 164.143 57.7601 163.723 58.3208C163.316 58.8674 162.742 59.295 161.999 59.6034C161.256 59.9117 160.38 60.0659 159.37 60.0659ZM167.315 59.7085V48.2913H170.237V59.7085H167.315ZM165.717 50.478V48.2913H170.237V50.478H165.717ZM168.387 46.9246C167.812 46.9246 167.385 46.7774 167.104 46.483C166.838 46.1746 166.705 45.7962 166.705 45.3476C166.705 44.871 166.838 44.4855 167.104 44.1912C167.385 43.8968 167.812 43.7496 168.387 43.7496C168.962 43.7496 169.382 43.8968 169.649 44.1912C169.915 44.4855 170.048 44.871 170.048 45.3476C170.048 45.7962 169.915 46.1746 169.649 46.483C169.382 46.7774 168.962 46.9246 168.387 46.9246ZM173.606 59.7085V48.2913H175.919V53.1904H175.708C175.708 52.0269 175.862 51.0597 176.171 50.2888C176.479 49.5038 176.935 48.9151 177.538 48.5226C178.154 48.1301 178.918 47.9338 179.829 47.9338H179.956C181.315 47.9338 182.346 48.3754 183.046 49.2585C183.747 50.1276 184.098 51.4312 184.098 53.1694V59.7085H181.175V52.917C181.175 52.2162 180.972 51.6485 180.565 51.2139C180.173 50.7794 179.626 50.5621 178.925 50.5621C178.21 50.5621 177.629 50.7864 177.18 51.2349C176.746 51.6695 176.528 52.2582 176.528 53.0011V59.7085H173.606ZM191.697 64.2081C191.151 64.2081 190.59 64.1871 190.015 64.145C189.455 64.103 188.929 64.0469 188.438 63.9768V61.5378C188.943 61.5938 189.483 61.6429 190.057 61.685C190.632 61.741 191.172 61.7691 191.676 61.7691C192.616 61.7691 193.372 61.6569 193.947 61.4326C194.536 61.2084 194.963 60.8509 195.23 60.3603C195.51 59.8837 195.65 59.274 195.65 58.531V56.2812L196.281 54.8514C196.239 55.9028 196.022 56.7999 195.629 57.5428C195.237 58.2717 194.704 58.8324 194.031 59.2249C193.358 59.6034 192.58 59.7926 191.697 59.7926C190.912 59.7926 190.198 59.6454 189.553 59.3511C188.922 59.0567 188.375 58.6502 187.913 58.1315C187.464 57.6129 187.114 57.0031 186.861 56.3023C186.609 55.6014 186.483 54.8514 186.483 54.0525V53.6109C186.483 52.8119 186.609 52.069 186.861 51.3821C187.128 50.6813 187.499 50.0715 187.976 49.5529C188.452 49.0342 189.02 48.6347 189.679 48.3544C190.338 48.074 191.067 47.9338 191.866 47.9338C192.805 47.9338 193.618 48.1371 194.305 48.5436C195.006 48.9501 195.552 49.5388 195.945 50.3098C196.337 51.0808 196.554 52.0269 196.596 53.1483L196.092 53.2324V48.2913H198.405V58.3628C198.405 59.7505 198.166 60.8719 197.69 61.727C197.213 62.5821 196.477 63.2059 195.482 63.5983C194.501 64.0048 193.239 64.2081 191.697 64.2081ZM192.538 57.2905C193.099 57.2905 193.611 57.1643 194.073 56.912C194.536 56.6597 194.907 56.2952 195.188 55.8187C195.468 55.3421 195.608 54.7673 195.608 54.0945V53.3586C195.608 52.7138 195.461 52.1671 195.167 51.7185C194.886 51.27 194.515 50.9336 194.052 50.7093C193.59 50.471 193.085 50.3518 192.538 50.3518C191.922 50.3518 191.375 50.499 190.898 50.7934C190.436 51.0737 190.071 51.4732 189.805 51.9919C189.539 52.5105 189.406 53.1273 189.406 53.8422C189.406 54.5431 189.539 55.1528 189.805 55.6715C190.071 56.1901 190.436 56.5896 190.898 56.87C191.375 57.1503 191.922 57.2905 192.538 57.2905ZM96.0653 84.7926V82.0171H99.2403C100.039 82.0171 100.747 81.898 101.364 81.6597C101.995 81.4074 102.527 81.057 102.962 80.6084C103.396 80.1598 103.726 79.6342 103.95 79.0314C104.188 78.4147 104.308 77.7348 104.308 76.9919C104.308 76.2209 104.188 75.5341 103.95 74.9313C103.726 74.3146 103.396 73.7889 102.962 73.3544C102.527 72.9198 101.995 72.5904 101.364 72.3661C100.747 72.1419 100.039 72.0297 99.2403 72.0297H96.0653V69.2543H99.051C100.439 69.2543 101.651 69.4575 102.689 69.864C103.726 70.2705 104.588 70.8312 105.275 71.5461C105.962 72.247 106.473 73.053 106.81 73.9641C107.16 74.8612 107.335 75.7934 107.335 76.7606V77.2232C107.335 78.1483 107.16 79.0595 106.81 79.9566C106.473 80.8537 105.962 81.6667 105.275 82.3956C104.588 83.1245 103.726 83.7062 102.689 84.1408C101.651 84.5753 100.439 84.7926 99.051 84.7926H96.0653ZM93.5001 84.7926V69.2543H96.4858V84.7926H93.5001ZM114.887 85.108C113.906 85.108 113.044 84.9398 112.301 84.6034C111.572 84.2669 110.962 83.8184 110.472 83.2577C109.995 82.683 109.63 82.0452 109.378 81.3443C109.14 80.6434 109.021 79.9285 109.021 79.1996V78.8001C109.021 78.0432 109.14 77.3143 109.378 76.6134C109.63 75.8985 109.995 75.2677 110.472 74.7211C110.962 74.1604 111.565 73.7188 112.28 73.3964C112.995 73.06 113.822 72.8918 114.761 72.8918C115.994 72.8918 117.025 73.1651 117.852 73.7118C118.693 74.2445 119.324 74.9523 119.744 75.8354C120.165 76.7045 120.375 77.6437 120.375 78.653V79.7043H110.261V77.917H118.546L117.641 78.8001C117.641 78.0712 117.536 77.4475 117.326 76.9288C117.116 76.4102 116.793 76.0107 116.359 75.7303C115.938 75.45 115.406 75.3098 114.761 75.3098C114.116 75.3098 113.569 75.457 113.121 75.7513C112.672 76.0457 112.329 76.4732 112.091 77.0339C111.866 77.5806 111.754 78.2394 111.754 79.0104C111.754 79.7253 111.866 80.3631 112.091 80.9238C112.315 81.4705 112.658 81.905 113.121 82.2274C113.583 82.5358 114.172 82.69 114.887 82.69C115.602 82.69 116.184 82.5498 116.632 82.2695C117.081 81.9751 117.368 81.6176 117.494 81.1971H120.186C120.017 81.9821 119.695 82.669 119.218 83.2577C118.742 83.8464 118.132 84.302 117.389 84.6244C116.66 84.9468 115.826 85.108 114.887 85.108ZM127.884 85.108C126.888 85.108 126.026 84.9398 125.297 84.6034C124.583 84.2669 123.98 83.8184 123.489 83.2577C123.013 82.697 122.655 82.0662 122.417 81.3653C122.179 80.6645 122.059 79.9496 122.059 79.2207V78.8212C122.059 78.0502 122.179 77.3143 122.417 76.6134C122.669 75.8985 123.041 75.2677 123.531 74.7211C124.022 74.1604 124.625 73.7188 125.34 73.3964C126.068 73.06 126.909 72.8918 127.863 72.8918C128.858 72.8918 129.748 73.088 130.533 73.4805C131.318 73.859 131.942 74.3917 132.404 75.0785C132.881 75.7654 133.147 76.5644 133.203 77.4755H130.365C130.295 76.8868 130.042 76.3961 129.608 76.0037C129.187 75.6112 128.606 75.4149 127.863 75.4149C127.218 75.4149 126.678 75.5691 126.244 75.8775C125.823 76.1859 125.508 76.6134 125.297 77.1601C125.087 77.6928 124.982 78.3095 124.982 79.0104C124.982 79.6832 125.08 80.293 125.276 80.8397C125.487 81.3864 125.802 81.8139 126.223 82.1223C126.657 82.4307 127.211 82.5849 127.884 82.5849C128.388 82.5849 128.823 82.4937 129.187 82.3115C129.552 82.1293 129.839 81.877 130.049 81.5546C130.274 81.2322 130.414 80.8677 130.47 80.4612H133.308C133.252 81.3864 132.979 82.1994 132.488 82.9002C132.012 83.5871 131.374 84.1268 130.575 84.5193C129.79 84.9117 128.893 85.108 127.884 85.108ZM136.196 84.7085V73.2913H139.119V84.7085H136.196ZM134.598 75.478V73.2913H139.119V75.478H134.598ZM137.269 71.9246C136.694 71.9246 136.266 71.7774 135.986 71.483C135.72 71.1746 135.587 70.7962 135.587 70.3476C135.587 69.871 135.72 69.4855 135.986 69.1912C136.266 68.8968 136.694 68.7496 137.269 68.7496C137.843 68.7496 138.264 68.8968 138.53 69.1912C138.797 69.4855 138.93 69.871 138.93 70.3476C138.93 70.7962 138.797 71.1746 138.53 71.483C138.264 71.7774 137.843 71.9246 137.269 71.9246ZM146.629 85.0659C145.06 85.0659 143.826 84.7365 142.929 84.0777C142.046 83.4049 141.583 82.4797 141.541 81.3023H144.169C144.211 81.6947 144.429 82.0522 144.821 82.3746C145.214 82.697 145.83 82.8582 146.672 82.8582C147.372 82.8582 147.926 82.732 148.333 82.4797C148.753 82.2274 148.963 81.884 148.963 81.4494C148.963 81.071 148.802 80.7696 148.48 80.5453C148.171 80.321 147.639 80.1739 146.882 80.1038L145.873 79.9986C144.597 79.8585 143.616 79.494 142.929 78.9053C142.242 78.3165 141.899 77.5316 141.899 76.5503C141.899 75.7654 142.095 75.1065 142.487 74.5739C142.88 74.0412 143.419 73.6417 144.106 73.3754C144.807 73.095 145.606 72.9549 146.503 72.9549C147.905 72.9549 149.04 73.2632 149.91 73.88C150.779 74.4968 151.234 75.4009 151.276 76.5924H148.648C148.62 76.1999 148.424 75.8635 148.059 75.5831C147.695 75.3028 147.169 75.1626 146.482 75.1626C145.866 75.1626 145.389 75.2818 145.053 75.5201C144.716 75.7584 144.548 76.0667 144.548 76.4452C144.548 76.8097 144.681 77.09 144.947 77.2863C145.228 77.4825 145.676 77.6157 146.293 77.6858L147.302 77.7909C148.648 77.9311 149.699 78.3025 150.456 78.9053C151.227 79.508 151.613 80.321 151.613 81.3443C151.613 82.1013 151.402 82.7601 150.982 83.3208C150.575 83.8674 150.001 84.295 149.258 84.6034C148.515 84.9117 147.639 85.0659 146.629 85.0659ZM154.574 84.7085V73.2913H157.496V84.7085H154.574ZM152.976 75.478V73.2913H157.496V75.478H152.976ZM155.646 71.9246C155.071 71.9246 154.644 71.7774 154.364 71.483C154.097 71.1746 153.964 70.7962 153.964 70.3476C153.964 69.871 154.097 69.4855 154.364 69.1912C154.644 68.8968 155.071 68.7496 155.646 68.7496C156.221 68.7496 156.641 68.8968 156.908 69.1912C157.174 69.4855 157.307 69.871 157.307 70.3476C157.307 70.7962 157.174 71.1746 156.908 71.483C156.641 71.7774 156.221 71.9246 155.646 71.9246ZM166.353 85.108C165.343 85.108 164.453 84.9468 163.682 84.6244C162.911 84.302 162.259 83.8674 161.727 83.3208C161.194 82.7601 160.788 82.1293 160.507 81.4284C160.241 80.7275 160.108 79.9986 160.108 79.2417V78.8001C160.108 78.0152 160.248 77.2722 160.528 76.5714C160.823 75.8565 161.236 75.2257 161.769 74.679C162.316 74.1183 162.974 73.6838 163.745 73.3754C164.516 73.053 165.385 72.8918 166.353 72.8918C167.32 72.8918 168.189 73.053 168.96 73.3754C169.731 73.6838 170.383 74.1183 170.915 74.679C171.462 75.2257 171.875 75.8565 172.156 76.5714C172.436 77.2722 172.576 78.0152 172.576 78.8001V79.2417C172.576 79.9986 172.436 80.7275 172.156 81.4284C171.889 82.1293 171.49 82.7601 170.957 83.3208C170.425 83.8674 169.773 84.302 169.002 84.6244C168.231 84.9468 167.348 85.108 166.353 85.108ZM166.353 82.6059C167.067 82.6059 167.67 82.4517 168.161 82.1433C168.651 81.8209 169.023 81.3934 169.275 80.8607C169.527 80.314 169.654 79.6973 169.654 79.0104C169.654 78.3095 169.52 77.6928 169.254 77.1601C169.002 76.6134 168.623 76.1859 168.119 75.8775C167.628 75.5551 167.039 75.3939 166.353 75.3939C165.666 75.3939 165.07 75.5551 164.565 75.8775C164.075 76.1859 163.696 76.6134 163.43 77.1601C163.164 77.6928 163.03 78.3095 163.03 79.0104C163.03 79.6973 163.157 80.314 163.409 80.8607C163.675 81.3934 164.054 81.8209 164.544 82.1433C165.035 82.4517 165.638 82.6059 166.353 82.6059ZM175.135 84.7085V73.2913H177.448V78.1904H177.238C177.238 77.0269 177.392 76.0597 177.701 75.2888C178.009 74.5038 178.465 73.9151 179.067 73.5226C179.684 73.1301 180.448 72.9338 181.359 72.9338H181.485C182.845 72.9338 183.875 73.3754 184.576 74.2585C185.277 75.1276 185.627 76.4312 185.627 78.1694V84.7085H182.705V77.917C182.705 77.2162 182.502 76.6485 182.095 76.2139C181.703 75.7794 181.156 75.5621 180.455 75.5621C179.74 75.5621 179.158 75.7864 178.71 76.2349C178.275 76.6695 178.058 77.2582 178.058 78.0011V84.7085H175.135Z" fill="white"/>
<path d="M121.578 113.888V112.479H125.153C125.98 112.479 126.653 112.325 127.171 112.017C127.69 111.694 128.075 111.274 128.328 110.755C128.58 110.222 128.706 109.634 128.706 108.989C128.706 108.33 128.58 107.741 128.328 107.223C128.075 106.69 127.69 106.269 127.171 105.961C126.653 105.653 125.98 105.499 125.153 105.499H121.578V104.09H124.879C126.113 104.09 127.129 104.293 127.928 104.7C128.741 105.106 129.344 105.667 129.737 106.382C130.143 107.097 130.346 107.917 130.346 108.842V109.136C130.346 110.047 130.143 110.867 129.737 111.596C129.344 112.311 128.741 112.872 127.928 113.278C127.129 113.685 126.113 113.888 124.879 113.888H121.578ZM120.401 119.502V104.09H121.999V119.502H120.401ZM137.135 119.817C135.804 119.817 134.787 119.39 134.086 118.535C133.386 117.666 133.035 116.46 133.035 114.918V108.358H134.591V115.234C134.591 116.201 134.843 116.972 135.348 117.547C135.867 118.107 136.582 118.388 137.493 118.388C138.446 118.388 139.203 118.086 139.764 117.483C140.338 116.881 140.626 116.075 140.626 115.065V108.358H142.203V119.502H140.941V114.855H141.193C141.193 115.892 141.046 116.783 140.752 117.525C140.457 118.254 140.016 118.822 139.427 119.229C138.838 119.621 138.095 119.817 137.198 119.817H137.135ZM146.326 119.502V108.379H147.588V113.026H147.462C147.462 111.4 147.819 110.201 148.534 109.43C149.249 108.645 150.37 108.253 151.898 108.253H152.256V109.683H151.604C150.398 109.683 149.48 109.998 148.849 110.629C148.219 111.246 147.903 112.157 147.903 113.362V119.502H146.326ZM159.352 119.859C158.412 119.859 157.592 119.698 156.891 119.376C156.205 119.039 155.63 118.591 155.167 118.03C154.705 117.455 154.354 116.825 154.116 116.138C153.892 115.451 153.78 114.757 153.78 114.056V113.762C153.78 113.047 153.892 112.353 154.116 111.68C154.354 110.993 154.705 110.377 155.167 109.83C155.63 109.269 156.205 108.828 156.891 108.505C157.592 108.169 158.398 108.001 159.31 108.001C160.235 108.001 161.055 108.169 161.77 108.505C162.498 108.842 163.087 109.318 163.536 109.935C163.984 110.552 164.251 111.281 164.335 112.122H162.821C162.695 111.351 162.33 110.713 161.728 110.208C161.139 109.69 160.333 109.43 159.31 109.43C158.426 109.43 157.69 109.634 157.102 110.04C156.527 110.433 156.092 110.972 155.798 111.659C155.504 112.332 155.357 113.082 155.357 113.909C155.357 114.722 155.504 115.479 155.798 116.18C156.092 116.867 156.534 117.42 157.123 117.841C157.712 118.247 158.454 118.451 159.352 118.451C160.038 118.451 160.634 118.331 161.139 118.093C161.657 117.841 162.071 117.504 162.379 117.084C162.702 116.663 162.891 116.201 162.947 115.696H164.461C164.405 116.537 164.139 117.273 163.662 117.904C163.199 118.521 162.597 119.004 161.854 119.355C161.111 119.691 160.277 119.859 159.352 119.859ZM167.352 119.502V104.153H168.929V112.837L168.467 113.194C168.467 112.157 168.614 111.253 168.908 110.482C169.217 109.711 169.672 109.115 170.275 108.694C170.892 108.26 171.663 108.043 172.588 108.043H172.672C174.018 108.043 175.034 108.484 175.721 109.367C176.422 110.25 176.772 111.477 176.772 113.047V119.502H175.216V112.71C175.216 111.715 174.943 110.93 174.396 110.356C173.849 109.781 173.114 109.493 172.188 109.493C171.193 109.493 170.401 109.816 169.812 110.461C169.224 111.091 168.929 111.926 168.929 112.963V119.502H167.352ZM187.469 119.502V116.159H187.217V112.206C187.217 111.379 187 110.748 186.565 110.314C186.131 109.865 185.458 109.641 184.547 109.641C184.126 109.641 183.699 109.648 183.264 109.662C182.844 109.676 182.437 109.697 182.045 109.725C181.666 109.739 181.33 109.76 181.035 109.788V108.4C181.344 108.372 181.659 108.344 181.982 108.316C182.304 108.288 182.633 108.274 182.97 108.274C183.32 108.26 183.657 108.253 183.979 108.253C185.115 108.253 186.026 108.393 186.713 108.673C187.413 108.954 187.925 109.395 188.247 109.998C188.57 110.587 188.731 111.372 188.731 112.353V119.502H187.469ZM183.706 119.796C182.921 119.796 182.227 119.656 181.624 119.376C181.021 119.095 180.552 118.689 180.215 118.156C179.893 117.624 179.732 116.979 179.732 116.222C179.732 115.479 179.9 114.848 180.236 114.33C180.587 113.811 181.085 113.418 181.729 113.152C182.388 112.872 183.18 112.732 184.105 112.732H187.364V113.93H184C183.117 113.93 182.437 114.147 181.961 114.582C181.498 115.002 181.267 115.556 181.267 116.243C181.267 116.944 181.512 117.504 182.003 117.925C182.493 118.331 183.159 118.535 184 118.535C184.519 118.535 185.016 118.444 185.493 118.261C185.97 118.065 186.369 117.743 186.691 117.294C187.014 116.832 187.189 116.201 187.217 115.402L187.68 116.054C187.624 116.881 187.427 117.575 187.091 118.135C186.755 118.682 186.299 119.095 185.724 119.376C185.15 119.656 184.477 119.796 183.706 119.796ZM196.181 119.817C194.752 119.817 193.651 119.509 192.88 118.892C192.109 118.261 191.717 117.42 191.703 116.369H193.175C193.203 116.902 193.441 117.385 193.89 117.82C194.352 118.254 195.116 118.472 196.181 118.472C197.177 118.472 197.92 118.268 198.41 117.862C198.915 117.441 199.167 116.937 199.167 116.348C199.167 115.801 198.957 115.381 198.536 115.086C198.13 114.778 197.534 114.582 196.749 114.498L195.488 114.372C194.478 114.259 193.658 113.951 193.027 113.446C192.411 112.928 192.102 112.22 192.102 111.323C192.102 110.664 192.27 110.089 192.607 109.599C192.943 109.108 193.413 108.73 194.016 108.463C194.632 108.183 195.354 108.043 196.181 108.043C197.373 108.043 198.34 108.323 199.083 108.884C199.84 109.444 200.225 110.243 200.239 111.281H198.768C198.754 110.748 198.529 110.299 198.095 109.935C197.66 109.571 197.022 109.388 196.181 109.388C195.312 109.388 194.66 109.578 194.226 109.956C193.805 110.335 193.595 110.797 193.595 111.344C193.595 111.806 193.756 112.192 194.079 112.5C194.401 112.795 194.906 112.977 195.593 113.047L196.854 113.173C197.976 113.299 198.887 113.622 199.588 114.14C200.302 114.659 200.66 115.402 200.66 116.369C200.66 117.028 200.471 117.624 200.092 118.156C199.728 118.675 199.209 119.081 198.536 119.376C197.863 119.67 197.078 119.817 196.181 119.817ZM208.446 119.859C207.493 119.859 206.666 119.698 205.965 119.376C205.264 119.039 204.689 118.598 204.241 118.051C203.792 117.49 203.456 116.867 203.231 116.18C203.021 115.493 202.916 114.785 202.916 114.056V113.762C202.916 113.047 203.021 112.346 203.231 111.659C203.456 110.972 203.792 110.356 204.241 109.809C204.689 109.262 205.25 108.828 205.923 108.505C206.61 108.169 207.409 108.001 208.32 108.001C209.483 108.001 210.45 108.26 211.221 108.779C212.006 109.297 212.595 109.963 212.988 110.776C213.38 111.575 213.576 112.437 213.576 113.362V114.182H203.631V112.963H212.483L212.083 113.573C212.083 112.746 211.936 112.024 211.642 111.407C211.361 110.776 210.941 110.285 210.38 109.935C209.834 109.571 209.147 109.388 208.32 109.388C207.451 109.388 206.729 109.592 206.154 109.998C205.579 110.405 205.145 110.944 204.85 111.617C204.57 112.29 204.43 113.054 204.43 113.909C204.43 114.75 204.57 115.521 204.85 116.222C205.145 116.909 205.586 117.455 206.175 117.862C206.778 118.268 207.535 118.472 208.446 118.472C209.413 118.472 210.198 118.254 210.801 117.82C211.404 117.371 211.775 116.846 211.915 116.243H213.387C213.247 116.986 212.952 117.631 212.504 118.177C212.055 118.71 211.488 119.123 210.801 119.418C210.114 119.712 209.329 119.859 208.446 119.859ZM220.123 119.817C218.694 119.817 217.593 119.509 216.822 118.892C216.051 118.261 215.659 117.42 215.645 116.369H217.117C217.145 116.902 217.383 117.385 217.831 117.82C218.294 118.254 219.058 118.472 220.123 118.472C221.119 118.472 221.861 118.268 222.352 117.862C222.857 117.441 223.109 116.937 223.109 116.348C223.109 115.801 222.899 115.381 222.478 115.086C222.072 114.778 221.476 114.582 220.691 114.498L219.429 114.372C218.42 114.259 217.6 113.951 216.969 113.446C216.353 112.928 216.044 112.22 216.044 111.323C216.044 110.664 216.212 110.089 216.549 109.599C216.885 109.108 217.355 108.73 217.958 108.463C218.574 108.183 219.296 108.043 220.123 108.043C221.315 108.043 222.282 108.323 223.025 108.884C223.782 109.444 224.167 110.243 224.181 111.281H222.71C222.695 110.748 222.471 110.299 222.037 109.935C221.602 109.571 220.964 109.388 220.123 109.388C219.254 109.388 218.602 109.578 218.168 109.956C217.747 110.335 217.537 110.797 217.537 111.344C217.537 111.806 217.698 112.192 218.021 112.5C218.343 112.795 218.848 112.977 219.535 113.047L220.796 113.173C221.918 113.299 222.829 113.622 223.53 114.14C224.244 114.659 224.602 115.402 224.602 116.369C224.602 117.028 224.413 117.624 224.034 118.156C223.67 118.675 223.151 119.081 222.478 119.376C221.805 119.67 221.02 119.817 220.123 119.817Z" fill="white"/>
<path d="M58.954 118.134V107.5H60.7859V118.134H58.954ZM54.7541 113.666V111.968H64.9859V113.666H54.7541ZM71.0143 120.502V105.266L71.9973 106.025H67.3952V104.194H73.159V120.502H71.0143ZM77.5359 120.502V117.821C77.5359 117.166 77.6253 116.607 77.804 116.146C77.9976 115.684 78.3253 115.267 78.787 114.895C79.2487 114.507 79.8742 114.135 80.6636 113.778L83.7242 112.37C84.4689 112.028 85.0572 111.588 85.4891 111.052C85.921 110.501 86.137 109.793 86.137 108.93C86.137 107.887 85.8465 107.075 85.2657 106.495C84.6848 105.914 83.8657 105.623 82.8083 105.623C81.7657 105.623 80.9466 105.914 80.3508 106.495C79.7551 107.075 79.4572 107.887 79.4572 108.93H77.3572C77.3572 107.991 77.5508 107.128 77.9381 106.338C78.3402 105.549 78.9434 104.923 79.7476 104.462C80.5519 103.985 81.5721 103.747 82.8083 103.747C84.0444 103.747 85.0572 103.985 85.8465 104.462C86.6508 104.923 87.2465 105.534 87.6338 106.294C88.0359 107.053 88.237 107.88 88.237 108.773V109.086C88.237 110.263 87.8944 111.253 87.2093 112.057C86.5391 112.862 85.6306 113.524 84.4838 114.046L81.4232 115.453C80.7381 115.766 80.2764 116.079 80.0381 116.391C79.7998 116.704 79.6806 117.121 79.6806 117.642V119.698L79.0998 118.67H88.438V120.502H77.5359ZM95.2555 120.502L101.421 104.194H103.119L96.9533 120.502H95.2555ZM94.0491 112.951C93.2002 112.951 92.5076 112.757 91.9715 112.37C91.4502 111.983 91.0629 111.469 90.8098 110.829C90.5715 110.188 90.4523 109.496 90.4523 108.751V108.17C90.4523 107.366 90.5789 106.651 90.8321 106.025C91.0853 105.385 91.48 104.886 92.0161 104.529C92.5523 104.156 93.23 103.97 94.0491 103.97C94.8831 103.97 95.5608 104.156 96.0821 104.529C96.6182 104.886 97.0129 105.385 97.2661 106.025C97.5193 106.651 97.6459 107.366 97.6459 108.17V108.751C97.6459 109.496 97.5193 110.188 97.2661 110.829C97.0278 111.469 96.648 111.983 96.1268 112.37C95.6055 112.757 94.9129 112.951 94.0491 112.951ZM94.0491 111.476C94.7342 111.476 95.2406 111.231 95.5682 110.739C95.9108 110.233 96.0821 109.481 96.0821 108.483C96.0821 107.425 95.9108 106.658 95.5682 106.182C95.2257 105.69 94.7193 105.445 94.0491 105.445C93.3789 105.445 92.8725 105.69 92.53 106.182C92.1874 106.658 92.0161 107.418 92.0161 108.461C92.0161 109.458 92.18 110.211 92.5076 110.717C92.8502 111.223 93.364 111.476 94.0491 111.476ZM104.236 120.725C103.387 120.725 102.695 120.532 102.159 120.145C101.637 119.757 101.25 119.243 100.997 118.603C100.759 117.963 100.639 117.27 100.639 116.525V115.945C100.639 115.14 100.766 114.425 101.019 113.8C101.272 113.159 101.667 112.661 102.203 112.303C102.739 111.931 103.417 111.745 104.236 111.745C105.07 111.745 105.748 111.931 106.269 112.303C106.805 112.661 107.2 113.159 107.453 113.8C107.706 114.425 107.833 115.14 107.833 115.945V116.525C107.833 117.27 107.706 117.963 107.453 118.603C107.215 119.243 106.835 119.757 106.314 120.145C105.793 120.532 105.1 120.725 104.236 120.725ZM104.236 119.251C104.921 119.251 105.428 119.005 105.755 118.514C106.098 118.007 106.269 117.255 106.269 116.257C106.269 115.2 106.098 114.433 105.755 113.956C105.413 113.465 104.906 113.219 104.236 113.219C103.566 113.219 103.06 113.465 102.717 113.956C102.375 114.433 102.203 115.192 102.203 116.235C102.203 117.233 102.367 117.985 102.695 118.491C103.037 118.998 103.551 119.251 104.236 119.251Z" fill="white"/>
</svg>
