<svg width="339" height="150" viewBox="0 0 339 150" fill="none" xmlns="http://www.w3.org/2000/svg">
<path d="M338.617 7.2154C338.617 13.5592 263.001 25.5086 169.724 25.5086C76.4471 25.5086 0.831055 13.5592 0.831055 7.2154C0.831055 0.871629 76.4471 0.833984 169.724 0.833984C263.001 0.833984 338.617 0.871629 338.617 7.2154Z" fill="#051E40"/>
<path d="M30.3882 131.759L0.163086 6.9165C107.194 26.2944 220.982 31.8778 338.553 6.9165L307.671 131.759C189.645 163.362 73.8627 144.927 30.3882 131.759Z" fill="#0B356E"/>
<path d="M62.5885 74.8805C61.2007 74.8805 59.9952 74.6351 58.972 74.1445C57.9627 73.6539 57.1217 73.0161 56.4488 72.2312C55.79 71.4322 55.2924 70.5771 54.956 69.666C54.6336 68.7408 54.4724 67.8507 54.4724 66.9956V66.5331C54.4724 65.5939 54.6406 64.6617 54.977 63.7366C55.3134 62.7974 55.818 61.9494 56.4909 61.1924C57.1777 60.4355 58.0258 59.8327 59.035 59.3842C60.0443 58.9216 61.2288 58.6903 62.5885 58.6903C63.9341 58.6903 65.1116 58.9216 66.1209 59.3842C67.1301 59.8327 67.9712 60.4355 68.644 61.1924C69.3309 61.9494 69.8425 62.7974 70.1789 63.7366C70.5153 64.6617 70.6835 65.5939 70.6835 66.5331V66.9956C70.6835 67.8507 70.5153 68.7408 70.1789 69.666C69.8565 70.5771 69.3589 71.4322 68.6861 72.2312C68.0272 73.0161 67.1862 73.6539 66.1629 74.1445C65.1537 74.6351 63.9622 74.8805 62.5885 74.8805ZM62.5885 72.105C63.3734 72.105 64.0743 71.9648 64.6911 71.6845C65.3219 71.4041 65.8545 71.0186 66.2891 70.528C66.7376 70.0234 67.0741 69.4557 67.2983 68.8249C67.5366 68.1801 67.6558 67.5003 67.6558 66.7854C67.6558 66.0144 67.5366 65.3065 67.2983 64.6617C67.0741 64.0169 66.7376 63.4562 66.2891 62.9796C65.8545 62.503 65.3219 62.1316 64.6911 61.8653C64.0603 61.5989 63.3594 61.4658 62.5885 61.4658C61.8035 61.4658 61.0956 61.5989 60.4648 61.8653C59.834 62.1316 59.2944 62.503 58.8458 62.9796C58.4113 63.4562 58.0748 64.0169 57.8365 64.6617C57.6123 65.3065 57.5001 66.0144 57.5001 66.7854C57.5001 67.5003 57.6123 68.1801 57.8365 68.8249C58.0748 69.4557 58.4113 70.0234 58.8458 70.528C59.2944 71.0186 59.834 71.4041 60.4648 71.6845C61.0956 71.9648 61.8035 72.105 62.5885 72.105ZM73.3378 78.6862V63.0637H75.6506V67.9839L75.2932 67.9628C75.3493 66.7994 75.5876 65.8252 76.0081 65.0402C76.4426 64.2552 77.0173 63.6735 77.7322 63.295C78.4471 62.9025 79.2461 62.7063 80.1292 62.7063C80.9422 62.7063 81.6711 62.8535 82.3159 63.1478C82.9748 63.4422 83.5355 63.8557 83.998 64.3884C84.4746 64.9211 84.8391 65.5448 85.0914 66.2597C85.3437 66.9606 85.4699 67.7175 85.4699 68.5305V68.9721C85.4699 69.7991 85.3437 70.5701 85.0914 71.285C84.8531 71.9859 84.4957 72.6096 84.0191 73.1563C83.5565 73.689 82.9958 74.1095 82.337 74.4179C81.6782 74.7122 80.9422 74.8594 80.1292 74.8594C79.2742 74.8594 78.4892 74.6842 77.7743 74.3338C77.0734 73.9693 76.5057 73.4156 76.0712 72.6727C75.6366 71.9158 75.3913 70.9416 75.3353 69.7501L76.2604 71.1588V78.6862H73.3378ZM79.3933 72.3994C80.0241 72.3994 80.5708 72.2452 81.0333 71.9368C81.5099 71.6284 81.8814 71.2009 82.1477 70.6542C82.4141 70.0935 82.5472 69.4627 82.5472 68.7618C82.5472 68.0329 82.4141 67.4021 82.1477 66.8695C81.8814 66.3368 81.5099 65.9233 81.0333 65.6289C80.5708 65.3206 80.0241 65.1664 79.3933 65.1664C78.8186 65.1664 78.2859 65.2925 77.7953 65.5448C77.3187 65.7971 76.9262 66.1686 76.6179 66.6592C76.3235 67.1498 76.1763 67.7386 76.1763 68.4254V69.2665C76.1763 69.9253 76.3305 70.486 76.6389 70.9486C76.9473 71.4111 77.3468 71.7686 77.8374 72.0209C78.328 72.2732 78.8466 72.3994 79.3933 72.3994ZM93.0018 74.6281C91.9505 74.6281 91.0815 74.495 90.3946 74.2286C89.7218 73.9483 89.2171 73.4857 88.8807 72.8409C88.5443 72.1821 88.3761 71.299 88.3761 70.1916L88.3971 59.8467H91.1305L91.1095 70.3809C91.1095 70.9416 91.2567 71.3761 91.551 71.6845C91.8594 71.9788 92.294 72.126 92.8547 72.126H94.6419V74.6281H93.0018ZM86.5678 65.2084V63.0637H94.6419V65.2084H86.5678ZM97.6416 74.481V63.0637H100.564V74.481H97.6416ZM96.0436 65.2505V63.0637H100.564V65.2505H96.0436ZM98.7139 61.697C98.1392 61.697 97.7117 61.5499 97.4313 61.2555C97.165 60.9471 97.0318 60.5686 97.0318 60.1201C97.0318 59.6435 97.165 59.258 97.4313 58.9636C97.7117 58.6693 98.1392 58.5221 98.7139 58.5221C99.2886 58.5221 99.7091 58.6693 99.9755 58.9636C100.242 59.258 100.375 59.6435 100.375 60.1201C100.375 60.5686 100.242 60.9471 99.9755 61.2555C99.7091 61.5499 99.2886 61.697 98.7139 61.697ZM109.42 74.8805C108.411 74.8805 107.521 74.7193 106.75 74.3969C105.979 74.0745 105.327 73.6399 104.795 73.0932C104.262 72.5325 103.855 71.9017 103.575 71.2009C103.309 70.5 103.176 69.7711 103.176 69.0142V68.5726C103.176 67.7876 103.316 67.0447 103.596 66.3438C103.89 65.6289 104.304 64.9982 104.837 64.4515C105.383 63.8908 106.042 63.4562 106.813 63.1478C107.584 62.8254 108.453 62.6642 109.42 62.6642C110.388 62.6642 111.257 62.8254 112.028 63.1478C112.799 63.4562 113.45 63.8908 113.983 64.4515C114.53 64.9982 114.943 65.6289 115.224 66.3438C115.504 67.0447 115.644 67.7876 115.644 68.5726V69.0142C115.644 69.7711 115.504 70.5 115.224 71.2009C114.957 71.9017 114.558 72.5325 114.025 73.0932C113.492 73.6399 112.841 74.0745 112.07 74.3969C111.299 74.7193 110.416 74.8805 109.42 74.8805ZM109.42 72.3783C110.135 72.3783 110.738 72.2241 111.229 71.9158C111.719 71.5934 112.091 71.1658 112.343 70.6332C112.595 70.0865 112.721 69.4697 112.721 68.7829C112.721 68.082 112.588 67.4652 112.322 66.9326C112.07 66.3859 111.691 65.9583 111.187 65.65C110.696 65.3276 110.107 65.1664 109.42 65.1664C108.733 65.1664 108.138 65.3276 107.633 65.65C107.142 65.9583 106.764 66.3859 106.498 66.9326C106.231 67.4652 106.098 68.082 106.098 68.7829C106.098 69.4697 106.224 70.0865 106.477 70.6332C106.743 71.1658 107.121 71.5934 107.612 71.9158C108.103 72.2241 108.705 72.3783 109.42 72.3783ZM118.203 74.481V63.0637H120.516V67.9628H120.306C120.306 66.7994 120.46 65.8322 120.768 65.0612C121.077 64.2763 121.532 63.6875 122.135 63.295C122.752 62.9025 123.516 62.7063 124.427 62.7063H124.553C125.913 62.7063 126.943 63.1478 127.644 64.0309C128.345 64.9 128.695 66.2037 128.695 67.9418V74.481H125.773V67.6895C125.773 66.9886 125.569 66.4209 125.163 65.9864C124.77 65.5518 124.224 65.3346 123.523 65.3346C122.808 65.3346 122.226 65.5588 121.778 66.0074C121.343 66.4419 121.126 67.0307 121.126 67.7736V74.481H118.203ZM135.98 74.8384C134.41 74.8384 133.176 74.509 132.279 73.8502C131.396 73.1773 130.933 72.2522 130.891 71.0747H133.519C133.561 71.4672 133.779 71.8246 134.171 72.1471C134.564 72.4695 135.181 72.6307 136.022 72.6307C136.722 72.6307 137.276 72.5045 137.683 72.2522C138.103 71.9999 138.313 71.6564 138.313 71.2219C138.313 70.8434 138.152 70.5421 137.83 70.3178C137.521 70.0935 136.989 69.9463 136.232 69.8762L135.223 69.7711C133.947 69.6309 132.966 69.2665 132.279 68.6777C131.592 68.089 131.249 67.304 131.249 66.3228C131.249 65.5378 131.445 64.879 131.837 64.3463C132.23 63.8137 132.77 63.4142 133.456 63.1478C134.157 62.8675 134.956 62.7273 135.853 62.7273C137.255 62.7273 138.391 63.0357 139.26 63.6525C140.129 64.2692 140.584 65.1734 140.626 66.3649H137.998C137.97 65.9724 137.774 65.6359 137.409 65.3556C137.045 65.0752 136.519 64.9351 135.832 64.9351C135.216 64.9351 134.739 65.0542 134.403 65.2925C134.066 65.5308 133.898 65.8392 133.898 66.2177C133.898 66.5821 134.031 66.8625 134.297 67.0587C134.578 67.255 135.026 67.3881 135.643 67.4582L136.652 67.5633C137.998 67.7035 139.049 68.075 139.806 68.6777C140.577 69.2805 140.963 70.0935 140.963 71.1168C140.963 71.8737 140.752 72.5325 140.332 73.0932C139.925 73.6399 139.351 74.0674 138.608 74.3758C137.865 74.6842 136.989 74.8384 135.98 74.8384ZM150.711 69.7711V67.1849H153.697C154.3 67.1849 154.805 67.0657 155.211 66.8274C155.632 66.5891 155.947 66.2597 156.157 65.8392C156.382 65.4187 156.494 64.9351 156.494 64.3884C156.494 63.8417 156.382 63.3581 156.157 62.9376C155.947 62.5171 155.632 62.1947 155.211 61.9704C154.805 61.7321 154.3 61.6129 153.697 61.6129H150.711V59.0267H153.445C154.734 59.0267 155.828 59.237 156.725 59.6575C157.636 60.078 158.33 60.6808 158.807 61.4658C159.283 62.2367 159.521 63.1549 159.521 64.2202V64.5566C159.521 65.6219 159.283 66.5471 158.807 67.3321C158.33 68.103 157.636 68.7058 156.725 69.1403C155.828 69.5608 154.734 69.7711 153.445 69.7711H150.711ZM148.146 74.481V59.0267H151.132V74.481H148.146ZM161.837 74.481V63.0637H164.149V67.8998H164.086C164.086 66.2597 164.437 65.0192 165.138 64.1781C165.839 63.3371 166.869 62.9166 168.229 62.9166H168.649V65.4607H167.85C166.869 65.4607 166.105 65.7271 165.558 66.2597C165.026 66.7784 164.759 67.5353 164.759 68.5305V74.481H161.837ZM175.632 74.8805C174.65 74.8805 173.788 74.7122 173.045 74.3758C172.316 74.0394 171.707 73.5908 171.216 73.0302C170.74 72.4554 170.375 71.8176 170.123 71.1168C169.884 70.4159 169.765 69.701 169.765 68.9721V68.5726C169.765 67.8157 169.884 67.0868 170.123 66.3859C170.375 65.671 170.74 65.0402 171.216 64.4935C171.707 63.9328 172.309 63.4913 173.024 63.1689C173.739 62.8325 174.566 62.6642 175.505 62.6642C176.739 62.6642 177.769 62.9376 178.596 63.4843C179.437 64.0169 180.068 64.7248 180.489 65.6079C180.909 66.477 181.119 67.4162 181.119 68.4254V69.4767H171.006V67.6895H179.29L178.386 68.5726C178.386 67.8437 178.281 67.2199 178.071 66.7013C177.86 66.1826 177.538 65.7831 177.103 65.5028C176.683 65.2224 176.15 65.0823 175.505 65.0823C174.861 65.0823 174.314 65.2294 173.865 65.5238C173.417 65.8182 173.073 66.2457 172.835 66.8064C172.611 67.3531 172.499 68.0119 172.499 68.7829C172.499 69.4978 172.611 70.1355 172.835 70.6962C173.059 71.2429 173.403 71.6775 173.865 71.9999C174.328 72.3083 174.917 72.4624 175.632 72.4624C176.346 72.4624 176.928 72.3223 177.377 72.0419C177.825 71.7476 178.113 71.3901 178.239 70.9696H180.93C180.762 71.7546 180.44 72.4414 179.963 73.0302C179.486 73.6189 178.877 74.0745 178.134 74.3969C177.405 74.7193 176.571 74.8805 175.632 74.8805ZM187.703 74.8384C186.133 74.8384 184.9 74.509 184.002 73.8502C183.119 73.1773 182.657 72.2522 182.615 71.0747H185.243C185.285 71.4672 185.502 71.8246 185.895 72.1471C186.287 72.4695 186.904 72.6307 187.745 72.6307C188.446 72.6307 189 72.5045 189.406 72.2522C189.827 71.9999 190.037 71.6564 190.037 71.2219C190.037 70.8434 189.876 70.5421 189.553 70.3178C189.245 70.0935 188.712 69.9463 187.955 69.8762L186.946 69.7711C185.671 69.6309 184.689 69.2665 184.002 68.6777C183.316 68.089 182.972 67.304 182.972 66.3228C182.972 65.5378 183.168 64.879 183.561 64.3463C183.953 63.8137 184.493 63.4142 185.18 63.1478C185.881 62.8675 186.68 62.7273 187.577 62.7273C188.979 62.7273 190.114 63.0357 190.983 63.6525C191.852 64.2692 192.308 65.1734 192.35 66.3649H189.722C189.694 65.9724 189.497 65.6359 189.133 65.3556C188.768 65.0752 188.243 64.9351 187.556 64.9351C186.939 64.9351 186.463 65.0542 186.126 65.2925C185.79 65.5308 185.621 65.8392 185.621 66.2177C185.621 66.5821 185.755 66.8625 186.021 67.0587C186.301 67.255 186.75 67.3881 187.367 67.4582L188.376 67.5633C189.722 67.7035 190.773 68.075 191.53 68.6777C192.301 69.2805 192.686 70.0935 192.686 71.1168C192.686 71.8737 192.476 72.5325 192.056 73.0932C191.649 73.6399 191.074 74.0674 190.331 74.3758C189.588 74.6842 188.712 74.8384 187.703 74.8384ZM200.21 74.8805C199.229 74.8805 198.367 74.7122 197.624 74.3758C196.895 74.0394 196.285 73.5908 195.795 73.0302C195.318 72.4554 194.954 71.8176 194.701 71.1168C194.463 70.4159 194.344 69.701 194.344 68.9721V68.5726C194.344 67.8157 194.463 67.0868 194.701 66.3859C194.954 65.671 195.318 65.0402 195.795 64.4935C196.285 63.9328 196.888 63.4913 197.603 63.1689C198.318 62.8325 199.145 62.6642 200.084 62.6642C201.317 62.6642 202.348 62.9376 203.175 63.4843C204.016 64.0169 204.647 64.7248 205.067 65.6079C205.488 66.477 205.698 67.4162 205.698 68.4254V69.4767H195.584V67.6895H203.869L202.964 68.5726C202.964 67.8437 202.859 67.2199 202.649 66.7013C202.439 66.1826 202.116 65.7831 201.682 65.5028C201.261 65.2224 200.729 65.0823 200.084 65.0823C199.439 65.0823 198.892 65.2294 198.444 65.5238C197.995 65.8182 197.652 66.2457 197.414 66.8064C197.189 67.3531 197.077 68.0119 197.077 68.7829C197.077 69.4978 197.189 70.1355 197.414 70.6962C197.638 71.2429 197.981 71.6775 198.444 71.9999C198.906 72.3083 199.495 72.4624 200.21 72.4624C200.925 72.4624 201.507 72.3223 201.955 72.0419C202.404 71.7476 202.691 71.3901 202.817 70.9696H205.509C205.34 71.7546 205.018 72.4414 204.541 73.0302C204.065 73.6189 203.455 74.0745 202.712 74.3969C201.983 74.7193 201.149 74.8805 200.21 74.8805ZM208.139 74.481V63.0637H210.452V67.9628H210.242C210.242 66.7994 210.396 65.8322 210.705 65.0612C211.013 64.2763 211.469 63.6875 212.071 63.295C212.688 62.9025 213.452 62.7063 214.363 62.7063H214.489C215.849 62.7063 216.879 63.1478 217.58 64.0309C218.281 64.9 218.631 66.2037 218.631 67.9418V74.481H215.709V67.6895C215.709 66.9886 215.506 66.4209 215.099 65.9864C214.707 65.5518 214.16 65.3346 213.459 65.3346C212.744 65.3346 212.162 65.5588 211.714 66.0074C211.279 66.4419 211.062 67.0307 211.062 67.7736V74.481H208.139ZM226.736 74.6281C225.684 74.6281 224.815 74.495 224.128 74.2286C223.456 73.9483 222.951 73.4857 222.615 72.8409C222.278 72.1821 222.11 71.299 222.11 70.1916L222.131 59.8467H224.864L224.843 70.3809C224.843 70.9416 224.991 71.3761 225.285 71.6845C225.593 71.9788 226.028 72.126 226.589 72.126H228.376V74.6281H226.736ZM220.302 65.2084V63.0637H228.376V65.2084H220.302ZM237.705 74.481V71.0957H237.222V67.3321C237.222 66.6732 237.06 66.1826 236.738 65.8602C236.416 65.5378 235.918 65.3766 235.245 65.3766C234.895 65.3766 234.474 65.3836 233.984 65.3976C233.493 65.4117 232.995 65.4327 232.491 65.4607C232 65.4747 231.559 65.4958 231.166 65.5238V63.0427C231.489 63.0147 231.853 62.9866 232.26 62.9586C232.666 62.9306 233.08 62.9166 233.5 62.9166C233.935 62.9025 234.341 62.8955 234.72 62.8955C235.897 62.8955 236.871 63.0497 237.642 63.3581C238.427 63.6665 239.016 64.1501 239.408 64.8089C239.815 65.4677 240.018 66.3298 240.018 67.3951V74.481H237.705ZM234.026 74.7753C233.199 74.7753 232.47 74.6281 231.839 74.3338C231.222 74.0394 230.739 73.6189 230.388 73.0722C230.052 72.5255 229.884 71.8667 229.884 71.0957C229.884 70.2547 230.087 69.5678 230.493 69.0352C230.914 68.5025 231.496 68.103 232.238 67.8367C232.995 67.5704 233.879 67.4372 234.888 67.4372H237.537V69.1824H234.846C234.173 69.1824 233.654 69.3506 233.29 69.687C232.939 70.0094 232.764 70.4299 232.764 70.9486C232.764 71.4672 232.939 71.8877 233.29 72.2101C233.654 72.5325 234.173 72.6937 234.846 72.6937C235.252 72.6937 235.624 72.6236 235.96 72.4835C236.311 72.3293 236.598 72.077 236.822 71.7265C237.06 71.3621 237.194 70.8715 237.222 70.2547L237.937 71.0747C237.866 71.8737 237.67 72.5465 237.348 73.0932C237.039 73.6399 236.605 74.0604 236.044 74.3548C235.498 74.6351 234.825 74.7753 234.026 74.7753ZM248.111 74.6281C247.06 74.6281 246.191 74.495 245.504 74.2286C244.831 73.9483 244.326 73.4857 243.99 72.8409C243.653 72.1821 243.485 71.299 243.485 70.1916L243.506 59.8467H246.24L246.219 70.3809C246.219 70.9416 246.366 71.3761 246.66 71.6845C246.969 71.9788 247.403 72.126 247.964 72.126H249.751V74.6281H248.111ZM241.677 65.2084V63.0637H249.751V65.2084H241.677ZM252.751 74.481V63.0637H255.673V74.481H252.751ZM251.153 65.2505V63.0637H255.673V65.2505H251.153ZM253.823 61.697C253.248 61.697 252.821 61.5499 252.54 61.2555C252.274 60.9471 252.141 60.5686 252.141 60.1201C252.141 59.6435 252.274 59.258 252.54 58.9636C252.821 58.6693 253.248 58.5221 253.823 58.5221C254.398 58.5221 254.818 58.6693 255.085 58.9636C255.351 59.258 255.484 59.6435 255.484 60.1201C255.484 60.5686 255.351 60.9471 255.085 61.2555C254.818 61.5499 254.398 61.697 253.823 61.697ZM264.529 74.8805C263.52 74.8805 262.63 74.7193 261.859 74.3969C261.088 74.0745 260.436 73.6399 259.904 73.0932C259.371 72.5325 258.965 71.9017 258.684 71.2009C258.418 70.5 258.285 69.7711 258.285 69.0142V68.5726C258.285 67.7876 258.425 67.0447 258.705 66.3438C259 65.6289 259.413 64.9982 259.946 64.4515C260.492 63.8908 261.151 63.4562 261.922 63.1478C262.693 62.8254 263.562 62.6642 264.529 62.6642C265.497 62.6642 266.366 62.8254 267.137 63.1478C267.908 63.4562 268.559 63.8908 269.092 64.4515C269.639 64.9982 270.052 65.6289 270.333 66.3438C270.613 67.0447 270.753 67.7876 270.753 68.5726V69.0142C270.753 69.7711 270.613 70.5 270.333 71.2009C270.066 71.9017 269.667 72.5325 269.134 73.0932C268.602 73.6399 267.95 74.0745 267.179 74.3969C266.408 74.7193 265.525 74.8805 264.529 74.8805ZM264.529 72.3783C265.244 72.3783 265.847 72.2241 266.338 71.9158C266.828 71.5934 267.2 71.1658 267.452 70.6332C267.704 70.0865 267.831 69.4697 267.831 68.7829C267.831 68.082 267.697 67.4652 267.431 66.9326C267.179 66.3859 266.8 65.9583 266.296 65.65C265.805 65.3276 265.216 65.1664 264.529 65.1664C263.843 65.1664 263.247 65.3276 262.742 65.65C262.252 65.9583 261.873 66.3859 261.607 66.9326C261.34 67.4652 261.207 68.082 261.207 68.7829C261.207 69.4697 261.333 70.0865 261.586 70.6332C261.852 71.1658 262.231 71.5934 262.721 71.9158C263.212 72.2241 263.815 72.3783 264.529 72.3783ZM273.312 74.481V63.0637H275.625V67.9628H275.415C275.415 66.7994 275.569 65.8322 275.878 65.0612C276.186 64.2763 276.641 63.6875 277.244 63.295C277.861 62.9025 278.625 62.7063 279.536 62.7063H279.662C281.022 62.7063 282.052 63.1478 282.753 64.0309C283.454 64.9 283.804 66.2037 283.804 67.9418V74.481H280.882V67.6895C280.882 66.9886 280.678 66.4209 280.272 65.9864C279.879 65.5518 279.333 65.3346 278.632 65.3346C277.917 65.3346 277.335 65.5588 276.887 66.0074C276.452 66.4419 276.235 67.0307 276.235 67.7736V74.481H273.312Z" fill="white"/>
<path d="M141.52 109.663C140.231 109.663 139.144 109.46 138.261 109.053C137.378 108.633 136.705 108.058 136.243 107.329C135.794 106.586 135.57 105.752 135.57 104.827H137.168C137.168 105.416 137.308 105.97 137.588 106.488C137.883 106.993 138.345 107.406 138.976 107.729C139.621 108.037 140.469 108.191 141.52 108.191C142.487 108.191 143.286 108.051 143.917 107.771C144.562 107.49 145.039 107.112 145.347 106.635C145.669 106.159 145.831 105.626 145.831 105.037C145.831 104.294 145.536 103.678 144.948 103.187C144.373 102.682 143.504 102.381 142.34 102.283L140.574 102.115C139.256 102.003 138.205 101.596 137.42 100.895C136.649 100.18 136.264 99.2411 136.264 98.0777C136.264 97.1946 136.474 96.4166 136.894 95.7438C137.315 95.0709 137.911 94.5383 138.682 94.1458C139.467 93.7533 140.406 93.5571 141.499 93.5571C142.607 93.5571 143.553 93.7603 144.338 94.1668C145.137 94.5593 145.746 95.106 146.167 95.8069C146.588 96.5077 146.798 97.3207 146.798 98.2459H145.2C145.2 97.6852 145.074 97.1595 144.821 96.6689C144.569 96.1783 144.17 95.7858 143.623 95.4915C143.076 95.1831 142.368 95.0289 141.499 95.0289C140.672 95.0289 139.985 95.1691 139.439 95.4494C138.906 95.7298 138.506 96.1012 138.24 96.5638C137.988 97.0264 137.862 97.531 137.862 98.0777C137.862 98.7645 138.107 99.3463 138.598 99.8229C139.088 100.299 139.796 100.573 140.721 100.643L142.487 100.811C143.525 100.895 144.408 101.126 145.137 101.505C145.88 101.869 146.447 102.353 146.84 102.956C147.232 103.544 147.429 104.238 147.429 105.037C147.429 105.934 147.183 106.733 146.693 107.434C146.216 108.135 145.536 108.682 144.653 109.074C143.77 109.467 142.726 109.663 141.52 109.663ZM154.751 109.621C153.42 109.621 152.403 109.194 151.702 108.338C151.002 107.469 150.651 106.264 150.651 104.722V98.1618H152.207V105.037C152.207 106.005 152.459 106.776 152.964 107.35C153.483 107.911 154.198 108.191 155.109 108.191C156.062 108.191 156.819 107.89 157.38 107.287C157.954 106.684 158.242 105.878 158.242 104.869V98.1618H159.819V109.306H158.557V104.659H158.809C158.809 105.696 158.662 106.586 158.368 107.329C158.073 108.058 157.632 108.626 157.043 109.032C156.454 109.425 155.711 109.621 154.814 109.621H154.751ZM169.682 109.663C168.701 109.663 167.839 109.446 167.096 109.011C166.367 108.577 165.792 107.967 165.372 107.182C164.965 106.397 164.748 105.493 164.72 104.47H165.204V109.306H163.942V93.9566H165.519V101.631L164.909 103.04C164.937 101.918 165.162 100.972 165.582 100.201C166.017 99.4164 166.591 98.8206 167.306 98.4141C168.035 98.0076 168.862 97.8043 169.787 97.8043C170.6 97.8043 171.336 97.9585 171.995 98.2669C172.654 98.5753 173.215 98.9958 173.677 99.5285C174.154 100.061 174.511 100.678 174.75 101.379C175.002 102.066 175.128 102.795 175.128 103.566V103.86C175.128 104.617 175.002 105.346 174.75 106.047C174.497 106.733 174.133 107.35 173.656 107.897C173.194 108.444 172.626 108.878 171.953 109.201C171.28 109.509 170.523 109.663 169.682 109.663ZM169.514 108.275C170.355 108.275 171.077 108.072 171.68 107.666C172.283 107.259 172.745 106.712 173.068 106.026C173.39 105.339 173.551 104.568 173.551 103.713C173.551 102.844 173.383 102.073 173.047 101.4C172.724 100.713 172.255 100.173 171.638 99.7808C171.035 99.3883 170.327 99.1921 169.514 99.1921C168.757 99.1921 168.07 99.3603 167.454 99.6967C166.837 100.033 166.346 100.51 165.982 101.126C165.631 101.729 165.456 102.444 165.456 103.271V104.301C165.456 105.086 165.631 105.78 165.982 106.383C166.346 106.972 166.837 107.434 167.454 107.771C168.07 108.107 168.757 108.275 169.514 108.275ZM181.827 109.621C180.397 109.621 179.297 109.313 178.526 108.696C177.755 108.065 177.362 107.224 177.348 106.173H178.82C178.848 106.705 179.087 107.189 179.535 107.624C179.998 108.058 180.762 108.275 181.827 108.275C182.822 108.275 183.565 108.072 184.056 107.666C184.56 107.245 184.813 106.74 184.813 106.152C184.813 105.605 184.602 105.185 184.182 104.89C183.775 104.582 183.18 104.386 182.395 104.301L181.133 104.175C180.124 104.063 179.304 103.755 178.673 103.25C178.056 102.731 177.748 102.024 177.748 101.126C177.748 100.468 177.916 99.8929 178.252 99.4023C178.589 98.9117 179.058 98.5333 179.661 98.2669C180.278 97.9866 181 97.8464 181.827 97.8464C183.018 97.8464 183.986 98.1267 184.729 98.6874C185.485 99.2481 185.871 100.047 185.885 101.084H184.413C184.399 100.552 184.175 100.103 183.74 99.7388C183.306 99.3743 182.668 99.1921 181.827 99.1921C180.958 99.1921 180.306 99.3813 179.871 99.7598C179.451 100.138 179.241 100.601 179.241 101.148C179.241 101.61 179.402 101.996 179.724 102.304C180.047 102.598 180.551 102.781 181.238 102.851L182.5 102.977C183.621 103.103 184.532 103.425 185.233 103.944C185.948 104.463 186.305 105.206 186.305 106.173C186.305 106.832 186.116 107.427 185.738 107.96C185.373 108.479 184.855 108.885 184.182 109.18C183.509 109.474 182.724 109.621 181.827 109.621ZM194.133 109.663C193.194 109.663 192.374 109.502 191.673 109.18C190.987 108.843 190.412 108.395 189.949 107.834C189.487 107.259 189.136 106.628 188.898 105.941C188.674 105.255 188.562 104.561 188.562 103.86V103.566C188.562 102.851 188.674 102.157 188.898 101.484C189.136 100.797 189.487 100.18 189.949 99.6336C190.412 99.0729 190.987 98.6314 191.673 98.309C192.374 97.9726 193.18 97.8043 194.091 97.8043C195.017 97.8043 195.837 97.9726 196.551 98.309C197.28 98.6454 197.869 99.122 198.318 99.7388C198.766 100.356 199.033 101.084 199.117 101.925H197.603C197.477 101.155 197.112 100.517 196.509 100.012C195.921 99.4934 195.115 99.2341 194.091 99.2341C193.208 99.2341 192.472 99.4374 191.884 99.8439C191.309 100.236 190.874 100.776 190.58 101.463C190.286 102.136 190.139 102.886 190.139 103.713C190.139 104.526 190.286 105.283 190.58 105.984C190.874 106.67 191.316 107.224 191.905 107.645C192.493 108.051 193.236 108.254 194.133 108.254C194.82 108.254 195.416 108.135 195.921 107.897C196.439 107.645 196.853 107.308 197.161 106.888C197.484 106.467 197.673 106.005 197.729 105.5H199.243C199.187 106.341 198.92 107.077 198.444 107.708C197.981 108.324 197.379 108.808 196.636 109.158C195.893 109.495 195.059 109.663 194.133 109.663ZM202.134 109.306V98.1828H203.396V102.83H203.27C203.27 101.204 203.627 100.005 204.342 99.2341C205.057 98.4491 206.178 98.0567 207.706 98.0567H208.064V99.4864H207.412C206.206 99.4864 205.288 99.8018 204.657 100.433C204.027 101.049 203.711 101.961 203.711 103.166V109.306H202.134ZM211.203 109.306V98.1828H212.759V109.306H211.203ZM209.416 99.4444V98.1828H212.759V99.4444H209.416ZM211.54 96.1223C211.161 96.1223 210.874 96.0241 210.678 95.8279C210.495 95.6176 210.404 95.3583 210.404 95.0499C210.404 94.7415 210.495 94.4892 210.678 94.293C210.874 94.0827 211.161 93.9776 211.54 93.9776C211.918 93.9776 212.199 94.0827 212.381 94.293C212.563 94.4892 212.654 94.7415 212.654 95.0499C212.654 95.3583 212.563 95.6176 212.381 95.8279C212.199 96.0241 211.918 96.1223 211.54 96.1223ZM216.898 113.511V98.1828H218.159V102.956L217.781 102.998C217.837 101.876 218.075 100.93 218.496 100.159C218.93 99.3883 219.512 98.8066 220.241 98.4141C220.984 98.0076 221.811 97.8043 222.722 97.8043C223.535 97.8043 224.271 97.9655 224.93 98.2879C225.603 98.5963 226.17 99.0239 226.633 99.5705C227.109 100.103 227.467 100.72 227.705 101.421C227.958 102.108 228.084 102.83 228.084 103.587V103.881C228.084 104.638 227.958 105.367 227.705 106.068C227.453 106.754 227.088 107.371 226.612 107.918C226.149 108.451 225.582 108.878 224.909 109.201C224.25 109.509 223.507 109.663 222.68 109.663C221.797 109.663 220.984 109.467 220.241 109.074C219.512 108.668 218.916 108.072 218.454 107.287C218.005 106.502 217.76 105.535 217.718 104.386L218.475 105.963V113.511H216.898ZM222.47 108.275C223.311 108.275 224.033 108.079 224.635 107.687C225.238 107.28 225.701 106.733 226.023 106.047C226.346 105.346 226.507 104.575 226.507 103.734C226.507 102.865 226.339 102.094 226.002 101.421C225.68 100.734 225.217 100.194 224.614 99.8018C224.012 99.3953 223.297 99.1921 222.47 99.1921C221.713 99.1921 221.026 99.3603 220.409 99.6967C219.792 100.033 219.302 100.51 218.937 101.126C218.587 101.729 218.412 102.444 218.412 103.271V104.301C218.412 105.086 218.587 105.78 218.937 106.383C219.302 106.972 219.792 107.434 220.409 107.771C221.026 108.107 221.713 108.275 222.47 108.275ZM235.308 109.432C234.537 109.432 233.871 109.32 233.311 109.095C232.75 108.871 232.315 108.493 232.007 107.96C231.699 107.413 231.544 106.684 231.544 105.773V94.6714H233.058V106.005C233.058 106.649 233.234 107.147 233.584 107.497C233.934 107.834 234.432 108.002 235.077 108.002H237.074V109.432H235.308ZM229.547 99.3813V98.1828H237.074V99.3813H229.547ZM240.71 109.306V98.1828H242.266V109.306H240.71ZM238.923 99.4444V98.1828H242.266V99.4444H238.923ZM241.046 96.1223C240.668 96.1223 240.38 96.0241 240.184 95.8279C240.002 95.6176 239.911 95.3583 239.911 95.0499C239.911 94.7415 240.002 94.4892 240.184 94.293C240.38 94.0827 240.668 93.9776 241.046 93.9776C241.425 93.9776 241.705 94.0827 241.887 94.293C242.069 94.4892 242.161 94.7415 242.161 95.0499C242.161 95.3583 242.069 95.6176 241.887 95.8279C241.705 96.0241 241.425 96.1223 241.046 96.1223ZM251.387 109.663C250.434 109.663 249.593 109.502 248.864 109.18C248.149 108.843 247.54 108.402 247.035 107.855C246.544 107.294 246.166 106.67 245.9 105.984C245.647 105.297 245.521 104.596 245.521 103.881V103.587C245.521 102.872 245.654 102.171 245.921 101.484C246.187 100.783 246.572 100.159 247.077 99.6126C247.582 99.0659 248.191 98.6314 248.906 98.309C249.635 97.9726 250.462 97.8043 251.387 97.8043C252.327 97.8043 253.154 97.9726 253.869 98.309C254.597 98.6314 255.214 99.0659 255.719 99.6126C256.223 100.159 256.602 100.783 256.854 101.484C257.121 102.171 257.254 102.872 257.254 103.587V103.881C257.254 104.596 257.128 105.297 256.875 105.984C256.623 106.67 256.244 107.294 255.74 107.855C255.249 108.402 254.639 108.843 253.911 109.18C253.182 109.502 252.341 109.663 251.387 109.663ZM251.387 108.254C252.313 108.254 253.091 108.051 253.721 107.645C254.366 107.224 254.857 106.677 255.193 106.005C255.53 105.318 255.698 104.561 255.698 103.734C255.698 102.893 255.523 102.136 255.172 101.463C254.836 100.776 254.345 100.236 253.7 99.8439C253.056 99.4374 252.285 99.2341 251.387 99.2341C250.504 99.2341 249.74 99.4374 249.096 99.8439C248.451 100.236 247.953 100.776 247.603 101.463C247.266 102.136 247.098 102.893 247.098 103.734C247.098 104.561 247.266 105.318 247.603 106.005C247.939 106.677 248.423 107.224 249.054 107.645C249.698 108.051 250.476 108.254 251.387 108.254ZM260.47 109.306V98.1828H261.731V102.851H261.479C261.479 101.813 261.633 100.923 261.941 100.18C262.25 99.4374 262.712 98.8627 263.329 98.4562C263.946 98.0497 264.724 97.8464 265.663 97.8464H265.726C267.128 97.8464 268.172 98.2879 268.859 99.171C269.546 100.04 269.889 101.267 269.889 102.851V109.306H268.333V102.514C268.333 101.547 268.067 100.769 267.534 100.18C267.002 99.5916 266.259 99.2972 265.306 99.2972C264.324 99.2972 263.532 99.6056 262.93 100.222C262.341 100.825 262.047 101.624 262.047 102.619V109.306H260.47Z" fill="white"/>
<path d="M72.6037 107.938V97.3036H74.4356V107.938H72.6037ZM68.4037 103.47V101.772H78.6356V103.47H68.4037ZM81.8044 110.306V107.625C81.8044 106.97 81.8938 106.411 82.0725 105.949C82.2661 105.488 82.5938 105.071 83.0555 104.698C83.5172 104.311 84.1427 103.939 84.932 103.581L87.9927 102.174C88.7373 101.831 89.3256 101.392 89.7575 100.856C90.1895 100.305 90.4054 99.5972 90.4054 98.7334C90.4054 97.6908 90.115 96.8791 89.5341 96.2983C88.9533 95.7174 88.1342 95.427 87.0767 95.427C86.0342 95.427 85.215 95.7174 84.6193 96.2983C84.0235 96.8791 83.7257 97.6908 83.7257 98.7334H81.6257C81.6257 97.7951 81.8193 96.9313 82.2065 96.1419C82.6086 95.3525 83.2118 94.727 84.0161 94.2653C84.8203 93.7887 85.8405 93.5504 87.0767 93.5504C88.3129 93.5504 89.3256 93.7887 90.115 94.2653C90.9192 94.727 91.515 95.3377 91.9022 96.0972C92.3043 96.8568 92.5054 97.6834 92.5054 98.577V98.8898C92.5054 100.066 92.1629 101.057 91.4778 101.861C90.8075 102.665 89.899 103.328 88.7522 103.849L85.6916 105.257C85.0065 105.57 84.5448 105.882 84.3065 106.195C84.0682 106.508 83.9491 106.925 83.9491 107.446V109.501L83.3682 108.474H92.7065V110.306H81.8044ZM101.021 110.708C99.859 110.708 98.8239 110.499 97.9154 110.082C97.0218 109.665 96.3144 109.084 95.7931 108.34C95.2867 107.595 95.0335 106.731 95.0335 105.748C95.0335 105.093 95.1601 104.505 95.4133 103.983C95.6665 103.447 96.0165 102.985 96.4633 102.598C96.9101 102.211 97.4165 101.913 97.9824 101.705V101.481C97.5356 101.288 97.1261 101.027 96.7537 100.699C96.3963 100.372 96.1059 99.9844 95.8825 99.5376C95.6739 99.0908 95.5697 98.5844 95.5697 98.0185C95.5697 97.0802 95.8154 96.2834 96.3069 95.6281C96.8133 94.9728 97.4761 94.4738 98.2952 94.1313C99.1292 93.7738 100.038 93.5951 101.021 93.5951C102.019 93.5951 102.927 93.7738 103.746 94.1313C104.58 94.4738 105.243 94.9728 105.735 95.6281C106.226 96.2834 106.472 97.0802 106.472 98.0185C106.472 98.5844 106.368 99.0908 106.159 99.5376C105.95 99.9844 105.66 100.372 105.288 100.699C104.93 101.027 104.521 101.288 104.059 101.481V101.705C104.64 101.913 105.154 102.218 105.6 102.621C106.047 103.008 106.397 103.47 106.65 104.006C106.904 104.527 107.03 105.108 107.03 105.748C107.03 106.731 106.77 107.595 106.248 108.34C105.742 109.084 105.035 109.665 104.126 110.082C103.232 110.499 102.197 110.708 101.021 110.708ZM101.021 108.876C101.84 108.876 102.54 108.749 103.121 108.496C103.702 108.228 104.148 107.856 104.461 107.379C104.774 106.888 104.93 106.314 104.93 105.659C104.93 105.004 104.774 104.438 104.461 103.961C104.163 103.484 103.724 103.12 103.143 102.866C102.562 102.598 101.855 102.464 101.021 102.464C100.202 102.464 99.5016 102.598 98.9207 102.866C98.3399 103.12 97.8931 103.484 97.5803 103.961C97.2825 104.438 97.1335 105.004 97.1335 105.659C97.1335 106.314 97.2825 106.888 97.5803 107.379C97.8931 107.856 98.3399 108.228 98.9207 108.496C99.5016 108.749 100.202 108.876 101.021 108.876ZM101.021 100.766C102.033 100.766 102.845 100.55 103.456 100.118C104.066 99.6717 104.372 98.994 104.372 98.0855C104.372 97.1621 104.059 96.4919 103.433 96.0749C102.823 95.643 102.019 95.427 101.021 95.427C100.023 95.427 99.2112 95.643 98.5856 96.0749C97.975 96.5068 97.6697 97.177 97.6697 98.0855C97.6697 98.994 97.975 99.6717 98.5856 100.118C99.2112 100.55 100.023 100.766 101.021 100.766ZM113.748 110.306L119.914 93.9972H121.612L115.446 110.306H113.748ZM112.542 102.755C111.693 102.755 111.001 102.561 110.464 102.174C109.943 101.787 109.556 101.273 109.303 100.632C109.064 99.9919 108.945 99.2993 108.945 98.5547V97.9738C108.945 97.1696 109.072 96.4547 109.325 95.8291C109.578 95.1887 109.973 94.6898 110.509 94.3323C111.045 93.96 111.723 93.7738 112.542 93.7738C113.376 93.7738 114.054 93.96 114.575 94.3323C115.111 94.6898 115.506 95.1887 115.759 95.8291C116.012 96.4547 116.139 97.1696 116.139 97.9738V98.5547C116.139 99.2993 116.012 99.9919 115.759 100.632C115.521 101.273 115.141 101.787 114.62 102.174C114.098 102.561 113.406 102.755 112.542 102.755ZM112.542 101.28C113.227 101.28 113.734 101.034 114.061 100.543C114.404 100.037 114.575 99.2844 114.575 98.2866C114.575 97.2291 114.404 96.4621 114.061 95.9855C113.719 95.494 113.212 95.2483 112.542 95.2483C111.872 95.2483 111.365 95.494 111.023 95.9855C110.68 96.4621 110.509 97.2217 110.509 98.2642C110.509 99.2621 110.673 100.014 111.001 100.521C111.343 101.027 111.857 101.28 112.542 101.28ZM122.729 110.529C121.88 110.529 121.188 110.335 120.652 109.948C120.13 109.561 119.743 109.047 119.49 108.407C119.252 107.766 119.132 107.074 119.132 106.329V105.748C119.132 104.944 119.259 104.229 119.512 103.604C119.765 102.963 120.16 102.464 120.696 102.107C121.232 101.734 121.91 101.548 122.729 101.548C123.563 101.548 124.241 101.734 124.762 102.107C125.298 102.464 125.693 102.963 125.946 103.604C126.199 104.229 126.326 104.944 126.326 105.748V106.329C126.326 107.074 126.199 107.766 125.946 108.407C125.708 109.047 125.328 109.561 124.807 109.948C124.286 110.335 123.593 110.529 122.729 110.529ZM122.729 109.055C123.414 109.055 123.921 108.809 124.248 108.317C124.591 107.811 124.762 107.059 124.762 106.061C124.762 105.004 124.591 104.237 124.248 103.76C123.906 103.268 123.399 103.023 122.729 103.023C122.059 103.023 121.553 103.268 121.21 103.76C120.868 104.237 120.696 104.996 120.696 106.039C120.696 107.037 120.86 107.789 121.188 108.295C121.53 108.801 122.044 109.055 122.729 109.055Z" fill="white"/>
</svg>
