<svg width="603" height="603" viewBox="0 0 603 603" fill="none" xmlns="http://www.w3.org/2000/svg">
<circle opacity="0.5" cx="301.5" cy="301.5" r="301.5" fill="#0B356E"/>
<path d="M248.443 73.9117L248.003 61.5787L251.471 60.2559L259.46 69.7096L257.278 70.542L250.425 62.3161L251.312 62.3542L249.444 63.067L250.096 62.4416L250.565 73.102L248.443 73.9117ZM249.938 70.0194L249.926 67.9688L254.351 66.2811L255.693 67.8242L249.938 70.0194Z" fill="white"/>
<path d="M261.012 70.4093L260.402 56.5845L262.536 55.9601L263.146 69.7849L261.012 70.4093Z" fill="white"/>
<path d="M271.954 66.6197L271.578 64.8348L274.443 64.2318C274.965 64.1219 275.332 63.8975 275.544 63.5586C275.754 63.2092 275.806 62.784 275.701 62.283C275.596 61.7819 275.379 61.4243 275.05 61.21C274.719 60.9853 274.293 60.9279 273.771 61.0377L270.906 61.6408L270.619 60.2786L273.328 59.7085C274.09 59.5482 274.788 59.4993 275.423 59.562C276.065 59.612 276.599 59.8158 277.023 60.1735C277.457 60.5289 277.75 61.0668 277.902 61.787L277.948 62.0062C278.091 62.6847 278.062 63.2958 277.86 63.8397C277.667 64.3709 277.3 64.8296 276.76 65.2158C276.228 65.5893 275.529 65.8673 274.663 66.0496L271.954 66.6197ZM270.091 67.0119L267.652 55.4257L269.828 54.9676L272.267 66.5538L270.091 67.0119ZM270.83 61.2807L270.543 59.9185L272.986 59.4044C273.518 59.2924 273.88 59.0691 274.071 58.7346C274.262 58.4 274.309 57.9979 274.21 57.5282C274.111 57.0585 273.907 56.709 273.597 56.4799C273.287 56.2509 272.866 56.1923 272.333 56.3044L269.891 56.8184L269.515 55.0336L271.754 54.5623C273.049 54.2899 274.087 54.3548 274.869 54.7569C275.662 55.1569 276.165 55.8631 276.378 56.8756L276.424 57.0948C276.573 57.8046 276.521 58.4097 276.266 58.9102C276.02 59.398 275.62 59.7985 275.064 60.1116C274.507 60.4142 273.842 60.6469 273.069 60.8094L270.83 61.2807Z" fill="white"/>
<path d="M290.854 63.7844L290.11 53.8121L292.375 53.643L293.119 63.6153L290.854 63.7844ZM286.767 54.3824L286.618 52.3879L295.617 51.7165L295.766 53.711L286.767 54.3824Z" fill="white"/>
<path d="M303.042 63.7247C302.296 63.7208 301.64 63.5893 301.076 63.3303C300.523 63.0713 300.061 62.7275 299.69 62.2989C299.329 61.8596 299.055 61.3728 298.865 60.8385C298.687 60.3042 298.599 59.7597 298.602 59.2051L298.604 58.9011C298.607 58.3251 298.7 57.7709 298.885 57.2385C299.08 56.6956 299.359 56.217 299.724 55.803C300.1 55.3783 300.56 55.0448 301.106 54.8023C301.651 54.5492 302.281 54.4246 302.996 54.4284C303.934 54.4334 304.717 54.6455 305.344 55.0649C305.982 55.4736 306.459 56.0148 306.776 56.6885C307.092 57.3515 307.248 58.067 307.244 58.835L307.24 59.635L299.544 59.5941L299.551 58.2341L305.855 58.2676L305.164 58.936C305.167 58.3813 305.089 57.9062 304.931 57.5107C304.773 57.1152 304.53 56.8099 304.2 56.5948C303.881 56.3798 303.477 56.2709 302.986 56.2683C302.495 56.2657 302.079 56.3755 301.736 56.5977C301.394 56.8199 301.131 57.1438 300.947 57.5695C300.774 57.9846 300.686 58.4855 300.683 59.0721C300.68 59.6161 300.763 60.1019 300.931 60.5295C301.1 60.9464 301.359 61.2784 301.71 61.5256C302.061 61.7622 302.508 61.8819 303.052 61.8848C303.596 61.8877 304.039 61.7834 304.382 61.5718C304.724 61.3497 304.944 61.0788 305.042 60.7593L307.09 60.7702C306.959 61.3669 306.711 61.8882 306.346 62.3343C305.981 62.7804 305.515 63.1246 304.948 63.3669C304.392 63.6093 303.757 63.7285 303.042 63.7247Z" fill="white"/>
<path d="M313.074 64.2293C311.884 64.1309 310.969 63.8038 310.33 63.248C309.702 62.6823 309.41 61.9518 309.451 61.0562L311.445 61.2209C311.452 61.5212 311.594 61.8058 311.872 62.0749C312.149 62.344 312.607 62.5049 313.245 62.5576C313.776 62.6016 314.204 62.5406 314.528 62.3747C314.863 62.2097 315.044 61.9625 315.071 61.6329C315.095 61.3459 314.991 61.1072 314.761 60.9169C314.541 60.7275 314.146 60.5825 313.577 60.4819L312.818 60.339C311.859 60.1527 311.138 59.8148 310.654 59.3253C310.17 58.8358 309.959 58.219 310.02 57.4748C310.07 56.8795 310.26 56.3922 310.591 56.0128C310.922 55.6335 311.356 55.3643 311.894 55.2054C312.443 55.0367 313.057 54.9805 313.738 55.0367C314.801 55.1245 315.643 55.4296 316.263 55.9518C316.883 56.474 317.172 57.1882 317.129 58.0944L315.136 57.9297C315.14 57.6303 315.012 57.3629 314.753 57.1274C314.494 56.892 314.104 56.7527 313.583 56.7097C313.116 56.671 312.747 56.7315 312.477 56.8912C312.207 57.0508 312.06 57.2741 312.036 57.5611C312.013 57.8375 312.097 58.0585 312.286 58.224C312.487 58.3904 312.818 58.5195 313.282 58.6113L314.041 58.7543C315.052 58.9449 315.826 59.2925 316.363 59.797C316.91 60.3025 317.151 60.9432 317.087 61.7192C317.039 62.2933 316.839 62.7797 316.485 63.1786C316.142 63.5677 315.679 63.8559 315.097 64.0432C314.514 64.2305 313.84 64.2926 313.074 64.2293Z" fill="white"/>
<path d="M323.711 65.441C322.92 65.3202 322.282 65.1202 321.795 64.8409C321.322 64.5527 320.995 64.1467 320.816 63.623C320.639 63.0888 320.614 62.4052 320.741 61.5722L321.946 53.7929L324.002 54.107L322.775 62.0286C322.711 62.4504 322.772 62.7942 322.958 63.06C323.156 63.3169 323.466 63.4775 323.888 63.5419L325.232 63.7473L324.944 65.6295L323.711 65.441ZM319.953 57.6159L320.2 56.0026L326.273 56.9304L326.027 58.5437L319.953 57.6159Z" fill="white"/>
<path d="M328.915 66.3446L330.75 57.8525L332.924 58.3222L331.089 66.8143L328.915 66.3446ZM329.21 59.2223L329.561 57.5958L332.924 58.3222L332.572 59.9487L329.21 59.2223ZM331.767 57.0083C331.339 56.916 331.045 56.7378 330.884 56.4738C330.735 56.2016 330.697 55.8987 330.769 55.5651C330.846 55.2106 331.007 54.9453 331.252 54.7691C331.508 54.5952 331.85 54.5544 332.277 54.6468C332.705 54.7391 332.994 54.9162 333.144 55.1779C333.295 55.4397 333.332 55.7478 333.256 56.1023C333.184 56.4359 333.024 56.696 332.776 56.8826C332.531 57.0588 332.194 57.1007 331.767 57.0083Z" fill="white"/>
<path d="M336.152 68.0572L338.591 59.7187L340.28 60.2128L339.234 63.7909L339.08 63.7459C339.329 62.8962 339.648 62.2227 340.038 61.7256C340.431 61.2181 340.889 60.8855 341.413 60.7276C341.948 60.5727 342.547 60.5926 343.213 60.7872L343.305 60.8142C344.298 61.1047 344.956 61.6473 345.279 62.442C345.606 63.2264 345.583 64.2534 345.212 65.5229L343.815 70.2987L341.68 69.6744L343.131 64.7142C343.281 64.2023 343.254 63.7443 343.05 63.3401C342.856 62.9389 342.503 62.6634 341.991 62.5136C341.469 62.3609 340.996 62.4004 340.573 62.6322C340.163 62.8568 339.878 63.2403 339.719 63.7829L338.286 68.6816L336.152 68.0572Z" fill="white"/>
<path d="M349.053 75.9456C348.665 75.7953 348.273 75.6262 347.877 75.4384C347.491 75.2544 347.133 75.07 346.804 74.8854L347.475 73.1548C347.818 73.3333 348.187 73.5165 348.583 73.7044C348.976 73.9022 349.351 74.0705 349.709 74.2092C350.375 74.4674 350.943 74.596 351.413 74.5949C351.892 74.5976 352.294 74.4615 352.618 74.1866C352.947 73.9256 353.215 73.5314 353.419 73.0043L354.037 71.408L354.878 70.5669C354.559 71.3013 354.158 71.8781 353.676 72.2973C353.197 72.7066 352.665 72.958 352.079 73.0515C351.498 73.135 350.894 73.0554 350.267 72.8126C349.71 72.5968 349.243 72.2958 348.867 71.9096C348.5 71.5273 348.224 71.0886 348.038 70.5934C347.863 70.1021 347.782 69.5731 347.795 69.0064C347.809 68.4397 347.926 67.8729 348.146 67.306L348.267 66.9927C348.487 66.4258 348.78 65.9333 349.148 65.5153C349.53 65.0912 349.961 64.7607 350.442 64.5238C350.923 64.2868 351.435 64.1594 351.98 64.1416C352.524 64.1239 353.08 64.2248 353.647 64.4445C354.313 64.7027 354.834 65.0705 355.21 65.5477C355.596 66.0289 355.822 66.5969 355.888 67.2519C355.955 67.9068 355.849 68.6379 355.57 69.4452L355.189 69.3661L356.548 65.8601L358.189 66.496L355.42 73.6423C355.038 74.6269 354.561 75.3571 353.987 75.8328C353.414 76.3084 352.72 76.5487 351.906 76.5535C351.098 76.5722 350.147 76.3696 349.053 75.9456ZM351.552 71.2685C351.95 71.4226 352.347 71.4738 352.745 71.4219C353.143 71.3701 353.506 71.2136 353.836 70.9526C354.166 70.6915 354.424 70.3222 354.609 69.8448L354.811 69.3226C354.988 68.8651 355.034 68.4368 354.949 68.0375C354.873 67.6422 354.702 67.3014 354.436 67.015C354.173 66.7188 353.848 66.4955 353.46 66.3452C353.022 66.1756 352.594 66.1297 352.175 66.2075C351.769 66.2793 351.401 66.4625 351.069 66.7573C350.738 67.0521 350.474 67.4531 350.277 67.9604C350.084 68.4577 350.011 68.9269 350.058 69.3682C350.104 69.8094 350.253 70.1931 350.504 70.5192C350.765 70.8491 351.114 71.0989 351.552 71.2685Z" fill="white"/>
</svg>
