<svg width="499" height="499" viewBox="0 0 499 499" fill="none" xmlns="http://www.w3.org/2000/svg">
<circle opacity="0.5" cx="249.5" cy="249.5" r="249.5" fill="#051A37"/>
<path d="M160.589 63.3079L159.98 61.2855L162.294 60.5893C162.876 60.4141 163.366 60.172 163.763 59.8632C164.167 59.541 164.479 59.1688 164.697 58.7467C164.915 58.3246 165.04 57.8693 165.071 57.3809C165.11 56.8792 165.047 56.3577 164.884 55.8163C164.715 55.2546 164.478 54.7802 164.172 54.3932C163.873 53.993 163.518 53.6822 163.106 53.4608C162.694 53.2395 162.234 53.1163 161.725 53.0911C161.226 53.063 160.686 53.1365 160.104 53.3117L157.79 54.0079L157.182 51.9855L159.357 51.3308C160.369 51.0265 161.297 50.9087 162.142 50.9774C162.987 51.0462 163.738 51.2657 164.395 51.636C165.049 51.9961 165.599 52.4713 166.044 53.0614C166.496 53.6383 166.828 54.2791 167.04 54.9839L167.141 55.321C167.344 55.9951 167.416 56.6974 167.358 57.428C167.309 58.1555 167.115 58.8601 166.774 59.5418C166.433 60.2236 165.933 60.8365 165.272 61.3806C164.612 61.9247 163.776 62.3489 162.765 62.6532L160.589 63.3079ZM158.72 63.8704L155.313 52.548L157.488 51.8933L160.895 63.2157L158.72 63.8704Z" fill="white"/>
<path d="M174.767 59.5933C174.044 59.7804 173.377 59.8209 172.766 59.7147C172.164 59.6058 171.63 59.3916 171.161 59.0721C170.701 58.7396 170.311 58.3392 169.991 57.871C169.682 57.4001 169.458 56.8962 169.319 56.3592L169.243 56.0649C169.098 55.5073 169.047 54.9476 169.089 54.3858C169.139 53.8111 169.287 53.2769 169.534 52.7833C169.788 52.2767 170.148 51.8365 170.613 51.4627C171.076 51.0786 171.653 50.797 172.345 50.6179C173.254 50.3827 174.065 50.3876 174.778 50.6327C175.499 50.8647 176.099 51.266 176.577 51.8363C177.053 52.3964 177.387 53.0482 177.579 53.7917L177.78 54.5662L170.329 56.4945L169.988 55.1778L176.091 53.5983L175.593 54.4213C175.454 53.8843 175.258 53.4448 175.004 53.1028C174.751 52.7608 174.437 52.528 174.063 52.4043C173.7 52.278 173.281 52.2763 172.806 52.3992C172.331 52.5222 171.956 52.7348 171.682 53.0372C171.408 53.3396 171.236 53.72 171.167 54.1785C171.106 54.624 171.149 55.1307 171.296 55.6987C171.433 56.2253 171.637 56.6738 171.909 57.0441C172.179 57.404 172.514 57.6587 172.917 57.808C173.316 57.947 173.779 57.9483 174.306 57.812C174.833 57.6757 175.234 57.4615 175.511 57.1695C175.786 56.8671 175.929 56.549 175.942 56.2152L177.925 55.702C177.95 56.3124 177.844 56.8798 177.605 57.4044C177.366 57.929 177.004 58.3809 176.518 58.76C176.043 59.1365 175.459 59.4143 174.767 59.5933Z" fill="white"/>
<path d="M183.053 57.3094L178.521 49.4142L180.755 48.9199L185.178 56.8393L183.053 57.3094ZM183.694 57.1677L183.3 55.3868L185.596 54.8787L185.99 56.6596L183.694 57.1677ZM184.553 56.9776L184.863 48.0108L186.957 47.5477L186.537 56.5386L184.553 56.9776Z" fill="white"/>
<path d="M195.736 55.065C195.002 55.2004 194.333 55.1934 193.731 55.0441C193.139 54.8928 192.621 54.6413 192.176 54.2893C191.74 53.925 191.38 53.4979 191.094 53.0082C190.819 52.5166 190.631 51.998 190.531 51.4526L190.476 51.1536C190.371 50.5871 190.36 50.0252 190.442 49.4678C190.532 48.8981 190.718 48.3757 190.999 47.9009C191.289 47.4136 191.679 47.0001 192.17 46.6602C192.658 46.3099 193.254 46.0699 193.957 45.9404C194.88 45.7703 195.689 45.8327 196.383 46.1278C197.086 46.4104 197.655 46.8531 198.092 47.456C198.526 48.0484 198.813 48.7222 198.952 49.4775L199.097 50.2643L191.529 51.6591L191.282 50.3216L197.482 49.1791L196.927 49.9646C196.827 49.4192 196.662 48.9669 196.433 48.6077C196.204 48.2486 195.908 47.9941 195.544 47.8442C195.191 47.6924 194.773 47.661 194.29 47.7499C193.808 47.8388 193.419 48.0244 193.124 48.3065C192.829 48.5887 192.631 48.956 192.53 49.4085C192.437 49.8485 192.444 50.357 192.55 50.934C192.649 51.4689 192.821 51.9308 193.066 52.3194C193.309 52.6976 193.626 52.9754 194.017 53.1529C194.406 53.3199 194.867 53.3541 195.402 53.2555C195.937 53.1569 196.353 52.9718 196.65 52.7001C196.946 52.418 197.111 52.1108 197.148 51.7787L199.162 51.4076C199.144 52.0182 198.998 52.5767 198.722 53.083C198.447 53.5893 198.053 54.0143 197.542 54.358C197.041 54.6998 196.439 54.9355 195.736 55.065Z" fill="white"/>
<path d="M202.577 53.6163L200.8 42.0721L202.999 41.7339L204.775 53.2781L202.577 53.6163ZM199.978 43.8822L199.725 42.2376L202.999 41.7339L203.252 43.3786L199.978 43.8822Z" fill="white"/>
<path d="M213.699 52.402C212.937 52.4954 212.25 52.456 211.638 52.2838C211.026 52.1117 210.493 51.8438 210.04 51.4801C209.586 51.1059 209.221 50.6671 208.944 50.1637C208.678 49.6589 208.51 49.1207 208.44 48.549L208.399 48.2155C208.326 47.6226 208.364 47.0484 208.51 46.4931C208.667 45.9259 208.921 45.4112 209.272 44.949C209.633 44.4749 210.091 44.0858 210.645 43.7815C211.197 43.4667 211.839 43.2645 212.569 43.175C213.3 43.0855 213.971 43.1269 214.583 43.299C215.194 43.4606 215.727 43.7285 216.181 44.1028C216.644 44.4651 217.015 44.9033 217.293 45.4173C217.569 45.9207 217.744 46.4689 217.817 47.0618L217.858 47.3953C217.928 47.967 217.889 48.5305 217.742 49.0859C217.606 49.6399 217.363 50.1533 217.012 50.6261C216.66 51.0883 216.208 51.4768 215.656 51.7916C215.103 52.1065 214.451 52.3099 213.699 52.402ZM213.468 50.5122C214.008 50.446 214.449 50.2738 214.791 49.9955C215.132 49.7066 215.373 49.3493 215.514 48.9236C215.654 48.4873 215.692 48.0098 215.629 47.491C215.564 46.9616 215.406 46.5081 215.156 46.1304C214.915 45.7409 214.589 45.453 214.179 45.2667C213.779 45.0686 213.319 45.0013 212.801 45.0649C212.282 45.1284 211.847 45.3053 211.495 45.5955C211.153 45.8738 210.907 46.2318 210.757 46.6693C210.605 47.0963 210.561 47.5745 210.626 48.1038C210.69 48.6226 210.842 49.0768 211.083 49.4664C211.334 49.8441 211.659 50.132 212.059 50.3301C212.458 50.5176 212.928 50.5783 213.468 50.5122Z" fill="white"/>
<path d="M221.159 54.5135L220.175 42.6662L221.929 42.5206L222.239 46.2518L221.966 46.2583C221.936 45.3725 222.055 44.6187 222.325 43.9969C222.605 43.3743 223.004 42.897 223.522 42.5649C224.04 42.2223 224.633 42.0231 225.303 41.9675C225.919 41.9163 226.481 41.9821 226.989 42.1647C227.507 42.3464 227.958 42.6247 228.343 42.9995C228.738 43.3735 229.053 43.8236 229.29 44.3498C229.525 44.8654 229.668 45.4315 229.72 46.0481L229.747 46.3829C229.799 47.0101 229.752 47.6027 229.606 48.1607C229.469 48.7072 229.238 49.2028 228.911 49.6473C228.593 50.0804 228.195 50.4346 227.714 50.71C227.233 50.9747 226.685 51.1326 226.068 51.1838C225.42 51.2377 224.813 51.1542 224.249 50.9335C223.695 50.7012 223.229 50.3171 222.853 49.781C222.476 49.2344 222.228 48.511 222.111 47.611L222.901 48.6211L223.375 54.3294L221.159 54.5135ZM225.355 49.3646C225.833 49.3249 226.238 49.1735 226.57 48.9105C226.912 48.6466 227.166 48.299 227.334 47.8677C227.501 47.4257 227.562 46.939 227.518 46.4075C227.472 45.8547 227.331 45.3847 227.096 44.9976C226.86 44.6104 226.552 44.3202 226.172 44.127C225.802 43.9222 225.378 43.8397 224.9 43.8795C224.464 43.9156 224.068 44.0449 223.712 44.2671C223.366 44.4884 223.092 44.7948 222.889 45.1863C222.697 45.5769 222.622 46.0326 222.665 46.5535L222.718 47.1913C222.76 47.6909 222.912 48.1064 223.175 48.4378C223.438 48.7692 223.763 49.0151 224.151 49.1755C224.539 49.336 224.94 49.399 225.355 49.3646Z" fill="white"/>
<path d="M244.908 50.3565C243.853 50.3777 242.942 50.2093 242.178 49.8513C241.413 49.4933 240.785 49.0205 240.293 48.4329C239.812 47.8452 239.452 47.2016 239.214 46.5022C238.976 45.8029 238.85 45.128 238.837 44.4774L238.83 44.1255C238.815 43.4003 238.913 42.6835 239.123 41.9752C239.343 41.2666 239.688 40.6195 240.156 40.034C240.624 39.4484 241.223 38.9776 241.952 38.6216C242.691 38.2546 243.568 38.061 244.581 38.0406C245.636 38.0193 246.557 38.1928 247.344 38.5611C248.14 38.9185 248.78 39.439 249.263 40.1228C249.746 40.7959 250.045 41.59 250.16 42.5052L247.872 42.5513C247.776 42.0198 247.575 41.5757 247.269 41.2191C246.974 40.8517 246.6 40.5818 246.149 40.4095C245.697 40.2266 245.188 40.1408 244.623 40.1521C244.047 40.1637 243.537 40.2753 243.094 40.487C242.65 40.688 242.282 40.9727 241.991 41.3413C241.699 41.7099 241.479 42.1411 241.328 42.6349C241.189 43.1285 241.125 43.6739 241.137 44.2711C241.149 44.847 241.234 45.3787 241.393 45.8663C241.563 46.3536 241.807 46.7808 242.123 47.1478C242.44 47.5042 242.824 47.7792 243.276 47.9728C243.739 48.1662 244.269 48.2569 244.866 48.2449C245.74 48.2273 246.472 47.9992 247.061 47.5606C247.66 47.1111 248.015 46.4959 248.128 45.7148L250.415 45.6687C250.325 46.5027 250.058 47.2709 249.613 47.9733C249.169 48.6758 248.551 49.243 247.759 49.675C246.968 50.107 246.018 50.3342 244.908 50.3565Z" fill="white"/>
<path d="M256.529 50.425C255.762 50.4095 255.087 50.2733 254.505 50.0162C253.924 49.7591 253.434 49.4185 253.038 48.9945C252.641 48.5597 252.341 48.0736 252.139 47.5361C251.947 46.9988 251.857 46.4422 251.868 45.8663L251.875 45.5304C251.887 44.9332 252.005 44.3701 252.229 43.8411C252.464 43.3018 252.788 42.8282 253.202 42.4204C253.626 42.0022 254.134 41.6817 254.725 41.4589C255.317 41.2254 255.981 41.1161 256.716 41.1309C257.452 41.1457 258.111 41.2816 258.693 41.5387C259.274 41.7851 259.764 42.1257 260.16 42.5604C260.568 42.9847 260.873 43.471 261.075 44.0191C261.278 44.5567 261.373 45.124 261.361 45.7212L261.354 46.0572C261.343 46.633 261.225 47.1855 261.001 47.7144C260.788 48.2435 260.474 48.7173 260.06 49.1358C259.646 49.5435 259.144 49.8641 258.552 50.0976C257.961 50.3311 257.287 50.4402 256.529 50.425ZM256.568 48.5214C257.112 48.5323 257.573 48.4242 257.951 48.1971C258.329 47.9594 258.618 47.6398 258.818 47.2384C259.018 46.8263 259.124 46.359 259.134 45.8365C259.145 45.3032 259.053 44.832 258.859 44.4226C258.675 44.0029 258.394 43.6718 258.014 43.4294C257.646 43.1767 257.201 43.045 256.678 43.0345C256.156 43.024 255.7 43.1375 255.311 43.375C254.933 43.6022 254.639 43.9216 254.428 44.3335C254.217 44.7346 254.106 45.2018 254.095 45.7351C254.085 46.2576 254.171 46.7288 254.355 47.1486C254.549 47.5579 254.831 47.889 255.199 48.1418C255.568 48.3839 256.024 48.5104 256.568 48.5214Z" fill="white"/>
<path d="M263.784 50.3577L264.339 41.6875L266.095 41.7999L265.857 45.5202L265.697 45.51C265.753 44.6371 265.912 43.9151 266.173 43.344C266.434 42.7621 266.793 42.3362 267.249 42.066C267.715 41.786 268.279 41.667 268.939 41.7093L269.035 41.7154C269.705 41.7583 270.249 41.9481 270.666 42.2847C271.094 42.6114 271.395 43.0796 271.57 43.6893C271.756 44.2891 271.821 45.0254 271.765 45.8983L271.206 45.8625C271.262 44.9897 271.42 44.2676 271.681 43.6965C271.954 43.1153 272.318 42.6897 272.773 42.4196C273.24 42.1395 273.804 42.0206 274.463 42.0628L274.559 42.0689C275.23 42.1118 275.779 42.302 276.206 42.6393C276.634 42.9659 276.941 43.4345 277.126 44.0449C277.323 44.6454 277.393 45.382 277.338 46.2549L277.021 51.2048L274.801 51.0628L275.131 45.9053C275.166 45.3624 275.055 44.9224 274.799 44.5854C274.543 44.2377 274.16 44.0475 273.649 44.0148C273.138 43.9821 272.717 44.1262 272.387 44.4471C272.057 44.7573 271.874 45.1945 271.838 45.7587L271.512 50.8523L269.293 50.7102L269.623 45.5528C269.657 45.0099 269.547 44.5699 269.29 44.2329C269.035 43.8852 268.651 43.695 268.14 43.6623C267.629 43.6296 267.209 43.7737 266.878 44.0945C266.548 44.4048 266.365 44.842 266.329 45.4062L266.003 50.4997L263.784 50.3577Z" fill="white"/>
<path d="M278.451 54.6661L279.743 42.8485L281.492 43.0397L281.085 46.7616L280.817 46.7161C280.955 45.8407 281.216 45.1234 281.599 44.5644C281.993 44.0065 282.476 43.614 283.048 43.3868C283.621 43.149 284.241 43.0666 284.909 43.1397C285.524 43.2069 286.064 43.3785 286.527 43.6545C287.001 43.9316 287.391 44.2908 287.697 44.732C288.013 45.1743 288.238 45.6763 288.369 46.238C288.502 46.789 288.535 47.372 288.468 47.987L288.431 48.321C288.363 48.9466 288.204 49.5194 287.954 50.0393C287.716 50.5498 287.394 50.9921 286.988 51.3662C286.594 51.7309 286.135 52.0026 285.611 52.1814C285.088 52.3496 284.52 52.4001 283.905 52.3329C283.258 52.2622 282.678 52.0648 282.167 51.7406C281.667 51.4069 281.283 50.9411 281.016 50.3432C280.75 49.7347 280.645 48.9775 280.701 48.0715L281.284 49.2137L280.662 54.9078L278.451 54.6661ZM283.551 50.4111C284.028 50.4633 284.455 50.3919 284.83 50.1968C285.216 50.003 285.533 49.7103 285.779 49.3188C286.027 48.9166 286.18 48.4505 286.238 47.9203C286.298 47.3689 286.25 46.8808 286.092 46.4558C285.935 46.0309 285.688 45.6873 285.352 45.4253C285.027 45.1537 284.627 44.9919 284.149 44.9397C283.715 44.8922 283.301 44.9436 282.909 45.0939C282.528 45.2454 282.2 45.4939 281.926 45.8395C281.663 46.1863 281.503 46.6195 281.446 47.139L281.377 47.7753C281.322 48.2736 281.393 48.7105 281.588 49.0859C281.783 49.4613 282.055 49.7648 282.406 49.9962C282.756 50.2276 283.138 50.3659 283.551 50.4111Z" fill="white"/>
<path d="M294.695 53.804C293.957 53.6948 293.326 53.4722 292.805 53.1363C292.293 52.802 291.884 52.3965 291.577 51.9198C291.282 51.4341 291.079 50.9135 290.967 50.3578C290.866 49.8037 290.856 49.2523 290.937 48.7036L290.981 48.4028C291.065 47.833 291.236 47.2976 291.494 46.7965C291.763 46.2864 292.108 45.8521 292.527 45.4936C292.959 45.1261 293.462 44.8608 294.036 44.6977C294.611 44.524 295.253 44.4893 295.96 44.5938C296.888 44.7311 297.633 45.0515 298.195 45.555C298.769 46.0496 299.165 46.6527 299.383 47.3642C299.603 48.0653 299.657 48.7956 299.545 49.5554L299.428 50.3468L291.814 49.2215L292.013 47.8761L298.25 48.7979L297.471 49.362C297.552 48.8133 297.542 48.3321 297.441 47.9182C297.341 47.5044 297.143 47.1678 296.847 46.9084C296.561 46.6506 296.176 46.4858 295.691 46.4141C295.205 46.3423 294.777 46.3923 294.407 46.564C294.036 46.7357 293.73 47.0193 293.489 47.4149C293.259 47.8014 293.101 48.2849 293.015 48.8653C292.936 49.4034 292.949 49.896 293.056 50.343C293.164 50.7795 293.374 51.1448 293.686 51.439C294 51.7226 294.426 51.9042 294.964 51.9837C295.503 52.0633 295.956 52.0225 296.325 51.8614C296.695 51.6897 296.951 51.4526 297.093 51.1501L299.119 51.4495C298.905 52.0217 298.586 52.5029 298.162 52.893C297.737 53.2832 297.228 53.5583 296.633 53.7183C296.048 53.8799 295.402 53.9085 294.695 53.804Z" fill="white"/>
<path d="M301.636 54.6435L303.685 43.1447L305.874 43.5348L303.825 55.0337L301.636 54.6435ZM302.322 44.592L302.614 42.9538L305.874 43.5348L305.582 45.173L302.322 44.592Z" fill="white"/>
<path d="M308.672 55.9724L310.992 44.5252L313.172 44.9671L310.851 56.4143L308.672 55.9724ZM309.595 45.9399L309.926 44.3091L313.172 44.9671L312.841 46.5979L309.595 45.9399Z" fill="white"/>
<path d="M315.963 57.5331L317.9 49.0638L320.068 49.5597L318.131 58.029L315.963 57.5331ZM316.344 50.4148L316.715 48.7927L320.068 49.5597L319.697 51.1818L316.344 50.4148ZM318.928 48.2319C318.501 48.1344 318.209 47.9527 318.051 47.6868C317.906 47.4128 317.871 47.1095 317.947 46.7768C318.028 46.4232 318.192 46.1599 318.44 45.9867C318.698 45.8159 319.04 45.7792 319.466 45.8768C319.893 45.9743 320.18 46.1548 320.327 46.4183C320.475 46.6819 320.508 46.9904 320.427 47.344C320.351 47.6767 320.188 47.9349 319.938 48.1184C319.691 48.2916 319.354 48.3294 318.928 48.2319Z" fill="white"/>
<path d="M323.191 59.2549L325.397 50.8518L327.099 51.2989L326.153 54.9046L325.998 54.864C326.223 54.0077 326.523 53.3256 326.899 52.8178C327.278 52.2996 327.727 51.9544 328.246 51.782C328.776 51.6123 329.376 51.6156 330.047 51.7917L330.14 51.816C331.141 52.0788 331.814 52.6029 332.159 53.3884C332.507 54.1635 332.512 55.1907 332.177 56.47L330.913 61.2828L328.762 60.7179L330.074 55.7194C330.21 55.2035 330.17 54.7464 329.955 54.348C329.75 53.9524 329.389 53.6868 328.874 53.5513C328.347 53.4132 327.876 53.4658 327.459 53.7092C327.055 53.9451 326.782 54.3364 326.638 54.8832L325.342 59.8198L323.191 59.2549Z" fill="white"/>
<path d="M336.492 66.5358C336.094 66.415 335.69 66.2758 335.281 66.1181C334.882 65.9636 334.512 65.8066 334.17 65.6471L334.709 63.8711C335.064 64.0235 335.446 64.1785 335.856 64.3361C336.262 64.504 336.648 64.6436 337.016 64.7552C337.7 64.9627 338.276 65.0484 338.744 65.0121C339.222 64.9789 339.612 64.8131 339.915 64.5147C340.224 64.2296 340.461 63.8166 340.625 63.2756L341.122 61.6374L341.898 60.7357C341.635 61.4919 341.278 62.0972 340.828 62.5514C340.381 62.9954 339.87 63.286 339.293 63.4231C338.719 63.5499 338.111 63.5158 337.468 63.3206C336.896 63.1472 336.408 62.882 336.004 62.5251C335.61 62.1714 335.301 61.7546 335.079 61.2747C334.867 60.7979 334.747 60.2765 334.718 59.7103C334.689 59.1442 334.763 58.5703 334.94 57.9885L335.037 57.667C335.214 57.0852 335.47 56.5721 335.805 56.1277C336.154 55.6762 336.559 55.3143 337.021 55.042C337.483 54.7697 337.984 54.6042 338.526 54.5457C339.068 54.4872 339.63 54.5462 340.211 54.7228C340.895 54.9303 341.442 55.258 341.853 55.7058C342.273 56.1567 342.541 56.7062 342.656 57.3543C342.772 58.0025 342.721 58.7394 342.504 59.5653L342.118 59.515L343.21 55.9171L344.894 56.4282L342.668 63.7619C342.361 64.7724 341.94 65.5363 341.404 66.0535C340.868 66.5708 340.194 66.8624 339.383 66.9282C338.578 67.0074 337.615 66.8766 336.492 66.5358ZM338.633 61.6846C339.042 61.8085 339.442 61.8297 339.835 61.7482C340.227 61.6667 340.578 61.4834 340.888 61.1984C341.197 60.9133 341.426 60.5258 341.575 60.0358L341.738 59.5C341.88 59.0305 341.894 58.5999 341.779 58.2082C341.674 57.8196 341.477 57.4926 341.19 57.227C340.906 56.9513 340.565 56.753 340.167 56.6322C339.718 56.4959 339.287 56.4822 338.875 56.5912C338.476 56.6931 338.123 56.9035 337.814 57.2223C337.505 57.5411 337.272 57.9608 337.114 58.4813C336.959 58.9916 336.922 59.4651 337.001 59.9016C337.08 60.3381 337.257 60.7096 337.532 61.0159C337.817 61.3254 338.184 61.5483 338.633 61.6846Z" fill="white"/>
<path d="M223.267 76.0896C222.244 76.3531 221.319 76.3986 220.493 76.226C219.666 76.0535 218.946 75.7378 218.332 75.2792C217.729 74.8178 217.231 74.2742 216.838 73.6484C216.446 73.0225 216.168 72.3946 216.006 71.7645L215.918 71.4236C215.737 70.7212 215.667 70.0012 215.708 69.2636C215.76 68.5233 215.946 67.8144 216.267 67.1368C216.588 66.4593 217.063 65.8634 217.69 65.3493C218.326 64.8221 219.134 64.4321 220.115 64.1793C221.138 63.9158 222.074 63.8728 222.924 64.0504C223.781 64.215 224.524 64.5744 225.151 65.1287C225.776 65.6727 226.249 66.3768 226.571 67.2412L224.356 67.8121C224.14 67.3169 223.842 66.931 223.463 66.6543C223.09 66.3647 222.665 66.1879 222.186 66.1241C221.704 66.0499 221.19 66.0834 220.642 66.2245C220.084 66.3682 219.614 66.5941 219.23 66.9021C218.845 67.1998 218.552 67.5615 218.354 67.9872C218.155 68.4129 218.039 68.8833 218.007 69.3984C217.984 69.9108 218.048 70.4562 218.197 71.0347C218.341 71.5925 218.546 72.0903 218.813 72.5282C219.09 72.9634 219.425 73.3232 219.818 73.6075C220.208 73.8816 220.645 74.0608 221.13 74.1453C221.625 74.2271 222.161 74.1935 222.74 74.0444C223.587 73.8262 224.246 73.436 224.718 72.8738C225.198 72.2986 225.402 71.618 225.332 70.832L227.548 70.2611C227.652 71.0934 227.569 71.9025 227.297 72.6883C227.026 73.4742 226.555 74.1683 225.884 74.7708C225.213 75.3732 224.341 75.8129 223.267 76.0896Z" fill="white"/>
<path d="M233.52 74.179C232.762 74.2966 232.073 74.279 231.456 74.1263C230.839 73.9736 230.298 73.7228 229.834 73.3737C229.368 73.0141 228.989 72.587 228.696 72.0926C228.415 71.5966 228.23 71.064 228.141 70.4948L228.09 70.1627C227.999 69.5724 228.017 68.9974 228.147 68.4377C228.285 67.8659 228.522 67.3434 228.859 66.8702C229.205 66.3849 229.65 65.9814 230.194 65.6598C230.736 65.3276 231.371 65.1051 232.098 64.9925C232.825 64.8799 233.498 64.8999 234.115 65.0526C234.731 65.1947 235.271 65.4456 235.737 65.8052C236.212 66.1527 236.596 66.5789 236.89 67.0838C237.183 67.5782 237.375 68.1206 237.466 68.7109L237.518 69.0429C237.606 69.6121 237.585 70.1766 237.456 70.7363C237.337 71.2943 237.11 71.8152 236.775 72.2989C236.438 72.772 235.999 73.1747 235.456 73.5069C234.914 73.8391 234.269 74.0631 233.52 74.179ZM233.229 72.2975C233.767 72.2142 234.202 72.0281 234.535 71.739C234.866 71.4395 235.096 71.0747 235.224 70.6448C235.35 70.2043 235.373 69.7258 235.293 69.2093C235.211 68.6822 235.039 68.2339 234.777 67.8644C234.524 67.4827 234.189 67.2052 233.774 67.0321C233.367 66.8468 232.906 66.7941 232.389 66.8741C231.873 66.9541 231.444 67.1447 231.102 67.4459C230.769 67.7349 230.534 68.1005 230.397 68.5426C230.259 68.9741 230.231 69.4535 230.312 69.9805C230.392 70.497 230.559 70.9461 230.812 71.3279C231.075 71.6974 231.409 71.9748 231.815 72.1602C232.22 72.3349 232.692 72.3807 233.229 72.2975Z" fill="white"/>
<path d="M239.653 73.1766L239.125 64.5047L240.881 64.3976L241.108 68.1187L240.948 68.1284C240.895 67.2447 240.967 66.503 241.165 65.9031C241.363 65.2926 241.682 64.8243 242.122 64.4983C242.572 64.1717 243.143 63.9872 243.835 63.9451L243.931 63.9392C244.964 63.8763 245.767 64.164 246.34 64.8023C246.913 65.43 247.239 66.4039 247.32 67.7241L247.622 72.6909L245.402 72.8262L245.088 67.6678C245.056 67.1354 244.875 66.7136 244.546 66.4024C244.228 66.0905 243.803 65.9508 243.27 65.9832C242.727 66.0163 242.296 66.2136 241.976 66.5751C241.666 66.9252 241.528 67.3825 241.563 67.9467L241.873 73.0413L239.653 73.1766Z" fill="white"/>
<path d="M253.876 73.007C253.077 72.9908 252.417 72.8761 251.899 72.6629C251.391 72.4392 251.015 72.0795 250.769 71.5837C250.523 71.0773 250.409 70.4028 250.426 69.5603L250.601 61.6903L252.681 61.7325L252.502 69.7465C252.494 70.1731 252.599 70.5059 252.818 70.7451C253.048 70.9738 253.376 71.0925 253.803 71.1012L255.163 71.1288L255.124 73.0324L253.876 73.007ZM249.127 65.7412L249.16 64.1095L255.303 64.2342L255.27 65.8658L249.127 65.7412Z" fill="white"/>
<path d="M261.684 73.8363C260.941 73.7628 260.3 73.5709 259.763 73.2605C259.236 72.9512 258.808 72.5658 258.479 72.1045C258.161 71.6336 257.932 71.1233 257.794 70.5737C257.666 70.0251 257.629 69.4748 257.684 68.9229L257.714 68.6203C257.77 68.0471 257.915 67.5041 258.148 66.9912C258.393 66.4687 258.716 66.0183 259.118 65.64C259.531 65.2522 260.021 64.9629 260.586 64.7723C261.153 64.5711 261.792 64.5056 262.503 64.5759C263.437 64.6683 264.197 64.9524 264.782 65.4283C265.379 65.8946 265.804 66.4779 266.056 67.1782C266.309 67.8678 266.398 68.5947 266.323 69.359L266.244 70.1551L258.585 69.3979L258.719 68.0445L264.993 68.6647L264.242 69.2658C264.296 68.7138 264.263 68.2336 264.143 67.8251C264.023 67.4166 263.808 67.0899 263.5 66.8451C263.203 66.6013 262.81 66.4553 262.322 66.407C261.834 66.3587 261.409 66.4292 261.047 66.6186C260.685 66.8079 260.393 67.1059 260.171 67.5127C259.96 67.9099 259.826 68.4004 259.768 68.9842C259.714 69.5256 259.751 70.0169 259.879 70.4583C260.008 70.8891 260.236 71.2439 260.562 71.5227C260.889 71.7908 261.323 71.9517 261.865 72.0052C262.406 72.0587 262.857 71.9961 263.218 71.8174C263.58 71.6281 263.824 71.3789 263.951 71.0699L265.989 71.2714C265.803 71.8533 265.507 72.3492 265.102 72.7594C264.697 73.1695 264.201 73.4689 263.615 73.6574C263.039 73.847 262.395 73.9066 261.684 73.8363Z" fill="white"/>
<path d="M267.5 74.3365L269.127 65.8023L270.856 66.1319L270.158 69.7939L270.001 69.764C270.167 68.8943 270.42 68.1933 270.76 67.661C271.102 67.1182 271.527 66.743 272.033 66.5355C272.55 66.3301 273.149 66.2923 273.83 66.4221L273.925 66.4401C274.941 66.6339 275.648 67.1108 276.046 67.8708C276.446 68.6203 276.523 69.6447 276.275 70.9439L275.343 75.8319L273.158 75.4153L274.126 70.3388C274.226 69.8149 274.155 69.3616 273.913 68.9788C273.682 68.5981 273.304 68.3577 272.78 68.2579C272.246 68.156 271.779 68.2407 271.38 68.5121C270.993 68.775 270.747 69.1841 270.641 69.7394L269.685 74.7531L267.5 74.3365Z" fill="white"/>
<path d="M281.324 77.68C280.553 77.4669 279.943 77.1931 279.493 76.8586C279.056 76.5166 278.78 76.075 278.664 75.5339C278.55 74.9825 278.606 74.3007 278.83 73.4885L280.942 65.905L282.947 66.4589L280.797 74.1812C280.683 74.5924 280.703 74.941 280.857 75.2268C281.023 75.5052 281.312 75.7013 281.723 75.8149L283.034 76.1771L282.527 78.0123L281.324 77.68ZM278.514 69.4669L278.949 67.8939L284.871 69.5301L284.436 71.1032L278.514 69.4669Z" fill="white"/>
</svg>
