<svg width="396" height="396" viewBox="0 0 396 396" fill="none" xmlns="http://www.w3.org/2000/svg">
<circle opacity="0.5" cx="198" cy="198" r="198" fill="#020D1C"/>
<path d="M95.7215 98.5091C94.8108 99.0437 93.9252 99.347 93.0646 99.4192C92.2133 99.486 91.4157 99.3914 90.6718 99.1354C89.9317 98.8648 89.2757 98.4953 88.704 98.0269C88.1361 97.544 87.6874 97.0219 87.3581 96.4608L87.1799 96.1572C86.8181 95.5408 86.5695 94.8643 86.4339 94.1276C86.2929 93.3816 86.2974 92.6307 86.4474 91.8748C86.6066 91.1135 86.931 90.3912 87.4206 89.7081C87.9048 89.0158 88.593 88.4078 89.4853 87.884C90.3685 87.3657 91.2303 87.064 92.0708 86.9788C92.9059 86.8844 93.6901 86.956 94.4232 87.1936C95.1655 87.4258 95.8279 87.7853 96.4105 88.2721C96.9876 88.7496 97.457 89.2966 97.8188 89.9129L97.997 90.2165C98.3263 90.7777 98.5588 91.4266 98.6943 92.1633C98.8337 92.8855 98.8365 93.6383 98.7027 94.4218C98.5727 95.1907 98.2664 95.9333 97.7838 96.6494C97.3105 97.3601 96.623 97.98 95.7215 98.5091ZM94.6524 96.6877C95.1676 96.3853 95.5736 96.0234 95.8703 95.6018C96.1763 95.1749 96.3774 94.7167 96.4736 94.2274C96.5736 93.7234 96.5757 93.2213 96.4799 92.7209C96.388 92.206 96.2043 91.7139 95.9289 91.2448C95.632 90.7388 95.2811 90.3201 94.8764 89.9888C94.4808 89.652 94.0441 89.4136 93.5661 89.2736C93.0974 89.1282 92.6047 89.0896 92.0882 89.1578C91.5716 89.226 91.0604 89.4085 90.5544 89.7055C90.0392 90.0078 89.626 90.3679 89.3146 90.7857C89.0032 91.2034 88.7921 91.6551 88.6813 92.1406C88.5797 92.6208 88.5749 93.1183 88.6669 93.6333C88.7681 94.1428 88.9671 94.6506 89.2641 95.1565C89.5395 95.6257 89.8749 96.0287 90.2705 96.3654C90.6698 96.6876 91.1093 96.9306 91.5888 97.0944C92.0722 97.2436 92.5748 97.2887 93.0968 97.2297C93.6187 97.1707 94.1373 96.9901 94.6524 96.6877Z" fill="white"/>
<path d="M103.312 97.6235L97.9111 87.0331L99.479 86.2336L101.18 89.5689L100.93 89.6782C100.566 88.8701 100.391 88.1273 100.405 87.4498C100.428 86.7675 100.616 86.1744 100.97 85.6707C101.319 85.1575 101.793 84.7483 102.391 84.443C102.943 84.1619 103.488 84.0097 104.026 83.9863C104.575 83.9581 105.098 84.0446 105.596 84.2458C106.103 84.4421 106.566 84.7389 106.984 85.1363C107.397 85.5242 107.744 85.9937 108.025 86.5449L108.178 86.8442C108.464 87.4048 108.645 87.9711 108.721 88.5429C108.802 89.1004 108.775 89.6468 108.641 90.1822C108.512 90.7032 108.277 91.1821 107.937 91.6189C107.592 92.0462 107.144 92.4004 106.593 92.6815C106.013 92.9771 105.421 93.1297 104.815 93.1393C104.214 93.1345 103.637 92.9554 103.086 92.602C102.53 92.2391 102.027 91.6635 101.577 90.8752L102.691 91.5104L105.293 96.6131L103.312 97.6235ZM105.244 91.2682C105.671 91.0502 105.988 90.7567 106.195 90.3877C106.412 90.0139 106.516 89.5956 106.507 89.133C106.494 88.6608 106.366 88.1872 106.124 87.712C105.872 87.2179 105.564 86.8364 105.199 86.5673C104.834 86.2983 104.44 86.1464 104.015 86.1116C103.595 86.0625 103.171 86.147 102.743 86.365C102.353 86.5637 102.036 86.8334 101.791 87.174C101.555 87.5098 101.417 87.8973 101.378 88.3365C101.348 88.7709 101.451 89.2209 101.689 89.6865L101.98 90.2566C102.207 90.7032 102.506 91.03 102.875 91.237C103.244 91.4439 103.638 91.5481 104.058 91.5496C104.478 91.551 104.873 91.4572 105.244 91.2682Z" fill="white"/>
<path d="M115.693 88.2449C114.963 88.574 114.319 88.7537 113.759 88.7839C113.205 88.8001 112.71 88.6372 112.275 88.2953C111.835 87.9437 111.442 87.3838 111.095 86.6157L107.872 79.434L109.768 78.5784L113.051 85.8914C113.226 86.2803 113.464 86.5356 113.765 86.6573C114.071 86.765 114.418 86.731 114.807 86.5555L116.047 85.9961L116.83 87.7315L115.693 88.2449ZM108.281 83.7255L107.61 82.2379L113.21 79.7105L113.882 81.1981L108.281 83.7255Z" fill="white"/>
<path d="M120.031 86.3087L116.759 78.2604L118.819 77.4228L122.091 85.471L120.031 86.3087ZM116.259 80.2598L115.632 78.7184L118.819 77.4228L119.446 78.9642L116.259 80.2598ZM117.123 76.9896C116.718 77.1544 116.374 77.1731 116.092 77.046C115.816 76.9049 115.614 76.6763 115.485 76.3601C115.349 76.0241 115.332 75.7142 115.435 75.4304C115.549 75.1425 115.808 74.9163 116.213 74.7515C116.618 74.5868 116.957 74.5701 117.229 74.7012C117.501 74.8324 117.705 75.066 117.842 75.402C117.971 75.7181 117.985 76.0231 117.886 76.3168C117.782 76.6007 117.528 76.8249 117.123 76.9896Z" fill="white"/>
<path d="M126.471 83.7545L123.626 75.5453L125.289 74.9691L126.51 78.4916L126.359 78.544C126.072 77.7175 125.939 76.9905 125.958 76.3628C125.974 75.7251 126.14 75.1935 126.456 74.7681C126.778 74.3291 127.251 74.0014 127.876 73.7848L127.967 73.7534C128.602 73.5334 129.176 73.4979 129.691 73.647C130.212 73.7825 130.671 74.0976 131.068 74.5921C131.472 75.0731 131.817 75.7268 132.104 76.5533L131.574 76.7367C131.288 75.9102 131.155 75.1831 131.174 74.5555C131.2 73.9142 131.371 73.3809 131.687 72.9555C132.009 72.5165 132.482 72.1888 133.107 71.9723L133.198 71.9408C133.833 71.7208 134.412 71.6836 134.937 71.8292C135.458 71.9647 135.922 72.278 136.329 72.7691C136.743 73.2466 137.093 73.8986 137.38 74.725L139.004 79.4116L136.902 80.1398L135.21 75.2566C135.032 74.7426 134.76 74.3798 134.393 74.1683C134.022 73.9466 133.595 73.9196 133.112 74.0873C132.628 74.2549 132.296 74.5506 132.115 74.9744C131.931 75.3882 131.932 75.8621 132.117 76.3963L133.788 81.219L131.687 81.9471L129.994 77.064C129.816 76.55 129.544 76.1872 129.177 75.9756C128.807 75.754 128.38 75.727 127.896 75.8946C127.412 76.0623 127.08 76.358 126.899 76.7818C126.715 77.1955 126.716 77.6694 126.901 78.2036L128.572 83.0263L126.471 83.7545Z" fill="white"/>
<path d="M140.429 79.1959L138.02 70.8486L140.157 70.2319L142.566 78.5791L140.429 79.1959ZM137.313 72.7845L136.852 71.1858L140.157 70.2319L140.618 71.8306L137.313 72.7845ZM138.516 69.6231C138.096 69.7444 137.752 69.727 137.485 69.5709C137.225 69.4017 137.048 69.1531 136.953 68.8251C136.853 68.4767 136.869 68.1667 137.001 67.8953C137.144 67.6209 137.426 67.4231 137.846 67.3018C138.266 67.1806 138.605 67.1994 138.861 67.3585C139.118 67.5175 139.297 67.7712 139.397 68.1196C139.492 68.4476 139.475 68.7524 139.345 69.0341C139.212 69.3055 138.936 69.5018 138.516 69.6231Z" fill="white"/>
<path d="M146.635 77.486L146.214 75.7771L149.146 69.7489L149.207 69.9975L148.773 69.6429L149.068 69.7021L144.951 70.7163L144.542 69.054L150.973 67.4695L151.394 69.1784L148.463 75.2066L148.406 74.9735L148.855 75.3243L148.556 75.2496L152.813 74.2009L153.222 75.8632L146.635 77.486Z" fill="white"/>
<path d="M159.587 74.9117C158.854 75.0568 158.186 75.0587 157.582 74.9174C156.988 74.7741 156.466 74.5294 156.017 74.1834C155.577 73.8249 155.21 73.4027 154.918 72.9168C154.637 72.4289 154.442 71.9128 154.334 71.3687L154.275 71.0705C154.163 70.5055 154.145 69.9438 154.219 69.3854C154.301 68.8145 154.48 68.2897 154.755 67.8112C155.039 67.3201 155.423 66.9014 155.909 66.555C156.393 66.1982 156.986 65.9504 157.687 65.8115C158.607 65.6292 159.417 65.6809 160.115 65.9667C160.822 66.2399 161.397 66.6751 161.842 67.2721C162.284 67.8586 162.58 68.5286 162.729 69.282L162.884 70.0667L155.335 71.562L155.071 70.2279L161.255 69.0031L160.71 69.796C160.603 69.2519 160.432 68.8018 160.198 68.4457C159.965 68.0897 159.665 67.8391 159.299 67.6941C158.944 67.547 158.525 67.5211 158.044 67.6165C157.563 67.7118 157.176 67.9025 156.885 68.1885C156.594 68.4746 156.401 68.8445 156.306 69.2983C156.219 69.7395 156.233 70.2479 156.347 70.8234C156.452 71.357 156.63 71.8165 156.881 72.2019C157.129 72.5768 157.45 72.8504 157.843 73.0226C158.233 73.1844 158.696 73.2125 159.229 73.1068C159.763 73.0011 160.177 72.8105 160.47 72.5349C160.761 72.2488 160.923 71.9395 160.955 71.607L162.964 71.209C162.954 71.8199 162.815 72.3802 162.547 72.8902C162.278 73.4001 161.89 73.8303 161.383 74.1808C160.887 74.5292 160.288 74.7729 159.587 74.9117Z" fill="white"/>
<path d="M176.663 72.4133C175.582 72.5347 174.647 72.4302 173.859 72.1001C173.07 71.7699 172.438 71.2559 171.963 70.5579C171.497 69.8481 171.207 68.9897 171.094 67.9826L170.318 61.066L172.576 60.8127L173.367 67.8565C173.428 68.4077 173.589 68.8834 173.849 69.2836C174.107 69.6733 174.451 69.9621 174.88 70.1501C175.318 70.3263 175.834 70.3811 176.428 70.3145C177.011 70.2491 177.491 70.0825 177.869 69.8147C178.256 69.5351 178.527 69.1773 178.682 68.7413C178.848 68.3041 178.899 67.8046 178.836 67.2428L178.046 60.199L180.304 59.9457L181.08 66.8622C181.193 67.8693 181.101 68.7705 180.804 69.5659C180.516 70.3496 180.024 70.9897 179.328 71.4864C178.633 71.983 177.744 72.292 176.663 72.4133Z" fill="white"/>
<path d="M186.965 71.5799C185.773 71.6505 184.821 71.4558 184.11 70.9957C183.409 70.5243 183.016 69.8424 182.931 68.9498L184.927 68.8316C184.977 69.1279 185.158 69.3896 185.471 69.6168C185.783 69.8441 186.259 69.9388 186.898 69.901C187.43 69.8694 187.845 69.7487 188.143 69.5387C188.451 69.3282 188.595 69.0578 188.576 68.7277C188.559 68.4402 188.423 68.2186 188.168 68.0627C187.923 67.9062 187.512 67.8184 186.934 67.7992L186.162 67.7647C185.187 67.7156 184.425 67.4829 183.877 67.0666C183.329 66.6503 183.033 66.0694 182.989 65.3241C182.953 64.7278 183.073 64.2185 183.347 63.7962C183.621 63.3739 184.013 63.0462 184.523 62.813C185.043 62.5685 185.643 62.4261 186.325 62.3857C187.39 62.3226 188.266 62.5058 188.954 62.9352C189.642 63.3647 190.029 64.031 190.114 64.9341L188.118 65.0524C188.079 64.7555 187.914 64.5088 187.625 64.3122C187.335 64.1156 186.93 64.0328 186.408 64.0637C185.94 64.0915 185.583 64.2034 185.338 64.3996C185.093 64.5957 184.979 64.8375 184.996 65.125C185.013 65.4019 185.127 65.6089 185.338 65.7459C185.559 65.8824 185.906 65.9634 186.378 65.9889L187.149 66.0233C188.178 66.0693 188.993 66.3041 189.595 66.728C190.208 67.1511 190.537 67.7514 190.583 68.5287C190.617 69.1037 190.487 69.6136 190.193 70.0584C189.909 70.492 189.492 70.8426 188.941 71.1103C188.391 71.378 187.732 71.5345 186.965 71.5799Z" fill="white"/>
<path d="M197.131 71.3238C196.384 71.3324 195.727 71.2119 195.159 70.9625C194.601 70.7129 194.133 70.3769 193.755 69.9545C193.387 69.5214 193.104 69.0393 192.906 68.5082C192.719 67.977 192.622 67.4341 192.615 66.8794L192.612 66.5755C192.605 65.9995 192.69 65.4438 192.865 64.9085C193.051 64.3623 193.322 63.8791 193.68 63.459C194.049 63.028 194.503 62.6868 195.045 62.4352C195.586 62.173 196.213 62.0377 196.928 62.0295C197.867 62.0187 198.653 62.2177 199.287 62.6264C199.932 63.0244 200.418 63.5575 200.746 64.2258C201.073 64.8834 201.241 65.5961 201.25 66.3641L201.259 67.164L193.564 67.2526L193.548 65.8927L199.852 65.8201L199.172 66.5C199.165 65.9454 199.08 65.4717 198.915 65.0789C198.751 64.6861 198.502 64.3849 198.169 64.1754C197.846 63.9658 197.44 63.8638 196.949 63.8694C196.459 63.875 196.044 63.9918 195.705 64.2197C195.366 64.4476 195.109 64.776 194.932 65.2047C194.767 65.6226 194.687 66.1249 194.694 66.7115C194.7 67.2555 194.791 67.7398 194.966 68.1645C195.142 68.5785 195.407 68.9061 195.762 69.1474C196.116 69.378 196.566 69.4902 197.11 69.4839C197.654 69.4777 198.095 69.3659 198.434 69.1487C198.773 68.9208 198.988 68.6463 199.081 68.3252L201.128 68.3016C201.007 68.9004 200.768 69.4258 200.41 69.878C200.053 70.3301 199.593 70.6821 199.031 70.9339C198.479 71.1856 197.846 71.3156 197.131 71.3238Z" fill="white"/>
<path d="M203.396 71.0979L203.682 62.4146L205.441 62.4724L205.32 66.1504L205.272 66.1488C205.313 64.9015 205.611 63.9668 206.165 63.3447C206.719 62.7225 207.513 62.4285 208.547 62.4625L208.867 62.473L208.803 64.4079L208.195 64.388C207.449 64.3634 206.862 64.5469 206.432 64.9383C206.014 65.3195 205.793 65.8885 205.768 66.6454L205.619 71.171L203.396 71.0979Z" fill="white"/>
<path d="M217.699 71.9801L218.945 60.3667L221.156 60.6038L219.911 72.2172L217.699 71.9801ZM219.593 72.1831L219.797 70.2741L225.063 70.8386L224.858 72.7477L219.593 72.1831ZM220.123 67.2355L220.328 65.3264L225.18 65.8466L224.975 67.7557L220.123 67.2355ZM220.633 62.4787L220.838 60.5697L225.976 61.1206L225.772 63.0297L220.633 62.4787Z" fill="white"/>
<path d="M226.602 73.0279L230.121 68.8846L230.016 69.2406L228.063 64.4629L230.45 64.8385L231.697 68.1285L231.934 68.1658L234.038 65.4032L236.282 65.7564L233.101 69.7099L233.198 69.4013L235.437 74.4184L233.05 74.0428L231.521 70.4818L231.284 70.4445L228.846 73.3811L226.602 73.0279Z" fill="white"/>
<path d="M236.887 78.0152L239.35 66.3852L241.072 66.7498L240.296 70.4126L240.034 70.3406C240.259 69.4833 240.59 68.7956 241.027 68.2775C241.474 67.7616 241.993 67.4192 242.585 67.2501C243.179 67.0707 243.805 67.0505 244.463 67.1897C245.068 67.3179 245.587 67.5424 246.021 67.8632C246.465 68.1862 246.817 68.5824 247.077 69.0519C247.348 69.5236 247.521 70.0454 247.596 70.6174C247.674 71.1789 247.648 71.7623 247.52 72.3675L247.451 72.6963C247.32 73.3119 247.105 73.866 246.804 74.3584C246.516 74.8426 246.152 75.2506 245.711 75.5825C245.283 75.9061 244.799 76.1307 244.26 76.2564C243.723 76.3717 243.152 76.3653 242.547 76.2371C241.91 76.1023 241.353 75.8481 240.876 75.4745C240.412 75.0927 240.077 74.591 239.87 73.9694C239.666 73.3374 239.637 72.5735 239.783 71.6777L240.25 72.8723L239.063 78.476L236.887 78.0152ZM242.387 74.2897C242.856 74.3891 243.287 74.3605 243.68 74.2039C244.084 74.0494 244.428 73.7897 244.712 73.4247C244.999 73.0493 245.197 72.6007 245.308 72.079C245.423 71.5363 245.423 71.0458 245.309 70.6072C245.195 70.1687 244.983 69.8023 244.675 69.508C244.379 69.2055 243.996 69.0046 243.527 68.9051C243.099 68.8145 242.683 68.8244 242.278 68.9349C241.883 69.0476 241.532 69.2623 241.225 69.5789C240.929 69.8977 240.726 70.3128 240.618 70.8241L240.486 71.4503C240.382 71.9407 240.408 72.3824 240.565 72.7754C240.721 73.1684 240.962 73.4975 241.288 73.7627C241.613 74.0278 241.98 74.2035 242.387 74.2897Z" fill="white"/>
<path d="M252.441 78.7297C251.72 78.5368 251.119 78.2437 250.639 77.8504C250.169 77.4598 249.809 77.0102 249.559 76.5016C249.321 75.9854 249.179 75.4449 249.131 74.8801C249.094 74.318 249.147 73.769 249.29 73.2332L249.368 72.9395C249.517 72.383 249.748 71.8706 250.061 71.4022C250.387 70.9263 250.779 70.5342 251.237 70.226C251.708 69.9103 252.237 69.7041 252.826 69.6076C253.418 69.5009 254.059 69.5398 254.75 69.7244C255.656 69.9668 256.36 70.3703 256.861 70.9347C257.374 71.4916 257.699 72.136 257.834 72.8678C257.973 73.5894 257.943 74.3211 257.744 75.0631L257.537 75.8359L250.103 73.848L250.454 72.5341L256.544 74.1625L255.706 74.634C255.849 74.0981 255.894 73.6189 255.842 73.1963C255.789 72.7737 255.631 72.4167 255.366 72.1252C255.112 71.8364 254.748 71.6287 254.274 71.5019C253.8 71.3752 253.369 71.3759 252.982 71.5041C252.594 71.6324 252.258 71.8792 251.972 72.2445C251.7 72.6023 251.488 73.0646 251.336 73.6313C251.196 74.1569 251.153 74.6478 251.208 75.1041C251.265 75.55 251.432 75.937 251.709 76.2649C251.988 76.5825 252.391 76.8116 252.916 76.9521C253.442 77.0926 253.897 77.1039 254.282 76.986C254.67 76.8578 254.951 76.6515 255.126 76.3672L257.105 76.8962C256.827 77.4402 256.455 77.8817 255.989 78.2208C255.523 78.56 254.985 78.775 254.375 78.866C253.776 78.9597 253.131 78.9143 252.441 78.7297Z" fill="white"/>
<path d="M258.535 80.1998L261.149 71.9145L262.828 72.444L261.721 75.9535L261.675 75.9391C262.05 74.7489 262.589 73.9289 263.29 73.479C263.991 73.0292 264.835 72.9599 265.822 73.2712L266.127 73.3675L265.544 75.2138L264.965 75.0308C264.252 74.8062 263.637 74.8245 263.118 75.0859C262.613 75.3403 262.246 75.8286 262.019 76.5509L260.656 80.869L258.535 80.1998Z" fill="white"/>
<path d="M266.629 82.8919L269.554 74.7112L271.648 75.4601L268.723 83.6408L266.629 82.8919ZM267.849 75.8686L268.409 74.3018L271.648 75.4601L271.088 77.0269L267.849 75.8686ZM270.673 74.0067C270.261 73.8595 269.992 73.6445 269.867 73.3617C269.755 73.0725 269.757 72.7672 269.872 72.4458C269.994 72.1043 270.188 71.8622 270.454 71.7196C270.73 71.5805 271.074 71.5846 271.486 71.7318C271.898 71.8791 272.162 72.0923 272.277 72.3714C272.392 72.6506 272.389 72.9609 272.267 73.3024C272.152 73.6238 271.96 73.8609 271.69 74.0136C271.424 74.1563 271.085 74.154 270.673 74.0067Z" fill="white"/>
<path d="M276.654 87.0755C275.963 86.7943 275.403 86.4286 274.976 85.9786C274.558 85.5325 274.257 85.0416 274.072 84.5057C273.901 83.964 273.827 83.4099 273.85 82.8436C273.882 82.2812 274.003 81.7431 274.212 81.2293L274.327 80.9477C274.544 80.4141 274.837 79.9344 275.205 79.5086C275.588 79.077 276.026 78.7368 276.519 78.488C277.025 78.2334 277.577 78.0949 278.173 78.0725C278.773 78.0402 279.404 78.1587 280.066 78.4278C280.936 78.7814 281.584 79.2693 282.01 79.8917C282.45 80.5082 282.692 81.188 282.736 81.9311C282.783 82.6642 282.662 83.3865 282.373 84.098L282.071 84.8391L274.942 81.9405L275.454 80.6807L281.294 83.0549L280.404 83.4183C280.613 82.9045 280.717 82.4347 280.718 82.0088C280.718 81.5829 280.605 81.2089 280.379 80.8868C280.163 80.5686 279.828 80.3171 279.373 80.1323C278.919 79.9475 278.491 79.8946 278.091 79.9736C277.69 80.0525 277.326 80.2555 276.997 80.5824C276.682 80.9035 276.414 81.3358 276.193 81.8793C275.988 82.3832 275.885 82.8649 275.882 83.3245C275.884 83.7741 276.001 84.1789 276.235 84.5387C276.473 84.8887 276.843 85.1661 277.347 85.371C277.851 85.5759 278.301 85.6438 278.698 85.5747C279.099 85.4957 279.404 85.3261 279.613 85.0658L281.51 85.8372C281.167 86.3423 280.743 86.7341 280.238 87.0125C279.733 87.2909 279.173 87.4373 278.557 87.4517C277.95 87.47 277.316 87.3446 276.654 87.0755Z" fill="white"/>
<path d="M282.491 89.2684L286.169 81.3972L287.764 82.1422L286.186 85.5197L286.041 85.452C286.415 84.6499 286.833 84.0328 287.294 83.6006C287.76 83.1588 288.263 82.8996 288.805 82.8232C289.357 82.7513 289.947 82.8621 290.575 83.1555L290.662 83.1962C291.599 83.6342 292.167 84.2704 292.366 85.105C292.569 85.93 292.391 86.9416 291.831 88.1399L289.725 92.6481L287.71 91.7067L289.898 87.0245C290.123 86.5413 290.166 86.0845 290.026 85.6539C289.895 85.2279 289.588 84.902 289.105 84.6763C288.612 84.446 288.139 84.4132 287.685 84.578C287.246 84.7376 286.906 85.0735 286.667 85.5857L284.506 90.2099L282.491 89.2684Z" fill="white"/>
<path d="M295.486 96.0626C294.817 95.7075 294.298 95.2869 293.928 94.8007C293.567 94.3195 293.322 93.8029 293.193 93.251C293.072 92.7041 293.057 92.1526 293.147 91.5965C293.237 91.0404 293.412 90.5174 293.672 90.0275L293.815 89.759C294.09 89.2408 294.432 88.7887 294.843 88.4027C295.267 88.0122 295.742 87.7208 296.267 87.5284C296.797 87.3266 297.359 87.2449 297.955 87.2833C298.565 87.3172 299.19 87.5042 299.831 87.8443C300.5 88.1994 301.028 88.6489 301.415 89.1928C301.808 89.7273 302.037 90.3079 302.103 90.9346C302.178 91.5663 302.072 92.1983 301.785 92.8307L299.877 91.8179C300.04 91.3972 300.045 90.9774 299.893 90.5586C299.751 90.1447 299.43 89.8053 298.93 89.5402C298.497 89.3101 298.079 89.2212 297.677 89.2734C297.285 89.3307 296.92 89.5055 296.584 89.7979C296.252 90.0809 295.962 90.4579 295.712 90.929C295.471 91.3812 295.32 91.8261 295.257 92.2635C295.203 92.706 295.262 93.1059 295.435 93.4632C295.617 93.8255 295.934 94.1267 296.386 94.3668C296.726 94.5468 297.05 94.6406 297.36 94.6482C297.67 94.6557 297.953 94.5887 298.21 94.447C298.475 94.3103 298.7 94.1154 298.882 93.8622L300.79 94.875C300.422 95.4768 299.949 95.9257 299.369 96.2217C298.803 96.5133 298.182 96.6485 297.505 96.6272C296.837 96.6109 296.164 96.4227 295.486 96.0626Z" fill="white"/>
<path d="M304.288 101.112C303.647 100.729 303.149 100.284 302.794 99.7743C302.449 99.2705 302.225 98.7398 302.122 98.1822C302.035 97.6208 302.045 97.0619 302.153 96.5055C302.27 95.9545 302.471 95.4407 302.754 94.9642L302.91 94.7031C303.205 94.2083 303.567 93.7782 303.995 93.4128C304.439 93.0437 304.923 92.7733 305.447 92.6016C305.986 92.4261 306.552 92.3722 307.145 92.4399C307.744 92.4984 308.35 92.7106 308.964 93.0764C309.77 93.5568 310.337 94.1368 310.665 94.8163C311.007 95.4921 311.144 96.2005 311.075 96.9416C311.011 97.6735 310.783 98.3694 310.39 99.0292L309.98 99.7164L303.369 95.7773L304.065 94.609L309.481 97.8356L308.546 98.0607C308.829 97.5842 309.004 97.1355 309.068 96.7146C309.133 96.2936 309.078 95.9069 308.903 95.5544C308.737 95.2073 308.443 94.9082 308.022 94.6571C307.6 94.4059 307.186 94.2892 306.778 94.307C306.37 94.3247 305.979 94.4704 305.605 94.7441C305.245 95.0142 304.915 95.4012 304.615 95.9052C304.337 96.3725 304.161 96.8331 304.09 97.287C304.023 97.7317 304.079 98.1496 304.255 98.5405C304.438 98.9223 304.763 99.2524 305.23 99.5308C305.697 99.8093 306.132 99.9442 306.535 99.9356C306.942 99.9179 307.27 99.7962 307.516 99.5704L309.275 100.619C308.859 101.066 308.381 101.39 307.84 101.589C307.299 101.788 306.723 101.849 306.112 101.77C305.51 101.697 304.902 101.477 304.288 101.112Z" fill="white"/>
</svg>
