<svg width="275" height="275" viewBox="0 0 275 275" fill="none" xmlns="http://www.w3.org/2000/svg">
<circle cx="137.5" cy="137.5" r="137" fill="black" stroke="#1E1E1E"/>
<path d="M67.3866 133.342C66.1626 133.342 65.1306 133.108 64.2906 132.64C63.4506 132.172 62.8086 131.518 62.3646 130.678C61.9326 129.826 61.7166 128.83 61.7166 127.69V119.86H64.2726V127.834C64.2726 128.458 64.3926 129.01 64.6326 129.49C64.8726 129.958 65.2206 130.324 65.6766 130.588C66.1446 130.84 66.7146 130.966 67.3866 130.966C68.0466 130.966 68.6046 130.84 69.0606 130.588C69.5286 130.324 69.8766 129.958 70.1046 129.49C70.3446 129.022 70.4646 128.47 70.4646 127.834V119.86H73.0206V127.69C73.0206 128.83 72.8046 129.826 72.3726 130.678C71.9526 131.518 71.3226 132.172 70.4826 132.64C69.6426 133.108 68.6106 133.342 67.3866 133.342ZM75.8156 133V123.226H77.7956V127.42H77.6156C77.6156 126.424 77.7476 125.596 78.0116 124.936C78.2756 124.264 78.6656 123.76 79.1816 123.424C79.7096 123.088 80.3636 122.92 81.1436 122.92H81.2516C82.4156 122.92 83.2976 123.298 83.8976 124.054C84.4976 124.798 84.7976 125.914 84.7976 127.402V133H82.2956V127.186C82.2956 126.586 82.1216 126.1 81.7736 125.728C81.4376 125.356 80.9696 125.17 80.3696 125.17C79.7576 125.17 79.2596 125.362 78.8756 125.746C78.5036 126.118 78.3176 126.622 78.3176 127.258V133H75.8156ZM91.5374 133.324C90.8534 133.324 90.2234 133.198 89.6474 132.946C89.0714 132.694 88.5734 132.34 88.1534 131.884C87.7334 131.428 87.4094 130.9 87.1814 130.3C86.9534 129.688 86.8394 129.028 86.8394 128.32V127.942C86.8394 127.246 86.9474 126.592 87.1634 125.98C87.3914 125.368 87.7034 124.834 88.0994 124.378C88.5074 123.922 88.9934 123.568 89.5574 123.316C90.1334 123.052 90.7694 122.92 91.4654 122.92C92.2334 122.92 92.9054 123.088 93.4814 123.424C94.0694 123.748 94.5374 124.24 94.8854 124.9C95.2334 125.56 95.4254 126.388 95.4614 127.384L94.7234 126.52V119.86H97.2254V133H95.2454V128.842H95.6774C95.6414 129.838 95.4374 130.672 95.0654 131.344C94.6934 132.004 94.2014 132.502 93.5894 132.838C92.9894 133.162 92.3054 133.324 91.5374 133.324ZM92.0954 131.218C92.5874 131.218 93.0374 131.11 93.4454 130.894C93.8534 130.666 94.1774 130.342 94.4174 129.922C94.6694 129.49 94.7954 128.986 94.7954 128.41V127.69C94.7954 127.114 94.6694 126.634 94.4174 126.25C94.1654 125.854 93.8354 125.554 93.4274 125.35C93.0194 125.134 92.5754 125.026 92.0954 125.026C91.5554 125.026 91.0754 125.158 90.6554 125.422C90.2474 125.674 89.9234 126.034 89.6834 126.502C89.4554 126.97 89.3414 127.516 89.3414 128.14C89.3414 128.764 89.4614 129.31 89.7014 129.778C89.9414 130.234 90.2654 130.588 90.6734 130.84C91.0934 131.092 91.5674 131.218 92.0954 131.218ZM104.447 133.342C103.607 133.342 102.869 133.198 102.233 132.91C101.609 132.622 101.087 132.238 100.667 131.758C100.259 131.266 99.9474 130.72 99.7314 130.12C99.5274 129.52 99.4254 128.908 99.4254 128.284V127.942C99.4254 127.294 99.5274 126.67 99.7314 126.07C99.9474 125.458 100.259 124.918 100.667 124.45C101.087 123.97 101.603 123.592 102.215 123.316C102.827 123.028 103.535 122.884 104.339 122.884C105.395 122.884 106.277 123.118 106.985 123.586C107.705 124.042 108.245 124.648 108.605 125.404C108.965 126.148 109.145 126.952 109.145 127.816V128.716H100.487V127.186H107.579L106.805 127.942C106.805 127.318 106.715 126.784 106.535 126.34C106.355 125.896 106.079 125.554 105.707 125.314C105.347 125.074 104.891 124.954 104.339 124.954C103.787 124.954 103.319 125.08 102.935 125.332C102.551 125.584 102.257 125.95 102.053 126.43C101.861 126.898 101.765 127.462 101.765 128.122C101.765 128.734 101.861 129.28 102.053 129.76C102.245 130.228 102.539 130.6 102.935 130.876C103.331 131.14 103.835 131.272 104.447 131.272C105.059 131.272 105.557 131.152 105.941 130.912C106.325 130.66 106.571 130.354 106.679 129.994H108.983C108.839 130.666 108.563 131.254 108.155 131.758C107.747 132.262 107.225 132.652 106.589 132.928C105.965 133.204 105.251 133.342 104.447 133.342ZM111.235 133V123.226H113.215V127.366H113.161C113.161 125.962 113.461 124.9 114.061 124.18C114.661 123.46 115.543 123.1 116.707 123.1H117.067V125.278H116.383C115.543 125.278 114.889 125.506 114.421 125.962C113.965 126.406 113.737 127.054 113.737 127.906V133H111.235ZM122.287 133.306C120.943 133.306 119.887 133.024 119.119 132.46C118.363 131.884 117.967 131.092 117.931 130.084H120.181C120.217 130.42 120.403 130.726 120.739 131.002C121.075 131.278 121.603 131.416 122.323 131.416C122.923 131.416 123.397 131.308 123.745 131.092C124.105 130.876 124.285 130.582 124.285 130.21C124.285 129.886 124.147 129.628 123.871 129.436C123.607 129.244 123.151 129.118 122.503 129.058L121.639 128.968C120.547 128.848 119.707 128.536 119.119 128.032C118.531 127.528 118.237 126.856 118.237 126.016C118.237 125.344 118.405 124.78 118.741 124.324C119.077 123.868 119.539 123.526 120.127 123.298C120.727 123.058 121.411 122.938 122.179 122.938C123.379 122.938 124.351 123.202 125.095 123.73C125.839 124.258 126.229 125.032 126.265 126.052H124.015C123.991 125.716 123.823 125.428 123.511 125.188C123.199 124.948 122.749 124.828 122.161 124.828C121.633 124.828 121.225 124.93 120.937 125.134C120.649 125.338 120.505 125.602 120.505 125.926C120.505 126.238 120.619 126.478 120.847 126.646C121.087 126.814 121.471 126.928 121.999 126.988L122.863 127.078C124.015 127.198 124.915 127.516 125.563 128.032C126.223 128.548 126.553 129.244 126.553 130.12C126.553 130.768 126.373 131.332 126.013 131.812C125.665 132.28 125.173 132.646 124.537 132.91C123.901 133.174 123.151 133.306 122.287 133.306ZM132.868 133.126C131.968 133.126 131.224 133.012 130.636 132.784C130.06 132.544 129.628 132.148 129.34 131.596C129.052 131.032 128.908 130.276 128.908 129.328L128.926 120.472H131.266L131.248 129.49C131.248 129.97 131.374 130.342 131.626 130.606C131.89 130.858 132.262 130.984 132.742 130.984H134.272V133.126H132.868ZM127.36 125.062V123.226H134.272V125.062H127.36ZM142.259 133V130.102H141.845V126.88C141.845 126.316 141.707 125.896 141.431 125.62C141.155 125.344 140.729 125.206 140.153 125.206C139.853 125.206 139.493 125.212 139.073 125.224C138.653 125.236 138.227 125.254 137.795 125.278C137.375 125.29 136.997 125.308 136.661 125.332V123.208C136.937 123.184 137.249 123.16 137.597 123.136C137.945 123.112 138.299 123.1 138.659 123.1C139.031 123.088 139.379 123.082 139.703 123.082C140.711 123.082 141.545 123.214 142.205 123.478C142.877 123.742 143.381 124.156 143.717 124.72C144.065 125.284 144.239 126.022 144.239 126.934V133H142.259ZM139.109 133.252C138.401 133.252 137.777 133.126 137.237 132.874C136.709 132.622 136.295 132.262 135.995 131.794C135.707 131.326 135.563 130.762 135.563 130.102C135.563 129.382 135.737 128.794 136.085 128.338C136.445 127.882 136.943 127.54 137.579 127.312C138.227 127.084 138.983 126.97 139.847 126.97H142.115V128.464H139.811C139.235 128.464 138.791 128.608 138.479 128.896C138.179 129.172 138.029 129.532 138.029 129.976C138.029 130.42 138.179 130.78 138.479 131.056C138.791 131.332 139.235 131.47 139.811 131.47C140.159 131.47 140.477 131.41 140.765 131.29C141.065 131.158 141.311 130.942 141.503 130.642C141.707 130.33 141.821 129.91 141.845 129.382L142.457 130.084C142.397 130.768 142.229 131.344 141.953 131.812C141.689 132.28 141.317 132.64 140.837 132.892C140.369 133.132 139.793 133.252 139.109 133.252ZM146.919 133V123.226H148.899V127.42H148.719C148.719 126.424 148.851 125.596 149.115 124.936C149.379 124.264 149.769 123.76 150.285 123.424C150.813 123.088 151.467 122.92 152.247 122.92H152.355C153.519 122.92 154.401 123.298 155.001 124.054C155.601 124.798 155.901 125.914 155.901 127.402V133H153.399V127.186C153.399 126.586 153.225 126.1 152.877 125.728C152.541 125.356 152.073 125.17 151.473 125.17C150.861 125.17 150.363 125.362 149.979 125.746C149.607 126.118 149.421 126.622 149.421 127.258V133H146.919ZM162.641 133.324C161.957 133.324 161.327 133.198 160.751 132.946C160.175 132.694 159.677 132.34 159.257 131.884C158.837 131.428 158.513 130.9 158.285 130.3C158.057 129.688 157.943 129.028 157.943 128.32V127.942C157.943 127.246 158.051 126.592 158.267 125.98C158.495 125.368 158.807 124.834 159.203 124.378C159.611 123.922 160.097 123.568 160.661 123.316C161.237 123.052 161.873 122.92 162.569 122.92C163.337 122.92 164.009 123.088 164.585 123.424C165.173 123.748 165.641 124.24 165.989 124.9C166.337 125.56 166.529 126.388 166.565 127.384L165.827 126.52V119.86H168.329V133H166.349V128.842H166.781C166.745 129.838 166.541 130.672 166.169 131.344C165.797 132.004 165.305 132.502 164.693 132.838C164.093 133.162 163.409 133.324 162.641 133.324ZM163.199 131.218C163.691 131.218 164.141 131.11 164.549 130.894C164.957 130.666 165.281 130.342 165.521 129.922C165.773 129.49 165.899 128.986 165.899 128.41V127.69C165.899 127.114 165.773 126.634 165.521 126.25C165.269 125.854 164.939 125.554 164.531 125.35C164.123 125.134 163.679 125.026 163.199 125.026C162.659 125.026 162.179 125.158 161.759 125.422C161.351 125.674 161.027 126.034 160.787 126.502C160.559 126.97 160.445 127.516 160.445 128.14C160.445 128.764 160.565 129.31 160.805 129.778C161.045 130.234 161.369 130.588 161.777 130.84C162.197 131.092 162.671 131.218 163.199 131.218ZM177.78 127.978L173.82 119.86H176.448L179.472 126.214L178.896 126.034H180.606L179.994 126.214L182.748 119.86H185.232L181.578 127.978H177.78ZM178.428 133V127.582H180.93V133H178.428ZM190.553 133.342C189.689 133.342 188.927 133.204 188.267 132.928C187.607 132.652 187.049 132.28 186.593 131.812C186.137 131.332 185.789 130.792 185.549 130.192C185.321 129.592 185.207 128.968 185.207 128.32V127.942C185.207 127.27 185.327 126.634 185.567 126.034C185.819 125.422 186.173 124.882 186.629 124.414C187.097 123.934 187.661 123.562 188.321 123.298C188.981 123.022 189.725 122.884 190.553 122.884C191.381 122.884 192.125 123.022 192.785 123.298C193.445 123.562 194.003 123.934 194.459 124.414C194.927 124.882 195.281 125.422 195.521 126.034C195.761 126.634 195.881 127.27 195.881 127.942V128.32C195.881 128.968 195.761 129.592 195.521 130.192C195.293 130.792 194.951 131.332 194.495 131.812C194.039 132.28 193.481 132.652 192.821 132.928C192.161 133.204 191.405 133.342 190.553 133.342ZM190.553 131.2C191.165 131.2 191.681 131.068 192.101 130.804C192.521 130.528 192.839 130.162 193.055 129.706C193.271 129.238 193.379 128.71 193.379 128.122C193.379 127.522 193.265 126.994 193.037 126.538C192.821 126.07 192.497 125.704 192.065 125.44C191.645 125.164 191.141 125.026 190.553 125.026C189.965 125.026 189.455 125.164 189.023 125.44C188.603 125.704 188.279 126.07 188.051 126.538C187.823 126.994 187.709 127.522 187.709 128.122C187.709 128.71 187.817 129.238 188.033 129.706C188.261 130.162 188.585 130.528 189.005 130.804C189.425 131.068 189.941 131.2 190.553 131.2ZM201.401 133.306C200.273 133.306 199.397 132.934 198.773 132.19C198.161 131.446 197.855 130.342 197.855 128.878V123.208H200.357V129.094C200.357 129.694 200.525 130.174 200.861 130.534C201.197 130.882 201.653 131.056 202.229 131.056C202.805 131.056 203.273 130.87 203.633 130.498C204.005 130.126 204.191 129.622 204.191 128.986V123.208H206.693V133H204.713V128.842H204.911C204.911 129.826 204.785 130.648 204.533 131.308C204.281 131.968 203.903 132.466 203.399 132.802C202.895 133.138 202.265 133.306 201.509 133.306H201.401ZM209.568 133V123.226H211.548V127.366H211.494C211.494 125.962 211.794 124.9 212.394 124.18C212.994 123.46 213.876 123.1 215.04 123.1H215.4V125.278H214.716C213.876 125.278 213.222 125.506 212.754 125.962C212.298 126.406 212.07 127.054 212.07 127.906V133H209.568ZM93.9744 156L98.4564 142.86H102.632L107.24 156H104.612L100.706 144.606L101.624 145.002H99.3744L100.31 144.606L96.5304 156H93.9744ZM97.1064 152.508L97.9164 150.348H103.244L104.036 152.508H97.1064ZM112.184 156.306C111.056 156.306 110.18 155.934 109.556 155.19C108.944 154.446 108.638 153.342 108.638 151.878V146.208H111.14V152.094C111.14 152.694 111.308 153.174 111.644 153.534C111.98 153.882 112.436 154.056 113.012 154.056C113.588 154.056 114.056 153.87 114.416 153.498C114.788 153.126 114.974 152.622 114.974 151.986V146.208H117.476V156H115.496V151.842H115.694C115.694 152.826 115.568 153.648 115.316 154.308C115.064 154.968 114.686 155.466 114.182 155.802C113.678 156.138 113.048 156.306 112.292 156.306H112.184ZM124.4 156.324C123.716 156.324 123.086 156.198 122.51 155.946C121.934 155.694 121.436 155.34 121.016 154.884C120.596 154.428 120.272 153.9 120.044 153.3C119.816 152.688 119.702 152.028 119.702 151.32V150.942C119.702 150.246 119.81 149.592 120.026 148.98C120.254 148.368 120.566 147.834 120.962 147.378C121.37 146.922 121.856 146.568 122.42 146.316C122.996 146.052 123.632 145.92 124.328 145.92C125.096 145.92 125.768 146.088 126.344 146.424C126.932 146.748 127.4 147.24 127.748 147.9C128.096 148.56 128.288 149.388 128.324 150.384L127.586 149.52V142.86H130.088V156H128.108V151.842H128.54C128.504 152.838 128.3 153.672 127.928 154.344C127.556 155.004 127.064 155.502 126.452 155.838C125.852 156.162 125.168 156.324 124.4 156.324ZM124.958 154.218C125.45 154.218 125.9 154.11 126.308 153.894C126.716 153.666 127.04 153.342 127.28 152.922C127.532 152.49 127.658 151.986 127.658 151.41V150.69C127.658 150.114 127.532 149.634 127.28 149.25C127.028 148.854 126.698 148.554 126.29 148.35C125.882 148.134 125.438 148.026 124.958 148.026C124.418 148.026 123.938 148.158 123.518 148.422C123.11 148.674 122.786 149.034 122.546 149.502C122.318 149.97 122.204 150.516 122.204 151.14C122.204 151.764 122.324 152.31 122.564 152.778C122.804 153.234 123.128 153.588 123.536 153.84C123.956 154.092 124.43 154.218 124.958 154.218ZM133.404 156V146.226H135.906V156H133.404ZM132.036 148.098V146.226H135.906V148.098H132.036ZM134.322 145.056C133.83 145.056 133.464 144.93 133.224 144.678C132.996 144.414 132.882 144.09 132.882 143.706C132.882 143.298 132.996 142.968 133.224 142.716C133.464 142.464 133.83 142.338 134.322 142.338C134.814 142.338 135.174 142.464 135.402 142.716C135.63 142.968 135.744 143.298 135.744 143.706C135.744 144.09 135.63 144.414 135.402 144.678C135.174 144.93 134.814 145.056 134.322 145.056ZM143.163 156.342C142.323 156.342 141.585 156.198 140.949 155.91C140.325 155.622 139.803 155.238 139.383 154.758C138.975 154.266 138.663 153.72 138.447 153.12C138.243 152.52 138.141 151.908 138.141 151.284V150.942C138.141 150.294 138.243 149.67 138.447 149.07C138.663 148.458 138.975 147.918 139.383 147.45C139.803 146.97 140.319 146.592 140.931 146.316C141.543 146.028 142.251 145.884 143.055 145.884C144.111 145.884 144.993 146.118 145.701 146.586C146.421 147.042 146.961 147.648 147.321 148.404C147.681 149.148 147.861 149.952 147.861 150.816V151.716H139.203V150.186H146.295L145.521 150.942C145.521 150.318 145.431 149.784 145.251 149.34C145.071 148.896 144.795 148.554 144.423 148.314C144.063 148.074 143.607 147.954 143.055 147.954C142.503 147.954 142.035 148.08 141.651 148.332C141.267 148.584 140.973 148.95 140.769 149.43C140.577 149.898 140.481 150.462 140.481 151.122C140.481 151.734 140.577 152.28 140.769 152.76C140.961 153.228 141.255 153.6 141.651 153.876C142.047 154.14 142.551 154.272 143.163 154.272C143.775 154.272 144.273 154.152 144.657 153.912C145.041 153.66 145.287 153.354 145.395 152.994H147.699C147.555 153.666 147.279 154.254 146.871 154.758C146.463 155.262 145.941 155.652 145.305 155.928C144.681 156.204 143.967 156.342 143.163 156.342ZM149.951 156V146.226H151.931V150.42H151.751C151.751 149.424 151.883 148.596 152.147 147.936C152.411 147.264 152.801 146.76 153.317 146.424C153.845 146.088 154.499 145.92 155.279 145.92H155.387C156.551 145.92 157.433 146.298 158.033 147.054C158.633 147.798 158.933 148.914 158.933 150.402V156H156.431V150.186C156.431 149.586 156.257 149.1 155.909 148.728C155.573 148.356 155.105 148.17 154.505 148.17C153.893 148.17 153.395 148.362 153.011 148.746C152.639 149.118 152.453 149.622 152.453 150.258V156H149.951ZM165.961 156.342C165.109 156.342 164.371 156.198 163.747 155.91C163.135 155.622 162.619 155.238 162.199 154.758C161.791 154.278 161.485 153.738 161.281 153.138C161.077 152.538 160.975 151.926 160.975 151.302V150.96C160.975 150.3 161.077 149.67 161.281 149.07C161.497 148.458 161.815 147.918 162.235 147.45C162.655 146.97 163.171 146.592 163.783 146.316C164.407 146.028 165.127 145.884 165.943 145.884C166.795 145.884 167.557 146.052 168.229 146.388C168.901 146.712 169.435 147.168 169.831 147.756C170.239 148.344 170.467 149.028 170.515 149.808H168.085C168.025 149.304 167.809 148.884 167.437 148.548C167.077 148.212 166.579 148.044 165.943 148.044C165.391 148.044 164.929 148.176 164.557 148.44C164.197 148.704 163.927 149.07 163.747 149.538C163.567 149.994 163.477 150.522 163.477 151.122C163.477 151.698 163.561 152.22 163.729 152.688C163.909 153.156 164.179 153.522 164.539 153.786C164.911 154.05 165.385 154.182 165.961 154.182C166.393 154.182 166.765 154.104 167.077 153.948C167.389 153.792 167.635 153.576 167.815 153.3C168.007 153.024 168.127 152.712 168.175 152.364H170.605C170.557 153.156 170.323 153.852 169.903 154.452C169.495 155.04 168.949 155.502 168.265 155.838C167.593 156.174 166.825 156.342 165.961 156.342ZM176.984 156.342C176.144 156.342 175.406 156.198 174.77 155.91C174.146 155.622 173.624 155.238 173.204 154.758C172.796 154.266 172.484 153.72 172.268 153.12C172.064 152.52 171.962 151.908 171.962 151.284V150.942C171.962 150.294 172.064 149.67 172.268 149.07C172.484 148.458 172.796 147.918 173.204 147.45C173.624 146.97 174.14 146.592 174.752 146.316C175.364 146.028 176.072 145.884 176.876 145.884C177.932 145.884 178.814 146.118 179.522 146.586C180.242 147.042 180.782 147.648 181.142 148.404C181.502 149.148 181.682 149.952 181.682 150.816V151.716H173.024V150.186H180.116L179.342 150.942C179.342 150.318 179.252 149.784 179.072 149.34C178.892 148.896 178.616 148.554 178.244 148.314C177.884 148.074 177.428 147.954 176.876 147.954C176.324 147.954 175.856 148.08 175.472 148.332C175.088 148.584 174.794 148.95 174.59 149.43C174.398 149.898 174.302 150.462 174.302 151.122C174.302 151.734 174.398 152.28 174.59 152.76C174.782 153.228 175.076 153.6 175.472 153.876C175.868 154.14 176.372 154.272 176.984 154.272C177.596 154.272 178.094 154.152 178.478 153.912C178.862 153.66 179.108 153.354 179.216 152.994H181.52C181.376 153.666 181.1 154.254 180.691 154.758C180.284 155.262 179.762 155.652 179.126 155.928C178.502 156.204 177.788 156.342 176.984 156.342Z" fill="white"/>
</svg>
