<svg width="720" height="720" viewBox="0 0 720 720" fill="none" xmlns="http://www.w3.org/2000/svg">
<circle cx="360" cy="360" r="360" fill="#166ADB"/>
<circle opacity="0.5" cx="360.5" cy="418.5" r="301.5" fill="black"/>
<circle opacity="0.5" cx="360.5" cy="470.5" r="249.5" fill="black"/>
<circle opacity="0.5" cx="360" cy="522" r="198" fill="black"/>
<circle cx="360.5" cy="582.5" r="137" fill="black" stroke="#1E1E1E"/>
<path d="M290.387 578.342C289.163 578.342 288.131 578.108 287.291 577.64C286.451 577.172 285.809 576.518 285.365 575.678C284.933 574.826 284.717 573.83 284.717 572.69V564.86H287.273V572.834C287.273 573.458 287.393 574.01 287.633 574.49C287.873 574.958 288.221 575.324 288.677 575.588C289.145 575.84 289.715 575.966 290.387 575.966C291.047 575.966 291.605 575.84 292.061 575.588C292.529 575.324 292.877 574.958 293.105 574.49C293.345 574.022 293.465 573.47 293.465 572.834V564.86H296.021V572.69C296.021 573.83 295.805 574.826 295.373 575.678C294.953 576.518 294.323 577.172 293.483 577.64C292.643 578.108 291.611 578.342 290.387 578.342ZM298.816 578V568.226H300.796V572.42H300.616C300.616 571.424 300.748 570.596 301.012 569.936C301.276 569.264 301.666 568.76 302.182 568.424C302.71 568.088 303.364 567.92 304.144 567.92H304.252C305.416 567.92 306.298 568.298 306.898 569.054C307.498 569.798 307.798 570.914 307.798 572.402V578H305.296V572.186C305.296 571.586 305.122 571.1 304.774 570.728C304.438 570.356 303.97 570.17 303.37 570.17C302.758 570.17 302.26 570.362 301.876 570.746C301.504 571.118 301.318 571.622 301.318 572.258V578H298.816ZM314.537 578.324C313.853 578.324 313.223 578.198 312.647 577.946C312.071 577.694 311.573 577.34 311.153 576.884C310.733 576.428 310.409 575.9 310.181 575.3C309.953 574.688 309.839 574.028 309.839 573.32V572.942C309.839 572.246 309.947 571.592 310.163 570.98C310.391 570.368 310.703 569.834 311.099 569.378C311.507 568.922 311.993 568.568 312.557 568.316C313.133 568.052 313.769 567.92 314.465 567.92C315.233 567.92 315.905 568.088 316.481 568.424C317.069 568.748 317.537 569.24 317.885 569.9C318.233 570.56 318.425 571.388 318.461 572.384L317.723 571.52V564.86H320.225V578H318.245V573.842H318.677C318.641 574.838 318.437 575.672 318.065 576.344C317.693 577.004 317.201 577.502 316.589 577.838C315.989 578.162 315.305 578.324 314.537 578.324ZM315.095 576.218C315.587 576.218 316.037 576.11 316.445 575.894C316.853 575.666 317.177 575.342 317.417 574.922C317.669 574.49 317.795 573.986 317.795 573.41V572.69C317.795 572.114 317.669 571.634 317.417 571.25C317.165 570.854 316.835 570.554 316.427 570.35C316.019 570.134 315.575 570.026 315.095 570.026C314.555 570.026 314.075 570.158 313.655 570.422C313.247 570.674 312.923 571.034 312.683 571.502C312.455 571.97 312.341 572.516 312.341 573.14C312.341 573.764 312.461 574.31 312.701 574.778C312.941 575.234 313.265 575.588 313.673 575.84C314.093 576.092 314.567 576.218 315.095 576.218ZM327.447 578.342C326.607 578.342 325.869 578.198 325.233 577.91C324.609 577.622 324.087 577.238 323.667 576.758C323.259 576.266 322.947 575.72 322.731 575.12C322.527 574.52 322.425 573.908 322.425 573.284V572.942C322.425 572.294 322.527 571.67 322.731 571.07C322.947 570.458 323.259 569.918 323.667 569.45C324.087 568.97 324.603 568.592 325.215 568.316C325.827 568.028 326.535 567.884 327.339 567.884C328.395 567.884 329.277 568.118 329.985 568.586C330.705 569.042 331.245 569.648 331.605 570.404C331.965 571.148 332.145 571.952 332.145 572.816V573.716H323.487V572.186H330.579L329.805 572.942C329.805 572.318 329.715 571.784 329.535 571.34C329.355 570.896 329.079 570.554 328.707 570.314C328.347 570.074 327.891 569.954 327.339 569.954C326.787 569.954 326.319 570.08 325.935 570.332C325.551 570.584 325.257 570.95 325.053 571.43C324.861 571.898 324.765 572.462 324.765 573.122C324.765 573.734 324.861 574.28 325.053 574.76C325.245 575.228 325.539 575.6 325.935 575.876C326.331 576.14 326.835 576.272 327.447 576.272C328.059 576.272 328.557 576.152 328.941 575.912C329.325 575.66 329.571 575.354 329.679 574.994H331.983C331.839 575.666 331.563 576.254 331.155 576.758C330.747 577.262 330.225 577.652 329.589 577.928C328.965 578.204 328.251 578.342 327.447 578.342ZM334.235 578V568.226H336.215V572.366H336.161C336.161 570.962 336.461 569.9 337.061 569.18C337.661 568.46 338.543 568.1 339.707 568.1H340.067V570.278H339.383C338.543 570.278 337.889 570.506 337.421 570.962C336.965 571.406 336.737 572.054 336.737 572.906V578H334.235ZM345.287 578.306C343.943 578.306 342.887 578.024 342.119 577.46C341.363 576.884 340.967 576.092 340.931 575.084H343.181C343.217 575.42 343.403 575.726 343.739 576.002C344.075 576.278 344.603 576.416 345.323 576.416C345.923 576.416 346.397 576.308 346.745 576.092C347.105 575.876 347.285 575.582 347.285 575.21C347.285 574.886 347.147 574.628 346.871 574.436C346.607 574.244 346.151 574.118 345.503 574.058L344.639 573.968C343.547 573.848 342.707 573.536 342.119 573.032C341.531 572.528 341.237 571.856 341.237 571.016C341.237 570.344 341.405 569.78 341.741 569.324C342.077 568.868 342.539 568.526 343.127 568.298C343.727 568.058 344.411 567.938 345.179 567.938C346.379 567.938 347.351 568.202 348.095 568.73C348.839 569.258 349.229 570.032 349.265 571.052H347.015C346.991 570.716 346.823 570.428 346.511 570.188C346.199 569.948 345.749 569.828 345.161 569.828C344.633 569.828 344.225 569.93 343.937 570.134C343.649 570.338 343.505 570.602 343.505 570.926C343.505 571.238 343.619 571.478 343.847 571.646C344.087 571.814 344.471 571.928 344.999 571.988L345.863 572.078C347.015 572.198 347.915 572.516 348.563 573.032C349.223 573.548 349.553 574.244 349.553 575.12C349.553 575.768 349.373 576.332 349.013 576.812C348.665 577.28 348.173 577.646 347.537 577.91C346.901 578.174 346.151 578.306 345.287 578.306ZM355.868 578.126C354.968 578.126 354.224 578.012 353.636 577.784C353.06 577.544 352.628 577.148 352.34 576.596C352.052 576.032 351.908 575.276 351.908 574.328L351.926 565.472H354.266L354.248 574.49C354.248 574.97 354.374 575.342 354.626 575.606C354.89 575.858 355.262 575.984 355.742 575.984H357.272V578.126H355.868ZM350.36 570.062V568.226H357.272V570.062H350.36ZM365.259 578V575.102H364.845V571.88C364.845 571.316 364.707 570.896 364.431 570.62C364.155 570.344 363.729 570.206 363.153 570.206C362.853 570.206 362.493 570.212 362.073 570.224C361.653 570.236 361.227 570.254 360.795 570.278C360.375 570.29 359.997 570.308 359.661 570.332V568.208C359.937 568.184 360.249 568.16 360.597 568.136C360.945 568.112 361.299 568.1 361.659 568.1C362.031 568.088 362.379 568.082 362.703 568.082C363.711 568.082 364.545 568.214 365.205 568.478C365.877 568.742 366.381 569.156 366.717 569.72C367.065 570.284 367.239 571.022 367.239 571.934V578H365.259ZM362.109 578.252C361.401 578.252 360.777 578.126 360.237 577.874C359.709 577.622 359.295 577.262 358.995 576.794C358.707 576.326 358.563 575.762 358.563 575.102C358.563 574.382 358.737 573.794 359.085 573.338C359.445 572.882 359.943 572.54 360.579 572.312C361.227 572.084 361.983 571.97 362.847 571.97H365.115V573.464H362.811C362.235 573.464 361.791 573.608 361.479 573.896C361.179 574.172 361.029 574.532 361.029 574.976C361.029 575.42 361.179 575.78 361.479 576.056C361.791 576.332 362.235 576.47 362.811 576.47C363.159 576.47 363.477 576.41 363.765 576.29C364.065 576.158 364.311 575.942 364.503 575.642C364.707 575.33 364.821 574.91 364.845 574.382L365.457 575.084C365.397 575.768 365.229 576.344 364.953 576.812C364.689 577.28 364.317 577.64 363.837 577.892C363.369 578.132 362.793 578.252 362.109 578.252ZM369.919 578V568.226H371.899V572.42H371.719C371.719 571.424 371.851 570.596 372.115 569.936C372.379 569.264 372.769 568.76 373.285 568.424C373.813 568.088 374.467 567.92 375.247 567.92H375.355C376.519 567.92 377.401 568.298 378.001 569.054C378.601 569.798 378.901 570.914 378.901 572.402V578H376.399V572.186C376.399 571.586 376.225 571.1 375.877 570.728C375.541 570.356 375.073 570.17 374.473 570.17C373.861 570.17 373.363 570.362 372.979 570.746C372.607 571.118 372.421 571.622 372.421 572.258V578H369.919ZM385.641 578.324C384.957 578.324 384.327 578.198 383.751 577.946C383.175 577.694 382.677 577.34 382.257 576.884C381.837 576.428 381.513 575.9 381.285 575.3C381.057 574.688 380.943 574.028 380.943 573.32V572.942C380.943 572.246 381.051 571.592 381.267 570.98C381.495 570.368 381.807 569.834 382.203 569.378C382.611 568.922 383.097 568.568 383.661 568.316C384.237 568.052 384.873 567.92 385.569 567.92C386.337 567.92 387.009 568.088 387.585 568.424C388.173 568.748 388.641 569.24 388.989 569.9C389.337 570.56 389.529 571.388 389.565 572.384L388.827 571.52V564.86H391.329V578H389.349V573.842H389.781C389.745 574.838 389.541 575.672 389.169 576.344C388.797 577.004 388.305 577.502 387.693 577.838C387.093 578.162 386.409 578.324 385.641 578.324ZM386.199 576.218C386.691 576.218 387.141 576.11 387.549 575.894C387.957 575.666 388.281 575.342 388.521 574.922C388.773 574.49 388.899 573.986 388.899 573.41V572.69C388.899 572.114 388.773 571.634 388.521 571.25C388.269 570.854 387.939 570.554 387.531 570.35C387.123 570.134 386.679 570.026 386.199 570.026C385.659 570.026 385.179 570.158 384.759 570.422C384.351 570.674 384.027 571.034 383.787 571.502C383.559 571.97 383.445 572.516 383.445 573.14C383.445 573.764 383.565 574.31 383.805 574.778C384.045 575.234 384.369 575.588 384.777 575.84C385.197 576.092 385.671 576.218 386.199 576.218ZM400.78 572.978L396.82 564.86H399.448L402.472 571.214L401.896 571.034H403.606L402.994 571.214L405.748 564.86H408.232L404.578 572.978H400.78ZM401.428 578V572.582H403.93V578H401.428ZM413.553 578.342C412.689 578.342 411.927 578.204 411.267 577.928C410.607 577.652 410.049 577.28 409.593 576.812C409.137 576.332 408.789 575.792 408.549 575.192C408.321 574.592 408.207 573.968 408.207 573.32V572.942C408.207 572.27 408.327 571.634 408.567 571.034C408.819 570.422 409.173 569.882 409.629 569.414C410.097 568.934 410.661 568.562 411.321 568.298C411.981 568.022 412.725 567.884 413.553 567.884C414.381 567.884 415.125 568.022 415.785 568.298C416.445 568.562 417.003 568.934 417.459 569.414C417.927 569.882 418.281 570.422 418.521 571.034C418.761 571.634 418.881 572.27 418.881 572.942V573.32C418.881 573.968 418.761 574.592 418.521 575.192C418.293 575.792 417.951 576.332 417.495 576.812C417.039 577.28 416.481 577.652 415.821 577.928C415.161 578.204 414.405 578.342 413.553 578.342ZM413.553 576.2C414.165 576.2 414.681 576.068 415.101 575.804C415.521 575.528 415.839 575.162 416.055 574.706C416.271 574.238 416.379 573.71 416.379 573.122C416.379 572.522 416.265 571.994 416.037 571.538C415.821 571.07 415.497 570.704 415.065 570.44C414.645 570.164 414.141 570.026 413.553 570.026C412.965 570.026 412.455 570.164 412.023 570.44C411.603 570.704 411.279 571.07 411.051 571.538C410.823 571.994 410.709 572.522 410.709 573.122C410.709 573.71 410.817 574.238 411.033 574.706C411.261 575.162 411.585 575.528 412.005 575.804C412.425 576.068 412.941 576.2 413.553 576.2ZM424.401 578.306C423.273 578.306 422.397 577.934 421.773 577.19C421.161 576.446 420.855 575.342 420.855 573.878V568.208H423.357V574.094C423.357 574.694 423.525 575.174 423.861 575.534C424.197 575.882 424.653 576.056 425.229 576.056C425.805 576.056 426.273 575.87 426.633 575.498C427.005 575.126 427.191 574.622 427.191 573.986V568.208H429.693V578H427.713V573.842H427.911C427.911 574.826 427.785 575.648 427.533 576.308C427.281 576.968 426.903 577.466 426.399 577.802C425.895 578.138 425.265 578.306 424.509 578.306H424.401ZM432.568 578V568.226H434.548V572.366H434.494C434.494 570.962 434.794 569.9 435.394 569.18C435.994 568.46 436.876 568.1 438.04 568.1H438.4V570.278H437.716C436.876 570.278 436.222 570.506 435.754 570.962C435.298 571.406 435.07 572.054 435.07 572.906V578H432.568ZM316.974 601L321.456 587.86H325.632L330.24 601H327.612L323.706 589.606L324.624 590.002H322.374L323.31 589.606L319.53 601H316.974ZM320.106 597.508L320.916 595.348H326.244L327.036 597.508H320.106ZM335.184 601.306C334.056 601.306 333.18 600.934 332.556 600.19C331.944 599.446 331.638 598.342 331.638 596.878V591.208H334.14V597.094C334.14 597.694 334.308 598.174 334.644 598.534C334.98 598.882 335.436 599.056 336.012 599.056C336.588 599.056 337.056 598.87 337.416 598.498C337.788 598.126 337.974 597.622 337.974 596.986V591.208H340.476V601H338.496V596.842H338.694C338.694 597.826 338.568 598.648 338.316 599.308C338.064 599.968 337.686 600.466 337.182 600.802C336.678 601.138 336.048 601.306 335.292 601.306H335.184ZM347.4 601.324C346.716 601.324 346.086 601.198 345.51 600.946C344.934 600.694 344.436 600.34 344.016 599.884C343.596 599.428 343.272 598.9 343.044 598.3C342.816 597.688 342.702 597.028 342.702 596.32V595.942C342.702 595.246 342.81 594.592 343.026 593.98C343.254 593.368 343.566 592.834 343.962 592.378C344.37 591.922 344.856 591.568 345.42 591.316C345.996 591.052 346.632 590.92 347.328 590.92C348.096 590.92 348.768 591.088 349.344 591.424C349.932 591.748 350.4 592.24 350.748 592.9C351.096 593.56 351.288 594.388 351.324 595.384L350.586 594.52V587.86H353.088V601H351.108V596.842H351.54C351.504 597.838 351.3 598.672 350.928 599.344C350.556 600.004 350.064 600.502 349.452 600.838C348.852 601.162 348.168 601.324 347.4 601.324ZM347.958 599.218C348.45 599.218 348.9 599.11 349.308 598.894C349.716 598.666 350.04 598.342 350.28 597.922C350.532 597.49 350.658 596.986 350.658 596.41V595.69C350.658 595.114 350.532 594.634 350.28 594.25C350.028 593.854 349.698 593.554 349.29 593.35C348.882 593.134 348.438 593.026 347.958 593.026C347.418 593.026 346.938 593.158 346.518 593.422C346.11 593.674 345.786 594.034 345.546 594.502C345.318 594.97 345.204 595.516 345.204 596.14C345.204 596.764 345.324 597.31 345.564 597.778C345.804 598.234 346.128 598.588 346.536 598.84C346.956 599.092 347.43 599.218 347.958 599.218ZM356.404 601V591.226H358.906V601H356.404ZM355.036 593.098V591.226H358.906V593.098H355.036ZM357.322 590.056C356.83 590.056 356.464 589.93 356.224 589.678C355.996 589.414 355.882 589.09 355.882 588.706C355.882 588.298 355.996 587.968 356.224 587.716C356.464 587.464 356.83 587.338 357.322 587.338C357.814 587.338 358.174 587.464 358.402 587.716C358.63 587.968 358.744 588.298 358.744 588.706C358.744 589.09 358.63 589.414 358.402 589.678C358.174 589.93 357.814 590.056 357.322 590.056ZM366.163 601.342C365.323 601.342 364.585 601.198 363.949 600.91C363.325 600.622 362.803 600.238 362.383 599.758C361.975 599.266 361.663 598.72 361.447 598.12C361.243 597.52 361.141 596.908 361.141 596.284V595.942C361.141 595.294 361.243 594.67 361.447 594.07C361.663 593.458 361.975 592.918 362.383 592.45C362.803 591.97 363.319 591.592 363.931 591.316C364.543 591.028 365.251 590.884 366.055 590.884C367.111 590.884 367.993 591.118 368.701 591.586C369.421 592.042 369.961 592.648 370.321 593.404C370.681 594.148 370.861 594.952 370.861 595.816V596.716H362.203V595.186H369.295L368.521 595.942C368.521 595.318 368.431 594.784 368.251 594.34C368.071 593.896 367.795 593.554 367.423 593.314C367.063 593.074 366.607 592.954 366.055 592.954C365.503 592.954 365.035 593.08 364.651 593.332C364.267 593.584 363.973 593.95 363.769 594.43C363.577 594.898 363.481 595.462 363.481 596.122C363.481 596.734 363.577 597.28 363.769 597.76C363.961 598.228 364.255 598.6 364.651 598.876C365.047 599.14 365.551 599.272 366.163 599.272C366.775 599.272 367.273 599.152 367.657 598.912C368.041 598.66 368.287 598.354 368.395 597.994H370.699C370.555 598.666 370.279 599.254 369.871 599.758C369.463 600.262 368.941 600.652 368.305 600.928C367.681 601.204 366.967 601.342 366.163 601.342ZM372.951 601V591.226H374.931V595.42H374.751C374.751 594.424 374.883 593.596 375.147 592.936C375.411 592.264 375.801 591.76 376.317 591.424C376.845 591.088 377.499 590.92 378.279 590.92H378.387C379.551 590.92 380.433 591.298 381.033 592.054C381.633 592.798 381.933 593.914 381.933 595.402V601H379.431V595.186C379.431 594.586 379.257 594.1 378.909 593.728C378.573 593.356 378.105 593.17 377.505 593.17C376.893 593.17 376.395 593.362 376.011 593.746C375.639 594.118 375.453 594.622 375.453 595.258V601H372.951ZM388.961 601.342C388.109 601.342 387.371 601.198 386.747 600.91C386.135 600.622 385.619 600.238 385.199 599.758C384.791 599.278 384.485 598.738 384.281 598.138C384.077 597.538 383.975 596.926 383.975 596.302V595.96C383.975 595.3 384.077 594.67 384.281 594.07C384.497 593.458 384.815 592.918 385.235 592.45C385.655 591.97 386.171 591.592 386.783 591.316C387.407 591.028 388.127 590.884 388.943 590.884C389.795 590.884 390.557 591.052 391.229 591.388C391.901 591.712 392.435 592.168 392.831 592.756C393.239 593.344 393.467 594.028 393.515 594.808H391.085C391.025 594.304 390.809 593.884 390.437 593.548C390.077 593.212 389.579 593.044 388.943 593.044C388.391 593.044 387.929 593.176 387.557 593.44C387.197 593.704 386.927 594.07 386.747 594.538C386.567 594.994 386.477 595.522 386.477 596.122C386.477 596.698 386.561 597.22 386.729 597.688C386.909 598.156 387.179 598.522 387.539 598.786C387.911 599.05 388.385 599.182 388.961 599.182C389.393 599.182 389.765 599.104 390.077 598.948C390.389 598.792 390.635 598.576 390.815 598.3C391.007 598.024 391.127 597.712 391.175 597.364H393.605C393.557 598.156 393.323 598.852 392.903 599.452C392.495 600.04 391.949 600.502 391.265 600.838C390.593 601.174 389.825 601.342 388.961 601.342ZM399.984 601.342C399.144 601.342 398.406 601.198 397.77 600.91C397.146 600.622 396.624 600.238 396.204 599.758C395.796 599.266 395.484 598.72 395.268 598.12C395.064 597.52 394.962 596.908 394.962 596.284V595.942C394.962 595.294 395.064 594.67 395.268 594.07C395.484 593.458 395.796 592.918 396.204 592.45C396.624 591.97 397.14 591.592 397.752 591.316C398.364 591.028 399.072 590.884 399.876 590.884C400.932 590.884 401.814 591.118 402.522 591.586C403.242 592.042 403.782 592.648 404.142 593.404C404.502 594.148 404.682 594.952 404.682 595.816V596.716H396.024V595.186H403.116L402.342 595.942C402.342 595.318 402.252 594.784 402.072 594.34C401.892 593.896 401.616 593.554 401.244 593.314C400.884 593.074 400.428 592.954 399.876 592.954C399.324 592.954 398.856 593.08 398.472 593.332C398.088 593.584 397.794 593.95 397.59 594.43C397.398 594.898 397.302 595.462 397.302 596.122C397.302 596.734 397.398 597.28 397.59 597.76C397.782 598.228 398.076 598.6 398.472 598.876C398.868 599.14 399.372 599.272 399.984 599.272C400.596 599.272 401.094 599.152 401.478 598.912C401.862 598.66 402.108 598.354 402.216 597.994H404.52C404.376 598.666 404.1 599.254 403.691 599.758C403.284 600.262 402.762 600.652 402.126 600.928C401.502 601.204 400.788 601.342 399.984 601.342Z" fill="white"/>
<path d="M198.977 104.56L197.842 101.983L201.285 100.467C201.903 100.195 202.295 99.8298 202.462 99.3717C202.629 98.9136 202.582 98.3892 202.322 97.7986C202.062 97.208 201.71 96.8263 201.265 96.6536C200.814 96.4674 200.28 96.5102 199.663 96.7821L196.22 98.2982L195.342 96.3049L198.624 94.8597C199.644 94.4105 200.606 94.1391 201.511 94.0454C202.409 93.9382 203.208 94.0594 203.906 94.4087C204.605 94.7581 205.161 95.4026 205.575 96.3422L205.699 96.6241C206.083 97.4966 206.213 98.3369 206.088 99.1451C205.957 99.9399 205.577 100.676 204.946 101.355C204.309 102.02 203.414 102.606 202.259 103.115L198.977 104.56ZM196.159 105.801L189.589 90.8817L192.81 89.4631L199.38 104.383L196.159 105.801ZM195.989 97.7747L195.121 95.8016L198.02 94.5248C198.651 94.247 199.036 93.885 199.176 93.4387C199.316 92.9924 199.268 92.5008 199.032 91.9639C198.783 91.4002 198.447 91.0193 198.024 90.8213C197.6 90.6232 197.073 90.6631 196.442 90.9409L193.542 92.2177L192.407 89.6405L195.105 88.4524C196.797 87.7076 198.249 87.493 199.461 87.8083C200.687 88.1178 201.59 88.9303 202.169 90.2457L202.302 90.5477C202.704 91.4605 202.791 92.2955 202.564 93.0527C202.35 93.804 201.9 94.4748 201.215 95.0652C200.537 95.6362 199.694 96.1434 198.687 96.5867L195.989 97.7747Z" fill="white"/>
<path d="M217.802 97.063C216.845 97.4357 215.934 97.6018 215.068 97.5613C214.216 97.5155 213.437 97.3151 212.733 96.9601C212.036 96.5861 211.425 96.108 210.899 95.5259C210.381 94.9247 209.982 94.262 209.699 93.5377L209.54 93.1277C209.247 92.376 209.09 91.6107 209.07 90.8315C209.058 90.0334 209.185 89.2678 209.45 88.5348C209.716 87.8018 210.142 87.1398 210.731 86.5486C211.327 85.9384 212.083 85.455 212.999 85.0983C214.202 84.6298 215.319 84.5091 216.352 84.7364C217.394 84.9446 218.303 85.4008 219.081 86.1051C219.854 86.7957 220.44 87.6535 220.839 88.6785L221.271 89.7854L211.328 93.6586L210.602 91.7932L218.555 88.6946L217.825 89.9709C217.564 89.3012 217.245 88.7645 216.867 88.3607C216.489 87.9569 216.061 87.7066 215.583 87.6097C215.113 87.4938 214.597 87.5449 214.037 87.7632C213.463 87.9868 213.029 88.3057 212.733 88.7197C212.438 89.1338 212.287 89.6335 212.279 90.2191C212.265 90.7909 212.4 91.439 212.682 92.1633C212.943 92.8329 213.267 93.3833 213.656 93.8144C214.039 94.2319 214.488 94.4974 215.005 94.611C215.521 94.7246 216.108 94.6537 216.764 94.3981C217.365 94.1639 217.812 93.856 218.104 93.4746C218.396 93.0932 218.544 92.7051 218.547 92.3102L221.561 91.1363C221.69 91.9518 221.629 92.7466 221.38 93.5205C221.13 94.2945 220.707 94.9866 220.111 95.5968C219.514 96.2069 218.745 96.6957 217.802 97.063Z" fill="white"/>
<path d="M232.999 91.2563C231.849 91.6561 230.873 91.8403 230.07 91.8089C229.262 91.7637 228.576 91.4664 228.013 90.9171C227.458 90.3491 226.981 89.4902 226.581 88.3404L223.098 78.3247L226.194 77.248L229.721 87.3884C229.908 87.9287 230.191 88.2961 230.57 88.4907C230.957 88.6666 231.414 88.663 231.94 88.4799L233.623 87.8947L234.599 90.6999L232.999 91.2563ZM223.288 84.431L222.443 81.9998L230.589 79.1673L231.434 81.5985L223.288 84.431Z" fill="white"/>
<path d="M245.248 87.3126C244.086 87.6748 243.104 87.8273 242.303 87.7698C241.497 87.6984 240.821 87.379 240.276 86.8116C239.74 86.2259 239.291 85.3519 238.929 84.1897L235.773 74.0662L238.902 73.0907L242.097 83.3403C242.268 83.8864 242.539 84.2628 242.91 84.4695C243.292 84.6579 243.748 84.6692 244.28 84.5033L245.982 83.973L246.865 86.8085L245.248 87.3126ZM235.765 80.1754L234.999 77.7181L243.232 75.1516L243.998 77.609L235.765 80.1754Z" fill="white"/>
<path d="M257.712 84.0253C256.722 84.2945 255.798 84.3631 254.941 84.2311C254.099 84.0953 253.346 83.8135 252.683 83.3859C252.03 82.9402 251.473 82.4001 251.011 81.7655C250.56 81.1129 250.233 80.4115 250.029 79.6614L249.914 79.2368C249.702 78.4584 249.628 77.6807 249.69 76.9038C249.763 76.1089 249.97 75.3611 250.312 74.6603C250.653 73.9596 251.148 73.3464 251.795 72.8209C252.453 72.2774 253.256 71.8767 254.204 71.6191C255.45 71.2806 256.574 71.279 257.577 71.6144C258.59 71.9318 259.447 72.4818 260.146 73.2646C260.841 74.0331 261.333 74.9482 261.621 76.0097L261.933 77.1561L251.636 79.9542L251.111 78.0223L259.349 75.7838L258.487 76.9755C258.298 76.2819 258.038 75.7144 257.705 75.2729C257.372 74.8314 256.973 74.5371 256.508 74.39C256.052 74.225 255.535 74.2213 254.954 74.379C254.36 74.5405 253.894 74.8115 253.557 75.192C253.219 75.5724 253.016 76.0533 252.946 76.6347C252.872 77.2019 252.937 77.8606 253.141 78.6107C253.329 79.3042 253.593 79.8859 253.934 80.3557C254.271 80.8114 254.69 81.1231 255.191 81.2907C255.693 81.4584 256.283 81.45 256.962 81.2653C257.585 81.0961 258.062 80.8373 258.393 80.489C258.724 80.1407 258.912 79.7704 258.957 79.3781L262.078 78.5301C262.12 79.3547 261.976 80.1386 261.646 80.8818C261.316 81.625 260.822 82.2683 260.164 82.8119C259.506 83.3554 258.689 83.7599 257.712 84.0253Z" fill="white"/>
<path d="M268.069 80.9521L265.338 69.2095L268.059 68.5765L269.231 73.6121L269.166 73.6271C268.781 71.97 268.833 70.61 269.324 69.5473C269.829 68.4811 270.753 67.7919 272.096 67.4796L272.546 67.375L273.234 70.332L272.376 70.5314C271.434 70.7507 270.765 71.1773 270.37 71.8111C269.972 72.4307 269.884 73.2191 270.107 74.1762L271.498 80.1547L268.069 80.9521Z" fill="white"/>
<path d="M296.55 75.6471C295.118 75.8866 293.847 75.8463 292.738 75.5262C291.626 75.1917 290.677 74.6738 289.89 73.9726C289.102 73.2569 288.469 72.4555 287.994 71.5685C287.531 70.6645 287.224 69.7641 287.074 68.8672L286.994 68.3899C286.829 67.4062 286.827 66.4104 286.985 65.4024C287.141 64.38 287.479 63.4238 288 62.5337C288.535 61.6413 289.262 60.8802 290.183 60.2503C291.116 59.6036 292.269 59.1654 293.644 58.9355C295.076 58.696 296.386 58.752 297.575 59.1033C298.764 59.4547 299.764 60.0533 300.574 60.8992C301.397 61.7282 301.973 62.7695 302.301 64.0231L298.721 64.6219C298.513 64.0023 298.191 63.4986 297.755 63.1106C297.318 62.7227 296.79 62.4541 296.17 62.305C295.565 62.1534 294.908 62.1369 294.199 62.2554C293.49 62.374 292.881 62.6022 292.373 62.94C291.864 63.2779 291.459 63.7025 291.158 64.2138C290.872 64.7227 290.679 65.3051 290.58 65.961C290.494 66.6 290.514 67.2956 290.639 68.0479C290.763 68.7856 290.971 69.4498 291.263 70.0404C291.567 70.6141 291.946 71.1009 292.399 71.5009C292.865 71.884 293.4 72.1514 294.005 72.3029C294.608 72.44 295.271 72.4481 295.995 72.3272C297.094 72.1433 297.975 71.7208 298.638 71.0598C299.315 70.3964 299.655 69.5812 299.656 68.6143L303.215 68.0192C303.278 69.1982 303.066 70.3268 302.577 71.4048C302.1 72.466 301.353 73.3791 300.336 74.144C299.331 74.892 298.069 75.393 296.55 75.6471Z" fill="white"/>
<path d="M314.412 73.1408C313.363 73.2664 312.412 73.2177 311.558 72.995C310.703 72.7576 309.957 72.389 309.321 71.889C308.7 71.3873 308.2 70.7898 307.821 70.0966C307.441 69.3887 307.202 68.6271 307.105 67.8115L307.045 67.3091C306.945 66.4791 306.997 65.6752 307.199 64.8977C307.414 64.1038 307.772 63.3889 308.272 62.753C308.786 62.1153 309.432 61.5875 310.209 61.1695C310.985 60.7369 311.875 60.4605 312.88 60.3402C313.914 60.2165 314.851 60.2741 315.692 60.5132C316.546 60.7359 317.291 61.0973 317.927 61.5973C318.563 62.0972 319.079 62.7075 319.476 63.4282C319.87 64.1343 320.117 64.9024 320.217 65.7324L320.277 66.2349C320.374 67.0504 320.322 67.8469 320.12 68.6245C319.916 69.3875 319.564 70.0869 319.064 70.7229C318.578 71.357 317.948 71.8904 317.172 72.323C316.395 72.741 315.475 73.0136 314.412 73.1408ZM314.059 70.1919C314.743 70.11 315.294 69.8964 315.711 69.5511C316.127 69.2058 316.421 68.7571 316.591 68.2049C316.776 67.651 316.83 67.0537 316.753 66.4129C316.671 65.7285 316.476 65.1462 316.167 64.6662C315.857 64.1715 315.45 63.7992 314.948 63.5492C314.46 63.2974 313.888 63.2107 313.233 63.2892C312.592 63.3659 312.057 63.585 311.628 63.9466C311.198 64.3082 310.891 64.766 310.706 65.3199C310.534 65.8574 310.489 66.4685 310.571 67.1529C310.648 67.7937 310.834 68.3622 311.13 68.8586C311.426 69.355 311.824 69.7209 312.325 69.9564C312.826 70.1918 313.404 70.2703 314.059 70.1919Z" fill="white"/>
<path d="M325.589 71.5431L324.676 59.5218L327.462 59.3102L327.853 64.4653L327.656 64.4803C327.563 63.2518 327.638 62.2165 327.883 61.3742C328.143 60.5307 328.579 59.8799 329.191 59.4215C329.804 58.9631 330.57 58.699 331.492 58.629L331.645 58.6173C333.049 58.5107 334.152 58.8902 334.953 59.756C335.768 60.6061 336.246 61.9598 336.387 63.8171L336.908 70.6833L333.398 70.9499L332.862 63.8863C332.813 63.2428 332.583 62.7308 332.172 62.3502C331.76 61.9696 331.233 61.8037 330.589 61.8526C329.931 61.9026 329.414 62.1552 329.036 62.6104C328.672 63.0499 328.516 63.606 328.567 64.2787L329.099 71.2765L325.589 71.5431Z" fill="white"/>
<path d="M345.052 70.3291L341.042 58.401L344.67 58.2792L348.46 70.2147L345.052 70.3291ZM346.152 70.2922L346.053 67.3678L349.593 67.2489L349.692 70.1733L346.152 70.2922ZM347.449 70.2486L349.969 58.1012L353.355 57.9875L350.637 70.1415L347.449 70.2486Z" fill="white"/>
<path d="M364.539 70.4714C363.513 70.4636 362.605 70.2808 361.815 69.9228C361.041 69.5649 360.392 69.0906 359.868 68.5C359.359 67.8947 358.968 67.2244 358.695 66.489C358.437 65.739 358.311 64.9754 358.317 64.1981L358.32 63.7581C358.326 62.9514 358.464 62.1825 358.733 61.4511C359.018 60.7053 359.419 60.041 359.937 59.4582C360.454 58.8755 361.096 58.4183 361.861 58.0868C362.641 57.7407 363.522 57.5713 364.505 57.5788C365.796 57.5886 366.879 57.8901 367.754 58.4835C368.644 59.0622 369.321 59.8227 369.783 60.7649C370.245 61.6924 370.472 62.7062 370.464 63.8061L370.455 64.9941L359.785 64.9132L359.8 62.9113L368.336 62.976L367.185 63.8913C367.191 63.1726 367.093 62.5559 366.891 62.041C366.69 61.5261 366.385 61.1351 365.976 60.868C365.582 60.5864 365.085 60.4433 364.483 60.4387C363.867 60.434 363.346 60.5694 362.918 60.8449C362.491 61.1203 362.165 61.5285 361.941 62.0695C361.717 62.5958 361.602 63.2476 361.596 64.0249C361.59 64.7436 361.688 65.375 361.89 65.9192C362.091 66.4487 362.41 66.8618 362.848 67.1585C363.286 67.4552 363.857 67.6062 364.561 67.6115C365.206 67.6164 365.735 67.4957 366.148 67.2495C366.56 67.0033 366.841 66.6974 366.991 66.3319L370.225 66.3564C370.042 67.1617 369.692 67.8777 369.174 68.5045C368.656 69.1313 368.007 69.6177 367.227 69.9638C366.447 70.3099 365.551 70.4791 364.539 70.4714Z" fill="white"/>
<path d="M375.342 70.3035L375.877 58.2594L378.668 58.3834L378.439 63.5483L378.373 63.5454C378.448 61.8457 378.865 60.5503 379.624 59.6591C380.398 58.7686 381.473 58.3539 382.851 58.4151L383.312 58.4356L383.178 61.4686L382.298 61.4296C381.331 61.3866 380.572 61.6171 380.021 62.1212C379.471 62.6106 379.174 63.3461 379.131 64.3278L378.858 70.4598L375.342 70.3035Z" fill="white"/>
<path d="M392.713 71.7222C391.003 71.5848 389.693 71.1265 388.785 70.3473C387.876 69.568 387.444 68.5401 387.487 67.2635L390.601 67.5136C390.629 67.8984 390.828 68.2602 391.198 68.5989C391.584 68.9242 392.179 69.1191 392.983 69.1837C393.597 69.233 394.11 69.1712 394.521 68.9982C394.948 68.8118 395.177 68.5212 395.209 68.1265C395.237 67.7756 395.106 67.4855 394.815 67.2562C394.526 67.0122 393.99 66.8147 393.208 66.6635L392.272 66.5001C390.836 66.2377 389.779 65.7481 389.101 65.0315C388.438 64.3161 388.147 63.4467 388.229 62.4234C388.297 61.5754 388.566 60.8834 389.036 60.3473C389.506 59.8112 390.125 59.4269 390.894 59.1944C391.678 58.963 392.552 58.8861 393.517 58.9636C395.067 59.0881 396.289 59.532 397.184 60.2955C398.081 61.0443 398.499 62.0637 398.44 63.3538L395.326 63.1037C395.299 62.7042 395.121 62.3589 394.791 62.0675C394.462 61.7616 393.954 61.581 393.267 61.5258C392.726 61.4824 392.287 61.5501 391.949 61.7289C391.611 61.9078 391.428 62.1726 391.399 62.5235C391.372 62.8597 391.491 63.1267 391.754 63.3245C392.018 63.5222 392.461 63.6829 393.084 63.8065L394.02 63.9699C395.484 64.2493 396.598 64.7509 397.364 65.4745C398.13 66.1981 398.468 67.1155 398.379 68.2266C398.315 69.0307 398.039 69.7148 397.552 70.279C397.067 70.8285 396.409 71.2318 395.579 71.4889C394.75 71.7313 393.795 71.8091 392.713 71.7222Z" fill="white"/>
<path d="M404.156 72.447L405.524 60.4688L409.021 60.8683L407.653 72.8464L404.156 72.447ZM403.633 62.8658L403.928 60.2866L409.021 60.8683L408.726 63.4475L403.633 62.8658ZM407.014 59.4433C406.358 59.3684 405.889 59.1451 405.606 58.7733C405.34 58.3886 405.237 57.934 405.297 57.4094C405.359 56.8702 405.562 56.4505 405.906 56.1503C406.267 55.8372 406.775 55.7181 407.43 55.793C408.086 55.8679 408.547 56.0977 408.813 56.4824C409.095 56.8541 409.206 57.3096 409.144 57.8488C409.084 58.3733 408.874 58.7922 408.514 59.1053C408.169 59.4055 407.669 59.5182 407.014 59.4433Z" fill="white"/>
<path d="M420.379 75.0098C419.335 74.8526 418.43 74.5533 417.666 74.1119C416.904 73.656 416.283 73.1027 415.803 72.4519C415.337 71.8033 415.013 71.0946 414.832 70.3257C414.654 69.5424 414.626 68.7446 414.748 67.9325L414.823 67.4321C414.948 66.6054 415.211 65.8441 415.612 65.1481C416.03 64.4398 416.565 63.8454 417.215 63.365C417.881 62.8867 418.644 62.5492 419.504 62.3524C420.366 62.1411 421.298 62.1108 422.298 62.2615C423.328 62.4166 424.217 62.721 424.964 63.1747C425.728 63.616 426.351 64.1621 426.831 64.8129C427.312 65.4637 427.647 66.1891 427.838 66.9891C428.031 67.7747 428.066 68.5808 427.941 69.4074L427.866 69.9078C427.744 70.72 427.482 71.4741 427.08 72.17C426.681 72.8515 426.156 73.4325 425.505 73.9129C424.869 74.3956 424.12 74.7425 423.257 74.9538C422.397 75.1506 421.438 75.1692 420.379 75.0098ZM420.821 72.0729C421.503 72.1756 422.09 72.1157 422.583 71.8933C423.077 71.671 423.479 71.3162 423.789 70.829C424.115 70.3441 424.325 69.7825 424.421 69.1444C424.524 68.4627 424.49 67.8495 424.32 67.3048C424.152 66.7455 423.859 66.2787 423.441 65.9042C423.037 65.532 422.509 65.2967 421.856 65.1984C421.218 65.1023 420.644 65.1716 420.134 65.4063C419.624 65.641 419.207 66.0008 418.881 66.4858C418.573 66.9585 418.367 67.5356 418.265 68.2173C418.169 68.8554 418.197 69.453 418.351 70.0101C418.504 70.5671 418.791 71.0256 419.211 71.3856C419.632 71.7455 420.168 71.9747 420.821 72.0729Z" fill="white"/>
<path d="M431.58 76.4358L433.89 64.6031L436.632 65.1384L435.641 70.2126L435.447 70.1747C435.683 68.9655 436.031 67.9874 436.49 67.2403C436.965 66.496 437.558 65.9841 438.27 65.7047C438.982 65.4253 439.791 65.3741 440.698 65.5511L440.849 65.5806C442.231 65.8503 443.193 66.5089 443.736 67.5563C444.296 68.5921 444.398 70.0241 444.041 71.8522L442.721 78.6107L439.267 77.9363L440.624 70.9835C440.748 70.3501 440.662 69.7954 440.366 69.3193C440.07 68.8431 439.606 68.5433 438.973 68.4196C438.325 68.2932 437.759 68.3993 437.274 68.7381C436.807 69.0653 436.508 69.56 436.379 70.2222L435.035 77.1102L431.58 76.4358Z" fill="white"/>
<path d="M456.929 81.9125L461.09 66.2644L464.577 67.1917L460.415 82.8398L456.929 81.9125ZM466.347 84.4174L463.573 76.5314L467.4 77.5492L470.387 85.4917L466.347 84.4174ZM460.803 77.616L461.533 74.8733L465.359 75.8911C465.87 76.0268 466.336 76.0444 466.757 75.944C467.196 75.8331 467.564 75.6198 467.86 75.3041C468.175 74.9779 468.398 74.5668 468.53 74.0707C468.662 73.5746 468.67 73.1141 468.556 72.689C468.459 72.2535 468.246 71.8857 467.916 71.5855C467.604 71.2748 467.193 71.0517 466.683 70.916L462.856 69.8982L463.642 66.9429L467.192 67.8872C468.482 68.2302 469.549 68.7265 470.393 69.3759C471.241 70.0111 471.818 70.7793 472.125 71.6804C472.432 72.5815 472.43 73.6132 472.121 74.7755L472.031 75.1156C471.726 76.2637 471.209 77.1507 470.481 77.7767C469.771 78.3922 468.89 78.765 467.839 78.8951C466.805 79.0149 465.644 78.9032 464.354 78.5602L460.803 77.616Z" fill="white"/>
<path d="M481.893 89.0851L482.961 85.6848L482.395 85.5068L483.555 81.8128C483.739 81.2251 483.738 80.7404 483.55 80.3586C483.363 79.9769 482.961 79.6893 482.346 79.4959C482.038 79.3992 481.63 79.2788 481.122 79.1345C480.613 78.9903 480.089 78.8487 479.549 78.7097C479.008 78.5707 478.517 78.447 478.074 78.3388L478.964 75.5052C479.295 75.5783 479.681 75.669 480.124 75.7773C480.566 75.8855 481.021 76.0052 481.487 76.1362C481.953 76.2673 482.389 76.3965 482.795 76.524C483.97 76.8931 484.904 77.3709 485.596 77.9572C486.302 78.548 486.757 79.2521 486.962 80.0696C487.171 80.8731 487.108 81.8065 486.774 82.87L484.559 89.9223L481.893 89.0851ZM478.128 88.2252C477.302 87.9659 476.621 87.5905 476.084 87.0988C475.56 86.6116 475.209 86.0402 475.031 85.3846C474.857 84.715 474.891 83.9955 475.132 83.2259C475.396 82.3863 475.828 81.7688 476.429 81.3733C477.034 80.9638 477.768 80.7562 478.631 80.7505C479.498 80.7307 480.442 80.8813 481.464 81.2021L483.919 81.9734L483.333 83.8414L480.856 83.0635C480.268 82.8789 479.767 82.883 479.353 83.0758C478.958 83.2589 478.683 83.5954 478.529 84.0851C478.384 84.5469 478.419 84.9731 478.635 85.3636C478.869 85.7445 479.28 86.0273 479.867 86.2119C480.245 86.3305 480.601 86.3731 480.934 86.3394C481.286 86.2962 481.61 86.1444 481.907 85.8841C482.204 85.6238 482.457 85.2112 482.665 84.6463L483.199 85.7364C482.878 86.512 482.471 87.1221 481.978 87.5667C481.499 88.0157 480.933 88.2993 480.281 88.4173C479.643 88.5398 478.926 88.4757 478.128 88.2252Z" fill="white"/>
<path d="M495.576 93.932C494.429 93.5247 493.552 93.0577 492.945 92.531C492.343 91.9905 491.994 91.3296 491.898 90.5484C491.821 89.7583 491.986 88.7897 492.393 87.6425L495.941 77.6496L499.03 78.7463L495.438 88.8636C495.247 89.4027 495.238 89.8664 495.411 90.2548C495.603 90.6342 495.962 90.9172 496.487 91.1037L498.166 91.6999L497.173 94.4987L495.576 93.932ZM492.27 82.5327L493.131 80.107L501.258 82.9924L500.396 85.4181L492.27 82.5327Z" fill="white"/>
<path d="M507.521 98.7799C506.567 98.401 505.787 97.9018 505.181 97.2824C504.588 96.6684 504.155 95.9913 503.881 95.2512C503.626 94.5029 503.504 93.7365 503.515 92.9521C503.546 92.1594 503.705 91.4019 503.992 90.6794L504.154 90.2705C504.452 89.5208 504.859 88.8538 505.375 88.2697C505.91 87.6773 506.524 87.2032 507.218 86.8474C507.911 86.4916 508.675 86.2977 509.508 86.2656C510.36 86.2253 511.243 86.3865 512.156 86.7492C513.356 87.2255 514.257 87.8986 514.858 88.7686C515.478 89.6304 515.833 90.5841 515.923 91.6297C516.018 92.6617 515.863 93.6889 515.457 94.7113L515.019 95.8154L505.102 91.8777L505.841 90.017L513.774 93.1672L512.37 93.6038C512.635 92.9358 512.767 92.3254 512.766 91.7725C512.764 91.2197 512.621 90.7448 512.337 90.3479C512.072 89.9427 511.66 89.6292 511.101 89.4073C510.529 89.1799 509.993 89.1173 509.495 89.2193C508.997 89.3214 508.545 89.584 508.141 90.0071C507.741 90.4167 507.398 90.9827 507.111 91.7051C506.846 92.3731 506.709 92.9971 506.699 93.5772C506.695 94.1438 506.844 94.6445 507.144 95.0795C507.445 95.5145 507.923 95.8619 508.577 96.1217C509.177 96.3599 509.713 96.4389 510.187 96.3587C510.661 96.2785 511.034 96.0951 511.305 95.8084L514.311 97.0019C513.85 97.6867 513.264 98.2274 512.554 98.6241C511.844 99.0209 511.063 99.2394 510.211 99.2796C509.359 99.3199 508.462 99.1533 507.521 98.7799Z" fill="white"/>
<path d="M521.674 104.717C520.106 104.021 519.022 103.154 518.423 102.118C517.824 101.082 517.757 99.9684 518.222 98.7784L521.077 100.047C520.975 100.419 521.043 100.826 521.28 101.269C521.536 101.703 522.033 102.084 522.77 102.412C523.333 102.662 523.837 102.774 524.283 102.747C524.747 102.712 525.06 102.514 525.221 102.152C525.364 101.831 525.336 101.514 525.138 101.201C524.946 100.875 524.506 100.511 523.817 100.109L522.989 99.6443C521.721 98.9208 520.886 98.1086 520.484 97.2077C520.095 96.3128 520.109 95.3962 520.526 94.4579C520.872 93.6805 521.355 93.1168 521.976 92.7667C522.597 92.4167 523.308 92.2594 524.111 92.295C524.927 92.3366 525.777 92.5539 526.662 92.9468C528.083 93.578 529.089 94.4021 529.68 95.4191C530.278 96.4227 530.334 97.5232 529.851 98.7206L526.996 97.4523C527.103 97.0666 527.049 96.6816 526.835 96.2975C526.626 95.8999 526.207 95.5612 525.577 95.2813C525.081 95.061 524.644 94.9792 524.266 95.0358C523.887 95.0925 523.627 95.2817 523.484 95.6033C523.347 95.9116 523.37 96.2027 523.553 96.4767C523.736 96.7507 524.101 97.0492 524.648 97.3723L525.477 97.8368C526.765 98.5856 527.65 99.4283 528.133 100.365C528.616 101.302 528.631 102.279 528.178 103.298C527.851 104.035 527.364 104.589 526.718 104.96C526.077 105.318 525.323 105.48 524.455 105.447C523.593 105.401 522.666 105.158 521.674 104.717Z" fill="white"/>
<path d="M338 129.569L353.5 445H367L381.5 129.569H402L360 79L319 129.569H338Z" fill="url(#paint0_linear_2445_5693)"/>
<path d="M307.443 190.911L307.003 178.578L310.471 177.255L318.46 186.709L316.278 187.542L309.425 179.316L310.312 179.354L308.444 180.066L309.096 179.441L309.565 190.102L307.443 190.911ZM308.938 187.019L308.926 184.968L313.351 183.281L314.693 184.824L308.938 187.019Z" fill="white"/>
<path d="M320.012 187.409L319.402 173.585L321.536 172.96L322.146 186.785L320.012 187.409Z" fill="white"/>
<path d="M330.954 183.62L330.578 181.835L333.443 181.232C333.965 181.122 334.332 180.898 334.544 180.559C334.754 180.209 334.806 179.784 334.701 179.283C334.596 178.782 334.379 178.424 334.05 178.21C333.719 177.985 333.293 177.928 332.771 178.038L329.906 178.641L329.619 177.279L332.328 176.709C333.09 176.548 333.788 176.499 334.423 176.562C335.065 176.612 335.599 176.816 336.023 177.173C336.457 177.529 336.75 178.067 336.902 178.787L336.948 179.006C337.091 179.685 337.062 180.296 336.86 180.84C336.667 181.371 336.3 181.83 335.76 182.216C335.228 182.589 334.529 182.867 333.663 183.05L330.954 183.62ZM329.091 184.012L326.652 172.426L328.828 171.968L331.267 183.554L329.091 184.012ZM329.83 178.281L329.543 176.919L331.986 176.404C332.518 176.292 332.88 176.069 333.071 175.735C333.262 175.4 333.309 174.998 333.21 174.528C333.111 174.058 332.907 173.709 332.597 173.48C332.287 173.251 331.866 173.192 331.333 173.304L328.891 173.818L328.515 172.034L330.754 171.562C332.049 171.29 333.087 171.355 333.869 171.757C334.662 172.157 335.165 172.863 335.378 173.876L335.424 174.095C335.573 174.805 335.521 175.41 335.266 175.91C335.02 176.398 334.62 176.798 334.064 177.112C333.507 177.414 332.842 177.647 332.069 177.809L329.83 178.281Z" fill="white"/>
<path d="M349.854 180.784L349.11 170.812L351.375 170.643L352.119 180.615L349.854 180.784ZM345.767 171.382L345.618 169.388L354.617 168.717L354.766 170.711L345.767 171.382Z" fill="white"/>
<path d="M362.042 180.725C361.296 180.721 360.64 180.589 360.076 180.33C359.523 180.071 359.061 179.728 358.69 179.299C358.329 178.86 358.055 178.373 357.865 177.838C357.687 177.304 357.599 176.76 357.602 176.205L357.604 175.901C357.607 175.325 357.7 174.771 357.885 174.239C358.08 173.696 358.359 173.217 358.724 172.803C359.1 172.378 359.56 172.045 360.106 171.802C360.651 171.549 361.281 171.425 361.996 171.428C362.934 171.433 363.717 171.646 364.344 172.065C364.982 172.474 365.459 173.015 365.776 173.689C366.092 174.352 366.248 175.067 366.244 175.835L366.24 176.635L358.544 176.594L358.551 175.234L364.855 175.268L364.164 175.936C364.167 175.381 364.089 174.906 363.931 174.511C363.773 174.115 363.53 173.81 363.2 173.595C362.881 173.38 362.477 173.271 361.986 173.268C361.495 173.266 361.079 173.376 360.736 173.598C360.394 173.82 360.131 174.144 359.947 174.57C359.774 174.985 359.686 175.485 359.683 176.072C359.68 176.616 359.763 177.102 359.931 177.529C360.1 177.946 360.359 178.278 360.71 178.526C361.061 178.762 361.508 178.882 362.052 178.885C362.596 178.888 363.039 178.783 363.382 178.572C363.724 178.35 363.944 178.079 364.042 177.759L366.09 177.77C365.959 178.367 365.711 178.888 365.346 179.334C364.981 179.78 364.515 180.125 363.948 180.367C363.392 180.609 362.757 180.729 362.042 180.725Z" fill="white"/>
<path d="M372.074 181.23C370.884 181.131 369.969 180.804 369.33 180.248C368.702 179.683 368.41 178.952 368.451 178.057L370.445 178.221C370.452 178.522 370.594 178.806 370.872 179.075C371.149 179.345 371.607 179.505 372.245 179.558C372.776 179.602 373.204 179.541 373.528 179.375C373.863 179.21 374.044 178.963 374.071 178.633C374.095 178.346 373.991 178.108 373.761 177.917C373.541 177.728 373.146 177.583 372.577 177.482L371.818 177.339C370.859 177.153 370.138 176.815 369.654 176.326C369.17 175.836 368.959 175.219 369.02 174.475C369.07 173.88 369.26 173.393 369.591 173.013C369.922 172.634 370.356 172.365 370.894 172.206C371.443 172.037 372.057 171.981 372.738 172.037C373.801 172.125 374.643 172.43 375.263 172.952C375.883 173.474 376.172 174.189 376.129 175.095L374.136 174.93C374.14 174.631 374.012 174.363 373.753 174.128C373.494 173.892 373.104 173.753 372.583 173.71C372.116 173.672 371.747 173.732 371.477 173.892C371.207 174.051 371.06 174.275 371.036 174.562C371.013 174.838 371.097 175.059 371.286 175.224C371.487 175.391 371.818 175.52 372.282 175.612L373.041 175.755C374.052 175.945 374.826 176.293 375.363 176.798C375.91 177.303 376.151 177.944 376.087 178.72C376.039 179.294 375.839 179.78 375.485 180.179C375.142 180.568 374.679 180.856 374.097 181.044C373.514 181.231 372.84 181.293 372.074 181.23Z" fill="white"/>
<path d="M382.711 182.441C381.92 182.32 381.282 182.12 380.795 181.841C380.322 181.553 379.995 181.147 379.816 180.623C379.639 180.089 379.614 179.405 379.741 178.572L380.946 170.793L383.002 171.107L381.775 179.029C381.711 179.45 381.772 179.794 381.958 180.06C382.156 180.317 382.466 180.478 382.888 180.542L384.232 180.747L383.944 182.629L382.711 182.441ZM378.953 174.616L379.2 173.003L385.273 173.93L385.027 175.544L378.953 174.616Z" fill="white"/>
<path d="M387.915 183.345L389.75 174.853L391.924 175.322L390.089 183.814L387.915 183.345ZM388.21 176.222L388.561 174.596L391.924 175.322L391.572 176.949L388.21 176.222ZM390.767 174.008C390.339 173.916 390.045 173.738 389.884 173.474C389.735 173.202 389.697 172.899 389.769 172.565C389.846 172.211 390.007 171.945 390.252 171.769C390.508 171.595 390.85 171.554 391.277 171.647C391.705 171.739 391.994 171.916 392.144 172.178C392.295 172.44 392.332 172.748 392.256 173.102C392.184 173.436 392.024 173.696 391.776 173.883C391.531 174.059 391.194 174.101 390.767 174.008Z" fill="white"/>
<path d="M395.152 185.057L397.591 176.719L399.28 177.213L398.234 180.791L398.08 180.746C398.329 179.896 398.648 179.223 399.038 178.726C399.431 178.218 399.889 177.885 400.413 177.728C400.948 177.573 401.547 177.593 402.213 177.787L402.305 177.814C403.298 178.105 403.956 178.647 404.279 179.442C404.606 180.226 404.583 181.253 404.212 182.523L402.815 187.299L400.68 186.674L402.131 181.714C402.281 181.202 402.254 180.744 402.05 180.34C401.856 179.939 401.503 179.663 400.991 179.514C400.469 179.361 399.996 179.4 399.573 179.632C399.163 179.857 398.878 180.24 398.719 180.783L397.286 185.682L395.152 185.057Z" fill="white"/>
<path d="M408.053 192.946C407.665 192.796 407.273 192.627 406.877 192.439C406.491 192.255 406.133 192.071 405.804 191.886L406.475 190.155C406.818 190.334 407.187 190.517 407.583 190.705C407.976 190.903 408.351 191.071 408.709 191.21C409.375 191.468 409.943 191.596 410.413 191.595C410.892 191.598 411.294 191.462 411.618 191.187C411.947 190.926 412.215 190.532 412.419 190.005L413.037 188.408L413.878 187.567C413.559 188.302 413.158 188.879 412.676 189.298C412.197 189.707 411.665 189.958 411.079 190.052C410.498 190.136 409.894 190.056 409.267 189.813C408.71 189.597 408.243 189.296 407.867 188.91C407.5 188.528 407.224 188.089 407.038 187.594C406.863 187.103 406.782 186.574 406.795 186.007C406.809 185.44 406.926 184.873 407.146 184.306L407.267 183.993C407.487 183.426 407.78 182.934 408.148 182.516C408.53 182.092 408.961 181.761 409.442 181.524C409.923 181.287 410.435 181.16 410.98 181.142C411.524 181.124 412.08 181.225 412.647 181.445C413.313 181.703 413.834 182.071 414.21 182.548C414.596 183.029 414.822 183.597 414.888 184.252C414.955 184.907 414.849 185.638 414.57 186.446L414.189 186.367L415.548 182.861L417.189 183.497L414.42 190.643C414.038 191.627 413.561 192.358 412.987 192.833C412.414 193.309 411.72 193.549 410.906 193.554C410.098 193.573 409.147 193.37 408.053 192.946ZM410.552 188.269C410.95 188.423 411.347 188.474 411.745 188.422C412.143 188.371 412.506 188.214 412.836 187.953C413.166 187.692 413.424 187.323 413.609 186.845L413.811 186.323C413.988 185.866 414.034 185.437 413.949 185.038C413.873 184.643 413.702 184.302 413.436 184.016C413.173 183.719 412.848 183.496 412.46 183.346C412.022 183.176 411.594 183.13 411.175 183.208C410.769 183.28 410.401 183.463 410.069 183.758C409.738 184.053 409.474 184.454 409.277 184.961C409.084 185.458 409.011 185.927 409.058 186.369C409.104 186.81 409.253 187.194 409.504 187.52C409.765 187.85 410.114 188.099 410.552 188.269Z" fill="white"/>
<path d="M271.589 284.307L270.98 282.285L273.294 281.589C273.876 281.414 274.366 281.172 274.763 280.863C275.167 280.541 275.479 280.168 275.697 279.746C275.915 279.324 276.04 278.869 276.071 278.38C276.11 277.879 276.047 277.357 275.884 276.816C275.715 276.254 275.478 275.78 275.172 275.393C274.873 274.993 274.518 274.682 274.106 274.46C273.694 274.239 273.234 274.116 272.725 274.091C272.226 274.062 271.686 274.136 271.104 274.311L268.79 275.007L268.182 272.985L270.357 272.33C271.369 272.026 272.297 271.908 273.142 271.977C273.987 272.046 274.738 272.265 275.395 272.636C276.049 272.996 276.599 273.471 277.044 274.061C277.496 274.638 277.828 275.279 278.04 275.983L278.141 276.32C278.344 276.995 278.416 277.697 278.358 278.428C278.309 279.155 278.115 279.86 277.774 280.541C277.433 281.223 276.933 281.836 276.272 282.38C275.612 282.924 274.776 283.348 273.765 283.653L271.589 284.307ZM269.72 284.87L266.313 273.547L268.488 272.893L271.895 284.215L269.72 284.87Z" fill="white"/>
<path d="M285.767 280.594C285.044 280.781 284.377 280.821 283.766 280.715C283.164 280.606 282.63 280.392 282.161 280.073C281.701 279.74 281.311 279.34 280.991 278.872C280.682 278.401 280.458 277.897 280.319 277.36L280.243 277.065C280.098 276.508 280.047 275.948 280.089 275.386C280.139 274.812 280.287 274.277 280.534 273.784C280.788 273.277 281.148 272.837 281.613 272.463C282.076 272.079 282.653 271.797 283.345 271.618C284.254 271.383 285.065 271.388 285.778 271.633C286.499 271.865 287.099 272.266 287.577 272.837C288.053 273.397 288.387 274.049 288.579 274.792L288.78 275.567L281.329 277.495L280.988 276.178L287.091 274.599L286.593 275.422C286.454 274.885 286.258 274.445 286.004 274.103C285.751 273.761 285.437 273.528 285.063 273.405C284.7 273.278 284.281 273.277 283.806 273.4C283.331 273.523 282.956 273.735 282.682 274.038C282.408 274.34 282.236 274.72 282.167 275.179C282.106 275.624 282.149 276.131 282.296 276.699C282.433 277.226 282.637 277.674 282.909 278.045C283.179 278.405 283.514 278.659 283.917 278.808C284.316 278.947 284.779 278.949 285.306 278.813C285.833 278.676 286.234 278.462 286.511 278.17C286.786 277.868 286.929 277.549 286.942 277.216L288.925 276.703C288.95 277.313 288.844 277.88 288.605 278.405C288.366 278.929 288.004 279.381 287.518 279.76C287.043 280.137 286.459 280.415 285.767 280.594Z" fill="white"/>
<path d="M294.053 278.309L289.521 270.414L291.755 269.92L296.178 277.839L294.053 278.309ZM294.694 278.168L294.3 276.387L296.596 275.879L296.99 277.66L294.694 278.168ZM295.553 277.978L295.863 269.011L297.957 268.548L297.537 277.539L295.553 277.978Z" fill="white"/>
<path d="M306.736 276.065C306.002 276.2 305.333 276.193 304.731 276.044C304.139 275.892 303.621 275.641 303.176 275.289C302.74 274.924 302.38 274.497 302.094 274.008C301.819 273.516 301.631 272.998 301.531 272.452L301.476 272.153C301.371 271.587 301.36 271.025 301.442 270.467C301.532 269.898 301.718 269.375 301.999 268.9C302.289 268.413 302.679 268 303.17 267.66C303.658 267.309 304.254 267.069 304.957 266.94C305.88 266.77 306.689 266.832 307.383 267.127C308.086 267.41 308.655 267.853 309.092 268.456C309.526 269.048 309.813 269.722 309.952 270.477L310.097 271.264L302.529 272.659L302.282 271.321L308.482 270.179L307.927 270.964C307.827 270.419 307.662 269.966 307.433 269.607C307.204 269.248 306.908 268.994 306.544 268.844C306.191 268.692 305.773 268.66 305.29 268.749C304.808 268.838 304.419 269.024 304.124 269.306C303.829 269.588 303.631 269.956 303.53 270.408C303.437 270.848 303.444 271.357 303.55 271.933C303.649 272.468 303.821 272.93 304.066 273.319C304.309 273.697 304.626 273.975 305.017 274.152C305.406 274.319 305.867 274.354 306.402 274.255C306.937 274.156 307.353 273.971 307.65 273.7C307.946 273.417 308.111 273.11 308.148 272.778L310.162 272.407C310.144 273.018 309.998 273.576 309.722 274.082C309.447 274.589 309.053 275.014 308.542 275.358C308.041 275.699 307.439 275.935 306.736 276.065Z" fill="white"/>
<path d="M313.577 274.616L311.8 263.072L313.999 262.733L315.775 274.278L313.577 274.616ZM310.978 264.882L310.725 263.237L313.999 262.733L314.252 264.378L310.978 264.882Z" fill="white"/>
<path d="M324.699 273.402C323.937 273.495 323.25 273.456 322.638 273.284C322.026 273.112 321.493 272.844 321.04 272.48C320.586 272.106 320.221 271.667 319.944 271.164C319.678 270.659 319.51 270.121 319.44 269.549L319.399 269.215C319.326 268.623 319.364 268.048 319.51 267.493C319.667 266.926 319.921 266.411 320.272 265.949C320.633 265.475 321.091 265.086 321.645 264.782C322.197 264.467 322.839 264.264 323.569 264.175C324.3 264.086 324.971 264.127 325.583 264.299C326.194 264.461 326.727 264.729 327.181 265.103C327.644 265.465 328.015 265.903 328.293 266.417C328.569 266.921 328.744 267.469 328.817 268.062L328.858 268.395C328.928 268.967 328.889 269.531 328.742 270.086C328.606 270.64 328.363 271.153 328.012 271.626C327.66 272.088 327.208 272.477 326.656 272.792C326.103 273.106 325.451 273.31 324.699 273.402ZM324.468 271.512C325.008 271.446 325.449 271.274 325.791 270.995C326.132 270.707 326.373 270.349 326.514 269.924C326.654 269.487 326.692 269.01 326.629 268.491C326.564 267.962 326.406 267.508 326.156 267.13C325.915 266.741 325.589 266.453 325.179 266.267C324.779 266.069 324.319 266.001 323.801 266.065C323.282 266.128 322.847 266.305 322.495 266.596C322.153 266.874 321.907 267.232 321.757 267.669C321.605 268.096 321.561 268.574 321.626 269.104C321.69 269.623 321.842 270.077 322.083 270.466C322.334 270.844 322.659 271.132 323.059 271.33C323.458 271.518 323.928 271.578 324.468 271.512Z" fill="white"/>
<path d="M332.159 275.514L331.175 263.667L332.929 263.521L333.239 267.252L332.966 267.259C332.936 266.373 333.055 265.619 333.325 264.997C333.605 264.375 334.004 263.897 334.522 263.565C335.04 263.223 335.633 263.024 336.303 262.968C336.919 262.917 337.481 262.983 337.989 263.165C338.507 263.347 338.958 263.625 339.343 264C339.738 264.374 340.053 264.824 340.29 265.35C340.525 265.866 340.668 266.432 340.72 267.049L340.747 267.383C340.799 268.011 340.752 268.603 340.606 269.161C340.469 269.708 340.238 270.203 339.911 270.648C339.593 271.081 339.195 271.435 338.714 271.71C338.233 271.975 337.685 272.133 337.068 272.184C336.42 272.238 335.813 272.155 335.249 271.934C334.695 271.702 334.229 271.318 333.853 270.782C333.476 270.235 333.228 269.512 333.111 268.611L333.901 269.622L334.375 275.33L332.159 275.514ZM336.355 270.365C336.833 270.325 337.238 270.174 337.57 269.911C337.912 269.647 338.166 269.3 338.334 268.868C338.501 268.426 338.562 267.939 338.518 267.408C338.472 266.855 338.331 266.385 338.096 265.998C337.86 265.611 337.552 265.321 337.172 265.127C336.802 264.923 336.378 264.84 335.9 264.88C335.464 264.916 335.068 265.045 334.712 265.268C334.366 265.489 334.092 265.795 333.889 266.187C333.697 266.577 333.622 267.033 333.665 267.554L333.718 268.192C333.76 268.691 333.912 269.107 334.175 269.438C334.438 269.77 334.763 270.016 335.151 270.176C335.539 270.336 335.94 270.399 336.355 270.365Z" fill="white"/>
<path d="M355.908 271.356C354.853 271.378 353.942 271.209 353.178 270.851C352.413 270.493 351.785 270.02 351.293 269.433C350.812 268.845 350.452 268.202 350.214 267.502C349.976 266.803 349.85 266.128 349.837 265.477L349.83 265.125C349.815 264.4 349.913 263.684 350.123 262.975C350.343 262.267 350.688 261.62 351.156 261.034C351.624 260.448 352.223 259.978 352.952 259.622C353.691 259.255 354.568 259.061 355.581 259.041C356.636 259.019 357.557 259.193 358.344 259.561C359.14 259.918 359.78 260.439 360.263 261.123C360.746 261.796 361.045 262.59 361.16 263.505L358.872 263.551C358.776 263.02 358.575 262.576 358.269 262.219C357.974 261.852 357.6 261.582 357.149 261.41C356.697 261.227 356.188 261.141 355.623 261.152C355.047 261.164 354.537 261.275 354.094 261.487C353.65 261.688 353.282 261.973 352.991 262.341C352.699 262.71 352.479 263.141 352.328 263.635C352.189 264.128 352.125 264.674 352.137 265.271C352.149 265.847 352.234 266.379 352.393 266.866C352.563 267.354 352.807 267.781 353.123 268.148C353.44 268.504 353.824 268.779 354.276 268.973C354.739 269.166 355.269 269.257 355.866 269.245C356.74 269.227 357.472 268.999 358.061 268.561C358.66 268.111 359.015 267.496 359.128 266.715L361.415 266.669C361.325 267.503 361.058 268.271 360.613 268.973C360.169 269.676 359.551 270.243 358.759 270.675C357.968 271.107 357.018 271.334 355.908 271.356Z" fill="white"/>
<path d="M367.529 271.425C366.762 271.41 366.087 271.273 365.505 271.016C364.924 270.759 364.434 270.419 364.038 269.994C363.641 269.56 363.341 269.074 363.139 268.536C362.947 267.999 362.857 267.442 362.868 266.866L362.875 266.53C362.887 265.933 363.005 265.37 363.229 264.841C363.464 264.302 363.788 263.828 364.202 263.42C364.626 263.002 365.134 262.682 365.725 262.459C366.317 262.225 366.981 262.116 367.716 262.131C368.452 262.146 369.111 262.282 369.693 262.539C370.274 262.785 370.764 263.126 371.16 263.56C371.568 263.985 371.873 264.471 372.075 265.019C372.278 265.557 372.373 266.124 372.361 266.721L372.354 267.057C372.343 267.633 372.225 268.185 372.001 268.714C371.788 269.244 371.474 269.717 371.06 270.136C370.646 270.544 370.144 270.864 369.552 271.098C368.961 271.331 368.287 271.44 367.529 271.425ZM367.568 269.521C368.112 269.532 368.573 269.424 368.951 269.197C369.329 268.959 369.618 268.64 369.818 268.238C370.018 267.826 370.124 267.359 370.134 266.836C370.145 266.303 370.053 265.832 369.859 265.423C369.675 265.003 369.394 264.672 369.014 264.429C368.646 264.177 368.201 264.045 367.678 264.034C367.156 264.024 366.7 264.137 366.311 264.375C365.933 264.602 365.639 264.922 365.428 265.333C365.217 265.735 365.106 266.202 365.095 266.735C365.085 267.258 365.171 267.729 365.355 268.149C365.549 268.558 365.831 268.889 366.199 269.142C366.568 269.384 367.024 269.51 367.568 269.521Z" fill="white"/>
<path d="M374.784 271.357L375.339 262.687L377.095 262.799L376.857 266.52L376.697 266.51C376.753 265.637 376.912 264.915 377.173 264.343C377.434 263.762 377.793 263.336 378.249 263.066C378.715 262.785 379.279 262.667 379.939 262.709L380.035 262.715C380.705 262.758 381.249 262.948 381.666 263.284C382.094 263.611 382.395 264.079 382.57 264.689C382.756 265.289 382.821 266.025 382.765 266.898L382.206 266.862C382.262 265.989 382.42 265.267 382.681 264.696C382.954 264.115 383.318 263.689 383.773 263.419C384.24 263.139 384.804 263.02 385.463 263.062L385.559 263.068C386.23 263.111 386.779 263.301 387.206 263.639C387.634 263.965 387.941 264.434 388.126 265.044C388.323 265.645 388.393 266.382 388.338 267.254L388.021 272.204L385.801 272.062L386.131 266.905C386.166 266.362 386.055 265.922 385.799 265.585C385.543 265.237 385.16 265.047 384.649 265.014C384.138 264.982 383.717 265.126 383.387 265.447C383.057 265.757 382.874 266.194 382.838 266.758L382.512 271.852L380.293 271.71L380.623 266.552C380.657 266.009 380.547 265.569 380.29 265.232C380.035 264.885 379.651 264.694 379.14 264.662C378.629 264.629 378.209 264.773 377.878 265.094C377.548 265.404 377.365 265.841 377.329 266.406L377.003 271.499L374.784 271.357Z" fill="white"/>
<path d="M389.451 275.666L390.743 263.848L392.492 264.04L392.085 267.762L391.817 267.716C391.955 266.841 392.216 266.123 392.599 265.564C392.993 265.007 393.476 264.614 394.048 264.387C394.621 264.149 395.241 264.067 395.909 264.14C396.524 264.207 397.064 264.378 397.527 264.654C398.001 264.932 398.391 265.291 398.697 265.732C399.013 266.174 399.238 266.676 399.369 267.238C399.502 267.789 399.535 268.372 399.468 268.987L399.431 269.321C399.363 269.947 399.204 270.519 398.954 271.039C398.716 271.55 398.394 271.992 397.988 272.366C397.594 272.731 397.135 273.003 396.611 273.181C396.088 273.35 395.52 273.4 394.905 273.333C394.258 273.262 393.678 273.065 393.167 272.741C392.667 272.407 392.283 271.941 392.016 271.343C391.75 270.735 391.645 269.977 391.701 269.072L392.284 270.214L391.662 275.908L389.451 275.666ZM394.551 271.411C395.028 271.463 395.455 271.392 395.83 271.197C396.216 271.003 396.533 270.71 396.779 270.319C397.027 269.917 397.18 269.45 397.238 268.92C397.298 268.369 397.25 267.881 397.092 267.456C396.935 267.031 396.688 266.687 396.352 266.425C396.027 266.154 395.627 265.992 395.149 265.94C394.715 265.892 394.301 265.944 393.909 266.094C393.528 266.245 393.2 266.494 392.926 266.84C392.663 267.186 392.503 267.619 392.446 268.139L392.377 268.775C392.322 269.274 392.393 269.711 392.588 270.086C392.783 270.461 393.055 270.765 393.406 270.996C393.756 271.228 394.138 271.366 394.551 271.411Z" fill="white"/>
<path d="M405.695 274.804C404.957 274.695 404.326 274.472 403.805 274.136C403.293 273.802 402.884 273.396 402.577 272.92C402.282 272.434 402.079 271.913 401.967 271.358C401.866 270.804 401.856 270.252 401.937 269.704L401.981 269.403C402.065 268.833 402.236 268.298 402.494 267.796C402.763 267.286 403.108 266.852 403.527 266.494C403.959 266.126 404.462 265.861 405.036 265.698C405.611 265.524 406.253 265.489 406.96 265.594C407.888 265.731 408.633 266.051 409.195 266.555C409.769 267.05 410.165 267.653 410.383 268.364C410.603 269.065 410.657 269.796 410.545 270.555L410.428 271.347L402.814 270.221L403.013 268.876L409.25 269.798L408.471 270.362C408.552 269.813 408.542 269.332 408.441 268.918C408.341 268.504 408.143 268.168 407.847 267.908C407.561 267.651 407.176 267.486 406.691 267.414C406.205 267.342 405.777 267.392 405.407 267.564C405.036 267.736 404.73 268.019 404.489 268.415C404.259 268.801 404.101 269.285 404.015 269.865C403.936 270.403 403.949 270.896 404.056 271.343C404.164 271.78 404.374 272.145 404.686 272.439C405 272.723 405.426 272.904 405.964 272.984C406.503 273.063 406.956 273.022 407.325 272.861C407.695 272.69 407.951 272.453 408.093 272.15L410.119 272.45C409.905 273.022 409.586 273.503 409.162 273.893C408.737 274.283 408.228 274.558 407.633 274.718C407.048 274.88 406.402 274.908 405.695 274.804Z" fill="white"/>
<path d="M412.636 275.644L414.685 264.145L416.874 264.535L414.825 276.034L412.636 275.644ZM413.322 265.592L413.614 263.954L416.874 264.535L416.582 266.173L413.322 265.592Z" fill="white"/>
<path d="M419.672 276.972L421.992 265.525L424.172 265.967L421.851 277.414L419.672 276.972ZM420.595 266.94L420.926 265.309L424.172 265.967L423.841 267.598L420.595 266.94Z" fill="white"/>
<path d="M426.963 278.533L428.9 270.064L431.068 270.56L429.131 279.029L426.963 278.533ZM427.344 271.415L427.715 269.793L431.068 270.56L430.697 272.182L427.344 271.415ZM429.928 269.232C429.501 269.134 429.209 268.953 429.051 268.687C428.906 268.413 428.871 268.109 428.947 267.777C429.028 267.423 429.192 267.16 429.44 266.987C429.698 266.816 430.04 266.779 430.466 266.877C430.893 266.974 431.18 267.155 431.327 267.418C431.475 267.682 431.508 267.99 431.427 268.344C431.351 268.677 431.188 268.935 430.938 269.118C430.691 269.292 430.354 269.329 429.928 269.232Z" fill="white"/>
<path d="M434.191 280.255L436.397 271.852L438.099 272.299L437.153 275.905L436.998 275.864C437.223 275.008 437.523 274.326 437.899 273.818C438.278 273.3 438.727 272.954 439.246 272.782C439.776 272.612 440.376 272.616 441.047 272.792L441.14 272.816C442.141 273.079 442.814 273.603 443.159 274.388C443.507 275.163 443.512 276.191 443.177 277.47L441.913 282.283L439.762 281.718L441.074 276.719C441.21 276.204 441.17 275.746 440.955 275.348C440.75 274.952 440.389 274.687 439.874 274.551C439.347 274.413 438.876 274.466 438.459 274.709C438.055 274.945 437.782 275.336 437.638 275.883L436.342 280.82L434.191 280.255Z" fill="white"/>
<path d="M447.492 287.535C447.094 287.415 446.69 287.275 446.281 287.118C445.882 286.963 445.512 286.806 445.17 286.647L445.709 284.871C446.064 285.023 446.446 285.178 446.856 285.336C447.262 285.503 447.648 285.643 448.016 285.755C448.7 285.962 449.276 286.048 449.744 286.012C450.222 285.978 450.612 285.813 450.915 285.514C451.224 285.229 451.461 284.816 451.625 284.275L452.122 282.637L452.898 281.735C452.635 282.491 452.278 283.097 451.828 283.551C451.381 283.995 450.87 284.285 450.293 284.423C449.719 284.549 449.111 284.515 448.468 284.32C447.896 284.147 447.408 283.882 447.004 283.525C446.61 283.171 446.301 282.754 446.079 282.274C445.867 281.797 445.747 281.276 445.718 280.71C445.689 280.144 445.763 279.57 445.94 278.988L446.037 278.666C446.214 278.085 446.47 277.572 446.805 277.127C447.154 276.676 447.559 276.314 448.021 276.042C448.483 275.769 448.984 275.604 449.526 275.545C450.068 275.487 450.63 275.546 451.211 275.722C451.895 275.93 452.442 276.258 452.853 276.705C453.273 277.156 453.541 277.706 453.656 278.354C453.772 279.002 453.721 279.739 453.504 280.565L453.118 280.515L454.21 276.917L455.894 277.428L453.668 284.761C453.361 285.772 452.94 286.536 452.404 287.053C451.868 287.57 451.194 287.862 450.383 287.928C449.578 288.007 448.615 287.876 447.492 287.535ZM449.633 282.684C450.042 282.808 450.442 282.829 450.835 282.748C451.227 282.666 451.578 282.483 451.888 282.198C452.197 281.913 452.426 281.525 452.575 281.035L452.738 280.499C452.88 280.03 452.894 279.599 452.779 279.208C452.674 278.819 452.477 278.492 452.19 278.227C451.906 277.951 451.565 277.752 451.167 277.632C450.718 277.495 450.287 277.482 449.875 277.591C449.476 277.693 449.123 277.903 448.814 278.222C448.505 278.541 448.272 278.96 448.114 279.481C447.959 279.991 447.922 280.465 448.001 280.901C448.08 281.338 448.257 281.709 448.532 282.015C448.817 282.325 449.184 282.548 449.633 282.684Z" fill="white"/>
<path d="M334.267 297.09C333.244 297.353 332.319 297.399 331.493 297.226C330.666 297.053 329.946 296.738 329.332 296.279C328.729 295.818 328.231 295.274 327.838 294.648C327.446 294.023 327.168 293.395 327.006 292.764L326.918 292.424C326.737 291.721 326.667 291.001 326.708 290.264C326.76 289.523 326.946 288.814 327.267 288.137C327.588 287.459 328.063 286.863 328.69 286.349C329.326 285.822 330.134 285.432 331.115 285.179C332.138 284.916 333.074 284.873 333.924 285.05C334.781 285.215 335.524 285.574 336.151 286.129C336.776 286.673 337.249 287.377 337.571 288.241L335.356 288.812C335.14 288.317 334.842 287.931 334.463 287.654C334.09 287.365 333.665 287.188 333.186 287.124C332.704 287.05 332.19 287.083 331.642 287.224C331.084 287.368 330.614 287.594 330.23 287.902C329.845 288.2 329.552 288.562 329.354 288.987C329.155 289.413 329.039 289.883 329.007 290.398C328.984 290.911 329.048 291.456 329.197 292.035C329.341 292.592 329.546 293.09 329.813 293.528C330.09 293.963 330.425 294.323 330.818 294.608C331.208 294.882 331.645 295.061 332.13 295.145C332.625 295.227 333.161 295.193 333.74 295.044C334.587 294.826 335.246 294.436 335.718 293.874C336.198 293.299 336.402 292.618 336.332 291.832L338.548 291.261C338.652 292.093 338.569 292.902 338.297 293.688C338.026 294.474 337.555 295.168 336.884 295.771C336.213 296.373 335.341 296.813 334.267 297.09Z" fill="white"/>
<path d="M344.52 295.18C343.762 295.298 343.073 295.28 342.456 295.127C341.839 294.975 341.298 294.724 340.834 294.375C340.368 294.015 339.989 293.588 339.696 293.094C339.415 292.598 339.23 292.065 339.141 291.496L339.09 291.164C338.999 290.573 339.017 289.998 339.147 289.439C339.285 288.867 339.522 288.344 339.859 287.871C340.205 287.386 340.65 286.982 341.194 286.661C341.736 286.329 342.371 286.106 343.098 285.993C343.825 285.881 344.498 285.901 345.115 286.054C345.731 286.196 346.271 286.447 346.737 286.806C347.212 287.154 347.596 287.58 347.89 288.085C348.183 288.579 348.375 289.122 348.466 289.712L348.518 290.044C348.606 290.613 348.585 291.178 348.456 291.737C348.337 292.295 348.11 292.816 347.775 293.3C347.438 293.773 346.999 294.176 346.456 294.508C345.914 294.84 345.269 295.064 344.52 295.18ZM344.229 293.298C344.767 293.215 345.202 293.029 345.535 292.74C345.866 292.44 346.096 292.076 346.224 291.646C346.35 291.205 346.373 290.727 346.293 290.21C346.211 289.683 346.039 289.235 345.777 288.865C345.524 288.484 345.189 288.206 344.774 288.033C344.367 287.848 343.906 287.795 343.389 287.875C342.873 287.955 342.444 288.146 342.102 288.447C341.769 288.736 341.534 289.101 341.397 289.544C341.259 289.975 341.231 290.454 341.312 290.981C341.392 291.498 341.559 291.947 341.812 292.329C342.075 292.698 342.409 292.976 342.815 293.161C343.22 293.336 343.692 293.382 344.229 293.298Z" fill="white"/>
<path d="M350.653 294.177L350.125 285.505L351.881 285.398L352.108 289.119L351.948 289.129C351.895 288.245 351.967 287.503 352.165 286.904C352.363 286.293 352.682 285.825 353.122 285.499C353.572 285.172 354.143 284.988 354.835 284.946L354.931 284.94C355.964 284.877 356.767 285.164 357.34 285.803C357.913 286.43 358.239 287.404 358.32 288.725L358.622 293.691L356.402 293.827L356.088 288.668C356.056 288.136 355.875 287.714 355.546 287.403C355.228 287.091 354.803 286.951 354.27 286.984C353.727 287.017 353.296 287.214 352.976 287.576C352.666 287.926 352.528 288.383 352.563 288.947L352.873 294.042L350.653 294.177Z" fill="white"/>
<path d="M364.876 294.008C364.077 293.991 363.417 293.877 362.899 293.663C362.391 293.44 362.015 293.08 361.769 292.584C361.523 292.078 361.409 291.403 361.426 290.561L361.601 282.691L363.681 282.733L363.502 290.747C363.494 291.174 363.599 291.506 363.818 291.746C364.048 291.974 364.376 292.093 364.803 292.102L366.163 292.129L366.124 294.033L364.876 294.008ZM360.127 286.742L360.16 285.11L366.303 285.235L366.27 286.866L360.127 286.742Z" fill="white"/>
<path d="M372.684 294.837C371.941 294.763 371.3 294.571 370.763 294.261C370.236 293.952 369.808 293.566 369.479 293.105C369.161 292.634 368.932 292.124 368.794 291.574C368.666 291.026 368.629 290.475 368.684 289.923L368.714 289.621C368.77 289.048 368.915 288.505 369.148 287.992C369.393 287.469 369.716 287.019 370.118 286.641C370.531 286.253 371.021 285.963 371.586 285.773C372.153 285.572 372.792 285.506 373.503 285.576C374.437 285.669 375.197 285.953 375.782 286.429C376.379 286.895 376.804 287.478 377.056 288.179C377.309 288.868 377.398 289.595 377.323 290.359L377.244 291.156L369.585 290.398L369.719 289.045L375.993 289.665L375.242 290.266C375.296 289.714 375.263 289.234 375.143 288.826C375.023 288.417 374.808 288.09 374.5 287.846C374.203 287.602 373.81 287.456 373.322 287.407C372.834 287.359 372.409 287.43 372.047 287.619C371.685 287.808 371.393 288.106 371.171 288.513C370.96 288.91 370.826 289.401 370.768 289.985C370.714 290.526 370.751 291.017 370.879 291.459C371.008 291.89 371.236 292.244 371.562 292.523C371.889 292.791 372.323 292.952 372.865 293.006C373.406 293.059 373.857 292.997 374.218 292.818C374.58 292.629 374.824 292.379 374.951 292.07L376.989 292.272C376.803 292.854 376.507 293.35 376.102 293.76C375.697 294.17 375.201 294.469 374.615 294.658C374.039 294.847 373.395 294.907 372.684 294.837Z" fill="white"/>
<path d="M378.5 295.337L380.127 286.802L381.856 287.132L381.158 290.794L381.001 290.764C381.167 289.894 381.42 289.193 381.76 288.661C382.102 288.118 382.527 287.743 383.033 287.536C383.55 287.33 384.149 287.292 384.83 287.422L384.925 287.44C385.941 287.634 386.648 288.111 387.046 288.871C387.446 289.62 387.523 290.645 387.275 291.944L386.343 296.832L384.158 296.415L385.126 291.339C385.226 290.815 385.155 290.362 384.913 289.979C384.682 289.598 384.304 289.358 383.78 289.258C383.246 289.156 382.779 289.241 382.38 289.512C381.993 289.775 381.747 290.184 381.641 290.739L380.685 295.753L378.5 295.337Z" fill="white"/>
<path d="M392.324 298.681C391.553 298.468 390.943 298.194 390.493 297.86C390.056 297.518 389.78 297.076 389.664 296.535C389.55 295.983 389.606 295.302 389.83 294.489L391.942 286.906L393.947 287.46L391.797 295.182C391.683 295.593 391.703 295.942 391.857 296.228C392.023 296.506 392.312 296.702 392.723 296.816L394.034 297.178L393.527 299.013L392.324 298.681ZM389.514 290.468L389.949 288.895L395.871 290.531L395.436 292.104L389.514 290.468Z" fill="white"/>
<path d="M257.721 422.509C256.811 423.044 255.925 423.347 255.065 423.419C254.213 423.486 253.416 423.391 252.672 423.135C251.932 422.865 251.276 422.495 250.704 422.027C250.136 421.544 249.687 421.022 249.358 420.461L249.18 420.157C248.818 419.541 248.569 418.864 248.434 418.128C248.293 417.382 248.297 416.631 248.447 415.875C248.607 415.113 248.931 414.391 249.421 413.708C249.905 413.016 250.593 412.408 251.485 411.884C252.368 411.366 253.23 411.064 254.071 410.979C254.906 410.884 255.69 410.956 256.423 411.194C257.165 411.426 257.828 411.785 258.41 412.272C258.988 412.75 259.457 413.297 259.819 413.913L259.997 414.217C260.326 414.778 260.559 415.427 260.694 416.163C260.834 416.885 260.836 417.638 260.703 418.422C260.573 419.191 260.266 419.933 259.784 420.649C259.31 421.36 258.623 421.98 257.721 422.509ZM256.652 420.688C257.168 420.385 257.574 420.023 257.87 419.602C258.176 419.175 258.377 418.717 258.474 418.227C258.574 417.723 258.576 417.221 258.48 416.721C258.388 416.206 258.204 415.714 257.929 415.245C257.632 414.739 257.281 414.32 256.876 413.989C256.481 413.652 256.044 413.414 255.566 413.274C255.097 413.128 254.605 413.09 254.088 413.158C253.572 413.226 253.06 413.409 252.554 413.705C252.039 414.008 251.626 414.368 251.315 414.786C251.003 415.203 250.792 415.655 250.681 416.141C250.58 416.621 250.575 417.118 250.667 417.633C250.768 418.143 250.967 418.651 251.264 419.157C251.539 419.626 251.875 420.029 252.27 420.365C252.67 420.688 253.109 420.931 253.589 421.094C254.072 421.244 254.575 421.289 255.097 421.23C255.619 421.171 256.137 420.99 256.652 420.688Z" fill="white"/>
<path d="M265.312 421.623L259.911 411.033L261.479 410.234L263.18 413.569L262.93 413.678C262.566 412.87 262.391 412.127 262.405 411.45C262.428 410.767 262.616 410.174 262.97 409.671C263.319 409.158 263.793 408.748 264.391 408.443C264.943 408.162 265.488 408.01 266.026 407.986C266.575 407.958 267.098 408.045 267.596 408.246C268.103 408.442 268.566 408.739 268.984 409.136C269.397 409.524 269.744 409.994 270.025 410.545L270.178 410.844C270.464 411.405 270.645 411.971 270.721 412.543C270.802 413.1 270.775 413.647 270.641 414.182C270.512 414.703 270.277 415.182 269.937 415.619C269.592 416.046 269.144 416.4 268.593 416.681C268.013 416.977 267.421 417.13 266.815 417.139C266.214 417.135 265.637 416.955 265.086 416.602C264.53 416.239 264.027 415.664 263.577 414.875L264.691 415.51L267.293 420.613L265.312 421.623ZM267.244 415.268C267.671 415.05 267.988 414.757 268.195 414.388C268.412 414.014 268.516 413.596 268.507 413.133C268.494 412.661 268.366 412.187 268.124 411.712C267.872 411.218 267.564 410.836 267.199 410.567C266.834 410.298 266.44 410.146 266.015 410.112C265.595 410.062 265.171 410.147 264.743 410.365C264.353 410.564 264.036 410.833 263.791 411.174C263.555 411.51 263.417 411.897 263.378 412.337C263.348 412.771 263.451 413.221 263.689 413.686L263.98 414.257C264.207 414.703 264.506 415.03 264.875 415.237C265.244 415.444 265.638 415.548 266.058 415.55C266.478 415.551 266.873 415.457 267.244 415.268Z" fill="white"/>
<path d="M277.693 412.245C276.963 412.574 276.319 412.754 275.759 412.784C275.205 412.801 274.71 412.638 274.275 412.296C273.835 411.944 273.442 411.384 273.095 410.616L269.872 403.435L271.768 402.579L275.051 409.892C275.226 410.281 275.464 410.536 275.765 410.658C276.071 410.765 276.418 410.732 276.807 410.556L278.047 409.997L278.83 411.732L277.693 412.245ZM270.281 407.726L269.61 406.238L275.21 403.711L275.882 405.199L270.281 407.726Z" fill="white"/>
<path d="M282.031 410.308L278.759 402.26L280.819 401.422L284.091 409.471L282.031 410.308ZM278.259 404.259L277.632 402.718L280.819 401.422L281.446 402.964L278.259 404.259ZM279.123 400.989C278.718 401.154 278.374 401.173 278.092 401.045C277.816 400.904 277.614 400.676 277.485 400.36C277.349 400.024 277.332 399.714 277.435 399.43C277.549 399.142 277.808 398.916 278.213 398.751C278.618 398.586 278.957 398.57 279.229 398.701C279.501 398.832 279.705 399.065 279.842 399.401C279.971 399.718 279.985 400.023 279.886 400.316C279.782 400.6 279.528 400.824 279.123 400.989Z" fill="white"/>
<path d="M288.471 407.754L285.626 399.545L287.289 398.969L288.51 402.491L288.359 402.544C288.072 401.717 287.939 400.99 287.958 400.362C287.974 399.725 288.14 399.193 288.456 398.768C288.778 398.329 289.251 398.001 289.876 397.784L289.967 397.753C290.602 397.533 291.176 397.497 291.691 397.647C292.212 397.782 292.671 398.097 293.068 398.592C293.472 399.073 293.817 399.726 294.104 400.553L293.574 400.736C293.288 399.91 293.155 399.183 293.174 398.555C293.2 397.914 293.371 397.38 293.687 396.955C294.009 396.516 294.482 396.188 295.107 395.972L295.198 395.94C295.833 395.72 296.412 395.683 296.937 395.829C297.458 395.964 297.922 396.278 298.329 396.769C298.743 397.246 299.093 397.898 299.38 398.725L301.004 403.411L298.902 404.139L297.21 399.256C297.032 398.742 296.76 398.379 296.393 398.168C296.022 397.946 295.595 397.919 295.112 398.087C294.628 398.254 294.296 398.55 294.115 398.974C293.931 399.388 293.932 399.862 294.117 400.396L295.788 405.218L293.687 405.947L291.994 401.063C291.816 400.549 291.544 400.187 291.177 399.975C290.807 399.754 290.38 399.727 289.896 399.894C289.412 400.062 289.08 400.357 288.899 400.781C288.715 401.195 288.716 401.669 288.901 402.203L290.572 407.026L288.471 407.754Z" fill="white"/>
<path d="M302.429 403.195L300.02 394.848L302.157 394.231L304.566 402.579L302.429 403.195ZM299.313 396.784L298.852 395.185L302.157 394.231L302.618 395.83L299.313 396.784ZM300.516 393.623C300.096 393.744 299.752 393.726 299.485 393.57C299.225 393.401 299.048 393.153 298.953 392.825C298.853 392.476 298.869 392.166 299.001 391.895C299.144 391.62 299.426 391.423 299.846 391.301C300.266 391.18 300.605 391.199 300.861 391.358C301.118 391.517 301.297 391.771 301.397 392.119C301.492 392.447 301.475 392.752 301.345 393.034C301.212 393.305 300.936 393.501 300.516 393.623Z" fill="white"/>
<path d="M308.635 401.486L308.214 399.777L311.146 393.749L311.207 393.997L310.773 393.643L311.068 393.702L306.951 394.716L306.542 393.054L312.973 391.47L313.394 393.178L310.463 399.207L310.406 398.974L310.855 399.324L310.556 399.25L314.813 398.201L315.222 399.863L308.635 401.486Z" fill="white"/>
<path d="M321.587 398.912C320.854 399.057 320.186 399.059 319.582 398.918C318.988 398.775 318.466 398.53 318.017 398.184C317.577 397.825 317.21 397.403 316.918 396.917C316.637 396.429 316.442 395.913 316.334 395.369L316.275 395.071C316.163 394.506 316.145 393.944 316.219 393.386C316.301 392.815 316.48 392.29 316.755 391.812C317.039 391.321 317.423 390.902 317.909 390.556C318.393 390.199 318.986 389.951 319.687 389.812C320.607 389.63 321.417 389.681 322.115 389.967C322.822 390.24 323.397 390.676 323.842 391.273C324.284 391.859 324.58 392.529 324.729 393.282L324.884 394.067L317.335 395.563L317.071 394.228L323.255 393.004L322.71 393.796C322.603 393.252 322.432 392.802 322.198 392.446C321.965 392.09 321.665 391.84 321.299 391.695C320.944 391.548 320.525 391.522 320.044 391.617C319.563 391.712 319.176 391.903 318.885 392.189C318.594 392.475 318.401 392.845 318.306 393.299C318.219 393.74 318.233 394.248 318.347 394.824C318.452 395.357 318.63 395.817 318.881 396.202C319.129 396.577 319.45 396.851 319.843 397.023C320.233 397.185 320.696 397.213 321.229 397.107C321.763 397.002 322.177 396.811 322.47 396.535C322.761 396.249 322.923 395.94 322.955 395.607L324.964 395.21C324.954 395.82 324.815 396.381 324.547 396.891C324.278 397.401 323.89 397.831 323.383 398.181C322.887 398.53 322.288 398.773 321.587 398.912Z" fill="white"/>
<path d="M338.663 396.413C337.582 396.535 336.647 396.43 335.859 396.1C335.07 395.77 334.438 395.256 333.963 394.558C333.497 393.848 333.207 392.99 333.094 391.983L332.318 385.066L334.576 384.813L335.367 391.857C335.428 392.408 335.589 392.883 335.849 393.284C336.107 393.673 336.451 393.962 336.88 394.15C337.318 394.326 337.834 394.381 338.428 394.315C339.011 394.249 339.491 394.082 339.869 393.815C340.256 393.535 340.527 393.177 340.682 392.741C340.848 392.304 340.899 391.805 340.836 391.243L340.046 384.199L342.304 383.946L343.08 390.862C343.193 391.869 343.101 392.77 342.804 393.566C342.516 394.35 342.024 394.99 341.328 395.486C340.633 395.983 339.744 396.292 338.663 396.413Z" fill="white"/>
<path d="M348.965 395.579C347.773 395.65 346.821 395.455 346.11 394.995C345.409 394.524 345.016 393.842 344.931 392.949L346.927 392.831C346.977 393.127 347.158 393.389 347.471 393.616C347.783 393.844 348.259 393.938 348.898 393.9C349.43 393.869 349.845 393.748 350.143 393.538C350.451 393.328 350.595 393.057 350.576 392.727C350.559 392.44 350.423 392.218 350.168 392.062C349.923 391.906 349.512 391.818 348.934 391.799L348.162 391.764C347.187 391.715 346.425 391.482 345.877 391.066C345.329 390.65 345.033 390.069 344.989 389.324C344.953 388.727 345.073 388.218 345.347 387.796C345.621 387.373 346.013 387.046 346.523 386.812C347.043 386.568 347.643 386.426 348.325 386.385C349.39 386.322 350.266 386.505 350.954 386.935C351.642 387.364 352.029 388.03 352.114 388.934L350.118 389.052C350.079 388.755 349.914 388.508 349.625 388.312C349.335 388.115 348.93 388.032 348.408 388.063C347.94 388.091 347.583 388.203 347.338 388.399C347.093 388.595 346.979 388.837 346.996 389.125C347.013 389.401 347.127 389.608 347.338 389.745C347.559 389.882 347.906 389.963 348.378 389.988L349.149 390.023C350.178 390.069 350.993 390.304 351.595 390.727C352.208 391.151 352.537 391.751 352.583 392.528C352.617 393.103 352.487 393.613 352.193 394.058C351.909 394.492 351.492 394.842 350.941 395.11C350.391 395.377 349.732 395.534 348.965 395.579Z" fill="white"/>
<path d="M359.131 395.323C358.384 395.332 357.727 395.211 357.159 394.962C356.601 394.712 356.133 394.376 355.755 393.954C355.387 393.521 355.104 393.039 354.906 392.508C354.719 391.977 354.622 391.434 354.615 390.879L354.612 390.575C354.605 389.999 354.69 389.443 354.865 388.908C355.051 388.362 355.322 387.879 355.68 387.458C356.049 387.028 356.503 386.686 357.045 386.435C357.586 386.172 358.213 386.037 358.928 386.029C359.867 386.018 360.653 386.217 361.287 386.626C361.932 387.024 362.418 387.557 362.746 388.225C363.073 388.883 363.241 389.596 363.25 390.364L363.259 391.164L355.564 391.252L355.548 389.892L361.852 389.82L361.172 390.5C361.165 389.945 361.08 389.471 360.915 389.078C360.751 388.686 360.502 388.384 360.169 388.175C359.846 387.965 359.44 387.863 358.949 387.869C358.459 387.875 358.044 387.991 357.705 388.219C357.366 388.447 357.109 388.775 356.932 389.204C356.767 389.622 356.687 390.124 356.694 390.711C356.7 391.255 356.791 391.739 356.966 392.164C357.142 392.578 357.407 392.906 357.762 393.147C358.116 393.378 358.566 393.49 359.11 393.483C359.654 393.477 360.095 393.365 360.434 393.148C360.773 392.92 360.988 392.646 361.081 392.325L363.128 392.301C363.007 392.9 362.768 393.425 362.41 393.878C362.053 394.33 361.593 394.682 361.031 394.933C360.479 395.185 359.846 395.315 359.131 395.323Z" fill="white"/>
<path d="M365.396 395.098L365.682 386.415L367.441 386.472L367.32 390.15L367.272 390.149C367.313 388.902 367.611 387.967 368.165 387.345C368.719 386.723 369.513 386.428 370.547 386.462L370.867 386.473L370.803 388.408L370.195 388.388C369.449 388.363 368.862 388.547 368.432 388.938C368.014 389.319 367.793 389.888 367.768 390.645L367.619 395.171L365.396 395.098Z" fill="white"/>
<path d="M379.699 395.981L380.945 384.367L383.156 384.604L381.911 396.218L379.699 395.981ZM381.593 396.184L381.797 394.275L387.063 394.839L386.858 396.748L381.593 396.184ZM382.123 391.236L382.328 389.327L387.18 389.847L386.975 391.756L382.123 391.236ZM382.633 386.479L382.838 384.57L387.976 385.121L387.772 387.03L382.633 386.479Z" fill="white"/>
<path d="M388.602 397.028L392.121 392.885L392.016 393.241L390.063 388.463L392.45 388.839L393.697 392.129L393.934 392.166L396.038 389.403L398.282 389.756L395.101 393.71L395.198 393.401L397.437 398.418L395.05 398.043L393.521 394.482L393.284 394.444L390.846 397.381L388.602 397.028Z" fill="white"/>
<path d="M398.887 402.015L401.35 390.385L403.072 390.75L402.296 394.413L402.034 394.341C402.259 393.483 402.59 392.796 403.027 392.278C403.474 391.762 403.993 391.419 404.585 391.25C405.179 391.071 405.805 391.051 406.463 391.19C407.068 391.318 407.587 391.542 408.021 391.863C408.465 392.186 408.817 392.582 409.077 393.052C409.348 393.524 409.521 394.045 409.596 394.617C409.674 395.179 409.648 395.762 409.52 396.368L409.451 396.696C409.32 397.312 409.105 397.866 408.804 398.358C408.516 398.843 408.152 399.251 407.711 399.582C407.283 399.906 406.799 400.131 406.26 400.256C405.723 400.372 405.152 400.365 404.547 400.237C403.91 400.102 403.353 399.848 402.876 399.475C402.412 399.093 402.077 398.591 401.87 397.969C401.666 397.337 401.637 396.574 401.783 395.678L402.25 396.872L401.063 402.476L398.887 402.015ZM404.387 398.29C404.856 398.389 405.287 398.361 405.68 398.204C406.084 398.049 406.428 397.79 406.712 397.425C406.999 397.049 407.197 396.601 407.308 396.079C407.423 395.536 407.423 395.046 407.309 394.607C407.195 394.169 406.983 393.802 406.675 393.508C406.379 393.206 405.996 393.005 405.527 392.905C405.099 392.815 404.683 392.824 404.278 392.935C403.883 393.048 403.532 393.262 403.225 393.579C402.929 393.898 402.726 394.313 402.618 394.824L402.486 395.45C402.382 395.941 402.408 396.382 402.565 396.775C402.721 397.168 402.962 397.497 403.288 397.763C403.613 398.028 403.98 398.204 404.387 398.29Z" fill="white"/>
<path d="M414.441 402.73C413.72 402.537 413.119 402.244 412.639 401.85C412.169 401.46 411.809 401.01 411.559 400.502C411.321 399.985 411.179 399.445 411.131 398.88C411.094 398.318 411.147 397.769 411.29 397.233L411.368 396.94C411.517 396.383 411.748 395.871 412.061 395.402C412.387 394.926 412.779 394.534 413.237 394.226C413.708 393.91 414.237 393.704 414.826 393.608C415.418 393.501 416.059 393.54 416.75 393.724C417.656 393.967 418.36 394.37 418.861 394.935C419.374 395.492 419.699 396.136 419.834 396.868C419.973 397.589 419.943 398.321 419.744 399.063L419.537 399.836L412.103 397.848L412.454 396.534L418.544 398.163L417.706 398.634C417.849 398.098 417.894 397.619 417.842 397.196C417.789 396.774 417.631 396.417 417.366 396.125C417.112 395.836 416.748 395.629 416.274 395.502C415.8 395.375 415.369 395.376 414.982 395.504C414.594 395.632 414.258 395.879 413.972 396.245C413.7 396.602 413.488 397.065 413.336 397.631C413.196 398.157 413.153 398.648 413.208 399.104C413.265 399.55 413.432 399.937 413.709 400.265C413.988 400.583 414.391 400.812 414.916 400.952C415.442 401.093 415.897 401.104 416.282 400.986C416.67 400.858 416.951 400.651 417.126 400.367L419.105 400.896C418.827 401.44 418.455 401.882 417.989 402.221C417.523 402.56 416.985 402.775 416.375 402.866C415.776 402.96 415.131 402.914 414.441 402.73Z" fill="white"/>
<path d="M420.535 404.2L423.149 395.915L424.828 396.445L423.721 399.954L423.675 399.94C424.05 398.749 424.589 397.929 425.29 397.48C425.991 397.03 426.835 396.96 427.822 397.272L428.127 397.368L427.544 399.214L426.965 399.031C426.252 398.807 425.637 398.825 425.118 399.086C424.613 399.341 424.246 399.829 424.019 400.551L422.656 404.87L420.535 404.2Z" fill="white"/>
<path d="M428.629 406.892L431.554 398.711L433.648 399.46L430.723 407.641L428.629 406.892ZM429.849 399.869L430.409 398.302L433.648 399.46L433.088 401.027L429.849 399.869ZM432.673 398.007C432.261 397.859 431.992 397.644 431.867 397.362C431.755 397.073 431.757 396.767 431.872 396.446C431.994 396.104 432.188 395.862 432.454 395.72C432.73 395.58 433.074 395.585 433.486 395.732C433.898 395.879 434.162 396.092 434.277 396.371C434.392 396.651 434.389 396.961 434.267 397.302C434.152 397.624 433.96 397.861 433.69 398.014C433.424 398.156 433.085 398.154 432.673 398.007Z" fill="white"/>
<path d="M438.654 411.075C437.963 410.794 437.403 410.429 436.976 409.979C436.558 409.533 436.257 409.042 436.072 408.506C435.901 407.964 435.827 407.41 435.85 406.844C435.882 406.281 436.003 405.743 436.212 405.229L436.327 404.948C436.544 404.414 436.837 403.934 437.205 403.509C437.588 403.077 438.026 402.737 438.519 402.488C439.025 402.233 439.577 402.095 440.173 402.072C440.773 402.04 441.404 402.159 442.066 402.428C442.936 402.781 443.584 403.269 444.01 403.892C444.45 404.508 444.692 405.188 444.736 405.931C444.783 406.664 444.662 407.387 444.373 408.098L444.071 408.839L436.942 405.941L437.454 404.681L443.294 407.055L442.404 407.418C442.613 406.905 442.717 406.435 442.718 406.009C442.718 405.583 442.605 405.209 442.379 404.887C442.163 404.569 441.828 404.317 441.373 404.132C440.919 403.948 440.491 403.895 440.091 403.974C439.69 404.053 439.326 404.255 438.997 404.582C438.682 404.904 438.414 405.336 438.193 405.879C437.988 406.383 437.885 406.865 437.882 407.324C437.884 407.774 438.001 408.179 438.235 408.539C438.473 408.889 438.843 409.166 439.347 409.371C439.851 409.576 440.301 409.644 440.698 409.575C441.099 409.496 441.404 409.326 441.613 409.066L443.51 409.837C443.167 410.342 442.743 410.734 442.238 411.013C441.733 411.291 441.173 411.437 440.557 411.452C439.95 411.47 439.316 411.345 438.654 411.075Z" fill="white"/>
<path d="M444.491 413.268L448.169 405.397L449.764 406.142L448.186 409.52L448.041 409.452C448.415 408.65 448.833 408.033 449.294 407.601C449.76 407.159 450.263 406.9 450.805 406.823C451.357 406.751 451.947 406.862 452.575 407.156L452.662 407.196C453.599 407.634 454.167 408.27 454.366 409.105C454.569 409.93 454.391 410.942 453.831 412.14L451.725 416.648L449.71 415.707L451.898 411.025C452.123 410.541 452.166 410.084 452.026 409.654C451.895 409.228 451.588 408.902 451.105 408.676C450.612 408.446 450.139 408.413 449.685 408.578C449.246 408.738 448.906 409.074 448.667 409.586L446.506 414.21L444.491 413.268Z" fill="white"/>
<path d="M457.486 420.062C456.817 419.707 456.298 419.286 455.928 418.8C455.567 418.319 455.322 417.802 455.193 417.251C455.072 416.704 455.057 416.152 455.147 415.596C455.237 415.04 455.412 414.517 455.672 414.027L455.815 413.759C456.09 413.24 456.432 412.788 456.843 412.402C457.267 412.012 457.742 411.72 458.267 411.528C458.797 411.326 459.359 411.244 459.955 411.283C460.565 411.317 461.19 411.504 461.831 411.844C462.5 412.199 463.028 412.648 463.415 413.192C463.808 413.727 464.037 414.307 464.103 414.934C464.178 415.566 464.072 416.198 463.785 416.83L461.877 415.817C462.04 415.397 462.045 414.977 461.893 414.558C461.751 414.144 461.43 413.805 460.93 413.54C460.497 413.31 460.079 413.221 459.677 413.273C459.285 413.33 458.92 413.505 458.584 413.797C458.252 414.08 457.962 414.457 457.712 414.929C457.471 415.381 457.32 415.826 457.257 416.263C457.203 416.705 457.262 417.105 457.435 417.463C457.617 417.825 457.934 418.126 458.386 418.366C458.726 418.546 459.05 418.64 459.36 418.648C459.67 418.655 459.953 418.588 460.21 418.447C460.475 418.31 460.7 418.115 460.882 417.862L462.79 418.874C462.422 419.476 461.949 419.925 461.369 420.221C460.803 420.513 460.182 420.648 459.505 420.627C458.837 420.61 458.164 420.422 457.486 420.062Z" fill="white"/>
<path d="M466.288 425.112C465.647 424.729 465.149 424.284 464.794 423.774C464.449 423.271 464.225 422.74 464.122 422.182C464.035 421.621 464.045 421.062 464.153 420.505C464.27 419.954 464.471 419.441 464.754 418.964L464.91 418.703C465.205 418.208 465.567 417.778 465.995 417.413C466.439 417.044 466.923 416.773 467.447 416.602C467.986 416.426 468.552 416.372 469.145 416.44C469.744 416.498 470.35 416.711 470.964 417.076C471.77 417.557 472.337 418.137 472.665 418.816C473.007 419.492 473.144 420.201 473.075 420.942C473.011 421.674 472.783 422.369 472.39 423.029L471.98 423.716L465.369 419.777L466.065 418.609L471.481 421.836L470.546 422.061C470.829 421.584 471.004 421.136 471.068 420.715C471.133 420.294 471.078 419.907 470.903 419.554C470.737 419.207 470.443 418.908 470.022 418.657C469.6 418.406 469.186 418.289 468.778 418.307C468.37 418.325 467.979 418.47 467.605 418.744C467.245 419.014 466.915 419.401 466.615 419.905C466.337 420.373 466.161 420.833 466.09 421.287C466.023 421.732 466.079 422.15 466.255 422.541C466.438 422.922 466.763 423.252 467.23 423.531C467.697 423.809 468.132 423.944 468.535 423.936C468.942 423.918 469.27 423.796 469.516 423.57L471.275 424.619C470.859 425.066 470.381 425.39 469.84 425.589C469.299 425.788 468.723 425.849 468.112 425.77C467.51 425.697 466.902 425.477 466.288 425.112Z" fill="white"/>
<defs>
<linearGradient id="paint0_linear_2445_5693" x1="360.5" y1="79" x2="360.5" y2="445" gradientUnits="userSpaceOnUse">
<stop stop-color="#3D6491"/>
<stop offset="0.973958" stop-color="#102945"/>
</linearGradient>
</defs>
</svg>
