<svg width="65" height="64" viewBox="0 0 65 64" fill="none" xmlns="http://www.w3.org/2000/svg">
<g clip-path="url(#clip0_1024_1919)">
<path d="M32.5 64C50.1731 64 64.5 49.6731 64.5 32C64.5 14.3269 50.1731 0 32.5 0C14.8269 0 0.5 14.3269 0.5 32C0.5 49.6731 14.8269 64 32.5 64Z" fill="url(#paint0_linear_1024_1919)"/>
<path d="M34.8899 27.847L36.4442 26.3325L34.2945 26.021C33.9352 25.969 33.6213 25.7419 33.4612 25.4153L32.5 23.4703L31.5389 25.4153C31.3788 25.7419 31.0648 25.9691 30.7055 26.021L28.5559 26.3325L30.1102 27.847C30.372 28.1013 30.4912 28.4679 30.4305 28.827L30.0625 30.9656L31.9848 29.9564C32.1449 29.8709 32.3224 29.8288 32.5 29.8288C32.6777 29.8288 32.855 29.8709 33.0153 29.9564L34.9375 30.9656L34.5695 28.827C34.5089 28.468 34.628 28.1013 34.8899 27.847ZM37.6478 40.1086C38.8233 40.3445 40.068 40.074 41.0422 39.3655C42.0228 38.6538 42.6463 37.5979 42.8022 36.3669C42.8793 35.6126 43.4014 35.0019 44.0253 34.6901C45.1337 34.1795 45.9735 33.2298 46.3157 32.1145C46.7053 30.9819 46.5863 29.7185 45.9953 28.6498C45.9932 28.6465 45.9909 28.6421 45.9888 28.6389C45.6294 28.0061 45.6294 27.2208 45.9953 26.5771C46.5863 25.5084 46.7053 24.2449 46.3265 23.1436C45.9737 21.997 45.1338 21.0473 44.0405 20.5431C43.35 20.2143 42.8868 19.5793 42.8002 18.834C42.6465 17.6289 42.023 16.5731 41.0445 15.8635C40.0725 15.155 38.8386 14.8824 37.6437 15.1193C36.9444 15.261 36.1759 15.01 35.6824 14.4734C34.0069 12.6776 31 12.6713 29.3115 14.4799C28.8223 15.0121 28.0582 15.261 27.3524 15.1181C26.1748 14.879 24.9322 15.1518 23.958 15.8613C22.9774 16.573 22.3539 17.6289 22.198 18.8448C22.1135 19.5793 21.6503 20.2143 20.9749 20.5366C19.8665 21.0471 19.0267 21.997 18.6845 23.1123C18.2949 24.2449 18.4139 25.5083 19.0114 26.5879C19.3708 27.2206 19.3708 28.006 19.0049 28.6498C18.4139 29.7185 18.2949 30.982 18.6737 32.0831C19.0265 33.2298 19.8664 34.1795 20.9445 34.6761C21.618 35.0108 22.1223 35.6179 22.2002 36.3929C22.3538 37.598 22.9773 38.6538 23.9558 39.3634C24.9257 40.0719 26.1638 40.3478 27.3567 40.1076C28.071 39.9638 28.8244 40.2169 29.4565 40.8909C30.2639 41.7011 31.3464 42.1468 32.5002 42.1468C33.6539 42.1468 34.7364 41.7011 35.6889 40.747C36.1758 40.2158 36.9422 39.9626 37.6478 40.1086ZM29.1057 33.9709C28.7333 34.1666 28.2788 34.1353 27.9389 33.8865C27.5969 33.6389 27.4259 33.2191 27.4973 32.8036L28.1467 29.0273L25.4018 26.3521C25.0987 26.0579 24.9905 25.6176 25.1204 25.2164C25.2503 24.8161 25.5988 24.524 26.0144 24.4635L29.8092 23.9129L31.5063 20.4773C31.8787 19.72 33.1212 19.72 33.4935 20.4773L35.1907 23.9129L38.9854 24.4635C39.401 24.5241 39.7495 24.8161 39.8794 25.2164C40.0093 25.6176 39.901 26.0579 39.598 26.3521L36.8532 29.0273L37.5025 32.8036C37.574 33.219 37.4029 33.6388 37.0609 33.8865C36.7314 34.127 36.2795 34.1738 35.8942 33.9709L32.5 32.1881L29.1057 33.9709ZM48.976 44.7829L44.7769 37.5299C44.4232 38.9695 43.5895 40.2555 42.3454 41.158C41.237 41.9628 39.8689 42.4074 38.4899 42.4074C38.0613 42.4074 37.6348 42.3653 37.2105 42.2808C36.692 42.8315 36.1049 43.2448 35.4873 43.5789L39.3883 50.3214C39.6074 50.701 40.0375 50.9248 40.4923 50.8655C40.936 50.8071 41.3019 50.4869 41.4188 50.0531L42.7479 45.076L47.7312 46.4065C48.1642 46.5255 48.623 46.3665 48.8958 46.0106C49.1687 45.6559 49.2012 45.1713 48.976 44.7829ZM27.6792 42.2743C27.3653 42.3651 26.9345 42.4073 26.5037 42.4073C25.1269 42.4073 23.7565 41.9616 22.6482 41.1514C21.424 40.2634 20.5934 39.0016 20.2057 37.5598L16.024 44.7829C15.7989 45.1713 15.8314 45.6559 16.1042 46.0106C16.3748 46.3666 16.8315 46.5256 17.2688 46.4065L22.252 45.076L23.5812 50.0531C23.698 50.4869 24.0639 50.8071 24.5077 50.8655C24.962 50.9248 25.3924 50.7014 25.6117 50.3214L29.4987 43.6034C28.9148 43.2994 28.3619 42.9324 27.8847 42.4539L27.6792 42.2743Z" fill="url(#paint1_linear_1024_1919)"/>
</g>
<defs>
<linearGradient id="paint0_linear_1024_1919" x1="32.5" y1="64" x2="32.5" y2="0" gradientUnits="userSpaceOnUse">
<stop stop-color="#FFE59A"/>
<stop offset="1" stop-color="#FFFFD5"/>
</linearGradient>
<linearGradient id="paint1_linear_1024_1919" x1="32.5" y1="50.875" x2="32.5" y2="13.125" gradientUnits="userSpaceOnUse">
<stop stop-color="#FFDE00"/>
<stop offset="1" stop-color="#FD5900"/>
</linearGradient>
<clipPath id="clip0_1024_1919">
<rect width="64" height="64" fill="white" transform="translate(0.5)"/>
</clipPath>
</defs>
</svg>
