<svg width="202" height="50" viewBox="0 0 202 50" fill="none" xmlns="http://www.w3.org/2000/svg">
<path d="M50.75 25.186C50.75 31.3609 48.2159 37.2829 43.7052 41.6493C39.1944 46.0156 33.0766 48.4686 26.6974 48.4686C20.3182 48.4686 14.2004 46.0156 9.68963 41.6493C5.17888 37.2829 2.64478 31.3609 2.64478 25.186C2.64478 19.0111 5.17888 13.089 9.68963 8.7227C14.2004 4.35636 20.3182 1.90338 26.6974 1.90338C33.0766 1.90338 39.1944 4.35636 43.7052 8.7227C48.2159 13.089 50.75 19.0111 50.75 25.186ZM49.1817 25.1848C49.1817 19.4125 46.8128 13.8766 42.5962 9.79496C38.3796 5.71333 32.6606 3.42029 26.6974 3.42029C20.7342 3.42029 15.0152 5.71333 10.7986 9.79496C6.58197 13.8766 4.2131 19.4125 4.2131 25.1848C4.2131 30.9571 6.58197 36.493 10.7986 40.5746C15.0152 44.6562 20.7342 46.9493 26.6974 46.9493C32.6606 46.9493 38.3796 44.6562 42.5962 40.5746C46.8128 36.493 49.1817 30.9571 49.1817 25.1848Z" fill="white"/>
<path d="M31.6607 15.2645V20.3587C31.6607 20.3933 31.677 20.4187 31.7094 20.4348L32.03 20.5894C32.0381 20.5932 32.0472 20.5949 32.0562 20.5943C32.0652 20.5937 32.0739 20.5908 32.0814 20.5859C32.0888 20.581 32.0948 20.5743 32.0988 20.5664C32.1027 20.5585 32.1044 20.5498 32.1037 20.541C31.8404 17.1679 32.987 13.8575 37.299 14.622C39.279 14.9722 39.6321 16.7983 39.803 18.4009C39.8072 18.4452 39.8301 18.4778 39.8717 18.4988L42.1824 19.6763C42.2364 19.7045 42.2364 19.7323 42.1824 19.7596L39.984 20.8792C39.9465 20.8977 39.9274 20.9275 39.9266 20.9686L39.8592 23.9336C39.8575 23.9851 39.8804 24.0229 39.9278 24.0471L42.1724 25.1896C42.181 25.1942 42.1881 25.2009 42.1931 25.2091C42.1981 25.2173 42.2007 25.2266 42.2007 25.2361C42.2007 25.2456 42.1981 25.2549 42.1931 25.2631C42.1881 25.2713 42.181 25.278 42.1724 25.2826L39.9515 26.4154C39.8875 26.4485 39.8542 26.5004 39.8517 26.5712C39.7182 30.5181 34.9683 31.4915 31.7655 31.6582C31.7372 31.6597 31.7105 31.6719 31.691 31.6921C31.6715 31.7123 31.6607 31.7391 31.6607 31.7669V32.4505C31.6607 32.4729 31.6671 32.495 31.6792 32.5142C31.6913 32.5334 31.7087 32.5489 31.7294 32.5592L33.8716 33.6509C33.8797 33.6552 33.8864 33.6615 33.8911 33.6691C33.8958 33.6768 33.8983 33.6855 33.8983 33.6944C33.8983 33.7033 33.8958 33.7121 33.8911 33.7197C33.8864 33.7274 33.8797 33.7336 33.8716 33.7379L31.7206 34.8333C31.7026 34.8424 31.6874 34.8561 31.6769 34.8729C31.6663 34.8897 31.6607 34.909 31.6607 34.9287V37.9722C31.6607 38.0052 31.6757 38.0294 31.7056 38.0447L33.8729 39.1485C33.881 39.1526 33.8878 39.1588 33.8925 39.1663C33.8973 39.1739 33.8998 39.1826 33.8998 39.1914C33.8998 39.2003 33.8973 39.2089 33.8925 39.2165C33.8878 39.224 33.881 39.2302 33.8729 39.2343L31.7281 40.3261C31.6832 40.3494 31.6607 40.3861 31.6607 40.436V41.8164C31.6607 41.8345 31.6565 41.8523 31.6482 41.8687C31.64 41.885 31.6281 41.8993 31.6133 41.9106C28.6813 44.0906 24.5827 43.9952 21.6357 41.942C21.6024 41.9187 21.5858 41.8869 21.5858 41.8466V38.6509C21.5858 38.6075 21.5662 38.5761 21.5271 38.5567L19.2951 37.4191C19.2841 37.4136 19.2748 37.4053 19.2684 37.395C19.2619 37.3848 19.2585 37.3731 19.2585 37.3611C19.2585 37.3491 19.2619 37.3374 19.2684 37.3271C19.2748 37.3169 19.2841 37.3086 19.2951 37.3031L21.5296 36.163C21.5671 36.1437 21.5858 36.1131 21.5858 36.0712V35.3237C21.5858 35.3141 21.5838 35.3046 21.5799 35.2958C21.5761 35.287 21.5704 35.279 21.5633 35.2724C21.5562 35.2657 21.5478 35.2605 21.5386 35.2571C21.5294 35.2537 21.5195 35.2521 21.5097 35.2524C18.5015 35.3406 14.494 34.4939 13.1939 31.4505C13.1798 31.4158 13.1553 31.3897 13.1203 31.372L10.5164 30.0422C10.5058 30.0367 10.497 30.0285 10.4908 30.0184C10.4846 30.0084 10.4813 29.997 10.4813 29.9854C10.4813 29.9739 10.4846 29.9626 10.4908 29.9528C10.497 29.943 10.5058 29.9351 10.5164 29.9299L12.61 28.8611C12.6441 28.8434 12.6616 28.816 12.6624 28.779L12.6849 25.32C12.6849 25.3059 12.6808 25.292 12.6731 25.2799C12.6654 25.2677 12.6544 25.2578 12.6412 25.2512L10.4865 24.1546C10.4316 24.1264 10.4316 24.0982 10.4865 24.07L12.7959 22.8937C12.8359 22.8736 12.8575 22.8418 12.8608 22.7983C12.9893 20.7258 13.6681 18.3321 16.2607 18.163C19.8914 17.9263 20.4754 21.2645 20.4903 23.8889C20.4903 23.9267 20.5078 23.9545 20.5427 23.9722L21.3799 24.3949C21.434 24.4223 21.461 24.4066 21.461 24.3478V20.1268C21.461 20.0857 21.4423 20.0559 21.4049 20.0374L19.2539 18.9444C19.2467 18.9406 19.2406 18.935 19.2364 18.9282C19.2322 18.9213 19.23 18.9136 19.23 18.9057C19.23 18.8979 19.2322 18.8902 19.2364 18.8836C19.2406 18.8771 19.2467 18.8718 19.2539 18.8683L21.4124 17.7681C21.427 17.7608 21.4393 17.7497 21.4479 17.7361C21.4565 17.7224 21.461 17.7068 21.461 17.6908V13.134C21.461 13.0906 21.441 13.0588 21.4011 13.0386L19.2776 11.9565C19.2681 11.9519 19.2602 11.9448 19.2547 11.936C19.2491 11.9273 19.2462 11.9172 19.2462 11.907C19.2462 11.8967 19.2491 11.8867 19.2547 11.8779C19.2602 11.8692 19.2681 11.8621 19.2776 11.8575L21.4036 10.7766C21.4213 10.7676 21.4363 10.7545 21.4475 10.7385C21.4586 10.7224 21.4654 10.704 21.4672 10.6848C21.7367 7.84539 24.1448 6.53017 26.8647 6.74877C30.3058 7.02413 31.7406 9.71375 31.6395 12.7874C31.6379 12.8293 31.6562 12.8603 31.6944 12.8804L33.8778 13.9939C33.8851 13.9978 33.8912 14.0035 33.8955 14.0104C33.8997 14.0173 33.9019 14.0252 33.9019 14.0332C33.9019 14.0412 33.8997 14.0491 33.8955 14.056C33.8912 14.0629 33.8851 14.0686 33.8778 14.0724L31.7169 15.1751C31.6794 15.1944 31.6607 15.2242 31.6607 15.2645ZM22.9333 12.0918C22.9593 12.1033 22.9814 12.1219 22.9969 12.1452C23.0123 12.1685 23.0206 12.1957 23.0206 12.2234V18.6075C23.0206 18.6275 23.0149 18.6471 23.0041 18.6641C22.9933 18.6811 22.9778 18.695 22.9595 18.7041L22.65 18.8538C22.6391 18.8593 22.63 18.8676 22.6235 18.8777C22.6171 18.8879 22.6137 18.8995 22.6137 18.9113C22.6137 18.9231 22.6171 18.9346 22.6235 18.9445C22.63 18.9544 22.6391 18.9623 22.65 18.9674L22.9507 19.1123C22.994 19.1332 23.0156 19.1666 23.0156 19.2125C23.0289 21.4066 23.0256 23.5998 23.0056 25.7922C22.9981 26.6594 22.8335 27.8043 22.0724 28.3249C21.6319 28.6268 21.1416 28.5724 20.6488 28.6026C19.209 28.6908 18.9632 26.9976 18.9732 25.9505C18.9794 25.4046 19.1616 25.5108 19.582 25.2778C19.5893 25.2737 19.5953 25.2679 19.5995 25.2609C19.6037 25.2539 19.6059 25.246 19.6059 25.2379C19.6059 25.2298 19.6037 25.2219 19.5995 25.2149C19.5953 25.2079 19.5893 25.2021 19.582 25.198L18.9956 24.8756C18.9499 24.8506 18.9282 24.8132 18.9307 24.7633C18.9665 23.7093 18.8879 22.6646 18.6949 21.6292C18.4816 20.4819 17.9002 19.6956 16.6163 19.6691C15.5949 19.6481 14.9577 20.1989 14.7049 21.3212C14.4811 22.3196 14.3534 23.1397 14.3218 23.7814C14.3202 23.8136 14.3048 23.8373 14.2757 23.8526L13.8564 24.0712C13.8492 24.0752 13.8432 24.081 13.839 24.088C13.8348 24.095 13.8325 24.103 13.8325 24.1111C13.8325 24.1192 13.8348 24.1271 13.839 24.1341C13.8432 24.1411 13.8492 24.1469 13.8564 24.1509L14.252 24.3587C14.2861 24.3772 14.3023 24.4054 14.3006 24.4432C14.1933 26.1775 14.195 27.9114 14.3056 29.6449C14.3081 29.6844 14.2919 29.7133 14.257 29.7319L13.8802 29.9323C13.8702 29.9378 13.862 29.9456 13.8562 29.9551C13.8504 29.9646 13.8473 29.9753 13.8472 29.9863C13.847 29.9974 13.8499 30.0082 13.8555 30.0178C13.861 30.0274 13.8691 30.0354 13.8789 30.041L14.4191 30.3442C14.4389 30.3553 14.4563 30.3701 14.4702 30.388C14.4841 30.4058 14.4943 30.4262 14.5002 30.448C14.6999 31.1638 15.1008 31.748 15.703 32.2005C17.9014 33.8526 20.4042 33.8031 23.088 33.7645C23.1262 33.7637 23.1454 33.7818 23.1454 33.8188V36.9951C23.1454 37.0155 23.1396 37.0353 23.1288 37.0524C23.118 37.0695 23.1026 37.0831 23.0842 37.0918L22.6563 37.2983C22.6442 37.3042 22.6341 37.3132 22.6271 37.3244C22.6201 37.3356 22.6165 37.3484 22.6166 37.3615C22.6167 37.3745 22.6206 37.3873 22.6279 37.3983C22.6351 37.4094 22.6454 37.4182 22.6575 37.4239L23.0792 37.6208C23.0991 37.6297 23.1158 37.6439 23.1275 37.6617C23.1392 37.6795 23.1454 37.7 23.1454 37.721V41.0314C23.1454 41.0692 23.1624 41.0982 23.1965 41.1183C25.2926 42.3502 27.9564 42.2391 30.0475 41.1183C30.0833 41.0998 30.1011 41.0708 30.1011 41.0314V39.4976C30.1011 39.4557 30.1207 39.4251 30.1598 39.4058L30.5166 39.2295C30.5253 39.2253 30.5326 39.2189 30.5376 39.2109C30.5426 39.2029 30.5452 39.1937 30.5451 39.1844C30.545 39.175 30.5421 39.1659 30.5369 39.1581C30.5316 39.1502 30.5241 39.144 30.5154 39.1401L30.156 38.977C30.1194 38.9601 30.1011 38.9319 30.1011 38.8925V34.0012C30.1011 33.9585 30.1207 33.9279 30.1598 33.9094L30.5154 33.7367C30.523 33.733 30.5294 33.7273 30.5338 33.7202C30.5383 33.7132 30.5407 33.7051 30.5407 33.6968C30.5407 33.6886 30.5383 33.6805 30.5338 33.6735C30.5294 33.6664 30.523 33.6607 30.5154 33.657L30.1635 33.4782C30.1219 33.4573 30.1011 33.4243 30.1011 33.3792V30.3164C30.1011 30.2319 30.1448 30.19 30.2321 30.1908C32.4592 30.2162 34.9172 29.9698 36.8323 28.8635C38.1174 28.1208 38.3433 26.9964 38.3458 25.5809C38.3458 25.5318 38.3682 25.4968 38.4131 25.4758L38.8236 25.2826C38.8326 25.2783 38.8401 25.2717 38.8453 25.2634C38.8506 25.2552 38.8534 25.2458 38.8534 25.2361C38.8534 25.2264 38.8506 25.217 38.8453 25.2087C38.8401 25.2005 38.8326 25.1939 38.8236 25.1896L38.4131 24.9927C38.3749 24.9742 38.3545 24.9444 38.352 24.9034C38.2709 23.2922 38.372 21.6509 38.3295 20.0821C38.3292 20.0603 38.3351 20.0389 38.3465 20.0201C38.358 20.0014 38.3745 19.986 38.3944 19.9758L38.8161 19.7572C38.8669 19.7315 38.8669 19.7057 38.8161 19.6799L38.3695 19.4541C38.3505 19.4442 38.3345 19.4298 38.3232 19.4122C38.3118 19.3946 38.3054 19.3745 38.3046 19.3538C38.2697 18.4758 38.2023 16.3828 37.1081 16.1401C33.3638 15.3104 33.4724 19.0761 33.7119 21.3877C33.7169 21.4295 33.7385 21.4601 33.7768 21.4795L33.909 21.5447C33.9506 21.5656 33.9502 21.5853 33.9078 21.6038L33.7144 21.692C33.6761 21.7097 33.6595 21.7387 33.6645 21.779C33.7955 22.9311 33.7044 24.8683 32.035 24.8744C30.181 24.8804 29.9003 23.3454 29.9864 21.9227C29.9889 21.8865 30.0072 21.8603 30.0413 21.8442L30.4692 21.6377C30.4817 21.6314 30.4923 21.6219 30.4995 21.6102C30.5068 21.5985 30.5106 21.5851 30.5105 21.5715C30.5104 21.5578 30.5063 21.5445 30.4988 21.5329C30.4913 21.5213 30.4806 21.512 30.468 21.506L30.1011 21.3321C30.0837 21.3238 30.0692 21.3108 30.0594 21.2947C30.0497 21.2786 30.0451 21.2601 30.0462 21.2415C30.1648 18.9517 30.1011 16.6365 30.1061 14.343C30.1061 14.3003 30.1261 14.2693 30.166 14.25L30.4742 14.1002C30.4858 14.0946 30.4956 14.086 30.5026 14.0754C30.5095 14.0648 30.5133 14.0525 30.5136 14.04C30.5139 14.0274 30.5105 14.015 30.504 14.0041C30.4975 13.9932 30.4881 13.9843 30.4767 13.9782L30.1323 13.7923C30.0999 13.7753 30.0849 13.7496 30.0874 13.715C30.2371 11.3937 29.8391 8.52413 26.801 8.26206C25.1204 8.11834 23.3338 8.72462 23.0518 10.5495C23.0031 10.8635 23.0243 11.2476 23.0194 11.6002C23.0185 11.6477 22.9961 11.6819 22.952 11.7029L22.6376 11.8551C22.627 11.8599 22.6181 11.8676 22.6119 11.8772C22.6057 11.8868 22.6025 11.8979 22.6026 11.9092C22.6028 11.9205 22.6062 11.9315 22.6127 11.941C22.6191 11.9504 22.6281 11.9579 22.6388 11.9625L22.9333 12.0918ZM32.03 23.3514L32.1461 22.6389C32.147 22.6341 32.1469 22.6292 32.1458 22.6245C32.1447 22.6198 32.1426 22.6153 32.1397 22.6114C32.1368 22.6074 32.1331 22.6041 32.1288 22.6015C32.1246 22.599 32.1198 22.5973 32.1149 22.5966L32.0587 22.5881C32.0047 22.5799 31.9495 22.5818 31.8964 22.5939C31.8432 22.6059 31.7931 22.6278 31.749 22.6583C31.7049 22.6888 31.6675 22.7274 31.6391 22.7717C31.6107 22.816 31.5917 22.8653 31.5834 22.9166L31.5821 22.9191C31.5738 22.9705 31.5761 23.023 31.5891 23.0736C31.6021 23.1243 31.6254 23.172 31.6577 23.2142C31.69 23.2564 31.7307 23.2921 31.7775 23.3194C31.8243 23.3467 31.8762 23.3649 31.9302 23.3732L31.9864 23.3816C31.9913 23.3825 31.9963 23.3824 32.0012 23.3813C32.0061 23.3803 32.0107 23.3783 32.0148 23.3755C32.0189 23.3726 32.0223 23.3691 32.0249 23.3649C32.0275 23.3608 32.0293 23.3562 32.03 23.3514ZM20.6887 27.029C20.6923 27.0443 20.7012 27.058 20.7139 27.0679C20.7266 27.0777 20.7423 27.0832 20.7586 27.0833H21.1753C21.1919 27.0834 21.2081 27.0779 21.2211 27.0678C21.234 27.0577 21.243 27.0435 21.2464 27.0278L21.4423 26.1691C21.4453 26.1559 21.4443 26.1421 21.4394 26.1295C21.4345 26.1169 21.4259 26.1059 21.4147 26.0978C21.4035 26.0898 21.3901 26.085 21.3762 26.0842C21.3623 26.0833 21.3484 26.0864 21.3362 26.093L20.6126 26.4746C20.5987 26.4819 20.5876 26.4934 20.581 26.5074C20.5745 26.5213 20.5729 26.537 20.5764 26.5519L20.6887 27.029Z" fill="white"/>
<path d="M81.0134 31.5084L87.5974 17.6908C87.6012 17.6826 87.6073 17.6757 87.615 17.6708C87.6228 17.6658 87.6318 17.6632 87.6411 17.663H88.9723C88.9816 17.6632 88.9906 17.6658 88.9983 17.6708C89.0061 17.6757 89.0122 17.6826 89.016 17.6908L95.4789 31.4191C95.4841 31.4301 95.4847 31.4428 95.4805 31.4542C95.4763 31.4657 95.4677 31.4752 95.4565 31.4807L93.8382 32.2874C93.8323 32.2905 93.8258 32.2923 93.8191 32.2927C93.8124 32.2932 93.8057 32.2924 93.7994 32.2902C93.7931 32.288 93.7873 32.2846 93.7824 32.2802C93.7774 32.2758 93.7735 32.2704 93.7709 32.2645L91.3778 27.0205C91.374 27.0123 91.3679 27.0054 91.3602 27.0005C91.3524 26.9955 91.3434 26.9929 91.3342 26.9927H84.9636C84.9543 26.9929 84.9453 26.9955 84.9375 27.0005C84.9298 27.0054 84.9237 27.0123 84.9199 27.0205L82.4844 32.2681C82.4816 32.274 82.4777 32.2792 82.4727 32.2835C82.4677 32.2878 82.4619 32.2911 82.4556 32.2931C82.4493 32.2951 82.4426 32.2959 82.436 32.2953C82.4294 32.2948 82.4229 32.2929 82.4171 32.2898L81.0346 31.5688C81.0239 31.5632 81.0158 31.5538 81.0119 31.5426C81.0079 31.5314 81.0085 31.5192 81.0134 31.5084ZM85.6049 25.5567C85.6014 25.5646 85.5999 25.5732 85.6007 25.5817C85.6014 25.5902 85.6043 25.5984 85.6092 25.6056C85.614 25.6128 85.6205 25.6187 85.6283 25.6228C85.636 25.6269 85.6447 25.6291 85.6535 25.6292L90.6567 25.6377C90.6656 25.6378 90.6744 25.6357 90.6824 25.6317C90.6903 25.6276 90.697 25.6217 90.702 25.6145C90.7069 25.6073 90.7099 25.5991 90.7107 25.5904C90.7116 25.5818 90.7101 25.5731 90.7066 25.5652L88.215 20.1002C88.2109 20.0909 88.204 20.083 88.1952 20.0774C88.1865 20.0718 88.1762 20.0688 88.1657 20.0688C88.1552 20.0688 88.145 20.0718 88.1362 20.0774C88.1275 20.083 88.1206 20.0909 88.1164 20.1002L85.6049 25.5567Z" fill="white"/>
<path d="M99.7637 20.4215C99.7572 20.4138 99.7484 20.4082 99.7385 20.4055C99.7286 20.4028 99.7181 20.4031 99.7084 20.4064C99.6987 20.4097 99.6903 20.4159 99.6843 20.424C99.6784 20.4321 99.6751 20.4417 99.6751 20.4517L99.7612 31.9698C99.7612 31.9784 99.7595 31.9868 99.7561 31.9948C99.7528 32.0027 99.7479 32.0099 99.7418 32.0159C99.7357 32.022 99.7284 32.0268 99.7203 32.03C99.7123 32.0333 99.7037 32.035 99.695 32.035H98.1018C98.0643 32.035 98.046 32.0173 98.0469 31.9819C98.1234 27.5245 98.1201 23.0672 98.0369 18.6099C98.0366 18.59 98.0421 18.5704 98.053 18.5535C98.0638 18.5366 98.0794 18.523 98.098 18.5145L99.6227 17.8188C99.6792 17.7931 99.7271 17.8039 99.7662 17.8514L108.884 28.9589C108.891 28.9679 108.901 28.9745 108.912 28.9777C108.923 28.9809 108.935 28.9806 108.946 28.9768C108.957 28.9731 108.967 28.966 108.973 28.9567C108.98 28.9474 108.983 28.9364 108.983 28.9251L108.878 18.0024C108.878 17.9856 108.881 17.969 108.888 17.9535C108.894 17.938 108.904 17.9239 108.916 17.912C108.928 17.9 108.943 17.8906 108.958 17.8842C108.974 17.8777 108.992 17.8744 109.009 17.8744H110.505C110.527 17.8744 110.549 17.883 110.565 17.8984C110.581 17.9138 110.59 17.9347 110.59 17.9565L110.58 31.3575C110.58 31.3945 110.562 31.4211 110.527 31.4372L109.182 32.07C109.168 32.0771 109.151 32.0789 109.135 32.0752C109.119 32.0714 109.105 32.0623 109.096 32.0495C105.651 27.5592 102.91 24.2669 99.7637 20.4215Z" fill="white"/>
<path d="M61.2192 24.2778C61.2105 24.2815 61.2034 24.288 61.1989 24.2961C61.1945 24.3043 61.193 24.3137 61.1948 24.3227C61.1965 24.3318 61.2013 24.34 61.2085 24.3461C61.2156 24.3522 61.2247 24.3558 61.2342 24.3563C63.1132 24.5362 64.7314 25.6715 64.8162 27.634C64.936 30.4167 62.3334 31.6679 59.8567 31.9408C58.0938 32.134 56.3059 32.0398 54.5429 31.977C54.5192 31.9761 54.4968 31.9662 54.4805 31.9495C54.4642 31.9328 54.4552 31.9106 54.4556 31.8877C54.5462 27.2564 54.5475 22.6252 54.4593 17.994C54.4586 17.9697 54.4678 17.9461 54.4848 17.9283C54.5018 17.9105 54.5254 17.8998 54.5504 17.8985C56.7875 17.7609 60.7239 17.4517 62.5305 18.9988C63.5274 19.8514 63.7794 21.2476 63.2529 22.4118C62.8462 23.3116 62.1225 23.8575 61.2192 24.2778ZM58.1424 24.058C59.0894 24.0531 60.1949 23.7898 60.8873 23.1522C61.5436 22.5471 61.8381 21.5676 61.4924 20.7524C60.7638 19.0314 57.8542 19.1196 56.3321 19.2609C56.3204 19.2618 56.3094 19.267 56.3013 19.2754C56.2933 19.2839 56.2887 19.2951 56.2884 19.3068C56.2651 22.8881 56.2618 26.4742 56.2784 30.0652C56.2784 30.1554 56.2901 30.3068 56.3134 30.5193C56.3183 30.5652 56.3446 30.5894 56.392 30.5918C58.0476 30.6884 61.4263 30.8176 62.558 29.2041C63.208 28.2754 63.0084 26.913 62.1812 26.1594C61.1356 25.2089 59.6397 25.3055 58.3271 25.3683C58.2789 25.3708 58.2514 25.3486 58.2448 25.3019L58.0826 24.1244C58.0767 24.0809 58.0967 24.0588 58.1424 24.058Z" fill="white"/>
<path d="M74.3434 25.7959C75.9936 27.6115 77.6967 29.3796 79.4526 31.1003C79.4917 31.1373 79.49 31.1727 79.4476 31.2065L78.1488 32.2428C78.1331 32.2552 78.113 32.2613 78.0928 32.2597C78.0725 32.2581 78.0537 32.249 78.0402 32.2343L71.9104 25.5085C71.8983 25.4953 71.8898 25.4795 71.8856 25.4623C71.8814 25.4452 71.8817 25.4274 71.8864 25.4104C71.8911 25.3934 71.9001 25.3777 71.9126 25.3649C71.925 25.3521 71.9406 25.3425 71.9578 25.337C73.5948 24.8164 75.1731 23.715 75.1731 21.8901C75.1743 19.2234 71.9579 19.1993 70.0676 19.2995C70.0494 19.3005 70.0323 19.3082 70.0197 19.3213C70.0072 19.3343 70.0002 19.3516 70.0002 19.3696L70.014 31.9662C70.014 32.0121 69.9899 32.035 69.9416 32.035H68.2835C68.2302 32.035 68.204 32.0093 68.2049 31.9577C68.2914 27.2935 68.2926 22.6296 68.2086 17.9662C68.2086 17.9259 68.2294 17.9042 68.271 17.901C69.6517 17.8076 71.0233 17.8068 72.3858 17.8986C73.9379 18.0024 75.6709 18.4867 76.5243 19.8563C77.9804 22.192 76.417 24.3998 74.3621 25.6703C74.3516 25.6769 74.3427 25.6856 74.336 25.6958C74.3292 25.706 74.3248 25.7175 74.3231 25.7294C74.3213 25.7413 74.3222 25.7534 74.3257 25.7649C74.3292 25.7764 74.3352 25.7869 74.3434 25.7959Z" fill="white"/>
<path d="M115.151 32.0266C115.103 32.0233 115.079 31.9984 115.08 31.9517C115.151 27.2858 115.153 22.62 115.086 17.9541C115.085 17.9058 115.11 17.8812 115.16 17.8804C118.726 17.8309 122.145 17.8345 125.054 20.1026C127.91 22.3321 128.002 26.6944 125.638 29.2077C123.052 31.9553 118.733 32.2741 115.151 32.0266ZM116.898 19.3647V30.5628C116.898 30.5756 116.903 30.5879 116.912 30.5969C116.922 30.606 116.934 30.6111 116.948 30.6111H118.084C120.031 30.6111 121.898 30.0405 123.274 29.0249C124.651 28.0093 125.424 26.6319 125.424 25.1956V24.7319C125.424 23.2956 124.651 21.9182 123.274 20.9026C121.898 19.887 120.031 19.3164 118.084 19.3164H116.948C116.934 19.3164 116.922 19.3215 116.912 19.3306C116.903 19.3396 116.898 19.3519 116.898 19.3647Z" fill="white"/>
<path d="M140.461 22.8502C140.443 22.3808 140.461 21.9803 140.515 21.6486C140.864 19.5254 143.003 18.6691 144.999 18.8961C145.018 18.8983 145.035 18.9062 145.048 18.9186C145.061 18.931 145.07 18.9473 145.073 18.965L145.23 19.9867C145.237 20.0318 145.216 20.0535 145.169 20.0519C143.049 19.9698 141.767 20.5749 141.869 22.8406C141.871 22.8913 141.899 22.9167 141.951 22.9167H144.918C144.981 22.9167 145.012 22.9469 145.012 23.0072V23.9287C145.012 23.9787 144.986 24.0036 144.933 24.0036H141.954C141.929 24.0036 141.904 24.0133 141.887 24.0305C141.869 24.0477 141.859 24.0711 141.859 24.0954L141.903 31.9541C141.903 32.0081 141.876 32.035 141.82 32.035H140.495C140.437 32.035 140.408 32.0068 140.408 31.9505L140.456 24.0785C140.456 24.0286 140.431 24.0036 140.379 24.0036H138.696C138.644 24.0036 138.617 23.9787 138.617 23.9287V22.9915C138.617 22.9416 138.644 22.9167 138.696 22.9167H140.395C140.441 22.9167 140.463 22.8945 140.461 22.8502Z" fill="white"/>
<path d="M172.311 22.9143L172.29 18.9239C172.289 18.8885 172.307 18.8708 172.343 18.8708H173.622C173.71 18.8708 173.754 18.9135 173.754 18.9988L173.751 32.1063C173.751 32.1151 173.747 32.1235 173.741 32.1298C173.735 32.1361 173.727 32.1398 173.718 32.1401C171.697 32.2355 169.57 32.2102 167.738 31.1365C165.375 29.7512 165.086 26.6522 166.947 24.7681C168.211 23.4867 170.402 22.9879 172.231 22.9916C172.285 22.9924 172.312 22.9666 172.311 22.9143ZM172.312 30.9626L172.3 24.2693C172.299 24.2619 172.296 24.2548 172.29 24.2496C172.285 24.2444 172.277 24.2416 172.27 24.2416H171.64C171.062 24.2426 170.491 24.3269 169.958 24.4896C169.425 24.6523 168.94 24.8903 168.533 25.19C168.125 25.4897 167.802 25.8451 167.582 26.2361C167.362 26.6271 167.249 27.0459 167.25 27.4686V27.7826C167.252 28.6361 167.717 29.4538 168.542 30.0558C169.368 30.6578 170.486 30.9948 171.652 30.9928H172.282C172.286 30.9928 172.29 30.992 172.294 30.9905C172.298 30.9889 172.301 30.9867 172.304 30.9839C172.306 30.981 172.309 30.9777 172.31 30.974C172.312 30.9704 172.312 30.9665 172.312 30.9626Z" fill="white"/>
<path d="M134.065 31.9759C130.881 31.6111 128.883 29.2005 129.63 26.0447C130.127 23.9445 131.845 22.5713 134.118 22.7078C136.591 22.8575 137.684 24.9107 137.587 27.0821C137.584 27.1232 137.562 27.1437 137.519 27.1437H130.975C130.968 27.1437 130.962 27.1451 130.955 27.1477C130.949 27.1503 130.943 27.1542 130.938 27.159C130.933 27.1639 130.929 27.1696 130.927 27.1759C130.924 27.1822 130.923 27.1889 130.923 27.1957C130.95 28.3245 131.368 29.2214 132.178 29.8865C133.516 30.9843 135.27 30.878 136.892 30.7923C136.936 30.7899 136.955 30.81 136.949 30.8527L136.802 31.9179C136.795 31.9654 136.768 31.992 136.718 31.9976C135.883 32.0902 134.998 32.083 134.065 31.9759ZM136.101 26.0423C135.768 22.9082 131.712 23.1425 131.063 26.0677C131.056 26.1007 131.07 26.1172 131.105 26.1172H136.032C136.084 26.1172 136.107 26.0922 136.101 26.0423Z" fill="white"/>
<path d="M152.971 32.0036C149.792 32.2959 146.081 31.477 145.743 27.7524C145.607 26.2548 146.145 24.6932 147.294 23.6823C148.943 22.2307 152.014 22.2802 153.238 24.3756C153.674 25.1236 153.876 26.033 153.843 27.1038C153.842 27.1304 153.828 27.1437 153.802 27.1437H147.226C147.214 27.1437 147.203 27.1483 147.195 27.1564C147.186 27.1646 147.181 27.1756 147.181 27.1872C147.197 28.1832 147.529 29.0056 148.177 29.6546C149.495 30.9734 151.415 30.8913 153.145 30.7898C153.192 30.7874 153.212 30.8084 153.206 30.8526L153.072 31.9082C153.068 31.933 153.057 31.9559 153.038 31.9733C153.02 31.9906 152.996 32.0013 152.971 32.0036ZM149.587 23.8055C148.358 23.9662 147.582 24.9625 147.316 26.0688C147.308 26.101 147.321 26.1171 147.355 26.1171H152.308C152.345 26.1171 152.361 26.0994 152.358 26.064C152.221 24.628 151.127 23.6026 149.587 23.8055Z" fill="white"/>
<path d="M157.501 23.8974C158.847 23.2452 160.59 22.2585 162.146 22.9118C163.49 23.4759 163.644 24.5773 163.628 25.9722C163.607 27.9706 163.617 29.9698 163.658 31.9698C163.659 32.0133 163.637 32.035 163.592 32.035L162.213 32.0338C162.207 32.0338 162.2 32.0325 162.193 32.0299C162.187 32.0274 162.182 32.0236 162.177 32.0189C162.172 32.0142 162.168 32.0086 162.166 32.0024C162.163 31.9963 162.162 31.9897 162.162 31.9831C162.201 30.0821 162.217 28.1771 162.21 26.2681C162.206 25.1957 162.042 24.0278 160.629 23.9916C159.644 23.9674 158.453 24.5507 157.576 25.0568C157.468 25.1188 157.414 25.1904 157.414 25.2718C157.392 27.5069 157.398 29.742 157.431 31.9771C157.431 31.9846 157.43 31.9921 157.427 31.9992C157.424 32.0062 157.42 32.0126 157.415 32.018C157.409 32.0234 157.403 32.0277 157.396 32.0306C157.389 32.0335 157.381 32.035 157.374 32.035H156.01C155.968 32.035 155.948 32.0145 155.949 31.9734C156.007 28.9912 156.006 26.0085 155.946 23.0254C155.946 23.0112 155.949 22.997 155.954 22.9839C155.96 22.9707 155.968 22.9587 155.978 22.9486C155.989 22.9385 156.001 22.9305 156.015 22.925C156.028 22.9195 156.043 22.9167 156.057 22.9167H157.364C157.405 22.9167 157.426 22.9368 157.426 22.9771V23.8527C157.426 23.9066 157.451 23.9215 157.501 23.8974Z" fill="white"/>
<path d="M183.147 32.0036C179.955 32.3092 176.266 31.4143 175.966 27.6932C175.765 25.1884 177.429 22.7307 180.196 22.6993C182.942 22.6679 184.127 24.6751 184.089 27.0882C184.089 27.1252 184.069 27.1437 184.03 27.1437H177.454C177.444 27.1437 177.435 27.1455 177.427 27.149C177.418 27.1526 177.411 27.1578 177.404 27.1642C177.398 27.1707 177.393 27.1784 177.391 27.1867C177.388 27.195 177.387 27.2038 177.387 27.2126C177.677 30.5688 180.513 31.0495 183.363 30.7742C183.423 30.7685 183.449 30.7947 183.441 30.8527L183.303 31.8575C183.297 31.8954 183.279 31.9304 183.251 31.9569C183.222 31.9834 183.186 31.9999 183.147 32.0036ZM179.812 23.8068C178.611 23.9601 177.805 24.971 177.553 26.0531C177.543 26.0958 177.561 26.1172 177.607 26.1172H182.535C182.58 26.1172 182.6 26.0958 182.595 26.0531C182.453 24.6232 181.369 23.6087 179.812 23.8068Z" fill="white"/>
<path d="M187.651 24.2077C187.651 24.2166 187.653 24.2253 187.657 24.233C187.662 24.2407 187.668 24.2471 187.676 24.2515C187.684 24.2559 187.693 24.2583 187.702 24.2582C187.711 24.2582 187.72 24.2557 187.728 24.2512C188.855 23.6232 190.038 23.1164 191.275 22.7307C191.284 22.7281 191.292 22.7273 191.301 22.7282C191.31 22.7291 191.318 22.7317 191.325 22.736C191.333 22.7402 191.339 22.7458 191.345 22.7526C191.35 22.7594 191.353 22.7672 191.355 22.7754L191.613 23.9372C191.623 23.9791 191.607 24.0064 191.563 24.0193C190.234 24.4179 188.943 24.9082 187.688 25.4903C187.644 25.5105 187.622 25.5443 187.622 25.5918L187.659 31.9698C187.66 32.0133 187.638 32.035 187.593 32.035H186.276C186.233 32.035 186.211 32.0141 186.211 31.9722L186.2 22.9855C186.2 22.9396 186.223 22.9167 186.27 22.9167H187.572C187.625 22.9167 187.651 22.942 187.651 22.9928V24.2077Z" fill="white"/>
<path d="M193.165 32.0568C193.021 32.0411 192.71 32.1087 192.708 31.8575C192.706 31.5314 192.692 31.2182 192.665 30.9179C192.664 30.9053 192.666 30.8925 192.67 30.8806C192.675 30.8687 192.682 30.8578 192.691 30.8488C192.7 30.8399 192.712 30.833 192.724 30.8286C192.736 30.8243 192.749 30.8226 192.762 30.8237C193.843 30.9131 196.142 31.1558 196.827 30.0979C197.69 28.7681 195.341 27.959 194.641 27.686C193.391 27.1969 192.579 25.9336 193.047 24.6739C193.751 22.7814 196.391 22.7295 198.091 22.907C198.137 22.9119 198.162 22.9368 198.166 22.9819L198.263 24.0302C198.268 24.0866 198.241 24.1128 198.182 24.1087C197.064 24.029 196.094 23.9167 195.102 24.3261C194.14 24.7247 194.194 25.8841 195.111 26.3237C196.198 26.8454 196.88 27.1808 197.157 27.3297C198.614 28.1148 198.998 29.8708 197.794 31.0471C196.748 32.0701 194.648 32.2235 193.165 32.0568Z" fill="white"/>
</svg>
