<svg width="188" height="46" viewBox="0 0 188 46" fill="none" xmlns="http://www.w3.org/2000/svg">
<g clip-path="url(#clip0_425_873)">
<path d="M50.5975 20.8398V5.4972H55.8547C57.0818 5.4972 58.0817 5.84677 58.8567 6.54592C59.6289 7.24506 60.0168 8.1826 60.0168 9.36066C60.0168 10.9307 59.3675 12.044 58.0675 12.7007V12.7431C58.8567 12.9614 59.4829 13.4201 59.9516 14.1192C60.4179 14.8184 60.6534 15.6246 60.6534 16.5419C60.6534 17.8655 60.2153 18.9142 59.3392 19.684C58.4631 20.4559 57.3596 20.8419 56.0312 20.8419H50.5975V20.8398ZM52.1085 12.1531H55.8547C56.6294 12.1531 57.2562 11.9066 57.7389 11.4116C58.2195 10.9165 58.4608 10.2699 58.4608 9.46973C58.4608 8.68371 58.2236 8.05127 57.749 7.57034C57.2744 7.08946 56.6274 6.849 55.8121 6.849H52.1085V12.1531ZM52.1085 19.486H56.0514C56.9864 19.486 57.7227 19.2172 58.264 18.6778C58.8036 18.1403 59.0754 17.4128 59.0754 16.4955C59.0754 15.5781 58.7938 14.8446 58.2339 14.291C57.672 13.7373 56.9378 13.4605 56.0312 13.4605H52.1085V19.486Z" fill="white"/>
<path d="M63.6754 20.8398V5.4972H68.3423C69.5694 5.4972 70.5125 5.64268 71.1675 5.93366C72.6866 6.66109 73.4473 7.94219 73.4473 9.77489C73.4473 10.8074 73.1755 11.7106 72.6364 12.4805C72.0968 13.2524 71.3869 13.7616 70.5107 14.0081V14.0525C70.6244 14.1839 70.7624 14.3879 70.9222 14.6668L74.279 20.8398H72.5267L69.0644 14.3799H65.1887V20.8398H63.6754ZM65.1887 13.024H68.8473C69.7685 13.024 70.5044 12.729 71.0602 12.141C71.616 11.551 71.8936 10.7771 71.8936 9.81732C71.8936 9.20707 71.7516 8.66353 71.4659 8.1907C71.182 7.71788 70.7843 7.36627 70.2712 7.1319C69.8476 6.94399 69.1763 6.849 68.2552 6.849H65.1887V13.024Z" fill="white"/>
<path d="M77.6317 20.8398V5.4972H79.1427V20.8398H77.6317Z" fill="white"/>
<path d="M82.1445 13.0685C82.1445 10.8276 82.8706 8.96258 84.325 7.47138C85.7772 5.98011 87.6287 5.23452 89.8779 5.23452C92.2004 5.23452 94.0542 5.89732 95.4435 7.22079L94.6326 8.33417C94.034 7.8108 93.3097 7.40065 92.4619 7.10159C91.614 6.80455 90.7685 6.65505 89.9206 6.65505C88.0812 6.65505 86.5881 7.26323 85.4424 8.47763C84.2945 9.69203 83.7225 11.2156 83.7225 13.0503C83.7225 14.9133 84.2985 16.4854 85.4528 17.7645C86.6066 19.0435 88.1176 19.684 89.9876 19.684C91.9164 19.684 93.5717 19.0071 94.9586 17.6553L95.8348 18.7242C94.2147 20.3104 92.2489 21.1025 89.9408 21.1025C87.6328 21.1025 85.757 20.3367 84.3106 18.801C82.8666 17.2633 82.1445 15.3538 82.1445 13.0685Z" fill="white"/>
<path d="M98.7939 20.8398V5.4972H100.38V12.1531H103.116L107.467 5.4972H109.284L104.43 12.7431V12.7877L109.606 20.8419H107.745L103.112 13.509H100.382V20.8419H98.7939V20.8398Z" fill="white"/>
<path d="M112.507 20.8398V5.4972H121.161V6.85101H114.02V12.4381H119.869V13.7919H114.02V19.488H121.579V20.8419H112.507V20.8398Z" fill="white"/>
<path d="M124.775 20.8398V5.4972H126.236L134.103 16.544L135.379 18.6131H135.424C135.337 17.7685 135.292 17.0795 135.292 16.5399V5.49518H136.803V20.8378H135.337L127.471 9.79507L126.199 7.72191H126.157C126.244 8.56652 126.286 9.25762 126.286 9.79507V20.8378H124.775V20.8398Z" fill="white"/>
<path d="M141.229 20.8398V5.4972H146.179C148.532 5.4972 150.408 6.17814 151.81 7.53802C153.212 8.89789 153.913 10.771 153.913 13.1574C153.913 15.5579 153.212 17.4391 151.81 18.799C150.407 20.1609 148.53 20.8398 146.179 20.8398H141.229ZM142.74 19.486H146.025C147.954 19.486 149.488 18.9384 150.625 17.8392C151.765 16.74 152.333 15.1801 152.333 13.1574C152.333 11.1489 151.763 9.59704 150.625 8.49781C149.488 7.40065 147.954 6.85101 146.025 6.85101H142.74V19.486Z" fill="white"/>
<path d="M156.365 13.0463C156.365 10.8498 157.114 8.99691 158.61 7.49156C160.107 5.98621 161.973 5.2325 164.208 5.2325C166.457 5.2325 168.326 5.98213 169.816 7.47943C171.307 8.97874 172.051 10.8337 172.051 13.0442C172.051 15.3154 171.307 17.2249 169.816 18.7727C168.326 20.3226 166.457 21.0965 164.208 21.0965C161.973 21.0965 160.107 20.3226 158.61 18.7727C157.114 17.2269 156.365 15.3174 156.365 13.0463ZM157.943 13.0463C157.943 14.9234 158.538 16.4975 159.728 17.7705C160.918 19.0455 162.411 19.68 164.208 19.68C166.005 19.68 167.498 19.0475 168.689 17.7806C169.879 16.5157 170.473 14.9356 170.473 13.0442C170.473 11.2257 169.877 9.70416 168.689 8.48165C167.498 7.26122 166.005 6.64896 164.208 6.64896C162.411 6.64896 160.918 7.2592 159.728 8.48165C158.538 9.70819 157.943 11.2297 157.943 13.0463Z" fill="white"/>
<path d="M175.469 20.8398V5.4972H176.929L184.799 16.544L186.074 18.6131H186.119C186.03 17.7685 185.985 17.0795 185.985 16.5399V5.49518H187.498V20.8378H186.03L178.164 9.79507L176.893 7.72191H176.85C176.937 8.56652 176.98 9.25762 176.98 9.79507V20.8378H175.469V20.8398Z" fill="white"/>
<path d="M25.9241 32.7381C25.8008 32.7365 25.6758 32.7348 25.5525 32.7314C25.821 32.6709 26.0846 32.6001 26.343 32.5211C26.2045 32.5951 26.066 32.6675 25.9241 32.7381ZM19.487 34.8972C19.286 34.6834 19.085 34.463 18.8874 34.2392C19.2792 34.431 19.6745 34.6094 20.0731 34.776C19.8755 34.818 19.6812 34.8585 19.487 34.8972ZM15.3488 35.4524C15.0295 34.6111 14.717 33.694 14.4383 32.7196C15.0684 32.9855 15.7136 33.2329 16.3706 33.4567C16.9416 34.0474 17.5361 34.606 18.1509 35.1344C17.1679 35.2875 16.2254 35.3885 15.3488 35.4524ZM10.1177 35.6813C6.09255 35.0301 3.33765 34.0272 3.33765 34.0272C3.33765 34.0272 3.93897 31.0773 5.54022 27.244C6.7665 28.2401 8.18366 29.2868 9.76121 30.2712V30.4614C9.76294 31.1967 9.78661 31.9153 9.82712 32.6153C9.8778 31.9759 9.95381 31.2489 10.0636 30.458C11.0905 31.0857 12.18 31.6831 13.3235 32.2232C13.7914 33.3608 14.3201 34.4512 14.8859 35.4844C14.0684 35.5349 13.3185 35.5517 12.6563 35.5517C11.4588 35.5517 10.5551 35.4929 10.0872 35.4524C10.0973 35.5282 10.1075 35.6039 10.1177 35.6813Z" fill="#BDBDBD"/>
<path d="M27.245 11.1164C27.0035 11.0726 26.762 11.0339 26.5187 10.9985C26.6893 10.9598 26.8565 10.9228 27.0255 10.8858C27.0981 10.9615 27.1724 11.039 27.245 11.1164ZM32.1654 12.545C31.2769 12.1916 30.3614 11.877 29.4206 11.6162C29.0541 11.2796 28.6808 10.9565 28.3007 10.6451C29.3784 10.4634 30.4137 10.3456 31.3732 10.2733C31.6468 10.9767 31.9153 11.7373 32.1654 12.545ZM17.9449 13.4335C18.1459 13.3174 18.3486 13.208 18.5581 13.1054C18.3503 13.208 18.1459 13.3174 17.9449 13.4335ZM41.5195 18.1655C40.2375 17.1305 38.7511 16.0451 37.0992 15.0372C37.0924 14.3624 37.0688 13.6994 37.0299 13.0566C36.986 13.6035 36.9252 14.2177 36.839 14.879C35.6922 14.1908 34.4676 13.5429 33.1805 12.9725C32.7599 12.0234 32.2971 11.113 31.8123 10.2413C32.6906 10.1841 33.4964 10.1639 34.2007 10.1639C35.3965 10.1639 36.3002 10.2228 36.7681 10.2615C36.7512 10.1387 36.736 10.0175 36.7191 9.89805C40.7645 10.5392 43.5633 11.5472 43.6444 11.5757V11.5858C43.6072 11.7608 43.011 14.5442 41.5195 18.1655Z" fill="#BDBDBD"/>
<path d="M32.4641 27.5334C32.7074 27.0908 32.9202 26.6297 33.0992 26.1535C33.1009 26.1501 33.1043 26.1467 33.106 26.1417C32.927 26.6213 32.7108 27.0858 32.4641 27.5334ZM26.3429 32.5211C26.3615 32.511 26.3801 32.5009 26.3986 32.4908C28.1722 31.9372 29.716 30.9426 30.9254 29.6519C30.8004 29.8606 30.6721 30.0642 30.5403 30.2662C30.3308 30.384 30.118 30.4984 29.9035 30.6078C28.8732 31.4508 27.6722 32.1121 26.3429 32.5211ZM26.0355 35.3632C25.7163 35.2657 25.397 35.163 25.0744 35.0536C25.598 34.8955 26.1183 34.7171 26.6351 34.5185C26.7635 34.5 26.8919 34.4815 27.0202 34.4613C26.6943 34.7743 26.3649 35.0755 26.0355 35.3632ZM22.7282 37.9042C22.029 37.3354 21.2976 36.696 20.5663 35.9909C21.2486 35.9085 21.931 35.8008 22.6168 35.6662C23.4073 35.8933 24.2028 36.0801 24.9984 36.2316C24.2231 36.8542 23.4563 37.4112 22.7282 37.9042ZM11.6107 42.6513C11.6107 42.6513 10.653 39.799 10.1158 35.6813C11.6783 35.9337 13.4315 36.1323 15.2878 36.1996C15.6882 36.8946 16.102 37.5593 16.5209 38.1954C16.2438 37.6165 15.9449 36.9501 15.646 36.2114C15.9128 36.2181 16.1797 36.2232 16.45 36.2232H16.7827C17.6256 36.2198 18.4853 36.1861 19.3535 36.1155C20.3298 36.8677 21.3347 37.5475 22.3432 38.1617C20.4243 39.4255 18.8299 40.2164 18.1694 40.526C18.2167 40.5865 18.2624 40.6488 18.3096 40.7094C14.5008 42.1481 11.6107 42.6513 11.6107 42.6513Z" fill="#BDBDBD"/>
<path d="M26.2029 32.7398C26.1099 32.7398 26.0171 32.7381 25.9241 32.7381C26.0643 32.6675 26.2028 32.5934 26.343 32.5194C27.6724 32.1105 28.8733 31.4492 29.9036 30.6061C30.1181 30.495 30.331 30.3806 30.5404 30.2645C30.0033 31.0874 29.4155 31.8614 28.7922 32.5884C27.9443 32.686 27.0795 32.7398 26.2029 32.7398ZM25.0746 35.0553C24.7654 34.9493 24.4546 34.8382 24.1456 34.7187C24.9867 34.7003 25.8177 34.6329 26.6353 34.5185C26.1184 34.7171 25.5982 34.8954 25.0746 35.0553ZM20.5664 35.9909C20.2049 35.6426 19.8434 35.2775 19.4853 34.8972C19.6796 34.8585 19.8738 34.818 20.0714 34.7743C20.9076 35.1226 21.7588 35.4188 22.6152 35.6645C21.9328 35.8008 21.2487 35.9085 20.5664 35.9909ZM15.2897 36.1996C13.4317 36.1323 11.6784 35.9337 10.1177 35.6796C10.1076 35.6039 10.0974 35.5282 10.089 35.4508C10.5568 35.4895 11.4605 35.5501 12.658 35.5501C13.3202 35.5501 14.0701 35.5315 14.8877 35.4827C15.0194 35.725 15.1528 35.964 15.2897 36.1996ZM16.7845 36.2232H16.4518C16.1815 36.2215 15.9129 36.2181 15.6461 36.2114C15.5464 35.9657 15.4484 35.7133 15.3488 35.4524C16.2254 35.3885 17.1679 35.2875 18.1509 35.1344C18.5462 35.4743 18.9466 35.8008 19.3553 36.1155C18.4871 36.1861 17.6273 36.2198 16.7845 36.2232Z" fill="#BDBDBD"/>
<path d="M37.0991 15.0372C37.0129 14.985 36.9251 14.9311 36.8373 14.879C36.9234 14.216 36.9842 13.6035 37.0281 13.0549C37.067 13.6994 37.0923 14.3623 37.0991 15.0372Z" fill="#BDBDBD"/>
<path d="M36.7191 9.89799C35.0908 9.64057 33.2581 9.44196 31.3208 9.39147C30.9762 8.80929 30.6215 8.24889 30.2651 7.7104C30.5032 8.20686 30.7583 8.7672 31.015 9.38475C30.7954 9.38141 30.5759 9.37975 30.3546 9.37975C29.2229 9.37975 28.0625 9.43356 26.8903 9.55638C26.0491 8.94556 25.191 8.3835 24.3313 7.87198C26.3092 6.5577 27.9612 5.73822 28.6368 5.42186C28.5608 5.32258 28.4864 5.22498 28.4104 5.12906C32.2903 3.64823 35.2479 3.13499 35.2479 3.13499C35.2479 3.13499 36.1769 5.888 36.7191 9.89799ZM22.9564 10.2514C22.47 10.1437 21.9818 10.0494 21.4954 9.96699C22.3382 9.27371 23.176 8.65611 23.9698 8.11428C24.5593 8.58883 25.1759 9.11553 25.7975 9.68932C24.8515 9.82566 23.9006 10.0091 22.9564 10.2514ZM20.2877 11.0137C20.3619 10.9447 20.4363 10.8774 20.5123 10.8101C20.6153 10.8387 20.7201 10.8689 20.8231 10.9009C20.7673 10.9211 20.7099 10.9413 20.6541 10.9615C20.5343 10.9784 20.4093 10.9969 20.2877 11.0137ZM18.5631 13.102C18.7962 12.9876 19.0309 12.8816 19.2725 12.784H19.2742C19.0327 12.8816 18.7962 12.9876 18.5631 13.102ZM18.558 13.1053C18.5597 13.1037 18.5597 13.1037 18.5597 13.1037C18.5597 13.1053 18.5597 13.1053 18.558 13.1053ZM12.7881 21.2802C12.8337 20.8999 12.9013 20.523 12.9857 20.1528C12.9013 20.5196 12.8371 20.8932 12.7915 21.2718C12.7915 21.2752 12.7898 21.2768 12.7881 21.2802Z" fill="#BDBDBD"/>
<path d="M9.8255 32.6136C9.78498 31.9153 9.76132 31.1951 9.75964 30.4597V30.2696C9.85926 30.3318 9.96228 30.394 10.062 30.4563C9.95218 31.2472 9.87785 31.9742 9.8255 32.6136Z" fill="#BDBDBD"/>
<path d="M36.7664 10.2615C36.2985 10.2228 35.3965 10.1639 34.1989 10.1639C33.4946 10.1639 32.6889 10.1841 31.8106 10.2413C31.6501 9.95354 31.4863 9.6692 31.3207 9.39153C33.2581 9.44202 35.0907 9.64057 36.719 9.89972C36.7343 10.0175 36.7511 10.1387 36.7664 10.2615ZM28.3006 10.6435C27.8379 10.2632 27.3666 9.89972 26.8903 9.55305C28.0625 9.43023 29.2229 9.37635 30.3546 9.37635C30.5758 9.37635 30.7971 9.37808 31.015 9.38308C31.1349 9.66748 31.2531 9.96366 31.3731 10.2716C30.4154 10.3456 29.38 10.4634 28.3006 10.6435ZM20.6558 10.9615C20.7133 10.9413 20.769 10.9195 20.8247 10.901C20.8551 10.911 20.8872 10.9195 20.9176 10.9279C20.8315 10.9397 20.7437 10.9498 20.6558 10.9615ZM26.5186 10.9969C26.0676 10.9313 25.6133 10.8791 25.1556 10.8421C24.4259 10.6098 23.6928 10.4146 22.9563 10.2514C23.9023 10.0091 24.8515 9.82566 25.7991 9.68938C26.2078 10.068 26.6183 10.4668 27.0254 10.8858C26.8548 10.9211 26.6876 10.9582 26.5186 10.9969ZM17.9465 13.4335C18.1104 13.24 18.2776 13.0499 18.4465 12.863C18.7218 12.8328 18.9971 12.8058 19.2742 12.784C19.0326 12.8816 18.7962 12.9876 18.5647 13.1037C18.5631 13.1037 18.5614 13.1054 18.5614 13.1054C18.5597 13.1071 18.5597 13.1071 18.558 13.1071C18.3485 13.208 18.1459 13.3174 17.9465 13.4335Z" fill="#BDBDBD"/>
<path d="M33.1061 26.1417C33.1737 25.9617 33.2362 25.7799 33.2936 25.5948C33.2902 25.6806 33.2868 25.7664 33.2818 25.8523C33.2243 25.9482 33.1669 26.0458 33.1061 26.1417ZM30.9255 29.6519C30.9272 29.6503 30.9289 29.6469 30.9289 29.6452C31.5251 29.0074 32.042 28.2973 32.4625 27.535C32.042 28.3007 31.5251 29.0125 30.9255 29.6519ZM31.4677 32.1475C31.6602 31.927 31.8511 31.7015 32.0369 31.4727C32.1382 31.3953 32.2396 31.3145 32.3393 31.2354C32.2649 31.4946 32.1856 31.7503 32.1045 32.0028C31.895 32.0533 31.6822 32.1004 31.4677 32.1475ZM30.3529 36.351C29.4611 36.2063 28.5084 36.0178 27.5203 35.7721C28.3091 35.1798 29.0776 34.542 29.8141 33.8521C30.4441 33.6754 31.064 33.4768 31.6721 33.2598C31.2582 34.3788 30.8039 35.4188 30.3529 36.351ZM23.105 46C23.105 46 20.8467 44.0059 18.3131 40.7077C19.7927 40.149 21.4109 39.4473 23.0544 38.5807C23.7486 38.9829 24.4428 39.3531 25.1252 39.6947V39.6963C24.5948 39.3312 24.0003 38.9038 23.3685 38.4124C24.4276 37.8403 25.4917 37.1991 26.5322 36.4806C27.7551 36.6455 28.9678 36.7347 30.1485 36.7633C29.1215 38.8146 28.1385 40.2938 27.7213 40.8911C27.794 40.9197 27.8632 40.95 27.9341 40.9803C25.3549 44.1254 23.105 46 23.105 46Z" fill="#BDBDBD"/>
<path d="M32.0369 31.4727C32.1601 31.3196 32.2835 31.1648 32.4034 31.0083C32.3831 31.084 32.3612 31.1597 32.3392 31.2354C32.2379 31.3146 32.1365 31.3936 32.0369 31.4727Z" fill="#BDBDBD"/>
<path d="M30.542 30.2662C30.6738 30.0642 30.8021 29.8589 30.9271 29.6519C31.525 29.0125 32.0436 28.3007 32.4658 27.535C32.7125 27.0874 32.927 26.623 33.1077 26.1434C33.1668 26.0474 33.226 25.9499 33.2834 25.854C33.2327 26.8282 33.1111 27.7857 32.9388 28.7197C32.1821 29.2716 31.3832 29.7949 30.542 30.2662ZM30.9693 32.2501C31.3342 32.0011 31.6905 31.742 32.0368 31.4727C31.8511 31.7015 31.6602 31.927 31.4676 32.1475C31.3021 32.1828 31.1365 32.2182 30.9693 32.2501ZM27.5185 35.7721C27.0304 35.651 26.5355 35.5147 26.0338 35.3632C26.3649 35.0755 26.6926 34.7743 27.0186 34.4612C27.9695 34.3132 28.9019 34.1062 29.8123 33.8521C29.0776 34.542 28.309 35.1798 27.5185 35.7721ZM23.3685 38.4124C23.159 38.2492 22.9462 38.0809 22.73 37.9042C23.4563 37.4112 24.2248 36.8542 24.9984 36.2316C25.5119 36.3291 26.0237 36.4116 26.5321 36.4806C25.4916 37.1991 24.4258 37.8402 23.3685 38.4124ZM18.3113 40.7077C18.264 40.6471 18.2184 40.5848 18.1711 40.5243C18.8316 40.2146 20.4261 39.4237 22.3449 38.16C22.5813 38.3047 22.8178 38.4427 23.0526 38.579C21.4108 39.449 19.7909 40.149 18.3113 40.7077Z" fill="#BDBDBD"/>
<path d="M28.7938 32.5901C29.4154 31.8631 30.0049 31.089 30.542 30.2662C31.3832 29.795 32.1838 29.2734 32.9371 28.718C32.7919 29.5022 32.6111 30.2662 32.4034 31.0083C32.2835 31.1648 32.1602 31.3213 32.0368 31.4727C31.6906 31.742 31.3359 32.0011 30.9694 32.2501C30.2599 32.3915 29.5336 32.506 28.7938 32.5901Z" fill="#BDBDBD"/>
<path d="M14.886 35.4827C14.3201 34.4495 13.7898 33.3591 13.3236 32.2216C13.6884 32.3932 14.0617 32.5598 14.4384 32.7197C14.7171 33.694 15.0296 34.6111 15.3488 35.4525C15.1934 35.4642 15.038 35.4743 14.886 35.4827Z" fill="#BDBDBD"/>
<path d="M16.5227 38.1937C16.1038 37.5593 15.69 36.8929 15.2897 36.1996C15.4079 36.203 15.5278 36.2064 15.6477 36.2097C15.9467 36.9501 16.2457 37.6148 16.5227 38.1937Z" fill="#BDBDBD"/>
<path d="M15.646 36.2097C15.5278 36.2063 15.4078 36.203 15.2896 36.1979C15.1545 35.9623 15.0193 35.7234 14.8876 35.4827C15.0379 35.4727 15.1933 35.4626 15.3487 35.4524C15.4467 35.7133 15.5463 35.9657 15.646 36.2097Z" fill="#BDBDBD"/>
<path d="M33.6281 20.8107C33.6247 20.7938 33.623 20.777 33.6196 20.7602C33.5706 20.4792 33.5065 20.2066 33.4372 19.9373C33.4372 19.9205 33.4372 19.9053 33.4355 19.8886C33.5099 20.173 33.5706 20.464 33.6213 20.7602C33.6231 20.7669 33.6247 20.7754 33.6247 20.7821C33.6264 20.7922 33.6281 20.8023 33.6281 20.8107ZM33.7126 21.435C33.7024 21.3341 33.6906 21.2314 33.6771 21.1287C33.6787 21.1304 33.6787 21.1304 33.6787 21.1304C33.6906 21.2314 33.7007 21.3341 33.7126 21.435ZM12.8067 23.8834C12.8016 23.8464 12.7966 23.8094 12.7932 23.7707C12.7983 23.8094 12.8016 23.8464 12.8067 23.8834ZM13.3692 26.1383C13.251 25.8169 13.1445 25.4888 13.0567 25.1539C12.979 24.8544 12.9115 24.5481 12.8608 24.2368C12.8591 24.2318 12.8591 24.2284 12.8591 24.225C12.8591 24.2284 12.8608 24.2318 12.8608 24.2368C12.9706 24.8914 13.1463 25.5157 13.3675 26.1164C13.3692 26.1248 13.3692 26.1316 13.3692 26.1383Z" fill="#BDBDBD"/>
<path d="M33.1788 12.9724C32.8443 12.8243 32.5065 12.683 32.1654 12.545C31.9154 11.739 31.6468 10.9766 31.3732 10.2716C31.5201 10.2598 31.6654 10.2497 31.8107 10.2413C32.2971 11.1113 32.7582 12.0233 33.1788 12.9724Z" fill="#BDBDBD"/>
<path d="M31.3207 9.38986C31.2193 9.38647 31.118 9.3848 31.015 9.38314C30.7565 8.76553 30.5015 8.20519 30.265 7.70874C30.6214 8.24722 30.9761 8.80929 31.3207 9.38986Z" fill="#BDBDBD"/>
<path d="M31.3731 10.2716C31.2549 9.96366 31.1349 9.66748 31.015 9.38314C31.1164 9.38481 31.2194 9.38814 31.3207 9.38987C31.4863 9.66748 31.6501 9.95187 31.8106 10.2397C31.667 10.2497 31.52 10.2615 31.3731 10.2716Z" fill="#BDBDBD"/>
<path d="M19.7251 9.72636C18.6897 9.61699 17.6661 9.55811 16.6662 9.54126C17.7202 7.41761 18.7387 5.88461 19.1643 5.27714C19.0495 5.22834 18.9363 5.18291 18.8231 5.13579C21.4395 1.92003 23.7451 0 23.7451 0C23.7451 0 25.9291 1.92676 28.4121 5.12569C26.8717 5.71298 25.1859 6.4534 23.48 7.37553C22.8905 7.04404 22.306 6.73612 21.7267 6.44834C22.1793 6.75798 22.681 7.1181 23.2114 7.52198C22.0426 8.16811 20.8669 8.89847 19.7251 9.72636ZM15.4601 12.2539C15.7845 11.4277 16.1308 10.6502 16.4753 9.93336C17.2253 10.0494 18.0225 10.1992 18.8502 10.386C18.3401 10.7865 17.8401 11.2055 17.352 11.6464C16.7101 11.8282 16.0784 12.0301 15.4601 12.2539ZM14.7389 14.2833C14.8234 14.0123 14.9129 13.7448 15.0041 13.4823C15.222 13.4284 15.4416 13.3779 15.6628 13.3292C15.4484 13.5664 15.2355 13.8104 15.0277 14.0578C14.9315 14.1318 14.8352 14.2076 14.7389 14.2833ZM13.9011 17.6724C14.3809 16.7519 14.994 15.9038 15.722 15.1617C16.3756 14.4936 17.1223 13.9097 17.9448 13.4335C17.9381 13.4419 17.9296 13.452 17.9212 13.4604C16.1983 14.4684 14.8099 15.9374 13.9011 17.6724Z" fill="#BDBDBD"/>
<path d="M14.6731 14.4936C14.6951 14.423 14.717 14.354 14.739 14.2833C14.8353 14.2076 14.9315 14.1318 15.0295 14.0561C14.9096 14.2008 14.7914 14.3456 14.6731 14.4936ZM15.7237 15.1617C16.3774 14.4936 17.124 13.9097 17.9466 13.4335C17.124 13.9114 16.3774 14.4953 15.7237 15.1617Z" fill="#BDBDBD"/>
<path d="M24.333 7.87031C24.0492 7.70034 23.7637 7.5371 23.4816 7.37553C25.1859 6.45507 26.8717 5.71467 28.4138 5.1257C28.4881 5.2233 28.5641 5.3209 28.6384 5.4185C27.9628 5.73486 26.3109 6.55603 24.333 7.87031ZM21.4936 9.96699C20.9024 9.86775 20.3112 9.78863 19.7251 9.72636C20.8653 8.90014 22.0409 8.16811 23.2131 7.52198C23.4597 7.70874 23.713 7.90728 23.9698 8.11428C23.1759 8.65444 22.3381 9.27372 21.4936 9.96699ZM17.352 11.6481C17.8384 11.2072 18.3401 10.7865 18.8502 10.386C19.3941 10.5089 19.9498 10.6502 20.5139 10.8101C20.4396 10.8774 20.3653 10.9464 20.2893 11.0137C19.2876 11.1635 18.308 11.3788 17.352 11.6481ZM15.0295 14.0578C15.2355 13.8087 15.4484 13.5664 15.6645 13.3292C15.8436 13.2904 16.0226 13.2517 16.2034 13.2148C15.7997 13.484 15.4095 13.765 15.0295 14.0578ZM13.9011 17.6724C13.9518 17.3829 14.0076 17.0969 14.0684 16.8125C14.2812 16.656 14.4974 16.5012 14.7187 16.3497C15.0227 15.9307 15.3588 15.5336 15.722 15.1617C14.9956 15.9055 14.3809 16.7519 13.9011 17.6724Z" fill="#BDBDBD"/>
<path d="M14.0685 16.8125C14.2374 16.0182 14.4435 15.2408 14.6732 14.4936C14.7897 14.3456 14.908 14.2008 15.0296 14.0578C15.4096 13.7667 15.7998 13.4856 16.2035 13.2164C16.9332 13.07 17.6831 12.9506 18.4466 12.8647C18.2777 13.0515 18.1105 13.2417 17.9466 13.4352C17.124 13.9114 16.3775 14.4953 15.7238 15.1634C15.3606 15.5353 15.0245 15.9324 14.7204 16.3514C14.4992 16.5012 14.2813 16.656 14.0685 16.8125Z" fill="#BDBDBD"/>
<path d="M14.8504 28.8207C14.8471 28.8173 14.8437 28.8156 14.8386 28.8123C14.2289 28.0113 13.7289 27.1144 13.3691 26.1417C13.3691 26.14 13.3691 26.14 13.3691 26.14C13.7323 27.116 14.2356 28.0163 14.8504 28.8207Z" fill="#BDBDBD"/>
<path d="M18.151 35.1344C17.5379 34.6077 16.9416 34.0474 16.3707 33.4567C17.1071 33.7058 17.8588 33.9245 18.6256 34.1079C18.7117 34.1517 18.7996 34.1954 18.8858 34.2375C19.0834 34.463 19.2843 34.6818 19.487 34.8972C19.0361 34.988 18.5885 35.0671 18.151 35.1344Z" fill="#BDBDBD"/>
<path d="M22.3449 38.16C21.3366 37.5458 20.3299 36.866 19.3552 36.1137C19.7573 36.0801 20.1609 36.0397 20.5663 35.9909C21.2977 36.696 22.0291 37.3354 22.7284 37.9042C22.6 37.9917 22.4716 38.0775 22.3449 38.16Z" fill="#BDBDBD"/>
<path d="M19.3553 36.1137C18.9483 35.7991 18.5462 35.4726 18.151 35.1327C18.5885 35.0654 19.0361 34.9863 19.4871 34.8971C19.8435 35.2774 20.2049 35.6426 20.5664 35.9909C20.161 36.0414 19.7574 36.0818 19.3553 36.1137Z" fill="#BDBDBD"/>
<path d="M10.8422 14.3607C10.7291 12.2152 10.8321 10.5627 10.8912 9.86942H10.8879C10.7662 9.8862 10.6446 9.89966 10.5247 9.91818C11.1767 5.82906 12.2087 3.01886 12.2087 3.01886C12.2087 3.01886 15.0666 3.6011 18.8232 5.13578C17.7827 6.41298 16.6966 7.89216 15.6831 9.53787C15.0075 9.5446 14.3437 9.56817 13.6985 9.60687C14.2475 9.65063 14.8606 9.70951 15.5244 9.79536C14.9366 10.7697 14.3758 11.7995 13.8674 12.8782C12.8134 13.3309 11.8033 13.8323 10.8422 14.3607ZM11.1834 17.7582C11.0247 16.7098 10.925 15.7086 10.8659 14.7864C11.6479 14.4852 12.4976 14.1874 13.4029 13.9164C13.0752 14.6871 12.7762 15.4797 12.5161 16.2908C12.0516 16.7653 11.6074 17.2567 11.1834 17.7582ZM11.5787 19.8734C11.5179 19.5991 11.4605 19.3265 11.4081 19.0556C11.5686 18.9024 11.7324 18.751 11.8979 18.5996C11.8304 18.9092 11.7695 19.2222 11.7155 19.5352C11.6699 19.6463 11.6226 19.759 11.5787 19.8734Z" fill="#777777"/>
<path d="M11.4081 19.0539C11.3237 18.6147 11.2493 18.1822 11.1835 17.7565C11.6074 17.2567 12.0516 16.7653 12.5161 16.2908C12.2746 17.0447 12.0651 17.8137 11.8963 18.5979C11.7307 18.7493 11.5686 18.9024 11.4081 19.0539Z" fill="#777777"/>
<path d="M11.6279 20.0871C11.6109 20.0164 11.5939 19.9441 11.5786 19.8734C11.6228 19.759 11.6686 19.6463 11.7162 19.5335C11.6839 19.7169 11.655 19.9003 11.6279 20.0871Z" fill="#BDBDBD"/>
<path d="M12.9856 20.1528C13.1833 19.2979 13.4856 18.4768 13.8842 17.706C13.8893 17.6942 13.8961 17.6842 13.9011 17.6724C13.8995 17.6791 13.8995 17.6858 13.8978 17.6926C13.4957 18.4666 13.1883 19.2929 12.9856 20.1528ZM12.7931 23.7724C12.6884 22.931 12.6884 22.0981 12.7829 21.2886C12.7847 21.2853 12.7863 21.2836 12.788 21.2802C12.6901 22.0913 12.6884 22.9277 12.7931 23.7724Z" fill="#BDBDBD"/>
<path d="M12.783 21.2886C12.9316 20.0215 13.31 18.8116 13.8826 17.7077C13.4857 18.4767 13.1833 19.2979 12.9857 20.1544C12.8995 20.5246 12.832 20.8999 12.788 21.2819C12.7864 21.2836 12.7847 21.2852 12.783 21.2886Z" fill="#BDBDBD"/>
<path d="M25.1234 39.6947C24.441 39.3531 23.7468 38.9829 23.0526 38.5807C23.1573 38.5252 23.2621 38.468 23.3685 38.4124C23.9985 38.9021 24.5931 39.3312 25.1234 39.6947Z" fill="#BDBDBD"/>
<path d="M23.0527 38.5807C22.8162 38.4444 22.5798 38.3047 22.345 38.16C22.4717 38.0775 22.5983 37.9917 22.7284 37.9042C22.9463 38.0809 23.1591 38.2492 23.3669 38.4124C23.2621 38.4696 23.1574 38.5252 23.0527 38.5807Z" fill="#BDBDBD"/>
<path d="M16.6662 9.54126C16.5648 9.5396 16.4652 9.53793 16.3655 9.53793H15.7558C15.7304 9.53793 15.7068 9.53793 15.6815 9.53793C16.6932 7.89216 17.781 6.41137 18.8215 5.13581C18.9346 5.18292 19.0478 5.23004 19.1627 5.27716C18.7387 5.88633 17.7202 7.41934 16.6662 9.54126ZM13.8673 12.8816C14.3741 11.8029 14.9349 10.7731 15.5244 9.79875C15.8318 9.83744 16.1493 9.88287 16.4753 9.93502C16.1307 10.6502 15.7862 11.4277 15.4602 12.2556C14.918 12.4491 14.3876 12.6594 13.8673 12.8816ZM12.5178 16.2908C12.7779 15.4797 13.0769 14.6855 13.4028 13.9164C13.9197 13.7616 14.4552 13.6153 15.0041 13.4806C14.9129 13.7448 14.8251 14.0124 14.7389 14.2833C13.9501 14.911 13.2086 15.5841 12.5178 16.2908ZM13.8842 17.706C13.8893 17.6942 13.8961 17.6842 13.9012 17.6724C13.8961 17.6842 13.891 17.696 13.8842 17.706ZM11.7155 19.5335C11.7695 19.2205 11.8303 18.9076 11.8979 18.5979C12.0297 18.4768 12.1648 18.3573 12.3016 18.2378C12.0904 18.6652 11.8962 19.0977 11.7155 19.5335ZM12.8066 23.8835C12.609 23.3888 12.4282 22.8923 12.2661 22.3942C12.4282 22.024 12.5989 21.6555 12.783 21.2886C12.6884 22.0981 12.6884 22.931 12.7931 23.7724C12.7981 23.8094 12.8016 23.8465 12.8066 23.8835ZM13.3691 26.1417C13.2509 25.8203 13.1444 25.4905 13.0566 25.154C13.1444 25.4905 13.2491 25.8187 13.3691 26.1384C13.3691 26.1401 13.3691 26.1401 13.3691 26.1417Z" fill="#777777"/>
<path d="M11.8978 18.5979C12.0684 17.8137 12.2762 17.0447 12.5178 16.2908C13.2103 15.5841 13.9501 14.9093 14.7406 14.2833C14.7186 14.3523 14.6967 14.423 14.6747 14.4936C14.1089 15.2071 13.5819 15.9627 13.1039 16.7603C12.8133 17.2449 12.5464 17.738 12.3016 18.2378C12.1647 18.3573 12.0296 18.4784 11.8978 18.5979Z" fill="#777777"/>
<path d="M12.2662 22.3942C12.0145 21.6201 11.8017 20.8477 11.626 20.0854C11.653 19.9003 11.6834 19.7169 11.7155 19.5318C11.8963 19.096 12.0905 18.6652 12.3017 18.2361C12.8608 17.7464 13.4502 17.2685 14.0701 16.8108C14.0093 17.0952 13.9535 17.3812 13.9012 17.6723C13.8961 17.6841 13.8894 17.6942 13.8843 17.706C13.31 18.8099 12.9317 20.0215 12.783 21.2869C12.6006 21.6555 12.4283 22.024 12.2662 22.3942Z" fill="#777777"/>
<path d="M12.2999 18.2378C12.5449 17.738 12.8134 17.2449 13.1022 16.7603C13.5802 15.961 14.1072 15.2055 14.6731 14.4936C14.4434 15.2408 14.2373 16.0182 14.0684 16.8125C13.4502 17.2685 12.859 17.7481 12.2999 18.2378Z" fill="#777777"/>
<path d="M35.0317 27.0033C35.0874 26.7206 35.1381 26.4345 35.182 26.1485C35.231 26.029 35.2783 25.9078 35.3256 25.7883C35.3898 26.0475 35.4506 26.305 35.5063 26.5624C35.351 26.7105 35.1922 26.8586 35.0317 27.0033ZM33.6483 31.5905C33.9473 30.8501 34.2175 30.0912 34.4523 29.3155C34.9101 28.8493 35.3459 28.368 35.7648 27.8767C35.9387 28.8813 36.0587 29.8506 36.1364 30.7559C35.3661 31.047 34.5317 31.3314 33.6483 31.5905ZM34.7412 43.1763H34.731C34.552 43.1393 31.662 42.5268 27.9325 40.9804C28.9341 39.7587 29.983 38.3451 30.9711 36.7751C31.0015 36.7751 31.032 36.7751 31.0624 36.7751C31.8359 36.7751 32.5927 36.7515 33.3274 36.7095V36.7078C32.6856 36.6573 31.9542 36.5833 31.1603 36.4722C31.8917 35.2842 32.5842 34.0103 33.1889 32.6675C34.2277 32.23 35.2243 31.742 36.1752 31.2237C36.3577 33.7259 36.2394 35.6796 36.1752 36.4503C36.2529 36.4402 36.3289 36.4302 36.4049 36.4217C35.7597 40.3745 34.7699 43.0956 34.7412 43.1763Z" fill="#777777"/>
<path d="M34.4523 29.3154C34.6803 28.5598 34.8762 27.7892 35.0316 27.0033C35.1938 26.8569 35.3525 26.7105 35.508 26.5641C35.6042 27.0067 35.6903 27.4442 35.7663 27.875C35.3474 28.368 34.91 28.8476 34.4523 29.3154Z" fill="#777777"/>
<path d="M35.1837 26.1485C35.2142 25.9533 35.2431 25.7564 35.2686 25.5595C35.289 25.6352 35.3077 25.7126 35.3263 25.7884C35.2805 25.9095 35.2329 26.029 35.1837 26.1485Z" fill="#777777"/>
<path d="M33.4355 19.8902C33.0571 18.4212 32.3764 17.0985 31.4728 15.9728C31.4761 15.9761 31.4812 15.9778 31.4846 15.9811C32.3832 17.1035 33.0588 18.4246 33.4338 19.8869C33.4355 19.8886 33.4355 19.8902 33.4355 19.8902ZM33.2953 25.5948C33.2953 25.5897 33.2953 25.583 33.297 25.5763C33.7007 24.2688 33.8595 22.8671 33.7142 21.4333C33.8595 22.8755 33.7058 24.2822 33.2953 25.5948Z" fill="#BDBDBD"/>
<path d="M29.4222 11.6144C28.7094 11.4158 27.983 11.2476 27.2449 11.1146C27.1706 11.0372 27.098 10.9615 27.0237 10.8858C27.4544 10.7949 27.8817 10.7141 28.3006 10.6435C28.6807 10.9565 29.0556 11.2795 29.4222 11.6144Z" fill="#BDBDBD"/>
<path d="M25.7974 9.68932C25.1758 9.11381 24.5593 8.58877 23.9698 8.11428C24.0931 8.0301 24.2131 7.94932 24.333 7.87025C25.191 8.3835 26.0491 8.94384 26.892 9.55472C26.5271 9.59341 26.1623 9.63717 25.7974 9.68932Z" fill="#BDBDBD"/>
<path d="M27.0237 10.8858C26.615 10.4668 26.2046 10.068 25.7975 9.68932C26.1623 9.63717 26.5271 9.59175 26.8903 9.55305C27.3666 9.89966 27.8379 10.2632 28.3007 10.6418C27.8818 10.7141 27.4545 10.7949 27.0237 10.8858Z" fill="#BDBDBD"/>
<path d="M33.6246 20.7838C33.623 20.7771 33.623 20.7687 33.6213 20.7619C33.5723 20.4658 33.5098 20.1763 33.4355 19.8903C33.4355 19.8886 33.4355 19.8886 33.4355 19.8869C33.5098 20.173 33.5723 20.4641 33.6213 20.7586C33.623 20.7687 33.6246 20.7754 33.6246 20.7838ZM33.2835 25.8523C33.2868 25.7665 33.2919 25.6806 33.2953 25.5949C33.7057 24.284 33.8611 22.8755 33.7125 21.4351C33.7023 21.3341 33.6905 21.2331 33.677 21.1305C34.0216 21.849 34.3222 22.5793 34.5824 23.3114C34.2057 24.1712 33.7766 25.0244 33.2835 25.8523ZM34.6584 27.3348C34.8458 26.9427 35.0215 26.5473 35.1837 26.1501C35.1381 26.4362 35.0874 26.7206 35.0316 27.005C34.9083 27.1144 34.7851 27.2254 34.6584 27.3348ZM32.1044 32.0028C32.1855 31.7504 32.2632 31.4929 32.3376 31.2338C33.0875 30.6313 33.7919 29.9885 34.4523 29.3137C34.2175 30.0912 33.9456 30.8484 33.6483 31.5888C33.1483 31.737 32.6331 31.8766 32.1044 32.0028ZM31.1586 36.4739C30.8968 36.4369 30.6265 36.3965 30.3512 36.3528C30.8039 35.4188 31.2582 34.3806 31.6704 33.2598C32.1855 33.0764 32.6906 32.8779 33.1872 32.6675C32.5825 34.012 31.89 35.2859 31.1586 36.4739ZM27.9324 40.9804C27.8615 40.9517 27.7922 40.9214 27.7213 40.8912C28.1385 40.2955 29.1216 38.8146 30.1485 36.7633C30.4255 36.77 30.6992 36.7734 30.9728 36.7751C29.983 38.3451 28.934 39.7587 27.9324 40.9804Z" fill="#777777"/>
<path d="M32.3376 31.2337C32.3596 31.158 32.3816 31.084 32.4018 31.0066C32.8849 30.3755 33.3393 29.7142 33.7548 29.0175C34.0859 28.4656 34.3848 27.9035 34.6585 27.3331C34.7852 27.2237 34.9101 27.1126 35.0317 27.0016C34.8763 27.7857 34.6821 28.5581 34.4524 29.3137C33.792 29.9885 33.0876 30.633 32.3376 31.2337Z" fill="#777777"/>
<path d="M32.9373 28.7164C33.1095 27.7824 33.2311 26.8249 33.2818 25.8523C33.775 25.0243 34.2057 24.1712 34.5824 23.313C34.8493 24.0635 35.0756 24.814 35.2682 25.5612C35.2428 25.758 35.2141 25.9549 35.1837 26.1501C35.0216 26.5473 34.8459 26.9427 34.6601 27.3348C34.1145 27.8094 33.5402 28.2738 32.9373 28.7164Z" fill="#777777"/>
<path d="M32.4034 31.0083C32.6112 30.2662 32.7936 29.5005 32.9372 28.718C33.5402 28.2755 34.1145 27.811 34.6584 27.3365C34.3847 27.9069 34.0841 28.469 33.753 29.0209C33.3392 29.7142 32.8865 30.3772 32.4034 31.0083Z" fill="#777777"/>
<path d="M23.2132 7.52198C22.6811 7.1181 22.1812 6.7597 21.7285 6.4484C22.3061 6.73613 22.8922 7.04404 23.4818 7.37558C23.3922 7.42434 23.3027 7.47316 23.2132 7.52198Z" fill="#BDBDBD"/>
<path d="M23.9697 8.11429C23.7113 7.90729 23.4596 7.71041 23.213 7.52198C23.3025 7.47149 23.392 7.42434 23.4816 7.37558C23.7654 7.53543 24.0491 7.70034 24.3329 7.87031C24.2129 7.94938 24.0913 8.03016 23.9697 8.11429Z" fill="#BDBDBD"/>
<path d="M35.5366 20.7838C35.4421 20.5078 35.3424 20.2335 35.2376 19.9626C35.1954 19.663 35.1481 19.3652 35.0958 19.0691C35.3457 19.3265 35.5873 19.5857 35.8221 19.8465C35.7325 20.1561 35.6379 20.4691 35.5366 20.7838ZM33.6753 21.1304C33.6702 21.1187 33.6651 21.1069 33.6583 21.0951C33.6448 21.0008 33.6398 20.9067 33.6279 20.8107C33.6465 20.9184 33.6618 21.0244 33.6753 21.1304ZM36.6396 25.4383C36.5264 24.6491 36.3812 23.8582 36.1954 23.0707C36.3862 22.3252 36.5433 21.5747 36.67 20.8259C37.3659 21.6655 37.9858 22.5019 38.5297 23.2911C37.9689 23.9844 37.3389 24.7096 36.6396 25.4383ZM36.4031 36.4217C36.6785 34.7339 36.8896 32.8223 36.9386 30.7963C37.6328 30.3957 38.2983 29.9834 38.9334 29.5662C38.354 29.8404 37.6851 30.1383 36.9453 30.4395C36.947 30.3637 36.947 30.2863 36.9487 30.2106V29.6739C36.9419 28.6692 36.8896 27.6427 36.7832 26.6062C37.5162 25.6402 38.1783 24.6474 38.7746 23.6546C40.0921 25.6234 40.9147 27.2675 41.2322 27.9406H41.2339C41.2575 27.9221 41.2812 27.9035 41.3065 27.885C42.8622 31.8648 43.3993 34.9325 43.3993 34.9325C43.3993 34.9325 40.5363 35.8849 36.4031 36.4217Z" fill="#777777"/>
<path d="M36.7832 26.6061C36.7443 26.2191 36.697 25.8287 36.6412 25.44C37.3388 24.7096 37.9706 23.9844 38.5296 23.2928C38.6124 23.4156 38.6952 23.5351 38.7746 23.6546C38.1767 24.6474 37.5145 25.6402 36.7832 26.6061Z" fill="#777777"/>
<path d="M36.1955 23.0707C36.0147 22.3033 35.7969 21.5393 35.5367 20.7821C35.6381 20.4674 35.7326 20.1561 35.8205 19.8448C36.1144 20.1712 36.3982 20.4994 36.6684 20.8259C36.5434 21.5747 36.3863 22.3252 36.1955 23.0707Z" fill="#777777"/>
<path d="M35.2377 19.9609C35.0671 19.52 34.8813 19.0825 34.6803 18.6501C34.8205 18.788 34.959 18.9277 35.0941 19.0691C35.1482 19.3635 35.1955 19.663 35.2377 19.9609ZM33.677 21.1304C33.6618 21.0227 33.6466 20.9167 33.628 20.8107C33.6263 20.8006 33.6263 20.7922 33.6246 20.7838C33.6449 20.8999 33.6618 21.0144 33.677 21.1304Z" fill="#777777"/>
<path d="M35.3797 21.2583C35.3459 20.8225 35.2986 20.39 35.2378 19.9609C35.3442 20.2335 35.4438 20.5078 35.5384 20.7821C35.4861 20.9403 35.4337 21.1001 35.3797 21.2583ZM35.5081 26.5641C35.4506 26.3066 35.3915 26.0492 35.3273 25.79C35.6753 24.8948 35.9624 23.9861 36.1972 23.0723C36.383 23.8599 36.5299 24.6508 36.6414 25.44C36.28 25.8136 35.9033 26.1922 35.5081 26.5641ZM36.138 30.7558C36.0604 29.8488 35.9404 28.8795 35.7665 27.875C36.1195 27.4576 36.459 27.0336 36.785 26.6044C36.8914 27.6411 36.9421 28.6675 36.9488 29.6721V30.2089C36.9488 30.2847 36.9472 30.3621 36.9472 30.4378C36.6854 30.5438 36.4151 30.6515 36.138 30.7558ZM36.1735 36.4503C36.2377 35.6813 36.356 33.7259 36.1735 31.2236C36.432 31.084 36.687 30.9409 36.9387 30.7963C36.8897 32.8223 36.6786 34.7339 36.4033 36.4217C36.3272 36.4318 36.2512 36.4419 36.1735 36.4503Z" fill="#777777"/>
<path d="M35.7647 27.875C35.6887 27.4442 35.6042 27.0049 35.5062 26.5641C35.9015 26.1905 36.2799 25.8135 36.6397 25.4383C36.6953 25.827 36.7427 26.2174 36.7815 26.6044C36.4572 27.0352 36.1177 27.4593 35.7647 27.875Z" fill="#777777"/>
<path d="M35.3256 25.79C35.307 25.7143 35.2867 25.6369 35.2665 25.5612C35.3695 24.7736 35.4287 23.9743 35.4404 23.1632C35.4422 23.0942 35.4422 23.0252 35.4422 22.9562V22.8115C35.4404 22.2899 35.4168 21.7732 35.378 21.26C35.432 21.1018 35.4844 20.942 35.535 20.7838C35.7952 21.541 36.013 22.3067 36.1938 23.0723C35.9607 23.9861 35.6736 24.8947 35.3256 25.79Z" fill="#777777"/>
<path d="M33.4355 19.8869C33.0589 18.4246 32.3832 17.1036 31.4863 15.9812C32.0961 16.4035 32.6788 16.8545 33.2329 17.324C33.3443 18.1621 33.4169 19.0186 33.4355 19.8869Z" fill="#777777"/>
<path d="M34.5824 23.313C34.3206 22.5793 34.0199 21.849 33.677 21.1322C33.6618 21.0161 33.6432 20.8999 33.6246 20.7838C33.6229 20.7771 33.6229 20.767 33.6213 20.7603C33.5706 20.4641 33.5098 20.173 33.4355 19.8886C33.4152 19.0203 33.3442 18.1638 33.2328 17.3257C33.7378 17.7532 34.2209 18.1974 34.6803 18.6518C34.8813 19.0842 35.0671 19.5218 35.2377 19.9626C35.2968 20.3917 35.3442 20.8242 35.3779 21.2617C35.1448 21.9415 34.8813 22.6298 34.5824 23.313Z" fill="#777777"/>
<path d="M35.2681 25.5594C35.0773 24.814 34.8493 24.0618 34.5824 23.3113C34.8814 22.6281 35.1448 21.9398 35.378 21.2583C35.4185 21.7716 35.4404 22.2881 35.4421 22.8098V22.9545C35.4421 23.0235 35.4404 23.0925 35.4404 23.1632C35.4303 23.9726 35.3695 24.7719 35.2681 25.5594Z" fill="#777777"/>
<path d="M20.8247 10.9009C20.72 10.8706 20.617 10.8404 20.5122 10.8101C20.8382 10.5173 21.1659 10.2362 21.4936 9.96699C21.98 10.0478 22.4665 10.142 22.9546 10.2497C22.2418 10.4331 21.529 10.6485 20.8247 10.9009Z" fill="#BDBDBD"/>
<path d="M20.9176 10.9279C20.8872 10.9178 20.8551 10.9094 20.8247 10.901C21.5291 10.6485 22.2419 10.4331 22.9563 10.2497C23.6928 10.413 24.4258 10.6098 25.1555 10.8404C24.691 10.8033 24.2231 10.7798 23.7519 10.773C23.7266 10.7714 23.6995 10.7714 23.6742 10.7714H23.2773C22.4801 10.7815 21.6946 10.8353 20.9176 10.9279Z" fill="#BDBDBD"/>
<path d="M18.8502 10.386C18.0225 10.1975 17.2253 10.0494 16.4753 9.9333C16.5378 9.80036 16.602 9.67081 16.6662 9.54126C17.6661 9.55805 18.6914 9.61527 19.7252 9.72636C19.4313 9.94003 19.1391 10.1588 18.8502 10.386Z" fill="#BDBDBD"/>
<path d="M20.5123 10.8101C19.9481 10.6502 19.3924 10.5089 18.8485 10.386C19.1374 10.1589 19.4295 9.93842 19.7235 9.72636C20.3113 9.78863 20.9008 9.86942 21.4936 9.96872C21.1677 10.2363 20.8399 10.5173 20.5123 10.8101Z" fill="#BDBDBD"/>
<path d="M15.5244 9.79869C14.8623 9.7129 14.2474 9.6523 13.6985 9.61021C14.342 9.57151 15.0058 9.54799 15.6814 9.53954C15.6308 9.62372 15.5767 9.71118 15.5244 9.79869Z" fill="#777777"/>
<path d="M16.4754 9.93336C16.1494 9.88287 15.8319 9.83745 15.5244 9.79708C15.5768 9.71123 15.6308 9.62372 15.6832 9.53793C15.7085 9.53626 15.7322 9.53626 15.7575 9.53626H16.3656C16.467 9.53793 16.5666 9.53793 16.6679 9.5396C16.6021 9.6692 16.5396 9.80042 16.4754 9.93336Z" fill="#777777"/>
<path d="M20.0715 34.776C19.6728 34.6094 19.2776 34.431 18.8857 34.2392C18.8604 34.2106 18.835 34.182 18.8097 34.1534C19.5326 34.32 20.2708 34.4546 21.019 34.5505C20.7015 34.6313 20.3856 34.7053 20.0715 34.776Z" fill="#BDBDBD"/>
<path d="M24.9984 36.2316C24.2029 36.0801 23.4073 35.8933 22.6168 35.6644C23.4377 35.5029 24.2603 35.301 25.0744 35.0536C25.3971 35.163 25.7163 35.2656 26.0355 35.3615C25.6893 35.6661 25.343 35.9556 24.9984 36.2316Z" fill="#BDBDBD"/>
<path d="M22.6169 35.6662C21.7605 35.4205 20.9092 35.1243 20.0714 34.776C20.3856 34.707 20.7014 34.6313 21.019 34.5505C21.8077 34.6515 22.6084 34.712 23.4208 34.7221C23.4969 34.7238 23.5745 34.7238 23.6506 34.7238H23.7485C23.8803 34.7238 24.012 34.7221 24.1438 34.7187C24.4529 34.8365 24.7637 34.9493 25.0728 35.0553C24.2587 35.3027 23.4378 35.5046 22.6169 35.6662Z" fill="#BDBDBD"/>
<path d="M30.1485 36.765C28.9679 36.7364 27.7551 36.6472 26.5322 36.4823C26.8633 36.2535 27.1927 36.0179 27.5187 35.7722C28.5068 36.0179 29.4594 36.208 30.3512 36.351C30.2837 36.4907 30.2161 36.6304 30.1485 36.765Z" fill="#BDBDBD"/>
<path d="M26.5322 36.4806C26.0221 36.4116 25.5103 36.3291 24.9985 36.2316C25.3448 35.9556 25.6893 35.6644 26.0356 35.3632C26.5356 35.5147 27.0322 35.651 27.5186 35.7721C27.1927 36.0162 26.865 36.2534 26.5322 36.4806Z" fill="#BDBDBD"/>
<path d="M18.8874 34.2391C18.8012 34.1971 18.7135 34.1533 18.6256 34.1096C18.6864 34.123 18.7489 34.1382 18.8114 34.1533C18.8367 34.1819 18.8621 34.2105 18.8874 34.2391Z" fill="#BDBDBD"/>
<path d="M31.0623 36.7751C31.0319 36.7751 31.0015 36.7751 30.9711 36.7751C31.0336 36.6741 31.0961 36.5748 31.1586 36.4739C31.9524 36.5832 32.6838 36.6589 33.3274 36.7094V36.7112C32.5926 36.7515 31.8359 36.7751 31.0623 36.7751Z" fill="#777777"/>
<path d="M30.9711 36.7751C30.6991 36.7734 30.4238 36.77 30.1484 36.7633C30.216 36.6287 30.2836 36.4907 30.3511 36.351C30.6264 36.3948 30.8967 36.4352 31.1585 36.4722C31.096 36.5749 31.0335 36.6741 30.9711 36.7751Z" fill="#777777"/>
<path d="M8.36945 21.674C7.10097 19.7623 6.30708 18.1738 5.99799 17.5159C5.86118 17.6185 5.72774 17.7212 5.59599 17.8221C4.2177 14.1402 3.73462 11.3788 3.73462 11.3788C3.73462 11.3788 6.50135 10.4583 10.5247 9.91651C10.2866 11.4074 10.0991 13.0666 10.0298 14.8218C9.44372 15.165 8.8762 15.5167 8.33401 15.8735C8.83395 15.6362 9.3998 15.3821 10.0197 15.1246C9.98088 16.4086 10.0045 17.7397 10.1211 19.0926C9.48429 19.9407 8.90153 20.8074 8.36945 21.674ZM12.8591 24.225C12.8405 24.1106 12.8236 23.9962 12.8067 23.8834C12.8117 23.8969 12.8185 23.9121 12.8236 23.9255C12.8388 24.0265 12.8439 24.1241 12.8591 24.225ZM10.3052 24.3176C9.68018 23.5469 9.12114 22.7829 8.6279 22.0576C9.11433 21.4653 9.65149 20.8494 10.2376 20.2285C10.3406 21.0581 10.4791 21.8894 10.6616 22.7189C10.5247 23.2524 10.4065 23.7859 10.3052 24.3176ZM11.5263 25.7395C11.4081 25.6099 11.2933 25.482 11.1801 25.3525C11.2139 25.2431 11.2477 25.1337 11.2831 25.0243C11.3591 25.265 11.4402 25.5022 11.5263 25.7395Z" fill="#777777"/>
<path d="M8.62613 22.0577C8.53829 21.9281 8.45217 21.8002 8.36768 21.674C8.89976 20.8057 9.48252 19.9408 10.1176 19.0943C10.1497 19.4713 10.1886 19.8482 10.2358 20.2285C9.6514 20.8478 9.11256 21.4653 8.62613 22.0577Z" fill="#777777"/>
<path d="M11.1784 25.3542C10.8744 25.0092 10.5822 24.6626 10.3035 24.3176C10.4048 23.7841 10.5248 23.2507 10.6599 22.7189C10.8288 23.4897 11.0332 24.2603 11.2798 25.0243C11.2477 25.1354 11.2122 25.2448 11.1784 25.3542Z" fill="#777777"/>
<path d="M12.8608 24.2368C12.8405 24.119 12.8236 24.0012 12.8068 23.8834C12.8219 23.9979 12.8405 24.1106 12.8591 24.225C12.8591 24.2284 12.8608 24.2334 12.8608 24.2368ZM13.0567 25.1539C12.979 24.8544 12.9115 24.5498 12.8608 24.2368C12.9131 24.5498 12.979 24.8544 13.0567 25.1539Z" fill="#BDBDBD"/>
<path d="M10.0282 14.8234C10.0974 13.0666 10.2849 11.4091 10.523 9.91817C10.643 9.90138 10.7646 9.8862 10.8862 9.86941H10.8896C10.8305 10.5627 10.7274 12.2152 10.8406 14.3607C10.567 14.5138 10.2967 14.6669 10.0282 14.8234ZM10.1194 19.0943C10.0028 17.7413 9.97918 16.4103 10.018 15.1264C10.29 15.0136 10.5737 14.8992 10.8659 14.7864C10.925 15.7069 11.0247 16.7081 11.1835 17.7582C10.8136 18.1957 10.4589 18.6416 10.1194 19.0943ZM10.6616 22.7189C10.4791 21.8877 10.3407 21.0564 10.2376 20.2285C10.6092 19.8364 10.9994 19.4443 11.4081 19.0539C11.4605 19.3248 11.5179 19.5974 11.5787 19.8717C11.2088 20.809 10.9065 21.7632 10.6616 22.7189ZM11.5771 25.7951C11.5601 25.7766 11.5433 25.758 11.5264 25.7395C11.4402 25.5022 11.3592 25.2633 11.2814 25.0243C11.3355 24.8544 11.3913 24.6811 11.4504 24.5111C11.4791 24.9419 11.5213 25.371 11.5771 25.7951ZM14.8386 28.8123C14.3606 28.4437 13.9012 28.0601 13.4621 27.6646C13.4148 27.1614 13.3827 26.6533 13.3692 26.14C13.7306 27.1144 14.2289 28.0112 14.8386 28.8123Z" fill="#777777"/>
<path d="M10.2375 20.2285C10.1902 19.8499 10.1514 19.4712 10.1193 19.0943C10.4587 18.6416 10.8135 18.1957 11.1851 17.7565C11.2493 18.1822 11.3236 18.6147 11.4097 19.0539C10.9993 19.4443 10.6074 19.8364 10.2375 20.2285Z" fill="#777777"/>
<path d="M11.2814 25.0243C11.0347 24.2621 10.8304 23.4914 10.6615 22.719C10.9064 21.7615 11.2088 20.8091 11.5787 19.8718C11.5938 19.9424 11.609 20.0131 11.6276 20.0854C11.4959 20.9857 11.4182 21.9028 11.4047 22.8351C11.4047 22.8772 11.403 22.9192 11.403 22.9613V23.2675C11.4064 23.6832 11.4216 24.0988 11.4502 24.5094C11.3911 24.6828 11.3354 24.8544 11.2814 25.0243Z" fill="#777777"/>
<path d="M13.462 27.6646C12.7897 27.0605 12.1597 26.4312 11.5753 25.7951C11.5213 25.3693 11.479 24.9419 11.4503 24.5094C11.6885 23.8061 11.9587 23.0976 12.2678 22.3942C12.43 22.8906 12.609 23.3888 12.8083 23.8818C12.8252 23.9996 12.8421 24.1174 12.8623 24.2352C12.9147 24.5465 12.9806 24.8528 13.0583 25.1523C13.1461 25.4888 13.2509 25.8186 13.3691 26.1383C13.3826 26.6533 13.4147 27.1615 13.462 27.6646Z" fill="#777777"/>
<path d="M11.4504 24.5112C11.4233 24.1006 11.4065 23.6849 11.4031 23.2693V22.963C11.4047 22.9209 11.4047 22.8788 11.4047 22.8368C11.4183 21.9062 11.4943 20.9874 11.626 20.0872C11.8034 20.8494 12.0145 21.6218 12.2662 22.3959C11.9588 23.0993 11.6885 23.8078 11.4504 24.5112Z" fill="#777777"/>
<path d="M32.8511 15.1431C32.6332 14.9547 32.4103 14.7679 32.1839 14.5845C31.9981 14.3455 31.8056 14.1116 31.6113 13.8811C31.9559 13.9787 32.2937 14.083 32.6282 14.1907C32.7059 14.5037 32.7802 14.8218 32.8511 15.1431ZM36.1448 18.6282C35.6516 18.0022 35.1263 17.3879 34.5706 16.799C34.3612 16.0569 34.1213 15.33 33.8545 14.6198C34.8797 15.0001 35.8341 15.4141 36.7022 15.828C36.5637 16.7048 36.383 17.6471 36.1448 18.6282ZM41.3067 27.885C40.7205 26.3874 39.9909 24.7601 39.0906 23.1178C39.4926 22.4261 39.8625 21.7345 40.2037 21.0547C39.8405 21.5831 39.4098 22.1754 38.9183 22.8048C38.3085 21.7177 37.6228 20.6273 36.8543 19.5671C37.0029 18.3657 37.0789 17.1759 37.0975 16.0182C39.2291 17.0682 40.7679 18.0829 41.3793 18.507C41.4283 18.3926 41.4739 18.2798 41.5212 18.1671C44.6916 20.7282 46.6071 22.9882 46.6729 23.0673V23.0723C46.602 23.1481 44.5936 25.3895 41.3067 27.885Z" fill="#585252"/>
<path d="M39.0905 23.1178C39.0331 23.0118 38.9757 22.9091 38.9165 22.8048C39.4081 22.1737 39.8387 21.5831 40.2019 21.0547C39.8624 21.7345 39.4925 22.4245 39.0905 23.1178Z" fill="#5A4A45"/>
<path d="M28.027 11.9712C27.3582 11.6515 26.6757 11.3705 25.9883 11.1248C26.1656 11.081 26.343 11.039 26.5187 10.9985C26.7619 11.0339 27.0034 11.0743 27.245 11.1164C27.5085 11.3923 27.7703 11.6767 28.027 11.9712ZM32.6281 14.1924C32.2953 14.0847 31.9558 13.9804 31.6113 13.8828C30.9255 13.0734 30.1908 12.3178 29.4222 11.6162C30.3613 11.877 31.2785 12.1916 32.167 12.545C32.3291 13.0751 32.4845 13.6254 32.6281 14.1924ZM36.7022 15.8281C35.834 15.4125 34.8779 14.9985 33.8543 14.6199C33.645 14.0595 33.4186 13.5109 33.1787 12.9725C34.4675 13.5429 35.6921 14.1924 36.8373 14.879C36.7984 15.1853 36.7528 15.5017 36.7022 15.8281ZM41.3776 18.5071C40.7661 18.083 39.2274 17.0683 37.0957 16.0199C37.1008 15.6901 37.1025 15.362 37.0991 15.0372C38.751 16.0469 40.2374 17.1322 41.5178 18.1655C41.4721 18.2782 41.4265 18.3926 41.3776 18.5071Z" fill="#5A4A45"/>
<path d="M36.8525 19.5671C36.6244 19.2508 36.3863 18.9378 36.1431 18.6282C36.3812 17.6488 36.5636 16.7048 36.7004 15.8281C36.8339 15.8903 36.9656 15.9542 37.0957 16.0182C37.0771 17.1743 37.0028 18.3657 36.8525 19.5671Z" fill="#5A4C47"/>
<path d="M37.0957 16.0182C36.9656 15.9542 36.8356 15.892 36.7004 15.828C36.7528 15.5016 36.7967 15.1852 36.8372 14.879C36.9267 14.9311 37.0112 14.9833 37.099 15.0372C37.1024 15.3603 37.1024 15.6884 37.0957 16.0182Z" fill="#5A4C45"/>
<path d="M25.9883 11.1231C25.7114 11.0238 25.4326 10.9295 25.1539 10.8404C25.6134 10.8774 26.0661 10.9295 26.517 10.9952C26.3431 11.0372 26.1657 11.0793 25.9883 11.1231Z" fill="#5A4C45"/>
<path d="M34.5705 16.799C34.0283 16.2235 33.4557 15.6698 32.851 15.1448C32.7817 14.8234 32.7057 14.5054 32.6281 14.1941C33.047 14.3304 33.4557 14.4717 33.8543 14.6198C34.1212 15.33 34.3611 16.0569 34.5705 16.799Z" fill="#594E49"/>
<path d="M33.8544 14.6182C33.4558 14.47 33.0453 14.327 32.6281 14.1907C32.4862 13.6236 32.3291 13.0734 32.167 12.5433C32.5082 12.6813 32.846 12.8227 33.1804 12.9707C33.4186 13.5092 33.6449 14.0595 33.8544 14.6182Z" fill="#594D47"/>
<path d="M32.1839 14.5861C31.814 14.2883 31.4339 14.0022 31.0421 13.728C31.233 13.7784 31.4221 13.8289 31.6113 13.8827C31.8056 14.1116 31.9965 14.3472 32.1839 14.5861Z" fill="#4C4B4F"/>
<path d="M31.6113 13.8828C31.4221 13.8289 31.2329 13.7768 31.0421 13.7263C30.6147 13.4268 30.1739 13.1406 29.7178 12.8698C29.1638 12.5416 28.6014 12.2421 28.0288 11.9712C27.7703 11.6784 27.5102 11.3923 27.2467 11.1163C27.9848 11.2492 28.7128 11.4175 29.4239 11.6161C30.1908 12.3178 30.9255 13.0717 31.6113 13.8828Z" fill="#4C4A4E"/>
<path d="M31.4744 15.9728C29.9847 14.9413 28.3294 14.0797 26.5102 13.5109C24.6928 12.9438 22.8399 12.7133 21.0275 12.7133C20.438 12.7133 19.8535 12.7385 19.2742 12.7822C19.9751 12.4995 20.7183 12.2859 21.497 12.1562C22.0291 12.0654 22.5578 12.0318 23.0848 12.025C23.0966 12.02 23.1067 12.0149 23.1185 12.0115C23.1574 12.0099 23.1962 12.0099 23.2351 12.0099C23.4851 12.0099 23.7334 12.02 23.98 12.0368C23.9901 12.0418 23.9986 12.0452 24.007 12.0485C25.1843 12.1327 26.3211 12.4137 27.375 12.863C27.5541 12.9404 27.7314 13.0212 27.9054 13.107C27.9071 13.107 27.9071 13.1087 27.9088 13.1087C28.6334 13.4655 29.3141 13.9046 29.9374 14.4145C29.9391 14.4179 29.9425 14.4213 29.9441 14.4246C30.5049 14.8857 31.0184 15.4057 31.4744 15.9728Z" fill="#585252"/>
<path d="M23.9799 12.0402C23.7333 12.0216 23.485 12.0132 23.2351 12.0132C23.1962 12.0132 23.1574 12.0149 23.1185 12.0149C23.2604 11.9611 23.4039 11.9089 23.5475 11.8584C23.6911 11.9156 23.8347 11.9762 23.9799 12.0402ZM27.9087 13.1104C27.9071 13.1104 27.9071 13.1104 27.9054 13.1104C27.7314 13.0246 27.5541 12.9421 27.375 12.8664C27.5557 12.9421 27.7331 13.0229 27.9087 13.1104Z" fill="#5A4A45"/>
<path d="M20.1238 11.1651C20.1778 11.1146 20.2336 11.0641 20.2876 11.0153C20.4109 10.9968 20.5326 10.98 20.6576 10.9632C20.4785 11.0271 20.3012 11.0945 20.1238 11.1651ZM19.2742 12.7839C19.9751 12.4995 20.7183 12.2875 21.497 12.158C22.0426 12.0671 22.5831 12.0182 23.1185 12.0132C23.1067 12.0182 23.0949 12.0216 23.0831 12.0267C22.5578 12.0334 22.0291 12.0687 21.4953 12.1596C20.7183 12.2892 19.9751 12.5012 19.2742 12.7839Z" fill="#5A4C47"/>
<path d="M18.4465 12.863C18.9888 12.2623 19.5529 11.6952 20.1238 11.1651C20.3012 11.0961 20.4785 11.0271 20.6559 10.9632C20.742 10.9515 20.8299 10.9397 20.9177 10.9295C21.7859 11.1887 22.6676 11.4967 23.5459 11.8567C23.4023 11.9072 23.2605 11.9594 23.1169 12.0132C22.5814 12.0183 22.0409 12.0654 21.4953 12.158C20.7167 12.2892 19.9735 12.5012 19.2725 12.784C18.9972 12.8058 18.7202 12.8311 18.4465 12.863Z" fill="#5A4C45"/>
<path d="M15.0043 13.4806C15.1495 13.0616 15.3032 12.651 15.4586 12.2522C16.0768 12.0284 16.7086 11.8264 17.3504 11.6464C16.766 12.1765 16.2018 12.7352 15.663 13.3275C15.4417 13.3763 15.2222 13.4284 15.0043 13.4806Z" fill="#594E49"/>
<path d="M15.6646 13.3291C16.2034 12.7368 16.7676 12.1782 17.3519 11.6481C18.3063 11.3805 19.2876 11.1651 20.2876 11.0153C20.2335 11.0658 20.1778 11.1163 20.1238 11.1651C19.2741 11.5017 18.438 11.8938 17.6222 12.3481C17.1341 12.6207 16.6611 12.9101 16.2034 13.2164C16.0226 13.2517 15.8419 13.2888 15.6646 13.3291Z" fill="#594D47"/>
<path d="M16.2034 13.2147C16.6611 12.9085 17.134 12.619 17.6222 12.3481C18.438 11.8938 19.2742 11.5017 20.1237 11.1651C19.5528 11.6952 18.9887 12.2606 18.4465 12.863C17.6813 12.9488 16.9331 13.07 16.2034 13.2147Z" fill="#5A4D47"/>
<path d="M10.8659 14.7865C10.8558 14.6434 10.849 14.5021 10.8406 14.3624C11.8017 13.8323 12.8118 13.3309 13.8657 12.8799C13.7053 13.2215 13.5499 13.5664 13.4012 13.9165C12.4993 14.1891 11.648 14.4852 10.8659 14.7865Z" fill="#4C4B4F"/>
<path d="M13.403 13.9165C13.5516 13.5664 13.7069 13.2215 13.8675 12.8799C14.3894 12.6578 14.9197 12.4474 15.4602 12.2522C15.3048 12.651 15.1511 13.0599 15.0058 13.4806C14.4552 13.6153 13.9215 13.7616 13.403 13.9165Z" fill="#4C4A4E"/>
<path d="M31.4863 15.9812C31.4829 15.9778 31.4779 15.9761 31.4745 15.9728C31.0184 15.404 30.5049 14.8857 29.9458 14.4263C29.9442 14.423 29.9408 14.4196 29.9391 14.4162C30.5067 14.8807 31.0252 15.4057 31.4863 15.9812Z" fill="#4C4B4F"/>
<path d="M27.3767 12.8648C26.3228 12.4155 25.186 12.1344 24.0087 12.0503C23.9985 12.0469 23.9901 12.0435 23.9817 12.0385C25.1674 12.1243 26.3109 12.4104 27.3767 12.8648ZM29.9391 14.4162C29.3158 13.9047 28.6351 13.4672 27.9105 13.1087C28.3192 13.1609 28.7246 13.2248 29.1266 13.2972C29.4037 13.6607 29.6756 14.0343 29.9391 14.4162ZM32.9507 15.6295C32.7041 15.2727 32.449 14.9244 32.1839 14.5862C32.4102 14.768 32.6315 14.9547 32.8494 15.1432C32.8849 15.3047 32.9186 15.4663 32.9507 15.6295ZM35.8221 19.8465C35.5873 19.5857 35.3441 19.3266 35.0958 19.0691C34.9573 18.2984 34.78 17.5411 34.5706 16.799C35.1279 17.3897 35.6516 18.0005 36.1448 18.6282C36.0468 19.027 35.9387 19.4343 35.8221 19.8465ZM38.5298 23.2928C37.9876 22.5019 37.366 21.6656 36.6701 20.8276C36.741 20.4069 36.8018 19.9862 36.8542 19.5672C37.6227 20.6273 38.3068 21.7178 38.9183 22.8048C38.7916 22.9647 38.6632 23.1279 38.5298 23.2928ZM41.234 27.9406H41.2323C40.9148 27.2675 40.0921 25.6234 38.7747 23.6546C38.8828 23.4762 38.9875 23.2979 39.0905 23.1178C39.9908 24.7602 40.7205 26.3874 41.3066 27.8851C41.2829 27.9036 41.2577 27.9221 41.234 27.9406Z" fill="#4F4F51"/>
<path d="M38.7747 23.6546C38.6936 23.5352 38.6125 23.414 38.5298 23.2928C38.6632 23.1279 38.7916 22.9647 38.9183 22.8048C38.9774 22.9108 39.0349 23.0135 39.0923 23.1178C38.9875 23.2962 38.8828 23.4762 38.7747 23.6546Z" fill="#504D4F"/>
<path d="M29.1249 13.2989C28.7229 13.2248 28.3192 13.1626 27.9087 13.1104C27.7347 13.0246 27.5557 12.9421 27.375 12.8647C26.3108 12.4103 25.1656 12.1243 23.9799 12.0385C23.8364 11.9762 23.6911 11.9156 23.5475 11.8567C24.3616 11.5673 25.1809 11.3266 25.9899 11.123C26.6774 11.3704 27.3581 11.6515 28.0286 11.9695C28.4019 12.3969 28.7685 12.8378 29.1249 13.2989Z" fill="#504D4F"/>
<path d="M36.6701 20.8259C36.3998 20.4994 36.116 20.1713 35.8221 19.8449C35.9404 19.4343 36.0468 19.027 36.1448 18.6265C36.388 18.9361 36.6245 19.2492 36.8525 19.5655C36.8018 19.9845 36.741 20.4052 36.6701 20.8259Z" fill="#4F4E4F"/>
<path d="M23.5475 11.8567C22.6692 11.4949 21.7858 11.1887 20.9193 10.9295C21.6963 10.8353 22.4817 10.7815 23.279 10.7748H23.6759C23.7029 10.7748 23.7282 10.7748 23.7553 10.7764C24.2248 10.7831 24.6944 10.8051 25.1572 10.8438C25.4359 10.9329 25.7147 11.0272 25.9916 11.1264C25.1792 11.325 24.3617 11.5673 23.5475 11.8567Z" fill="#4F4E4F"/>
<path d="M35.0942 19.0691C34.9573 18.9294 34.8189 18.7897 34.6803 18.6501C34.4607 18.1789 34.2226 17.7128 33.9642 17.2517C33.6483 16.6913 33.3105 16.1494 32.9507 15.6295C32.9186 15.4662 32.8849 15.3047 32.8494 15.1431C33.4541 15.6698 34.0267 16.2235 34.5688 16.7973C34.78 17.5411 34.9557 18.2983 35.0942 19.0691Z" fill="#4E4E4F"/>
<path d="M33.2327 17.3241C32.6787 16.8546 32.096 16.4036 31.4862 15.9812C31.0251 15.404 30.5065 14.8807 29.939 14.4162C29.6772 14.0326 29.4053 13.6607 29.1249 13.2989C29.7768 13.4167 30.417 13.5631 31.042 13.7263C31.4339 14.0006 31.8139 14.2883 32.1838 14.5845C32.449 14.9227 32.7058 15.2711 32.9523 15.6295C33.0604 16.1831 33.1567 16.7503 33.2327 17.3241Z" fill="#4C4D50"/>
<path d="M31.042 13.7263C30.4171 13.563 29.7769 13.4184 29.1249 13.2989C28.7685 12.8378 28.402 12.3952 28.027 11.9695C28.5996 12.2421 29.1638 12.5416 29.7161 12.8698C30.1738 13.1407 30.6147 13.4268 31.042 13.7263Z" fill="#4C4D50"/>
<path d="M34.6803 18.6501C34.2209 18.1974 33.7395 17.7531 33.2327 17.3241C33.1567 16.7485 33.0605 16.1831 32.9507 15.6295C33.3105 16.1494 33.6483 16.6913 33.9641 17.2517C34.2226 17.7128 34.4607 18.1772 34.6803 18.6501Z" fill="#4C4D51"/>
<path d="M8.33228 15.8752C8.87619 15.5201 9.44204 15.1667 10.0298 14.8251C10.0247 14.9244 10.0231 15.027 10.018 15.1264C9.39812 15.3838 8.83227 15.6379 8.33228 15.8752Z" fill="#4F4F51"/>
<path d="M10.0179 15.1264C10.0213 15.0254 10.0247 14.9244 10.0281 14.8234C10.295 14.6687 10.5669 14.5138 10.8405 14.3624C10.8473 14.502 10.8558 14.6434 10.8659 14.7864C10.5737 14.8992 10.2899 15.0136 10.0179 15.1264Z" fill="#4C4D50"/>
<path d="M23.2622 32.9838C22.22 32.9838 21.2031 32.8273 20.237 32.5396C20.0681 32.5278 19.9008 32.5127 19.7336 32.4958C19.5985 32.4067 19.4617 32.3158 19.3282 32.2232C18.0107 31.6949 16.8115 30.9073 15.8065 29.9128C15.8048 29.9094 15.8048 29.9078 15.8031 29.9061C15.4636 29.5678 15.1444 29.2044 14.8522 28.8224C16.5683 30.1433 18.5259 31.259 20.7217 31.9439C22.323 32.442 23.9496 32.6809 25.5542 32.7314C25.3667 32.7735 25.1776 32.8089 24.9884 32.8408C24.4056 32.9367 23.8297 32.9838 23.2622 32.9838Z" fill="#585252"/>
<path d="M22.6287 34.0843C21.6406 33.6334 20.666 33.1067 19.7319 32.4941C19.8991 32.511 20.0663 32.5244 20.2336 32.5379C21.1997 32.8257 22.2182 32.9821 23.2604 32.9821C23.8297 32.9821 24.4056 32.935 24.985 32.8374C25.1758 32.8054 25.365 32.7684 25.5508 32.7264C25.6758 32.7297 25.7991 32.7331 25.9241 32.7348C24.8482 33.2834 23.7384 33.7259 22.6287 34.0843Z" fill="#5A4A45"/>
<path d="M26.6353 34.5185C26.821 34.4478 27.0069 34.3738 27.191 34.2964C27.1336 34.3519 27.0761 34.4075 27.0204 34.4613C26.892 34.4815 26.7636 34.5 26.6353 34.5185Z" fill="#5A4C47"/>
<path d="M24.1455 34.7188C23.6387 34.5252 23.1337 34.3149 22.6304 34.0844C23.7401 33.7259 24.8498 33.2834 25.9257 32.7365C26.0186 32.7382 26.1116 32.7382 26.2044 32.7382C27.0794 32.7382 27.9459 32.6843 28.7955 32.5884C28.2803 33.1908 27.7415 33.7596 27.1925 34.2947C27.0085 34.3721 26.8226 34.4445 26.6368 34.5168C25.8176 34.6313 24.9866 34.7003 24.1455 34.7188Z" fill="#5A4C45"/>
<path d="M29.8141 33.8521C30.3884 33.3153 30.9424 32.7466 31.4677 32.1458C31.6822 32.1004 31.895 32.0516 32.1045 32.0011C31.966 32.4302 31.8224 32.8492 31.6704 33.2581C31.064 33.4786 30.4424 33.6771 29.8141 33.8521Z" fill="#594E49"/>
<path d="M27.0187 34.4613C27.0761 34.4074 27.1335 34.3519 27.1893 34.2964C27.9223 33.9918 28.647 33.6451 29.353 33.2497C29.9104 32.9401 30.4492 32.6052 30.966 32.2501C31.1333 32.2165 31.3005 32.1828 31.4643 32.1475C30.939 32.7465 30.385 33.3153 29.8107 33.8538C28.9037 34.1079 27.9696 34.3149 27.0187 34.4613Z" fill="#594D47"/>
<path d="M27.1909 34.2964C27.7399 33.7612 28.2787 33.1925 28.7939 32.5901C29.5337 32.5059 30.2617 32.3898 30.9694 32.2501C30.4508 32.6052 29.9137 32.9384 29.3563 33.2497C28.6469 33.6435 27.924 33.9918 27.1909 34.2964Z" fill="#5A4D47"/>
<path d="M15.8065 29.9128C15.4602 29.5695 15.1376 29.2027 14.8403 28.8123C14.8437 28.8157 14.8471 28.819 14.8522 28.8224C15.1444 29.206 15.4636 29.5678 15.8031 29.9061C15.8031 29.9078 15.8048 29.9094 15.8065 29.9128Z" fill="#4C4B4F"/>
<path d="M33.1871 32.6692C33.3459 32.3141 33.5013 31.9557 33.6466 31.5922C34.5316 31.3331 35.366 31.047 36.1362 30.7576C36.1498 30.9157 36.1616 31.0723 36.1734 31.227C35.2242 31.742 34.2259 32.23 33.1871 32.6692Z" fill="#4C4B4F"/>
<path d="M31.6704 33.2598C31.8208 32.8509 31.966 32.4319 32.1028 32.0028C32.6332 31.8766 33.1484 31.7386 33.6483 31.5922C33.5014 31.9557 33.3477 32.3141 33.1872 32.6692C32.6907 32.8778 32.1856 33.0764 31.6704 33.2598Z" fill="#4C4A4E"/>
<path d="M9.77139 29.4483C7.71237 28.4252 6.22769 27.4458 5.62807 27.0319C5.59935 27.1026 5.56895 27.1732 5.53854 27.2439C2.42893 24.7147 0.557429 22.5036 0.5 22.4346V22.4312C0.559118 22.3656 2.46103 20.2436 5.59428 17.8238C6.15844 19.3333 6.87462 20.9975 7.7698 22.6904C7.43372 23.2777 7.11951 23.8649 6.82903 24.4438H6.8307C7.14485 23.9911 7.50632 23.4897 7.9134 22.9596C8.52317 24.0921 9.2123 25.2313 9.99267 26.3454C9.86599 27.392 9.79506 28.4303 9.77139 29.4483ZM12.7729 30.771C11.8439 30.4142 10.9774 30.0322 10.1852 29.6503C10.3085 28.8947 10.4656 28.092 10.6615 27.2641C11.1666 27.9288 11.7054 28.5817 12.278 29.2111C12.4283 29.7395 12.5939 30.2594 12.7729 30.771ZM14.5431 31.3936C14.3775 31.3415 14.2137 31.2876 14.0532 31.2321C14.0279 31.1227 14.0026 31.0116 13.9772 30.8989C14.163 31.0689 14.3505 31.232 14.5431 31.3936Z" fill="#585252"/>
<path d="M9.75959 30.2678C8.18371 29.2851 6.76488 28.2384 5.53857 27.2406C5.56729 27.1716 5.59769 27.1009 5.6281 27.0302C6.22604 27.4442 7.7124 28.4236 9.76975 29.4467C9.763 29.7159 9.75959 29.9835 9.75959 30.2494V30.2678ZM13.3236 32.2216C12.1784 31.6831 11.0889 31.0857 10.0636 30.458C10.1008 30.1972 10.1413 29.9279 10.1869 29.6519C10.9791 30.0322 11.8456 30.4143 12.7729 30.7727C12.9436 31.2623 13.1276 31.747 13.3236 32.2216ZM16.3707 33.4567C15.712 33.2329 15.0667 32.9855 14.4383 32.7196C14.2999 32.2384 14.1715 31.742 14.0533 31.2338C14.2154 31.2876 14.3776 31.3415 14.5431 31.3953C14.5938 31.4374 14.6428 31.4795 14.6934 31.5215C15.2204 32.2013 15.7829 32.8458 16.3707 33.4567Z" fill="#5A4A45"/>
<path d="M6.82898 24.4404C7.1212 23.8632 7.43367 23.276 7.76981 22.687C7.81708 22.7762 7.86441 22.8654 7.91168 22.9546C7.5046 23.488 7.14319 23.9861 6.82898 24.4404Z" fill="#5A4A45"/>
<path d="M10.1852 29.6519C10.045 29.5847 9.9065 29.5157 9.76965 29.4483C9.79499 28.432 9.86425 27.392 9.99094 26.342C10.2088 26.6516 10.4318 26.9595 10.6632 27.2641C10.4656 28.0937 10.3102 28.8947 10.1852 29.6519Z" fill="#5A4C47"/>
<path d="M10.0636 30.4563C9.96228 30.3941 9.85926 30.3318 9.75964 30.2679V30.2494C9.76132 29.9835 9.76466 29.7159 9.77142 29.4467C9.90826 29.514 10.045 29.583 10.187 29.6503C10.1414 29.9263 10.1008 30.1955 10.0636 30.4563Z" fill="#5A4C45"/>
<path d="M14.0533 31.2338C13.6159 31.0856 13.1885 30.9325 12.773 30.771C12.5939 30.2578 12.4284 29.7378 12.2798 29.2094C12.8152 29.795 13.3793 30.3604 13.9773 30.9006C14.0009 31.0116 14.0279 31.1227 14.0533 31.2338Z" fill="#594E49"/>
<path d="M14.4383 32.7196C14.0617 32.5614 13.6901 32.3931 13.3236 32.2215C13.1276 31.747 12.9435 31.264 12.7729 30.7727C13.1884 30.9325 13.6158 31.0873 14.0533 31.2354C14.1715 31.742 14.2999 32.2384 14.4383 32.7196Z" fill="#594D47"/>
<path d="M18.6256 34.1096C17.8587 33.9262 17.107 33.7074 16.3706 33.4584C15.7811 32.8475 15.2204 32.203 14.6934 31.5215C15.5379 32.2216 16.4416 32.8694 17.4128 33.4449C17.8131 33.6805 18.2168 33.9026 18.6256 34.1096Z" fill="#4C4A4E"/>
<path d="M36.9387 30.7962C36.9421 30.6784 36.9438 30.559 36.9455 30.4395C37.687 30.1399 38.3541 29.8404 38.9335 29.5661V29.5678C38.2984 29.9834 37.6329 30.3974 36.9387 30.7962Z" fill="#4F4F51"/>
<path d="M36.1734 31.2254C36.1616 31.0705 36.1498 30.9157 36.1362 30.7559C36.4149 30.6515 36.6852 30.5456 36.9454 30.4395C36.9436 30.559 36.9403 30.6784 36.9385 30.7963C36.6886 30.941 36.4335 31.084 36.1734 31.2254Z" fill="#4C4D50"/>
<path d="M7.7698 22.6887C6.87624 20.9975 6.16008 19.3316 5.59424 17.8239C5.72599 17.7212 5.85943 17.6202 5.99624 17.5159C6.30532 18.1739 7.10087 19.7623 8.36774 21.674C8.16164 22.0122 7.96234 22.3505 7.7698 22.6887ZM9.99095 26.342C9.21224 25.2297 8.52311 24.0888 7.91167 22.9562C8.1363 22.6651 8.3745 22.3639 8.62614 22.0576C9.11938 22.7829 9.67847 23.5469 10.3034 24.3176C10.1751 24.9941 10.072 25.6689 9.99095 26.342ZM12.2796 29.2111C11.707 28.5834 11.1665 27.9305 10.6632 27.2641C10.8118 26.6398 10.9824 26.0003 11.18 25.3542C11.2949 25.4838 11.4081 25.6117 11.5263 25.7395C11.5482 25.8018 11.5702 25.8624 11.5938 25.9263C11.7442 27.0487 11.979 28.1442 12.2796 29.2111ZM14.6139 31.4172C14.5903 31.4105 14.5667 31.402 14.543 31.3953C14.3521 31.2338 14.163 31.0689 13.9772 30.9006C13.9383 30.7273 13.9012 30.5522 13.8674 30.3772C14.1072 30.7323 14.3555 31.0789 14.6139 31.4172ZM19.7336 32.4958C18.8654 32.41 18.0124 32.272 17.1814 32.0954C16.6881 31.4037 16.2253 30.6751 15.8065 29.9128C16.8114 30.9073 18.0107 31.6931 19.3282 32.2232C19.4616 32.3141 19.5967 32.405 19.7336 32.4958Z" fill="#4F4F51"/>
<path d="M14.6933 31.5198C14.6426 31.4777 14.5936 31.4357 14.543 31.3936C14.5666 31.4003 14.592 31.4087 14.614 31.4155C14.641 31.4525 14.6663 31.4861 14.6933 31.5198ZM21.0189 34.5505C20.2707 34.4545 19.5343 34.3199 18.8096 34.1533C18.2438 33.5071 17.6948 32.8206 17.178 32.0953C18.009 32.272 18.862 32.41 19.7302 32.4958C20.6642 33.1083 21.6389 33.6334 22.627 34.086C22.0915 34.2594 21.5527 34.4142 21.0189 34.5505Z" fill="#504D4F"/>
<path d="M7.9135 22.9562C7.86449 22.8653 7.8189 22.7779 7.7699 22.6887C7.96244 22.3504 8.16346 22.0139 8.37118 21.6739C8.45395 21.8001 8.54012 21.9281 8.62796 22.0576C8.37626 22.3639 8.13645 22.6651 7.9135 22.9562Z" fill="#504D4F"/>
<path d="M23.7485 34.7238H23.6505C23.5745 34.7238 23.4968 34.7221 23.4208 34.7221C22.6083 34.7103 21.8077 34.6515 21.0189 34.5505C21.5527 34.4142 22.0915 34.2594 22.6286 34.0861C23.1302 34.3166 23.6387 34.5269 24.1437 34.7205C24.012 34.7221 23.8819 34.7238 23.7485 34.7238Z" fill="#4F4E4F"/>
<path d="M10.6632 27.2641C10.4335 26.9596 10.2089 26.6516 9.99097 26.342C10.0721 25.6705 10.1751 24.9941 10.3052 24.3176C10.5838 24.6626 10.876 25.0076 11.1801 25.3542C10.9825 26.0004 10.8102 26.6398 10.6632 27.2641Z" fill="#4F4E4F"/>
<path d="M13.9771 30.9006C13.3792 30.3621 12.8151 29.7967 12.2797 29.2111C11.979 28.1442 11.7442 27.047 11.5939 25.9263C11.9739 26.9528 12.4316 27.9625 12.9823 28.9418C13.2593 29.4365 13.5549 29.9145 13.8674 30.3772C13.9011 30.5522 13.9383 30.7273 13.9771 30.9006Z" fill="#4E4E4F"/>
<path d="M17.1798 32.0953C16.2964 31.9086 15.4384 31.678 14.6141 31.4172C14.3557 31.079 14.1057 30.734 13.8658 30.3772C13.6885 29.5005 13.55 28.5918 13.4622 27.6663C13.903 28.0601 14.3607 28.4438 14.8387 28.8139C15.136 29.2027 15.4587 29.5712 15.8049 29.9145C16.2238 30.6751 16.6866 31.4021 17.1798 32.0953Z" fill="#4C4D50"/>
<path d="M18.8115 34.1517C18.7507 34.1382 18.6882 34.1231 18.6257 34.1079C18.2169 33.9009 17.8132 33.6788 17.4129 33.4415C16.4434 32.866 15.538 32.2198 14.6935 31.5198C14.6664 31.4845 14.6394 31.4508 14.6124 31.4155C15.4367 31.6746 16.2947 31.9069 17.1781 32.0936C17.6967 32.8206 18.2457 33.5071 18.8115 34.1517Z" fill="#4C4D50"/>
<path d="M11.594 25.9263C11.572 25.8641 11.5483 25.8035 11.5264 25.7396C11.5433 25.758 11.5601 25.7766 11.577 25.7951C11.5821 25.8388 11.5871 25.8826 11.594 25.9263Z" fill="#4C4D50"/>
<path d="M13.8657 30.3755C13.5532 29.9128 13.2593 29.4349 12.9806 28.9418C12.4316 27.9608 11.9722 26.9511 11.5922 25.9263C11.5871 25.8825 11.5803 25.8388 11.5753 25.795C12.1597 26.4311 12.788 27.0621 13.462 27.6646C13.5498 28.5918 13.69 29.4988 13.8657 30.3755Z" fill="#4C4D51"/>
<path d="M187.5 26.45H50.5975V27.025H187.5V26.45Z" fill="white"/>
<path d="M51.6409 38.242C51.6409 40.0099 52.8765 40.2098 53.4891 40.2098C53.6791 40.2098 53.7953 40.1888 53.7953 40.1888V39.5468C53.7953 39.5468 53.7003 39.5679 53.5524 39.5679C53.1511 39.5679 52.359 39.41 52.359 38.1683V35.5376H53.6897V34.9378H52.359V33.412H51.6514V34.9378H50.9438V35.5376H51.6409V38.242Z" fill="white"/>
<path d="M55.057 40.1677H55.7751V37.9368C55.7751 37.6001 55.8174 37.2423 55.923 36.9056C56.1553 36.1269 56.7151 35.5376 57.4649 35.5376C57.6022 35.5376 57.7289 35.5587 57.7289 35.5587V34.8536C57.7289 34.8536 57.5916 34.8221 57.4438 34.8221C56.6095 34.8221 56.018 35.4324 55.7645 36.2321H55.7434C55.7434 36.2321 55.7645 36.0427 55.7645 35.8112V34.8747H55.057V40.1677Z" fill="white"/>
<path d="M58.4677 38.7261C58.4677 39.7783 59.3865 40.294 60.2736 40.294C61.6039 40.294 62.0478 39.147 62.0478 39.147H62.0686C62.0686 39.147 62.0478 39.3259 62.0478 39.5889V40.1677H62.734V36.7794C62.734 35.4535 62.0264 34.7484 60.7486 34.7484C59.5556 34.7484 58.8584 35.3482 58.8584 35.3482L59.196 35.8954C59.196 35.8954 59.8194 35.3903 60.6961 35.3903C61.4562 35.3903 62.016 35.7376 62.016 36.7583V36.8951H61.7205C60.8017 36.8951 58.4677 36.9372 58.4677 38.7261ZM59.207 38.684C59.207 37.5159 60.8756 37.4844 61.7096 37.4844H62.016V37.7159C62.016 38.6314 61.4037 39.6836 60.3896 39.6836C59.5977 39.6836 59.207 39.1785 59.207 38.684Z" fill="white"/>
<path d="M64.4667 40.1677H65.1847V37.6317C65.1847 37.3791 65.206 37.1371 65.2689 36.9162C65.5119 36.0427 66.2934 35.4219 67.2018 35.4219C68.2263 35.4219 68.3533 36.1585 68.3533 36.9898V40.1677H69.0713V36.8004C69.0713 35.4956 68.6066 34.7484 67.2971 34.7484C66.04 34.7484 65.3642 35.6008 65.1743 36.0848H65.1529C65.1529 36.0848 65.1743 35.8954 65.1743 35.6639V34.8747H64.4667V40.1677Z" fill="white"/>
<path d="M70.3734 39.5258C70.3734 39.5258 71.0493 40.294 72.3375 40.294C73.4041 40.294 74.1538 39.6731 74.1538 38.8103C74.1538 37.0635 71.2917 37.3791 71.2917 36.2111C71.2917 35.6218 71.8094 35.3903 72.3479 35.3903C73.2246 35.3903 73.6788 35.8744 73.6788 35.8744L74.0061 35.3272C74.0061 35.3272 73.4883 34.7484 72.3692 34.7484C71.4083 34.7484 70.5529 35.2641 70.5529 36.2111C70.5529 37.9368 73.4145 37.6527 73.4145 38.8103C73.4145 39.368 72.9181 39.6521 72.3479 39.6521C71.3552 39.6521 70.7642 39.0102 70.7642 39.0102L70.3734 39.5258Z" fill="white"/>
<path d="M75.8107 40.1677H76.5287V35.5376H77.8908V34.9378H76.5287V34.6853C76.5287 33.5067 77.3102 33.3594 77.7223 33.3594C77.87 33.3594 77.9757 33.3804 77.9757 33.3804V32.7385C77.9757 32.7385 77.8487 32.7175 77.6478 32.7175C77.0459 32.7175 75.8107 32.9385 75.8107 34.6853V34.9378H75.1453V35.5376H75.8107V40.1677Z" fill="white"/>
<path d="M78.5979 37.4949C78.5979 39.0944 79.8544 40.294 81.4069 40.294C82.9595 40.294 84.216 39.0944 84.216 37.4949C84.216 35.927 82.9595 34.7484 81.4069 34.7484C79.8544 34.7484 78.5979 35.927 78.5979 37.4949ZM79.3367 37.4949C79.3367 36.2953 80.2665 35.4009 81.4069 35.4009C82.5474 35.4009 83.4766 36.2953 83.4766 37.4949C83.4766 38.7261 82.5474 39.6521 81.4069 39.6521C80.2665 39.6521 79.3367 38.7261 79.3367 37.4949Z" fill="white"/>
<path d="M85.6376 40.1677H86.3556V37.9368C86.3556 37.6001 86.3977 37.2423 86.5033 36.9056C86.7359 36.1269 87.2952 35.5376 88.0455 35.5376C88.1828 35.5376 88.3093 35.5587 88.3093 35.5587V34.8536C88.3093 34.8536 88.1719 34.8221 88.0241 34.8221C87.1896 34.8221 86.5985 35.4324 86.3452 36.2321H86.3238C86.3238 36.2321 86.3452 36.0427 86.3452 35.8112V34.8747H85.6376V40.1677Z" fill="white"/>
<path d="M89.4808 40.1677H90.1988V37.6632C90.1988 37.4212 90.2202 37.1792 90.2733 36.9582C90.4949 36.148 91.1494 35.4009 92.0157 35.4009C93.0188 35.4009 93.1348 36.1795 93.1348 36.9793V40.1677H93.8534V37.6632C93.8534 37.3791 93.8742 37.1266 93.9481 36.8951C94.1489 36.1164 94.8144 35.4009 95.6276 35.4009C96.599 35.4009 96.7785 36.1164 96.7785 36.9793V40.1677H97.497V36.8004C97.497 35.4956 97.0214 34.7484 95.7332 34.7484C94.8352 34.7484 94.0647 35.3588 93.7795 36.0743H93.7582C93.6 35.2009 93.0927 34.7484 92.1104 34.7484C91.2868 34.7484 90.4418 35.3693 90.1884 36.0848H90.1677C90.1677 36.0848 90.1884 35.8954 90.1884 35.6639V34.8747H89.4808V40.1677Z" fill="white"/>
<path d="M98.8014 38.7261C98.8014 39.7783 99.7202 40.294 100.607 40.294C101.938 40.294 102.382 39.147 102.382 39.147H102.402C102.402 39.147 102.382 39.3259 102.382 39.5889V40.1677H103.068V36.7794C103.068 35.4535 102.36 34.7484 101.082 34.7484C99.8888 34.7484 99.1921 35.3482 99.1921 35.3482L99.5298 35.8954C99.5298 35.8954 100.153 35.3903 101.03 35.3903C101.79 35.3903 102.35 35.7376 102.35 36.7583V36.8951H102.054C101.135 36.8951 98.8014 36.9372 98.8014 38.7261ZM99.5407 38.684C99.5407 37.5159 101.209 37.4844 102.043 37.4844H102.35V37.7159C102.35 38.6314 101.737 39.6836 100.723 39.6836C99.9315 39.6836 99.5407 39.1785 99.5407 38.684Z" fill="white"/>
<path d="M104.97 38.242C104.97 40.0099 106.206 40.2098 106.818 40.2098C107.008 40.2098 107.125 40.1888 107.125 40.1888V39.5468C107.125 39.5468 107.029 39.5679 106.882 39.5679C106.48 39.5679 105.688 39.41 105.688 38.1683V35.5376H107.019V34.9378H105.688V33.412H104.98V34.9378H104.273V35.5376H104.97V38.242Z" fill="white"/>
<path d="M108.365 33.6646H109.115V32.7701H108.365V33.6646ZM108.386 40.1677H109.104V34.8747H108.386V40.1677Z" fill="white"/>
<path d="M110.529 37.4949C110.529 39.0944 111.786 40.294 113.338 40.294C114.891 40.294 116.147 39.0944 116.147 37.4949C116.147 35.927 114.891 34.7484 113.338 34.7484C111.786 34.7484 110.529 35.927 110.529 37.4949ZM111.268 37.4949C111.268 36.2953 112.198 35.4009 113.338 35.4009C114.479 35.4009 115.408 36.2953 115.408 37.4949C115.408 38.7261 114.479 39.6521 113.338 39.6521C112.198 39.6521 111.268 38.7261 111.268 37.4949Z" fill="white"/>
<path d="M117.569 40.1677H118.287V37.6317C118.287 37.3791 118.308 37.1371 118.371 36.9162C118.614 36.0427 119.396 35.4219 120.304 35.4219C121.329 35.4219 121.455 36.1585 121.455 36.9898V40.1677H122.174V36.8004C122.174 35.4956 121.709 34.7484 120.399 34.7484C119.142 34.7484 118.466 35.6008 118.277 36.0848H118.255C118.255 36.0848 118.277 35.8954 118.277 35.6639V34.8747H117.569V40.1677Z" fill="white"/>
<path d="M123.475 38.7261C123.475 39.7783 124.394 40.294 125.281 40.294C126.612 40.294 127.056 39.147 127.056 39.147H127.076C127.076 39.147 127.056 39.3259 127.056 39.5889V40.1677H127.742V36.7794C127.742 35.4535 127.034 34.7484 125.756 34.7484C124.563 34.7484 123.866 35.3482 123.866 35.3482L124.204 35.8954C124.204 35.8954 124.827 35.3903 125.703 35.3903C126.464 35.3903 127.024 35.7376 127.024 36.7583V36.8951H126.728C125.809 36.8951 123.475 36.9372 123.475 38.7261ZM124.214 38.684C124.214 37.5159 125.883 37.4844 126.717 37.4844H127.024V37.7159C127.024 38.6314 126.411 39.6836 125.398 39.6836C124.605 39.6836 124.214 39.1785 124.214 38.684Z" fill="white"/>
<path d="M129.422 38.9155C129.422 40.073 130.203 40.2098 130.646 40.2098C130.784 40.2098 130.911 40.1888 130.911 40.1888V39.5468C130.911 39.5468 130.826 39.5574 130.731 39.5574C130.456 39.5574 130.139 39.4521 130.139 38.7576V32.7701H129.422V38.9155Z" fill="white"/>
<path d="M137.624 37.5265C137.624 39.168 138.838 40.294 140.412 40.294C141.764 40.294 142.482 39.4627 142.482 39.4627L142.155 38.905C142.155 38.905 141.532 39.6521 140.455 39.6521C139.282 39.6521 138.363 38.7682 138.363 37.5265C138.363 36.2637 139.271 35.4009 140.433 35.4009C141.394 35.4009 141.986 36.0427 141.986 36.0427L142.355 35.5061C142.355 35.5061 141.711 34.7484 140.412 34.7484C138.849 34.7484 137.624 35.8954 137.624 37.5265Z" fill="white"/>
<path d="M143.478 37.4949C143.478 39.0944 144.735 40.294 146.287 40.294C147.84 40.294 149.097 39.0944 149.097 37.4949C149.097 35.927 147.84 34.7484 146.287 34.7484C144.735 34.7484 143.478 35.927 143.478 37.4949ZM144.218 37.4949C144.218 36.2953 145.147 35.4009 146.287 35.4009C147.428 35.4009 148.358 36.2953 148.358 37.4949C148.358 38.7261 147.428 39.6521 146.287 39.6521C145.147 39.6521 144.218 38.7261 144.218 37.4949Z" fill="white"/>
<path d="M150.518 40.1677H151.236V37.6317C151.236 37.3791 151.257 37.1371 151.321 36.9162C151.564 36.0427 152.345 35.4219 153.253 35.4219C154.277 35.4219 154.404 36.1585 154.404 36.9898V40.1677H155.122V36.8004C155.122 35.4956 154.658 34.7484 153.348 34.7484C152.092 34.7484 151.415 35.6008 151.225 36.0848H151.204C151.204 36.0848 151.225 35.8954 151.225 35.6639V34.8747H150.518V40.1677Z" fill="white"/>
<path d="M156.425 39.5258C156.425 39.5258 157.1 40.294 158.389 40.294C159.455 40.294 160.206 39.6731 160.206 38.8103C160.206 37.0635 157.343 37.3791 157.343 36.2111C157.343 35.6218 157.861 35.3903 158.4 35.3903C159.276 35.3903 159.73 35.8744 159.73 35.8744L160.057 35.3272C160.057 35.3272 159.54 34.7484 158.42 34.7484C157.459 34.7484 156.604 35.2641 156.604 36.2111C156.604 37.9368 159.466 37.6527 159.466 38.8103C159.466 39.368 158.97 39.6521 158.4 39.6521C157.407 39.6521 156.815 39.0102 156.815 39.0102L156.425 39.5258Z" fill="white"/>
<path d="M161.545 38.242C161.545 39.6205 162.073 40.294 163.319 40.294C164.492 40.294 165.189 39.4732 165.4 38.9576H165.421C165.421 38.9576 165.4 39.147 165.4 39.3785V40.1677H166.097V34.8747H165.379V37.4107C165.379 38.5577 164.629 39.6205 163.415 39.6205C162.39 39.6205 162.263 38.8839 162.263 38.0526V34.8747H161.545V38.242Z" fill="white"/>
<path d="M167.854 38.9155C167.854 40.073 168.635 40.2098 169.079 40.2098C169.217 40.2098 169.343 40.1888 169.343 40.1888V39.5468C169.343 39.5468 169.259 39.5574 169.164 39.5574C168.889 39.5574 168.572 39.4521 168.572 38.7576V32.7701H167.854V38.9155Z" fill="white"/>
<path d="M170.796 38.242C170.796 40.0099 172.031 40.2098 172.644 40.2098C172.834 40.2098 172.95 40.1888 172.95 40.1888V39.5468C172.95 39.5468 172.856 39.5679 172.707 39.5679C172.306 39.5679 171.514 39.41 171.514 38.1683V35.5376H172.845V34.9378H171.514V33.412H170.807V34.9378H170.099V35.5376H170.796V38.242Z" fill="white"/>
<path d="M174.191 33.6646H174.941V32.7701H174.191V33.6646ZM174.212 40.1677H174.931V34.8747H174.212V40.1677Z" fill="white"/>
<path d="M176.746 40.1677H177.464V37.6317C177.464 37.3791 177.485 37.1371 177.549 36.9162C177.792 36.0427 178.573 35.4219 179.481 35.4219C180.506 35.4219 180.632 36.1585 180.632 36.9898V40.1677H181.35V36.8004C181.35 35.4956 180.886 34.7484 179.576 34.7484C178.32 34.7484 177.644 35.6008 177.453 36.0848H177.433C177.433 36.0848 177.453 35.8954 177.453 35.6639V34.8747H176.746V40.1677Z" fill="white"/>
<path d="M183.487 41.3673L183.212 41.9566C183.73 42.2197 184.342 42.3775 184.955 42.3775C186.254 42.3775 187.5 41.7251 187.5 40.0414V34.8747H186.803V35.4535C186.803 35.5692 186.814 35.6323 186.814 35.6323H186.792C186.792 35.6323 186.444 34.7484 185.04 34.7484C183.613 34.7484 182.737 35.8323 182.737 37.4212C182.737 39.0102 183.677 40.1362 185.103 40.1362C185.927 40.1362 186.465 39.7994 186.782 39.2101H186.803C186.803 39.2101 186.782 39.389 186.782 39.5889V40.073C186.782 41.2515 185.958 41.7356 184.923 41.7356C184.142 41.7356 183.487 41.3673 183.487 41.3673ZM185.219 39.4942C184.163 39.4942 183.476 38.6735 183.476 37.4107C183.476 36.1479 184.078 35.4009 185.113 35.4009C186.053 35.4009 186.792 35.8744 186.792 37.4212C186.792 38.9786 186.053 39.4942 185.219 39.4942Z" fill="white"/>
</g>
<defs>
<clipPath id="clip0_425_873">
<rect width="187" height="46" fill="white" transform="translate(0.5)"/>
</clipPath>
</defs>
</svg>
