<svg width="186" height="139" viewBox="0 0 186 139" fill="none" xmlns="http://www.w3.org/2000/svg">
<path d="M182.854 125.976C182.854 126.039 141.917 126.089 91.4316 126.089C40.9279 126.089 0 126.038 0 125.976C0 125.915 40.9279 125.864 91.4316 125.864C141.917 125.864 182.854 125.914 182.854 125.976Z" fill="#EBEBEB"/>
<path d="M182.854 106.95C182.854 107.013 141.917 107.063 91.4316 107.063C40.9279 107.063 0 107.012 0 106.95C0 106.888 40.9279 106.838 91.4316 106.838C141.917 106.838 182.854 106.888 182.854 106.95Z" fill="#EBEBEB"/>
<path d="M182.854 86.7027C182.854 86.765 141.917 86.8151 91.4316 86.8151C40.9279 86.8151 0 86.7645 0 86.7027C0 86.6405 40.9279 86.5903 91.4316 86.5903C141.917 86.5899 182.854 86.6405 182.854 86.7027Z" fill="#EBEBEB"/>
<path d="M182.854 67.6766C182.854 67.7388 141.917 67.789 91.4316 67.789C40.9279 67.789 0 67.7384 0 67.6766C0 67.6144 40.9279 67.5642 91.4316 67.5642C141.917 67.5642 182.854 67.6148 182.854 67.6766Z" fill="#EBEBEB"/>
<path d="M182.854 47.429C182.854 47.4913 141.917 47.5414 91.4316 47.5414C40.9279 47.5414 0 47.4908 0 47.429C0 47.3668 40.9279 47.3167 91.4316 47.3167C141.917 47.3167 182.854 47.3668 182.854 47.429Z" fill="#EBEBEB"/>
<path d="M182.854 27.4701C182.854 27.5323 141.917 27.5824 91.4316 27.5824C40.9279 27.5824 0 27.5319 0 27.4701C0 27.4082 40.9279 27.3577 91.4316 27.3577C141.917 27.3577 182.854 27.4078 182.854 27.4701Z" fill="#EBEBEB"/>
<path d="M161.853 130.359C158.434 128.811 154.237 129.124 151.085 131.162C150.237 125.279 146.624 119.856 141.522 116.806C136.42 113.757 129.931 113.145 124.349 115.185C123.359 108.456 118.938 102.323 112.867 99.2565C106.795 96.1901 99.2361 96.2722 93.2326 99.4696C89.2321 96.3094 83.742 95.1268 78.7953 96.3596C73.8486 97.5923 69.5555 101.213 67.5057 105.881C62.1769 101.225 54.229 99.7986 47.6138 102.311C40.9986 104.823 36.0009 111.166 35.1057 118.184C30.1032 116.501 24.3435 117.249 19.9371 120.155C15.5311 123.061 10.9501 131.996 10.5273 137.257L167.753 138.048C167.207 134.335 165.272 131.908 161.853 130.359Z" fill="#494949"/>
<path d="M55.5 31.839L72.3765 10.6072L89.077 31.715L55.5 31.839Z" fill="#DFF36B"/>
<path d="M80.0896 28.3724L64.7969 28.429L65.0257 90.2719L80.3184 90.2153L80.0896 28.3724Z" fill="#DFF36B"/>
<path d="M89.0781 17.096L98.5025 5.23975L107.828 17.0269L89.0781 17.096Z" fill="#5CA1FF"/>
<path d="M102.809 15.1601L94.2695 15.1917L94.3973 49.7265L102.937 49.695L102.809 15.1601Z" fill="#5CA1FF"/>
<path d="M49.7812 136.256C67.409 136.857 85.2424 132.989 99.9287 125.381C114.615 117.772 123.073 105.207 129.158 92.3218L141.471 95.6086C141.471 95.6086 133.666 124.718 112.33 138.167H49.7812V136.256Z" fill="#888888"/>
<path d="M122.657 104.471C120.632 106.742 119.079 109.426 118.091 112.303C117.446 114.184 119.597 115.792 121.232 114.661L121.275 114.631C119.866 118.086 118.683 121.634 117.738 125.243C117.133 127.549 119.726 129.356 121.672 127.979C129.296 122.584 134.933 114.372 137.049 105.262L122.657 104.471Z" fill="#646464"/>
<g opacity="0.3">
<path d="M123.336 108.178C122.995 108.569 122.645 108.975 122.482 109.468C122.318 109.96 122.385 110.568 122.781 110.904C123.373 111.407 124.387 111.105 124.954 111.637C125.555 112.202 125.197 113.197 124.805 113.923C124.39 114.691 123.976 115.458 123.561 116.226C123.256 116.79 122.96 117.519 123.352 118.027C123.785 118.589 124.675 118.389 125.309 118.068C128.243 116.582 130.346 113.564 130.726 110.297L123.336 108.178Z" fill="black"/>
</g>
<path d="M157.619 77.2664C157.637 77.291 157.676 77.3489 157.735 77.4375C164.453 87.4645 166.236 100.007 162.62 111.522L160.351 118.745L149.137 104.274L157.619 77.2664Z" fill="#B4B4B4"/>
<path d="M157.617 77.2663C157.618 77.2693 157.605 77.3155 157.578 77.4042C157.549 77.5001 157.51 77.6285 157.46 77.794C157.353 78.1429 157.199 78.6443 156.999 79.2918C156.595 80.6011 156.008 82.4978 155.269 84.8878C153.786 89.6616 151.691 96.4017 149.235 104.305L149.218 104.21C152.366 108.27 155.825 112.727 159.446 117.395C159.786 117.834 160.125 118.271 160.438 118.676L160.242 118.711C160.694 117.272 161.141 115.852 161.58 114.453C162.011 113.053 162.478 111.682 162.845 110.318C163.612 107.597 164.058 104.896 164.245 102.311C164.445 99.7257 164.342 97.255 164.079 94.9714C163.976 93.8246 163.751 92.7349 163.576 91.6828C163.332 90.6441 163.14 89.6369 162.847 88.7041C161.788 84.9392 160.403 82.0747 159.345 80.1749C158.844 79.2058 158.36 78.5094 158.071 78.0145C157.808 77.5801 157.685 77.3778 157.617 77.2663C157.617 77.2663 157.662 77.3181 157.751 77.4439C157.837 77.5745 157.955 77.756 158.109 77.9903C158.41 78.4783 158.906 79.1682 159.42 80.133C160.504 82.0237 161.915 84.8869 162.998 88.6613C163.297 89.5963 163.494 90.6069 163.744 91.6486C163.925 92.7042 164.155 93.7982 164.263 94.9498C164.534 97.2433 164.645 99.7257 164.451 102.325C164.268 104.924 163.824 107.639 163.057 110.377C162.688 111.752 162.224 113.117 161.794 114.52C161.355 115.919 160.909 117.339 160.457 118.778L160.393 118.983L160.261 118.814C159.947 118.409 159.609 117.972 159.269 117.534C155.652 112.862 152.198 108.401 149.053 104.339L149.02 104.296L149.036 104.244C151.551 96.3183 153.696 89.56 155.215 84.7732C155.97 82.4045 156.57 80.5237 156.984 79.2261C157.187 78.5929 157.345 78.1018 157.454 77.7603C157.506 77.6017 157.546 77.4789 157.576 77.3873C157.603 77.3039 157.617 77.2632 157.617 77.2663Z" fill="#263238"/>
<path d="M116.653 64.4009C116.625 64.4108 116.56 64.4355 116.463 64.4735C105.371 68.7995 96.8551 77.9442 93.2881 89.3026L91.0508 96.4265L108.286 91.0407L116.653 64.4009Z" fill="#B4B4B4"/>
<path d="M116.653 64.4007C116.655 64.3986 116.643 64.4396 116.619 64.5217C116.592 64.613 116.555 64.7349 116.507 64.8922C116.403 65.2306 116.254 65.7165 116.061 66.3433C115.664 67.6271 115.089 69.487 114.365 71.8303C112.895 76.5609 110.82 83.2401 108.386 91.0721L108.37 91.1239L108.318 91.1404C103.482 92.6541 98.1706 94.3165 92.6092 96.0572C92.0871 96.2206 91.5666 96.3832 91.0842 96.5336L90.8789 96.5975L90.9433 96.3922C91.3894 94.9732 91.8294 93.5722 92.2634 92.1925C92.7065 90.8149 93.1007 89.4489 93.5779 88.128C94.5008 85.4796 95.673 83.0317 96.991 80.8259C98.2994 78.6124 99.7894 76.6655 101.303 74.9628C102.039 74.0914 102.842 73.3358 103.584 72.5833C104.373 71.8809 105.103 71.1746 105.872 70.5863C108.878 68.1423 111.635 66.6216 113.578 65.7027C114.538 65.2121 115.328 64.9333 115.848 64.7085C116.103 64.6052 116.302 64.5252 116.445 64.4677C116.588 64.418 116.653 64.4007 116.653 64.4007C116.534 64.4535 116.321 64.5481 115.864 64.7508C115.351 64.9886 114.567 65.2795 113.615 65.7809C111.688 66.7215 108.952 68.2586 105.971 70.7082C105.208 71.2978 104.485 72.0049 103.702 72.7078C102.967 73.4603 102.171 74.2155 101.441 75.0856C99.9402 76.7856 98.4637 78.7269 97.1669 80.9318C95.8611 83.129 94.6992 85.566 93.7849 88.2006C93.3129 89.5112 92.9183 90.884 92.4765 92.2599C92.0434 93.6401 91.6038 95.041 91.1586 96.4601L91.0177 96.3192C91.5001 96.1683 92.0201 96.0058 92.5422 95.8424C98.1053 94.1069 103.418 92.4496 108.255 90.9406L108.187 91.0089C110.657 83.228 112.763 76.5924 114.255 71.8925C115.005 69.5419 115.6 67.6763 116.011 66.3882C116.215 65.7524 116.373 65.2596 116.483 64.9164C116.536 64.7539 116.577 64.6281 116.608 64.5338C116.636 64.4478 116.651 64.4029 116.653 64.4007Z" fill="#263238"/>
<path d="M159.342 0.112413C156.1 -0.905976 147.506 5.60463 137.569 17.8681C127.786 29.9431 123.717 41.8953 123.717 41.8953L104.789 102.165L120.67 107.153L129.874 110.043L145.754 115.03L162.931 60.3387C164.609 54.9948 165.797 49.5069 166.43 43.9408C166.973 39.1553 167.359 33.233 167.055 27.1278C166.271 11.4271 162.585 1.1308 159.342 0.112413Z" fill="#7D7D7D"/>
<path d="M159.349 0.112419C159.349 0.112419 159.397 0.12798 159.491 0.163857C159.539 0.182444 159.597 0.205786 159.666 0.232586C159.732 0.269327 159.808 0.312119 159.894 0.360532C160.235 0.56542 160.694 0.955314 161.17 1.57127C162.127 2.8019 163.151 4.89228 164.044 7.71922C164.946 10.5453 165.739 14.1084 166.315 18.306C166.606 20.4046 166.839 22.6631 167.004 25.0677C167.175 27.4719 167.266 30.0252 167.235 32.71C167.204 35.3951 167.062 38.2112 166.803 41.1411C166.542 44.0704 166.164 47.1178 165.568 50.2439C164.973 53.3695 164.192 56.5781 163.191 59.8313C162.175 63.0762 161.127 66.4227 160.05 69.8621C155.733 83.6178 150.95 98.8633 145.867 115.063L145.834 115.17L145.728 115.136C139.153 113.072 132.263 110.909 125.248 108.706C118.23 106.501 111.338 104.337 104.763 102.271L104.656 102.238L104.69 102.131C109.783 85.929 114.576 70.683 118.899 56.9283C119.981 53.4897 121.033 50.1445 122.054 46.9008C122.565 45.279 123.067 43.6827 123.561 42.1128C124.092 40.5467 124.729 39.0576 125.376 37.6035C127.991 31.7979 131.032 26.7103 134.117 22.3169C137.251 17.9537 140.412 14.2782 143.3 11.1798C146.195 8.08706 148.868 5.60679 151.203 3.7775C153.532 1.94431 155.543 0.775495 157.024 0.288345C157.763 0.044122 158.363 -0.0194185 158.759 0.00478772C158.858 0.0142973 158.945 0.0225098 159.02 0.0294258C159.092 0.0462837 159.153 0.0609797 159.203 0.0726505C159.3 0.0977212 159.349 0.112419 159.349 0.112419C159.349 0.112419 159.298 0.104205 159.201 0.0838895C159.151 0.0735155 159.09 0.0609796 159.018 0.0458507C158.943 0.0402314 158.857 0.0337484 158.758 0.0264001C158.364 0.00910992 157.771 0.0787019 157.038 0.328112C155.568 0.825204 153.57 2.00137 151.253 3.84104C148.93 5.67639 146.268 8.16184 143.385 11.2594C140.509 14.3617 137.358 18.0423 134.238 22.4029C131.166 26.7946 128.137 31.8792 125.535 37.6757C124.892 39.1255 124.257 40.6176 123.732 42.1698C123.24 43.7402 122.74 45.3374 122.231 46.9596C121.214 50.2041 120.165 53.5506 119.087 56.9896C114.77 70.7465 109.986 85.9943 104.902 102.199L104.829 102.059C111.405 104.124 118.297 106.288 125.315 108.492C132.33 110.695 139.22 112.86 145.795 114.925L145.655 114.998C150.747 98.8002 155.539 83.5572 159.862 69.8042C160.943 66.3661 161.994 63.0209 163.013 59.7777C164.016 56.5323 164.798 53.331 165.397 50.2128C165.996 47.0936 166.378 44.054 166.642 41.1281C166.906 38.2022 167.052 35.3904 167.088 32.7095C167.124 30.0283 167.038 27.4797 166.873 25.0777C166.713 22.6752 166.486 20.4193 166.201 18.3224C165.637 14.1282 164.856 10.5682 163.968 7.74385C163.089 4.91865 162.079 2.82913 161.138 1.59678C160.669 0.979951 160.218 0.588329 159.884 0.378686C159.799 0.328977 159.724 0.284887 159.66 0.246849C159.592 0.217888 159.535 0.193682 159.488 0.173798C159.395 0.134463 159.349 0.112419 159.349 0.112419Z" fill="#263238"/>
<path d="M148.417 105.113C148.398 105.173 139.288 102.423 128.071 98.9719C116.85 95.5199 107.771 92.6739 107.789 92.6147C107.807 92.5555 116.916 95.3046 128.137 98.757C139.354 102.207 148.435 105.054 148.417 105.113Z" fill="#263238"/>
<path d="M147.659 106.884C147.641 106.943 138.53 104.193 127.313 100.742C116.092 97.2901 107.013 94.4442 107.031 94.385C107.049 94.3258 116.158 97.0749 127.379 100.527C138.597 103.978 147.677 106.824 147.659 106.884Z" fill="#263238"/>
<path d="M147.081 108.821C147.062 108.88 137.952 106.13 126.735 102.679C115.514 99.2274 106.435 96.3814 106.453 96.3222C106.471 96.263 115.58 99.0121 126.801 102.465C138.018 105.915 147.099 108.762 147.081 108.821Z" fill="#263238"/>
<path d="M146.51 110.759C146.492 110.818 137.382 108.068 126.165 104.617C114.943 101.165 105.865 98.3192 105.883 98.26C105.901 98.2008 115.009 100.95 126.231 104.402C137.448 107.853 146.529 110.699 146.51 110.759Z" fill="#263238"/>
<path d="M145.94 112.697C145.922 112.756 136.811 110.006 125.594 106.555C114.373 103.103 105.294 100.257 105.313 100.198C105.331 100.139 114.439 102.888 125.66 106.34C136.878 109.791 145.959 112.637 145.94 112.697Z" fill="#263238"/>
<path d="M137.195 70.9036C137.202 70.9036 137.188 71.0038 137.151 71.1984C137.121 71.3968 137.036 71.6699 136.943 72.0313C136.748 72.7493 136.443 73.7811 136.054 75.0523C135.277 77.5944 134.164 81.0939 132.912 84.9505C131.659 88.8088 130.503 92.2941 129.655 94.8132C129.232 96.0525 128.887 97.0635 128.638 97.7923C128.52 98.1252 128.424 98.3927 128.351 98.5985C128.282 98.7817 128.243 98.8773 128.236 98.8747C128.228 98.8721 128.253 98.7722 128.307 98.5842C128.37 98.375 128.453 98.1031 128.555 97.7647C128.787 97.0307 129.109 96.0119 129.504 94.7635C130.328 92.2124 131.454 88.7297 132.698 84.8809C133.946 81.0352 135.075 77.5542 135.903 75.0044C136.301 73.7577 136.625 72.7398 136.86 72.0071C136.965 71.6522 137.065 71.3777 137.107 71.1906C137.156 71.0034 137.187 70.9036 137.195 70.9036Z" fill="#E0E0E0"/>
<path d="M149.555 44.2145C149.541 44.275 149.259 44.2612 148.926 44.1834C148.593 44.1056 148.334 43.9936 148.348 43.9327C148.362 43.8722 148.644 43.886 148.977 43.9638C149.31 44.0416 149.569 44.154 149.555 44.2145Z" fill="#263238"/>
<path d="M157.615 77.2663C157.597 77.3255 148.486 74.5249 137.269 71.0111C126.048 67.4965 116.97 64.5999 116.988 64.5407C117.007 64.4815 126.115 67.2816 137.337 70.7963C148.554 74.3096 157.634 77.207 157.615 77.2663Z" fill="#EBEBEB"/>
<path d="M134.239 91.8108C134.234 91.8004 134.335 91.7381 134.545 91.7109C134.751 91.6841 135.074 91.7126 135.403 91.9123C135.727 92.0986 136.061 92.5171 136.041 93.05C136.033 93.5605 135.722 94.1402 135.144 94.3662C134.56 94.5763 133.944 94.3438 133.602 93.9647C133.237 93.5765 133.214 93.041 133.336 92.6878C133.453 92.3208 133.677 92.0865 133.85 91.9716C134.025 91.854 134.143 91.8345 134.146 91.8453C134.154 91.8631 134.051 91.9106 133.904 92.0403C133.759 92.1678 133.574 92.3978 133.489 92.731C133.4 93.057 133.439 93.5035 133.754 93.8233C134.052 94.1415 134.59 94.3295 135.065 94.1553C135.537 93.9742 135.819 93.4788 135.834 93.0435C135.862 92.5953 135.598 92.2335 135.317 92.0459C135.033 91.851 134.743 91.7991 134.549 91.7987C134.353 91.7974 134.244 91.8294 134.239 91.8108Z" fill="#E0E0E0"/>
<path d="M138.117 80.2302C138.113 80.2198 138.214 80.1571 138.423 80.1303C138.63 80.1035 138.953 80.1321 139.282 80.3318C139.606 80.5181 139.94 80.9365 139.92 81.4695C139.912 81.98 139.601 82.5596 139.023 82.7857C138.439 82.9958 137.823 82.7632 137.481 82.3841C137.116 81.9959 137.093 81.4604 137.214 81.1072C137.332 80.7403 137.556 80.5064 137.729 80.391C137.904 80.2734 138.021 80.254 138.025 80.2648C138.033 80.2825 137.929 80.33 137.783 80.4597C137.638 80.5872 137.453 80.8172 137.367 81.1505C137.279 81.4768 137.318 81.9229 137.633 82.2428C137.931 82.5609 138.469 82.7489 138.944 82.5747C139.416 82.3936 139.698 81.8978 139.713 81.463C139.741 81.0147 139.477 80.6529 139.195 80.4653C138.911 80.2704 138.621 80.2185 138.428 80.2177C138.232 80.2164 138.123 80.2488 138.117 80.2302Z" fill="#E0E0E0"/>
<path d="M131.953 61.5273C131.949 61.5169 132.05 61.4543 132.259 61.4275C132.466 61.4007 132.789 61.4292 133.118 61.6289C133.442 61.8152 133.776 62.2336 133.756 62.7666C133.748 63.2771 133.437 63.8567 132.859 64.0828C132.275 64.2929 131.659 64.0603 131.317 63.6812C130.952 63.2931 130.929 62.7575 131.05 62.4044C131.168 62.0374 131.392 61.8031 131.565 61.6881C131.74 61.571 131.857 61.5511 131.861 61.5619C131.869 61.5796 131.765 61.6272 131.619 61.7568C131.474 61.8844 131.289 62.1143 131.203 62.4476C131.115 62.7739 131.154 63.22 131.469 63.5399C131.767 63.858 132.305 64.0461 132.78 63.8719C133.252 63.6907 133.534 63.1954 133.549 62.7601C133.577 62.3119 133.313 61.9501 133.031 61.7625C132.747 61.5675 132.457 61.5156 132.264 61.5148C132.068 61.5135 131.959 61.5459 131.953 61.5273Z" fill="#E0E0E0"/>
<path d="M131.278 52.8502C131.337 52.8692 130.334 56.1755 129.038 60.2344C127.742 64.2945 126.644 67.5693 126.585 67.5507C126.525 67.5321 127.528 64.2262 128.824 60.1661C130.12 56.1068 131.219 52.8312 131.278 52.8502Z" fill="#EBEBEB"/>
<g opacity="0.3">
<path d="M108.5 90.3441C108.5 90.3441 114.395 72.9791 116.648 64.4006C113.673 67.9611 110.312 72.0507 108.562 76.346C106.794 80.6854 106.78 85.9852 108.5 90.3441Z" fill="black"/>
</g>
<path d="M185.946 136.718C185.946 136.718 185.63 136.712 185.013 136.709C184.753 136.709 184.438 136.708 184.076 136.707C184.078 136.462 184.08 136.211 184.08 135.95C184.08 135.186 184.068 134.468 184.047 133.929C184.013 133.054 183.98 133.054 183.914 133.054C183.848 133.054 183.815 133.054 183.78 133.929C183.759 134.469 183.747 135.187 183.747 135.95C183.747 136.21 183.749 136.461 183.752 136.706C183.32 136.705 182.83 136.703 182.276 136.701L171.756 136.686L163.186 136.681C163.189 136.444 163.19 136.201 163.19 135.95C163.19 135.186 163.179 134.468 163.158 133.929C163.123 133.054 163.09 133.054 163.024 133.054C162.958 133.054 162.925 133.054 162.891 133.929C162.869 134.468 162.858 135.186 162.858 135.95C162.858 136.201 162.86 136.444 162.862 136.68L140.711 136.666C140.713 136.434 140.715 136.196 140.715 135.95C140.715 135.187 140.703 134.469 140.682 133.929C140.648 133.054 140.615 133.054 140.549 133.054C140.483 133.054 140.45 133.054 140.415 133.929C140.394 134.469 140.382 135.187 140.382 135.95C140.382 136.196 140.384 136.433 140.386 136.665L133.065 136.66L118.564 136.658C118.566 136.428 118.568 136.193 118.568 135.95C118.568 135.187 118.556 134.469 118.535 133.929C118.5 133.054 118.467 133.054 118.401 133.054C118.336 133.054 118.302 133.054 118.267 133.929C118.246 134.469 118.235 135.187 118.235 135.95C118.235 136.193 118.236 136.428 118.239 136.658L96.4163 136.654C96.4185 136.425 96.4202 136.191 96.4202 135.95C96.4202 135.187 96.4086 134.469 96.3874 133.929C96.3529 133.054 96.3197 133.054 96.2537 133.054C96.1881 133.054 96.1549 133.054 96.12 133.929C96.0988 134.469 96.0872 135.187 96.0872 135.95C96.0872 136.192 96.0889 136.425 96.0911 136.654L74.2689 136.65C74.271 136.422 74.2727 136.19 74.2727 135.95C74.2727 135.186 74.2611 134.468 74.24 133.929C74.2055 133.054 74.1727 133.054 74.1067 133.054C74.0407 133.054 74.0079 133.054 73.9734 133.929C73.9522 134.469 73.9406 135.187 73.9406 135.95C73.9406 136.19 73.9423 136.422 73.9445 136.65L52.1223 136.645C52.1244 136.42 52.1262 136.189 52.1262 135.95C52.1262 135.186 52.1145 134.468 52.0934 133.929C52.0589 133.054 52.0256 133.054 51.9597 133.054C51.8937 133.054 51.8609 133.054 51.8264 133.929C51.8052 134.469 51.7936 135.187 51.7936 135.95C51.7936 136.189 51.7953 136.42 51.7975 136.645L29.9752 136.641C29.9774 136.417 29.9791 136.187 29.9791 135.95C29.9791 135.186 29.9675 134.468 29.9463 133.929C29.9118 133.054 29.8786 133.054 29.8126 133.054C29.7466 133.054 29.7138 133.054 29.6793 133.929C29.6582 134.469 29.6466 135.187 29.6466 135.95C29.6466 136.187 29.6483 136.417 29.6504 136.641L6.50784 136.637C6.50914 136.49 6.50957 136.34 6.50957 136.188C6.50957 135.488 6.49792 134.83 6.47679 134.335C6.44228 133.53 6.40906 133.53 6.3435 133.53C6.2775 133.53 6.24472 133.53 6.20978 134.335C6.18864 134.83 6.177 135.488 6.177 136.188C6.177 136.34 6.17786 136.49 6.17872 136.637L5.41911 136.636H0.332574L0.298498 47.3429L0.263126 20.3822L0.242421 13.0661L0.231638 11.1649C0.227756 10.7362 0.220423 10.5169 0.220423 10.5169C0.21956 10.4958 0.195836 10.479 0.166503 10.479C0.137171 10.479 0.113447 10.4958 0.112584 10.5169C0.112584 10.5169 0.104819 10.7362 0.101369 11.1649L0.0694494 20.3819L0.034078 47.3426L0 136.756V136.837C0 136.859 0.0241558 136.876 0.0539193 136.876H5.41954H6.18174C6.18692 137.311 6.19641 137.713 6.21021 138.041C6.24515 138.845 6.27793 138.845 6.34393 138.845C6.40949 138.845 6.44271 138.845 6.47722 138.041C6.49102 137.713 6.50051 137.311 6.50569 136.876L29.6535 136.871C29.6591 137.279 29.6677 137.657 29.6798 137.971C29.7143 138.845 29.7471 138.845 29.8131 138.845C29.8791 138.845 29.9118 138.845 29.9468 137.971C29.9589 137.657 29.9675 137.279 29.9731 136.871L51.8009 136.867C51.8065 137.277 51.8151 137.656 51.8272 137.971C51.8617 138.845 51.8945 138.845 51.9605 138.845C52.0265 138.845 52.0593 138.845 52.0942 137.971C52.1067 137.656 52.1154 137.277 52.1205 136.867L73.9479 136.863C73.9535 137.274 73.9622 137.655 73.9743 137.971C74.0088 138.845 74.0415 138.845 74.1075 138.845C74.1735 138.845 74.2063 138.845 74.2408 137.971C74.2533 137.655 74.262 137.274 74.2676 136.863L96.095 136.859C96.1006 137.271 96.1092 137.654 96.1213 137.971C96.1558 138.845 96.189 138.845 96.255 138.845C96.3206 138.845 96.3538 138.845 96.3887 137.971C96.4012 137.654 96.4098 137.271 96.415 136.859L118.242 136.855C118.248 137.269 118.257 137.653 118.269 137.971C118.304 138.845 118.337 138.845 118.403 138.845C118.468 138.845 118.502 138.845 118.537 137.971C118.549 137.653 118.558 137.269 118.563 136.855L133.067 136.852L140.39 136.847C140.396 137.264 140.405 137.65 140.417 137.97C140.452 138.845 140.485 138.845 140.551 138.845C140.616 138.845 140.65 138.845 140.685 137.97C140.697 137.65 140.706 137.264 140.711 136.847L162.866 136.832C162.872 137.255 162.88 137.647 162.893 137.97C162.927 138.845 162.96 138.845 163.026 138.845C163.092 138.845 163.125 138.845 163.16 137.97C163.172 137.647 163.181 137.255 163.187 136.832L169.583 136.828L182.278 136.811L183.755 136.807C183.76 137.239 183.769 137.64 183.782 137.97C183.816 138.845 183.85 138.845 183.916 138.845C183.981 138.845 184.014 138.845 184.049 137.97C184.062 137.64 184.071 137.239 184.076 136.806L185.014 136.803C185.631 136.8 185.947 136.795 185.947 136.795C185.976 136.794 186 136.777 186 136.756C185.999 136.736 185.976 136.718 185.946 136.718Z" fill="url(#paint0_linear_2399_11235)"/>
<defs>
<linearGradient id="paint0_linear_2399_11235" x1="93" y1="10.479" x2="93" y2="138.845" gradientUnits="userSpaceOnUse">
<stop stop-color="white" stop-opacity="0"/>
<stop offset="1" stop-color="white"/>
</linearGradient>
</defs>
</svg>
