<svg width="205" height="157" viewBox="0 0 205 157" fill="none" xmlns="http://www.w3.org/2000/svg">
<path d="M183.829 104.353C183.792 104.374 182.465 102.073 180.867 99.2143C179.268 96.3551 178.002 94.021 178.04 94.0001C178.077 93.9792 179.403 96.2796 181.002 99.1388C182.6 101.997 183.866 104.332 183.829 104.353Z" fill="#263238"/>
<path d="M188.312 94.4297C188.355 94.4322 188.292 96.194 188.172 98.3646C188.051 100.536 187.919 102.294 187.877 102.291C187.834 102.289 187.897 100.527 188.017 98.3562C188.137 96.1856 188.269 94.4275 188.312 94.4297Z" fill="#263238"/>
<path d="M180.629 106.792C180.616 106.833 179.121 106.364 177.29 105.745C175.459 105.126 173.986 104.592 174 104.551C174.014 104.511 175.509 104.98 177.34 105.599C179.17 106.217 180.643 106.752 180.629 106.792Z" fill="#263238"/>
<path d="M203.054 111.218C200.296 104.924 192.958 102.056 186.664 104.814C180.37 107.571 177.502 114.909 180.26 121.203C182.256 125.76 186.653 128.519 191.318 128.65C191.909 130 192.577 131.525 192.577 131.525L202.566 127.149C202.566 127.149 201.92 125.509 201.311 124.058C204.152 120.557 204.987 115.632 203.054 111.218Z" fill="#DFF36B"/>
<path d="M201.063 127.801C201.063 127.801 201.034 127.757 200.982 127.669C200.929 127.578 200.853 127.446 200.754 127.274C200.555 126.927 200.265 126.412 199.902 125.743C199.178 124.404 198.16 122.449 197.044 119.967C196.764 119.347 196.479 118.694 196.19 118.009C196.048 117.666 195.903 117.316 195.755 116.96C195.611 116.604 195.45 116.234 195.417 115.824C195.4 115.621 195.425 115.409 195.506 115.214C195.585 115.022 195.73 114.839 195.939 114.759C196.148 114.677 196.384 114.724 196.573 114.829C196.761 114.938 196.921 115.099 197.024 115.294C197.237 115.69 197.191 116.179 197.003 116.58C196.814 116.987 196.482 117.325 196.083 117.548C195.684 117.771 195.213 117.877 194.745 117.839C194.275 117.803 193.822 117.609 193.443 117.32C193.063 117.031 192.749 116.646 192.545 116.203C192.444 115.982 192.363 115.746 192.34 115.497C192.317 115.253 192.343 114.981 192.503 114.769C192.582 114.665 192.696 114.586 192.82 114.545C192.945 114.506 193.078 114.497 193.205 114.517C193.462 114.552 193.697 114.692 193.875 114.872C194.057 115.052 194.196 115.268 194.316 115.491C194.434 115.715 194.539 115.945 194.635 116.18C194.825 116.651 194.968 117.15 195.011 117.668C195.055 118.181 194.996 118.724 194.754 119.197C194.635 119.433 194.481 119.652 194.288 119.833C194.095 120.012 193.864 120.154 193.611 120.231C193.358 120.307 193.087 120.309 192.831 120.259C192.575 120.207 192.335 120.097 192.119 119.959C191.686 119.68 191.334 119.307 191.022 118.917C190.865 118.722 190.718 118.521 190.577 118.318C190.437 118.115 190.294 117.911 190.188 117.684C190.083 117.459 190.019 117.2 190.067 116.948C190.09 116.824 190.136 116.701 190.216 116.598C190.295 116.495 190.415 116.422 190.543 116.399C190.673 116.373 190.805 116.398 190.919 116.448C191.035 116.497 191.138 116.566 191.232 116.644C191.42 116.8 191.57 116.994 191.701 117.19C192.227 117.974 192.548 118.904 192.469 119.819C192.427 120.274 192.27 120.712 192.018 121.079C191.767 121.446 191.408 121.741 190.99 121.871C190.571 122.008 190.115 121.945 189.736 121.767C189.354 121.592 189.029 121.302 188.832 120.943C188.732 120.765 188.665 120.572 188.637 120.371C188.615 120.172 188.631 119.959 188.743 119.782C188.799 119.695 188.885 119.627 188.983 119.593C189.082 119.558 189.191 119.563 189.286 119.594C189.478 119.658 189.623 119.796 189.746 119.937C189.998 120.224 190.135 120.571 190.3 120.883C190.459 121.201 190.615 121.513 190.767 121.817C191.981 124.252 192.927 126.241 193.556 127.626C193.871 128.318 194.105 128.861 194.263 129.23C194.339 129.413 194.397 129.553 194.437 129.65C194.476 129.746 194.493 129.795 194.493 129.795C194.493 129.795 194.47 129.748 194.429 129.654C194.386 129.558 194.326 129.419 194.246 129.237C194.083 128.871 193.844 128.331 193.524 127.641C192.886 126.26 191.931 124.277 190.71 121.846C190.557 121.542 190.4 121.231 190.24 120.913C190.074 120.599 189.937 120.257 189.693 119.983C189.575 119.847 189.434 119.717 189.264 119.662C189.097 119.601 188.898 119.668 188.803 119.822C188.706 119.975 188.688 120.175 188.71 120.362C188.736 120.551 188.801 120.738 188.898 120.908C189.087 121.251 189.4 121.53 189.768 121.698C190.134 121.868 190.569 121.927 190.966 121.796C191.364 121.671 191.709 121.389 191.952 121.034C192.195 120.679 192.347 120.253 192.386 119.812C192.462 118.923 192.148 118.01 191.63 117.239C191.499 117.044 191.356 116.86 191.177 116.712C191.002 116.568 190.78 116.442 190.56 116.485C190.335 116.519 190.189 116.739 190.154 116.964C190.11 117.194 190.168 117.432 190.269 117.648C190.37 117.865 190.51 118.066 190.651 118.268C190.791 118.471 190.937 118.67 191.092 118.863C191.401 119.248 191.748 119.615 192.168 119.884C192.377 120.018 192.606 120.123 192.85 120.172C193.093 120.22 193.348 120.218 193.586 120.146C194.067 120.001 194.45 119.613 194.673 119.158C194.907 118.703 194.965 118.179 194.922 117.676C194.88 117.171 194.74 116.68 194.552 116.215C194.357 115.756 194.156 115.283 193.813 114.936C193.643 114.764 193.429 114.639 193.193 114.606C192.962 114.567 192.712 114.638 192.574 114.824C192.434 115.008 192.406 115.257 192.428 115.489C192.449 115.725 192.527 115.952 192.625 116.167C192.822 116.597 193.127 116.972 193.495 117.253C193.863 117.533 194.301 117.72 194.753 117.755C195.203 117.793 195.658 117.691 196.044 117.477C196.428 117.262 196.749 116.936 196.93 116.547C197.112 116.163 197.152 115.698 196.955 115.332C196.86 115.151 196.709 114.999 196.535 114.898C196.361 114.801 196.15 114.76 195.967 114.832C195.784 114.901 195.651 115.064 195.576 115.244C195.501 115.426 195.476 115.625 195.492 115.819C195.523 116.212 195.679 116.577 195.823 116.934C195.969 117.291 196.114 117.641 196.255 117.984C196.541 118.668 196.825 119.322 197.102 119.943C198.21 122.426 199.219 124.384 199.933 125.728C200.291 126.398 200.576 126.916 200.77 127.266C200.866 127.44 200.94 127.573 200.99 127.665C201.039 127.754 201.063 127.801 201.063 127.801Z" fill="white"/>
<path d="M192.298 127.776C192.298 127.779 192.246 127.784 192.145 127.79C192.045 127.794 191.897 127.809 191.706 127.808C191.325 127.817 190.771 127.799 190.093 127.712C189.415 127.626 188.615 127.455 187.762 127.158C186.908 126.861 186.004 126.429 185.135 125.851C184.269 125.266 183.525 124.595 182.926 123.918C182.326 123.241 181.863 122.566 181.526 121.972C181.188 121.378 180.961 120.873 180.825 120.517C180.751 120.341 180.708 120.198 180.674 120.104C180.642 120.009 180.626 119.958 180.629 119.958C180.632 119.957 180.654 120.005 180.691 120.098C180.731 120.19 180.779 120.33 180.857 120.503C181.003 120.854 181.238 121.354 181.581 121.94C181.924 122.527 182.389 123.193 182.988 123.862C183.586 124.532 184.326 125.195 185.185 125.776C186.048 126.349 186.943 126.781 187.79 127.079C188.636 127.379 189.43 127.556 190.102 127.649C190.775 127.744 191.326 127.771 191.707 127.773C191.897 127.779 192.045 127.77 192.145 127.772C192.245 127.772 192.298 127.773 192.298 127.776Z" fill="#263238"/>
<path d="M180.157 117.573C180.182 117.568 180.25 117.849 180.311 118.199C180.372 118.55 180.401 118.837 180.376 118.841C180.352 118.846 180.283 118.565 180.222 118.215C180.162 117.864 180.133 117.577 180.157 117.573Z" fill="#263238"/>
<path d="M202.944 114.418C202.941 114.418 202.929 114.374 202.909 114.29C202.889 114.197 202.862 114.074 202.829 113.92C202.811 113.839 202.793 113.75 202.772 113.653C202.749 113.556 202.716 113.452 202.684 113.34C202.617 113.117 202.557 112.858 202.448 112.585C202.398 112.447 202.345 112.302 202.29 112.152C202.235 112.003 202.16 111.853 202.091 111.695C201.961 111.375 201.779 111.054 201.598 110.712C201.209 110.042 200.725 109.338 200.135 108.665C199.537 107.999 198.896 107.434 198.277 106.968C197.958 106.747 197.661 106.529 197.36 106.36C197.211 106.274 197.071 106.182 196.929 106.108C196.787 106.036 196.65 105.967 196.519 105.9C196.261 105.759 196.011 105.669 195.797 105.575C195.69 105.531 195.591 105.486 195.497 105.451C195.403 105.419 195.317 105.39 195.239 105.363C195.09 105.311 194.971 105.27 194.881 105.239C194.8 105.209 194.757 105.193 194.758 105.189C194.759 105.186 194.803 105.198 194.886 105.221C194.977 105.248 195.098 105.285 195.25 105.33C195.329 105.354 195.417 105.381 195.512 105.41C195.606 105.443 195.707 105.486 195.815 105.529C196.032 105.618 196.285 105.705 196.546 105.843C196.679 105.908 196.817 105.976 196.962 106.047C197.106 106.119 197.247 106.21 197.397 106.296C197.702 106.462 198.003 106.68 198.325 106.901C198.951 107.366 199.6 107.934 200.203 108.605C200.797 109.283 201.282 109.994 201.67 110.671C201.851 111.017 202.031 111.341 202.159 111.664C202.226 111.824 202.3 111.975 202.355 112.127C202.408 112.278 202.459 112.424 202.508 112.564C202.614 112.839 202.67 113.101 202.733 113.327C202.762 113.44 202.793 113.545 202.814 113.643C202.832 113.741 202.848 113.831 202.863 113.913C202.889 114.068 202.911 114.193 202.927 114.286C202.941 114.373 202.947 114.418 202.944 114.418Z" fill="#263238"/>
<g opacity="0.2">
<path d="M187.617 108.218C187.209 107.826 186.527 107.71 185.816 107.797C184.799 107.922 183.888 108.479 183.251 109.281C181.375 111.641 180.671 113.805 181.026 116.939C181.147 118.001 181.68 119.608 182.541 120.323C182.973 120.683 183.528 120.879 184.085 120.806C185.536 120.616 186.009 118.917 185.884 117.548C185.768 116.272 185.351 114.956 185.761 113.743C186.1 112.743 186.94 112.009 187.523 111.129C188.106 110.25 188.378 108.95 187.617 108.218Z" fill="white"/>
</g>
<g opacity="0.2">
<path d="M191.991 105.771C191.252 105.226 190.064 105.387 189.571 105.934C189.175 106.4 188.993 107.05 189.124 107.647C189.282 108.367 189.911 108.965 190.642 109.063C191.372 109.161 192.148 108.737 192.44 108.06C192.732 107.384 192.584 106.209 191.991 105.771Z" fill="white"/>
</g>
<path d="M197.887 136.098C197.887 136.098 198.412 136.184 198.792 136.391C198.99 136.498 199.228 136.501 199.434 136.411L201.443 135.529C201.668 135.43 201.832 135.227 201.876 134.985C201.926 134.701 202.077 134.326 202.328 134.149L197.887 136.098Z" fill="#263238"/>
<path d="M193.254 131.458C193.272 131.498 195.116 134.432 195.821 135.554C196.111 136.014 196.607 136.319 197.151 136.326C197.35 136.329 197.563 136.295 197.778 136.201C198.639 135.823 202.173 134.272 202.173 134.272C202.173 134.272 203.322 133.767 203.182 132.742C203.035 131.662 201.898 127.663 201.898 127.663L193.254 131.458Z" fill="#E0E0E0"/>
<path d="M203.279 132.198L195.634 135.586C195.514 135.64 195.374 135.586 195.32 135.465L195.31 135.442C195.256 135.322 195.311 135.181 195.431 135.128L203.076 131.74C203.196 131.686 203.336 131.74 203.389 131.861L203.4 131.884C203.453 132.004 203.399 132.145 203.279 132.198Z" fill="#E0E0E0"/>
<path d="M203.284 132.198C203.278 132.194 203.355 132.176 203.401 132.064C203.423 132.01 203.423 131.932 203.379 131.856C203.342 131.781 203.244 131.717 203.136 131.739C202.718 131.916 202.106 132.202 201.353 132.537C199.838 133.211 197.755 134.14 195.453 135.165C195.392 135.191 195.348 135.249 195.337 135.313C195.332 135.345 195.335 135.378 195.346 135.409C195.358 135.442 195.373 135.475 195.393 135.498C195.435 135.547 195.503 135.573 195.566 135.565C195.624 135.557 195.701 135.512 195.77 135.485C196.05 135.36 196.327 135.238 196.599 135.118C197.143 134.877 197.668 134.646 198.168 134.425C199.167 133.986 200.068 133.59 200.826 133.256C201.58 132.928 202.192 132.662 202.621 132.475C202.83 132.386 202.994 132.316 203.111 132.266C203.164 132.244 203.206 132.227 203.239 132.214C203.268 132.202 203.283 132.197 203.284 132.198C203.285 132.2 203.271 132.207 203.243 132.221C203.21 132.236 203.169 132.256 203.118 132.281C203.002 132.334 202.84 132.409 202.634 132.504C202.208 132.696 201.599 132.97 200.85 133.309C200.093 133.647 199.195 134.048 198.198 134.493C197.699 134.715 197.175 134.949 196.631 135.19C196.36 135.311 196.083 135.434 195.802 135.559L195.697 135.605C195.664 135.62 195.622 135.641 195.576 135.646C195.486 135.657 195.392 135.621 195.332 135.551C195.301 135.515 195.284 135.476 195.269 135.436C195.254 135.393 195.25 135.345 195.258 135.3C195.272 135.21 195.335 135.128 195.42 135.091C197.726 134.074 199.813 133.154 201.33 132.485C202.089 132.156 202.695 131.881 203.131 131.708C203.255 131.686 203.363 131.762 203.4 131.846C203.445 131.926 203.443 132.014 203.417 132.071C203.361 132.188 203.28 132.198 203.284 132.198Z" fill="#263238"/>
<path d="M203.013 131.138L195.044 134.67C194.924 134.723 194.784 134.669 194.73 134.549L194.72 134.525C194.666 134.405 194.721 134.264 194.841 134.211L202.81 130.679C202.93 130.626 203.07 130.68 203.123 130.8L203.134 130.824C203.187 130.944 203.133 131.085 203.013 131.138Z" fill="#E0E0E0"/>
<path d="M203.014 131.138C203.007 131.133 203.089 131.115 203.134 130.997C203.155 130.939 203.15 130.86 203.102 130.782C203.059 130.707 202.95 130.649 202.841 130.685C202.398 130.884 201.766 131.168 200.988 131.518C199.415 132.219 197.25 133.183 194.859 134.248C194.796 134.275 194.751 134.336 194.743 134.404C194.738 134.437 194.743 134.472 194.756 134.503C194.771 134.541 194.785 134.567 194.81 134.592C194.857 134.64 194.93 134.66 194.995 134.644C195.057 134.624 195.138 134.582 195.209 134.553C195.501 134.424 195.788 134.297 196.071 134.171C196.636 133.922 197.181 133.681 197.7 133.452C198.739 132.995 199.674 132.584 200.461 132.237C201.245 131.896 201.88 131.619 202.326 131.425C202.543 131.333 202.713 131.26 202.834 131.208C202.89 131.186 202.933 131.168 202.968 131.153C202.998 131.142 203.013 131.137 203.014 131.138C203.014 131.139 203 131.147 202.971 131.162C202.937 131.177 202.895 131.198 202.841 131.224C202.721 131.279 202.553 131.356 202.339 131.455C201.896 131.654 201.264 131.939 200.485 132.29C199.699 132.641 198.766 133.058 197.73 133.521C197.212 133.751 196.667 133.994 196.103 134.244C195.82 134.37 195.533 134.497 195.242 134.627C195.165 134.659 195.104 134.693 195.014 134.723C194.922 134.746 194.82 134.717 194.753 134.65C194.719 134.618 194.695 134.57 194.681 134.534C194.663 134.49 194.656 134.441 194.663 134.394C194.673 134.299 194.738 134.212 194.826 134.174C197.221 133.118 199.389 132.161 200.965 131.466C201.752 131.122 202.386 130.843 202.832 130.655C202.958 130.617 203.078 130.686 203.122 130.77C203.171 130.853 203.175 130.943 203.149 131.003C203.095 131.127 203.009 131.138 203.014 131.138Z" fill="#263238"/>
<path d="M202.68 130.104L194.505 133.727C194.385 133.781 194.245 133.726 194.191 133.606L194.181 133.582C194.127 133.462 194.182 133.322 194.302 133.269L202.477 129.645C202.597 129.592 202.738 129.646 202.791 129.766L202.802 129.79C202.855 129.91 202.801 130.051 202.68 130.104Z" fill="#E0E0E0"/>
<path d="M202.678 130.104C202.671 130.099 202.755 130.081 202.799 129.959C202.82 129.899 202.811 129.818 202.76 129.74C202.714 129.665 202.598 129.611 202.489 129.656C202.036 129.86 201.388 130.152 200.591 130.511C198.981 131.228 196.764 132.215 194.316 133.306C194.252 133.334 194.205 133.397 194.199 133.466C194.195 133.501 194.202 133.535 194.216 133.567C194.232 133.607 194.247 133.632 194.274 133.656C194.325 133.703 194.401 133.719 194.466 133.698C194.534 133.67 194.614 133.633 194.687 133.601C194.986 133.469 195.28 133.339 195.569 133.211C196.148 132.955 196.706 132.709 197.238 132.474C198.301 132.006 199.258 131.585 200.065 131.23C200.867 130.881 201.518 130.597 201.973 130.399C202.196 130.304 202.37 130.229 202.494 130.176C202.551 130.153 202.596 130.134 202.63 130.12C202.661 130.108 202.677 130.103 202.678 130.104C202.678 130.105 202.663 130.113 202.633 130.128C202.599 130.144 202.556 130.165 202.5 130.191C202.378 130.247 202.206 130.327 201.986 130.428C201.533 130.632 200.886 130.923 200.088 131.283C199.284 131.642 198.328 132.069 197.268 132.542C196.737 132.779 196.179 133.027 195.602 133.283C195.313 133.412 195.018 133.542 194.72 133.675C194.643 133.708 194.575 133.741 194.49 133.775C194.398 133.804 194.292 133.782 194.22 133.716C194.184 133.686 194.157 133.637 194.142 133.6C194.122 133.556 194.114 133.506 194.119 133.458C194.127 133.36 194.193 133.27 194.283 133.231C196.735 132.149 198.955 131.17 200.568 130.459C201.37 130.109 202.022 129.825 202.477 129.627C202.603 129.577 202.731 129.642 202.78 129.727C202.832 129.81 202.84 129.902 202.814 129.964C202.762 130.093 202.672 130.103 202.678 130.104Z" fill="#263238"/>
<path d="M202.411 129.042L193.904 132.812C193.783 132.865 193.643 132.811 193.59 132.691L193.579 132.667C193.526 132.547 193.58 132.407 193.7 132.353L202.207 128.583C202.327 128.53 202.467 128.584 202.521 128.704L202.531 128.728C202.585 128.848 202.531 128.989 202.411 129.042Z" fill="#E0E0E0"/>
<path d="M202.408 129.042C202.401 129.037 202.489 129.019 202.531 128.891C202.552 128.828 202.537 128.743 202.482 128.665C202.427 128.59 202.304 128.545 202.194 128.605C201.724 128.817 201.052 129.119 200.224 129.492C198.554 130.236 196.255 131.26 193.715 132.39C193.648 132.419 193.602 132.487 193.597 132.559C193.593 132.628 193.631 132.709 193.685 132.751C193.741 132.795 193.821 132.804 193.886 132.774C193.964 132.74 194.042 132.705 194.119 132.671C194.429 132.534 194.735 132.399 195.035 132.266C195.635 132.001 196.214 131.745 196.765 131.502C197.868 131.017 198.862 130.579 199.697 130.212C200.53 129.849 201.205 129.554 201.677 129.348C201.908 129.25 202.089 129.172 202.217 129.117C202.275 129.093 202.322 129.074 202.358 129.059C202.391 129.047 202.407 129.041 202.408 129.042C202.409 129.043 202.393 129.052 202.362 129.067C202.327 129.083 202.282 129.105 202.224 129.132C202.098 129.19 201.918 129.272 201.69 129.377C201.221 129.589 200.549 129.892 199.721 130.264C198.887 130.637 197.896 131.079 196.796 131.57C196.245 131.815 195.667 132.073 195.067 132.339C194.767 132.472 194.462 132.608 194.152 132.745C194.075 132.779 193.997 132.814 193.919 132.848C193.829 132.89 193.715 132.878 193.635 132.816C193.596 132.785 193.563 132.742 193.546 132.698C193.526 132.657 193.512 132.603 193.516 132.554C193.522 132.452 193.588 132.357 193.682 132.316C196.225 131.194 198.528 130.178 200.201 129.44C201.033 129.077 201.709 128.783 202.181 128.577C202.303 128.513 202.444 128.566 202.501 128.651C202.558 128.736 202.571 128.83 202.547 128.896C202.525 128.962 202.483 129 202.455 129.019C202.426 129.038 202.408 129.042 202.408 129.042Z" fill="#263238"/>
<path d="M190.961 129.234C190.997 129.315 192.022 131.158 192.548 132.104C192.742 132.451 193.083 132.69 193.476 132.754L194.051 132.847L202.549 129.117L202.866 128.636C203.087 128.301 203.14 127.881 203.01 127.501L201.954 124.408L190.961 129.234Z" fill="#DFF36B"/>
<g opacity="0.3">
<path d="M195.91 135.442C196.81 135.268 197.633 134.925 198.53 134.527C199.254 134.205 199.974 133.913 200.754 133.551C201.326 133.285 201.844 133.023 202.409 132.746C202.695 132.606 202.981 132.392 203.014 132.308L195.91 135.442Z" fill="black"/>
</g>
<g opacity="0.3">
<path d="M195.172 134.583C196.136 134.38 197.022 134.01 197.989 133.581C198.77 133.234 199.545 132.917 200.387 132.529C201.004 132.244 201.564 131.963 202.173 131.666C202.481 131.516 202.793 131.291 202.83 131.205L195.172 134.583Z" fill="black"/>
</g>
<g opacity="0.3">
<path d="M194.742 133.601C195.706 133.399 196.592 133.029 197.559 132.6C198.34 132.253 199.115 131.936 199.957 131.547C200.574 131.263 201.134 130.982 201.743 130.685C202.052 130.535 202.363 130.31 202.401 130.224L194.742 133.601Z" fill="black"/>
</g>
<g opacity="0.3">
<path d="M194.305 132.62C195.268 132.417 196.155 132.047 197.122 131.618C197.902 131.271 198.678 130.955 199.52 130.566C200.137 130.281 200.696 130 201.306 129.703C201.614 129.553 201.926 129.328 201.963 129.242L194.305 132.62Z" fill="black"/>
</g>
<path opacity="0.3" d="M190.961 129.234C190.997 129.315 192.022 131.158 192.548 132.104C192.742 132.451 193.083 132.69 193.476 132.754L194.051 132.847L202.549 129.117L202.866 128.636C203.087 128.301 203.14 127.881 203.01 127.501L201.954 124.408L190.961 129.234Z" fill="black"/>
<path d="M202.981 128.002C202.99 128.022 200.725 129.036 197.921 130.267C195.117 131.498 192.837 132.479 192.828 132.459C192.819 132.438 195.085 131.424 197.889 130.193C200.692 128.962 202.972 127.981 202.981 128.002Z" fill="#263238"/>
<path d="M201.864 124.378C201.875 124.401 199.419 125.512 196.38 126.861C193.339 128.21 190.866 129.285 190.856 129.263C190.845 129.24 193.3 128.129 196.341 126.78C199.38 125.432 201.854 124.356 201.864 124.378Z" fill="#263238"/>
<path d="M34 71.1855V66.8144H32.2769C32.1997 66.2736 32.0961 65.7411 31.9642 65.2197L33.5567 64.5661L31.8966 60.5223L30.297 61.179C30.0045 60.6837 29.6876 60.2052 29.3435 59.748L30.5665 58.5248L27.4753 55.4335L26.2503 56.6585C25.8186 56.3352 25.3685 56.0349 24.9035 55.7572L25.5722 54.1576L21.5388 52.4718L20.8707 54.0701C20.3208 53.9282 19.7578 53.8185 19.1858 53.7375V52H14.8143V53.7375C14.2753 53.8141 13.7445 53.9166 13.2247 54.0476L12.5665 52.4436L8.52243 54.1037L9.18133 55.7086C8.6865 56.0001 8.20731 56.3158 7.74979 56.6585L6.52481 55.4335L3.43378 58.5248L4.65677 59.748C4.33222 60.1796 4.03058 60.629 3.75192 61.0941L2.15764 60.4282L0.472032 64.4613L2.05963 65.1247C1.91658 65.6766 1.8051 66.2405 1.72311 66.8145H0V71.1856H1.71897C1.79521 71.7274 1.8983 72.2606 2.02919 72.7829L0.443572 73.4339L2.10345 77.4777L3.68793 76.8272C3.98044 77.3251 4.29755 77.8068 4.64227 78.2666L3.43368 79.4752L6.52472 82.5665L7.7316 81.3596C8.16547 81.6859 8.61781 81.9889 9.0855 82.2688L8.42782 83.8423L12.4612 85.5281L13.1171 83.959C13.671 84.1023 14.2379 84.2133 14.8141 84.2952V86H19.1856V84.2952C19.7291 84.2183 20.2638 84.1143 20.7873 83.9825L21.4336 85.5564L25.4777 83.8963L24.8295 82.3179C25.3273 82.0242 25.8084 81.7053 26.2683 81.3596L27.4749 82.5665L30.5661 79.4752L29.3577 78.2666C29.6832 77.8327 29.9844 77.3799 30.2634 76.912L31.8425 77.5717L33.5283 73.5386L31.9487 72.8784C32.0913 72.326 32.2003 71.7603 32.2812 71.1855H34ZM17.0002 78.504C11.7604 78.504 7.51251 74.2563 7.51251 69.0163C7.51251 63.7762 11.7604 59.5286 17.0002 59.5286C22.2402 59.5286 26.4879 63.7763 26.4879 69.0163C26.4879 74.2563 22.2402 78.504 17.0002 78.504Z" fill="#DFF36B"/>
<path d="M182.594 99.3252L202.221 87.9804L190.934 68.4538C191.043 68.3854 191.17 68.3084 191.214 68.2827C192.274 67.658 193.885 67.8568 194.496 67.8267C196.354 68.1246 198.322 67.8104 200.079 66.7951C204.096 64.4731 205.493 59.3619 203.241 55.323L203.244 55.3217C203.236 55.3085 203.228 55.2965 203.22 55.2839C203.213 55.2707 203.206 55.2574 203.199 55.2449L203.197 55.2462C200.821 51.2793 195.695 49.9384 191.677 52.2604C189.921 53.2757 188.667 54.8238 187.997 56.5829C187.666 57.0972 187.034 58.5931 185.964 59.1993C185.919 59.2246 185.79 59.296 185.676 59.3567L174.389 39.8301L126.238 67.6615L154.07 115.812L173.743 104.441C173.742 104.434 173.74 104.426 173.739 104.419L173.576 104.513C173.542 104.432 173.505 104.353 173.463 104.278C172.856 103.207 171.361 102.576 170.846 102.245C169.088 101.575 167.539 100.321 166.524 98.5648C164.202 94.5475 165.543 89.4205 169.51 87.0451L169.508 87.0427C169.521 87.0355 169.534 87.0289 169.547 87.0217C169.56 87.0139 169.572 87.0061 169.585 86.9983L169.587 87.0007C173.625 84.7492 178.737 86.1458 181.059 90.1631C182.074 91.9197 182.388 93.8879 182.09 95.7455C182.12 96.357 181.921 97.9682 182.546 99.028C182.59 99.1013 182.64 99.1727 182.693 99.2437L182.517 99.3452C182.542 99.3372 182.568 99.3299 182.594 99.3252Z" fill="#B4B4B4"/>
<path d="M72.4317 92.0546V69.385H49.8779C49.8734 69.2558 49.8703 69.1074 49.8698 69.0563C49.8593 67.826 50.8376 66.5307 51.1179 65.9865C52.3054 64.5272 53.0182 62.6661 53.0182 60.6373C53.0182 55.997 49.2918 52.2296 44.6687 52.1582V52.1558C44.6538 52.1558 44.639 52.157 44.6243 52.157C44.6093 52.157 44.5946 52.1558 44.5796 52.1558V52.1582C39.9568 52.2298 36.2302 55.997 36.2302 60.6373C36.2302 62.6661 36.943 64.5272 38.1305 65.9865C38.4107 66.5307 39.3894 67.826 39.3786 69.0563C39.3779 69.1074 39.3752 69.2558 39.3704 69.385H16.8164V125H72.4317V102.277C72.4248 102.275 72.4179 102.273 72.411 102.27V102.457C72.3233 102.447 72.2361 102.439 72.1506 102.438C70.9205 102.427 69.6249 103.406 69.081 103.686C67.6212 104.874 65.76 105.587 63.7318 105.587C59.0915 105.587 55.3241 101.86 55.2527 97.2369H55.25C55.25 97.2219 55.2513 97.2075 55.2513 97.1925C55.2513 97.1775 55.25 97.163 55.25 97.1481H55.2527C55.3241 92.5246 59.0915 88.7987 63.7318 88.7987C65.76 88.7987 67.6211 89.5112 69.081 90.6989C69.6249 90.9789 70.9205 91.9575 72.1506 91.9467C72.2361 91.9461 72.3233 91.9383 72.411 91.9275V92.1312C72.4164 92.1052 72.4233 92.0794 72.4317 92.0546Z" fill="#666666"/>
<path d="M145.219 54.0175L123.413 48.2586C123.441 48.1324 123.476 47.9889 123.489 47.939C123.793 46.7471 125.069 45.7445 125.479 45.2897C127 44.1818 128.164 42.5646 128.683 40.6031C129.867 36.1166 127.227 31.5226 122.775 30.273L122.776 30.2706C122.761 30.267 122.747 30.264 122.732 30.2603C122.718 30.2561 122.704 30.2514 122.69 30.2476L122.689 30.2501C118.201 29.1393 113.636 31.8301 112.451 36.316C111.933 38.2775 112.147 40.2589 112.922 41.9734C113.055 42.5711 113.67 44.0736 113.345 45.2602C113.331 45.3094 113.291 45.4519 113.254 45.5757L91.4475 39.8167L85.6882 61.6225C85.562 61.5942 85.4185 61.5594 85.3687 61.5468C84.1765 61.2428 83.1738 59.9662 82.7194 59.5566C81.6113 58.0354 79.9936 56.8711 78.0328 56.3533C73.5463 55.168 68.9525 57.809 67.7027 62.2605L67.7 62.2599C67.6964 62.2744 67.6937 62.2887 67.6901 62.3032C67.6862 62.3176 67.6814 62.3315 67.6772 62.3458L67.6799 62.3464C66.5687 66.8347 69.2596 71.3999 73.7461 72.5846C75.707 73.1024 77.6887 72.8887 79.4032 72.113C80.0007 71.9815 81.5032 71.3656 82.6897 71.6907C82.7392 71.7039 82.8816 71.7447 83.0054 71.7821L77.2461 93.5885L131.018 107.789L145.219 54.0175Z" fill="#494949"/>
<path d="M189.692 22.2238C187.797 20.2165 185.383 18.4764 182.711 17.6068C182.102 17.409 181.472 17.2667 180.836 17.1878C180.805 17.0453 180.773 16.9041 180.738 16.7645C179.157 10.518 173.309 6.1809 166.759 6.29076C166.166 6.30066 166.136 7.21132 166.732 7.20109C171.796 7.11615 176.472 9.8139 178.775 14.2137C179.239 15.1009 179.627 16.0924 179.884 17.1195C178.325 17.0891 176.771 17.4652 175.428 18.3818C173.583 19.6418 171.804 22.5046 173.347 24.5702C174.863 26.6002 178.067 25.7094 179.559 24.0541C181.02 22.4328 181.284 20.2028 181.004 18.136C181.46 18.209 181.912 18.3158 182.354 18.4559C184.691 19.1954 186.804 20.6769 188.523 22.3599C190.384 24.1811 191.845 26.4166 192.563 28.9286C193.3 31.5069 193.278 34.324 192.261 36.8695C191.328 39.2071 189.573 41.1979 187.337 42.394C187.542 40.6217 187.801 38.8548 188.128 37.0971C188.174 36.8545 188.081 36.6072 187.822 36.5352C187.606 36.4749 187.29 36.6058 187.245 36.8501C186.878 38.8181 186.582 40.797 186.362 42.7824C186.355 42.8381 186.367 42.8908 186.385 42.9408C186.3 43.0927 186.343 43.2836 186.459 43.4203C186.476 43.6012 186.593 43.7838 186.78 43.8145C188.853 44.152 190.958 44.2795 193.068 44.1761C193.66 44.1469 193.691 43.2366 193.096 43.2657C191.392 43.3493 189.686 43.2801 188.001 43.0659C190.147 41.8623 191.851 39.9504 192.876 37.7364C194.023 35.2583 194.251 32.4705 193.739 29.8459C193.177 26.9657 191.696 24.3452 189.692 22.2238ZM179.958 21.3991C179.425 23.3745 177.395 25.3863 175.169 24.7138C173.823 24.3066 173.507 23.0072 173.884 21.7635C174.205 20.7031 174.954 19.8023 175.871 19.1703C177.143 18.2935 178.606 17.9685 180.071 18.039C180.251 19.1659 180.25 20.3123 179.958 21.3991Z" fill="#666666"/>
<path d="M90.0898 138.414C87.7396 139.862 84.9581 140.918 82.1512 141.066C81.512 141.1 80.8671 141.075 80.2324 140.986C80.1656 141.116 80.0976 141.244 80.0274 141.369C76.8835 146.994 70.1129 149.67 63.8147 147.868C63.2439 147.705 63.4506 146.818 64.0238 146.982C68.8932 148.375 74.1083 146.979 77.4713 143.325C78.1492 142.588 78.7812 141.731 79.2945 140.805C77.7812 140.431 76.377 139.666 75.3175 138.433C73.8615 136.738 72.8839 133.513 74.9086 131.917C76.8988 130.348 79.7626 132.038 80.7754 134.023C81.7675 135.967 81.4455 138.19 80.6395 140.114C81.0989 140.161 81.5632 140.175 82.0267 140.154C84.4751 140.045 86.8998 139.161 88.9962 137.98C91.2649 136.702 93.2545 134.921 94.5983 132.681C95.9777 130.381 96.6851 127.654 96.3619 124.932C96.0653 122.433 94.8859 120.056 93.0352 118.321C92.7751 120.086 92.5675 121.86 92.4289 123.643C92.4099 123.889 92.2562 124.104 91.9881 124.106C91.7631 124.108 91.4921 123.9 91.5114 123.652C91.6665 121.657 91.8928 119.669 92.1942 117.694C92.2025 117.638 92.2269 117.59 92.2573 117.547C92.2146 117.378 92.306 117.205 92.4536 117.103C92.5166 116.932 92.6763 116.786 92.865 116.805C94.9553 117.016 97.0212 117.437 99.0327 118.083C99.597 118.265 99.3915 119.152 98.8236 118.97C97.1995 118.448 95.5337 118.073 93.8509 117.844C95.6125 119.562 96.7631 121.85 97.1799 124.254C97.6465 126.944 97.1452 129.696 95.9714 132.099C94.6835 134.736 92.5743 136.883 90.0898 138.414ZM80.4735 136.691C80.4707 134.645 79.0301 132.176 76.7063 132.25C75.3001 132.294 74.6595 133.468 74.7014 134.767C74.7368 135.874 75.2275 136.938 75.949 137.786C76.9512 138.962 78.2805 139.655 79.7136 139.966C80.1788 138.924 80.4752 137.816 80.4735 136.691Z" fill="#666666"/>
</svg>
