<svg width="234" height="156" viewBox="0 0 234 156" fill="none" xmlns="http://www.w3.org/2000/svg">
<path d="M75.6947 21.5333C75.0258 21.6974 74.4261 21.9963 73.9141 22.3928C73.7347 22.5317 73.5391 22.6468 73.3307 22.732L71.01 13.2737C70.839 12.5773 70.1364 12.1514 69.44 12.3224L59.5986 14.737L59.8726 15.8539C59.9359 16.112 60.0498 16.3544 60.2051 16.57C60.5178 17.0034 60.7552 17.5013 60.8906 18.052C61.4709 20.4173 59.9743 22.8056 57.5644 23.2961C55.4409 23.7282 53.2747 22.4584 52.6129 20.3951C52.3799 19.6678 52.353 18.9331 52.4916 18.2436C52.5533 17.9356 52.5549 17.6189 52.48 17.3138L52.2878 16.5307L42.3095 18.9452C41.4546 19.1549 40.9313 20.0182 41.1413 20.8731L43.2838 29.6472L42.604 29.8141C42.5269 29.8331 42.448 29.85 42.3684 29.8637C41.3763 29.4559 40.2509 29.3467 39.1292 29.6219C36.3159 30.312 34.5949 33.1522 35.2851 35.9658C35.9752 38.7794 38.8154 40.5001 41.6287 39.8099C42.5488 39.584 43.3509 39.1273 43.9914 38.5176C44.1197 38.4552 44.2535 38.4053 44.393 38.3713L45.2653 38.1573L47.6674 47.9475C47.8771 48.8024 48.7404 49.3256 49.5953 49.116L76.8276 42.4345C77.524 42.2635 77.9498 41.5606 77.7789 40.8645L75.3331 30.8964C75.5112 30.8973 75.6897 30.9176 75.8654 30.9554C76.7979 31.1563 77.8076 31.0849 78.7866 30.6596C80.7294 29.8156 81.896 27.7337 81.6152 25.6214C81.229 22.7148 78.4459 20.8584 75.6947 21.5333Z" fill="#616161"/>
<path d="M196.956 73.8269C197.35 74.0097 197.763 74.099 198.171 74.1055C198.314 74.108 198.455 74.1283 198.591 74.1685L196.005 79.7356C195.815 80.1452 195.993 80.6319 196.403 80.8223L202.195 83.5129L202.501 82.8556C202.571 82.7036 202.611 82.5395 202.619 82.3723C202.637 82.0359 202.716 81.6974 202.867 81.3732C203.513 79.9811 205.191 79.3961 206.569 80.1043C207.784 80.7287 208.349 82.2069 207.862 83.4827C207.69 83.9323 207.413 84.3042 207.074 84.589C206.922 84.7163 206.796 84.8714 206.713 85.0508L206.499 85.5116L212.359 88.2563C212.862 88.49 213.46 88.2716 213.693 87.7683L216.097 82.6078L216.497 82.7938C216.543 82.8147 216.588 82.8375 216.633 82.8621C216.96 83.4537 217.471 83.951 218.131 84.2577C219.787 85.0268 221.753 84.3079 222.522 82.6521C223.291 80.9964 222.572 79.0304 220.916 78.261C220.375 78.0096 219.8 77.9182 219.245 77.9656C219.157 77.9456 219.072 77.9175 218.99 77.8795L218.476 77.6411L221.153 71.8788C221.387 71.3755 221.168 70.778 220.665 70.5444L204.636 63.0988C204.226 62.9085 203.74 63.0863 203.549 63.4963L200.824 69.3634C200.737 69.2929 200.657 69.2124 200.586 69.1248C200.206 68.6583 199.681 68.2955 199.032 68.1192C197.744 67.7688 196.349 68.3332 195.655 69.4826C194.699 71.0648 195.337 73.0747 196.956 73.8269Z" fill="#616161"/>
<path d="M206.76 136.165C207.016 135.941 207.211 135.674 207.345 135.383C207.392 135.281 207.452 135.186 207.524 135.102L210.693 138.722C210.927 138.989 211.332 139.016 211.598 138.782L215.366 135.484L214.991 135.057C214.905 134.958 214.8 134.878 214.682 134.819C214.447 134.7 214.229 134.535 214.044 134.324C213.252 133.419 213.365 132.031 214.31 131.268C215.143 130.595 216.382 130.659 217.142 131.414C217.41 131.68 217.589 131.996 217.685 132.33C217.728 132.479 217.799 132.618 217.901 132.735L218.164 133.035L221.991 129.706C222.318 129.419 222.351 128.922 222.065 128.595L219.129 125.234L219.389 125.006C219.419 124.98 219.45 124.955 219.481 124.931C220.009 124.884 220.528 124.676 220.957 124.3C222.034 123.357 222.143 121.72 221.2 120.643C220.257 119.566 218.62 119.457 217.543 120.4C217.191 120.708 216.943 121.091 216.801 121.504C216.759 121.561 216.711 121.613 216.658 121.66L216.324 121.952L213.044 118.205C212.757 117.877 212.26 117.844 211.932 118.131L201.508 127.256C201.242 127.489 201.214 127.894 201.448 128.161L204.788 131.977C204.71 132.017 204.627 132.048 204.541 132.072C204.086 132.196 203.66 132.457 203.327 132.866C202.667 133.678 202.629 134.857 203.233 135.719C204.064 136.906 205.707 137.087 206.76 136.165Z" fill="#B4B4B4"/>
<path d="M169.599 28.2796C169.076 28.1345 168.548 28.1086 168.043 28.1838C167.866 28.21 167.687 28.2138 167.511 28.1919L169.565 20.7938C169.716 20.2493 169.397 19.6852 168.852 19.5339L161.154 17.3977L160.912 18.2713C160.856 18.4731 160.84 18.6837 160.865 18.8918C160.912 19.3102 160.884 19.7442 160.764 20.1751C160.25 22.0252 158.3 23.0898 156.454 22.4976C154.828 21.9756 153.828 20.2668 154.169 18.5929C154.289 18.0029 154.554 17.4875 154.916 17.0666C155.077 16.8788 155.2 16.6617 155.266 16.423L155.436 15.8105L147.644 13.6215C146.976 13.4359 146.283 13.8278 146.098 14.4964L144.186 21.3554L143.654 21.2078C143.594 21.191 143.533 21.1726 143.473 21.151C142.949 20.488 142.217 19.9788 141.34 19.7352C139.139 19.1246 136.86 20.4135 136.249 22.6137C135.639 24.8142 136.927 27.0931 139.128 27.704C139.848 27.9036 140.575 27.899 141.251 27.7271C141.363 27.7336 141.475 27.7511 141.584 27.7813L142.266 27.9707L140.141 35.6285C139.955 36.2974 140.347 36.9897 141.016 37.1753L162.317 43.0868C162.861 43.2378 163.425 42.919 163.576 42.3745L165.74 34.5776C165.862 34.6469 165.977 34.7296 166.083 34.8235C166.647 35.3214 167.369 35.6618 168.206 35.747C169.867 35.9161 171.473 34.9349 172.094 33.3743C172.949 31.2271 171.751 28.8771 169.599 28.2796Z" fill="#B4B4B4"/>
<path d="M10.2264 107.959C10.7044 108.137 11.1961 108.203 11.6747 108.174C11.8422 108.163 12.0101 108.174 12.1732 108.209L9.65634 114.967C9.47102 115.464 9.72405 116.017 10.2217 116.203L17.2529 118.822L17.5499 118.024C17.6186 117.839 17.6498 117.644 17.6445 117.447C17.6336 117.051 17.6953 116.648 17.842 116.254C18.4713 114.564 20.3823 113.725 22.0621 114.428C23.5422 115.047 24.34 116.727 23.886 118.266C23.726 118.808 23.4364 119.269 23.0645 119.634C22.8986 119.797 22.7656 119.99 22.6845 120.208L22.4761 120.767L29.5916 123.443C30.2025 123.67 30.882 123.36 31.1098 122.749L33.4507 116.484L33.9365 116.665C33.9917 116.686 34.0469 116.708 34.1012 116.733C34.539 117.396 35.1826 117.931 35.9842 118.229C37.9941 118.978 40.2305 117.956 40.9793 115.946C41.7278 113.936 40.7053 111.699 38.6954 110.951C38.038 110.706 37.3566 110.652 36.7108 110.758C36.6063 110.743 36.5033 110.718 36.4038 110.681L35.7804 110.449L38.3856 103.454C38.6131 102.843 38.3023 102.164 37.6914 101.936L18.2348 94.6894C17.7371 94.5041 17.184 94.7571 16.9986 95.2547L14.346 102.377C14.2374 102.302 14.1367 102.215 14.0446 102.119C13.5573 101.608 12.9093 101.231 12.1327 101.084C10.5917 100.792 9.0105 101.581 8.3032 102.991C7.32976 104.931 8.26077 107.227 10.2264 107.959Z" fill="#B4B4B4"/>
<path d="M111.95 92.8394C113.687 92.7189 115.189 93.1897 116.641 93.8665C117.289 94.1688 118.053 94.3878 118.769 94.3878L120.67 94.3445L120.692 73.2193C120.692 71.224 119.065 69.6069 117.057 69.6069L96.9761 69.6812V69.2481C96.9761 68.3995 97.1936 67.5711 97.5652 66.807C98.5392 64.8049 98.9389 62.4771 98.5193 60.0217C97.6865 55.1488 93.6165 51.3468 88.6728 50.8089C81.87 50.0689 76.1149 55.3442 76.1149 61.9554C76.1149 63.5625 76.459 65.0882 77.0733 66.4691C77.3912 67.1839 77.5753 67.9496 77.5753 68.7311L77.6942 69.6809H76.4777H53.4927C51.4853 69.6809 49.8579 71.2983 49.8579 73.2932V93.9488H48.1319C47.3288 93.9488 46.5451 93.7432 45.8221 93.3913C43.9277 92.4697 41.6064 92.0915 39.2829 92.4887C34.6722 93.2765 31.0742 97.1278 30.5657 101.806C29.8655 108.243 34.8572 113.688 41.1128 113.688C42.6335 113.688 44.0771 113.363 45.3838 112.781C46.0602 112.481 46.7847 112.306 47.5244 112.306H49.7393L49.7836 137.572C49.7836 139.197 51.1087 140.514 52.7436 140.514H117.519C119.154 140.514 120.435 138.462 120.435 136.837V113.873H117.813C117.207 113.873 116.608 113.992 116.046 114.218C114.917 114.672 113.685 114.926 112.392 114.926C106.839 114.926 102.363 110.342 102.586 104.774C102.783 99.8678 107.021 93.1813 111.95 92.8394Z" fill="#494949"/>
<path d="M111.951 92.8393C111.951 92.8393 111.893 92.848 111.779 92.8617C111.665 92.8764 111.494 92.8889 111.272 92.9385C110.826 93.0221 110.165 93.2031 109.372 93.614C107.791 94.4205 105.717 96.2629 104.156 99.3386C103.397 100.869 102.711 102.712 102.62 104.821C102.593 105.872 102.728 106.975 103.067 108.068C103.406 109.159 103.958 110.237 104.73 111.204C105.5 112.17 106.487 113.026 107.649 113.665C108.809 114.305 110.144 114.724 111.552 114.839C112.958 114.975 114.437 114.778 115.838 114.249C116.527 113.947 117.309 113.792 118.084 113.825C118.857 113.824 119.641 113.824 120.435 113.823H120.485V113.874C120.487 117.505 120.489 121.367 120.491 125.441C120.492 127.478 120.493 129.569 120.494 131.711C120.494 132.782 120.495 133.865 120.495 134.961C120.495 135.51 120.495 136.061 120.496 136.615C120.502 136.89 120.484 137.179 120.439 137.457C120.383 137.734 120.314 138.01 120.207 138.273C120.004 138.803 119.704 139.302 119.304 139.718C118.913 140.137 118.391 140.464 117.804 140.555C117.506 140.588 117.224 140.574 116.935 140.577C116.647 140.577 116.358 140.578 116.069 140.578C115.49 140.578 114.909 140.578 114.324 140.578C111.985 140.579 109.6 140.58 107.17 140.581C102.309 140.582 97.2681 140.584 92.064 140.585C81.656 140.587 70.5946 140.589 59.0135 140.592C57.5658 140.592 56.11 140.592 54.6464 140.592C53.9114 140.585 53.1882 140.608 52.4378 140.577C51.6853 140.503 50.9652 140.136 50.4638 139.565C49.9552 139 49.686 138.229 49.7047 137.472C49.7034 136.728 49.7019 135.983 49.7006 135.236C49.6978 133.742 49.695 132.241 49.6922 130.732C49.6813 124.698 49.67 118.551 49.6585 112.307L49.739 112.387C49.28 112.387 48.8195 112.387 48.3575 112.387C47.8954 112.395 47.4293 112.367 46.9775 112.419C46.5229 112.473 46.0749 112.59 45.6459 112.76C45.2219 112.939 44.7804 113.131 44.3289 113.269C42.5231 113.853 40.5369 113.924 38.6561 113.477C36.7838 113.013 34.9939 112.07 33.6173 110.666C32.901 109.993 32.3322 109.178 31.824 108.336C31.6046 107.895 31.3507 107.468 31.1922 106.998C31.1073 106.767 31.0028 106.541 30.9335 106.304L30.7385 105.587C30.171 103.233 30.3831 100.695 31.3959 98.5102C32.3927 96.3206 34.1449 94.506 36.2606 93.4224C37.317 92.8755 38.4661 92.527 39.6349 92.3541C40.8058 92.1944 41.9986 92.2231 43.1539 92.4368C43.7314 92.5441 44.2996 92.6976 44.8503 92.8967C45.1255 92.9965 45.3975 93.1051 45.6624 93.2296C45.9307 93.3528 46.1819 93.4773 46.4543 93.57C47.531 93.9949 48.7082 93.8399 49.8572 93.8689L49.7771 93.9491C49.7774 89.4815 49.7777 85.0692 49.778 80.7184C49.7783 78.5431 49.7786 76.3832 49.7786 74.2394C49.7892 73.7059 49.7443 73.1674 49.8426 72.6242C49.9371 72.0866 50.1614 71.5749 50.4825 71.1372C51.118 70.2545 52.1526 69.6773 53.2318 69.6162C61.6755 69.6131 69.8465 69.6103 77.6933 69.6074L77.6203 69.6901C77.5797 69.3644 77.5407 69.0521 77.5017 68.7404L77.5011 68.7357V68.731C77.5014 68.1504 77.3969 67.5726 77.2115 67.0253C77.1207 66.7502 77.0006 66.4896 76.8855 66.2169C76.7738 65.9455 76.6736 65.6697 76.5825 65.3914C76.2219 64.2772 76.0422 63.1135 76.0422 61.9581L76.089 61.0942C76.0999 60.9507 76.098 60.8062 76.1189 60.664L76.1888 60.239C76.2418 59.9573 76.2668 59.6699 76.3432 59.3944L76.5719 58.5692C76.6047 58.43 76.6546 58.2968 76.7098 58.1655L76.8665 57.7689C76.9694 57.504 77.0693 57.2385 77.2109 56.9927L77.6046 56.2423L78.0705 55.5381C78.7235 54.628 79.4732 53.7828 80.3602 53.1167L80.6832 52.8559L81.0289 52.6281C81.2613 52.4796 81.4878 52.3223 81.7237 52.1819C82.2157 51.938 82.6884 51.6553 83.2072 51.4809C84.2144 51.0553 85.2889 50.8453 86.3534 50.7271C86.8898 50.704 87.4242 50.6475 87.9562 50.7018C88.222 50.7196 88.4885 50.7243 88.7518 50.753C89.0142 50.7929 89.2759 50.8325 89.5374 50.8722C91.6122 51.2787 93.5401 52.2437 95.0476 53.6271C96.5552 55.0052 97.6831 56.7546 98.2456 58.6475C98.8369 60.5317 98.8852 62.5328 98.4753 64.3846C98.2687 65.3103 97.9355 66.2007 97.5265 67.0288C97.3402 67.4475 97.1998 67.8843 97.1184 68.3301C97.0301 68.7766 97.0291 69.2259 97.0329 69.6811L96.9749 69.6234C102.421 69.6059 107.524 69.5894 112.252 69.5744C113.434 69.5706 114.592 69.5672 115.727 69.5635C116.011 69.5625 116.293 69.5616 116.573 69.561C116.854 69.5582 117.133 69.5575 117.415 69.5778C117.976 69.6315 118.514 69.8196 118.983 70.1063C119.931 70.6742 120.557 71.6741 120.696 72.714C120.762 73.2382 120.724 73.7492 120.733 74.2556C120.732 74.7617 120.731 75.2618 120.731 75.7554C120.715 83.6521 120.702 89.9299 120.693 94.3453V94.3687L120.669 94.369C119.904 94.3793 119.192 94.4149 118.526 94.4011C117.859 94.3528 117.264 94.1625 116.747 93.9356C115.729 93.4524 114.845 93.1525 114.122 93.0046C113.4 92.8546 112.85 92.8312 112.489 92.829C112.308 92.8271 112.173 92.8324 112.083 92.8368C111.995 92.839 111.951 92.8393 111.951 92.8393C111.951 92.8393 112.127 92.8177 112.49 92.8156C112.852 92.8137 113.403 92.833 114.128 92.9797C114.853 93.1238 115.743 93.4218 116.763 93.9016C117.277 94.1253 117.87 94.3122 118.53 94.3581C119.19 94.3696 119.906 94.3325 120.67 94.3203L120.647 94.3441C120.647 89.9286 120.648 83.6509 120.648 75.7542C120.648 75.2606 120.648 74.7607 120.648 74.2544C120.639 73.7499 120.675 73.231 120.61 72.7253C120.473 71.7113 119.861 70.7369 118.936 70.1847C118.479 69.9057 117.954 69.7232 117.408 69.6714C117.136 69.6524 116.856 69.653 116.575 69.6561C116.295 69.6574 116.012 69.6586 115.729 69.6599C114.594 69.6649 113.436 69.6695 112.254 69.6748C107.525 69.6948 102.423 69.716 96.977 69.7388L96.9196 69.7391L96.919 69.6811C96.9146 69.2309 96.9153 68.7638 97.0051 68.3092C97.0881 67.8537 97.231 67.4078 97.4204 66.981C97.8297 66.1496 98.1548 65.2769 98.3595 64.3584C98.7639 62.5275 98.7143 60.5463 98.128 58.6843C97.5705 56.8133 96.4538 55.0845 94.9625 53.7229C93.4708 52.356 91.5642 51.4038 89.5143 51.0032C89.256 50.9642 88.9973 50.9252 88.7381 50.8859C88.4775 50.8578 88.2139 50.8534 87.9515 50.836C87.4255 50.782 86.8976 50.8388 86.3675 50.8616C85.3157 50.9792 84.254 51.1867 83.2596 51.6082C82.747 51.7804 82.2806 52.0606 81.7942 52.3014C81.5611 52.44 81.3374 52.596 81.1081 52.7426L80.7665 52.9679L80.4479 53.2259C79.5718 53.8842 78.8321 54.7197 78.1875 55.6189L77.7276 56.3144L77.3395 57.0557C77.1994 57.2984 77.1011 57.5608 76.9997 57.8223L76.8452 58.2138C76.791 58.3436 76.7417 58.475 76.7095 58.6123L76.4843 59.4272C76.4091 59.6993 76.3847 59.9832 76.3323 60.2612L76.2634 60.6808C76.2428 60.8212 76.2446 60.9638 76.234 61.1054L76.1882 61.9585C76.1888 63.0991 76.3666 64.2476 76.7229 65.3471C76.8128 65.6216 76.9117 65.8937 77.0221 66.1617C77.1342 66.4266 77.259 66.6974 77.3519 66.9788C77.5419 67.5398 77.6499 68.1332 77.6499 68.7314L77.6493 68.7223C77.6883 69.034 77.7273 69.3463 77.7681 69.672L77.7784 69.7547H77.6951C69.8518 69.76 61.6842 69.7656 53.2443 69.7716C52.21 69.8302 51.2194 70.384 50.6107 71.2295C50.3031 71.6489 50.0884 72.1384 49.9983 72.6532C49.9044 73.1639 49.9471 73.704 49.9371 74.24C49.9374 76.3838 49.9374 78.5438 49.9377 80.719C49.9381 85.0699 49.9384 89.4822 49.939 93.9497V94.0299H49.8585C49.2829 94.0299 48.7063 94.0299 48.1288 94.0299C47.541 94.0296 46.955 93.9188 46.4018 93.7219C46.1251 93.628 45.8552 93.4948 45.5963 93.3759C45.3357 93.2536 45.0677 93.1466 44.7966 93.0483C44.254 92.8524 43.6943 92.7014 43.1255 92.5956C41.9874 92.385 40.8117 92.3569 39.658 92.5145C38.5067 92.6852 37.3763 93.028 36.3358 93.5669C34.2529 94.6339 32.526 96.422 31.5447 98.5782C30.5476 100.729 30.3388 103.23 30.8976 105.549L31.0898 106.254C31.1578 106.488 31.2608 106.71 31.3447 106.939C31.5004 107.402 31.751 107.821 31.9669 108.256C32.4676 109.084 33.0273 109.888 33.7331 110.551C35.0884 111.934 36.8512 112.862 38.6948 113.319C40.5469 113.759 42.5034 113.69 44.2812 113.115C44.7301 112.977 45.151 112.794 45.5882 112.609C46.029 112.435 46.4908 112.314 46.9603 112.259C47.4336 112.204 47.8979 112.234 48.359 112.226C48.8211 112.226 49.2816 112.226 49.7406 112.226H49.8211V112.307C49.8317 118.551 49.842 124.698 49.8519 130.732C49.8544 132.24 49.8569 133.742 49.8594 135.236C49.8607 135.983 49.8619 136.728 49.8632 137.471C49.846 138.201 50.1003 138.922 50.5826 139.461C51.0581 140.003 51.7411 140.351 52.455 140.422C53.1744 140.451 53.9201 140.43 54.6483 140.437C56.1119 140.437 57.5677 140.437 59.0154 140.437C70.5965 140.44 81.6578 140.442 92.0658 140.444C97.27 140.445 102.311 140.447 107.172 140.448C109.602 140.449 111.987 140.45 114.326 140.451C114.91 140.451 115.492 140.451 116.071 140.451C116.36 140.451 116.649 140.452 116.937 140.452C117.223 140.449 117.516 140.462 117.788 140.431C118.339 140.346 118.838 140.037 119.216 139.632C119.603 139.231 119.896 138.745 120.094 138.229C120.199 137.973 120.266 137.704 120.32 137.436C120.364 137.163 120.381 136.895 120.375 136.616C120.376 136.061 120.376 135.51 120.376 134.962C120.376 133.865 120.377 132.782 120.377 131.711C120.378 129.569 120.379 127.479 120.38 125.441C120.382 121.367 120.384 117.505 120.386 113.874L120.436 113.924C119.642 113.924 118.859 113.923 118.086 113.923C117.313 113.891 116.563 114.038 115.873 114.339C114.458 114.871 112.964 115.068 111.546 114.929C110.125 114.811 108.779 114.386 107.61 113.74C106.439 113.093 105.445 112.229 104.67 111.254C103.894 110.278 103.339 109.19 102.999 108.09C102.659 106.988 102.525 105.877 102.555 104.819C102.651 102.696 103.343 100.849 104.108 99.3145C105.682 96.2329 107.769 94.3912 109.36 93.5896C110.158 93.1812 110.823 93.004 111.27 92.9251C111.493 92.878 111.665 92.8677 111.78 92.8552C111.893 92.843 111.951 92.8393 111.951 92.8393Z" fill="#263238"/>
<path d="M196.803 93.704C195.232 93.704 193.742 94.0404 192.393 94.6403C191.92 94.8506 191.424 94.9992 190.916 95.0743V72.8687C190.916 71.2341 189.591 69.9087 187.956 69.9087H164.851V72.5308C164.851 73.1367 164.972 73.7354 165.199 74.297C165.655 75.4265 165.911 76.6582 165.911 77.9515C165.911 83.5048 161.299 87.9804 155.696 87.7573C150.759 87.5608 146.652 83.5715 146.308 78.6429C146.186 76.906 146.527 75.2639 147.208 73.8122C147.512 73.1635 147.688 72.4637 147.688 71.747V69.9087L124.279 69.8345C122.272 69.8345 120.645 71.4619 120.645 73.4693L120.622 94.0635H119.026C118.845 94.0635 118.661 94.0585 118.478 94.0451C116.502 92.603 114.069 91.75 111.436 91.75C104.831 91.75 99.4766 97.1045 99.4766 103.71C99.4766 110.315 104.831 115.669 111.436 115.669C113.596 115.669 115.621 115.093 117.37 114.091C117.687 114.022 118.012 113.985 118.339 113.985H120.387V136.97C120.387 138.977 122.014 140.605 124.021 140.605H187.956C189.591 140.605 190.916 139.28 190.916 137.645V114.242C191.31 114.34 191.694 114.482 192.063 114.662C194.018 115.613 196.293 116.004 198.692 115.594C203.453 114.781 207.168 110.804 207.693 105.974C208.416 99.3272 203.262 93.704 196.803 93.704Z" fill="#7D7D7D"/>
<path d="M196.801 93.7039C196.801 93.7039 197.036 93.7117 197.496 93.7345C197.726 93.747 198.014 93.7485 198.351 93.8162C198.52 93.8434 198.703 93.8727 198.9 93.9045C199.098 93.9276 199.303 93.9828 199.521 94.0458C199.739 94.1057 199.97 94.1691 200.215 94.2362C200.455 94.317 200.7 94.4231 200.962 94.5229C201.092 94.5753 201.227 94.624 201.362 94.6829C201.492 94.7507 201.625 94.8199 201.761 94.8904C202.031 95.0374 202.327 95.1634 202.598 95.3603C203.728 96.0595 204.918 97.0966 205.892 98.5468C206.853 99.9888 207.642 101.848 207.754 103.993C207.765 104.26 207.789 104.53 207.79 104.803C207.775 105.076 207.76 105.351 207.745 105.63C207.735 105.769 207.737 105.91 207.716 106.05C207.695 106.19 207.674 106.33 207.652 106.471C207.631 106.612 207.609 106.754 207.587 106.896C207.554 107.036 207.52 107.177 207.487 107.319C207.219 108.451 206.756 109.588 206.085 110.652C205.414 111.714 204.541 112.71 203.471 113.533C202.4 114.352 201.141 115.004 199.756 115.395C199.413 115.501 199.053 115.556 198.697 115.639C198.337 115.696 197.972 115.747 197.603 115.771C196.864 115.827 196.108 115.807 195.352 115.705C194.596 115.608 193.841 115.419 193.103 115.155C192.357 114.903 191.68 114.467 190.903 114.291L190.965 114.242C190.967 117.836 190.969 121.652 190.971 125.673C190.972 127.684 190.973 129.746 190.974 131.857C190.974 132.913 190.975 133.981 190.975 135.061C190.976 135.601 190.976 136.145 190.976 136.691C190.976 136.964 190.976 137.238 190.976 137.512C190.979 137.648 190.968 137.79 190.962 137.93C190.941 138.068 190.93 138.21 190.892 138.345C190.644 139.45 189.709 140.378 188.571 140.604C188.289 140.658 187.994 140.673 187.714 140.667C187.43 140.667 187.146 140.668 186.861 140.668C186.292 140.668 185.719 140.668 185.144 140.668C182.843 140.669 180.496 140.67 178.106 140.671C173.326 140.672 168.371 140.673 163.259 140.675C153.034 140.676 142.176 140.679 130.812 140.681C129.391 140.681 127.963 140.681 126.527 140.681C125.809 140.681 125.089 140.682 124.367 140.682C124.01 140.686 123.634 140.676 123.272 140.607C122.91 140.527 122.561 140.399 122.233 140.224C121.586 139.863 121.043 139.311 120.709 138.644C120.534 138.315 120.426 137.952 120.362 137.585C120.291 137.216 120.31 136.84 120.306 136.478C120.306 135.012 120.306 133.539 120.306 132.059C120.306 126.139 120.305 120.109 120.305 113.984L120.385 114.065C119.912 114.065 119.416 114.065 118.908 114.065C118.656 114.067 118.394 114.06 118.143 114.069C117.889 114.081 117.635 114.115 117.385 114.169L117.408 114.16C115.941 114.999 114.273 115.543 112.543 115.697C110.816 115.844 109.033 115.633 107.368 115.03C105.704 114.431 104.155 113.461 102.887 112.187C101.629 110.905 100.649 109.337 100.057 107.623C99.644 106.395 99.4094 105.106 99.3984 103.813C99.4025 102.522 99.5934 101.236 99.9781 100.009C100.366 98.782 100.979 97.6382 101.727 96.6055C102.092 96.0792 102.532 95.6152 102.968 95.1513L103.675 94.5089C103.913 94.2986 104.18 94.1223 104.431 93.9276C105.467 93.1935 106.607 92.6128 107.811 92.2256C109.021 91.8572 110.278 91.6834 111.533 91.6709C114.046 91.6809 116.526 92.5136 118.523 93.98L118.482 93.9647C119.188 94.0003 119.91 93.9753 120.62 93.9831L120.54 94.063C120.545 89.6632 120.55 85.3192 120.555 81.037C120.558 78.8961 120.561 76.7704 120.563 74.6613L120.564 73.871C120.561 73.6095 120.565 73.344 120.586 73.0748C120.643 72.5412 120.819 72.0224 121.095 71.5647C121.64 70.6446 122.596 69.9835 123.645 69.8147C124.173 69.7254 124.694 69.7682 125.208 69.7604C125.725 69.762 126.241 69.7638 126.755 69.7654C127.784 69.7688 128.809 69.7722 129.829 69.7757C131.87 69.7825 133.892 69.7894 135.896 69.796C139.904 69.8094 143.836 69.8228 147.686 69.8359L147.758 69.8362V69.9089C147.758 70.4602 147.758 71.01 147.758 71.5578C147.773 72.1085 147.697 72.6704 147.526 73.1946C147.444 73.4573 147.333 73.7137 147.219 73.9584C147.106 74.203 147.008 74.4538 146.916 74.7056C146.737 75.212 146.595 75.7302 146.504 76.2559C146.12 78.3597 146.484 80.5484 147.446 82.3877C147.926 83.3077 148.539 84.1545 149.274 84.8702C150.007 85.5866 150.843 86.185 151.742 86.6436C153.537 87.5859 155.602 87.8623 157.538 87.5853C159.477 87.2985 161.286 86.4159 162.681 85.1295C163.367 84.4784 163.996 83.7639 164.457 82.9502C164.931 82.1487 165.311 81.2935 165.524 80.4008C166.001 78.6287 165.939 76.7557 165.409 75.0703C165.288 74.6447 165.091 74.2491 164.969 73.8161C164.848 73.3871 164.788 72.9422 164.79 72.501C164.791 71.6283 164.791 70.7644 164.791 69.9092V69.8512H164.849C170.925 69.854 176.575 69.8568 181.759 69.8593C183.055 69.8599 184.322 69.8609 185.56 69.8615C186.178 69.8618 186.79 69.8621 187.393 69.8627C187.695 69.8646 187.995 69.8552 188.298 69.8843C188.599 69.918 188.891 70.0031 189.165 70.1195C189.712 70.3626 190.176 70.7647 190.487 71.2567C190.804 71.7469 190.956 72.3235 190.958 72.8885C190.957 74.0045 190.956 75.09 190.955 76.1436C190.946 84.5726 190.939 90.9861 190.934 95.0745L190.911 95.0549C191.952 94.9198 192.735 94.4131 193.476 94.2103C194.207 93.9763 194.83 93.8621 195.326 93.7944C195.822 93.7295 196.192 93.7117 196.436 93.7058C196.682 93.7005 196.801 93.7039 196.801 93.7039C196.801 93.7039 196.682 93.707 196.438 93.7158C196.194 93.7251 195.824 93.746 195.329 93.814C194.835 93.8849 194.214 94.0022 193.486 94.2387C192.751 94.4427 191.968 94.9535 190.918 95.0939L190.895 95.097V95.0745C190.891 90.9857 190.884 84.5726 190.874 76.1436C190.874 75.0897 190.873 74.0045 190.872 72.8885C190.869 72.3384 190.721 71.7797 190.413 71.3042C190.11 70.8271 189.659 70.4371 189.129 70.2022C188.862 70.0899 188.58 70.0072 188.287 69.975C187.997 69.9473 187.695 69.9563 187.393 69.9554C186.79 69.9557 186.178 69.956 185.56 69.9566C184.322 69.9573 183.055 69.9582 181.759 69.9588C176.575 69.9613 170.925 69.9641 164.849 69.9669L164.908 69.9089C164.908 70.7641 164.908 71.628 164.909 72.5007C164.907 72.9322 164.966 73.3646 165.084 73.7833C165.2 74.1998 165.401 74.6026 165.524 75.0341C166.062 76.7405 166.127 78.6365 165.645 80.4317C165.43 81.3359 165.045 82.2026 164.566 83.0148C164.1 83.8391 163.462 84.5639 162.768 85.2237C161.355 86.5279 159.524 87.424 157.557 87.7157C155.596 87.9983 153.501 87.7188 151.681 86.7644C150.769 86.2998 149.921 85.6936 149.177 84.9676C148.432 84.2422 147.81 83.3842 147.323 82.4513C146.346 80.5862 145.975 78.365 146.364 76.23C146.456 75.6965 146.6 75.1705 146.781 74.6566C146.875 74.4008 146.973 74.1462 147.088 73.8981C147.203 73.6504 147.308 73.4074 147.389 73.15C147.555 72.6377 147.628 72.1023 147.613 71.5572C147.613 71.0093 147.613 70.4596 147.613 69.9083L147.686 69.981C143.836 69.9694 139.904 69.9579 135.896 69.946C133.893 69.9401 131.87 69.9339 129.83 69.9279C128.809 69.9248 127.785 69.9217 126.756 69.9186C126.241 69.917 125.725 69.9155 125.209 69.9139C124.692 69.9214 124.169 69.8808 123.672 69.9666C122.666 70.1286 121.75 70.7625 121.228 71.6446C120.964 72.0829 120.796 72.5799 120.741 73.091C120.721 73.3456 120.717 73.6061 120.72 73.871L120.72 74.6613C120.717 76.7704 120.716 78.8961 120.713 81.037C120.709 85.3192 120.705 89.6632 120.7 94.063V94.1438L120.62 94.1429C119.906 94.1351 119.2 94.1607 118.47 94.1245L118.448 94.1232L118.429 94.1092C116.458 92.6624 114.012 91.8416 111.532 91.8319C110.293 91.8447 109.054 92.0163 107.86 92.3795C106.672 92.7617 105.547 93.3345 104.526 94.0589C104.278 94.2511 104.015 94.4246 103.78 94.6324L103.083 95.2661C102.653 95.7241 102.218 96.1818 101.859 96.701C101.121 97.72 100.516 98.8482 100.134 100.059C99.7541 101.269 99.5657 102.537 99.5616 103.812C99.5725 105.088 99.804 106.358 100.211 107.57C100.796 109.26 101.762 110.807 103.003 112.072C104.254 113.329 105.782 114.287 107.424 114.877C109.066 115.472 110.824 115.681 112.529 115.536C114.235 115.384 115.881 114.847 117.329 114.02L117.34 114.014L117.352 114.011C117.61 113.956 117.873 113.92 118.136 113.908C118.402 113.899 118.654 113.906 118.909 113.903C119.417 113.903 119.913 113.903 120.386 113.903H120.467V113.984C120.466 120.109 120.466 126.139 120.465 132.059C120.465 133.538 120.465 135.011 120.465 136.477C120.468 136.846 120.45 137.208 120.517 137.559C120.579 137.91 120.682 138.257 120.85 138.573C121.169 139.212 121.69 139.74 122.31 140.086C122.623 140.254 122.958 140.376 123.304 140.453C123.654 140.519 124.004 140.53 124.368 140.525C125.09 140.525 125.81 140.526 126.528 140.526C127.964 140.526 129.392 140.526 130.813 140.526C142.177 140.529 153.035 140.531 163.26 140.533C168.372 140.534 173.327 140.536 178.107 140.537C180.497 140.538 182.844 140.539 185.145 140.539C185.72 140.539 186.293 140.539 186.862 140.54C187.147 140.54 187.431 140.54 187.715 140.54C188.001 140.545 188.273 140.531 188.546 140.48C189.636 140.265 190.534 139.374 190.772 138.316C190.838 138.052 190.857 137.785 190.854 137.511C190.854 137.236 190.855 136.962 190.855 136.689C190.855 136.143 190.855 135.6 190.855 135.06C190.856 133.98 190.856 132.912 190.857 131.856C190.857 129.745 190.858 127.683 190.859 125.672C190.861 121.651 190.863 117.835 190.865 114.241V114.177L190.928 114.192C191.725 114.375 192.404 114.814 193.137 115.061C193.868 115.324 194.616 115.512 195.366 115.609C196.115 115.711 196.864 115.732 197.596 115.677C197.963 115.654 198.325 115.604 198.682 115.548C199.035 115.466 199.391 115.412 199.733 115.308C201.106 114.921 202.356 114.277 203.42 113.465C204.483 112.649 205.351 111.662 206.019 110.609C206.687 109.553 207.149 108.426 207.417 107.301C207.45 107.16 207.483 107.021 207.517 106.881C207.539 106.74 207.561 106.599 207.583 106.459C207.604 106.319 207.625 106.18 207.646 106.041C207.668 105.902 207.666 105.762 207.676 105.624C207.692 105.347 207.707 105.073 207.723 104.801C207.722 104.53 207.698 104.262 207.688 103.996C207.58 101.864 206.801 100.014 205.848 98.5764C204.882 97.1312 203.7 96.0951 202.577 95.3946C202.308 95.1977 202.012 95.0711 201.745 94.9238C201.609 94.8527 201.477 94.7834 201.347 94.7154C201.214 94.6561 201.079 94.6071 200.95 94.5544C200.689 94.4539 200.445 94.3469 200.206 94.2655C199.963 94.1975 199.732 94.1332 199.515 94.0724C199.298 94.0087 199.093 93.9523 198.896 93.9282C198.7 93.8955 198.517 93.8652 198.349 93.8368C198.013 93.7666 197.726 93.7629 197.496 93.7482C197.036 93.7214 196.801 93.7039 196.801 93.7039Z" fill="#263238"/>
<path d="M21.9459 49.8109C21.9088 49.8318 20.5825 47.5311 18.9841 44.6725C17.3851 41.8134 16.1196 39.4793 16.1571 39.4584C16.1942 39.4375 17.5202 41.7379 19.1192 44.597C20.7173 47.4556 21.983 49.7903 21.9459 49.8109Z" fill="#263238"/>
<path d="M26.4291 39.8879C26.4718 39.8904 26.4088 41.6523 26.2887 43.8229C26.1686 45.9944 26.0366 47.7522 25.9939 47.7497C25.9511 47.7475 26.0141 45.9857 26.1343 43.8145C26.2544 41.6439 26.3864 39.8858 26.4291 39.8879Z" fill="#263238"/>
<path d="M18.7467 52.2503C18.7329 52.2909 17.2378 51.8219 15.4073 51.2032C13.5762 50.5842 12.1036 50.0501 12.1173 50.0095C12.131 49.969 13.6258 50.4379 15.4569 51.0569C17.2871 51.6756 18.7604 52.2101 18.7467 52.2503Z" fill="#263238"/>
<path d="M41.1708 56.6761C38.4134 50.3818 31.0755 47.5145 24.7812 50.2719C18.4869 53.0294 15.6196 60.3673 18.3767 66.6616C20.3732 71.2187 24.7706 73.9774 29.435 74.1078C30.0265 75.4585 30.6945 76.9829 30.6945 76.9829L40.6835 72.6071C40.6835 72.6071 40.037 70.9669 39.4283 69.5167C42.2694 66.0155 43.1046 61.0902 41.1708 56.6761Z" fill="#DFF36B"/>
<path d="M39.1798 73.2597C39.1798 73.2597 39.1514 73.2154 39.0993 73.1268C39.0465 73.036 38.9704 72.9044 38.8709 72.7325C38.6718 72.3849 38.3823 71.8698 38.0188 71.2012C37.2956 69.8627 36.2772 67.9077 35.1609 65.4254C34.881 64.8055 34.5959 64.1518 34.3073 63.4676C34.165 63.1244 34.0199 62.7747 33.872 62.4181C33.7285 62.0624 33.5675 61.692 33.5338 61.2824C33.517 61.079 33.5422 60.8668 33.6227 60.6721C33.7026 60.4799 33.8477 60.2971 34.0561 60.2172C34.2651 60.1352 34.5016 60.1823 34.6898 60.2877C34.8785 60.3966 35.038 60.5573 35.1415 60.7523C35.3543 61.1479 35.3085 61.6374 35.1203 62.0384C34.9309 62.4449 34.5993 62.7834 34.2006 63.0065C33.8012 63.2296 33.3298 63.3356 32.8621 63.297C32.3925 63.2611 31.9389 63.067 31.5598 62.7784C31.1798 62.4892 30.8665 62.1039 30.6622 61.6608C30.5614 61.4399 30.48 61.2038 30.4575 60.9551C30.4341 60.7108 30.46 60.4397 30.6207 60.2275C30.6996 60.1233 30.8132 60.0444 30.9373 60.0032C31.0621 59.9639 31.1954 59.9551 31.3227 59.9754C31.5794 60.0107 31.8138 60.1498 31.9925 60.3302C32.1744 60.5105 32.313 60.7267 32.4328 60.9495C32.5513 61.1732 32.6562 61.4031 32.7522 61.6387C32.9423 62.1095 33.0852 62.6087 33.1285 63.126C33.1722 63.6395 33.1135 64.1821 32.8708 64.6554C32.7526 64.8913 32.5978 65.11 32.4053 65.2913C32.2122 65.4707 31.9816 65.6123 31.7286 65.6894C31.4749 65.7655 31.2041 65.7671 30.9486 65.7168C30.6918 65.6657 30.4522 65.5549 30.2363 65.417C29.8035 65.1384 29.4513 64.7649 29.139 64.3755C28.982 64.1805 28.8351 63.9796 28.6944 63.7762C28.554 63.5734 28.4111 63.3693 28.3056 63.1419C28.2005 62.9176 28.1365 62.6586 28.1843 62.4065C28.2067 62.282 28.2532 62.1591 28.3334 62.0564C28.4126 61.9529 28.5324 61.8799 28.6607 61.8568C28.7898 61.8312 28.9218 61.8565 29.0363 61.9061C29.1518 61.955 29.255 62.0246 29.349 62.1026C29.5371 62.258 29.6872 62.4521 29.8179 62.6483C30.3439 63.4324 30.665 64.3624 30.5857 65.2772C30.5442 65.7321 30.3876 66.1702 30.1355 66.5374C29.8847 66.904 29.5252 67.1991 29.1068 67.3293C28.6881 67.4662 28.2323 67.4032 27.8532 67.2254C27.4707 67.0503 27.1465 66.7605 26.9497 66.4017C26.8495 66.2235 26.7818 66.0298 26.7547 65.8288C26.7325 65.6298 26.7484 65.417 26.8601 65.2404C26.9166 65.1534 27.0024 65.085 27.1004 65.051C27.199 65.0167 27.3078 65.0211 27.4027 65.0523C27.5952 65.1162 27.7403 65.2545 27.8632 65.3955C28.1153 65.6819 28.2526 66.0288 28.417 66.3415C28.5761 66.6597 28.7321 66.9711 28.8844 67.2753C30.0981 69.7101 31.0444 71.6988 31.673 73.0844C31.9882 73.7767 32.2225 74.3193 32.3797 74.6878C32.4558 74.8712 32.5139 75.0116 32.5541 75.1087C32.5928 75.2038 32.6106 75.2534 32.6106 75.2534C32.6106 75.2534 32.5872 75.2063 32.5457 75.1124C32.5036 75.0163 32.4427 74.8768 32.3632 74.6949C32.2006 74.329 31.9613 73.7892 31.6412 73.0991C31.0029 71.7185 30.0481 69.7348 28.8273 67.304C28.6741 67.0004 28.5175 66.6893 28.3574 66.3717C28.1911 66.0572 28.0542 65.7153 27.8105 65.4413C27.6922 65.3056 27.5509 65.1755 27.3812 65.1203C27.2142 65.0595 27.0155 65.1259 26.9203 65.2807C26.823 65.4335 26.8055 65.6332 26.8274 65.8207C26.8533 66.0092 26.9185 66.1967 27.0149 66.3661C27.204 66.7093 27.5169 66.9882 27.8854 67.1561C28.251 67.3264 28.6863 67.3851 29.0831 67.2544C29.4816 67.1296 29.8266 66.8469 30.0687 66.4922C30.3118 66.1368 30.4637 65.7112 30.5034 65.2704C30.5795 64.3809 30.2653 63.4679 29.7468 62.697C29.6166 62.5023 29.4734 62.3182 29.2937 62.17C29.119 62.0262 28.8975 61.9001 28.6772 61.9432C28.452 61.9772 28.3066 62.1975 28.271 62.4227C28.2276 62.6521 28.2853 62.8898 28.3861 63.106C28.4869 63.3235 28.627 63.5244 28.7677 63.7266C28.9078 63.9288 29.0538 64.1281 29.2092 64.3209C29.5181 64.706 29.8656 65.0729 30.285 65.3424C30.494 65.476 30.7236 65.5814 30.9673 65.6301C31.21 65.6778 31.4652 65.6763 31.7033 65.6045C32.1838 65.4594 32.5675 65.0713 32.7906 64.6167C33.0243 64.1612 33.0817 63.6377 33.0393 63.1347C32.9969 62.6296 32.8571 62.1382 32.6696 61.6733C32.4739 61.2147 32.273 60.7417 31.9304 60.3944C31.7601 60.2225 31.5457 60.0971 31.3105 60.064C31.079 60.0256 30.8291 60.0962 30.6912 60.2821C30.5511 60.4659 30.5227 60.7155 30.5455 60.9476C30.5661 61.1835 30.6441 61.4106 30.742 61.6256C30.9395 62.0552 31.244 62.4302 31.6125 62.711C31.9804 62.9915 32.4181 63.1787 32.8699 63.2137C33.3204 63.2514 33.7756 63.1497 34.1609 62.935C34.5456 62.7207 34.8657 62.3943 35.0473 62.005C35.2289 61.6215 35.2692 61.1563 35.0726 60.7907C34.9768 60.6088 34.8264 60.4574 34.6523 60.3567C34.4779 60.259 34.2667 60.2185 34.0845 60.2899C33.9017 60.3592 33.7684 60.5227 33.6936 60.7021C33.618 60.884 33.5931 61.083 33.609 61.2777C33.6399 61.6702 33.7962 62.0355 33.9397 62.3922C34.0867 62.7488 34.2308 63.0988 34.3722 63.442C34.6586 64.1266 34.9419 64.7802 35.2195 65.4008C36.3275 67.8846 37.3365 69.8427 38.05 71.1859C38.4085 71.8567 38.693 72.3743 38.8871 72.7247C38.9832 72.8984 39.0568 73.0314 39.1077 73.1234C39.1564 73.2123 39.1798 73.2597 39.1798 73.2597Z" fill="white"/>
<path d="M30.4152 73.2342C30.4155 73.2373 30.3628 73.242 30.2627 73.2482C30.1625 73.2523 30.0146 73.2673 29.8237 73.266C29.4421 73.2751 28.8883 73.2576 28.2103 73.1705C27.5327 73.0847 26.7327 72.9135 25.8787 72.6158C25.0248 72.3197 24.1216 71.887 23.2517 71.3088C22.3859 70.7242 21.6421 70.053 21.0434 69.376C20.4431 68.699 19.9804 68.0244 19.6434 67.4304C19.3052 66.8366 19.0784 66.3309 18.9417 65.9749C18.8681 65.7989 18.8257 65.6563 18.7913 65.5621C18.7589 65.467 18.7436 65.4167 18.7464 65.4158C18.7492 65.4148 18.7708 65.4632 18.8085 65.5559C18.8484 65.6479 18.8959 65.788 18.9742 65.9615C19.1205 66.3125 19.3551 66.812 19.6986 67.3982C20.0409 67.9848 20.5061 68.6515 21.1055 69.3205C21.7036 69.99 22.4433 70.6536 23.3022 71.234C24.1652 71.8074 25.0604 72.2389 25.9068 72.5375C26.7536 72.8373 27.547 73.0139 28.2197 73.1075C28.8927 73.2021 29.4437 73.2292 29.824 73.2311C30.0143 73.2373 30.1619 73.2283 30.2623 73.2301C30.3622 73.2298 30.4149 73.2311 30.4152 73.2342Z" fill="#263238"/>
<path d="M18.2744 63.0308C18.2987 63.0267 18.3676 63.3072 18.4282 63.6576C18.4887 64.008 18.5177 64.2953 18.4934 64.2997C18.469 64.3041 18.4001 64.0233 18.3396 63.6729C18.279 63.3225 18.2497 63.0352 18.2744 63.0308Z" fill="#263238"/>
<path d="M41.0609 59.8764C41.0578 59.8767 41.0463 59.8327 41.0266 59.7481C41.0063 59.6552 40.9795 59.5322 40.9458 59.3784C40.9287 59.2973 40.9099 59.2081 40.8897 59.111C40.8659 59.014 40.8329 58.9104 40.8017 58.7981C40.7346 58.575 40.6744 58.3158 40.5652 58.0431C40.515 57.9052 40.4622 57.7607 40.4076 57.6106C40.3518 57.4609 40.2769 57.3114 40.2086 57.1532C40.0778 56.8338 39.8963 56.5127 39.715 56.1704C39.3262 55.5006 38.842 54.7961 38.2526 54.1228C37.6545 53.457 37.0128 52.8919 36.3937 52.4261C36.0755 52.2052 35.7785 51.9868 35.4768 51.8187C35.328 51.7322 35.1885 51.6399 35.0465 51.5666C34.9039 51.4945 34.767 51.4249 34.6359 51.3585C34.3782 51.2174 34.128 51.127 33.9146 51.0337C33.8069 50.9894 33.708 50.9441 33.6144 50.9092C33.5205 50.8774 33.4344 50.848 33.3558 50.8215C33.207 50.7697 33.0881 50.7285 32.9982 50.697C32.9168 50.6677 32.8744 50.6508 32.875 50.6477C32.8759 50.6446 32.9199 50.6558 33.0032 50.6796C33.0947 50.7067 33.2154 50.7429 33.3667 50.7881C33.4463 50.8125 33.534 50.8396 33.6288 50.8686C33.7236 50.9014 33.8238 50.9444 33.9327 50.9869C34.1492 51.0761 34.4022 51.1632 34.6634 51.3011C34.796 51.3663 34.9345 51.4343 35.079 51.5051C35.2228 51.5775 35.3638 51.6686 35.5145 51.7544C35.8197 51.9207 36.1204 52.1385 36.4424 52.359C37.0686 52.8246 37.7169 53.3921 38.3197 54.0629C38.9138 54.7412 39.3996 55.4525 39.7871 56.1296C39.9677 56.4756 40.1477 56.7997 40.2766 57.1227C40.3437 57.2827 40.4173 57.4334 40.4719 57.585C40.5249 57.7367 40.5761 57.8827 40.6251 58.0222C40.7312 58.2977 40.7873 58.5594 40.85 58.785C40.8791 58.8986 40.9099 59.0031 40.9312 59.1011C40.9489 59.199 40.9652 59.2889 40.9798 59.3709C41.0067 59.5263 41.0282 59.6508 41.0444 59.7447C41.0585 59.8308 41.0641 59.8761 41.0609 59.8764Z" fill="#263238"/>
<g opacity="0.2">
<path d="M25.7344 53.6767C25.3266 53.2839 24.6442 53.1679 23.9332 53.2552C22.9161 53.3803 22.0053 53.937 21.3679 54.7391C19.4925 57.0997 18.788 59.2628 19.1437 62.3975C19.2641 63.4592 19.7976 65.0663 20.6578 65.7814C21.0902 66.1408 21.645 66.3377 22.2025 66.2644C23.6527 66.0738 24.1263 64.3755 24.0015 63.0065C23.8851 61.7307 23.468 60.4147 23.8786 59.201C24.2171 58.2011 25.0576 57.4675 25.6404 56.5877C26.2233 55.7079 26.4947 54.4087 25.7344 53.6767Z" fill="white"/>
</g>
<g opacity="0.2">
<path d="M30.1084 51.2294C29.3693 50.6843 28.1815 50.845 27.6883 51.3922C27.2923 51.8581 27.1104 52.508 27.2412 53.1051C27.3987 53.8249 28.0283 54.423 28.7587 54.521C29.4891 54.6189 30.2651 54.1949 30.5571 53.5182C30.8488 52.8418 30.7016 51.6668 30.1084 51.2294Z" fill="white"/>
</g>
<path d="M36.0039 81.5566C36.0039 81.5566 36.5293 81.6427 36.9096 81.849C37.1071 81.956 37.3449 81.9594 37.5508 81.8689L39.5604 80.9869C39.7857 80.888 39.9495 80.6849 39.9928 80.4428C40.0437 80.1592 40.1944 79.7845 40.4452 79.6069L36.0039 81.5566Z" fill="#263238"/>
<path d="M31.3711 76.9159C31.3889 76.9561 33.2328 79.8905 33.9382 81.0121C34.2278 81.4726 34.7242 81.7775 35.2683 81.7846C35.4667 81.7874 35.6798 81.7538 35.8951 81.6592C36.7562 81.2811 40.2902 79.7298 40.2902 79.7298C40.2902 79.7298 41.4387 79.2256 41.2992 78.2001C41.1523 77.1206 40.0154 73.1213 40.0154 73.1213L31.3711 76.9159Z" fill="#E0E0E0"/>
<path d="M41.3962 77.6564L33.7513 81.0447C33.6311 81.0981 33.4907 81.0438 33.4374 80.9237L33.4268 80.9C33.3734 80.7798 33.4277 80.6394 33.5478 80.5861L41.1928 77.1978C41.3129 77.1444 41.4533 77.1987 41.5066 77.3188L41.5172 77.3425C41.5706 77.4627 41.5163 77.6031 41.3962 77.6564Z" fill="#E0E0E0"/>
<path d="M41.4013 77.6565C41.3954 77.6518 41.4721 77.6347 41.5186 77.5227C41.5398 77.4678 41.5404 77.3904 41.4958 77.3143C41.4596 77.2394 41.3617 77.1748 41.2534 77.1973C40.8353 77.3745 40.2235 77.66 39.47 77.995C37.9556 78.6696 35.8717 79.5978 33.5698 80.623C33.5092 80.6495 33.4652 80.7069 33.4546 80.7715C33.4496 80.8037 33.4518 80.8367 33.4628 80.8673C33.4752 80.8998 33.4902 80.9335 33.5105 80.9562C33.5526 81.0055 33.6197 81.0311 33.6836 81.0233C33.7417 81.0152 33.8181 80.97 33.8868 80.9428C34.1676 80.8186 34.4443 80.696 34.7164 80.5759C35.2602 80.3357 35.785 80.1039 36.2851 79.8833C37.2844 79.444 38.1852 79.048 38.9433 78.7145C39.6974 78.3863 40.3093 78.1198 40.7383 77.933C40.947 77.844 41.1108 77.7741 41.2278 77.7242C41.2808 77.7027 41.323 77.6852 41.356 77.6718C41.3854 77.6603 41.4007 77.655 41.4013 77.6565C41.4019 77.6578 41.3879 77.6656 41.3598 77.6793C41.3277 77.6946 41.2865 77.7146 41.235 77.7392C41.1192 77.7926 40.9573 77.8671 40.7514 77.962C40.3249 78.1545 39.7165 78.4287 38.9667 78.7669C38.2105 79.1048 37.3122 79.5061 36.3154 79.9516C35.8159 80.1737 35.2917 80.4071 34.7485 80.6486C34.4768 80.7693 34.2 80.892 33.9195 81.0168L33.8141 81.0636C33.7816 81.0782 33.7392 81.0988 33.6933 81.1038C33.6032 81.115 33.5089 81.0792 33.449 81.0096C33.4181 80.9731 33.4013 80.9344 33.386 80.8941C33.3707 80.8511 33.3676 80.8037 33.3748 80.7587C33.3891 80.6679 33.4521 80.5862 33.537 80.5494C35.8427 79.5326 37.93 78.6122 39.4469 77.9429C40.2066 77.6138 40.8119 77.3392 41.2478 77.1667C41.3723 77.1439 41.4802 77.22 41.5177 77.304C41.5623 77.3845 41.5598 77.4724 41.5342 77.5292C41.4783 77.6459 41.3969 77.6565 41.4013 77.6565Z" fill="#263238"/>
<path d="M41.1302 76.5961L33.1614 80.1279C33.0413 80.1813 32.9009 80.127 32.8475 80.0069L32.8369 79.9832C32.7836 79.8631 32.8379 79.7227 32.958 79.6693L40.9268 76.1375C41.0469 76.0841 41.1873 76.1384 41.2406 76.2585L41.2513 76.2822C41.3046 76.4027 41.2503 76.5431 41.1302 76.5961Z" fill="#E0E0E0"/>
<path d="M41.131 76.5961C41.1245 76.5914 41.2059 76.5737 41.2508 76.4557C41.2721 76.3977 41.2668 76.3181 41.2187 76.2404C41.176 76.1649 41.0674 76.1069 40.9582 76.1428C40.5155 76.3418 39.8837 76.6261 39.1052 76.9765C37.5321 77.6769 35.3671 78.641 32.976 79.7061C32.9133 79.7336 32.8677 79.7944 32.8599 79.8621C32.8552 79.8955 32.8602 79.9298 32.873 79.961C32.8883 79.9997 32.9023 80.0256 32.927 80.0503C32.9744 80.098 33.0471 80.1183 33.112 80.1021C33.1744 80.0818 33.2555 80.0406 33.326 80.011C33.6178 79.8818 33.9054 79.7548 34.1878 79.6297C34.7528 79.3801 35.2979 79.1395 35.8174 78.9099C36.8557 78.4531 37.7911 78.0419 38.5786 77.6956C39.362 77.3543 39.9975 77.0775 40.4431 76.8835C40.6599 76.7908 40.8303 76.7181 40.9516 76.6663C41.0069 76.6439 41.0505 76.6258 41.0849 76.6117C41.1148 76.6005 41.1304 76.5949 41.131 76.5961C41.1317 76.5974 41.117 76.6055 41.088 76.6198C41.0546 76.6357 41.0119 76.656 40.9582 76.6819C40.8384 76.7372 40.6702 76.8142 40.4559 76.9128C40.0131 77.1125 39.381 77.3973 38.602 77.7487C37.8164 78.0997 36.8835 78.5162 35.8476 78.9789C35.3288 79.2097 34.7843 79.4519 34.2199 79.7027C33.9376 79.8281 33.6502 79.9557 33.3588 80.0852C33.2821 80.117 33.2212 80.1514 33.131 80.181C33.0393 80.2038 32.9373 80.1754 32.8702 80.108C32.8362 80.0762 32.8122 80.0287 32.7981 79.9919C32.7804 79.9479 32.7732 79.8993 32.7797 79.8522C32.7903 79.757 32.8552 79.6706 32.9432 79.6322C35.3384 78.5758 37.5065 77.6195 39.0821 76.9243C39.8696 76.5802 40.5033 76.3013 40.9488 76.1132C41.0749 76.0748 41.195 76.144 41.2396 76.2286C41.288 76.311 41.292 76.4014 41.2661 76.4617C41.2125 76.5852 41.1264 76.5961 41.131 76.5961Z" fill="#263238"/>
<path d="M40.7977 75.5622L32.6223 79.1854C32.5022 79.2388 32.3618 79.1845 32.3085 79.0644L32.2979 79.0407C32.2445 78.9205 32.2988 78.7801 32.4189 78.7268L40.5943 75.1035C40.7144 75.0502 40.8548 75.1045 40.9081 75.2246L40.9187 75.2483C40.9721 75.3684 40.9178 75.5088 40.7977 75.5622Z" fill="#E0E0E0"/>
<path d="M40.7948 75.562C40.788 75.5573 40.8722 75.5392 40.9159 75.4176C40.9371 75.3577 40.9281 75.2762 40.8772 75.1985C40.8307 75.123 40.7153 75.0691 40.6061 75.1146C40.1531 75.3187 39.5057 75.6101 38.7082 75.9695C37.098 76.6865 34.8812 77.6736 32.4329 78.7638C32.369 78.7919 32.3225 78.8552 32.3163 78.9245C32.3125 78.9591 32.3187 78.9934 32.3328 79.0255C32.3493 79.0648 32.3643 79.0901 32.3911 79.1145C32.442 79.1613 32.5181 79.1769 32.583 79.156C32.6513 79.1285 32.7312 79.0911 32.8042 79.0592C33.1028 78.9269 33.3973 78.7968 33.6866 78.6689C34.265 78.4134 34.8232 78.1669 35.3548 77.932C36.4178 77.4643 37.3756 77.0431 38.1819 76.6887C38.984 76.3392 39.6348 76.0553 40.0907 75.8569C40.3128 75.762 40.4872 75.6875 40.6114 75.6344C40.6679 75.611 40.7128 75.5926 40.7474 75.5786C40.7783 75.5664 40.7945 75.5608 40.7948 75.562C40.7952 75.5633 40.7805 75.5714 40.7505 75.586C40.7165 75.6023 40.6729 75.6232 40.6176 75.6494C40.495 75.7055 40.3228 75.7848 40.1031 75.8859C39.6501 76.0899 39.0027 76.3816 38.2049 76.7414C37.4009 77.1005 36.4456 77.527 35.3851 78.0006C34.8541 78.2368 34.2965 78.4848 33.7187 78.7416C33.4298 78.8699 33.1356 79.0006 32.837 79.1332C32.7602 79.1666 32.6919 79.1993 32.6077 79.233C32.5156 79.2627 32.4089 79.2405 32.3372 79.1747C32.301 79.1444 32.2738 79.0957 32.2588 79.0583C32.2395 79.0146 32.2308 78.9644 32.2358 78.916C32.2442 78.8184 32.31 78.7285 32.4002 78.6892C34.8522 77.6075 37.0724 76.6281 38.6851 75.9168C39.4876 75.5673 40.1387 75.2837 40.5945 75.085C40.7206 75.0357 40.8482 75.1003 40.8975 75.1851C40.9493 75.2678 40.9571 75.3605 40.9315 75.4226C40.8788 75.5508 40.7895 75.5617 40.7948 75.562Z" fill="#263238"/>
<path d="M40.5278 74.5002L32.0208 78.2704C31.9007 78.3237 31.7603 78.2694 31.7069 78.1493L31.6963 78.1256C31.6429 78.0055 31.6972 77.8651 31.8174 77.8117L40.324 74.0415C40.4442 73.9882 40.5846 74.0425 40.6379 74.1626L40.6485 74.1863C40.7022 74.3064 40.6479 74.4471 40.5278 74.5002Z" fill="#E0E0E0"/>
<path d="M40.5252 74.5002C40.5177 74.4952 40.6066 74.4768 40.6485 74.3489C40.669 74.2865 40.6541 74.201 40.5988 74.1236C40.5446 74.0487 40.4213 74.0032 40.3109 74.0634C39.841 74.2749 39.1693 74.5776 38.3415 74.9504C36.6714 75.6939 34.3719 76.7179 31.832 77.8486C31.7652 77.8776 31.7187 77.945 31.7146 78.017C31.7106 78.086 31.7483 78.1677 31.8017 78.2095C31.8585 78.2535 31.9383 78.2626 32.0036 78.2326C32.0816 78.198 32.1592 78.1637 32.2366 78.1294C32.5464 77.9924 32.8519 77.8573 33.1517 77.7244C33.7517 77.4592 34.3308 77.2037 34.8824 76.96C35.985 76.4748 36.9787 76.0377 37.8146 75.6699C38.647 75.307 39.3218 75.0125 39.7942 74.8066C40.0248 74.708 40.2057 74.6306 40.334 74.5757C40.3926 74.5513 40.4394 74.5323 40.4753 74.5177C40.5081 74.5049 40.5246 74.4989 40.5252 74.5002C40.5258 74.5014 40.5102 74.5098 40.4793 74.5251C40.4444 74.5417 40.3989 74.5635 40.3414 74.5907C40.2148 74.6487 40.0357 74.7307 39.8076 74.8356C39.3377 75.0471 38.6663 75.3498 37.8383 75.7226C37.004 76.0951 36.0131 76.5375 34.913 77.0286C34.362 77.2735 33.7838 77.5309 33.1842 77.7974C32.8843 77.9306 32.5792 78.066 32.2694 78.2033C32.192 78.2376 32.1143 78.2723 32.0363 78.3066C31.9458 78.3481 31.832 78.3359 31.7524 78.2738C31.7131 78.2436 31.6806 78.1999 31.6632 78.1562C31.6432 78.1156 31.6295 78.0617 31.6335 78.0121C31.6388 77.9107 31.705 77.8152 31.7989 77.7746C34.3426 76.6524 36.6455 75.6362 38.3181 74.8983C39.1505 74.5354 39.8257 74.2409 40.2978 74.035C40.4204 73.971 40.5614 74.0247 40.6179 74.1096C40.6756 74.1938 40.6884 74.288 40.6637 74.3539C40.6419 74.4206 40.6004 74.4581 40.572 74.4774C40.543 74.4967 40.5252 74.5002 40.5252 74.5002Z" fill="#263238"/>
<path d="M29.0781 74.6922C29.114 74.7736 30.1389 76.6166 30.6656 77.5622C30.859 77.9095 31.2003 78.1485 31.5928 78.2121L32.1685 78.3054L40.6664 74.5748L40.9828 74.0947C41.204 73.759 41.2577 73.3396 41.1276 72.9593L40.0708 69.8665L29.0781 74.6922Z" fill="#DFF36B"/>
<g opacity="0.3">
<path d="M34.0273 80.8999C34.9272 80.7258 35.7499 80.3832 36.6469 79.9848C37.371 79.6631 38.0911 79.3708 38.8715 79.0089C39.4433 78.7437 39.9616 78.4816 40.526 78.2042C40.8118 78.0638 41.0982 77.8501 41.131 77.7659L34.0273 80.8999Z" fill="black"/>
</g>
<g opacity="0.3">
<path d="M33.2891 80.0408C34.2528 79.8386 35.1392 79.4683 36.1061 79.039C36.8867 78.6923 37.6624 78.3757 38.5041 77.9869C39.121 77.702 39.6807 77.4216 40.29 77.1245C40.5986 76.9741 40.91 76.7495 40.9474 76.6631L33.2891 80.0408Z" fill="black"/>
</g>
<g opacity="0.3">
<path d="M32.8594 79.0596C33.8231 78.8574 34.7095 78.4871 35.6764 78.0578C36.457 77.7111 37.2327 77.3945 38.0745 77.0057C38.6913 76.7208 39.251 76.4404 39.8603 76.1433C40.1689 75.9929 40.4803 75.7683 40.5177 75.6819L32.8594 79.0596Z" fill="black"/>
</g>
<g opacity="0.3">
<path d="M32.4219 78.0779C33.3856 77.8757 34.272 77.5051 35.2389 77.0761C36.0195 76.7294 36.7952 76.4131 37.637 76.024C38.2538 75.7392 38.8135 75.4587 39.4228 75.1616C39.7314 75.0113 40.0428 74.7866 40.0802 74.7002L32.4219 78.0779Z" fill="black"/>
</g>
<path opacity="0.3" d="M29.0781 74.6922C29.114 74.7736 30.1389 76.6166 30.6656 77.5622C30.859 77.9095 31.2003 78.1485 31.5928 78.2121L32.1685 78.3054L40.6664 74.5748L40.9828 74.0947C41.204 73.759 41.2577 73.3396 41.1276 72.9593L40.0708 69.8665L29.0781 74.6922Z" fill="black"/>
<path d="M41.0984 73.4598C41.1075 73.4804 38.8417 74.4947 36.0384 75.7255C33.2342 76.9567 30.9544 77.9376 30.9453 77.917C30.9363 77.8964 33.2017 76.8824 36.006 75.6513C38.809 74.4204 41.0894 73.4392 41.0984 73.4598Z" fill="#263238"/>
<path d="M39.9816 69.8365C39.9925 69.859 37.5365 70.9706 34.497 72.3191C31.4562 73.6682 28.9833 74.7434 28.9727 74.7212C28.9618 74.6987 31.4172 73.5874 34.458 72.2383C37.4975 70.8898 39.9707 69.8141 39.9816 69.8365Z" fill="#263238"/>
<path d="M139.876 48.9687L135.978 48.5138C134.408 50.1087 132.391 51.3031 130.058 51.8765C123.348 53.5254 116.572 49.423 114.923 42.7131C113.274 36.0032 117.377 29.2272 124.087 27.5783C130.796 25.9294 137.572 30.0318 139.221 36.7417C139.91 39.5435 139.593 42.3552 138.504 44.8019L138.509 44.7963L139.876 48.9687Z" fill="#C6C6C6"/>
<path d="M139.874 48.9689C139.874 48.9689 139.838 48.8737 139.777 48.693C139.714 48.5077 139.624 48.2419 139.506 47.8934C139.269 47.1889 138.921 46.1543 138.469 44.8087L138.537 44.8208L138.532 44.8264C138.519 44.8433 138.494 44.8461 138.477 44.8327C138.463 44.8214 138.459 44.8021 138.466 44.7862C139.119 43.2914 139.692 41.1919 139.479 38.7066C139.426 38.0885 139.328 37.4498 139.167 36.8027C138.977 36.1644 138.802 35.4958 138.503 34.8499C137.945 33.5467 137.129 32.2556 136.032 31.1196C134.938 29.9837 133.567 29.0052 131.99 28.3272C130.416 27.6477 128.635 27.2724 126.8 27.3104C123.135 27.3522 119.269 29.2352 116.948 32.5433C115.774 34.2253 114.991 36.1516 114.761 38.1141C114.508 40.0716 114.731 42.034 115.336 43.8034C115.935 45.5787 116.952 47.1355 118.165 48.3854C119.384 49.6372 120.815 50.5772 122.29 51.1947C123.767 51.8149 125.285 52.1123 126.717 52.1563C126.896 52.1584 127.074 52.1609 127.251 52.1631C127.427 52.1684 127.602 52.1684 127.775 52.1466C128.121 52.116 128.462 52.086 128.796 52.0564C129.454 51.9251 130.098 51.8321 130.692 51.6402C133.09 50.9189 134.825 49.6216 135.95 48.4878C135.958 48.4793 135.97 48.4756 135.981 48.4768C137.237 48.6335 138.205 48.7542 138.865 48.8366C139.191 48.8784 139.44 48.9102 139.614 48.9324C139.783 48.9545 139.874 48.9689 139.874 48.9689C139.874 48.9689 139.794 48.9632 139.628 48.9461C139.456 48.928 139.21 48.9018 138.887 48.8678C138.22 48.7954 137.242 48.689 135.971 48.5508L136.002 48.5399C134.881 49.6908 133.142 51.0109 130.725 51.751C130.126 51.9472 129.477 52.0446 128.812 52.1796C128.475 52.2108 128.131 52.2427 127.782 52.2751C127.607 52.2976 127.43 52.2988 127.252 52.2938C127.073 52.2923 126.894 52.2907 126.712 52.2892C125.265 52.2502 123.728 51.9544 122.232 51.331C120.738 50.7104 119.287 49.7623 118.05 48.4968C116.818 47.2332 115.785 45.657 115.176 43.8583C114.56 42.0662 114.332 40.0765 114.587 38.091C114.82 36.1007 115.613 34.1467 116.804 32.441C116.938 32.2235 117.104 32.0307 117.266 31.8351L117.749 31.2494L118.283 30.714C118.459 30.534 118.635 30.3559 118.835 30.2036C119.028 30.0445 119.22 29.8857 119.413 29.7272C119.6 29.5631 119.82 29.4426 120.022 29.2991C120.229 29.1643 120.427 29.0155 120.642 28.8938C120.859 28.7775 121.075 28.6611 121.291 28.5453C123.03 27.6427 124.937 27.1675 126.796 27.141C128.657 27.1048 130.46 27.488 132.053 28.1794C133.649 28.8695 135.035 29.8635 136.139 31.0161C137.246 32.1686 138.068 33.4774 138.626 34.7969C138.927 35.4505 139.101 36.1269 139.29 36.7725C139.449 37.4267 139.546 38.0723 139.596 38.6963C139.799 41.2066 139.208 43.3192 138.537 44.8174L138.471 44.7771L138.475 44.7718C138.489 44.755 138.513 44.7522 138.53 44.7653C138.536 44.7703 138.541 44.7771 138.543 44.784C138.979 46.1481 139.314 47.1964 139.542 47.9106C139.651 48.2566 139.735 48.5205 139.793 48.7046C139.849 48.8824 139.874 48.9689 139.874 48.9689Z" fill="#263238"/>
<path d="M121.301 40.0177L122.798 38.3619L125.974 40.9113L130.692 35.4934L132.235 36.996L125.902 43.9627L121.301 40.0177Z" fill="#263238"/>
<path d="M105.533 50.0512C106.099 49.9807 106.928 49.8771 108.006 49.7426C108.015 49.7417 108.025 49.7448 108.032 49.752C108.997 50.7242 110.484 51.8365 112.54 52.4548C113.05 52.6193 113.602 52.6991 114.166 52.8118C114.453 52.837 114.745 52.8629 115.041 52.8888C115.19 52.9076 115.34 52.9079 115.491 52.9032C115.642 52.9013 115.795 52.8994 115.949 52.8973C117.176 52.8595 118.478 52.6046 119.744 52.0726C120.069 51.9366 120.391 51.7819 120.709 51.6093C120.612 51.5719 120.514 51.5366 120.417 51.4961C118.953 50.888 117.53 49.9585 116.318 48.718C115.111 47.4797 114.098 45.9347 113.501 44.1716C112.897 42.415 112.674 40.4647 112.924 38.5187C113.152 36.5678 113.93 34.6527 115.097 32.9807C115.228 32.7676 115.391 32.5786 115.549 32.3867L116.023 31.8129L116.227 31.6086C116.11 31.6029 115.993 31.5951 115.877 31.5936C114.303 31.5608 112.777 31.8828 111.427 32.4653C110.075 33.0469 108.899 33.8859 107.962 34.8596C107.021 35.8337 106.321 36.9406 105.843 38.0579C105.586 38.6114 105.436 39.1849 105.273 39.7321C105.136 40.2872 105.051 40.8347 105.006 41.3645C104.823 43.4958 105.314 45.2957 105.875 46.5774C105.881 46.5908 105.877 46.607 105.865 46.6167C105.481 47.7605 105.185 48.6413 104.983 49.2416C104.882 49.5405 104.805 49.7682 104.751 49.927C104.698 50.0818 104.668 50.1635 104.668 50.1635C104.668 50.1635 104.745 50.1513 104.89 50.1326C105.04 50.1142 105.253 50.0871 105.533 50.0512Z" fill="#F5F5F5"/>
<path d="M105.533 50.0513C105.533 50.0513 105.46 50.0669 105.316 50.0884C105.165 50.1102 104.95 50.1418 104.67 50.1823L104.641 50.1867L104.65 50.158C104.891 49.4282 105.292 48.217 105.826 46.6046L105.838 46.5862C105.832 46.5834 105.84 46.6062 105.831 46.5843L105.81 46.5338L105.766 46.4315C105.738 46.3625 105.709 46.2929 105.681 46.2224C105.623 46.0817 105.571 45.9354 105.517 45.7865C105.412 45.488 105.318 45.1722 105.234 44.8421C105.069 44.1816 104.952 43.4584 104.921 42.6862C104.889 41.9146 104.94 41.0947 105.096 40.2526C105.169 39.8289 105.301 39.408 105.429 38.9825C105.554 38.5528 105.734 38.126 105.929 37.7051C106.71 36.0131 108.03 34.3854 109.831 33.2314C111.619 32.0732 113.884 31.3993 116.23 31.5297L116.407 31.5397L116.282 31.6654C116.219 31.7291 116.149 31.7993 116.079 31.8698L116.084 31.8642C114.652 33.4766 113.558 35.5196 113.121 37.7672C112.537 40.8482 113.158 44.0197 114.661 46.4608C116.154 48.9215 118.415 50.6609 120.733 51.5448L120.884 51.6025L120.741 51.6709C120.173 51.9407 119.627 52.2253 119.054 52.4047C118.486 52.5944 117.917 52.7323 117.357 52.824C116.24 53.0097 115.146 52.9866 114.16 52.8683L114.156 52.8677L114.154 52.8674C113.794 52.7947 113.44 52.7351 113.096 52.6583C112.751 52.5853 112.425 52.474 112.11 52.3694C111.483 52.1479 110.911 51.8865 110.4 51.5997C109.377 51.025 108.599 50.3711 108.022 49.7873C108.018 49.7574 107.952 49.787 107.905 49.7858C107.856 49.7917 107.807 49.7973 107.759 49.8029C107.664 49.8142 107.571 49.8254 107.48 49.836C107.3 49.8572 107.132 49.8769 106.976 49.8953C106.665 49.9312 106.401 49.9614 106.185 49.9864C105.976 50.0088 105.814 50.0266 105.698 50.0391C105.589 50.0497 105.533 50.0513 105.533 50.0513C105.533 50.0513 105.588 50.0388 105.697 50.0226C105.812 50.0063 105.973 49.9836 106.181 49.9542C106.397 49.9252 106.66 49.8897 106.971 49.8482C107.127 49.8276 107.295 49.8054 107.475 49.7814C107.565 49.7695 107.658 49.7574 107.753 49.7449C107.801 49.7386 107.85 49.7321 107.899 49.7259L107.974 49.7162C107.99 49.7156 107.99 49.7109 108.021 49.7131C108.032 49.7153 108.045 49.7212 108.053 49.7302L108.067 49.7436C108.646 50.3168 109.425 50.9592 110.444 51.5214C111.462 52.0852 112.715 52.547 114.176 52.7563L114.17 52.7554C114.671 52.7978 115.181 52.8552 115.708 52.8402C116.24 52.8368 116.783 52.7891 117.337 52.6986C117.89 52.6059 118.451 52.4677 119.011 52.2783C119.577 52.0996 120.115 51.8163 120.675 51.5486L120.683 51.6746C118.336 50.7876 116.043 49.0323 114.527 46.5422C113 44.0693 112.37 40.8588 112.962 37.7369C113.406 35.4544 114.514 33.3911 115.961 31.7631L115.965 31.7584L115.966 31.7575C116.036 31.687 116.106 31.6168 116.17 31.5531L116.222 31.6885C113.91 31.5578 111.677 32.218 109.912 33.3562C108.132 34.4906 106.826 36.0921 106.048 37.761C105.851 38.1812 105.676 38.5937 105.55 39.0202C105.42 39.447 105.288 39.8589 105.215 40.2757C105.057 41.1075 105.002 41.919 105.03 42.6825C105.056 43.4469 105.168 44.1638 105.327 44.8197C105.408 45.1473 105.499 45.4608 105.601 45.7578C105.653 45.906 105.704 46.0514 105.76 46.1915C105.788 46.2617 105.816 46.331 105.843 46.3996L105.886 46.5013L105.907 46.5519C105.917 46.5606 105.927 46.6283 105.89 46.6495L105.903 46.6311C105.351 48.2464 104.941 49.4575 104.683 50.1711L104.663 50.1467C104.945 50.1137 105.161 50.0881 105.312 50.0703C105.459 50.0544 105.533 50.0513 105.533 50.0513Z" fill="#263238"/>
<path d="M210.388 51.9349H206.506C205.739 51.9349 205.117 51.3134 205.117 50.5465V29.3261C205.117 28.5592 205.739 27.9377 206.506 27.9377H210.388C211.154 27.9377 211.776 28.5592 211.776 29.3261V50.5465C211.776 51.3131 211.154 51.9349 210.388 51.9349Z" fill="#5CA1FF"/>
<path d="M189.48 52.9534H185.694C184.901 52.9534 184.258 52.3103 184.258 51.5172V43.4957C184.258 42.7026 184.901 42.0596 185.694 42.0596H189.48C190.273 42.0596 190.916 42.7026 190.916 43.4957V51.5172C190.917 52.3103 190.273 52.9534 189.48 52.9534Z" fill="#5CA1FF"/>
<path d="M199.671 52.9533H196.082C195.234 52.9533 194.547 52.2663 194.547 51.4186V37.67C194.547 36.8226 195.234 36.1353 196.082 36.1353H199.671C200.518 36.1353 201.206 36.8223 201.206 37.67V51.4186C201.206 52.2663 200.518 52.9533 199.671 52.9533Z" fill="#5CA1FF"/>
<path d="M209.311 20.0078C209.316 20.0128 209.261 20.0852 209.151 20.2194C209.023 20.3701 208.86 20.5629 208.657 20.8028C208.2 21.327 207.565 22.0539 206.777 22.9569C205.14 24.8024 202.869 27.362 200.247 30.3179L200.175 30.3999L200.082 30.3397C198.799 29.5014 197.421 28.601 195.997 27.6709L196.17 27.6456C196.121 27.7036 196.068 27.7663 196.015 27.8294C192.649 31.778 189.602 35.3517 187.374 37.9656L187.317 38.0327L187.247 37.9809C185.893 36.975 184.789 36.1554 183.998 35.5682C183.635 35.2912 183.343 35.0693 183.123 34.9015C182.924 34.7467 182.823 34.6619 182.828 34.6544C182.834 34.6469 182.946 34.7174 183.154 34.8581C183.382 35.016 183.683 35.2241 184.059 35.4846C184.862 36.0549 185.983 36.8515 187.358 37.829L187.231 37.8443C189.444 35.2175 192.469 31.6261 195.813 27.6581C195.866 27.5951 195.919 27.5323 195.968 27.4743L196.044 27.3848L196.142 27.449C197.564 28.3822 198.941 29.2855 200.222 30.1263L200.057 30.1478C202.707 27.2172 205.002 24.6794 206.657 22.8495C207.468 21.9678 208.121 21.2574 208.592 20.7454C208.808 20.5173 208.982 20.3336 209.118 20.1901C209.239 20.0653 209.305 20.0029 209.311 20.0078Z" fill="#263238"/>
<path d="M209.53 25.0739C209.494 25.0739 209.462 24.4901 209.438 23.5429C209.414 22.5954 209.399 21.2843 209.398 19.8292L209.552 19.9599C209.51 19.9668 209.465 19.9742 209.419 19.9817C207.953 20.2235 206.624 20.4279 205.66 20.563C204.695 20.6978 204.096 20.7633 204.09 20.7271C204.084 20.6909 204.672 20.5602 205.629 20.378C206.586 20.1958 207.91 19.9621 209.376 19.7203C209.421 19.7128 209.467 19.7053 209.508 19.6984L209.663 19.6729V19.8292C209.662 21.2843 209.647 22.5957 209.623 23.5429C209.599 24.4901 209.566 25.0739 209.53 25.0739Z" fill="#263238"/>
</svg>
