<svg width="26" height="20" viewBox="0 0 26 20" fill="none" xmlns="http://www.w3.org/2000/svg">
<g clip-path="url(#clip0_2030_18440)">
<path d="M25.5181 2.4353C24.599 2.84169 23.6241 3.10844 22.6258 3.22669C23.6656 2.60468 24.464 1.6197 24.8399 0.446112C23.8515 1.03155 22.77 1.44403 21.6422 1.66573C20.7236 0.688983 19.4149 0.0785522 17.9665 0.0785522C15.1853 0.0785522 12.9305 2.32889 12.9305 5.10439C12.9305 5.49836 12.9751 5.8819 13.0609 6.24984C8.87572 6.04018 5.16513 4.03932 2.68135 0.998552C2.24797 1.74085 1.99963 2.60429 1.99963 3.52525C1.99963 5.26898 2.88874 6.80726 4.23989 7.7086C3.44019 7.6836 2.65809 7.46803 1.95888 7.07989C1.9586 7.10094 1.9586 7.122 1.9586 7.14315C1.9586 9.57827 3.69442 11.6097 5.99805 12.0714C5.2565 12.2727 4.47866 12.3021 3.72395 12.1575C4.36472 14.1542 6.22452 15.6073 8.42805 15.6479C6.7046 16.9959 4.53319 17.7994 2.17395 17.7994C1.76741 17.7994 1.36663 17.7756 0.972656 17.7292C3.20121 19.1552 5.84819 19.9873 8.69201 19.9873C17.9548 19.9873 23.0198 12.3288 23.0198 5.68726C23.0198 5.46927 23.0151 5.25252 23.0053 5.03702C23.9911 4.32571 24.8421 3.44469 25.5181 2.4353Z" fill="white"/>
</g>
<defs>
<clipPath id="clip0_2030_18440">
<rect width="24.5455" height="20" fill="white" transform="translate(0.976562)"/>
</clipPath>
</defs>
</svg>
