<svg width="53" height="52" viewBox="0 0 53 52" fill="none" xmlns="http://www.w3.org/2000/svg">
<rect x="0.25" width="52" height="52" rx="26" fill="white" fill-opacity="0.05"/>
<g clip-path="url(#clip0_2486_4849)">
<path d="M38.5181 18.4353C37.599 18.8417 36.6241 19.1084 35.6258 19.2267C36.6656 18.6047 37.464 17.6197 37.8399 16.4461C36.8515 17.0316 35.77 17.444 34.6422 17.6657C33.7236 16.689 32.4149 16.0786 30.9665 16.0786C28.1853 16.0786 25.9305 18.3289 25.9305 21.1044C25.9305 21.4984 25.9751 21.8819 26.0609 22.2498C21.8757 22.0402 18.1651 20.0393 15.6813 16.9986C15.248 17.7408 14.9996 18.6043 14.9996 19.5253C14.9996 21.269 15.8887 22.8073 17.2399 23.7086C16.4402 23.6836 15.6581 23.468 14.9589 23.0799C14.9586 23.1009 14.9586 23.122 14.9586 23.1431C14.9586 25.5783 16.6944 27.6097 18.9981 28.0714C18.2565 28.2727 17.4787 28.3021 16.724 28.1575C17.3647 30.1542 19.2245 31.6073 21.4281 31.6479C19.7046 32.9959 17.5332 33.7994 15.1739 33.7994C14.7674 33.7994 14.3666 33.7756 13.9727 33.7292C16.2012 35.1552 18.8482 35.9873 21.692 35.9873C30.9548 35.9873 36.0198 28.3288 36.0198 21.6873C36.0198 21.4693 36.0151 21.2525 36.0053 21.037C36.9911 20.3257 37.8421 19.4447 38.5181 18.4353Z" fill="white"/>
</g>
<defs>
<clipPath id="clip0_2486_4849">
<rect width="24.5455" height="20" fill="white" transform="translate(13.9766 16)"/>
</clipPath>
</defs>
</svg>
