<svg width="182" height="182" viewBox="0 0 182 182" fill="none" xmlns="http://www.w3.org/2000/svg">
<rect x="49" y="49" width="84" height="84" rx="42" fill="#DFF36B"/>
<path d="M93.375 77.3415C93.375 78.0349 93.0693 78.658 92.5833 79.0867V82.0244H100.5C103.123 82.0244 105.25 84.121 105.25 86.7073V102.317C105.25 104.903 103.123 107 100.5 107H81.5C78.8767 107 76.75 104.903 76.75 102.317V86.7073C76.75 84.121 78.8767 82.0244 81.5 82.0244H89.4167V79.0867C88.9307 78.658 88.625 78.0349 88.625 77.3415C88.625 76.0483 89.6884 75 91 75C92.3116 75 93.375 76.0483 93.375 77.3415ZM72 89.8293H75.1667V99.1951H72V89.8293ZM110 89.8293H106.833V99.1951H110V89.8293ZM86.25 96.8537C87.5617 96.8537 88.625 95.8053 88.625 94.5122C88.625 93.2191 87.5617 92.1707 86.25 92.1707C84.9383 92.1707 83.875 93.2191 83.875 94.5122C83.875 95.8053 84.9383 96.8537 86.25 96.8537ZM98.125 94.5122C98.125 93.2191 97.0616 92.1707 95.75 92.1707C94.4384 92.1707 93.375 93.2191 93.375 94.5122C93.375 95.8053 94.4384 96.8537 95.75 96.8537C97.0616 96.8537 98.125 95.8053 98.125 94.5122Z" fill="black"/>
</svg>
