<svg width="731" height="646" viewBox="0 0 731 646" fill="none" xmlns="http://www.w3.org/2000/svg">
<rect x="169" y="454" width="130" height="130" rx="65" fill="#051A37"/>
<path d="M203.141 514L200.165 502.32H202.517L204.933 512.48L204.309 512.112H205.909L205.205 512.48L207.109 502.768H209.061L206.693 514H203.141ZM210.117 514L207.541 502.768H209.573L211.765 512.48L211.077 512.112H212.645L212.037 512.48L214.165 502.32H216.389L213.733 514H210.117ZM221.511 514.304C220.765 514.304 220.109 514.176 219.543 513.92C218.989 513.664 218.525 513.323 218.151 512.896C217.789 512.459 217.511 511.973 217.319 511.44C217.138 510.907 217.047 510.363 217.047 509.808V509.504C217.047 508.928 217.138 508.373 217.319 507.84C217.511 507.296 217.789 506.816 218.151 506.4C218.525 505.973 218.983 505.637 219.527 505.392C220.071 505.136 220.701 505.008 221.415 505.008C222.354 505.008 223.138 505.216 223.767 505.632C224.407 506.037 224.887 506.576 225.207 507.248C225.527 507.909 225.687 508.624 225.687 509.392V510.192H217.991V508.832H224.295L223.607 509.504C223.607 508.949 223.527 508.475 223.367 508.08C223.207 507.685 222.962 507.381 222.631 507.168C222.311 506.955 221.906 506.848 221.415 506.848C220.925 506.848 220.509 506.96 220.167 507.184C219.826 507.408 219.565 507.733 219.383 508.16C219.213 508.576 219.127 509.077 219.127 509.664C219.127 510.208 219.213 510.693 219.383 511.12C219.554 511.536 219.815 511.867 220.167 512.112C220.519 512.347 220.967 512.464 221.511 512.464C222.055 512.464 222.498 512.357 222.839 512.144C223.181 511.92 223.399 511.648 223.495 511.328H225.543C225.415 511.925 225.17 512.448 224.807 512.896C224.445 513.344 223.981 513.691 223.415 513.936C222.861 514.181 222.226 514.304 221.511 514.304ZM232.649 514.288C231.935 514.288 231.305 514.139 230.761 513.84C230.217 513.531 229.791 513.083 229.481 512.496C229.172 511.909 229.001 511.2 228.969 510.368H229.305V514H227.545V502.32H229.769V508.16L229.177 509.072C229.22 508.176 229.396 507.429 229.705 506.832C230.025 506.235 230.452 505.787 230.985 505.488C231.519 505.189 232.121 505.04 232.793 505.04C233.391 505.04 233.935 505.152 234.425 505.376C234.916 505.6 235.337 505.915 235.689 506.32C236.041 506.715 236.308 507.179 236.489 507.712C236.681 508.245 236.777 508.827 236.777 509.456V509.792C236.777 510.421 236.681 511.008 236.489 511.552C236.297 512.096 236.02 512.576 235.657 512.992C235.295 513.397 234.857 513.717 234.345 513.952C233.844 514.176 233.279 514.288 232.649 514.288ZM232.153 512.416C232.633 512.416 233.049 512.299 233.401 512.064C233.764 511.819 234.047 511.488 234.249 511.072C234.452 510.656 234.553 510.176 234.553 509.632C234.553 509.077 234.452 508.597 234.249 508.192C234.047 507.787 233.764 507.472 233.401 507.248C233.049 507.024 232.633 506.912 232.153 506.912C231.716 506.912 231.311 507.008 230.937 507.2C230.575 507.392 230.276 507.675 230.041 508.048C229.817 508.421 229.705 508.869 229.705 509.392V510.032C229.705 510.533 229.823 510.96 230.057 511.312C230.292 511.664 230.596 511.936 230.969 512.128C231.343 512.32 231.737 512.416 232.153 512.416ZM241.885 514.272C240.69 514.272 239.751 514.021 239.069 513.52C238.397 513.008 238.045 512.304 238.013 511.408H240.013C240.045 511.707 240.21 511.979 240.509 512.224C240.807 512.469 241.277 512.592 241.917 512.592C242.45 512.592 242.871 512.496 243.181 512.304C243.501 512.112 243.661 511.851 243.661 511.52C243.661 511.232 243.538 511.003 243.293 510.832C243.058 510.661 242.653 510.549 242.077 510.496L241.309 510.416C240.338 510.309 239.591 510.032 239.069 509.584C238.546 509.136 238.285 508.539 238.285 507.792C238.285 507.195 238.434 506.693 238.733 506.288C239.031 505.883 239.442 505.579 239.965 505.376C240.498 505.163 241.106 505.056 241.789 505.056C242.855 505.056 243.719 505.291 244.381 505.76C245.042 506.229 245.389 506.917 245.421 507.824H243.421C243.399 507.525 243.25 507.269 242.973 507.056C242.695 506.843 242.295 506.736 241.773 506.736C241.303 506.736 240.941 506.827 240.685 507.008C240.429 507.189 240.301 507.424 240.301 507.712C240.301 507.989 240.402 508.203 240.605 508.352C240.818 508.501 241.159 508.603 241.629 508.656L242.397 508.736C243.421 508.843 244.221 509.125 244.797 509.584C245.383 510.043 245.677 510.661 245.677 511.44C245.677 512.016 245.517 512.517 245.197 512.944C244.887 513.36 244.45 513.685 243.885 513.92C243.319 514.155 242.653 514.272 241.885 514.272ZM247.93 514V505.312H250.154V514H247.93ZM246.714 506.976V505.312H250.154V506.976H246.714ZM248.746 504.272C248.309 504.272 247.983 504.16 247.77 503.936C247.567 503.701 247.466 503.413 247.466 503.072C247.466 502.709 247.567 502.416 247.77 502.192C247.983 501.968 248.309 501.856 248.746 501.856C249.183 501.856 249.503 501.968 249.706 502.192C249.909 502.416 250.01 502.709 250.01 503.072C250.01 503.413 249.909 503.701 249.706 503.936C249.503 504.16 249.183 504.272 248.746 504.272ZM256.493 514.112C255.693 514.112 255.032 514.011 254.509 513.808C253.997 513.595 253.613 513.243 253.357 512.752C253.101 512.251 252.973 511.579 252.973 510.736L252.989 502.864H255.069L255.053 510.88C255.053 511.307 255.165 511.637 255.389 511.872C255.624 512.096 255.954 512.208 256.381 512.208H257.741V514.112H256.493ZM251.597 506.944V505.312H257.741V506.944H251.597ZM263.449 514.304C262.702 514.304 262.046 514.176 261.481 513.92C260.926 513.664 260.462 513.323 260.089 512.896C259.726 512.459 259.449 511.973 259.257 511.44C259.076 510.907 258.985 510.363 258.985 509.808V509.504C258.985 508.928 259.076 508.373 259.257 507.84C259.449 507.296 259.726 506.816 260.089 506.4C260.462 505.973 260.921 505.637 261.465 505.392C262.009 505.136 262.638 505.008 263.353 505.008C264.292 505.008 265.076 505.216 265.705 505.632C266.345 506.037 266.825 506.576 267.145 507.248C267.465 507.909 267.625 508.624 267.625 509.392V510.192H259.929V508.832H266.233L265.545 509.504C265.545 508.949 265.465 508.475 265.305 508.08C265.145 507.685 264.9 507.381 264.569 507.168C264.249 506.955 263.844 506.848 263.353 506.848C262.862 506.848 262.446 506.96 262.105 507.184C261.764 507.408 261.502 507.733 261.321 508.16C261.15 508.576 261.065 509.077 261.065 509.664C261.065 510.208 261.15 510.693 261.321 511.12C261.492 511.536 261.753 511.867 262.105 512.112C262.457 512.347 262.905 512.464 263.449 512.464C263.993 512.464 264.436 512.357 264.777 512.144C265.118 511.92 265.337 511.648 265.433 511.328H267.481C267.353 511.925 267.108 512.448 266.745 512.896C266.382 513.344 265.918 513.691 265.353 513.936C264.798 514.181 264.164 514.304 263.449 514.304ZM208.509 536.064V533.952H210.925C211.533 533.952 212.072 533.861 212.541 533.68C213.021 533.488 213.427 533.221 213.757 532.88C214.088 532.539 214.339 532.139 214.509 531.68C214.691 531.211 214.781 530.693 214.781 530.128C214.781 529.541 214.691 529.019 214.509 528.56C214.339 528.091 214.088 527.691 213.757 527.36C213.427 527.029 213.021 526.779 212.541 526.608C212.072 526.437 211.533 526.352 210.925 526.352H208.509V524.24H210.781C211.837 524.24 212.76 524.395 213.549 524.704C214.339 525.013 214.995 525.44 215.517 525.984C216.04 526.517 216.429 527.131 216.685 527.824C216.952 528.507 217.085 529.216 217.085 529.952V530.304C217.085 531.008 216.952 531.701 216.685 532.384C216.429 533.067 216.04 533.685 215.517 534.24C214.995 534.795 214.339 535.237 213.549 535.568C212.76 535.899 211.837 536.064 210.781 536.064H208.509ZM206.557 536.064V524.24H208.829V536.064H206.557ZM222.832 536.304C222.085 536.304 221.429 536.176 220.864 535.92C220.309 535.664 219.845 535.323 219.472 534.896C219.109 534.459 218.832 533.973 218.64 533.44C218.458 532.907 218.368 532.363 218.368 531.808V531.504C218.368 530.928 218.458 530.373 218.64 529.84C218.832 529.296 219.109 528.816 219.472 528.4C219.845 527.973 220.304 527.637 220.848 527.392C221.392 527.136 222.021 527.008 222.736 527.008C223.674 527.008 224.458 527.216 225.088 527.632C225.728 528.037 226.208 528.576 226.528 529.248C226.848 529.909 227.008 530.624 227.008 531.392V532.192H219.312V530.832H225.616L224.928 531.504C224.928 530.949 224.848 530.475 224.688 530.08C224.528 529.685 224.282 529.381 223.952 529.168C223.632 528.955 223.226 528.848 222.736 528.848C222.245 528.848 221.829 528.96 221.488 529.184C221.146 529.408 220.885 529.733 220.704 530.16C220.533 530.576 220.448 531.077 220.448 531.664C220.448 532.208 220.533 532.693 220.704 533.12C220.874 533.536 221.136 533.867 221.488 534.112C221.84 534.347 222.288 534.464 222.832 534.464C223.376 534.464 223.818 534.357 224.16 534.144C224.501 533.92 224.72 533.648 224.816 533.328H226.864C226.736 533.925 226.49 534.448 226.128 534.896C225.765 535.344 225.301 535.691 224.736 535.936C224.181 536.181 223.546 536.304 222.832 536.304ZM232.018 536.272C230.823 536.272 229.884 536.021 229.202 535.52C228.53 535.008 228.178 534.304 228.146 533.408H230.146C230.178 533.707 230.343 533.979 230.642 534.224C230.94 534.469 231.41 534.592 232.05 534.592C232.583 534.592 233.004 534.496 233.314 534.304C233.634 534.112 233.794 533.851 233.794 533.52C233.794 533.232 233.671 533.003 233.426 532.832C233.191 532.661 232.786 532.549 232.21 532.496L231.442 532.416C230.471 532.309 229.724 532.032 229.202 531.584C228.679 531.136 228.418 530.539 228.418 529.792C228.418 529.195 228.567 528.693 228.866 528.288C229.164 527.883 229.575 527.579 230.098 527.376C230.631 527.163 231.239 527.056 231.922 527.056C232.988 527.056 233.852 527.291 234.514 527.76C235.175 528.229 235.522 528.917 235.554 529.824H233.554C233.532 529.525 233.383 529.269 233.106 529.056C232.828 528.843 232.428 528.736 231.906 528.736C231.436 528.736 231.074 528.827 230.818 529.008C230.562 529.189 230.434 529.424 230.434 529.712C230.434 529.989 230.535 530.203 230.738 530.352C230.951 530.501 231.292 530.603 231.762 530.656L232.53 530.736C233.554 530.843 234.354 531.125 234.93 531.584C235.516 532.043 235.81 532.661 235.81 533.44C235.81 534.016 235.65 534.517 235.33 534.944C235.02 535.36 234.583 535.685 234.018 535.92C233.452 536.155 232.786 536.272 232.018 536.272ZM238.063 536V527.312H240.287V536H238.063ZM236.847 528.976V527.312H240.287V528.976H236.847ZM238.879 526.272C238.441 526.272 238.116 526.16 237.903 525.936C237.7 525.701 237.599 525.413 237.599 525.072C237.599 524.709 237.7 524.416 237.903 524.192C238.116 523.968 238.441 523.856 238.879 523.856C239.316 523.856 239.636 523.968 239.839 524.192C240.041 524.416 240.143 524.709 240.143 525.072C240.143 525.413 240.041 525.701 239.839 525.936C239.636 526.16 239.316 526.272 238.879 526.272ZM246.242 539.424C245.826 539.424 245.399 539.408 244.962 539.376C244.535 539.344 244.135 539.301 243.762 539.248V537.392C244.146 537.435 244.557 537.472 244.994 537.504C245.431 537.547 245.842 537.568 246.226 537.568C246.941 537.568 247.517 537.483 247.954 537.312C248.402 537.141 248.727 536.869 248.93 536.496C249.143 536.133 249.25 535.669 249.25 535.104V533.392L249.73 532.304C249.698 533.104 249.533 533.787 249.234 534.352C248.935 534.907 248.53 535.333 248.018 535.632C247.506 535.92 246.914 536.064 246.242 536.064C245.645 536.064 245.101 535.952 244.61 535.728C244.13 535.504 243.714 535.195 243.362 534.8C243.021 534.405 242.754 533.941 242.562 533.408C242.37 532.875 242.274 532.304 242.274 531.696V531.36C242.274 530.752 242.37 530.187 242.562 529.664C242.765 529.131 243.047 528.667 243.41 528.272C243.773 527.877 244.205 527.573 244.706 527.36C245.207 527.147 245.762 527.04 246.37 527.04C247.085 527.04 247.703 527.195 248.226 527.504C248.759 527.813 249.175 528.261 249.474 528.848C249.773 529.435 249.938 530.155 249.97 531.008L249.586 531.072V527.312H251.346V534.976C251.346 536.032 251.165 536.885 250.802 537.536C250.439 538.187 249.879 538.661 249.122 538.96C248.375 539.269 247.415 539.424 246.242 539.424ZM246.882 534.16C247.309 534.16 247.698 534.064 248.05 533.872C248.402 533.68 248.685 533.403 248.898 533.04C249.111 532.677 249.218 532.24 249.218 531.728V531.168C249.218 530.677 249.106 530.261 248.882 529.92C248.669 529.579 248.386 529.323 248.034 529.152C247.682 528.971 247.298 528.88 246.882 528.88C246.413 528.88 245.997 528.992 245.634 529.216C245.282 529.429 245.005 529.733 244.802 530.128C244.599 530.523 244.498 530.992 244.498 531.536C244.498 532.069 244.599 532.533 244.802 532.928C245.005 533.323 245.282 533.627 245.634 533.84C245.997 534.053 246.413 534.16 246.882 534.16ZM253.772 536V527.312H255.532V531.04H255.372C255.372 530.155 255.489 529.419 255.724 528.832C255.958 528.235 256.305 527.787 256.764 527.488C257.233 527.189 257.814 527.04 258.508 527.04H258.604C259.638 527.04 260.422 527.376 260.956 528.048C261.489 528.709 261.756 529.701 261.756 531.024V536H259.532V530.832C259.532 530.299 259.377 529.867 259.068 529.536C258.769 529.205 258.353 529.04 257.82 529.04C257.276 529.04 256.833 529.211 256.492 529.552C256.161 529.883 255.996 530.331 255.996 530.896V536H253.772Z" fill="white"/>
<rect x="274" y="385" width="80" height="80" rx="40" fill="#020D1C"/>
<path d="M297.605 431V419.32H299.877V431H297.605ZM306.216 431.288C305.608 431.288 305.048 431.176 304.536 430.952C304.024 430.728 303.581 430.413 303.208 430.008C302.834 429.603 302.546 429.133 302.344 428.6C302.141 428.056 302.04 427.469 302.04 426.84V426.504C302.04 425.885 302.136 425.304 302.328 424.76C302.53 424.216 302.808 423.741 303.16 423.336C303.522 422.931 303.954 422.616 304.456 422.392C304.968 422.157 305.533 422.04 306.152 422.04C306.834 422.04 307.432 422.189 307.944 422.488C308.466 422.776 308.882 423.213 309.192 423.8C309.501 424.387 309.672 425.123 309.704 426.008L309.048 425.24V419.32H311.272V431H309.512V427.304H309.896C309.864 428.189 309.682 428.931 309.352 429.528C309.021 430.115 308.584 430.557 308.04 430.856C307.506 431.144 306.898 431.288 306.216 431.288ZM306.712 429.416C307.149 429.416 307.549 429.32 307.912 429.128C308.274 428.925 308.562 428.637 308.776 428.264C309 427.88 309.112 427.432 309.112 426.92V426.28C309.112 425.768 309 425.341 308.776 425C308.552 424.648 308.258 424.381 307.896 424.2C307.533 424.008 307.138 423.912 306.712 423.912C306.232 423.912 305.805 424.029 305.432 424.264C305.069 424.488 304.781 424.808 304.568 425.224C304.365 425.64 304.264 426.125 304.264 426.68C304.264 427.235 304.37 427.72 304.584 428.136C304.797 428.541 305.085 428.856 305.448 429.08C305.821 429.304 306.242 429.416 306.712 429.416ZM317.691 431.304C316.944 431.304 316.288 431.176 315.723 430.92C315.168 430.664 314.704 430.323 314.331 429.896C313.968 429.459 313.691 428.973 313.499 428.44C313.318 427.907 313.227 427.363 313.227 426.808V426.504C313.227 425.928 313.318 425.373 313.499 424.84C313.691 424.296 313.968 423.816 314.331 423.4C314.704 422.973 315.163 422.637 315.707 422.392C316.251 422.136 316.88 422.008 317.595 422.008C318.534 422.008 319.318 422.216 319.947 422.632C320.587 423.037 321.067 423.576 321.387 424.248C321.707 424.909 321.867 425.624 321.867 426.392V427.192H314.171V425.832H320.475L319.787 426.504C319.787 425.949 319.707 425.475 319.547 425.08C319.387 424.685 319.142 424.381 318.811 424.168C318.491 423.955 318.086 423.848 317.595 423.848C317.104 423.848 316.688 423.96 316.347 424.184C316.006 424.408 315.744 424.733 315.563 425.16C315.392 425.576 315.307 426.077 315.307 426.664C315.307 427.208 315.392 427.693 315.563 428.12C315.734 428.536 315.995 428.867 316.347 429.112C316.699 429.347 317.147 429.464 317.691 429.464C318.235 429.464 318.678 429.357 319.019 429.144C319.36 428.92 319.579 428.648 319.675 428.328H321.723C321.595 428.925 321.35 429.448 320.987 429.896C320.624 430.344 320.16 430.691 319.595 430.936C319.04 431.181 318.406 431.304 317.691 431.304ZM328.989 431V428.424H328.621V425.56C328.621 425.059 328.498 424.685 328.253 424.44C328.008 424.195 327.629 424.072 327.117 424.072C326.85 424.072 326.53 424.077 326.157 424.088C325.784 424.099 325.405 424.115 325.021 424.136C324.648 424.147 324.312 424.163 324.013 424.184V422.296C324.258 422.275 324.536 422.253 324.845 422.232C325.154 422.211 325.469 422.2 325.789 422.2C326.12 422.189 326.429 422.184 326.717 422.184C327.613 422.184 328.354 422.301 328.941 422.536C329.538 422.771 329.986 423.139 330.285 423.64C330.594 424.141 330.749 424.797 330.749 425.608V431H328.989ZM326.189 431.224C325.56 431.224 325.005 431.112 324.525 430.888C324.056 430.664 323.688 430.344 323.421 429.928C323.165 429.512 323.037 429.011 323.037 428.424C323.037 427.784 323.192 427.261 323.501 426.856C323.821 426.451 324.264 426.147 324.829 425.944C325.405 425.741 326.077 425.64 326.845 425.64H328.861V426.968H326.813C326.301 426.968 325.906 427.096 325.629 427.352C325.362 427.597 325.229 427.917 325.229 428.312C325.229 428.707 325.362 429.027 325.629 429.272C325.906 429.517 326.301 429.64 326.813 429.64C327.122 429.64 327.405 429.587 327.661 429.48C327.928 429.363 328.146 429.171 328.317 428.904C328.498 428.627 328.6 428.253 328.621 427.784L329.165 428.408C329.112 429.016 328.962 429.528 328.717 429.944C328.482 430.36 328.152 430.68 327.725 430.904C327.309 431.117 326.797 431.224 326.189 431.224Z" fill="white"/>
<rect x="512" y="489" width="96" height="96" rx="48" fill="#051A37"/>
<path d="M531.369 543.064V540.952H533.785C534.393 540.952 534.931 540.861 535.401 540.68C535.881 540.488 536.286 540.221 536.617 539.88C536.947 539.539 537.198 539.139 537.369 538.68C537.55 538.211 537.641 537.693 537.641 537.128C537.641 536.541 537.55 536.019 537.369 535.56C537.198 535.091 536.947 534.691 536.617 534.36C536.286 534.029 535.881 533.779 535.401 533.608C534.931 533.437 534.393 533.352 533.785 533.352H531.369V531.24H533.641C534.697 531.24 535.619 531.395 536.409 531.704C537.198 532.013 537.854 532.44 538.377 532.984C538.899 533.517 539.289 534.131 539.545 534.824C539.811 535.507 539.945 536.216 539.945 536.952V537.304C539.945 538.008 539.811 538.701 539.545 539.384C539.289 540.067 538.899 540.685 538.377 541.24C537.854 541.795 537.198 542.237 536.409 542.568C535.619 542.899 534.697 543.064 533.641 543.064H531.369ZM529.417 543.064V531.24H531.689V543.064H529.417ZM545.979 543.304C545.211 543.304 544.534 543.181 543.947 542.936C543.36 542.691 542.864 542.36 542.459 541.944C542.054 541.517 541.744 541.037 541.531 540.504C541.328 539.971 541.227 539.416 541.227 538.84V538.504C541.227 537.907 541.334 537.341 541.547 536.808C541.771 536.264 542.086 535.784 542.491 535.368C542.907 534.941 543.408 534.611 543.995 534.376C544.582 534.131 545.243 534.008 545.979 534.008C546.715 534.008 547.376 534.131 547.963 534.376C548.55 534.611 549.046 534.941 549.451 535.368C549.867 535.784 550.182 536.264 550.395 536.808C550.608 537.341 550.715 537.907 550.715 538.504V538.84C550.715 539.416 550.608 539.971 550.395 540.504C550.192 541.037 549.888 541.517 549.483 541.944C549.078 542.36 548.582 542.691 547.995 542.936C547.408 543.181 546.736 543.304 545.979 543.304ZM545.979 541.4C546.523 541.4 546.982 541.283 547.355 541.048C547.728 540.803 548.011 540.477 548.203 540.072C548.395 539.656 548.491 539.187 548.491 538.664C548.491 538.131 548.39 537.661 548.187 537.256C547.995 536.84 547.707 536.515 547.323 536.28C546.95 536.035 546.502 535.912 545.979 535.912C545.456 535.912 545.003 536.035 544.619 536.28C544.246 536.515 543.958 536.84 543.755 537.256C543.552 537.661 543.451 538.131 543.451 538.664C543.451 539.187 543.547 539.656 543.739 540.072C543.942 540.477 544.23 540.803 544.603 541.048C544.976 541.283 545.435 541.4 545.979 541.4ZM552.662 543V534.312H554.422V538.04H554.262C554.262 537.165 554.374 536.435 554.598 535.848C554.822 535.251 555.153 534.803 555.59 534.504C556.038 534.195 556.593 534.04 557.254 534.04H557.35C558.022 534.04 558.577 534.195 559.014 534.504C559.462 534.803 559.793 535.251 560.006 535.848C560.23 536.435 560.342 537.165 560.342 538.04H559.782C559.782 537.165 559.894 536.435 560.118 535.848C560.353 535.251 560.689 534.803 561.126 534.504C561.574 534.195 562.129 534.04 562.79 534.04H562.886C563.558 534.04 564.118 534.195 564.566 534.504C565.014 534.803 565.35 535.251 565.574 535.848C565.809 536.435 565.926 537.165 565.926 538.04V543H563.702V537.832C563.702 537.288 563.564 536.856 563.286 536.536C563.009 536.205 562.614 536.04 562.102 536.04C561.59 536.04 561.18 536.211 560.87 536.552C560.561 536.883 560.406 537.331 560.406 537.896V543H558.182V537.832C558.182 537.288 558.044 536.856 557.766 536.536C557.489 536.205 557.094 536.04 556.582 536.04C556.07 536.04 555.66 536.211 555.35 536.552C555.041 536.883 554.886 537.331 554.886 537.896V543H552.662ZM573.567 543V540.424H573.199V537.56C573.199 537.059 573.076 536.685 572.831 536.44C572.586 536.195 572.207 536.072 571.695 536.072C571.428 536.072 571.108 536.077 570.735 536.088C570.362 536.099 569.983 536.115 569.599 536.136C569.226 536.147 568.89 536.163 568.591 536.184V534.296C568.836 534.275 569.114 534.253 569.423 534.232C569.732 534.211 570.047 534.2 570.367 534.2C570.698 534.189 571.007 534.184 571.295 534.184C572.191 534.184 572.932 534.301 573.519 534.536C574.116 534.771 574.564 535.139 574.863 535.64C575.172 536.141 575.327 536.797 575.327 537.608V543H573.567ZM570.767 543.224C570.138 543.224 569.583 543.112 569.103 542.888C568.634 542.664 568.266 542.344 567.999 541.928C567.743 541.512 567.615 541.011 567.615 540.424C567.615 539.784 567.77 539.261 568.079 538.856C568.399 538.451 568.842 538.147 569.407 537.944C569.983 537.741 570.655 537.64 571.423 537.64H573.439V538.968H571.391C570.879 538.968 570.484 539.096 570.207 539.352C569.94 539.597 569.807 539.917 569.807 540.312C569.807 540.707 569.94 541.027 570.207 541.272C570.484 541.517 570.879 541.64 571.391 541.64C571.7 541.64 571.983 541.587 572.239 541.48C572.506 541.363 572.724 541.171 572.895 540.904C573.076 540.627 573.178 540.253 573.199 539.784L573.743 540.408C573.69 541.016 573.54 541.528 573.295 541.944C573.06 542.36 572.73 542.68 572.303 542.904C571.887 543.117 571.375 543.224 570.767 543.224ZM578.125 543V534.312H580.349V543H578.125ZM576.909 535.976V534.312H580.349V535.976H576.909ZM578.941 533.272C578.504 533.272 578.179 533.16 577.965 532.936C577.763 532.701 577.661 532.413 577.661 532.072C577.661 531.709 577.763 531.416 577.965 531.192C578.179 530.968 578.504 530.856 578.941 530.856C579.379 530.856 579.699 530.968 579.901 531.192C580.104 531.416 580.205 531.709 580.205 532.072C580.205 532.413 580.104 532.701 579.901 532.936C579.699 533.16 579.379 533.272 578.941 533.272ZM582.912 543V534.312H584.672V538.04H584.512C584.512 537.155 584.63 536.419 584.864 535.832C585.099 535.235 585.446 534.787 585.904 534.488C586.374 534.189 586.955 534.04 587.648 534.04H587.744C588.779 534.04 589.563 534.376 590.096 535.048C590.63 535.709 590.896 536.701 590.896 538.024V543H588.672V537.832C588.672 537.299 588.518 536.867 588.208 536.536C587.91 536.205 587.494 536.04 586.96 536.04C586.416 536.04 585.974 536.211 585.632 536.552C585.302 536.883 585.136 537.331 585.136 537.896V543H582.912Z" fill="white"/>
<rect x="77" y="338" width="106" height="106" rx="53" fill="#166ADB"/>
<path d="M103.353 397V387H105.625V397H103.353ZM99.9774 387.32V385.32H109.001V387.32H99.9774ZM113.449 397.304C112.702 397.304 112.046 397.176 111.481 396.92C110.926 396.664 110.462 396.323 110.089 395.896C109.726 395.459 109.449 394.973 109.257 394.44C109.076 393.907 108.985 393.363 108.985 392.808V392.504C108.985 391.928 109.076 391.373 109.257 390.84C109.449 390.296 109.726 389.816 110.089 389.4C110.462 388.973 110.921 388.637 111.465 388.392C112.009 388.136 112.638 388.008 113.353 388.008C114.292 388.008 115.076 388.216 115.705 388.632C116.345 389.037 116.825 389.576 117.145 390.248C117.465 390.909 117.625 391.624 117.625 392.392V393.192H109.929V391.832H116.233L115.545 392.504C115.545 391.949 115.465 391.475 115.305 391.08C115.145 390.685 114.9 390.381 114.569 390.168C114.249 389.955 113.844 389.848 113.353 389.848C112.862 389.848 112.446 389.96 112.105 390.184C111.764 390.408 111.502 390.733 111.321 391.16C111.15 391.576 111.065 392.077 111.065 392.664C111.065 393.208 111.15 393.693 111.321 394.12C111.492 394.536 111.753 394.867 112.105 395.112C112.457 395.347 112.905 395.464 113.449 395.464C113.993 395.464 114.436 395.357 114.777 395.144C115.118 394.92 115.337 394.648 115.433 394.328H117.481C117.353 394.925 117.108 395.448 116.745 395.896C116.382 396.344 115.918 396.691 115.353 396.936C114.798 397.181 114.164 397.304 113.449 397.304ZM122.635 397.272C121.44 397.272 120.501 397.021 119.819 396.52C119.147 396.008 118.795 395.304 118.763 394.408H120.763C120.795 394.707 120.96 394.979 121.259 395.224C121.557 395.469 122.027 395.592 122.667 395.592C123.2 395.592 123.621 395.496 123.931 395.304C124.251 395.112 124.411 394.851 124.411 394.52C124.411 394.232 124.288 394.003 124.043 393.832C123.808 393.661 123.403 393.549 122.827 393.496L122.059 393.416C121.088 393.309 120.341 393.032 119.819 392.584C119.296 392.136 119.035 391.539 119.035 390.792C119.035 390.195 119.184 389.693 119.483 389.288C119.781 388.883 120.192 388.579 120.715 388.376C121.248 388.163 121.856 388.056 122.539 388.056C123.605 388.056 124.469 388.291 125.131 388.76C125.792 389.229 126.139 389.917 126.171 390.824H124.171C124.149 390.525 124 390.269 123.723 390.056C123.445 389.843 123.045 389.736 122.523 389.736C122.053 389.736 121.691 389.827 121.435 390.008C121.179 390.189 121.051 390.424 121.051 390.712C121.051 390.989 121.152 391.203 121.355 391.352C121.568 391.501 121.909 391.603 122.379 391.656L123.147 391.736C124.171 391.843 124.971 392.125 125.547 392.584C126.133 393.043 126.427 393.661 126.427 394.44C126.427 395.016 126.267 395.517 125.947 395.944C125.637 396.36 125.2 396.685 124.635 396.92C124.069 397.155 123.403 397.272 122.635 397.272ZM132.04 397.112C131.24 397.112 130.579 397.011 130.056 396.808C129.544 396.595 129.16 396.243 128.904 395.752C128.648 395.251 128.52 394.579 128.52 393.736L128.536 385.864H130.616L130.6 393.88C130.6 394.307 130.712 394.637 130.936 394.872C131.171 395.096 131.501 395.208 131.928 395.208H133.288V397.112H132.04ZM127.144 389.944V388.312H133.288V389.944H127.144ZM135.571 397V388.312H137.795V397H135.571ZM134.355 389.976V388.312H137.795V389.976H134.355ZM136.387 387.272C135.949 387.272 135.624 387.16 135.411 386.936C135.208 386.701 135.107 386.413 135.107 386.072C135.107 385.709 135.208 385.416 135.411 385.192C135.624 384.968 135.949 384.856 136.387 384.856C136.824 384.856 137.144 384.968 137.347 385.192C137.549 385.416 137.651 385.709 137.651 386.072C137.651 386.413 137.549 386.701 137.347 386.936C137.144 387.16 136.824 387.272 136.387 387.272ZM140.358 397V388.312H142.118V392.04H141.958C141.958 391.155 142.075 390.419 142.31 389.832C142.544 389.235 142.891 388.787 143.35 388.488C143.819 388.189 144.4 388.04 145.094 388.04H145.19C146.224 388.04 147.008 388.376 147.542 389.048C148.075 389.709 148.342 390.701 148.342 392.024V397H146.118V391.832C146.118 391.299 145.963 390.867 145.654 390.536C145.355 390.205 144.939 390.04 144.406 390.04C143.862 390.04 143.419 390.211 143.078 390.552C142.747 390.883 142.582 391.331 142.582 391.896V397H140.358ZM154.125 400.424C153.709 400.424 153.282 400.408 152.845 400.376C152.418 400.344 152.018 400.301 151.645 400.248V398.392C152.029 398.435 152.439 398.472 152.877 398.504C153.314 398.547 153.725 398.568 154.109 398.568C154.823 398.568 155.399 398.483 155.837 398.312C156.285 398.141 156.61 397.869 156.813 397.496C157.026 397.133 157.133 396.669 157.133 396.104V394.392L157.613 393.304C157.581 394.104 157.415 394.787 157.117 395.352C156.818 395.907 156.413 396.333 155.901 396.632C155.389 396.92 154.797 397.064 154.125 397.064C153.527 397.064 152.983 396.952 152.493 396.728C152.013 396.504 151.597 396.195 151.245 395.8C150.903 395.405 150.637 394.941 150.445 394.408C150.253 393.875 150.157 393.304 150.157 392.696V392.36C150.157 391.752 150.253 391.187 150.445 390.664C150.647 390.131 150.93 389.667 151.293 389.272C151.655 388.877 152.087 388.573 152.589 388.36C153.09 388.147 153.645 388.04 154.253 388.04C154.967 388.04 155.586 388.195 156.109 388.504C156.642 388.813 157.058 389.261 157.357 389.848C157.655 390.435 157.821 391.155 157.853 392.008L157.469 392.072V388.312H159.229V395.976C159.229 397.032 159.047 397.885 158.685 398.536C158.322 399.187 157.762 399.661 157.005 399.96C156.258 400.269 155.298 400.424 154.125 400.424ZM154.765 395.16C155.191 395.16 155.581 395.064 155.933 394.872C156.285 394.68 156.567 394.403 156.781 394.04C156.994 393.677 157.101 393.24 157.101 392.728V392.168C157.101 391.677 156.989 391.261 156.765 390.92C156.551 390.579 156.269 390.323 155.917 390.152C155.565 389.971 155.181 389.88 154.765 389.88C154.295 389.88 153.879 389.992 153.517 390.216C153.165 390.429 152.887 390.733 152.685 391.128C152.482 391.523 152.381 391.992 152.381 392.536C152.381 393.069 152.482 393.533 152.685 393.928C152.887 394.323 153.165 394.627 153.517 394.84C153.879 395.053 154.295 395.16 154.765 395.16Z" fill="white"/>
<rect x="406" y="98" width="106" height="106" rx="53" fill="#166ADB"/>
<path d="M431.681 157.304C430.625 157.304 429.718 157.117 428.961 156.744C428.203 156.371 427.585 155.885 427.105 155.288C426.635 154.691 426.289 154.04 426.065 153.336C425.841 152.632 425.729 151.955 425.729 151.304V150.952C425.729 150.227 425.841 149.512 426.065 148.808C426.299 148.104 426.657 147.464 427.137 146.888C427.617 146.312 428.225 145.853 428.961 145.512C429.707 145.16 430.587 144.984 431.601 144.984C432.657 144.984 433.574 145.176 434.353 145.56C435.142 145.933 435.771 146.467 436.241 147.16C436.71 147.843 436.993 148.643 437.089 149.56H434.801C434.715 149.027 434.523 148.579 434.225 148.216C433.937 147.843 433.569 147.565 433.121 147.384C432.673 147.192 432.166 147.096 431.601 147.096C431.025 147.096 430.513 147.197 430.065 147.4C429.617 147.592 429.243 147.869 428.945 148.232C428.646 148.595 428.417 149.021 428.257 149.512C428.107 150.003 428.033 150.547 428.033 151.144C428.033 151.72 428.107 152.253 428.257 152.744C428.417 153.235 428.651 153.667 428.961 154.04C429.27 154.403 429.649 154.685 430.097 154.888C430.555 155.091 431.083 155.192 431.681 155.192C432.555 155.192 433.291 154.979 433.889 154.552C434.497 154.115 434.865 153.507 434.993 152.728H437.281C437.174 153.56 436.891 154.323 436.433 155.016C435.974 155.709 435.345 156.264 434.545 156.68C433.745 157.096 432.79 157.304 431.681 157.304ZM443.198 157.304C442.43 157.304 441.752 157.181 441.166 156.936C440.579 156.691 440.083 156.36 439.678 155.944C439.272 155.517 438.963 155.037 438.75 154.504C438.547 153.971 438.446 153.416 438.446 152.84V152.504C438.446 151.907 438.552 151.341 438.766 150.808C438.99 150.264 439.304 149.784 439.71 149.368C440.126 148.941 440.627 148.611 441.214 148.376C441.8 148.131 442.462 148.008 443.198 148.008C443.934 148.008 444.595 148.131 445.182 148.376C445.768 148.611 446.264 148.941 446.67 149.368C447.086 149.784 447.4 150.264 447.614 150.808C447.827 151.341 447.934 151.907 447.934 152.504V152.84C447.934 153.416 447.827 153.971 447.614 154.504C447.411 155.037 447.107 155.517 446.702 155.944C446.296 156.36 445.8 156.691 445.214 156.936C444.627 157.181 443.955 157.304 443.198 157.304ZM443.198 155.4C443.742 155.4 444.2 155.283 444.574 155.048C444.947 154.803 445.23 154.477 445.422 154.072C445.614 153.656 445.71 153.187 445.71 152.664C445.71 152.131 445.608 151.661 445.406 151.256C445.214 150.84 444.926 150.515 444.542 150.28C444.168 150.035 443.72 149.912 443.198 149.912C442.675 149.912 442.222 150.035 441.838 150.28C441.464 150.515 441.176 150.84 440.974 151.256C440.771 151.661 440.67 152.131 440.67 152.664C440.67 153.187 440.766 153.656 440.958 154.072C441.16 154.477 441.448 154.803 441.822 155.048C442.195 155.283 442.654 155.4 443.198 155.4ZM449.881 157V148.312H451.641V152.04H451.481C451.481 151.155 451.599 150.419 451.833 149.832C452.068 149.235 452.415 148.787 452.873 148.488C453.343 148.189 453.924 148.04 454.617 148.04H454.713C455.748 148.04 456.532 148.376 457.065 149.048C457.599 149.709 457.865 150.701 457.865 152.024V157H455.641V151.832C455.641 151.299 455.487 150.867 455.177 150.536C454.879 150.205 454.463 150.04 453.929 150.04C453.385 150.04 452.943 150.211 452.601 150.552C452.271 150.883 452.105 151.331 452.105 151.896V157H449.881ZM464.032 157.112C463.232 157.112 462.571 157.011 462.048 156.808C461.536 156.595 461.152 156.243 460.896 155.752C460.64 155.251 460.512 154.579 460.512 153.736L460.528 145.864H462.608L462.592 153.88C462.592 154.307 462.704 154.637 462.928 154.872C463.163 155.096 463.494 155.208 463.92 155.208H465.28V157.112H464.032ZM459.136 149.944V148.312H465.28V149.944H459.136ZM470.988 157.304C470.241 157.304 469.585 157.176 469.02 156.92C468.465 156.664 468.001 156.323 467.628 155.896C467.265 155.459 466.988 154.973 466.796 154.44C466.615 153.907 466.524 153.363 466.524 152.808V152.504C466.524 151.928 466.615 151.373 466.796 150.84C466.988 150.296 467.265 149.816 467.628 149.4C468.001 148.973 468.46 148.637 469.004 148.392C469.548 148.136 470.177 148.008 470.892 148.008C471.831 148.008 472.615 148.216 473.244 148.632C473.884 149.037 474.364 149.576 474.684 150.248C475.004 150.909 475.164 151.624 475.164 152.392V153.192H467.468V151.832H473.772L473.084 152.504C473.084 151.949 473.004 151.475 472.844 151.08C472.684 150.685 472.439 150.381 472.108 150.168C471.788 149.955 471.383 149.848 470.892 149.848C470.401 149.848 469.985 149.96 469.644 150.184C469.303 150.408 469.041 150.733 468.86 151.16C468.689 151.576 468.604 152.077 468.604 152.664C468.604 153.208 468.689 153.693 468.86 154.12C469.031 154.536 469.292 154.867 469.644 155.112C469.996 155.347 470.444 155.464 470.988 155.464C471.532 155.464 471.975 155.357 472.316 155.144C472.657 154.92 472.876 154.648 472.972 154.328H475.02C474.892 154.925 474.647 155.448 474.284 155.896C473.921 156.344 473.457 156.691 472.892 156.936C472.337 157.181 471.703 157.304 470.988 157.304ZM477.022 157V148.312H478.782V152.04H478.622C478.622 151.155 478.739 150.419 478.974 149.832C479.208 149.235 479.555 148.787 480.014 148.488C480.483 148.189 481.064 148.04 481.758 148.04H481.854C482.888 148.04 483.672 148.376 484.206 149.048C484.739 149.709 485.006 150.701 485.006 152.024V157H482.782V151.832C482.782 151.299 482.627 150.867 482.318 150.536C482.019 150.205 481.603 150.04 481.07 150.04C480.526 150.04 480.083 150.211 479.742 150.552C479.411 150.883 479.246 151.331 479.246 151.896V157H477.022ZM491.173 157.112C490.373 157.112 489.711 157.011 489.189 156.808C488.677 156.595 488.293 156.243 488.037 155.752C487.781 155.251 487.653 154.579 487.653 153.736L487.669 145.864H489.749L489.733 153.88C489.733 154.307 489.845 154.637 490.069 154.872C490.303 155.096 490.634 155.208 491.061 155.208H492.421V157.112H491.173ZM486.277 149.944V148.312H492.421V149.944H486.277Z" fill="white"/>
<rect x="154" y="116" width="148" height="148" rx="74" fill="#0B356E"/>
<path d="M174.994 192.416V190.448H177.266C177.724 190.448 178.108 190.357 178.418 190.176C178.738 189.995 178.978 189.744 179.138 189.424C179.308 189.104 179.394 188.736 179.394 188.32C179.394 187.904 179.308 187.536 179.138 187.216C178.978 186.896 178.738 186.651 178.418 186.48C178.108 186.299 177.724 186.208 177.266 186.208H174.994V184.24H177.074C178.055 184.24 178.887 184.4 179.57 184.72C180.263 185.04 180.791 185.499 181.154 186.096C181.516 186.683 181.698 187.381 181.698 188.192V188.448C181.698 189.259 181.516 189.963 181.154 190.56C180.791 191.147 180.263 191.605 179.57 191.936C178.887 192.256 178.055 192.416 177.074 192.416H174.994ZM173.042 196V184.24H175.314V196H173.042ZM183.459 196V187.312H185.219V190.992H185.171C185.171 189.744 185.438 188.8 185.971 188.16C186.505 187.52 187.289 187.2 188.323 187.2H188.643V189.136H188.035C187.289 189.136 186.707 189.339 186.291 189.744C185.886 190.139 185.683 190.715 185.683 191.472V196H183.459ZM194.245 196.304C193.477 196.304 192.799 196.181 192.213 195.936C191.626 195.691 191.13 195.36 190.725 194.944C190.319 194.517 190.01 194.037 189.797 193.504C189.594 192.971 189.493 192.416 189.493 191.84V191.504C189.493 190.907 189.599 190.341 189.813 189.808C190.037 189.264 190.351 188.784 190.757 188.368C191.173 187.941 191.674 187.611 192.261 187.376C192.847 187.131 193.509 187.008 194.245 187.008C194.981 187.008 195.642 187.131 196.229 187.376C196.815 187.611 197.311 187.941 197.717 188.368C198.133 188.784 198.447 189.264 198.661 189.808C198.874 190.341 198.981 190.907 198.981 191.504V191.84C198.981 192.416 198.874 192.971 198.661 193.504C198.458 194.037 198.154 194.517 197.749 194.944C197.343 195.36 196.847 195.691 196.261 195.936C195.674 196.181 195.002 196.304 194.245 196.304ZM194.245 194.4C194.789 194.4 195.247 194.283 195.621 194.048C195.994 193.803 196.277 193.477 196.469 193.072C196.661 192.656 196.757 192.187 196.757 191.664C196.757 191.131 196.655 190.661 196.453 190.256C196.261 189.84 195.973 189.515 195.589 189.28C195.215 189.035 194.767 188.912 194.245 188.912C193.722 188.912 193.269 189.035 192.885 189.28C192.511 189.515 192.223 189.84 192.021 190.256C191.818 190.661 191.717 191.131 191.717 191.664C191.717 192.187 191.813 192.656 192.005 193.072C192.207 193.477 192.495 193.803 192.869 194.048C193.242 194.283 193.701 194.4 194.245 194.4ZM204.32 199.424C203.904 199.424 203.477 199.408 203.04 199.376C202.613 199.344 202.213 199.301 201.84 199.248V197.392C202.224 197.435 202.635 197.472 203.072 197.504C203.509 197.547 203.92 197.568 204.304 197.568C205.019 197.568 205.595 197.483 206.032 197.312C206.48 197.141 206.805 196.869 207.008 196.496C207.221 196.133 207.328 195.669 207.328 195.104V193.392L207.808 192.304C207.776 193.104 207.611 193.787 207.312 194.352C207.013 194.907 206.608 195.333 206.096 195.632C205.584 195.92 204.992 196.064 204.32 196.064C203.723 196.064 203.179 195.952 202.688 195.728C202.208 195.504 201.792 195.195 201.44 194.8C201.099 194.405 200.832 193.941 200.64 193.408C200.448 192.875 200.352 192.304 200.352 191.696V191.36C200.352 190.752 200.448 190.187 200.64 189.664C200.843 189.131 201.125 188.667 201.488 188.272C201.851 187.877 202.283 187.573 202.784 187.36C203.285 187.147 203.84 187.04 204.448 187.04C205.163 187.04 205.781 187.195 206.304 187.504C206.837 187.813 207.253 188.261 207.552 188.848C207.851 189.435 208.016 190.155 208.048 191.008L207.664 191.072V187.312H209.424V194.976C209.424 196.032 209.243 196.885 208.88 197.536C208.517 198.187 207.957 198.661 207.2 198.96C206.453 199.269 205.493 199.424 204.32 199.424ZM204.96 194.16C205.387 194.16 205.776 194.064 206.128 193.872C206.48 193.68 206.763 193.403 206.976 193.04C207.189 192.677 207.296 192.24 207.296 191.728V191.168C207.296 190.677 207.184 190.261 206.96 189.92C206.747 189.579 206.464 189.323 206.112 189.152C205.76 188.971 205.376 188.88 204.96 188.88C204.491 188.88 204.075 188.992 203.712 189.216C203.36 189.429 203.083 189.733 202.88 190.128C202.677 190.523 202.576 190.992 202.576 191.536C202.576 192.069 202.677 192.533 202.88 192.928C203.083 193.323 203.36 193.627 203.712 193.84C204.075 194.053 204.491 194.16 204.96 194.16ZM211.85 196V187.312H213.61V190.992H213.562C213.562 189.744 213.829 188.8 214.362 188.16C214.895 187.52 215.679 187.2 216.714 187.2H217.034V189.136H216.426C215.679 189.136 215.098 189.339 214.682 189.744C214.277 190.139 214.074 190.715 214.074 191.472V196H211.85ZM223.739 196V193.424H223.371V190.56C223.371 190.059 223.248 189.685 223.003 189.44C222.758 189.195 222.379 189.072 221.867 189.072C221.6 189.072 221.28 189.077 220.907 189.088C220.534 189.099 220.155 189.115 219.771 189.136C219.398 189.147 219.062 189.163 218.763 189.184V187.296C219.008 187.275 219.286 187.253 219.595 187.232C219.904 187.211 220.219 187.2 220.539 187.2C220.87 187.189 221.179 187.184 221.467 187.184C222.363 187.184 223.104 187.301 223.691 187.536C224.288 187.771 224.736 188.139 225.035 188.64C225.344 189.141 225.499 189.797 225.499 190.608V196H223.739ZM220.939 196.224C220.31 196.224 219.755 196.112 219.275 195.888C218.806 195.664 218.438 195.344 218.171 194.928C217.915 194.512 217.787 194.011 217.787 193.424C217.787 192.784 217.942 192.261 218.251 191.856C218.571 191.451 219.014 191.147 219.579 190.944C220.155 190.741 220.827 190.64 221.595 190.64H223.611V191.968H221.563C221.051 191.968 220.656 192.096 220.379 192.352C220.112 192.597 219.979 192.917 219.979 193.312C219.979 193.707 220.112 194.027 220.379 194.272C220.656 194.517 221.051 194.64 221.563 194.64C221.872 194.64 222.155 194.587 222.411 194.48C222.678 194.363 222.896 194.171 223.067 193.904C223.248 193.627 223.35 193.253 223.371 192.784L223.915 193.408C223.862 194.016 223.712 194.528 223.467 194.944C223.232 195.36 222.902 195.68 222.475 195.904C222.059 196.117 221.547 196.224 220.939 196.224ZM227.881 196V187.312H229.641V191.04H229.481C229.481 190.165 229.593 189.435 229.817 188.848C230.041 188.251 230.372 187.803 230.809 187.504C231.257 187.195 231.812 187.04 232.473 187.04H232.569C233.241 187.04 233.796 187.195 234.233 187.504C234.681 187.803 235.012 188.251 235.225 188.848C235.449 189.435 235.561 190.165 235.561 191.04H235.001C235.001 190.165 235.113 189.435 235.337 188.848C235.572 188.251 235.908 187.803 236.345 187.504C236.793 187.195 237.348 187.04 238.009 187.04H238.105C238.777 187.04 239.337 187.195 239.785 187.504C240.233 187.803 240.569 188.251 240.793 188.848C241.028 189.435 241.145 190.165 241.145 191.04V196H238.921V190.832C238.921 190.288 238.783 189.856 238.505 189.536C238.228 189.205 237.833 189.04 237.321 189.04C236.809 189.04 236.399 189.211 236.089 189.552C235.78 189.883 235.625 190.331 235.625 190.896V196H233.401V190.832C233.401 190.288 233.263 189.856 232.985 189.536C232.708 189.205 232.313 189.04 231.801 189.04C231.289 189.04 230.879 189.211 230.569 189.552C230.26 189.883 230.105 190.331 230.105 190.896V196H227.881ZM243.522 196V187.312H245.282V191.04H245.122C245.122 190.165 245.234 189.435 245.458 188.848C245.682 188.251 246.012 187.803 246.45 187.504C246.898 187.195 247.452 187.04 248.114 187.04H248.21C248.882 187.04 249.436 187.195 249.874 187.504C250.322 187.803 250.652 188.251 250.866 188.848C251.09 189.435 251.202 190.165 251.202 191.04H250.642C250.642 190.165 250.754 189.435 250.978 188.848C251.212 188.251 251.548 187.803 251.986 187.504C252.434 187.195 252.988 187.04 253.65 187.04H253.746C254.418 187.04 254.978 187.195 255.426 187.504C255.874 187.803 256.21 188.251 256.434 188.848C256.668 189.435 256.786 190.165 256.786 191.04V196H254.562V190.832C254.562 190.288 254.423 189.856 254.146 189.536C253.868 189.205 253.474 189.04 252.962 189.04C252.45 189.04 252.039 189.211 251.73 189.552C251.42 189.883 251.266 190.331 251.266 190.896V196H249.042V190.832C249.042 190.288 248.903 189.856 248.626 189.536C248.348 189.205 247.954 189.04 247.442 189.04C246.93 189.04 246.519 189.211 246.21 189.552C245.9 189.883 245.746 190.331 245.746 190.896V196H243.522ZM259.578 196V187.312H261.802V196H259.578ZM258.362 188.976V187.312H261.802V188.976H258.362ZM260.394 186.272C259.957 186.272 259.632 186.16 259.418 185.936C259.216 185.701 259.114 185.413 259.114 185.072C259.114 184.709 259.216 184.416 259.418 184.192C259.632 183.968 259.957 183.856 260.394 183.856C260.832 183.856 261.152 183.968 261.354 184.192C261.557 184.416 261.658 184.709 261.658 185.072C261.658 185.413 261.557 185.701 261.354 185.936C261.152 186.16 260.832 186.272 260.394 186.272ZM264.366 196V187.312H266.126V191.04H265.966C265.966 190.155 266.083 189.419 266.318 188.832C266.552 188.235 266.899 187.787 267.358 187.488C267.827 187.189 268.408 187.04 269.102 187.04H269.198C270.232 187.04 271.016 187.376 271.55 188.048C272.083 188.709 272.35 189.701 272.35 191.024V196H270.126V190.832C270.126 190.299 269.971 189.867 269.662 189.536C269.363 189.205 268.947 189.04 268.414 189.04C267.87 189.04 267.427 189.211 267.086 189.552C266.755 189.883 266.59 190.331 266.59 190.896V196H264.366ZM278.133 199.424C277.717 199.424 277.29 199.408 276.853 199.376C276.426 199.344 276.026 199.301 275.653 199.248V197.392C276.037 197.435 276.447 197.472 276.885 197.504C277.322 197.547 277.733 197.568 278.117 197.568C278.831 197.568 279.407 197.483 279.845 197.312C280.293 197.141 280.618 196.869 280.821 196.496C281.034 196.133 281.141 195.669 281.141 195.104V193.392L281.621 192.304C281.589 193.104 281.423 193.787 281.125 194.352C280.826 194.907 280.421 195.333 279.909 195.632C279.397 195.92 278.805 196.064 278.133 196.064C277.535 196.064 276.991 195.952 276.501 195.728C276.021 195.504 275.605 195.195 275.253 194.8C274.911 194.405 274.645 193.941 274.453 193.408C274.261 192.875 274.165 192.304 274.165 191.696V191.36C274.165 190.752 274.261 190.187 274.453 189.664C274.655 189.131 274.938 188.667 275.301 188.272C275.663 187.877 276.095 187.573 276.597 187.36C277.098 187.147 277.653 187.04 278.261 187.04C278.975 187.04 279.594 187.195 280.117 187.504C280.65 187.813 281.066 188.261 281.365 188.848C281.663 189.435 281.829 190.155 281.861 191.008L281.477 191.072V187.312H283.237V194.976C283.237 196.032 283.055 196.885 282.693 197.536C282.33 198.187 281.77 198.661 281.013 198.96C280.266 199.269 279.306 199.424 278.133 199.424ZM278.773 194.16C279.199 194.16 279.589 194.064 279.941 193.872C280.293 193.68 280.575 193.403 280.789 193.04C281.002 192.677 281.109 192.24 281.109 191.728V191.168C281.109 190.677 280.997 190.261 280.773 189.92C280.559 189.579 280.277 189.323 279.925 189.152C279.573 188.971 279.189 188.88 278.773 188.88C278.303 188.88 277.887 188.992 277.525 189.216C277.173 189.429 276.895 189.733 276.693 190.128C276.49 190.523 276.389 190.992 276.389 191.536C276.389 192.069 276.49 192.533 276.693 192.928C276.895 193.323 277.173 193.627 277.525 193.84C277.887 194.053 278.303 194.16 278.773 194.16Z" fill="white"/>
<rect x="520" y="256" width="122" height="122" rx="61" fill="#0B356E"/>
<path d="M549.768 323.304C548.733 323.304 547.858 323.139 547.144 322.808C546.44 322.477 545.901 322.024 545.528 321.448C545.154 320.861 544.968 320.2 544.968 319.464H547.192C547.192 319.773 547.277 320.077 547.448 320.376C547.618 320.664 547.89 320.899 548.264 321.08C548.648 321.261 549.149 321.352 549.768 321.352C550.322 321.352 550.786 321.272 551.16 321.112C551.533 320.952 551.81 320.744 551.992 320.488C552.173 320.221 552.264 319.923 552.264 319.592C552.264 319.176 552.088 318.845 551.736 318.6C551.384 318.344 550.84 318.184 550.104 318.12L549.08 318.04C547.96 317.944 547.064 317.597 546.392 317C545.73 316.392 545.4 315.592 545.4 314.6C545.4 313.853 545.576 313.213 545.928 312.68C546.28 312.136 546.77 311.72 547.4 311.432C548.04 311.133 548.786 310.984 549.64 310.984C550.525 310.984 551.288 311.139 551.928 311.448C552.568 311.757 553.064 312.195 553.416 312.76C553.768 313.315 553.944 313.971 553.944 314.728H551.72C551.72 314.408 551.64 314.115 551.48 313.848C551.33 313.571 551.101 313.352 550.792 313.192C550.493 313.021 550.109 312.936 549.64 312.936C549.192 312.936 548.818 313.011 548.52 313.16C548.221 313.309 547.997 313.512 547.848 313.768C547.698 314.024 547.624 314.301 547.624 314.6C547.624 314.963 547.757 315.283 548.024 315.56C548.29 315.827 548.712 315.981 549.288 316.024L550.312 316.12C551.144 316.184 551.874 316.36 552.504 316.648C553.133 316.936 553.618 317.325 553.96 317.816C554.312 318.307 554.488 318.899 554.488 319.592C554.488 320.328 554.296 320.979 553.912 321.544C553.528 322.099 552.978 322.531 552.264 322.84C551.56 323.149 550.728 323.304 549.768 323.304ZM560.165 323.112C559.365 323.112 558.704 323.011 558.181 322.808C557.669 322.595 557.285 322.243 557.029 321.752C556.773 321.251 556.645 320.579 556.645 319.736L556.661 311.864H558.741L558.725 319.88C558.725 320.307 558.837 320.637 559.061 320.872C559.296 321.096 559.626 321.208 560.053 321.208H561.413V323.112H560.165ZM555.269 315.944V314.312H561.413V315.944H555.269ZM568.512 323V320.424H568.144V317.56C568.144 317.059 568.022 316.685 567.776 316.44C567.531 316.195 567.152 316.072 566.64 316.072C566.374 316.072 566.054 316.077 565.68 316.088C565.307 316.099 564.928 316.115 564.544 316.136C564.171 316.147 563.835 316.163 563.536 316.184V314.296C563.782 314.275 564.059 314.253 564.368 314.232C564.678 314.211 564.992 314.2 565.312 314.2C565.643 314.189 565.952 314.184 566.24 314.184C567.136 314.184 567.878 314.301 568.464 314.536C569.062 314.771 569.51 315.139 569.808 315.64C570.118 316.141 570.272 316.797 570.272 317.608V323H568.512ZM565.712 323.224C565.083 323.224 564.528 323.112 564.048 322.888C563.579 322.664 563.211 322.344 562.944 321.928C562.688 321.512 562.56 321.011 562.56 320.424C562.56 319.784 562.715 319.261 563.024 318.856C563.344 318.451 563.787 318.147 564.352 317.944C564.928 317.741 565.6 317.64 566.368 317.64H568.384V318.968H566.336C565.824 318.968 565.43 319.096 565.152 319.352C564.886 319.597 564.752 319.917 564.752 320.312C564.752 320.707 564.886 321.027 565.152 321.272C565.43 321.517 565.824 321.64 566.336 321.64C566.646 321.64 566.928 321.587 567.184 321.48C567.451 321.363 567.67 321.171 567.84 320.904C568.022 320.627 568.123 320.253 568.144 319.784L568.688 320.408C568.635 321.016 568.486 321.528 568.24 321.944C568.006 322.36 567.675 322.68 567.248 322.904C566.832 323.117 566.32 323.224 565.712 323.224ZM576.431 323.112C575.631 323.112 574.969 323.011 574.447 322.808C573.935 322.595 573.551 322.243 573.295 321.752C573.039 321.251 572.911 320.579 572.911 319.736L572.927 311.864H575.007L574.991 319.88C574.991 320.307 575.103 320.637 575.327 320.872C575.561 321.096 575.892 321.208 576.319 321.208H577.679V323.112H576.431ZM571.535 315.944V314.312H577.679V315.944H571.535ZM579.961 323V314.312H582.185V323H579.961ZM578.745 315.976V314.312H582.185V315.976H578.745ZM580.777 313.272C580.34 313.272 580.015 313.16 579.801 312.936C579.599 312.701 579.497 312.413 579.497 312.072C579.497 311.709 579.599 311.416 579.801 311.192C580.015 310.968 580.34 310.856 580.777 310.856C581.215 310.856 581.535 310.968 581.737 311.192C581.94 311.416 582.041 311.709 582.041 312.072C582.041 312.413 581.94 312.701 581.737 312.936C581.535 313.16 581.215 313.272 580.777 313.272ZM587.9 323.272C586.706 323.272 585.767 323.021 585.084 322.52C584.412 322.008 584.06 321.304 584.028 320.408H586.028C586.06 320.707 586.226 320.979 586.524 321.224C586.823 321.469 587.292 321.592 587.932 321.592C588.466 321.592 588.887 321.496 589.196 321.304C589.516 321.112 589.676 320.851 589.676 320.52C589.676 320.232 589.554 320.003 589.308 319.832C589.074 319.661 588.668 319.549 588.092 319.496L587.324 319.416C586.354 319.309 585.607 319.032 585.084 318.584C584.562 318.136 584.3 317.539 584.3 316.792C584.3 316.195 584.45 315.693 584.748 315.288C585.047 314.883 585.458 314.579 585.98 314.376C586.514 314.163 587.122 314.056 587.804 314.056C588.871 314.056 589.735 314.291 590.396 314.76C591.058 315.229 591.404 315.917 591.436 316.824H589.436C589.415 316.525 589.266 316.269 588.988 316.056C588.711 315.843 588.311 315.736 587.788 315.736C587.319 315.736 586.956 315.827 586.7 316.008C586.444 316.189 586.316 316.424 586.316 316.712C586.316 316.989 586.418 317.203 586.62 317.352C586.834 317.501 587.175 317.603 587.644 317.656L588.412 317.736C589.436 317.843 590.236 318.125 590.812 318.584C591.399 319.043 591.692 319.661 591.692 320.44C591.692 321.016 591.532 321.517 591.212 321.944C590.903 322.36 590.466 322.685 589.9 322.92C589.335 323.155 588.668 323.272 587.9 323.272ZM597.306 323.112C596.506 323.112 595.844 323.011 595.322 322.808C594.81 322.595 594.426 322.243 594.17 321.752C593.914 321.251 593.786 320.579 593.786 319.736L593.802 311.864H595.882L595.866 319.88C595.866 320.307 595.978 320.637 596.202 320.872C596.436 321.096 596.767 321.208 597.194 321.208H598.554V323.112H597.306ZM592.41 315.944V314.312H598.554V315.944H592.41ZM604.229 323.304C603.472 323.304 602.816 323.176 602.261 322.92C601.717 322.664 601.259 322.323 600.885 321.896C600.523 321.469 600.251 320.989 600.069 320.456C599.888 319.923 599.797 319.379 599.797 318.824V318.52C599.797 317.933 599.888 317.373 600.069 316.84C600.261 316.296 600.544 315.816 600.917 315.4C601.291 314.973 601.749 314.637 602.293 314.392C602.848 314.136 603.488 314.008 604.213 314.008C604.971 314.008 605.648 314.157 606.245 314.456C606.843 314.744 607.317 315.149 607.669 315.672C608.032 316.195 608.235 316.803 608.277 317.496H606.117C606.064 317.048 605.872 316.675 605.541 316.376C605.221 316.077 604.779 315.928 604.213 315.928C603.723 315.928 603.312 316.045 602.981 316.28C602.661 316.515 602.421 316.84 602.261 317.256C602.101 317.661 602.021 318.131 602.021 318.664C602.021 319.176 602.096 319.64 602.245 320.056C602.405 320.472 602.645 320.797 602.965 321.032C603.296 321.267 603.717 321.384 604.229 321.384C604.613 321.384 604.944 321.315 605.221 321.176C605.499 321.037 605.717 320.845 605.877 320.6C606.048 320.355 606.155 320.077 606.197 319.768H608.357C608.315 320.472 608.107 321.091 607.733 321.624C607.371 322.147 606.885 322.557 606.277 322.856C605.68 323.155 604.997 323.304 604.229 323.304ZM613.291 323.272C612.096 323.272 611.158 323.021 610.475 322.52C609.803 322.008 609.451 321.304 609.419 320.408H611.419C611.451 320.707 611.616 320.979 611.915 321.224C612.214 321.469 612.683 321.592 613.323 321.592C613.856 321.592 614.278 321.496 614.587 321.304C614.907 321.112 615.067 320.851 615.067 320.52C615.067 320.232 614.944 320.003 614.699 319.832C614.464 319.661 614.059 319.549 613.483 319.496L612.715 319.416C611.744 319.309 610.998 319.032 610.475 318.584C609.952 318.136 609.691 317.539 609.691 316.792C609.691 316.195 609.84 315.693 610.139 315.288C610.438 314.883 610.848 314.579 611.371 314.376C611.904 314.163 612.512 314.056 613.195 314.056C614.262 314.056 615.126 314.291 615.787 314.76C616.448 315.229 616.795 315.917 616.827 316.824H614.827C614.806 316.525 614.656 316.269 614.379 316.056C614.102 315.843 613.702 315.736 613.179 315.736C612.71 315.736 612.347 315.827 612.091 316.008C611.835 316.189 611.707 316.424 611.707 316.712C611.707 316.989 611.808 317.203 612.011 317.352C612.224 317.501 612.566 317.603 613.035 317.656L613.803 317.736C614.827 317.843 615.627 318.125 616.203 318.584C616.79 319.043 617.083 319.661 617.083 320.44C617.083 321.016 616.923 321.517 616.603 321.944C616.294 322.36 615.856 322.685 615.291 322.92C614.726 323.155 614.059 323.272 613.291 323.272Z" fill="white"/>
<rect x="306" y="242" width="96" height="96" rx="48" fill="#0B356E"/>
<path d="M342.401 296.304C341.366 296.304 340.491 296.139 339.777 295.808C339.073 295.477 338.534 295.024 338.161 294.448C337.787 293.861 337.601 293.2 337.601 292.464H339.825C339.825 292.773 339.91 293.077 340.081 293.376C340.251 293.664 340.523 293.899 340.897 294.08C341.281 294.261 341.782 294.352 342.401 294.352C342.955 294.352 343.419 294.272 343.793 294.112C344.166 293.952 344.443 293.744 344.625 293.488C344.806 293.221 344.897 292.923 344.897 292.592C344.897 292.176 344.721 291.845 344.369 291.6C344.017 291.344 343.473 291.184 342.737 291.12L341.713 291.04C340.593 290.944 339.697 290.597 339.025 290C338.363 289.392 338.033 288.592 338.033 287.6C338.033 286.853 338.209 286.213 338.561 285.68C338.913 285.136 339.403 284.72 340.033 284.432C340.673 284.133 341.419 283.984 342.273 283.984C343.158 283.984 343.921 284.139 344.561 284.448C345.201 284.757 345.697 285.195 346.049 285.76C346.401 286.315 346.577 286.971 346.577 287.728H344.353C344.353 287.408 344.273 287.115 344.113 286.848C343.963 286.571 343.734 286.352 343.425 286.192C343.126 286.021 342.742 285.936 342.273 285.936C341.825 285.936 341.451 286.011 341.153 286.16C340.854 286.309 340.63 286.512 340.481 286.768C340.331 287.024 340.257 287.301 340.257 287.6C340.257 287.963 340.39 288.283 340.657 288.56C340.923 288.827 341.345 288.981 341.921 289.024L342.945 289.12C343.777 289.184 344.507 289.36 345.137 289.648C345.766 289.936 346.251 290.325 346.593 290.816C346.945 291.307 347.121 291.899 347.121 292.592C347.121 293.328 346.929 293.979 346.545 294.544C346.161 295.099 345.611 295.531 344.897 295.84C344.193 296.149 343.361 296.304 342.401 296.304ZM349.198 296V284.32H351.422V296H349.198ZM351.102 296V294.08H356.398V296H351.102ZM351.102 291.024V289.104H355.982V291.024H351.102ZM351.102 286.24V284.32H356.27V286.24H351.102ZM364.108 296.304C363.052 296.304 362.134 296.117 361.356 295.744C360.588 295.371 359.948 294.885 359.436 294.288C358.934 293.68 358.556 293.029 358.3 292.336C358.054 291.632 357.932 290.955 357.932 290.304V289.952C357.932 289.237 358.06 288.528 358.316 287.824C358.572 287.109 358.956 286.464 359.468 285.888C359.99 285.312 360.636 284.853 361.404 284.512C362.172 284.16 363.073 283.984 364.108 283.984C365.132 283.984 366.028 284.16 366.796 284.512C367.564 284.853 368.204 285.312 368.716 285.888C369.238 286.464 369.628 287.109 369.884 287.824C370.14 288.528 370.268 289.237 370.268 289.952V290.304C370.268 290.955 370.14 291.632 369.884 292.336C369.638 293.029 369.26 293.68 368.748 294.288C368.246 294.885 367.606 295.371 366.828 295.744C366.06 296.117 365.153 296.304 364.108 296.304ZM364.108 294.192C364.705 294.192 365.238 294.085 365.708 293.872C366.188 293.659 366.593 293.365 366.924 292.992C367.265 292.608 367.521 292.176 367.692 291.696C367.873 291.205 367.964 290.688 367.964 290.144C367.964 289.557 367.873 289.019 367.692 288.528C367.521 288.037 367.265 287.611 366.924 287.248C366.593 286.885 366.188 286.603 365.708 286.4C365.228 286.197 364.694 286.096 364.108 286.096C363.51 286.096 362.972 286.197 362.492 286.4C362.012 286.603 361.601 286.885 361.26 287.248C360.929 287.611 360.673 288.037 360.492 288.528C360.321 289.019 360.236 289.557 360.236 290.144C360.236 290.688 360.321 291.205 360.492 291.696C360.673 292.176 360.929 292.608 361.26 292.992C361.601 293.365 362.012 293.659 362.492 293.872C362.972 294.085 363.51 294.192 364.108 294.192Z" fill="white"/>
<rect x="317" y="114" width="70" height="70" rx="35" fill="#020D1C"/>
<g clip-path="url(#clip0_2231_11396)">
<path d="M362.497 139.283C362.475 139.123 362.334 139.035 362.219 139.025C362.103 139.015 359.656 138.834 359.656 138.834C359.656 138.834 357.957 137.147 357.77 136.96C357.583 136.774 357.219 136.83 357.077 136.872C357.057 136.878 356.706 136.986 356.126 137.166C355.559 135.532 354.557 134.031 352.794 134.031C352.746 134.031 352.696 134.033 352.646 134.036C352.144 133.373 351.523 133.085 350.987 133.085C346.881 133.085 344.92 138.218 344.305 140.826C342.709 141.32 341.576 141.672 341.431 141.717C340.541 141.996 340.513 142.024 340.396 142.864C340.308 143.499 337.978 161.518 337.978 161.518L356.134 164.92L365.972 162.792C365.972 162.792 362.518 139.443 362.497 139.283ZM355.123 137.476L353.587 137.952C353.587 137.843 353.588 137.737 353.588 137.62C353.588 136.605 353.447 135.788 353.221 135.14C354.129 135.254 354.734 136.287 355.123 137.476ZM352.094 135.341C352.347 135.974 352.511 136.882 352.511 138.107C352.511 138.169 352.51 138.227 352.51 138.285C351.511 138.594 350.425 138.93 349.337 139.267C349.948 136.909 351.093 135.771 352.094 135.341ZM350.874 134.186C351.052 134.186 351.23 134.246 351.401 134.364C350.085 134.983 348.675 136.543 348.079 139.657L345.571 140.434C346.269 138.058 347.925 134.186 350.874 134.186Z" fill="#95BF46"/>
<path d="M362.218 139.025C362.103 139.016 359.656 138.834 359.656 138.834C359.656 138.834 357.956 137.147 357.77 136.96C357.7 136.891 357.606 136.855 357.508 136.84L356.135 164.92L365.972 162.792C365.972 162.792 362.518 139.443 362.496 139.283C362.474 139.123 362.334 139.035 362.218 139.025Z" fill="#5E8E3E"/>
<path d="M352.794 144.462L351.581 148.07C351.581 148.07 350.518 147.503 349.216 147.503C347.306 147.503 347.21 148.701 347.21 149.003C347.21 150.651 351.506 151.283 351.506 155.143C351.506 158.18 349.579 160.136 346.982 160.136C343.865 160.136 342.271 158.196 342.271 158.196L343.106 155.439C343.106 155.439 344.744 156.845 346.127 156.845C347.03 156.845 347.398 156.134 347.398 155.614C347.398 153.465 343.873 153.369 343.873 149.836C343.873 146.863 346.007 143.986 350.315 143.986C351.974 143.986 352.794 144.462 352.794 144.462Z" fill="white"/>
</g>
<rect x="422" y="239" width="70" height="70" rx="35" fill="#051A37"/>
<g clip-path="url(#clip1_2231_11396)">
<path d="M441 285.874C441 288.153 442.847 290 445.126 290H468.874C471.153 290 473 288.153 473 285.874V262.126C473 259.847 471.153 258 468.874 258H445.126C442.847 258 441 259.847 441 262.126V285.874Z" fill="#563D7C"/>
<path d="M454.27 272.155V267.623H458.259C458.639 267.623 459.005 267.655 459.358 267.718C459.711 267.781 460.023 267.894 460.294 268.057C460.566 268.22 460.783 268.446 460.946 268.736C461.108 269.025 461.19 269.396 461.19 269.848C461.19 270.662 460.946 271.25 460.457 271.612C459.969 271.974 459.345 272.155 458.585 272.155H454.27ZM450.01 264.312V283.688H459.399C460.267 283.688 461.113 283.579 461.936 283.362C462.759 283.145 463.492 282.81 464.134 282.358C464.776 281.906 465.287 281.322 465.667 280.608C466.047 279.893 466.237 279.047 466.237 278.07C466.237 276.858 465.943 275.823 465.355 274.963C464.767 274.104 463.876 273.502 462.682 273.159C463.551 272.743 464.206 272.209 464.65 271.558C465.093 270.906 465.314 270.093 465.314 269.116C465.314 268.211 465.165 267.451 464.867 266.836C464.568 266.221 464.148 265.728 463.605 265.357C463.062 264.986 462.411 264.719 461.651 264.557C460.891 264.394 460.05 264.312 459.127 264.312H450.01ZM454.27 280.377V275.058H458.91C459.833 275.058 460.575 275.271 461.136 275.696C461.696 276.121 461.977 276.831 461.977 277.826C461.977 278.333 461.891 278.749 461.719 279.074C461.547 279.4 461.316 279.658 461.027 279.848C460.738 280.038 460.403 280.173 460.023 280.255C459.643 280.336 459.245 280.377 458.829 280.377H454.27Z" fill="white"/>
</g>
<rect x="544" y="151" width="70" height="70" rx="35" fill="#051A37"/>
<g clip-path="url(#clip2_2231_11396)" filter="url(#filter0_d_2231_11396)">
<g clip-path="url(#clip3_2231_11396)">
<path d="M574.002 201C576.762 201 579.002 198.76 579.002 196V191H574.002C571.242 191 569.002 193.24 569.002 196C569.002 198.76 571.242 201 574.002 201Z" fill="#0ACF83"/>
<path d="M569.002 186C569.002 183.24 571.242 181 574.002 181H579.002V191H574.002C571.242 191 569.002 188.76 569.002 186Z" fill="#A259FF"/>
<path d="M569.002 176C569.002 173.24 571.242 171 574.002 171H579.002V181H574.002C571.242 181 569.002 178.76 569.002 176Z" fill="#F24E1E"/>
<path d="M579.002 171H584.002C586.762 171 589.002 173.24 589.002 176C589.002 178.76 586.762 181 584.002 181H579.002V171Z" fill="#FF7262"/>
<path d="M589.002 186C589.002 188.76 586.762 191 584.002 191C581.242 191 579.002 188.76 579.002 186C579.002 183.24 581.242 181 584.002 181C586.762 181 589.002 183.24 589.002 186Z" fill="#1ABCFE"/>
</g>
</g>
<rect x="584" y="404" width="70" height="70" rx="35" fill="#020D1C"/>
<path fill-rule="evenodd" clip-rule="evenodd" d="M618.998 423C609.942 423 602.596 430.344 602.596 439.406C602.596 446.652 607.295 452.8 613.814 454.97C614.634 455.121 614.934 454.614 614.934 454.18C614.934 453.79 614.919 452.759 614.91 451.389C610.348 452.381 609.384 449.191 609.384 449.191C608.64 447.296 607.564 446.791 607.564 446.791C606.074 445.773 607.677 445.794 607.677 445.794C609.323 445.91 610.189 447.484 610.189 447.484C611.653 449.992 614.029 449.268 614.964 448.848C615.112 447.786 615.536 447.064 616.004 446.654C612.362 446.24 608.533 444.833 608.533 438.546C608.533 436.756 609.172 435.291 610.222 434.145C610.052 433.73 609.489 432.064 610.382 429.805C610.382 429.805 611.76 429.364 614.894 431.486C616.202 431.123 617.605 430.941 619 430.935C620.394 430.941 621.797 431.123 623.107 431.487C626.239 429.365 627.613 429.806 627.613 429.806C628.509 432.064 627.946 433.731 627.777 434.147C628.829 435.294 629.463 436.758 629.463 438.548C629.463 444.85 625.627 446.238 621.974 446.643C622.562 447.15 623.086 448.15 623.086 449.681C623.086 451.874 623.067 453.644 623.067 454.182C623.067 454.619 623.363 455.13 624.195 454.97C630.708 452.795 635.404 446.649 635.404 439.405C635.404 430.345 628.059 423 618.998 423Z" fill="white"/>
<rect x="333" y="515" width="70" height="70" rx="35" fill="#0B356E"/>
<g clip-path="url(#clip4_2231_11396)" filter="url(#filter1_d_2231_11396)">
<g clip-path="url(#clip5_2231_11396)">
<path d="M363.002 565C365.762 565 368.002 562.76 368.002 560V555H363.002C360.242 555 358.002 557.24 358.002 560C358.002 562.76 360.242 565 363.002 565Z" fill="#0ACF83"/>
<path d="M358.002 550C358.002 547.24 360.242 545 363.002 545H368.002V555H363.002C360.242 555 358.002 552.76 358.002 550Z" fill="#A259FF"/>
<path d="M358.002 540C358.002 537.24 360.242 535 363.002 535H368.002V545H363.002C360.242 545 358.002 542.76 358.002 540Z" fill="#F24E1E"/>
<path d="M368.002 535H373.002C375.762 535 378.002 537.24 378.002 540C378.002 542.76 375.762 545 373.002 545H368.002V535Z" fill="#FF7262"/>
<path d="M378.002 550C378.002 552.76 375.762 555 373.002 555C370.242 555 368.002 552.76 368.002 550C368.002 547.24 370.242 545 373.002 545C375.762 545 378.002 547.24 378.002 550Z" fill="#1ABCFE"/>
</g>
</g>
<rect x="215" y="306" width="70" height="70" rx="35" fill="#051A37"/>
<g clip-path="url(#clip6_2231_11396)">
<path d="M249.792 344.134C251.383 344.134 252.672 342.845 252.672 341.254C252.672 339.663 251.383 338.374 249.792 338.374C248.202 338.374 246.912 339.663 246.912 341.254C246.912 342.845 248.202 344.134 249.792 344.134Z" fill="#00D8FF"/>
<path d="M250.112 347.325C246.678 347.406 243.253 346.953 239.964 345.98C238.444 345.508 237.027 344.764 235.784 343.787C235.31 343.453 234.915 343.022 234.626 342.524C234.338 342.026 234.162 341.473 234.112 340.903C234.112 339.051 236.188 337.236 239.664 336.048C243.041 334.996 246.569 334.486 250.112 334.538C253.608 334.49 257.089 334.991 260.423 336.021C261.886 336.478 263.255 337.186 264.467 338.112C264.933 338.43 265.322 338.845 265.606 339.328C265.891 339.81 266.063 340.348 266.112 340.903C266.112 342.828 263.792 344.778 260.055 345.99C256.83 346.931 253.477 347.381 250.112 347.325ZM250.112 335.878C246.723 335.833 243.348 336.318 240.113 337.314C236.913 338.409 235.479 339.906 235.479 340.899C235.479 341.939 237.021 343.574 240.406 344.709C243.552 345.634 246.828 346.065 250.112 345.985C253.331 346.041 256.54 345.614 259.627 344.719C263.141 343.577 264.741 341.94 264.741 340.903C264.683 340.547 264.551 340.206 264.352 339.903C264.154 339.6 263.893 339.34 263.587 339.14C262.503 338.319 261.28 337.692 259.974 337.287C256.784 336.306 253.455 335.83 250.112 335.878Z" fill="#00D8FF"/>
<path d="M243.24 355.013C242.701 355.025 242.168 354.897 241.696 354.642C240.04 353.708 239.467 351.014 240.161 347.435C240.928 344.01 242.255 340.728 244.092 337.718C245.815 334.698 248.022 331.966 250.627 329.628C251.775 328.604 253.1 327.788 254.539 327.216C255.06 326.977 255.628 326.854 256.202 326.854C256.777 326.854 257.345 326.977 257.866 327.216C259.587 328.186 260.157 331.158 259.354 334.972C258.564 338.212 257.271 341.313 255.52 344.169C253.858 347.154 251.721 349.861 249.19 352.19C248 353.254 246.619 354.093 245.117 354.666C244.516 354.884 243.881 355.001 243.24 355.013ZM245.29 338.39C243.537 341.272 242.265 344.41 241.521 347.684C240.882 350.98 241.496 352.963 242.388 353.467C243.313 353.99 245.558 353.494 248.284 351.165C250.7 348.933 252.739 346.342 254.326 343.486C256.004 340.756 257.244 337.79 258.004 334.693C258.76 331.103 258.106 328.904 257.179 328.382C256.832 328.252 256.46 328.193 256.089 328.211C255.717 328.228 255.353 328.32 255.02 328.482C253.739 329 252.561 329.734 251.54 330.651C249.051 332.891 246.944 335.506 245.298 338.396L245.29 338.39Z" fill="#00D8FF"/>
<path d="M256.321 355.653C254.757 355.653 252.771 354.704 250.704 352.92C248.057 350.504 245.818 347.675 244.072 344.543C242.261 341.503 240.946 338.193 240.178 334.737C239.845 333.217 239.783 331.649 239.996 330.107C240.045 329.535 240.219 328.981 240.504 328.483C240.79 327.986 241.182 327.558 241.651 327.228C243.367 326.232 246.278 327.256 249.249 329.902C251.72 332.243 253.817 334.95 255.469 337.929C257.279 340.897 258.607 344.135 259.404 347.521C259.752 349.097 259.806 350.724 259.563 352.32C259.505 352.909 259.321 353.478 259.023 353.988C258.726 354.499 258.321 354.939 257.839 355.278C257.375 355.535 256.851 355.665 256.321 355.653ZM245.266 343.846C246.941 346.84 249.08 349.547 251.604 351.866C254.199 354.106 256.258 354.588 257.143 354.066C258.066 353.527 258.747 351.33 258.045 347.776C257.276 344.543 256.002 341.452 254.27 338.618C252.694 335.768 250.692 333.176 248.333 330.932C245.536 328.441 243.267 327.885 242.343 328.422C242.055 328.657 241.818 328.949 241.649 329.28C241.479 329.611 241.379 329.974 241.356 330.346C241.173 331.721 241.233 333.118 241.533 334.472C242.272 337.777 243.532 340.942 245.267 343.848L245.266 343.846Z" fill="#00D8FF"/>
</g>
<rect x="379" y="353" width="154" height="154" rx="77" fill="#166ADB"/>
<path d="M425.141 425L422.165 413.32H424.517L426.933 423.48L426.309 423.112H427.909L427.205 423.48L429.109 413.768H431.061L428.693 425H425.141ZM432.117 425L429.541 413.768H431.573L433.765 423.48L433.077 423.112H434.645L434.037 423.48L436.165 413.32H438.389L435.733 425H432.117ZM443.511 425.304C442.765 425.304 442.109 425.176 441.543 424.92C440.989 424.664 440.525 424.323 440.151 423.896C439.789 423.459 439.511 422.973 439.319 422.44C439.138 421.907 439.047 421.363 439.047 420.808V420.504C439.047 419.928 439.138 419.373 439.319 418.84C439.511 418.296 439.789 417.816 440.151 417.4C440.525 416.973 440.983 416.637 441.527 416.392C442.071 416.136 442.701 416.008 443.415 416.008C444.354 416.008 445.138 416.216 445.767 416.632C446.407 417.037 446.887 417.576 447.207 418.248C447.527 418.909 447.687 419.624 447.687 420.392V421.192H439.991V419.832H446.295L445.607 420.504C445.607 419.949 445.527 419.475 445.367 419.08C445.207 418.685 444.962 418.381 444.631 418.168C444.311 417.955 443.906 417.848 443.415 417.848C442.925 417.848 442.509 417.96 442.167 418.184C441.826 418.408 441.565 418.733 441.383 419.16C441.213 419.576 441.127 420.077 441.127 420.664C441.127 421.208 441.213 421.693 441.383 422.12C441.554 422.536 441.815 422.867 442.167 423.112C442.519 423.347 442.967 423.464 443.511 423.464C444.055 423.464 444.498 423.357 444.839 423.144C445.181 422.92 445.399 422.648 445.495 422.328H447.543C447.415 422.925 447.17 423.448 446.807 423.896C446.445 424.344 445.981 424.691 445.415 424.936C444.861 425.181 444.226 425.304 443.511 425.304ZM454.649 425.288C453.935 425.288 453.305 425.139 452.761 424.84C452.217 424.531 451.791 424.083 451.481 423.496C451.172 422.909 451.001 422.2 450.969 421.368H451.305V425H449.545V413.32H451.769V419.16L451.177 420.072C451.22 419.176 451.396 418.429 451.705 417.832C452.025 417.235 452.452 416.787 452.985 416.488C453.519 416.189 454.121 416.04 454.793 416.04C455.391 416.04 455.935 416.152 456.425 416.376C456.916 416.6 457.337 416.915 457.689 417.32C458.041 417.715 458.308 418.179 458.489 418.712C458.681 419.245 458.777 419.827 458.777 420.456V420.792C458.777 421.421 458.681 422.008 458.489 422.552C458.297 423.096 458.02 423.576 457.657 423.992C457.295 424.397 456.857 424.717 456.345 424.952C455.844 425.176 455.279 425.288 454.649 425.288ZM454.153 423.416C454.633 423.416 455.049 423.299 455.401 423.064C455.764 422.819 456.047 422.488 456.249 422.072C456.452 421.656 456.553 421.176 456.553 420.632C456.553 420.077 456.452 419.597 456.249 419.192C456.047 418.787 455.764 418.472 455.401 418.248C455.049 418.024 454.633 417.912 454.153 417.912C453.716 417.912 453.311 418.008 452.937 418.2C452.575 418.392 452.276 418.675 452.041 419.048C451.817 419.421 451.705 419.869 451.705 420.392V421.032C451.705 421.533 451.823 421.96 452.057 422.312C452.292 422.664 452.596 422.936 452.969 423.128C453.343 423.32 453.737 423.416 454.153 423.416ZM463.885 425.272C462.69 425.272 461.751 425.021 461.069 424.52C460.397 424.008 460.045 423.304 460.013 422.408H462.013C462.045 422.707 462.21 422.979 462.509 423.224C462.807 423.469 463.277 423.592 463.917 423.592C464.45 423.592 464.871 423.496 465.181 423.304C465.501 423.112 465.661 422.851 465.661 422.52C465.661 422.232 465.538 422.003 465.293 421.832C465.058 421.661 464.653 421.549 464.077 421.496L463.309 421.416C462.338 421.309 461.591 421.032 461.069 420.584C460.546 420.136 460.285 419.539 460.285 418.792C460.285 418.195 460.434 417.693 460.733 417.288C461.031 416.883 461.442 416.579 461.965 416.376C462.498 416.163 463.106 416.056 463.789 416.056C464.855 416.056 465.719 416.291 466.381 416.76C467.042 417.229 467.389 417.917 467.421 418.824H465.421C465.399 418.525 465.25 418.269 464.973 418.056C464.695 417.843 464.295 417.736 463.773 417.736C463.303 417.736 462.941 417.827 462.685 418.008C462.429 418.189 462.301 418.424 462.301 418.712C462.301 418.989 462.402 419.203 462.605 419.352C462.818 419.501 463.159 419.603 463.629 419.656L464.397 419.736C465.421 419.843 466.221 420.125 466.797 420.584C467.383 421.043 467.677 421.661 467.677 422.44C467.677 423.016 467.517 423.517 467.197 423.944C466.887 424.36 466.45 424.685 465.885 424.92C465.319 425.155 464.653 425.272 463.885 425.272ZM469.93 425V416.312H472.154V425H469.93ZM468.714 417.976V416.312H472.154V417.976H468.714ZM470.746 415.272C470.309 415.272 469.983 415.16 469.77 414.936C469.567 414.701 469.466 414.413 469.466 414.072C469.466 413.709 469.567 413.416 469.77 413.192C469.983 412.968 470.309 412.856 470.746 412.856C471.183 412.856 471.503 412.968 471.706 413.192C471.909 413.416 472.01 413.709 472.01 414.072C472.01 414.413 471.909 414.701 471.706 414.936C471.503 415.16 471.183 415.272 470.746 415.272ZM478.493 425.112C477.693 425.112 477.032 425.011 476.509 424.808C475.997 424.595 475.613 424.243 475.357 423.752C475.101 423.251 474.973 422.579 474.973 421.736L474.989 413.864H477.069L477.053 421.88C477.053 422.307 477.165 422.637 477.389 422.872C477.624 423.096 477.954 423.208 478.381 423.208H479.741V425.112H478.493ZM473.597 417.944V416.312H479.741V417.944H473.597ZM485.449 425.304C484.702 425.304 484.046 425.176 483.481 424.92C482.926 424.664 482.462 424.323 482.089 423.896C481.726 423.459 481.449 422.973 481.257 422.44C481.076 421.907 480.985 421.363 480.985 420.808V420.504C480.985 419.928 481.076 419.373 481.257 418.84C481.449 418.296 481.726 417.816 482.089 417.4C482.462 416.973 482.921 416.637 483.465 416.392C484.009 416.136 484.638 416.008 485.353 416.008C486.292 416.008 487.076 416.216 487.705 416.632C488.345 417.037 488.825 417.576 489.145 418.248C489.465 418.909 489.625 419.624 489.625 420.392V421.192H481.929V419.832H488.233L487.545 420.504C487.545 419.949 487.465 419.475 487.305 419.08C487.145 418.685 486.9 418.381 486.569 418.168C486.249 417.955 485.844 417.848 485.353 417.848C484.862 417.848 484.446 417.96 484.105 418.184C483.764 418.408 483.502 418.733 483.321 419.16C483.15 419.576 483.065 420.077 483.065 420.664C483.065 421.208 483.15 421.693 483.321 422.12C483.492 422.536 483.753 422.867 484.105 423.112C484.457 423.347 484.905 423.464 485.449 423.464C485.993 423.464 486.436 423.357 486.777 423.144C487.118 422.92 487.337 422.648 487.433 422.328H489.481C489.353 422.925 489.108 423.448 488.745 423.896C488.382 424.344 487.918 424.691 487.353 424.936C486.798 425.181 486.164 425.304 485.449 425.304ZM403.775 447.064V444.952H406.191C406.799 444.952 407.337 444.861 407.807 444.68C408.287 444.488 408.692 444.221 409.023 443.88C409.353 443.539 409.604 443.139 409.775 442.68C409.956 442.211 410.047 441.693 410.047 441.128C410.047 440.541 409.956 440.019 409.775 439.56C409.604 439.091 409.353 438.691 409.023 438.36C408.692 438.029 408.287 437.779 407.807 437.608C407.337 437.437 406.799 437.352 406.191 437.352H403.775V435.24H406.047C407.103 435.24 408.025 435.395 408.815 435.704C409.604 436.013 410.26 436.44 410.783 436.984C411.305 437.517 411.695 438.131 411.951 438.824C412.217 439.507 412.351 440.216 412.351 440.952V441.304C412.351 442.008 412.217 442.701 411.951 443.384C411.695 444.067 411.305 444.685 410.783 445.24C410.26 445.795 409.604 446.237 408.815 446.568C408.025 446.899 407.103 447.064 406.047 447.064H403.775ZM401.823 447.064V435.24H404.095V447.064H401.823ZM418.097 447.304C417.351 447.304 416.695 447.176 416.129 446.92C415.575 446.664 415.111 446.323 414.737 445.896C414.375 445.459 414.097 444.973 413.905 444.44C413.724 443.907 413.633 443.363 413.633 442.808V442.504C413.633 441.928 413.724 441.373 413.905 440.84C414.097 440.296 414.375 439.816 414.737 439.4C415.111 438.973 415.569 438.637 416.113 438.392C416.657 438.136 417.287 438.008 418.001 438.008C418.94 438.008 419.724 438.216 420.353 438.632C420.993 439.037 421.473 439.576 421.793 440.248C422.113 440.909 422.273 441.624 422.273 442.392V443.192H414.577V441.832H420.881L420.193 442.504C420.193 441.949 420.113 441.475 419.953 441.08C419.793 440.685 419.548 440.381 419.217 440.168C418.897 439.955 418.492 439.848 418.001 439.848C417.511 439.848 417.095 439.96 416.753 440.184C416.412 440.408 416.151 440.733 415.969 441.16C415.799 441.576 415.713 442.077 415.713 442.664C415.713 443.208 415.799 443.693 415.969 444.12C416.14 444.536 416.401 444.867 416.753 445.112C417.105 445.347 417.553 445.464 418.097 445.464C418.641 445.464 419.084 445.357 419.425 445.144C419.767 444.92 419.985 444.648 420.081 444.328H422.129C422.001 444.925 421.756 445.448 421.393 445.896C421.031 446.344 420.567 446.691 420.001 446.936C419.447 447.181 418.812 447.304 418.097 447.304ZM425.797 447L423.077 438.312H425.365L427.973 447H425.797ZM426.453 447V445.176H428.805V447H426.453ZM427.333 447L429.573 438.312H431.717L429.365 447H427.333ZM437.097 447.304C436.351 447.304 435.695 447.176 435.129 446.92C434.575 446.664 434.111 446.323 433.737 445.896C433.375 445.459 433.097 444.973 432.905 444.44C432.724 443.907 432.633 443.363 432.633 442.808V442.504C432.633 441.928 432.724 441.373 432.905 440.84C433.097 440.296 433.375 439.816 433.737 439.4C434.111 438.973 434.569 438.637 435.113 438.392C435.657 438.136 436.287 438.008 437.001 438.008C437.94 438.008 438.724 438.216 439.353 438.632C439.993 439.037 440.473 439.576 440.793 440.248C441.113 440.909 441.273 441.624 441.273 442.392V443.192H433.577V441.832H439.881L439.193 442.504C439.193 441.949 439.113 441.475 438.953 441.08C438.793 440.685 438.548 440.381 438.217 440.168C437.897 439.955 437.492 439.848 437.001 439.848C436.511 439.848 436.095 439.96 435.753 440.184C435.412 440.408 435.151 440.733 434.969 441.16C434.799 441.576 434.713 442.077 434.713 442.664C434.713 443.208 434.799 443.693 434.969 444.12C435.14 444.536 435.401 444.867 435.753 445.112C436.105 445.347 436.553 445.464 437.097 445.464C437.641 445.464 438.084 445.357 438.425 445.144C438.767 444.92 438.985 444.648 439.081 444.328H441.129C441.001 444.925 440.756 445.448 440.393 445.896C440.031 446.344 439.567 446.691 439.001 446.936C438.447 447.181 437.812 447.304 437.097 447.304ZM443.243 447V435.32H445.467V447H443.243ZM442.155 436.984V435.32H445.467V436.984H442.155ZM452.182 447.304C451.414 447.304 450.737 447.181 450.15 446.936C449.564 446.691 449.068 446.36 448.662 445.944C448.257 445.517 447.948 445.037 447.734 444.504C447.532 443.971 447.43 443.416 447.43 442.84V442.504C447.43 441.907 447.537 441.341 447.75 440.808C447.974 440.264 448.289 439.784 448.694 439.368C449.11 438.941 449.612 438.611 450.198 438.376C450.785 438.131 451.446 438.008 452.182 438.008C452.918 438.008 453.58 438.131 454.166 438.376C454.753 438.611 455.249 438.941 455.654 439.368C456.07 439.784 456.385 440.264 456.598 440.808C456.812 441.341 456.918 441.907 456.918 442.504V442.84C456.918 443.416 456.812 443.971 456.598 444.504C456.396 445.037 456.092 445.517 455.686 445.944C455.281 446.36 454.785 446.691 454.198 446.936C453.612 447.181 452.94 447.304 452.182 447.304ZM452.182 445.4C452.726 445.4 453.185 445.283 453.558 445.048C453.932 444.803 454.214 444.477 454.406 444.072C454.598 443.656 454.694 443.187 454.694 442.664C454.694 442.131 454.593 441.661 454.39 441.256C454.198 440.84 453.91 440.515 453.526 440.28C453.153 440.035 452.705 439.912 452.182 439.912C451.66 439.912 451.206 440.035 450.822 440.28C450.449 440.515 450.161 440.84 449.958 441.256C449.756 441.661 449.654 442.131 449.654 442.664C449.654 443.187 449.75 443.656 449.942 444.072C450.145 444.477 450.433 444.803 450.806 445.048C451.18 445.283 451.638 445.4 452.182 445.4ZM458.866 450.2V438.312H460.626V442.056L460.354 442.04C460.396 441.155 460.578 440.413 460.898 439.816C461.228 439.219 461.666 438.776 462.21 438.488C462.754 438.189 463.362 438.04 464.034 438.04C464.652 438.04 465.207 438.152 465.698 438.376C466.199 438.6 466.626 438.915 466.978 439.32C467.34 439.725 467.618 440.2 467.81 440.744C468.002 441.277 468.098 441.853 468.098 442.472V442.808C468.098 443.437 468.002 444.024 467.81 444.568C467.628 445.101 467.356 445.576 466.994 445.992C466.642 446.397 466.215 446.717 465.714 446.952C465.212 447.176 464.652 447.288 464.034 447.288C463.383 447.288 462.786 447.155 462.242 446.888C461.708 446.611 461.276 446.189 460.946 445.624C460.615 445.048 460.428 444.307 460.386 443.4L461.09 444.472V450.2H458.866ZM463.474 445.416C463.954 445.416 464.37 445.299 464.722 445.064C465.084 444.829 465.367 444.504 465.57 444.088C465.772 443.661 465.874 443.181 465.874 442.648C465.874 442.093 465.772 441.613 465.57 441.208C465.367 440.803 465.084 440.488 464.722 440.264C464.37 440.029 463.954 439.912 463.474 439.912C463.036 439.912 462.631 440.008 462.258 440.2C461.895 440.392 461.596 440.675 461.362 441.048C461.138 441.421 461.026 441.869 461.026 442.392V443.032C461.026 443.533 461.143 443.96 461.378 444.312C461.612 444.664 461.916 444.936 462.29 445.128C462.663 445.32 463.058 445.416 463.474 445.416ZM470.053 447V438.312H471.813V442.04H471.653C471.653 441.165 471.765 440.435 471.989 439.848C472.213 439.251 472.544 438.803 472.981 438.504C473.429 438.195 473.984 438.04 474.645 438.04H474.741C475.413 438.04 475.968 438.195 476.405 438.504C476.853 438.803 477.184 439.251 477.397 439.848C477.621 440.435 477.733 441.165 477.733 442.04H477.173C477.173 441.165 477.285 440.435 477.509 439.848C477.744 439.251 478.08 438.803 478.517 438.504C478.965 438.195 479.52 438.04 480.181 438.04H480.277C480.949 438.04 481.509 438.195 481.957 438.504C482.405 438.803 482.741 439.251 482.965 439.848C483.2 440.435 483.317 441.165 483.317 442.04V447H481.093V441.832C481.093 441.288 480.954 440.856 480.677 440.536C480.4 440.205 480.005 440.04 479.493 440.04C478.981 440.04 478.57 440.211 478.261 440.552C477.952 440.883 477.797 441.331 477.797 441.896V447H475.573V441.832C475.573 441.288 475.434 440.856 475.157 440.536C474.88 440.205 474.485 440.04 473.973 440.04C473.461 440.04 473.05 440.211 472.741 440.552C472.432 440.883 472.277 441.331 472.277 441.896V447H470.053ZM489.582 447.304C488.835 447.304 488.179 447.176 487.614 446.92C487.059 446.664 486.595 446.323 486.222 445.896C485.859 445.459 485.582 444.973 485.39 444.44C485.208 443.907 485.118 443.363 485.118 442.808V442.504C485.118 441.928 485.208 441.373 485.39 440.84C485.582 440.296 485.859 439.816 486.222 439.4C486.595 438.973 487.054 438.637 487.598 438.392C488.142 438.136 488.771 438.008 489.486 438.008C490.424 438.008 491.208 438.216 491.838 438.632C492.478 439.037 492.958 439.576 493.278 440.248C493.598 440.909 493.758 441.624 493.758 442.392V443.192H486.062V441.832H492.366L491.678 442.504C491.678 441.949 491.598 441.475 491.438 441.08C491.278 440.685 491.032 440.381 490.702 440.168C490.382 439.955 489.976 439.848 489.486 439.848C488.995 439.848 488.579 439.96 488.238 440.184C487.896 440.408 487.635 440.733 487.454 441.16C487.283 441.576 487.198 442.077 487.198 442.664C487.198 443.208 487.283 443.693 487.454 444.12C487.624 444.536 487.886 444.867 488.238 445.112C488.59 445.347 489.038 445.464 489.582 445.464C490.126 445.464 490.568 445.357 490.91 445.144C491.251 444.92 491.47 444.648 491.566 444.328H493.614C493.486 444.925 493.24 445.448 492.878 445.896C492.515 446.344 492.051 446.691 491.486 446.936C490.931 447.181 490.296 447.304 489.582 447.304ZM495.616 447V438.312H497.376V442.04H497.216C497.216 441.155 497.333 440.419 497.568 439.832C497.802 439.235 498.149 438.787 498.608 438.488C499.077 438.189 499.658 438.04 500.352 438.04H500.448C501.482 438.04 502.266 438.376 502.8 439.048C503.333 439.709 503.6 440.701 503.6 442.024V447H501.376V441.832C501.376 441.299 501.221 440.867 500.912 440.536C500.613 440.205 500.197 440.04 499.664 440.04C499.12 440.04 498.677 440.211 498.336 440.552C498.005 440.883 497.84 441.331 497.84 441.896V447H495.616ZM509.767 447.112C508.967 447.112 508.305 447.011 507.783 446.808C507.271 446.595 506.887 446.243 506.631 445.752C506.375 445.251 506.247 444.579 506.247 443.736L506.263 435.864H508.343L508.327 443.88C508.327 444.307 508.439 444.637 508.663 444.872C508.897 445.096 509.228 445.208 509.655 445.208H511.015V447.112H509.767ZM504.871 439.944V438.312H511.015V439.944H504.871Z" fill="white"/>
<rect x="77" y="229" width="70" height="70" rx="35" fill="#020D1C"/>
<g clip-path="url(#clip7_2231_11396)">
<path d="M101.404 248.003H122.596C125.809 248.003 128.407 250.601 128.407 253.814V274.186C128.407 277.399 125.809 279.996 122.596 279.996H101.404C98.1905 279.996 95.5928 277.399 95.5928 274.186V253.814C95.5928 250.601 98.1905 248.003 101.404 248.003Z" fill="#001E36"/>
<path d="M102.976 270.44V256.371C102.976 256.275 103.017 256.221 103.112 256.221C103.345 256.221 103.563 256.221 103.878 256.207C104.206 256.193 104.548 256.193 104.917 256.18C105.286 256.166 105.683 256.166 106.107 256.152C106.53 256.139 106.941 256.139 107.351 256.139C108.472 256.139 109.402 256.275 110.167 256.563C110.851 256.795 111.48 257.178 111.999 257.684C112.437 258.121 112.779 258.654 112.997 259.242C113.203 259.817 113.312 260.404 113.312 261.02C113.312 262.196 113.038 263.166 112.492 263.932C111.945 264.698 111.179 265.272 110.29 265.6C109.361 265.942 108.335 266.065 107.214 266.065C106.886 266.065 106.667 266.065 106.53 266.051C106.394 266.037 106.202 266.037 105.942 266.037V270.426C105.956 270.522 105.888 270.604 105.792 270.618H103.14C103.03 270.618 102.976 270.563 102.976 270.44ZM105.956 258.859V263.453C106.148 263.467 106.325 263.481 106.489 263.481H107.214C107.747 263.481 108.28 263.399 108.786 263.235C109.224 263.112 109.607 262.852 109.907 262.51C110.195 262.168 110.331 261.703 110.331 261.102C110.345 260.678 110.236 260.254 110.017 259.885C109.784 259.529 109.456 259.256 109.06 259.106C108.554 258.9 108.007 258.818 107.446 258.832C107.091 258.832 106.777 258.832 106.517 258.846C106.243 258.832 106.052 258.846 105.956 258.859ZM121.844 262.619C121.433 262.401 120.996 262.25 120.531 262.155C120.025 262.045 119.519 261.977 119 261.977C118.726 261.963 118.439 262.004 118.179 262.072C118.002 262.114 117.851 262.209 117.755 262.346C117.687 262.455 117.646 262.592 117.646 262.715C117.646 262.838 117.701 262.961 117.783 263.071C117.906 263.221 118.07 263.344 118.248 263.44C118.562 263.604 118.89 263.754 119.218 263.891C119.957 264.137 120.668 264.479 121.324 264.889C121.775 265.176 122.144 265.559 122.404 266.024C122.623 266.461 122.732 266.94 122.719 267.432C122.732 268.075 122.541 268.717 122.185 269.251C121.802 269.797 121.269 270.221 120.654 270.467C119.984 270.754 119.164 270.905 118.179 270.905C117.55 270.905 116.935 270.85 116.32 270.727C115.841 270.645 115.363 270.495 114.925 270.29C114.83 270.235 114.761 270.139 114.775 270.03V267.651C114.775 267.61 114.789 267.555 114.83 267.528C114.871 267.5 114.912 267.514 114.953 267.541C115.486 267.856 116.046 268.075 116.648 268.211C117.168 268.348 117.714 268.416 118.261 268.416C118.781 268.416 119.15 268.348 119.396 268.225C119.615 268.129 119.765 267.897 119.765 267.651C119.765 267.459 119.656 267.282 119.437 267.104C119.218 266.926 118.767 266.721 118.097 266.461C117.4 266.215 116.757 265.887 116.156 265.477C115.732 265.176 115.376 264.78 115.117 264.315C114.898 263.877 114.789 263.399 114.802 262.92C114.802 262.332 114.966 261.772 115.267 261.266C115.609 260.719 116.115 260.281 116.703 260.008C117.345 259.68 118.152 259.529 119.123 259.529C119.683 259.529 120.258 259.57 120.818 259.652C121.228 259.707 121.625 259.817 121.994 259.967C122.049 259.981 122.103 260.035 122.131 260.09C122.144 260.145 122.158 260.199 122.158 260.254V262.483C122.158 262.537 122.131 262.592 122.09 262.619C121.967 262.647 121.898 262.647 121.844 262.619Z" fill="#31A8FF"/>
</g>
<defs>
<filter id="filter0_d_2231_11396" x="561.6" y="171" width="34.8" height="34.8" filterUnits="userSpaceOnUse" color-interpolation-filters="sRGB">
<feFlood flood-opacity="0" result="BackgroundImageFix"/>
<feColorMatrix in="SourceAlpha" type="matrix" values="0 0 0 0 0 0 0 0 0 0 0 0 0 0 0 0 0 0 127 0" result="hardAlpha"/>
<feOffset dy="2.4"/>
<feGaussianBlur stdDeviation="1.2"/>
<feComposite in2="hardAlpha" operator="out"/>
<feColorMatrix type="matrix" values="0 0 0 0 0 0 0 0 0 0 0 0 0 0 0 0 0 0 0.25 0"/>
<feBlend mode="normal" in2="BackgroundImageFix" result="effect1_dropShadow_2231_11396"/>
<feBlend mode="normal" in="SourceGraphic" in2="effect1_dropShadow_2231_11396" result="shape"/>
</filter>
<filter id="filter1_d_2231_11396" x="350.6" y="535" width="34.8" height="34.8" filterUnits="userSpaceOnUse" color-interpolation-filters="sRGB">
<feFlood flood-opacity="0" result="BackgroundImageFix"/>
<feColorMatrix in="SourceAlpha" type="matrix" values="0 0 0 0 0 0 0 0 0 0 0 0 0 0 0 0 0 0 127 0" result="hardAlpha"/>
<feOffset dy="2.4"/>
<feGaussianBlur stdDeviation="1.2"/>
<feComposite in2="hardAlpha" operator="out"/>
<feColorMatrix type="matrix" values="0 0 0 0 0 0 0 0 0 0 0 0 0 0 0 0 0 0 0.25 0"/>
<feBlend mode="normal" in2="BackgroundImageFix" result="effect1_dropShadow_2231_11396"/>
<feBlend mode="normal" in="SourceGraphic" in2="effect1_dropShadow_2231_11396" result="shape"/>
</filter>
<clipPath id="clip0_2231_11396">
<rect width="28.0576" height="32" fill="white" transform="translate(337.972 133)"/>
</clipPath>
<clipPath id="clip1_2231_11396">
<rect width="32" height="32" fill="white" transform="translate(441 258)"/>
</clipPath>
<clipPath id="clip2_2231_11396">
<rect width="30" height="30" fill="white" transform="translate(564 171)"/>
</clipPath>
<clipPath id="clip3_2231_11396">
<rect width="20" height="30" fill="white" transform="translate(569.001 171)"/>
</clipPath>
<clipPath id="clip4_2231_11396">
<rect width="30" height="30" fill="white" transform="translate(353 535)"/>
</clipPath>
<clipPath id="clip5_2231_11396">
<rect width="20" height="30" fill="white" transform="translate(358.001 535)"/>
</clipPath>
<clipPath id="clip6_2231_11396">
<rect width="32" height="32" fill="white" transform="translate(234 325)"/>
</clipPath>
<clipPath id="clip7_2231_11396">
<rect width="32.8138" height="32" fill="white" transform="translate(95.5928 248)"/>
</clipPath>
</defs>
</svg>
