<svg width="150" height="150" viewBox="0 0 150 150" fill="none" xmlns="http://www.w3.org/2000/svg">
<circle cx="75" cy="75" r="75" fill="#001838"/>
<circle cx="75" cy="75" r="53.75" fill="#04234D"/>
<circle cx="75" cy="75" r="28.75" fill="white"/>
<path d="M65.542 86.57C63.802 86.57 62.312 86.29 61.072 85.73C59.832 85.15 58.822 84.37 58.042 83.39C57.282 82.41 56.712 81.28 56.332 80C55.972 78.7 55.792 77.33 55.792 75.89V74.18C55.792 72.18 56.142 70.37 56.842 68.75C57.542 67.13 58.612 65.84 60.052 64.88C61.492 63.92 63.322 63.44 65.542 63.44C67.762 63.44 69.582 63.92 71.002 64.88C72.442 65.84 73.512 67.13 74.212 68.75C74.912 70.37 75.262 72.18 75.262 74.18V75.89C75.262 77.33 75.072 78.7 74.692 80C74.332 81.28 73.762 82.41 72.982 83.39C72.222 84.37 71.222 85.15 69.982 85.73C68.762 86.29 67.282 86.57 65.542 86.57ZM65.542 82.04C67.162 82.04 68.362 81.48 69.142 80.36C69.942 79.22 70.342 77.46 70.342 75.08C70.342 72.56 69.932 70.75 69.112 69.65C68.312 68.53 67.122 67.97 65.542 67.97C63.922 67.97 62.712 68.53 61.912 69.65C61.112 70.75 60.712 72.54 60.712 75.02C60.712 77.42 61.102 79.19 61.882 80.33C62.682 81.47 63.902 82.04 65.542 82.04ZM78.7629 86V81.5C78.7629 80.56 78.9129 79.74 79.2129 79.04C79.5329 78.34 80.0329 77.72 80.7129 77.18C81.3929 76.62 82.2929 76.1 83.4129 75.62L86.9529 74.09C87.8529 73.71 88.5129 73.24 88.9329 72.68C89.3729 72.12 89.5929 71.41 89.5929 70.55C89.5929 69.67 89.3229 68.95 88.7829 68.39C88.2429 67.83 87.4529 67.55 86.4129 67.55C85.3729 67.55 84.5829 67.84 84.0429 68.42C83.5029 69 83.2329 69.78 83.2329 70.76H78.4629C78.4629 69.38 78.7629 68.14 79.3629 67.04C79.9629 65.92 80.8529 65.04 82.0329 64.4C83.2129 63.76 84.6729 63.44 86.4129 63.44C88.1529 63.44 89.6029 63.75 90.7629 64.37C91.9429 64.99 92.8329 65.82 93.4329 66.86C94.0529 67.9 94.3629 69.07 94.3629 70.37V70.73C94.3629 72.41 93.9029 73.8 92.9829 74.9C92.0629 75.98 90.6429 76.94 88.7229 77.78L85.2129 79.31C84.6129 79.57 84.1829 79.84 83.9229 80.12C83.6829 80.4 83.5629 80.78 83.5629 81.26V82.76L82.3929 81.77H94.3929V86H78.7629Z" fill="black"/>
</svg>
