<svg width="45" height="32" viewBox="0 0 45 32" fill="none" xmlns="http://www.w3.org/2000/svg">
<g opacity="0.8">
<path d="M4.91797 19.0199L4.93559 21.1893C4.93666 21.2438 4.9639 21.271 5.01731 21.271L39.827 21.2806C39.8857 21.2806 39.9156 21.2512 39.9167 21.1925L39.9375 18.9846" stroke="#919191" stroke-width="1.62669"/>
<path d="M38.9193 15.1922L37.6855 15.1794" stroke="#F7988E" stroke-width="1.62669"/>
<path d="M6.99966 15.181C6.61727 15.1116 6.2541 15.1196 5.91016 15.205" stroke="#F7988E" stroke-width="1.62669"/>
<path d="M39.9375 18.9846L39.9327 15.6168C39.9327 15.5602 39.905 15.5319 39.8494 15.5319L5.00769 15.5351C4.95856 15.5351 4.93399 15.5596 4.93399 15.6088L4.91797 19.0199" stroke="#898989" stroke-width="1.62669"/>
<path d="M37.6836 15.1794C37.6408 15.6739 37.51 15.667 37.291 15.1586" stroke="#F7F7F7" stroke-width="1.62669"/>
<path d="M7.3653 15.1554C7.4123 15.3263 7.37225 15.4187 7.24514 15.4325C7.18853 15.439 7.14527 15.4181 7.11536 15.3701L7 15.181" stroke="#F7F7F7" stroke-width="1.62669"/>
<path d="M38.5645 23.426L41.9131 23.41C41.9825 23.41 41.9996 23.38 41.9643 23.3202L40.8893 21.4889C40.8594 21.4366 40.8588 21.3837 40.8877 21.3303L41.99 19.3564C42.0252 19.2923 42.006 19.2602 41.9323 19.2602L40.4006 19.2618C40.344 19.2618 40.3157 19.2901 40.3157 19.3467V21.553C40.3157 21.6149 40.2847 21.6454 40.2227 21.6443L38.9137 21.6315" stroke="white" stroke-width="1.62669"/>
<path d="M5.89948 21.6491L4.64655 21.6571C4.56964 21.6582 4.53119 21.6202 4.53119 21.5433L4.52959 19.3467C4.52959 19.2912 4.50181 19.2634 4.44627 19.2634L3.07638 19.2586C2.9984 19.2586 2.97864 19.2922 3.0171 19.3595L4.11942 21.3334C4.14933 21.3858 4.14879 21.4381 4.11782 21.4905L3.04273 23.3218C3.00642 23.3816 3.02351 23.4115 3.094 23.4115L6.25998 23.4131" stroke="white" stroke-width="1.62669"/>
<path d="M6.26172 23.4131L7.03719 23.8057" stroke="#FFA096" stroke-width="1.62669"/>
<path d="M7.03529 23.8057H2.41451C2.40457 23.8058 2.39481 23.8032 2.38623 23.7982C2.37764 23.7932 2.37055 23.7859 2.36566 23.7771C2.36077 23.7683 2.35827 23.7583 2.35841 23.7482C2.35855 23.738 2.36132 23.728 2.36645 23.7192L3.68827 21.4681C3.71391 21.4243 3.71444 21.3799 3.68987 21.3351L2.37606 18.9702C2.34188 18.9104 2.3595 18.8805 2.42893 18.8805L4.47015 18.8837C4.50754 18.8837 4.52623 18.8645 4.52623 18.826L4.52463 18.6642C4.52463 18.6118 4.49792 18.5857 4.44452 18.5857L1.84092 18.5825C1.83397 18.5826 1.82713 18.5844 1.82108 18.5878C1.81503 18.5912 1.80998 18.5961 1.80642 18.6019C1.80286 18.6077 1.80092 18.6143 1.80079 18.621C1.80066 18.6277 1.80234 18.6343 1.80567 18.6402L3.2733 21.3271C3.3 21.3773 3.29947 21.4269 3.2717 21.4761L1.8233 24.0188C1.81863 24.0275 1.81628 24.0372 1.81646 24.0471C1.81665 24.057 1.81936 24.0666 1.82434 24.0752C1.82933 24.0837 1.83642 24.0908 1.84493 24.0958C1.85344 24.1008 1.86309 24.1035 1.87296 24.1037H7.05612C7.1138 24.1037 7.14745 24.0749 7.15706 24.0172L7.17629 23.9066" stroke="white" stroke-width="1.62669"/>
<path d="M7.03516 23.8057C7.13556 23.8164 7.18256 23.85 7.17615 23.9066" stroke="#913128" stroke-width="1.62669"/>
<path d="M38.5645 23.4259L38.84 23.2385C38.8849 23.2086 38.9073 23.1664 38.9073 23.1119L38.9137 21.6315" stroke="#993A30" stroke-width="1.62669"/>
<path d="M41.2933 21.3815C41.289 21.389 41.2867 21.3976 41.2867 21.4063C41.2867 21.415 41.289 21.4236 41.2933 21.4312L42.6504 23.7287C42.6549 23.7362 42.6574 23.7447 42.6575 23.7535C42.6577 23.7622 42.6556 23.7708 42.6513 23.7784C42.6471 23.7861 42.641 23.7924 42.6335 23.7969C42.626 23.8014 42.6175 23.8039 42.6088 23.804L37.8999 23.7912C37.887 23.7912 37.8746 23.7962 37.8653 23.8052C37.856 23.8142 37.8506 23.8264 37.8502 23.8393L37.8438 24.0524C37.8436 24.059 37.8447 24.0657 37.8471 24.0719C37.8495 24.0781 37.8531 24.0838 37.8577 24.0885C37.8624 24.0933 37.8679 24.0971 37.8741 24.0997C37.8802 24.1023 37.8868 24.1037 37.8934 24.1037H43.1471C43.1557 24.1036 43.1642 24.1013 43.1717 24.097C43.1791 24.0927 43.1854 24.0866 43.1897 24.0791C43.1941 24.0717 43.1964 24.0632 43.1966 24.0546C43.1967 24.046 43.1945 24.0375 43.1904 24.03L41.7067 21.428C41.7024 21.4207 41.7 21.4125 41.6997 21.4041C41.6994 21.3957 41.7013 21.3874 41.7051 21.3799L43.1936 18.6545C43.1977 18.647 43.1999 18.6385 43.1998 18.6299C43.1996 18.6212 43.1973 18.6128 43.1929 18.6054C43.1886 18.5979 43.1823 18.5917 43.1749 18.5874C43.1674 18.5831 43.1589 18.5809 43.1503 18.5808L40.3769 18.584C40.364 18.584 40.3516 18.589 40.3423 18.598C40.333 18.607 40.3276 18.6192 40.3272 18.6321L40.3176 18.8388C40.3174 18.8454 40.3185 18.8521 40.3209 18.8583C40.3233 18.8645 40.3269 18.8702 40.3316 18.8749C40.3362 18.8797 40.3417 18.8835 40.3479 18.8861C40.354 18.8887 40.3606 18.8901 40.3673 18.8901L42.5959 18.8804C42.6046 18.8805 42.613 18.8828 42.6205 18.8871C42.628 18.8914 42.6342 18.8975 42.6386 18.905C42.6429 18.9124 42.6453 18.9208 42.6454 18.9295C42.6455 18.9381 42.6434 18.9466 42.6392 18.9541L41.2933 21.3815Z" stroke="white" stroke-width="1.62669"/>
<path d="M28.9902 9.81517V11.8179C28.9902 11.8379 28.9982 11.8571 29.0123 11.8712C29.0264 11.8853 29.0456 11.8932 29.0655 11.8932H29.8554C29.9943 11.8932 30.1318 11.8677 30.2601 11.8181C30.3884 11.7685 30.505 11.6958 30.6032 11.6042C30.7014 11.5125 30.7793 11.4037 30.8324 11.284C30.8855 11.1642 30.9129 11.0359 30.9129 10.9063V10.7268C30.9129 10.5972 30.8855 10.4689 30.8324 10.3491C30.7793 10.2294 30.7014 10.1206 30.6032 10.0289C30.505 9.93729 30.3884 9.8646 30.2601 9.815C30.1318 9.7654 29.9943 9.73987 29.8554 9.73987H29.0655C29.0456 9.73987 29.0264 9.7478 29.0123 9.76192C28.9982 9.77605 28.9902 9.7952 28.9902 9.81517Z" stroke="#222222" stroke-width="1.62669"/>
<path d="M39.5963 15.886C39.5963 15.8745 39.5917 15.8635 39.5836 15.8554C39.5755 15.8473 39.5645 15.8427 39.553 15.8427H5.37138C5.35991 15.8427 5.34891 15.8473 5.3408 15.8554C5.33268 15.8635 5.32812 15.8745 5.32812 15.886V20.7823C5.32812 20.7938 5.33268 20.8048 5.3408 20.8129C5.34891 20.821 5.35991 20.8256 5.37138 20.8256H39.553C39.5645 20.8256 39.5755 20.821 39.5836 20.8129C39.5917 20.8048 39.5963 20.7938 39.5963 20.7823V15.886Z" stroke="#919191" stroke-width="1.62669"/>
<path d="M39.2262 16.2625C39.2262 16.251 39.2216 16.24 39.2135 16.2319C39.2054 16.2238 39.1944 16.2192 39.1829 16.2192H5.76396C5.75249 16.2192 5.74149 16.2238 5.73337 16.2319C5.72526 16.24 5.7207 16.251 5.7207 16.2625V20.4186C5.7207 20.4301 5.72526 20.4411 5.73337 20.4492C5.74149 20.4573 5.75249 20.4619 5.76396 20.4619H39.1829C39.1944 20.4619 39.2054 20.4573 39.2135 20.4492C39.2216 20.4411 39.2262 20.4301 39.2262 20.4186V16.2625Z" stroke="white" stroke-width="1.62669"/>
<path d="M10.0488 17.328V19.3852C10.0488 19.4013 10.0552 19.4168 10.0667 19.4283C10.0781 19.4397 10.0936 19.4461 10.1097 19.4461H10.7682C11.0457 19.4461 11.3118 19.3433 11.508 19.1603C11.7042 18.9773 11.8145 18.7291 11.8145 18.4703V18.2428C11.8145 17.984 11.7042 17.7359 11.508 17.5529C11.3118 17.3699 11.0457 17.2671 10.7682 17.2671H10.1097C10.0936 17.2671 10.0781 17.2735 10.0667 17.2849C10.0552 17.2963 10.0488 17.3118 10.0488 17.328Z" stroke="white" stroke-width="1.62669"/>
<path d="M12.6391 17.3408C12.5462 17.3141 12.5019 17.3931 12.5061 17.5779C12.519 18.1782 12.5222 18.7812 12.5158 19.3868C12.5155 19.4033 12.5187 19.4197 12.525 19.435C12.5313 19.4503 12.5407 19.4641 12.5525 19.4757C12.5644 19.4872 12.5784 19.4962 12.5939 19.5022C12.6093 19.5081 12.6258 19.5108 12.6423 19.5102C12.7214 19.508 12.7321 19.4909 12.6744 19.4589" stroke="#2B2B2B" stroke-width="1.62669"/>
<path d="M12.672 19.4589L13.8015 19.4573C13.8838 19.4573 13.9249 19.4162 13.9249 19.3339L13.9265 19.2554C13.9276 19.1764 13.888 19.1369 13.8079 19.1369L13.0853 19.1353C13.0743 19.1353 13.0637 19.1309 13.0559 19.1231C13.0481 19.1153 13.0437 19.1047 13.0437 19.0936L13.0485 18.4976C13.0485 18.487 13.0529 18.4768 13.0607 18.4693C13.0685 18.4618 13.0791 18.4575 13.0901 18.4575L13.7342 18.4559C13.8197 18.4559 13.8678 18.4132 13.8784 18.3278L13.8864 18.2781C13.888 18.2653 13.8869 18.2524 13.8831 18.2401C13.8793 18.2278 13.873 18.2164 13.8645 18.2067C13.8561 18.197 13.8456 18.1893 13.834 18.1839C13.8223 18.1785 13.8096 18.1757 13.7967 18.1755L13.0821 18.1595C13.0741 18.1595 13.0663 18.1563 13.0606 18.1506C13.0549 18.1449 13.0517 18.1372 13.0517 18.1291L13.0437 17.6244C13.0437 17.5998 13.0565 17.5875 13.0821 17.5875L13.8079 17.5827C13.8357 17.5823 13.8622 17.5711 13.8817 17.5517C13.9012 17.5322 13.9121 17.5059 13.9121 17.4786L13.9137 17.3712C13.9148 17.2975 13.879 17.2607 13.8063 17.2607H12.7409C12.7142 17.2607 12.6917 17.2708 12.6736 17.2911C12.6597 17.3071 12.6474 17.3237 12.6367 17.3408" stroke="white" stroke-width="1.62669"/>
<path d="M12.672 19.4589L12.6367 17.3408" stroke="#919191" stroke-width="1.62669"/>
<path d="M15.1536 17.6052C15.3277 17.54 15.5264 17.5491 15.7496 17.6324C15.834 17.6634 15.8981 17.6399 15.9419 17.5619L15.9627 17.5235C16.0055 17.4465 15.9862 17.3921 15.905 17.36C15.4052 17.1581 14.5191 17.1998 14.6681 17.9673C14.7386 18.3358 15.1664 18.4752 15.4644 18.6162C15.6268 18.6941 15.6818 18.8154 15.6295 18.9799C15.6186 19.0142 15.5992 19.0452 15.5731 19.0699C15.5471 19.0945 15.5152 19.1121 15.4805 19.1209C15.2284 19.1849 14.9635 19.162 14.6858 19.052C14.6377 19.0327 14.6142 19.0488 14.6153 19.1V19.2651C14.6153 19.342 14.6516 19.3922 14.7242 19.4157C15.1168 19.539 15.7769 19.5647 15.9707 19.1032C16.2672 18.4047 15.4741 18.2925 15.0975 18.0169C15.0629 17.9919 15.0358 17.958 15.019 17.9188C15.0022 17.8796 14.9963 17.8365 15.0021 17.7942C15.0078 17.7519 15.025 17.712 15.0517 17.6787C15.0784 17.6454 15.1136 17.62 15.1536 17.6052Z" stroke="white" stroke-width="1.62669"/>
<path d="M17.189 17.3469C17.189 17.3359 17.1868 17.3251 17.1826 17.315C17.1784 17.3049 17.1722 17.2957 17.1645 17.288C17.1567 17.2803 17.1475 17.2742 17.1374 17.27C17.1273 17.2658 17.1165 17.2637 17.1055 17.2637L16.9132 17.2641C16.9023 17.2641 16.8915 17.2662 16.8814 17.2705C16.8713 17.2747 16.8621 17.2808 16.8544 17.2886C16.8467 17.2963 16.8405 17.3055 16.8364 17.3156C16.8322 17.3257 16.8301 17.3366 16.8301 17.3475L16.8336 19.3727C16.8336 19.3836 16.8358 19.3945 16.84 19.4046C16.8442 19.4147 16.8504 19.4238 16.8581 19.4316C16.8659 19.4393 16.8751 19.4454 16.8852 19.4496C16.8953 19.4537 16.9061 19.4559 16.9171 19.4559L17.1093 19.4555C17.1203 19.4555 17.1311 19.4533 17.1412 19.4491C17.1513 19.4449 17.1605 19.4388 17.1682 19.431C17.1759 19.4233 17.182 19.4141 17.1862 19.404C17.1904 19.3938 17.1925 19.383 17.1925 19.3721L17.189 17.3469Z" stroke="white" stroke-width="1.62669"/>
<path d="M19.4718 18.6722L19.4766 19.0327C19.4776 19.0979 19.4461 19.1347 19.382 19.1433C19.0952 19.1785 18.7572 19.2041 18.5793 18.9189C18.1259 18.1867 18.6082 17.3215 19.5503 17.6292C19.6368 17.6569 19.703 17.6318 19.7489 17.5539L19.7842 17.4946C19.8258 17.4262 19.8093 17.3776 19.7345 17.3488C18.9655 17.0508 18.0906 17.3536 18.049 18.2925C17.9993 19.406 18.8325 19.6576 19.7537 19.3852C19.8136 19.367 19.844 19.3264 19.8451 19.2634L19.8483 18.3534C19.8483 18.2903 19.8173 18.2588 19.7553 18.2588L19.1625 18.2572C19.0717 18.2572 19.0258 18.3026 19.0247 18.3934L19.0231 18.4559C19.0221 18.5606 19.0733 18.6087 19.1769 18.6001L19.374 18.5825C19.4392 18.5771 19.4718 18.607 19.4718 18.6722Z" stroke="white" stroke-width="1.62669"/>
<path d="M21.1271 17.8342L22.0772 19.3596C22.1167 19.4226 22.1733 19.4541 22.247 19.4541H22.4553C22.5269 19.4541 22.5627 19.4183 22.5627 19.3467L22.5611 17.384C22.5611 17.2975 22.5178 17.2548 22.4313 17.2558L22.3448 17.2575C22.3297 17.2574 22.3148 17.2605 22.3008 17.2664C22.2869 17.2723 22.2743 17.2809 22.2637 17.2918C22.2532 17.3027 22.2448 17.3156 22.2392 17.3298C22.2336 17.344 22.2308 17.3591 22.231 17.3744L22.2534 18.7747C22.2556 18.9328 22.215 18.9446 22.1317 18.81C21.855 18.3635 21.572 17.9005 21.2825 17.4209C21.1799 17.251 21.0133 17.2318 20.8355 17.2639C20.7757 17.2745 20.7457 17.3103 20.7457 17.3712L20.7441 19.3788C20.7441 19.4311 20.7698 19.4573 20.821 19.4573L21.0005 19.4589C21.0234 19.4589 21.0454 19.4498 21.0617 19.4335C21.0779 19.4173 21.087 19.3953 21.087 19.3724L21.0774 17.8487C21.0763 17.7856 21.0929 17.7808 21.1271 17.8342Z" stroke="white" stroke-width="1.62669"/>
<path d="M25.064 17.6436C25.064 17.6258 25.0711 17.6086 25.0837 17.596C25.0963 17.5834 25.1134 17.5763 25.1313 17.5763H25.8731C25.8821 17.5763 25.8909 17.5745 25.8992 17.571C25.9075 17.5676 25.915 17.5625 25.9213 17.556C25.9275 17.5496 25.9324 17.542 25.9357 17.5337C25.939 17.5253 25.9406 17.5164 25.9404 17.5074L25.934 17.3296C25.9336 17.312 25.9263 17.2953 25.9137 17.283C25.9011 17.2708 25.8843 17.2639 25.8667 17.2639L24.7724 17.2591C24.7635 17.2591 24.7548 17.2608 24.7466 17.2642C24.7385 17.2676 24.731 17.2725 24.7248 17.2788C24.7185 17.285 24.7136 17.2925 24.7102 17.3006C24.7068 17.3088 24.7051 17.3175 24.7051 17.3264L24.7083 19.3836C24.7083 19.4012 24.7151 19.4181 24.7274 19.4306C24.7397 19.4432 24.7564 19.4505 24.774 19.4509L25.0015 19.4525C25.0105 19.4527 25.0194 19.4511 25.0277 19.4479C25.0361 19.4446 25.0437 19.4396 25.0501 19.4334C25.0565 19.4271 25.0616 19.4196 25.0651 19.4113C25.0686 19.4031 25.0704 19.3942 25.0704 19.3852L25.064 18.6418C25.064 18.6239 25.0711 18.6068 25.0837 18.5942C25.0963 18.5816 25.1134 18.5745 25.1313 18.5745L25.8362 18.5697C25.8452 18.5697 25.8541 18.5679 25.8624 18.5644C25.8706 18.5609 25.8781 18.5558 25.8844 18.5494C25.8907 18.543 25.8956 18.5354 25.8989 18.527C25.9022 18.5187 25.9037 18.5098 25.9035 18.5008L25.8955 18.3117C25.8947 18.2944 25.8872 18.2781 25.8747 18.2662C25.8622 18.2543 25.8455 18.2476 25.8282 18.2476L25.1377 18.2557C25.1201 18.2557 25.1032 18.2488 25.0906 18.2365C25.0781 18.2242 25.0708 18.2075 25.0704 18.19L25.064 17.6436Z" stroke="white" stroke-width="1.62669"/>
<path d="M27.0694 17.3632C27.0694 17.336 27.0586 17.3099 27.0394 17.2907C27.0202 17.2715 26.9941 17.2607 26.9669 17.2607H26.8291C26.8019 17.2607 26.7758 17.2715 26.7566 17.2907C26.7374 17.3099 26.7266 17.336 26.7266 17.3632V19.3532C26.7266 19.3804 26.7374 19.4064 26.7566 19.4257C26.7758 19.4449 26.8019 19.4557 26.8291 19.4557H26.9669C26.9941 19.4557 27.0202 19.4449 27.0394 19.4257C27.0586 19.4064 27.0694 19.3804 27.0694 19.3532V17.3632Z" stroke="white" stroke-width="1.62669"/>
<path d="M28.0384 17.3792C27.9551 17.3429 27.9129 17.3552 27.9118 17.4161C27.8958 18.0367 27.8889 18.6573 27.891 19.2778C27.891 19.3248 27.8969 19.3644 27.9086 19.3964C27.9439 19.499 27.9887 19.5091 28.0432 19.4269" stroke="#2B2B2B" stroke-width="1.62669"/>
<path d="M28.0453 19.4269C28.1553 19.4706 28.259 19.476 28.3562 19.4429C28.4053 19.4258 28.4299 19.3911 28.4299 19.3387L28.4218 18.6578C28.4208 18.5948 28.4512 18.567 28.5132 18.5745L28.6734 18.5905C28.7343 18.5969 28.7802 18.6268 28.8112 18.6802L29.1957 19.3371C29.2406 19.413 29.3068 19.452 29.3944 19.4541L29.5578 19.4557C29.6507 19.4568 29.6721 19.4183 29.6219 19.3403L29.1332 18.5825C29.098 18.5269 29.1087 18.4821 29.1653 18.4479L29.2678 18.387C29.3282 18.3526 29.3764 18.2999 29.4056 18.2364C29.6283 17.7557 29.404 17.3376 28.8641 17.2863C28.6034 17.2617 28.3535 17.2543 28.1142 17.2639C28.0886 17.2649 28.0688 17.2756 28.0549 17.2959C28.0379 17.3183 28.033 17.3461 28.0405 17.3792" stroke="white" stroke-width="1.62669"/>
<path d="M28.0419 19.4268L28.0371 17.3792" stroke="#919191" stroke-width="1.62669"/>
<path d="M30.7442 17.7926L31.1784 19.0568C31.3782 19.6378 31.5816 19.6389 31.7889 19.06L32.2279 17.8311C32.2631 17.7349 32.2802 17.7381 32.2791 17.8407L32.2663 19.3692C32.2663 19.4215 32.293 19.4488 32.3464 19.4509L32.5547 19.4573C32.6071 19.4584 32.6332 19.4327 32.6332 19.3804V17.3568C32.6332 17.2938 32.6017 17.2623 32.5387 17.2623L32.2166 17.2639C32.1515 17.2639 32.1077 17.2949 32.0853 17.3568L31.5453 18.8485C31.5409 18.8607 31.5328 18.8714 31.5221 18.8789C31.5114 18.8865 31.4987 18.8905 31.4857 18.8905C31.4728 18.8905 31.4603 18.8865 31.45 18.8789C31.4397 18.8714 31.4321 18.8607 31.4284 18.8485L30.9333 17.3824C30.9055 17.3013 30.8484 17.2607 30.7618 17.2607L30.5055 17.2623C30.4243 17.2634 30.3837 17.3039 30.3837 17.3841L30.3789 19.3452C30.3789 19.4135 30.4131 19.4488 30.4814 19.4509L30.6369 19.4557C30.6913 19.4568 30.7186 19.4301 30.7186 19.3756L30.7042 17.8006C30.7042 17.7152 30.7175 17.7125 30.7442 17.7926Z" stroke="white" stroke-width="1.62669"/>
<path d="M34.4718 18.8132C34.5166 19.0055 34.4371 19.1165 34.2331 19.1465C33.9959 19.1806 33.7705 19.1529 33.5569 19.0631C33.4843 19.0322 33.4469 19.0562 33.4448 19.1352L33.4416 19.2266C33.4384 19.3291 33.4859 19.3927 33.5842 19.4172C33.9057 19.4973 34.1871 19.4979 34.4285 19.4188C34.9012 19.2634 35.0117 18.6097 34.5359 18.3534C34.366 18.2615 34.1882 18.1755 34.0023 18.0954C33.9673 18.0802 33.9356 18.0581 33.9093 18.0305C33.8829 18.0028 33.8623 17.9701 33.8487 17.9343C33.8351 17.8984 33.8288 17.8602 33.8302 17.8219C33.8315 17.7835 33.8405 17.7458 33.8565 17.7109C33.9703 17.4609 34.4157 17.5731 34.6144 17.626C34.6418 17.6329 34.6708 17.6296 34.6959 17.6166C34.721 17.6036 34.7404 17.5819 34.7506 17.5555L34.7746 17.493C34.7992 17.431 34.7799 17.3872 34.7169 17.3616C34.2443 17.1693 33.448 17.1757 33.4832 17.8887C33.5024 18.2764 33.9527 18.4783 34.2619 18.5809C34.3139 18.5986 34.3605 18.6292 34.3972 18.6699C34.4339 18.7105 34.4596 18.7599 34.4718 18.8132Z" stroke="white" stroke-width="1.62669"/>
<path d="M10.3926 17.6275V19.0888C10.3926 19.1019 10.3978 19.1146 10.4071 19.1239C10.4164 19.1332 10.4291 19.1384 10.4422 19.1384H10.7579C10.9347 19.1384 11.1042 19.0682 11.2292 18.9432C11.3542 18.8182 11.4244 18.6487 11.4244 18.4719V18.2444C11.4244 18.0676 11.3542 17.8981 11.2292 17.7731C11.1042 17.6481 10.9347 17.5779 10.7579 17.5779H10.4422C10.4291 17.5779 10.4164 17.5831 10.4071 17.5924C10.3978 17.6017 10.3926 17.6144 10.3926 17.6275Z" stroke="white" stroke-width="1.62669"/>
<path d="M28.4212 17.6355L28.418 18.238C28.418 18.2516 28.4234 18.2646 28.433 18.2742C28.4426 18.2838 28.4556 18.2892 28.4692 18.2892L28.6823 18.2908C28.7386 18.2911 28.7943 18.283 28.8463 18.2669C28.8984 18.2507 28.9457 18.227 28.9856 18.1969C29.0254 18.1669 29.0571 18.1311 29.0788 18.0917C29.1004 18.0523 29.1116 18.01 29.1117 17.9672V17.9127C29.112 17.8266 29.0672 17.7437 28.9873 17.6825C28.9074 17.6212 28.7989 17.5864 28.6855 17.5859L28.4724 17.5843C28.4588 17.5843 28.4458 17.5897 28.4362 17.5993C28.4266 17.6089 28.4212 17.6219 28.4212 17.6355Z" stroke="#919191" stroke-width="1.62669"/>
<path d="M38.9163 15.1922L37.6826 15.1793L37.6778 9.32967C37.6777 9.3026 37.6702 9.27612 37.656 9.25319C37.6419 9.23027 37.6217 9.21181 37.5977 9.19989L22.4199 1.59899C22.3665 1.57229 22.3126 1.57229 22.2581 1.59899L7.11076 9.19028C7.07703 9.20721 7.04867 9.23311 7.02886 9.26509C7.00905 9.29706 6.99858 9.33385 6.99861 9.37133V15.181C6.61621 15.1115 6.25305 15.1195 5.9091 15.205L5.9043 8.83939C5.9043 8.7924 5.92566 8.75821 5.96839 8.73685L22.2373 0.610428C22.289 0.584572 22.346 0.571106 22.4036 0.571106C22.4612 0.571106 22.5178 0.584572 22.5689 0.610428L38.8602 8.75287C38.8765 8.7605 38.8903 8.77255 38.9 8.78759C38.9096 8.80264 38.9147 8.82006 38.9147 8.83779L38.9163 15.1922Z" fill="white"/>
<path d="M21.3457 3.98629L21.695 4.50541C21.7224 4.54583 21.7609 4.57747 21.8058 4.59651C21.8508 4.61555 21.9003 4.62118 21.9484 4.61271C21.9965 4.60424 22.0411 4.58204 22.0769 4.54879C22.1127 4.51554 22.138 4.47265 22.15 4.42529L22.3166 3.75877C22.3604 3.58467 22.4063 3.58413 22.4544 3.75717L22.6323 4.39485C22.6465 4.44632 22.6753 4.49257 22.715 4.52817C22.7548 4.56377 22.804 4.58724 22.8569 4.59582C22.9097 4.6044 22.964 4.59774 23.0133 4.57661C23.0626 4.55549 23.105 4.52078 23.1354 4.47657C23.224 4.34625 23.3217 4.22502 23.4286 4.11286C23.5087 4.02741 23.5327 4.04076 23.5007 4.15292L23.3837 4.55507C23.3602 4.63412 23.3794 4.70034 23.4414 4.75375C23.5706 4.86804 23.7405 4.81677 23.9509 4.59994C24.1154 4.43224 24.1431 4.45253 24.0342 4.66082C23.9413 4.8392 23.835 5.02666 23.7154 5.2232C23.6865 5.2702 23.6443 5.29369 23.5888 5.29369H21.1774C21.1251 5.29369 21.0851 5.27126 21.0573 5.2264C20.928 5.01811 20.8073 4.79541 20.6952 4.55828C20.6525 4.46962 20.6685 4.45681 20.7432 4.51983L21.0653 4.79541C21.0929 4.81857 21.1263 4.83378 21.1619 4.83941C21.1975 4.84505 21.234 4.8409 21.2674 4.8274C21.3008 4.8139 21.3299 4.79156 21.3516 4.76278C21.3733 4.73401 21.3868 4.69987 21.3905 4.66402C21.4204 4.37669 21.3649 4.10539 21.2239 3.8501C21.1983 3.8031 21.2095 3.76839 21.2576 3.74596C21.2789 3.73528 21.3014 3.72993 21.3248 3.72993C21.4242 3.7278 21.4429 3.76518 21.3809 3.84209L21.3505 3.87894C21.3227 3.91419 21.3211 3.94997 21.3457 3.98629Z" fill="white"/>
<path d="M20.6083 4.19619C20.6329 4.21542 20.6489 4.24212 20.6564 4.2763C20.6589 4.28769 20.6585 4.29953 20.6551 4.3107C20.6518 4.32188 20.6457 4.33202 20.6373 4.34019C20.629 4.34835 20.6188 4.35427 20.6075 4.35739C20.5963 4.36051 20.5844 4.36072 20.5731 4.35801C20.5368 4.34947 20.5095 4.32971 20.4914 4.29873C20.4832 4.28283 20.4805 4.26463 20.4838 4.24704C20.4871 4.22944 20.4963 4.21347 20.5097 4.20167C20.5232 4.18986 20.5402 4.18291 20.5581 4.18192C20.576 4.18092 20.5937 4.18595 20.6083 4.19619Z" fill="#EFEFEF"/>
<path d="M22.1042 9.94649C22.117 9.75903 22.1491 9.56196 22.0273 9.40013C21.8478 9.16461 21.7036 8.92427 21.4665 8.73682C20.6462 8.08418 20.1965 7.12339 20.1174 5.85443C20.1142 5.79782 20.1409 5.76738 20.1976 5.76311C21.1162 5.69368 22.0465 5.66377 22.9886 5.67338C23.5221 5.67819 24.0333 5.79355 24.5732 5.73267C24.5825 5.73165 24.5919 5.73274 24.6007 5.73584C24.6095 5.73894 24.6175 5.74399 24.6242 5.7506C24.6308 5.75721 24.6358 5.76522 24.6389 5.77404C24.642 5.78286 24.6431 5.79227 24.6421 5.80156C24.5866 6.35272 24.4733 6.87077 24.3024 7.35571C23.9932 8.23693 23.2466 8.64709 22.7499 9.3745C22.5031 9.73446 22.58 10.0528 22.9806 10.3294C23.097 10.4106 23.0842 10.4512 22.9421 10.4512L21.7501 10.448C21.6561 10.4469 21.6449 10.4165 21.7165 10.3567L22.0321 10.0891C22.077 10.0517 22.101 10.0042 22.1042 9.94649ZM20.5324 6.17488C20.6077 6.75167 20.8016 7.45024 21.1701 7.90687C21.215 7.96348 21.2342 7.956 21.2278 7.88444L21.0611 6.16366C21.059 6.13375 21.0425 6.1188 21.0115 6.1188L20.5805 6.1204C20.5442 6.1204 20.5281 6.13856 20.5324 6.17488ZM23.6103 7.86842C23.9612 7.39096 24.1182 6.74687 24.2191 6.17007C24.2255 6.13589 24.2111 6.1188 24.1758 6.1188H23.7032C23.6733 6.1188 23.6589 6.13375 23.6599 6.16366C23.6792 6.64112 23.6589 7.06197 23.5991 7.42621C23.5766 7.56293 23.5606 7.70285 23.551 7.84599C23.5456 7.92289 23.5654 7.93037 23.6103 7.86842Z" fill="white"/>
<path d="M37.2917 15.1585C37.5107 15.6669 37.6416 15.6739 37.6843 15.1793L38.918 15.1921C39.3388 15.127 39.7111 15.1441 40.0347 15.2434C40.0871 15.2594 40.1277 15.2904 40.1565 15.3363C40.2409 15.4709 40.2809 15.6034 40.2767 15.7337C40.251 16.6202 40.2569 17.4961 40.2943 18.3613C40.2945 18.3708 40.2922 18.3801 40.2875 18.3883C40.2829 18.3966 40.2761 18.4034 40.268 18.4082C40.2598 18.4129 40.2505 18.4154 40.241 18.4153C40.2316 18.4152 40.2223 18.4126 40.2142 18.4078C40.1383 18.3597 40.0721 18.3757 40.0155 18.4558C39.9813 18.5039 39.9674 18.5578 39.9739 18.6177C39.9888 18.7512 39.976 18.8735 39.9354 18.9846L39.9306 15.6167C39.9306 15.5601 39.9028 15.5318 39.8473 15.5318L5.00556 15.535C4.95642 15.535 4.93185 15.5596 4.93185 15.6087L4.91583 19.0198L4.81489 18.5488C4.81004 18.5251 4.79929 18.5031 4.78362 18.4846C4.76794 18.4661 4.74785 18.4518 4.72517 18.443C4.61408 18.3981 4.558 18.3159 4.55694 18.1963C4.54305 17.1463 4.55266 16.201 4.58578 15.3604C4.58744 15.3174 4.60578 15.2768 4.6369 15.2472C4.66801 15.2176 4.70945 15.2013 4.75241 15.2017L5.91081 15.2049C6.25475 15.1195 6.61792 15.1115 7.00031 15.1809L7.11567 15.37C7.14558 15.418 7.18884 15.4389 7.24545 15.4325C7.37256 15.4186 7.41261 15.3262 7.36561 15.1553L14.6701 15.1569C14.7385 15.1569 14.7726 15.1227 14.7726 15.0543L14.771 9.84393C14.771 9.82311 14.7626 9.80314 14.7476 9.78842C14.7326 9.7737 14.7122 9.76542 14.6909 9.76542H12.8804C12.8639 9.76542 12.848 9.75884 12.8362 9.74712C12.8245 9.7354 12.8179 9.71951 12.8179 9.70294V8.52371C12.8179 8.50459 12.8255 8.48625 12.8391 8.47273C12.8526 8.45921 12.8709 8.45161 12.89 8.45161H18.2014C18.2398 8.45161 18.2585 8.4703 18.2575 8.50769V9.72056C18.2575 9.72624 18.2563 9.73187 18.254 9.73712C18.2518 9.74237 18.2485 9.74713 18.2443 9.75115C18.2402 9.75517 18.2352 9.75835 18.2298 9.76053C18.2243 9.7627 18.2185 9.76382 18.2126 9.76382L16.4117 9.76542C16.3562 9.76542 16.3284 9.7932 16.3284 9.84874V15.0752C16.3284 15.1222 16.3514 15.1457 16.3973 15.1457H20.1753C20.2693 15.1457 20.2762 15.1216 20.1961 15.0736C20.0957 15.0127 20.0017 14.9432 19.9141 14.8653C17.9819 13.1381 18.0251 10.3647 20.0696 8.75122C20.123 8.7085 20.1753 8.70957 20.2266 8.75443L21.0838 9.50106C21.0928 9.50871 21.0999 9.51839 21.1045 9.52932C21.1091 9.54026 21.1111 9.55216 21.1103 9.5641C21.1096 9.57604 21.106 9.5877 21.1 9.59816C21.094 9.60862 21.0857 9.61761 21.0758 9.62443C20.1294 10.2514 19.7165 11.1107 19.8372 12.2024C20.0023 13.7101 21.4811 14.7034 22.9455 14.367C24.3635 14.0433 25.1998 12.6446 24.8554 11.2234C24.6984 10.5751 24.301 10.0399 23.6633 9.61802C23.6484 9.60841 23.6468 9.59773 23.6585 9.58598C23.9565 9.27301 24.2535 8.97126 24.5493 8.68073C24.5654 8.6647 24.5825 8.66364 24.6006 8.67752C26.8149 10.3791 26.8037 13.4313 24.5317 15.088C24.474 15.1296 24.481 15.1505 24.5526 15.1505L27.3468 15.1457C27.412 15.1446 27.4445 15.1115 27.4445 15.0463L27.4429 8.52371C27.4429 8.47351 27.468 8.44787 27.5182 8.4468C28.3685 8.44467 29.1498 8.44734 29.8623 8.45481C31.6952 8.47724 32.8376 9.54272 32.4066 11.4413C32.0493 13.0115 30.4551 13.231 29.1237 13.1605C29.0361 13.1562 28.9923 13.1979 28.9923 13.2855V15.0511C28.9923 15.1099 29.0217 15.1392 29.0804 15.1392L37.2917 15.1585ZM28.9907 9.81509V11.8179C28.9907 11.8378 28.9986 11.857 29.0127 11.8711C29.0269 11.8852 29.046 11.8932 29.066 11.8932H29.8559C29.9947 11.8932 30.1323 11.8676 30.2606 11.818C30.3888 11.7684 30.5054 11.6957 30.6036 11.6041C30.7018 11.5124 30.7797 11.4036 30.8328 11.2839C30.886 11.1642 30.9133 11.0358 30.9133 10.9062V10.7268C30.9133 10.5971 30.886 10.4688 30.8328 10.3491C30.7797 10.2293 30.7018 10.1205 30.6036 10.0289C30.5054 9.93722 30.3888 9.86452 30.2606 9.81492C30.1323 9.76532 29.9947 9.73979 29.8559 9.73979H29.066C29.046 9.73979 29.0269 9.74772 29.0127 9.76184C28.9986 9.77597 28.9907 9.79512 28.9907 9.81509Z" fill="#EFEFEF"/>
<path d="M39.5963 20.7823C39.5963 20.7937 39.5917 20.8047 39.5836 20.8128C39.5755 20.821 39.5645 20.8255 39.553 20.8255H5.37138C5.35991 20.8255 5.34891 20.821 5.3408 20.8128C5.33268 20.8047 5.32812 20.7937 5.32812 20.7823V15.8859C5.32812 15.8744 5.33268 15.8634 5.3408 15.8553C5.34891 15.8472 5.35991 15.8426 5.37138 15.8426H39.553C39.5645 15.8426 39.5755 15.8472 39.5836 15.8553C39.5917 15.8634 39.5963 15.8744 39.5963 15.8859V20.7823ZM39.2229 16.2624C39.2229 16.2509 39.2184 16.2399 39.2103 16.2318C39.2022 16.2237 39.1912 16.2192 39.1797 16.2192H5.76072C5.74925 16.2192 5.73825 16.2237 5.73013 16.2318C5.72202 16.2399 5.71746 16.2509 5.71746 16.2624V20.4186C5.71746 20.43 5.72202 20.441 5.73013 20.4491C5.73825 20.4573 5.74925 20.4618 5.76072 20.4618H39.1797C39.1912 20.4618 39.2022 20.4573 39.2103 20.4491C39.2184 20.441 39.2229 20.43 39.2229 20.4186V16.2624Z" fill="white"/>
<path d="M39.2262 20.4186C39.2262 20.43 39.2216 20.4411 39.2135 20.4492C39.2054 20.4573 39.1944 20.4618 39.1829 20.4618H5.76396C5.75249 20.4618 5.74149 20.4573 5.73337 20.4492C5.72526 20.4411 5.7207 20.43 5.7207 20.4186V16.2624C5.7207 16.251 5.72526 16.24 5.73337 16.2318C5.74149 16.2237 5.75249 16.2192 5.76396 16.2192H39.1829C39.1944 16.2192 39.2054 16.2237 39.2135 16.2318C39.2216 16.24 39.2262 16.251 39.2262 16.2624V20.4186ZM10.0499 17.3279V19.3851C10.0499 19.4013 10.0563 19.4168 10.0677 19.4282C10.0791 19.4396 10.0946 19.446 10.1108 19.446H10.7693C11.0468 19.446 11.3129 19.3432 11.5091 19.1602C11.7053 18.9773 11.8155 18.7291 11.8155 18.4703V18.2428C11.8155 17.984 11.7053 17.7358 11.5091 17.5528C11.3129 17.3698 11.0468 17.267 10.7693 17.267H10.1108C10.0946 17.267 10.0791 17.2734 10.0677 17.2849C10.0563 17.2963 10.0499 17.3118 10.0499 17.3279ZM12.6391 17.3407C12.5461 17.314 12.5018 17.3931 12.5061 17.5779C12.5189 18.1781 12.5221 18.7811 12.5157 19.3868C12.5155 19.4033 12.5186 19.4197 12.5249 19.435C12.5312 19.4503 12.5406 19.4641 12.5525 19.4756C12.5643 19.4872 12.5784 19.4962 12.5938 19.5021C12.6093 19.5081 12.6257 19.5108 12.6423 19.5101C12.7213 19.508 12.732 19.4909 12.6743 19.4589L13.8039 19.4572C13.8861 19.4572 13.9272 19.4161 13.9272 19.3339L13.9288 19.2554C13.9299 19.1763 13.8904 19.1368 13.8103 19.1368L13.0877 19.1352C13.0766 19.1352 13.066 19.1308 13.0582 19.123C13.0504 19.1152 13.046 19.1046 13.046 19.0935L13.0508 18.4975C13.0508 18.4869 13.0552 18.4767 13.063 18.4692C13.0708 18.4617 13.0814 18.4575 13.0925 18.4575L13.7366 18.4559C13.822 18.4559 13.8701 18.4131 13.8808 18.3277L13.8888 18.278C13.8904 18.2653 13.8892 18.2523 13.8855 18.24C13.8817 18.2277 13.8754 18.2163 13.8669 18.2067C13.8584 18.197 13.848 18.1892 13.8363 18.1838C13.8246 18.1785 13.8119 18.1756 13.7991 18.1755L13.0845 18.1595C13.0764 18.1595 13.0687 18.1562 13.0629 18.1505C13.0572 18.1448 13.054 18.1371 13.054 18.129L13.046 17.6243C13.046 17.5998 13.0588 17.5875 13.0845 17.5875L13.8103 17.5827C13.838 17.5822 13.8645 17.5711 13.884 17.5516C13.9035 17.5321 13.9144 17.5059 13.9144 17.4785L13.916 17.3712C13.9171 17.2975 13.8813 17.2606 13.8087 17.2606H12.7432C12.7165 17.2606 12.6941 17.2708 12.6759 17.2911C12.662 17.3071 12.6497 17.3236 12.6391 17.3407ZM15.1545 17.6051C15.3286 17.5399 15.5273 17.549 15.7506 17.6323C15.8349 17.6633 15.899 17.6398 15.9428 17.5618L15.9637 17.5234C16.0064 17.4465 15.9872 17.392 15.906 17.36C15.4061 17.1581 14.5201 17.1997 14.6691 17.9672C14.7396 18.3357 15.1674 18.4751 15.4654 18.6161C15.6277 18.6941 15.6827 18.8153 15.6304 18.9798C15.6195 19.0141 15.6001 19.0451 15.5741 19.0698C15.548 19.0945 15.5161 19.112 15.4814 19.1208C15.2293 19.1849 14.9644 19.1619 14.6867 19.0519C14.6386 19.0327 14.6151 19.0487 14.6162 19.1V19.265C14.6162 19.3419 14.6525 19.3921 14.7251 19.4156C15.1177 19.539 15.7778 19.5646 15.9717 19.1032C16.2681 18.4046 15.475 18.2924 15.0985 18.0169C15.0639 17.9919 15.0367 17.958 15.0199 17.9187C15.0031 17.8795 14.9972 17.8364 15.003 17.7942C15.0088 17.7519 15.0259 17.7119 15.0526 17.6786C15.0793 17.6453 15.1145 17.6199 15.1545 17.6051ZM17.1908 17.3468C17.1908 17.3359 17.1886 17.3251 17.1844 17.315C17.1802 17.3049 17.174 17.2957 17.1663 17.288C17.1585 17.2802 17.1493 17.2741 17.1392 17.2699C17.1291 17.2658 17.1183 17.2636 17.1073 17.2637L16.9151 17.264C16.9041 17.264 16.8933 17.2662 16.8832 17.2704C16.8731 17.2746 16.8639 17.2808 16.8562 17.2885C16.8485 17.2963 16.8423 17.3054 16.8382 17.3156C16.834 17.3257 16.8319 17.3365 16.8319 17.3475L16.8354 19.3726C16.8354 19.3836 16.8376 19.3944 16.8418 19.4045C16.846 19.4146 16.8522 19.4238 16.8599 19.4315C16.8677 19.4392 16.8769 19.4454 16.887 19.4495C16.8971 19.4537 16.9079 19.4558 16.9189 19.4558L17.1111 19.4555C17.1221 19.4555 17.1329 19.4533 17.143 19.4491C17.1531 19.4449 17.1623 19.4387 17.17 19.431C17.1777 19.4232 17.1839 19.414 17.188 19.4039C17.1922 19.3938 17.1943 19.383 17.1943 19.372L17.1908 17.3468ZM19.4741 18.6722L19.4789 19.0327C19.48 19.0978 19.4485 19.1347 19.3844 19.1432C19.0976 19.1785 18.7595 19.2041 18.5817 18.9189C18.1282 18.1867 18.6105 17.3215 19.5526 17.6291C19.6391 17.6569 19.7054 17.6318 19.7513 17.5538L19.7865 17.4945C19.8282 17.4262 19.8116 17.3776 19.7369 17.3487C18.9678 17.0507 18.093 17.3535 18.0513 18.2924C18.0017 19.406 18.8348 19.6575 19.7561 19.3851C19.8159 19.367 19.8463 19.3264 19.8474 19.2634L19.8506 18.3533C19.8506 18.2903 19.8196 18.2588 19.7577 18.2588L19.1649 18.2572C19.0741 18.2572 19.0282 18.3026 19.0271 18.3934L19.0255 18.4559C19.0244 18.5605 19.0757 18.6086 19.1793 18.6001L19.3764 18.5824C19.4415 18.5771 19.4741 18.607 19.4741 18.6722ZM21.1292 17.8342L22.0793 19.3595C22.1188 19.4225 22.1754 19.454 22.2491 19.454H22.4574C22.529 19.454 22.5648 19.4183 22.5648 19.3467L22.5632 17.384C22.5632 17.2975 22.5199 17.2547 22.4334 17.2558L22.3469 17.2574C22.3318 17.2574 22.3169 17.2604 22.303 17.2663C22.2891 17.2722 22.2764 17.2809 22.2659 17.2918C22.2553 17.3026 22.2469 17.3155 22.2413 17.3297C22.2357 17.3439 22.2329 17.3591 22.2331 17.3744L22.2555 18.7747C22.2577 18.9328 22.2171 18.9445 22.1338 18.81C21.8571 18.3635 21.5741 17.9004 21.2846 17.4208C21.1821 17.251 21.0154 17.2318 20.8376 17.2638C20.7778 17.2745 20.7479 17.3103 20.7479 17.3712L20.7463 19.3787C20.7463 19.4311 20.7719 19.4572 20.8232 19.4572L21.0026 19.4589C21.0256 19.4589 21.0476 19.4497 21.0638 19.4335C21.08 19.4173 21.0891 19.3953 21.0891 19.3723L21.0795 17.8486C21.0784 17.7856 21.095 17.7808 21.1292 17.8342ZM25.0674 17.6435C25.0674 17.6257 25.0745 17.6086 25.0871 17.596C25.0998 17.5833 25.1169 17.5763 25.1347 17.5763H25.8765C25.8855 17.5763 25.8944 17.5745 25.9027 17.571C25.9109 17.5675 25.9184 17.5624 25.9247 17.556C25.931 17.5496 25.9359 17.542 25.9392 17.5336C25.9425 17.5253 25.9441 17.5163 25.9438 17.5074L25.9374 17.3295C25.937 17.3119 25.9297 17.2952 25.9172 17.283C25.9046 17.2707 25.8877 17.2638 25.8701 17.2638L24.7758 17.259C24.767 17.259 24.7582 17.2608 24.7501 17.2641C24.7419 17.2675 24.7345 17.2725 24.7282 17.2787C24.722 17.285 24.717 17.2924 24.7137 17.3006C24.7103 17.3087 24.7085 17.3175 24.7085 17.3263L24.7117 19.3835C24.7117 19.4011 24.7186 19.418 24.7309 19.4306C24.7432 19.4431 24.7599 19.4504 24.7774 19.4508L25.0049 19.4524C25.0139 19.4527 25.0228 19.4511 25.0312 19.4478C25.0395 19.4445 25.0471 19.4396 25.0536 19.4333C25.06 19.427 25.0651 19.4195 25.0686 19.4113C25.072 19.403 25.0738 19.3941 25.0738 19.3851L25.0674 18.6417C25.0674 18.6239 25.0745 18.6068 25.0871 18.5941C25.0998 18.5815 25.1169 18.5744 25.1347 18.5744L25.8397 18.5696C25.8487 18.5696 25.8575 18.5678 25.8658 18.5644C25.8741 18.5609 25.8816 18.5558 25.8879 18.5494C25.8941 18.5429 25.899 18.5353 25.9023 18.527C25.9056 18.5186 25.9072 18.5097 25.907 18.5007L25.899 18.3117C25.8981 18.2944 25.8907 18.2781 25.8782 18.2661C25.8656 18.2542 25.849 18.2476 25.8317 18.2476L25.1411 18.2556C25.1236 18.2556 25.1067 18.2487 25.0941 18.2365C25.0815 18.2242 25.0743 18.2075 25.0738 18.1899L25.0674 17.6435ZM27.0718 17.3632C27.0718 17.336 27.061 17.3099 27.0418 17.2906C27.0225 17.2714 26.9964 17.2606 26.9693 17.2606H26.8315C26.8043 17.2606 26.7782 17.2714 26.759 17.2906C26.7397 17.3099 26.7289 17.336 26.7289 17.3632V19.3531C26.7289 19.3803 26.7397 19.4064 26.759 19.4256C26.7782 19.4448 26.8043 19.4556 26.8315 19.4556H26.9693C26.9964 19.4556 27.0225 19.4448 27.0418 19.4256C27.061 19.4064 27.0718 19.3803 27.0718 19.3531V17.3632ZM28.0411 17.3792C27.9578 17.3429 27.9156 17.3551 27.9146 17.416C27.8985 18.0366 27.8916 18.6572 27.8937 19.2778C27.8937 19.3248 27.8996 19.3643 27.9114 19.3964C27.9466 19.4989 27.9915 19.5091 28.0459 19.4268C28.156 19.4706 28.2596 19.4759 28.3568 19.4428C28.4059 19.4257 28.4305 19.391 28.4305 19.3387L28.4225 18.6577C28.4214 18.5947 28.4518 18.567 28.5138 18.5744L28.674 18.5905C28.7349 18.5969 28.7808 18.6268 28.8118 18.6802L29.1963 19.3371C29.2412 19.4129 29.3074 19.4519 29.395 19.454L29.5584 19.4556C29.6514 19.4567 29.6727 19.4183 29.6225 19.3403L29.1338 18.5824C29.0986 18.5269 29.1093 18.482 29.1659 18.4479L29.2684 18.387C29.3288 18.3526 29.377 18.2999 29.4062 18.2364C29.6289 17.7557 29.4046 17.3375 28.8647 17.2863C28.604 17.2617 28.3541 17.2542 28.1148 17.2638C28.0892 17.2649 28.0694 17.2756 28.0556 17.2959C28.0385 17.3183 28.0337 17.3461 28.0411 17.3792ZM30.7473 17.7925L31.1815 19.0567C31.3812 19.6378 31.5847 19.6388 31.7919 19.0599L32.2309 17.831C32.2662 17.7349 32.2833 17.7381 32.2822 17.8406L32.2694 19.3691C32.2694 19.4215 32.2961 19.4487 32.3495 19.4508L32.5578 19.4572C32.6101 19.4583 32.6363 19.4327 32.6363 19.3803V17.3567C32.6363 17.2937 32.6048 17.2622 32.5417 17.2622L32.2197 17.2638C32.1545 17.2638 32.1108 17.2948 32.0883 17.3567L31.5484 18.8484C31.5439 18.8607 31.5358 18.8713 31.5251 18.8789C31.5144 18.8864 31.5017 18.8905 31.4888 18.8905C31.4759 18.8905 31.4634 18.8864 31.4531 18.8789C31.4428 18.8713 31.4352 18.8607 31.4314 18.8484L30.9363 17.3824C30.9086 17.3012 30.8514 17.2606 30.7649 17.2606L30.5085 17.2622C30.4274 17.2633 30.3868 17.3039 30.3868 17.384L30.382 19.3451C30.382 19.4135 30.4161 19.4487 30.4845 19.4508L30.6399 19.4556C30.6944 19.4567 30.7216 19.43 30.7216 19.3755L30.7072 17.8006C30.7072 17.7151 30.7206 17.7124 30.7473 17.7925ZM34.474 18.8132C34.5189 19.0054 34.4393 19.1165 34.2353 19.1464C33.9982 19.1806 33.7728 19.1528 33.5592 19.0631C33.4865 19.0321 33.4491 19.0562 33.447 19.1352L33.4438 19.2265C33.4406 19.3291 33.4881 19.3926 33.5864 19.4172C33.9079 19.4973 34.1894 19.4978 34.4308 19.4188C34.9034 19.2634 35.014 18.6097 34.5381 18.3533C34.3683 18.2615 34.1904 18.1755 34.0046 18.0954C33.9695 18.0802 33.9379 18.0581 33.9115 18.0304C33.8851 18.0028 33.8645 17.97 33.8509 17.9342C33.8374 17.8984 33.8311 17.8602 33.8324 17.8218C33.8337 17.7835 33.8427 17.7457 33.8588 17.7108C33.9725 17.4609 34.4179 17.573 34.6166 17.6259C34.644 17.6329 34.673 17.6296 34.6981 17.6166C34.7232 17.6036 34.7427 17.5818 34.7528 17.5554L34.7768 17.4929C34.8014 17.431 34.7822 17.3872 34.7192 17.3616C34.2465 17.1693 33.4502 17.1757 33.4855 17.8887C33.5047 18.2764 33.9549 18.4783 34.2641 18.5808C34.3161 18.5985 34.3627 18.6292 34.3994 18.6698C34.4362 18.7105 34.4618 18.7598 34.474 18.8132Z" fill="#333333"/>
<path d="M10.0488 17.328C10.0488 17.3118 10.0552 17.2963 10.0667 17.2849C10.0781 17.2735 10.0936 17.2671 10.1097 17.2671H10.7682C11.0457 17.2671 11.3118 17.3699 11.508 17.5529C11.7042 17.7359 11.8145 17.9841 11.8145 18.2428V18.4704C11.8145 18.7291 11.7042 18.9773 11.508 19.1603C11.3118 19.3433 11.0457 19.4461 10.7682 19.4461H10.1097C10.0936 19.4461 10.0781 19.4397 10.0667 19.4283C10.0552 19.4168 10.0488 19.4014 10.0488 19.3852V17.328ZM10.3965 17.6276V19.0888C10.3965 19.102 10.4017 19.1146 10.4111 19.1239C10.4204 19.1332 10.433 19.1385 10.4462 19.1385H10.7618C10.9386 19.1385 11.1081 19.0683 11.2331 18.9433C11.3581 18.8183 11.4283 18.6487 11.4283 18.472V18.2444C11.4283 18.0677 11.3581 17.8981 11.2331 17.7731C11.1081 17.6481 10.9386 17.5779 10.7618 17.5779H10.4462C10.433 17.5779 10.4204 17.5832 10.4111 17.5925C10.4017 17.6018 10.3965 17.6144 10.3965 17.6276Z" fill="white"/>
<path d="M12.672 19.4589L12.6367 17.3408C12.6474 17.3237 12.6597 17.3071 12.6736 17.2911C12.6917 17.2708 12.7142 17.2607 12.7409 17.2607H13.8063C13.879 17.2607 13.9148 17.2975 13.9137 17.3712L13.9121 17.4786C13.9121 17.5059 13.9012 17.5321 13.8817 17.5516C13.8622 17.5711 13.8357 17.5823 13.8079 17.5827L13.0821 17.5875C13.0565 17.5875 13.0437 17.5998 13.0437 17.6244L13.0517 18.129C13.0517 18.1371 13.0549 18.1449 13.0606 18.1506C13.0663 18.1563 13.0741 18.1595 13.0821 18.1595L13.7967 18.1755C13.8096 18.1756 13.8223 18.1785 13.834 18.1839C13.8456 18.1892 13.8561 18.197 13.8645 18.2067C13.873 18.2164 13.8793 18.2277 13.8831 18.24C13.8869 18.2523 13.888 18.2653 13.8864 18.2781L13.8784 18.3277C13.8678 18.4132 13.8197 18.4559 13.7342 18.4559L13.0901 18.4575C13.0791 18.4575 13.0685 18.4617 13.0607 18.4692C13.0529 18.4767 13.0485 18.4869 13.0485 18.4976L13.0437 19.0936C13.0437 19.1046 13.0481 19.1152 13.0559 19.123C13.0637 19.1309 13.0743 19.1352 13.0853 19.1352L13.8079 19.1368C13.888 19.1368 13.9276 19.1764 13.9265 19.2554L13.9249 19.3339C13.9249 19.4162 13.8838 19.4573 13.8015 19.4573L12.672 19.4589Z" fill="white"/>
<path d="M15.1536 17.6051C15.1136 17.62 15.0784 17.6454 15.0517 17.6787C15.025 17.712 15.0078 17.7519 15.0021 17.7942C14.9963 17.8365 15.0022 17.8795 15.019 17.9188C15.0358 17.958 15.0629 17.9919 15.0975 18.0169C15.4741 18.2925 16.2672 18.4046 15.9707 19.1032C15.7769 19.5646 15.1168 19.539 14.7242 19.4156C14.6516 19.3921 14.6153 19.3419 14.6153 19.265V19.1C14.6142 19.0487 14.6377 19.0327 14.6858 19.0519C14.9635 19.162 15.2284 19.1849 15.4805 19.1208C15.5152 19.1121 15.5471 19.0945 15.5731 19.0698C15.5992 19.0452 15.6186 19.0142 15.6295 18.9798C15.6818 18.8153 15.6268 18.6941 15.4644 18.6161C15.1664 18.4751 14.7386 18.3357 14.6681 17.9672C14.5191 17.1998 15.4052 17.1581 15.905 17.36C15.9862 17.392 16.0055 17.4465 15.9627 17.5234L15.9419 17.5619C15.8981 17.6399 15.834 17.6633 15.7496 17.6324C15.5264 17.5491 15.3277 17.54 15.1536 17.6051Z" fill="white"/>
<path d="M17.1057 17.2636L16.9134 17.264C16.8674 17.264 16.8301 17.3014 16.8302 17.3474L16.8338 19.3726C16.8338 19.4186 16.8712 19.4559 16.9172 19.4558L17.1095 19.4554C17.1555 19.4554 17.1927 19.418 17.1927 19.372L17.1891 17.3468C17.189 17.3008 17.1517 17.2635 17.1057 17.2636Z" fill="white"/>
<path d="M19.376 18.5824L19.1789 18.6C19.0753 18.6086 19.024 18.5605 19.0251 18.4558L19.0267 18.3933C19.0278 18.3026 19.0737 18.2572 19.1645 18.2572L19.7573 18.2588C19.8193 18.2588 19.8502 18.2903 19.8502 18.3533L19.847 19.2633C19.846 19.3264 19.8155 19.367 19.7557 19.3851C18.8344 19.6575 18.0013 19.4059 18.0509 18.2924C18.0926 17.3535 18.9674 17.0507 19.7365 17.3487C19.8112 17.3775 19.8278 17.4261 19.7861 17.4945L19.7509 17.5538C19.705 17.6318 19.6387 17.6569 19.5522 17.6291C18.6101 17.3215 18.1278 18.1867 18.5813 18.9189C18.7591 19.2041 19.0972 19.1784 19.384 19.1432C19.4481 19.1346 19.4796 19.0978 19.4785 19.0326L19.4737 18.6721C19.4737 18.607 19.4411 18.5771 19.376 18.5824Z" fill="white"/>
<path d="M21.1271 17.8342C21.0929 17.7808 21.0763 17.7856 21.0774 17.8486L21.087 19.3723C21.087 19.3953 21.0779 19.4173 21.0617 19.4335C21.0454 19.4497 21.0234 19.4589 21.0005 19.4589L20.821 19.4573C20.7698 19.4573 20.7441 19.4311 20.7441 19.3787L20.7457 17.3712C20.7457 17.3103 20.7757 17.2745 20.8355 17.2638C21.0133 17.2318 21.1799 17.251 21.2825 17.4208C21.572 17.9004 21.855 18.3635 22.1317 18.81C22.215 18.9445 22.2556 18.9328 22.2534 18.7747L22.231 17.3744C22.2308 17.3591 22.2336 17.3439 22.2392 17.3297C22.2448 17.3156 22.2532 17.3026 22.2637 17.2918C22.2743 17.2809 22.2869 17.2722 22.3008 17.2663C22.3148 17.2604 22.3297 17.2574 22.3448 17.2574L22.4313 17.2558C22.5178 17.2547 22.5611 17.2975 22.5611 17.384L22.5627 19.3467C22.5627 19.4183 22.5269 19.4541 22.4553 19.4541H22.247C22.1733 19.4541 22.1167 19.4225 22.0772 19.3595L21.1271 17.8342Z" fill="white"/>
<path d="M25.064 17.6435L25.0704 18.1899C25.0708 18.2075 25.0781 18.2242 25.0906 18.2364C25.1032 18.2487 25.1201 18.2556 25.1377 18.2556L25.8282 18.2476C25.8455 18.2475 25.8622 18.2542 25.8747 18.2661C25.8872 18.2781 25.8947 18.2944 25.8955 18.3117L25.9035 18.5007C25.9037 18.5097 25.9022 18.5186 25.8989 18.527C25.8956 18.5353 25.8907 18.5429 25.8844 18.5493C25.8781 18.5558 25.8706 18.5609 25.8624 18.5643C25.8541 18.5678 25.8452 18.5696 25.8362 18.5696L25.1313 18.5744C25.1134 18.5744 25.0963 18.5815 25.0837 18.5941C25.0711 18.6067 25.064 18.6239 25.064 18.6417L25.0704 19.3851C25.0704 19.3941 25.0686 19.403 25.0651 19.4113C25.0616 19.4195 25.0565 19.427 25.0501 19.4333C25.0437 19.4396 25.0361 19.4445 25.0277 19.4478C25.0194 19.4511 25.0105 19.4526 25.0015 19.4524L24.774 19.4508C24.7564 19.4504 24.7397 19.4431 24.7274 19.4306C24.7151 19.418 24.7083 19.4011 24.7083 19.3835L24.7051 17.3263C24.7051 17.3175 24.7068 17.3087 24.7102 17.3005C24.7136 17.2924 24.7185 17.285 24.7248 17.2787C24.731 17.2725 24.7385 17.2675 24.7466 17.2641C24.7548 17.2607 24.7635 17.259 24.7724 17.259L25.8667 17.2638C25.8843 17.2638 25.9011 17.2707 25.9137 17.2829C25.9263 17.2952 25.9336 17.3119 25.934 17.3295L25.9404 17.5073C25.9406 17.5163 25.939 17.5252 25.9357 17.5336C25.9324 17.5419 25.9275 17.5495 25.9213 17.556C25.915 17.5624 25.9075 17.5675 25.8992 17.571C25.8909 17.5745 25.8821 17.5762 25.8731 17.5762H25.1313C25.1134 17.5762 25.0963 17.5833 25.0837 17.596C25.0711 17.6086 25.064 17.6257 25.064 17.6435Z" fill="white"/>
<path d="M26.9669 17.2607H26.8291C26.7725 17.2607 26.7266 17.3066 26.7266 17.3632V19.3531C26.7266 19.4098 26.7725 19.4557 26.8291 19.4557H26.9669C27.0235 19.4557 27.0694 19.4098 27.0694 19.3531V17.3632C27.0694 17.3066 27.0235 17.2607 26.9669 17.2607Z" fill="white"/>
<path d="M28.0453 19.4268L28.0405 17.3792C28.033 17.3461 28.0379 17.3183 28.0549 17.2959C28.0688 17.2756 28.0886 17.2649 28.1142 17.2638C28.3535 17.2542 28.6034 17.2617 28.8641 17.2863C29.404 17.3375 29.6283 17.7557 29.4056 18.2364C29.3764 18.2999 29.3282 18.3526 29.2678 18.387L29.1653 18.4479C29.1087 18.4821 29.098 18.5269 29.1332 18.5825L29.6219 19.3403C29.6721 19.4183 29.6507 19.4567 29.5578 19.4557L29.3944 19.4541C29.3068 19.4519 29.2406 19.4129 29.1957 19.3371L28.8112 18.6802C28.7802 18.6268 28.7343 18.5969 28.6734 18.5905L28.5132 18.5744C28.4512 18.567 28.4208 18.5947 28.4218 18.6578L28.4299 19.3387C28.4299 19.391 28.4053 19.4258 28.3562 19.4428C28.259 19.476 28.1553 19.4706 28.0453 19.4268ZM28.4235 17.6355L28.4202 18.238C28.4202 18.2516 28.4256 18.2646 28.4353 18.2742C28.4449 18.2839 28.4579 18.2893 28.4715 18.2893L28.6846 18.2909C28.7409 18.2911 28.7966 18.283 28.8486 18.2669C28.9006 18.2508 28.948 18.227 28.9878 18.1969C29.0277 18.1669 29.0594 18.1311 29.081 18.0917C29.1027 18.0523 29.1139 18.01 29.114 17.9672V17.9127C29.1142 17.8266 29.0695 17.7438 28.9896 17.6825C28.9097 17.6212 28.8011 17.5865 28.6878 17.5859L28.4747 17.5843C28.4611 17.5843 28.4481 17.5897 28.4385 17.5993C28.4289 17.6089 28.4235 17.622 28.4235 17.6355Z" fill="white"/>
<path d="M30.7042 17.8006L30.7186 19.3756C30.7186 19.43 30.6913 19.4568 30.6369 19.4557L30.4814 19.4509C30.4131 19.4487 30.3789 19.4135 30.3789 19.3451L30.3837 17.384C30.3837 17.3039 30.4243 17.2633 30.5055 17.2623L30.7618 17.2607C30.8484 17.2607 30.9055 17.3012 30.9333 17.3824L31.4284 18.8484C31.4321 18.8607 31.4397 18.8714 31.45 18.8789C31.4603 18.8865 31.4728 18.8905 31.4857 18.8905C31.4987 18.8905 31.5114 18.8865 31.5221 18.8789C31.5328 18.8714 31.5409 18.8607 31.5453 18.8484L32.0853 17.3568C32.1077 17.2948 32.1515 17.2639 32.2166 17.2639L32.5387 17.2623C32.6017 17.2623 32.6332 17.2938 32.6332 17.3568V19.3804C32.6332 19.4327 32.6071 19.4584 32.5547 19.4573L32.3464 19.4509C32.293 19.4487 32.2663 19.4215 32.2663 19.3692L32.2791 17.8407C32.2802 17.7381 32.2631 17.7349 32.2279 17.831L31.7889 19.0599C31.5816 19.6389 31.3782 19.6378 31.1784 19.0567L30.7442 17.7926C30.7175 17.7125 30.7042 17.7151 30.7042 17.8006Z" fill="white"/>
<path d="M34.4718 18.8132C34.4596 18.7598 34.4339 18.7105 34.3972 18.6698C34.3605 18.6292 34.3139 18.5985 34.2619 18.5808C33.9527 18.4783 33.5024 18.2764 33.4832 17.8887C33.448 17.1757 34.2443 17.1693 34.7169 17.3616C34.7799 17.3872 34.7992 17.431 34.7746 17.4929L34.7506 17.5554C34.7404 17.5818 34.721 17.6036 34.6959 17.6166C34.6708 17.6296 34.6418 17.6329 34.6144 17.6259C34.4157 17.573 33.9703 17.4609 33.8565 17.7108C33.8405 17.7457 33.8315 17.7835 33.8302 17.8218C33.8288 17.8602 33.8351 17.8984 33.8487 17.9342C33.8623 17.97 33.8829 18.0028 33.9093 18.0304C33.9356 18.0581 33.9673 18.0802 34.0023 18.0954C34.1882 18.1755 34.366 18.2615 34.5359 18.3533C35.0117 18.6097 34.9012 19.2634 34.4285 19.4188C34.1871 19.4978 33.9057 19.4973 33.5842 19.4172C33.4859 19.3926 33.4384 19.3291 33.4416 19.2265L33.4448 19.1352C33.4469 19.0562 33.4843 19.0321 33.5569 19.0631C33.7705 19.1528 33.9959 19.1806 34.2331 19.1464C34.4371 19.1165 34.5166 19.0054 34.4718 18.8132Z" fill="white"/>
<path d="M28.0384 17.3792L28.0432 19.4268C27.9887 19.5091 27.9439 19.4989 27.9086 19.3964C27.8969 19.3643 27.891 19.3248 27.891 19.2778C27.8889 18.6572 27.8958 18.0366 27.9118 17.416C27.9129 17.3552 27.9551 17.3429 28.0384 17.3792Z" fill="#232223"/>
<path d="M10.3926 17.6276C10.3926 17.6144 10.3978 17.6018 10.4071 17.5924C10.4164 17.5831 10.4291 17.5779 10.4422 17.5779H10.7579C10.9347 17.5779 11.1042 17.6481 11.2292 17.7731C11.3542 17.8981 11.4244 18.0676 11.4244 18.2444V18.4719C11.4244 18.6487 11.3542 18.8182 11.2292 18.9432C11.1042 19.0682 10.9347 19.1385 10.7579 19.1385H10.4422C10.4291 19.1385 10.4164 19.1332 10.4071 19.1239C10.3978 19.1146 10.3926 19.102 10.3926 19.0888V17.6276Z" fill="#333333"/>
<path d="M28.4212 17.6356C28.4212 17.622 28.4266 17.609 28.4362 17.5994C28.4458 17.5898 28.4588 17.5844 28.4724 17.5844L28.6855 17.586C28.7989 17.5865 28.9074 17.6213 28.9873 17.6825C29.0672 17.7438 29.112 17.8266 29.1117 17.9128V17.9673C29.1116 18.01 29.1004 18.0523 29.0788 18.0918C29.0571 18.1312 29.0254 18.1669 28.9856 18.197C28.9457 18.2271 28.8984 18.2508 28.8463 18.2669C28.7943 18.2831 28.7386 18.2912 28.6823 18.2909L28.4692 18.2893C28.4556 18.2893 28.4426 18.2839 28.433 18.2743C28.4234 18.2647 28.418 18.2517 28.418 18.2381L28.4212 17.6356Z" fill="#232223"/>
<path d="M7.03529 23.8057C7.1357 23.8164 7.1827 23.85 7.17629 23.9066L7.15706 24.0172C7.14745 24.0749 7.1138 24.1037 7.05612 24.1037H1.87296C1.86309 24.1035 1.85344 24.1008 1.84493 24.0958C1.83642 24.0908 1.82933 24.0837 1.82434 24.0752C1.81936 24.0666 1.81665 24.057 1.81646 24.0471C1.81628 24.0372 1.81863 24.0275 1.8233 24.0188L3.2717 21.4761C3.29947 21.427 3.3 21.3773 3.2733 21.3271L1.80567 18.6402C1.80234 18.6343 1.80066 18.6278 1.80079 18.6211C1.80092 18.6144 1.80286 18.6078 1.80642 18.6019C1.80998 18.5961 1.81503 18.5913 1.82108 18.5878C1.82713 18.5844 1.83397 18.5826 1.84092 18.5825L4.44452 18.5857C4.49792 18.5857 4.52463 18.6119 4.52463 18.6642L4.52623 18.826C4.52623 18.8645 4.50754 18.8837 4.47015 18.8837L2.42893 18.8805C2.3595 18.8805 2.34188 18.9104 2.37606 18.9702L3.68987 21.3351C3.71444 21.38 3.71391 21.4243 3.68827 21.4681L2.36645 23.7192C2.36132 23.728 2.35855 23.738 2.35841 23.7482C2.35827 23.7584 2.36077 23.7684 2.36566 23.7772C2.37055 23.786 2.37764 23.7932 2.38623 23.7983C2.39481 23.8033 2.40457 23.8058 2.41451 23.8057H7.03529Z" fill="#232223"/>
<path d="M41.2933 21.3816L42.6392 18.9542C42.6434 18.9467 42.6455 18.9382 42.6454 18.9295C42.6453 18.9209 42.6429 18.9125 42.6386 18.905C42.6342 18.8976 42.628 18.8914 42.6205 18.8871C42.613 18.8828 42.6046 18.8805 42.5959 18.8805L40.3673 18.8901C40.3606 18.8901 40.354 18.8888 40.3479 18.8862C40.3417 18.8836 40.3362 18.8798 40.3316 18.875C40.3269 18.8702 40.3233 18.8646 40.3209 18.8583C40.3185 18.8521 40.3174 18.8455 40.3176 18.8388L40.3272 18.6322C40.3276 18.6193 40.333 18.607 40.3423 18.5981C40.3516 18.5891 40.364 18.5841 40.3769 18.5841L43.1503 18.5809C43.1589 18.5809 43.1674 18.5832 43.1749 18.5875C43.1823 18.5918 43.1886 18.598 43.1929 18.6054C43.1973 18.6128 43.1996 18.6213 43.1998 18.6299C43.1999 18.6385 43.1977 18.647 43.1936 18.6546L41.7051 21.38C41.7013 21.3874 41.6994 21.3958 41.6997 21.4042C41.7 21.4126 41.7024 21.4208 41.7067 21.428L43.1904 24.03C43.1945 24.0376 43.1967 24.0461 43.1966 24.0547C43.1964 24.0633 43.1941 24.0718 43.1897 24.0792C43.1854 24.0866 43.1791 24.0928 43.1717 24.0971C43.1642 24.1014 43.1557 24.1037 43.1471 24.1037H37.8934C37.8868 24.1037 37.8802 24.1024 37.8741 24.0998C37.8679 24.0972 37.8624 24.0934 37.8577 24.0886C37.8531 24.0838 37.8495 24.0782 37.8471 24.0719C37.8447 24.0657 37.8436 24.0591 37.8438 24.0524L37.8502 23.8393C37.8506 23.8265 37.856 23.8142 37.8653 23.8053C37.8746 23.7963 37.887 23.7913 37.8999 23.7913L42.6088 23.8041C42.6175 23.8039 42.626 23.8015 42.6335 23.797C42.641 23.7925 42.6471 23.7861 42.6513 23.7785C42.6556 23.7709 42.6577 23.7622 42.6575 23.7535C42.6574 23.7448 42.6549 23.7363 42.6504 23.7288L41.2933 21.4312C41.289 21.4237 41.2867 21.4151 41.2867 21.4064C41.2867 21.3977 41.289 21.3891 41.2933 21.3816Z" fill="#232223"/>
<path d="M5.89948 21.6491C5.89841 22.1105 5.89788 22.5554 5.89788 22.9838C5.89788 23.1792 6.01858 23.3224 6.25998 23.4131L3.094 23.4115C3.02351 23.4115 3.00642 23.3816 3.04273 23.3218L4.11782 21.4905C4.14879 21.4381 4.14933 21.3858 4.11942 21.3335L3.0171 19.3595C2.97864 19.2923 2.9984 19.2586 3.07638 19.2586L4.44627 19.2634C4.50181 19.2634 4.52959 19.2912 4.52959 19.3467L4.53119 21.5434C4.53119 21.6203 4.56964 21.6582 4.64655 21.6571L5.89948 21.6491Z" fill="#333333"/>
<path d="M38.5645 23.4259L38.84 23.2385C38.8849 23.2086 38.9073 23.1664 38.9073 23.1119L38.9137 21.6315L40.2227 21.6443C40.2847 21.6454 40.3157 21.6149 40.3157 21.553V19.3467C40.3157 19.2901 40.344 19.2618 40.4006 19.2618L41.9323 19.2602C42.006 19.2602 42.0252 19.2922 41.99 19.3563L40.8877 21.3303C40.8588 21.3837 40.8594 21.4365 40.8893 21.4889L41.9643 23.3202C41.9996 23.38 41.9825 23.4099 41.9131 23.4099L38.5645 23.4259Z" fill="#333333"/>
<path d="M38.9136 21.6314L38.9072 23.1119C38.9072 23.1664 38.8848 23.2086 38.8399 23.2385L38.5644 23.4259L22.4797 31.4129C22.4582 31.4234 22.4345 31.4289 22.4104 31.4289C22.3862 31.4289 22.3623 31.4234 22.3403 31.4129C17.3382 28.9167 12.3313 26.4156 7.3196 23.9098C7.26192 23.8809 7.21439 23.8799 7.177 23.9066C7.18341 23.85 7.13641 23.8163 7.03601 23.8056L6.26054 23.4131C6.01914 23.3223 5.89844 23.1792 5.89844 22.9837C5.89844 22.5554 5.89897 22.1105 5.90004 21.6491L6.91104 21.6378C6.97299 21.6378 7.00396 21.6688 7.00396 21.7308L7.00236 22.6248C7.00129 22.7071 7.03761 22.7669 7.11131 22.8043L22.2522 30.3827C22.3024 30.4073 22.3532 30.4073 22.4044 30.3827L37.5854 22.7786C37.6431 22.7498 37.6719 22.7028 37.6719 22.6376L37.6703 21.7228C37.6703 21.6683 37.6981 21.6405 37.7536 21.6395L38.9136 21.6314Z" fill="white"/>
<path d="M15.9799 23.309L16.1337 23.3106C16.2448 23.3117 16.2592 23.349 16.1769 23.4227C16.0434 23.5456 16.0028 23.685 16.0552 23.8409C16.0808 23.9157 16.0594 23.9328 15.9911 23.8922C15.8458 23.8078 15.6925 23.8089 15.5312 23.8954C15.4437 23.9424 15.4186 23.9205 15.4559 23.8297C15.5222 23.6631 15.4752 23.5317 15.3149 23.4356C15.2017 23.3683 15.2108 23.3287 15.3422 23.317L15.5232 23.3026C15.5469 23.3006 15.5697 23.2928 15.5895 23.2799C15.6094 23.2671 15.6257 23.2495 15.637 23.2289L15.7139 23.0927C15.7523 23.0243 15.7855 23.0265 15.8132 23.0991L15.8645 23.2289C15.8848 23.2823 15.9232 23.309 15.9799 23.309Z" fill="white"/>
<path d="M29.1655 23.3058L29.3097 23.3106C29.4155 23.3138 29.4278 23.3496 29.3466 23.4179C29.2195 23.5269 29.1693 23.6604 29.196 23.8185C29.2088 23.89 29.1826 23.9093 29.1175 23.8762C28.9914 23.8121 28.8526 23.8153 28.7009 23.8858C28.624 23.921 28.6021 23.8996 28.6352 23.8217C28.7046 23.655 28.6501 23.5263 28.4718 23.4355C28.428 23.412 28.4184 23.3789 28.4429 23.3362C28.4632 23.3042 28.4921 23.2929 28.5294 23.3026C28.7174 23.3538 28.8307 23.2913 28.8691 23.1151C28.8862 23.0339 28.9167 23.0291 28.9604 23.1007L29.0438 23.2353C29.0715 23.2801 29.1121 23.3036 29.1655 23.3058Z" fill="white"/>
<path d="M18.8265 24.5828L19.3392 24.5764C19.35 24.5766 19.3604 24.5802 19.369 24.5867C19.3776 24.5932 19.3839 24.6022 19.3871 24.6125C19.3903 24.6227 19.3902 24.6338 19.3868 24.644C19.3833 24.6542 19.3768 24.663 19.368 24.6693L18.9499 24.9641C18.9409 24.9707 18.9343 24.9801 18.9311 24.9908C18.9279 25.0015 18.9283 25.013 18.9322 25.0234L19.0957 25.5073C19.0995 25.5178 19.0998 25.5292 19.0965 25.5399C19.0932 25.5506 19.0865 25.5599 19.0775 25.5665C19.0684 25.573 19.0574 25.5764 19.0463 25.5761C19.0351 25.5758 19.0243 25.5719 19.0156 25.565L18.607 25.2573C18.598 25.2504 18.5871 25.2467 18.5758 25.2467C18.5645 25.2467 18.5535 25.2504 18.5445 25.2573L18.1343 25.5634C18.1256 25.5696 18.115 25.573 18.1042 25.5729C18.0934 25.5728 18.0829 25.5693 18.0742 25.5629C18.0655 25.5565 18.059 25.5476 18.0557 25.5373C18.0524 25.527 18.0525 25.5159 18.0558 25.5057L18.2209 25.0218C18.2246 25.0112 18.2248 24.9996 18.2213 24.9889C18.2178 24.9782 18.2109 24.9689 18.2016 24.9625L17.7851 24.6677C17.7762 24.6614 17.7696 24.6524 17.7662 24.642C17.7628 24.6316 17.7628 24.6205 17.7662 24.6101C17.7696 24.5997 17.7762 24.5907 17.7851 24.5844C17.7939 24.578 17.8046 24.5747 17.8155 24.5748L18.3266 24.5812C18.3376 24.5814 18.3483 24.5781 18.3572 24.5717C18.3662 24.5654 18.3729 24.5564 18.3763 24.5459L18.5285 24.0573C18.5318 24.0469 18.5383 24.0378 18.5471 24.0314C18.5559 24.025 18.5665 24.0215 18.5774 24.0215C18.5882 24.0215 18.5988 24.025 18.6076 24.0314C18.6164 24.0378 18.6229 24.0469 18.6262 24.0573L18.7784 24.5459C18.7815 24.5564 18.7878 24.5656 18.7964 24.5722C18.8051 24.5789 18.8156 24.5826 18.8265 24.5828Z" fill="white"/>
<path d="M26.3435 24.5843L26.8659 24.5747C26.8763 24.5748 26.8864 24.5782 26.8948 24.5843C26.9032 24.5905 26.9094 24.5992 26.9126 24.6091C26.9158 24.6191 26.9158 24.6297 26.9126 24.6396C26.9094 24.6496 26.9031 24.6582 26.8947 24.6644L26.4653 24.9624C26.4565 24.9687 26.4499 24.9778 26.4467 24.9883C26.4436 24.9987 26.4439 25.0099 26.4477 25.0201L26.6191 25.5136C26.6227 25.5236 26.6229 25.5346 26.6197 25.5448C26.6166 25.555 26.6102 25.5639 26.6016 25.5702C26.5929 25.5765 26.5825 25.5799 26.5718 25.5798C26.5611 25.5797 26.5507 25.5761 26.5422 25.5696L26.1256 25.254C26.1169 25.2472 26.1062 25.2436 26.0952 25.2436C26.0842 25.2436 26.0735 25.2472 26.0648 25.254L25.6482 25.5696C25.6397 25.5761 25.6293 25.5797 25.6186 25.5798C25.6079 25.5799 25.5975 25.5765 25.5888 25.5702C25.5802 25.5639 25.5738 25.555 25.5707 25.5448C25.5675 25.5346 25.5677 25.5236 25.5713 25.5136L25.7427 25.0201C25.7465 25.0099 25.7468 24.9987 25.7437 24.9883C25.7405 24.9778 25.7339 24.9687 25.7251 24.9624L25.2957 24.6644C25.2873 24.6582 25.281 24.6496 25.2778 24.6396C25.2746 24.6297 25.2746 24.6191 25.2778 24.6091C25.281 24.5992 25.2872 24.5905 25.2956 24.5843C25.304 24.5782 25.3141 24.5748 25.3245 24.5747L25.8469 24.5843C25.8579 24.5847 25.8687 24.5815 25.8777 24.5752C25.8867 24.5688 25.8933 24.5596 25.8965 24.549L26.0471 24.0491C26.0499 24.0385 26.0561 24.0291 26.0648 24.0223C26.0735 24.0156 26.0842 24.012 26.0952 24.012C26.1062 24.012 26.1169 24.0156 26.1256 24.0223C26.1343 24.0291 26.1405 24.0385 26.1433 24.0491L26.2939 24.549C26.2971 24.5596 26.3037 24.5688 26.3127 24.5752C26.3217 24.5815 26.3325 24.5847 26.3435 24.5843Z" fill="white"/>
<path d="M22.7261 25.6562L23.721 25.6386C23.732 25.6378 23.743 25.6407 23.7522 25.6468C23.7614 25.6529 23.7682 25.6619 23.7717 25.6724C23.7752 25.6829 23.7751 25.6942 23.7715 25.7046C23.7678 25.715 23.7608 25.7239 23.7515 25.7299L22.9359 26.3019C22.9271 26.3079 22.9205 26.3166 22.917 26.3267C22.9136 26.3368 22.9135 26.3478 22.9167 26.358L23.2404 27.3001C23.2439 27.3101 23.2441 27.3211 23.241 27.3313C23.2378 27.3415 23.2314 27.3505 23.2228 27.3568C23.2142 27.3631 23.2037 27.3664 23.193 27.3663C23.1823 27.3662 23.172 27.3626 23.1635 27.3561L22.3688 26.7569C22.36 26.7502 22.3493 26.7465 22.3383 26.7465C22.3273 26.7465 22.3166 26.7502 22.3079 26.7569L21.5132 27.3561C21.5047 27.3626 21.4943 27.3662 21.4836 27.3663C21.4729 27.3664 21.4625 27.3631 21.4538 27.3568C21.4452 27.3505 21.4388 27.3415 21.4357 27.3313C21.4325 27.3211 21.4327 27.3101 21.4363 27.3001L21.7599 26.358C21.7632 26.3478 21.7631 26.3368 21.7596 26.3267C21.7561 26.3166 21.7495 26.3079 21.7407 26.3019L20.9252 25.7299C20.9159 25.7239 20.9088 25.715 20.9052 25.7046C20.9015 25.6942 20.9014 25.6829 20.9049 25.6724C20.9084 25.6619 20.9153 25.6529 20.9244 25.6468C20.9336 25.6407 20.9446 25.6378 20.9556 25.6386L21.9506 25.6562C21.9613 25.6563 21.9718 25.6529 21.9805 25.6466C21.9892 25.6402 21.9955 25.6312 21.9986 25.621L22.2903 24.6692C22.293 24.6586 22.2992 24.6492 22.3079 24.6425C22.3166 24.6357 22.3273 24.6321 22.3383 24.6321C22.3493 24.6321 22.36 24.6357 22.3687 24.6425C22.3774 24.6492 22.3836 24.6586 22.3864 24.6692L22.678 25.621C22.6811 25.6312 22.6875 25.6402 22.6961 25.6466C22.7048 25.6529 22.7153 25.6563 22.7261 25.6562Z" fill="white"/>
</g>
</svg>
