<svg width="68" height="50" viewBox="0 0 68 50" fill="none" xmlns="http://www.w3.org/2000/svg">
<g opacity="0.8">
<path d="M5.9668 29.8145L5.9949 33.2731C5.9966 33.36 6.04002 33.4034 6.12517 33.4034L61.6218 33.4187C61.7154 33.4187 61.7631 33.3719 61.7648 33.2782L61.798 29.7583" stroke="#919191" stroke-width="2"/>
<path d="M60.1739 23.712L58.207 23.6916" stroke="#F7988E" stroke-width="2"/>
<path d="M9.28776 23.6942C8.67812 23.5835 8.09912 23.5962 7.55078 23.7325" stroke="#F7988E" stroke-width="2"/>
<path d="M61.798 29.7583L61.7904 24.389C61.7904 24.2987 61.7461 24.2536 61.6575 24.2536L6.10984 24.2587C6.03151 24.2587 5.99234 24.2978 5.99234 24.3762L5.9668 29.8145" stroke="#898989" stroke-width="2"/>
<path d="M58.2039 23.6916C58.1358 24.48 57.9272 24.4689 57.5781 23.6584" stroke="#F7F7F7" stroke-width="2"/>
<path d="M9.86951 23.6533C9.94444 23.9257 9.88058 24.073 9.67793 24.0952C9.58768 24.1054 9.51871 24.0722 9.47102 23.9955L9.28711 23.6941" stroke="#F7F7F7" stroke-width="2"/>
<path d="M59.6094 36.839L64.948 36.8135C65.0587 36.8135 65.086 36.7658 65.0298 36.6704L63.3158 33.7508C63.2681 33.6673 63.2673 33.583 63.3132 33.4979L65.0707 30.3509C65.1268 30.2487 65.0962 30.1976 64.9787 30.1976L62.5367 30.2002C62.4464 30.2002 62.4013 30.2453 62.4013 30.3356V33.853C62.4013 33.9517 62.3519 34.0003 62.2532 33.9986L60.1662 33.9781" stroke="white" stroke-width="2"/>
<path d="M7.53196 34.0062L5.53443 34.019C5.41182 34.0207 5.35052 33.9602 5.35052 33.8376L5.34796 30.3355C5.34796 30.247 5.30369 30.2027 5.21513 30.2027L3.03113 30.195C2.90682 30.195 2.87532 30.2487 2.93662 30.356L4.69404 33.503C4.74172 33.5864 4.74087 33.6699 4.69149 33.7533L2.97749 36.673C2.91959 36.7683 2.94684 36.816 3.05923 36.816L8.1067 36.8186" stroke="white" stroke-width="2"/>
<path d="M8.10742 36.8186L9.34374 37.4444" stroke="#FFA096" stroke-width="2"/>
<path d="M9.34336 37.4444H1.97651C1.96066 37.4446 1.9451 37.4405 1.93141 37.4325C1.91773 37.4245 1.90642 37.4129 1.89863 37.3989C1.89083 37.3848 1.88685 37.3689 1.88707 37.3527C1.88729 37.3364 1.89171 37.3205 1.89988 37.3064L4.00725 33.7175C4.04812 33.6477 4.04897 33.577 4.0098 33.5055L1.9152 29.7352C1.86071 29.6399 1.88881 29.5922 1.9995 29.5922L5.25379 29.5973C5.31339 29.5973 5.34319 29.5666 5.34319 29.5053L5.34064 29.2473C5.34064 29.1639 5.29806 29.1222 5.21292 29.1222L1.06204 29.1171C1.05096 29.1172 1.04006 29.1202 1.03041 29.1256C1.02077 29.131 1.01271 29.1388 1.00704 29.1481C1.00136 29.1574 0.998267 29.1679 0.998058 29.1786C0.997849 29.1892 1.00053 29.1997 1.00584 29.209L3.34566 33.4927C3.38823 33.5728 3.38738 33.652 3.34311 33.7303L1.03394 37.7841C1.02651 37.798 1.02276 37.8135 1.02305 37.8293C1.02334 37.845 1.02767 37.8604 1.03561 37.874C1.04356 37.8876 1.05486 37.8989 1.06843 37.9068C1.082 37.9148 1.09739 37.9192 1.11313 37.9195H9.37657C9.46853 37.9195 9.52217 37.8735 9.5375 37.7815L9.56815 37.6053" stroke="white" stroke-width="2"/>
<path d="M9.34375 37.4444C9.50382 37.4614 9.57875 37.515 9.56854 37.6053" stroke="#913128" stroke-width="2"/>
<path d="M59.6094 36.839L60.0487 36.5401C60.1203 36.4925 60.156 36.4252 60.156 36.3383L60.1662 33.9781" stroke="#993A30" stroke-width="2"/>
<path d="M63.9606 33.5796C63.9536 33.5916 63.95 33.6053 63.95 33.6192C63.95 33.6331 63.9536 33.6467 63.9606 33.6588L66.1241 37.3218C66.1313 37.3337 66.1352 37.3473 66.1355 37.3612C66.1358 37.3751 66.1323 37.3888 66.1256 37.401C66.1189 37.4132 66.1091 37.4233 66.0971 37.4305C66.0852 37.4377 66.0716 37.4416 66.0577 37.4418L58.5504 37.4214C58.5298 37.4214 58.51 37.4294 58.4953 37.4437C58.4805 37.458 58.4719 37.4775 58.4712 37.498L58.461 37.8378C58.4606 37.8484 58.4624 37.8589 58.4663 37.8689C58.4701 37.8788 58.4759 37.8878 58.4832 37.8954C58.4906 37.903 58.4995 37.9091 58.5093 37.9132C58.519 37.9174 58.5295 37.9195 58.5402 37.9195H66.916C66.9297 37.9194 66.9432 37.9158 66.9552 37.909C66.9671 37.9021 66.977 37.8923 66.984 37.8804C66.9909 37.8685 66.9947 37.8551 66.9948 37.8413C66.995 37.8276 66.9916 37.814 66.985 37.802L64.6196 33.6537C64.6127 33.6422 64.6089 33.6291 64.6084 33.6157C64.608 33.6023 64.611 33.589 64.617 33.577L66.9901 29.232C66.9967 29.22 67.0001 29.2064 67 29.1927C66.9998 29.179 66.996 29.1655 66.9891 29.1536C66.9821 29.1418 66.9722 29.1319 66.9603 29.1251C66.9484 29.1182 66.9349 29.1146 66.9211 29.1145L62.4995 29.1196C62.4789 29.1196 62.4591 29.1276 62.4444 29.1419C62.4296 29.1562 62.4209 29.1757 62.4203 29.1963L62.4049 29.5258C62.4046 29.5364 62.4064 29.547 62.4102 29.5569C62.4141 29.5668 62.4198 29.5758 62.4272 29.5834C62.4346 29.5911 62.4435 29.5971 62.4532 29.6013C62.463 29.6054 62.4735 29.6075 62.4841 29.6075L66.0373 29.5922C66.051 29.5923 66.0645 29.5959 66.0764 29.6028C66.0884 29.6096 66.0983 29.6194 66.1053 29.6313C66.1122 29.6432 66.116 29.6566 66.1161 29.6704C66.1163 29.6841 66.1129 29.6977 66.1063 29.7097L63.9606 33.5796Z" stroke="white" stroke-width="2"/>
<path d="M44.3477 15.1395V18.3325C44.3477 18.3643 44.3603 18.3949 44.3828 18.4174C44.4053 18.4399 44.4359 18.4525 44.4677 18.4525H45.727C45.9484 18.4525 46.1676 18.4118 46.3722 18.3328C46.5767 18.2537 46.7626 18.1378 46.9191 17.9917C47.0757 17.8456 47.1999 17.6721 47.2846 17.4812C47.3693 17.2903 47.4129 17.0857 47.4129 16.879V16.5929C47.4129 16.3863 47.3693 16.1817 47.2846 15.9908C47.1999 15.7999 47.0757 15.6264 46.9191 15.4803C46.7626 15.3342 46.5767 15.2183 46.3722 15.1392C46.1676 15.0601 45.9484 15.0194 45.727 15.0194H44.4677C44.4359 15.0194 44.4053 15.0321 44.3828 15.0546C44.3603 15.0771 44.3477 15.1077 44.3477 15.1395Z" stroke="#222222" stroke-width="2"/>
<path d="M61.2563 24.8181C61.2563 24.7998 61.249 24.7822 61.2361 24.7693C61.2231 24.7564 61.2056 24.7491 61.1873 24.7491H6.69202C6.67372 24.7491 6.65618 24.7564 6.64325 24.7693C6.63031 24.7822 6.62305 24.7998 6.62305 24.8181V32.6243C6.62305 32.6426 6.63031 32.6601 6.64325 32.673C6.65618 32.686 6.67372 32.6932 6.69202 32.6932H61.1873C61.2056 32.6932 61.2231 32.686 61.2361 32.673C61.249 32.6601 61.2563 32.6426 61.2563 32.6243V24.8181Z" stroke="#919191" stroke-width="2"/>
<path d="M60.6615 25.4183C60.6615 25.4 60.6542 25.3825 60.6413 25.3696C60.6283 25.3566 60.6108 25.3494 60.5925 25.3494H7.31311C7.29482 25.3494 7.27727 25.3566 7.26434 25.3696C7.25141 25.3825 7.24414 25.4 7.24414 25.4183V32.0444C7.24414 32.0627 7.25141 32.0802 7.26434 32.0932C7.27727 32.1061 7.29482 32.1134 7.31311 32.1134H60.5925C60.6108 32.1134 60.6283 32.1061 60.6413 32.0932C60.6542 32.0802 60.6615 32.0627 60.6615 32.0444V25.4183Z" stroke="white" stroke-width="2"/>
<path d="M14.1465 27.117V30.3969C14.1465 30.4226 14.1567 30.4473 14.1749 30.4655C14.1931 30.4837 14.2178 30.4939 14.2436 30.4939H15.2934C15.7358 30.4939 16.1601 30.33 16.4729 30.0383C16.7857 29.7466 16.9614 29.3509 16.9614 28.9383V28.5756C16.9614 28.163 16.7857 27.7673 16.4729 27.4756C16.1601 27.1839 15.7358 27.02 15.2934 27.02H14.2436C14.2178 27.02 14.1931 27.0302 14.1749 27.0484C14.1567 27.0666 14.1465 27.0913 14.1465 27.117Z" stroke="white" stroke-width="2"/>
<path d="M18.275 27.1374C18.1268 27.0949 18.0561 27.2209 18.0629 27.5155C18.0834 28.4725 18.0885 29.4338 18.0783 30.3994C18.0779 30.4257 18.0829 30.4519 18.093 30.4763C18.1031 30.5006 18.118 30.5227 18.1369 30.5411C18.1558 30.5595 18.1782 30.5739 18.2028 30.5833C18.2274 30.5928 18.2537 30.5971 18.2801 30.5961C18.4061 30.5927 18.4231 30.5654 18.3312 30.5143" stroke="#2B2B2B" stroke-width="2"/>
<path d="M18.3296 30.5144L20.1305 30.5118C20.2616 30.5118 20.3272 30.4462 20.3272 30.3151L20.3297 30.1899C20.3314 30.0639 20.2684 30.0009 20.1407 30.0009L18.9887 29.9984C18.9711 29.9984 18.9542 29.9914 18.9417 29.9789C18.9293 29.9665 18.9223 29.9496 18.9223 29.932L18.9299 28.9817C18.9299 28.9648 18.9369 28.9485 18.9494 28.9366C18.9618 28.9246 18.9787 28.9179 18.9963 28.9179L20.0232 28.9153C20.1594 28.9153 20.2361 28.8472 20.2531 28.711L20.2659 28.6318C20.2684 28.6114 20.2666 28.5908 20.2606 28.5712C20.2545 28.5516 20.2444 28.5334 20.2309 28.518C20.2174 28.5026 20.2008 28.4902 20.1822 28.4816C20.1636 28.473 20.1433 28.4685 20.1228 28.4683L18.9836 28.4427C18.9707 28.4427 18.9583 28.4376 18.9492 28.4285C18.9401 28.4194 18.935 28.4071 18.935 28.3942L18.9223 27.5896C18.9223 27.5504 18.9427 27.5308 18.9836 27.5308L20.1407 27.5232C20.185 27.5225 20.2272 27.5047 20.2582 27.4736C20.2893 27.4426 20.3067 27.4007 20.3067 27.3571L20.3093 27.186C20.311 27.0685 20.2539 27.0097 20.1381 27.0097H18.4395C18.3969 27.0097 18.3611 27.0259 18.3322 27.0583C18.3101 27.0838 18.2905 27.1102 18.2734 27.1375" stroke="white" stroke-width="2"/>
<path d="M18.3296 30.5143L18.2734 27.1374" stroke="#919191" stroke-width="2"/>
<path d="M22.2861 27.5589C22.5636 27.4551 22.8804 27.4695 23.2363 27.6024C23.3708 27.6517 23.473 27.6143 23.5428 27.49L23.576 27.4287C23.6441 27.306 23.6135 27.2192 23.4841 27.1681C22.6871 26.8463 21.2745 26.9127 21.5121 28.1362C21.6245 28.7237 22.3065 28.946 22.7816 29.1708C23.0405 29.2951 23.1282 29.4883 23.0447 29.7506C23.0274 29.8053 22.9965 29.8547 22.9549 29.8941C22.9133 29.9334 22.8625 29.9614 22.8072 29.9754C22.4053 30.0776 21.9829 30.0409 21.5402 29.8655C21.4635 29.8349 21.4261 29.8604 21.4278 29.9422V30.2053C21.4278 30.3279 21.4857 30.4079 21.6015 30.4454C22.2273 30.6421 23.2797 30.6829 23.5888 29.9473C24.0614 28.8336 22.7969 28.6548 22.1967 28.2154C22.1415 28.1756 22.0982 28.1215 22.0714 28.059C22.0446 27.9964 22.0353 27.9278 22.0445 27.8604C22.0537 27.7929 22.081 27.7293 22.1235 27.6762C22.1661 27.6231 22.2223 27.5826 22.2861 27.5589Z" stroke="white" stroke-width="2"/>
<path d="M25.5312 27.1472C25.5311 27.1297 25.5277 27.1125 25.521 27.0964C25.5143 27.0803 25.5045 27.0656 25.4921 27.0533C25.4797 27.041 25.4651 27.0313 25.449 27.0246C25.4328 27.018 25.4156 27.0146 25.3981 27.0146L25.0916 27.0151C25.0741 27.0152 25.0569 27.0186 25.0408 27.0253C25.0247 27.032 25.01 27.0418 24.9977 27.0542C24.9854 27.0665 24.9757 27.0812 24.969 27.0973C24.9624 27.1135 24.959 27.1307 24.959 27.1482L24.9646 30.3769C24.9646 30.3943 24.9681 30.4116 24.9748 30.4277C24.9815 30.4438 24.9913 30.4584 25.0037 30.4708C25.016 30.4831 25.0307 30.4928 25.0468 30.4995C25.0629 30.5061 25.0802 30.5095 25.0977 30.5095L25.4042 30.509C25.4216 30.5089 25.4389 30.5055 25.455 30.4988C25.4711 30.4921 25.4857 30.4823 25.498 30.4699C25.5104 30.4575 25.5201 30.4429 25.5268 30.4268C25.5334 30.4106 25.5368 30.3933 25.5368 30.3759L25.5312 27.1472Z" stroke="white" stroke-width="2"/>
<path d="M29.1701 29.2602L29.1778 29.8349C29.1795 29.9388 29.1292 29.9975 29.0271 30.0111C28.5698 30.0673 28.0308 30.1082 27.7473 29.6535C27.0244 28.4862 27.7933 27.1068 29.2953 27.5972C29.4332 27.6415 29.5388 27.6015 29.612 27.4772L29.6682 27.3827C29.7346 27.2737 29.7082 27.1962 29.589 27.1502C28.3629 26.6751 26.9682 27.1579 26.9018 28.6548C26.8226 30.4301 28.1509 30.8311 29.6197 30.3969C29.715 30.3679 29.7636 30.3032 29.7653 30.2027L29.7704 28.7518C29.7704 28.6514 29.721 28.6011 29.6222 28.6011L28.6771 28.5986C28.5324 28.5986 28.4591 28.6709 28.4574 28.8157L28.4549 28.9153C28.4532 29.0822 28.5349 29.1588 28.7001 29.1452L29.0143 29.1171C29.1182 29.1086 29.1701 29.1563 29.1701 29.2602Z" stroke="white" stroke-width="2"/>
<path d="M31.8097 27.9242L33.3245 30.356C33.3875 30.4565 33.4777 30.5067 33.5952 30.5067H33.9273C34.0414 30.5067 34.0984 30.4497 34.0984 30.3356L34.0959 27.2064C34.0959 27.0685 34.0269 27.0004 33.889 27.0021L33.7511 27.0047C33.727 27.0046 33.7032 27.0095 33.6811 27.0189C33.6589 27.0283 33.6388 27.0421 33.6219 27.0594C33.605 27.0768 33.5917 27.0973 33.5828 27.1199C33.5738 27.1426 33.5694 27.1668 33.5697 27.1911L33.6055 29.4237C33.6089 29.6757 33.5441 29.6944 33.4113 29.4799C32.9703 28.768 32.519 28.0298 32.0575 27.2652C31.894 26.9944 31.6284 26.9638 31.3448 27.0149C31.2495 27.0319 31.2018 27.0889 31.2018 27.186L31.1992 30.3867C31.1992 30.4701 31.2401 30.5118 31.3218 30.5118L31.6079 30.5144C31.6445 30.5144 31.6796 30.4998 31.7055 30.474C31.7313 30.4481 31.7459 30.413 31.7459 30.3764L31.7305 27.9472C31.7288 27.8467 31.7552 27.8391 31.8097 27.9242Z" stroke="white" stroke-width="2"/>
<path d="M38.0898 27.6202C38.0898 27.5918 38.1011 27.5645 38.1212 27.5444C38.1413 27.5242 38.1686 27.5129 38.197 27.5129H39.3797C39.394 27.5129 39.4082 27.5101 39.4214 27.5045C39.4346 27.499 39.4465 27.4909 39.4565 27.4806C39.4665 27.4704 39.4743 27.4583 39.4796 27.4449C39.4848 27.4316 39.4874 27.4174 39.487 27.4031L39.4768 27.1196C39.4761 27.0916 39.4645 27.0649 39.4445 27.0453C39.4244 27.0258 39.3975 27.0148 39.3695 27.0148L37.6249 27.0072C37.6108 27.0072 37.5968 27.0099 37.5838 27.0153C37.5708 27.0207 37.559 27.0286 37.549 27.0386C37.539 27.0486 37.5311 27.0604 37.5257 27.0734C37.5204 27.0864 37.5176 27.1004 37.5176 27.1145L37.5227 30.3943C37.5227 30.4223 37.5336 30.4492 37.5532 30.4693C37.5728 30.4893 37.5994 30.5009 37.6274 30.5016L37.9901 30.5041C38.0044 30.5045 38.0187 30.5019 38.032 30.4967C38.0453 30.4915 38.0574 30.4836 38.0677 30.4736C38.0779 30.4636 38.086 30.4517 38.0916 30.4385C38.0971 30.4253 38.1 30.4112 38.1 30.3968L38.0898 29.2116C38.0898 29.1832 38.1011 29.1559 38.1212 29.1357C38.1413 29.1156 38.1686 29.1043 38.197 29.1043L39.321 29.0967C39.3353 29.0967 39.3494 29.0938 39.3626 29.0883C39.3758 29.0827 39.3878 29.0746 39.3978 29.0643C39.4078 29.0541 39.4156 29.042 39.4208 29.0287C39.4261 29.0154 39.4286 29.0011 39.4283 28.9868L39.4155 28.6854C39.4142 28.6578 39.4023 28.6319 39.3823 28.6128C39.3623 28.5938 39.3358 28.5832 39.3082 28.5832L38.2073 28.596C38.1792 28.596 38.1523 28.5851 38.1323 28.5655C38.1122 28.5459 38.1006 28.5193 38.1 28.4913L38.0898 27.6202Z" stroke="white" stroke-width="2"/>
<path d="M41.2849 27.1732C41.2849 27.1299 41.2677 27.0883 41.237 27.0576C41.2064 27.027 41.1648 27.0097 41.1214 27.0097H40.9018C40.8584 27.0097 40.8168 27.027 40.7862 27.0576C40.7555 27.0883 40.7383 27.1299 40.7383 27.1732V30.3458C40.7383 30.3891 40.7555 30.4307 40.7862 30.4614C40.8168 30.492 40.8584 30.5092 40.9018 30.5092H41.1214C41.1648 30.5092 41.2064 30.492 41.237 30.4614C41.2677 30.4307 41.2849 30.3891 41.2849 30.3458V27.1732Z" stroke="white" stroke-width="2"/>
<path d="M42.8294 27.1987C42.6965 27.1408 42.6293 27.1604 42.6276 27.2575C42.602 28.2469 42.5909 29.2363 42.5944 30.2257C42.5944 30.3006 42.6037 30.3636 42.6224 30.4147C42.6786 30.5782 42.7502 30.5944 42.837 30.4632" stroke="#2B2B2B" stroke-width="2"/>
<path d="M42.8373 30.4633C43.0127 30.5331 43.1779 30.5416 43.3329 30.4888C43.4112 30.4616 43.4504 30.4062 43.4504 30.3228L43.4376 29.2372C43.4359 29.1367 43.4844 29.0924 43.5832 29.1043L43.8386 29.1299C43.9357 29.1401 44.0089 29.1878 44.0583 29.2729L44.6714 30.3202C44.7429 30.4411 44.8485 30.5033 44.9881 30.5067L45.2487 30.5093C45.3968 30.511 45.4309 30.4497 45.3508 30.3253L44.5718 29.1171C44.5156 29.0286 44.5326 28.957 44.6228 28.9025L44.7863 28.8055C44.8826 28.7506 44.9595 28.6667 45.006 28.5654C45.3611 27.7991 45.0034 27.1324 44.1426 27.0506C43.7271 27.0115 43.3286 26.9995 42.9472 27.0149C42.9063 27.0166 42.8748 27.0336 42.8526 27.0659C42.8254 27.1017 42.8177 27.146 42.8297 27.1988" stroke="white" stroke-width="2"/>
<path d="M42.8358 30.4632L42.8281 27.1987" stroke="#919191" stroke-width="2"/>
<path d="M47.1429 27.8578L47.8352 29.8732C48.1536 30.7996 48.478 30.8013 48.8084 29.8783L49.5083 27.9191C49.5645 27.7658 49.5918 27.7709 49.59 27.9344L49.5696 30.3713C49.5696 30.4548 49.6122 30.4982 49.6973 30.5016L50.0294 30.5118C50.1128 30.5135 50.1546 30.4726 50.1546 30.3892V27.163C50.1546 27.0625 50.1043 27.0123 50.0039 27.0123L49.4904 27.0148C49.3866 27.0148 49.3167 27.0642 49.281 27.163L48.4201 29.5411C48.4131 29.5607 48.4001 29.5777 48.3831 29.5897C48.366 29.6017 48.3458 29.6082 48.3252 29.6082C48.3046 29.6082 48.2846 29.6017 48.2682 29.5897C48.2518 29.5777 48.2397 29.5607 48.2337 29.5411L47.4444 27.2039C47.4001 27.0744 47.309 27.0097 47.171 27.0097L46.7623 27.0123C46.6329 27.014 46.5682 27.0787 46.5682 27.2064L46.5605 30.333C46.5605 30.442 46.615 30.4982 46.724 30.5016L46.9718 30.5092C47.0587 30.5109 47.1021 30.4684 47.1021 30.3815L47.0791 27.8706C47.0791 27.7343 47.1004 27.7301 47.1429 27.8578Z" stroke="white" stroke-width="2"/>
<path d="M53.0861 29.4849C53.1576 29.7915 53.0307 29.9686 52.7055 30.0162C52.3274 30.0707 51.9681 30.0265 51.6275 29.8834C51.5117 29.834 51.4521 29.8723 51.4487 29.9984L51.4436 30.144C51.4385 30.3074 51.5143 30.4088 51.6709 30.4479C52.1835 30.5757 52.6322 30.5765 53.0171 30.4505C53.7706 30.2027 53.9469 29.1605 53.1882 28.7518C52.9175 28.6054 52.6339 28.4683 52.3376 28.3406C52.2818 28.3163 52.2313 28.2811 52.1892 28.237C52.1472 28.1929 52.1144 28.1408 52.0927 28.0837C52.0711 28.0266 52.061 27.9656 52.0631 27.9045C52.0653 27.8433 52.0796 27.7831 52.1052 27.7275C52.2865 27.329 52.9967 27.5078 53.3134 27.5921C53.3571 27.6033 53.4033 27.598 53.4434 27.5772C53.4834 27.5565 53.5144 27.5218 53.5305 27.4797L53.5688 27.3801C53.608 27.2813 53.5774 27.2115 53.4769 27.1707C52.7233 26.8641 51.4538 26.8743 51.51 28.011C51.5407 28.6292 52.2584 28.9511 52.7514 29.1145C52.8343 29.1428 52.9086 29.1916 52.9672 29.2564C53.0257 29.3213 53.0667 29.3999 53.0861 29.4849Z" stroke="white" stroke-width="2"/>
<path d="M14.6992 27.5947V29.9243C14.6992 29.9453 14.7076 29.9654 14.7224 29.9803C14.7373 29.9951 14.7574 30.0035 14.7784 30.0035H15.2816C15.5634 30.0035 15.8337 29.8915 16.033 29.6922C16.2323 29.493 16.3442 29.2227 16.3442 28.9408V28.5781C16.3442 28.2963 16.2323 28.026 16.033 27.8267C15.8337 27.6275 15.5634 27.5155 15.2816 27.5155H14.7784C14.7574 27.5155 14.7373 27.5238 14.7224 27.5387C14.7076 27.5535 14.6992 27.5737 14.6992 27.5947Z" stroke="white" stroke-width="2"/>
<path d="M43.4387 27.6075L43.4336 28.5679C43.4336 28.5896 43.4422 28.6104 43.4575 28.6257C43.4729 28.641 43.4937 28.6497 43.5153 28.6497L43.8551 28.6522C43.9447 28.6527 44.0336 28.6397 44.1165 28.614C44.1995 28.5883 44.2749 28.5504 44.3385 28.5025C44.4021 28.4545 44.4526 28.3975 44.4871 28.3347C44.5216 28.2718 44.5395 28.2044 44.5396 28.1362V28.0494C44.54 27.912 44.4687 27.78 44.3413 27.6823C44.2139 27.5846 44.0409 27.5292 43.8602 27.5283L43.5204 27.5257C43.4988 27.5257 43.478 27.5343 43.4626 27.5497C43.4473 27.565 43.4387 27.5858 43.4387 27.6075Z" stroke="#919191" stroke-width="2"/>
<path d="M60.1716 23.7121L58.2047 23.6916L58.1971 14.3656C58.197 14.3224 58.185 14.2802 58.1624 14.2436C58.1398 14.2071 58.1076 14.1777 58.0693 14.1586L33.8716 2.04063C33.7865 1.99806 33.7005 1.99806 33.6136 2.04063L9.46447 14.1433C9.41068 14.1703 9.36547 14.2116 9.3339 14.2626C9.30232 14.3136 9.28562 14.3722 9.28566 14.432V23.6942C8.67602 23.5835 8.09702 23.5963 7.54868 23.7325L7.54102 13.5839C7.54102 13.509 7.57507 13.4545 7.64319 13.4204L33.5804 0.464577C33.663 0.423354 33.7538 0.401886 33.8456 0.401886C33.9374 0.401886 34.0277 0.423354 34.1092 0.464577L60.0822 13.446C60.1082 13.4581 60.1302 13.4773 60.1456 13.5013C60.161 13.5253 60.1691 13.5531 60.169 13.5814L60.1716 23.7121Z" fill="white"/>
<path d="M32.1582 5.84666L32.7151 6.67428C32.7588 6.73874 32.8201 6.78918 32.8918 6.81953C32.9635 6.84989 33.0425 6.85885 33.1192 6.84535C33.1958 6.83185 33.267 6.79646 33.324 6.74345C33.381 6.69043 33.4215 6.62206 33.4405 6.54656L33.7062 5.48394C33.776 5.20636 33.8492 5.20551 33.9259 5.48138L34.2094 6.49803C34.2322 6.58008 34.2779 6.65382 34.3414 6.71057C34.4048 6.76733 34.4832 6.80474 34.5675 6.81843C34.6517 6.83211 34.7382 6.82148 34.8169 6.78781C34.8955 6.75413 34.963 6.69879 35.0115 6.6283C35.1528 6.42055 35.3086 6.22727 35.4789 6.04846C35.6066 5.91222 35.645 5.93351 35.5939 6.11232L35.4074 6.75347C35.3699 6.87949 35.4006 6.98507 35.4994 7.07021C35.7054 7.25243 35.9762 7.17069 36.3117 6.82499C36.5739 6.55763 36.6182 6.58999 36.4445 6.92206C36.2963 7.20645 36.1269 7.50531 35.9362 7.81865C35.8902 7.89358 35.8229 7.93104 35.7344 7.93104H31.89C31.8066 7.93104 31.7427 7.89528 31.6984 7.82376C31.4924 7.49169 31.2999 7.13663 31.1211 6.75858C31.053 6.61724 31.0786 6.5968 31.1978 6.69727L31.7112 7.13663C31.7552 7.17355 31.8085 7.19781 31.8652 7.20679C31.922 7.21577 31.9801 7.20915 32.0334 7.18763C32.0867 7.16611 32.1331 7.1305 32.1677 7.08462C32.2023 7.03874 32.2237 6.98431 32.2297 6.92717C32.2774 6.46908 32.1889 6.03654 31.9641 5.62954C31.9232 5.55461 31.9411 5.49927 32.0177 5.4635C32.0518 5.44647 32.0875 5.43796 32.125 5.43796C32.2834 5.43455 32.3132 5.49416 32.2144 5.61677L32.1659 5.67552C32.1216 5.73171 32.1191 5.78876 32.1582 5.84666Z" fill="white"/>
<path d="M30.984 6.18128C31.0231 6.21193 31.0487 6.2545 31.0606 6.30899C31.0646 6.32716 31.0639 6.34603 31.0585 6.36385C31.0532 6.38166 31.0435 6.39784 31.0302 6.41085C31.0169 6.42387 31.0006 6.43331 30.9827 6.43828C30.9647 6.44325 30.9459 6.44359 30.9278 6.43927C30.8699 6.42565 30.8264 6.39414 30.7975 6.34476C30.7844 6.31941 30.7801 6.29039 30.7854 6.26234C30.7907 6.23429 30.8053 6.20883 30.8267 6.19001C30.8482 6.17119 30.8753 6.1601 30.9038 6.15852C30.9323 6.15694 30.9606 6.16495 30.984 6.18128Z" fill="#EFEFEF"/>
<path d="M33.369 15.349C33.3895 15.0501 33.4405 14.736 33.2464 14.478C32.9603 14.1025 32.7304 13.7193 32.3524 13.4204C31.0445 12.38 30.3276 10.8482 30.2016 8.8251C30.1965 8.73485 30.239 8.68631 30.3293 8.6795C31.7938 8.56881 33.2771 8.52113 34.779 8.53646C35.6297 8.54412 36.4445 8.72804 37.3053 8.63097C37.3201 8.62935 37.3351 8.63108 37.3492 8.63603C37.3633 8.64098 37.376 8.64902 37.3866 8.65956C37.3971 8.6701 37.4052 8.68287 37.4101 8.69693C37.4151 8.711 37.4168 8.72599 37.4152 8.74081C37.3266 9.61952 37.1461 10.4454 36.8736 11.2186C36.3806 12.6235 35.1903 13.2774 34.3984 14.4371C34.0051 15.011 34.1277 15.5184 34.7663 15.9595C34.9519 16.0889 34.9315 16.1536 34.705 16.1536L32.8045 16.1485C32.6546 16.1468 32.6368 16.0983 32.7509 16.0029L33.2541 15.5763C33.3256 15.5167 33.3639 15.441 33.369 15.349ZM30.8632 9.33598C30.9832 10.2556 31.2923 11.3693 31.8798 12.0973C31.9513 12.1875 31.982 12.1756 31.9718 12.0615L31.7061 9.3181C31.7027 9.27042 31.6763 9.24658 31.6269 9.24658L30.9398 9.24913C30.8819 9.24913 30.8564 9.27808 30.8632 9.33598ZM35.7701 12.036C36.3296 11.2748 36.5799 10.2479 36.7408 9.32832C36.751 9.27382 36.728 9.24658 36.6718 9.24658H35.9183C35.8706 9.24658 35.8476 9.27042 35.8493 9.3181C35.88 10.0793 35.8476 10.7503 35.7523 11.331C35.7165 11.5489 35.691 11.772 35.6756 12.0002C35.6671 12.1228 35.6986 12.1347 35.7701 12.036Z" fill="white"/>
<path d="M57.5813 23.6584C57.9304 24.469 58.139 24.4801 58.2071 23.6916L60.174 23.7121C60.845 23.6082 61.4384 23.6354 61.9544 23.7938C62.0379 23.8194 62.1026 23.8687 62.1485 23.942C62.2831 24.1565 62.3469 24.3677 62.3401 24.5755C62.2993 25.9889 62.3086 27.3853 62.3682 28.7647C62.3686 28.7797 62.3648 28.7946 62.3574 28.8078C62.3501 28.8209 62.3393 28.8318 62.3262 28.8394C62.3132 28.847 62.2984 28.8509 62.2833 28.8508C62.2682 28.8507 62.2534 28.8465 62.2405 28.8387C62.1196 28.7621 62.014 28.7876 61.9238 28.9154C61.8693 28.992 61.8471 29.078 61.8573 29.1734C61.8812 29.3862 61.8608 29.5812 61.796 29.7583L61.7884 24.389C61.7884 24.2987 61.7441 24.2536 61.6556 24.2536L6.10785 24.2587C6.02952 24.2587 5.99035 24.2979 5.99035 24.3762L5.96481 29.8145L5.80388 29.0635C5.79615 29.0259 5.77901 28.9907 5.75402 28.9612C5.72903 28.9318 5.697 28.909 5.66083 28.8949C5.48373 28.8234 5.39433 28.6923 5.39262 28.5015C5.37049 26.8276 5.38581 25.3205 5.4386 23.9803C5.44126 23.9118 5.4705 23.8471 5.5201 23.7999C5.56971 23.7527 5.63577 23.7267 5.70426 23.7274L7.55108 23.7325C8.09942 23.5963 8.67842 23.5835 9.28806 23.6942L9.47198 23.9956C9.51966 24.0722 9.58863 24.1055 9.67888 24.0952C9.88153 24.0731 9.94539 23.9258 9.87046 23.6533L21.5159 23.6559C21.6249 23.6559 21.6794 23.6014 21.6794 23.4924L21.6768 15.1855C21.6768 15.1523 21.6634 15.1205 21.6394 15.097C21.6155 15.0736 21.583 15.0604 21.5491 15.0604H18.6627C18.6362 15.0604 18.6109 15.0499 18.5922 15.0312C18.5735 15.0125 18.563 14.9872 18.563 14.9607V13.0807C18.563 13.0502 18.5752 13.021 18.5967 12.9994C18.6183 12.9779 18.6475 12.9658 18.678 12.9658H27.1458C27.2071 12.9658 27.2369 12.9956 27.2352 13.0552V14.9888C27.2352 14.9979 27.2333 15.0069 27.2297 15.0152C27.2261 15.0236 27.2209 15.0312 27.2142 15.0376C27.2076 15.044 27.1997 15.0491 27.191 15.0526C27.1824 15.056 27.1731 15.0578 27.1637 15.0578L24.2925 15.0604C24.204 15.0604 24.1597 15.1046 24.1597 15.1932V23.5256C24.1597 23.6005 24.1963 23.638 24.2695 23.638H30.2928C30.4426 23.638 30.4537 23.5997 30.326 23.523C30.1659 23.426 30.0161 23.3153 29.8764 23.191C26.7958 20.4374 26.8648 16.0157 30.1242 13.4434C30.2093 13.3753 30.2928 13.377 30.3745 13.4485L31.7411 14.6389C31.7555 14.6511 31.7669 14.6665 31.7742 14.684C31.7816 14.7014 31.7847 14.7204 31.7835 14.7394C31.7823 14.7584 31.7767 14.777 31.7671 14.7937C31.7575 14.8104 31.7443 14.8247 31.7284 14.8356C30.2196 15.8352 29.5614 17.2052 29.7538 18.9456C30.0169 21.3493 32.3746 22.933 34.7093 22.3966C36.97 21.8806 38.3033 19.6506 37.7542 17.3849C37.5038 16.3512 36.8703 15.498 35.8537 14.8254C35.8298 14.81 35.8273 14.793 35.846 14.7743C36.3211 14.2753 36.7946 13.7942 37.2663 13.331C37.2918 13.3055 37.3191 13.3038 37.348 13.3259C40.8782 16.0387 40.8603 20.9048 37.2382 23.546C37.1462 23.6125 37.1573 23.6457 37.2714 23.6457L41.7262 23.638C41.8301 23.6363 41.882 23.5835 41.882 23.4796L41.8795 13.0807C41.8795 13.0007 41.9195 12.9598 41.9995 12.9581C43.3551 12.9547 44.6008 12.959 45.7366 12.9709C48.6588 13.0066 50.4801 14.7053 49.793 17.7323C49.2234 20.2356 46.6817 20.5855 44.559 20.4731C44.4194 20.4663 44.3496 20.5327 44.3496 20.6724V23.4873C44.3496 23.5809 44.3964 23.6278 44.4901 23.6278L57.5813 23.6584ZM44.347 15.1396V18.3325C44.347 18.3644 44.3597 18.3949 44.3822 18.4174C44.4047 18.4399 44.4352 18.4526 44.4671 18.4526H45.7264C45.9478 18.4526 46.167 18.4119 46.3716 18.3328C46.5761 18.2537 46.762 18.1378 46.9185 17.9917C47.0751 17.8456 47.1992 17.6721 47.284 17.4812C47.3687 17.2903 47.4123 17.0857 47.4123 16.8791V16.593C47.4123 16.3864 47.3687 16.1818 47.284 15.9908C47.1992 15.7999 47.0751 15.6265 46.9185 15.4804C46.762 15.3343 46.5761 15.2183 46.3716 15.1393C46.167 15.0602 45.9478 15.0195 45.7264 15.0195H44.4671C44.4352 15.0195 44.4047 15.0321 44.3822 15.0547C44.3597 15.0772 44.347 15.1077 44.347 15.1396Z" fill="#EFEFEF"/>
<path d="M61.2563 32.6243C61.2563 32.6426 61.249 32.6602 61.2361 32.6731C61.2231 32.686 61.2056 32.6933 61.1873 32.6933H6.69202C6.67372 32.6933 6.65618 32.686 6.64325 32.6731C6.63031 32.6602 6.62305 32.6426 6.62305 32.6243V24.8181C6.62305 24.7998 6.63031 24.7823 6.64325 24.7693C6.65618 24.7564 6.67372 24.7491 6.69202 24.7491H61.1873C61.2056 24.7491 61.2231 24.7564 61.2361 24.7693C61.249 24.7823 61.2563 24.7998 61.2563 24.8181V32.6243ZM60.6611 25.4184C60.6611 25.4001 60.6538 25.3826 60.6409 25.3696C60.628 25.3567 60.6104 25.3494 60.5921 25.3494H7.31273C7.29444 25.3494 7.2769 25.3567 7.26396 25.3696C7.25103 25.3826 7.24376 25.4001 7.24376 25.4184V32.0445C7.24376 32.0628 7.25103 32.0803 7.26396 32.0932C7.2769 32.1062 7.29444 32.1134 7.31273 32.1134H60.5921C60.6104 32.1134 60.628 32.1062 60.6409 32.0932C60.6538 32.0803 60.6611 32.0628 60.6611 32.0445V25.4184Z" fill="white"/>
<path d="M60.6615 32.0444C60.6615 32.0627 60.6542 32.0803 60.6413 32.0932C60.6283 32.1061 60.6108 32.1134 60.5925 32.1134H7.31311C7.29482 32.1134 7.27727 32.1061 7.26434 32.0932C7.25141 32.0803 7.24414 32.0627 7.24414 32.0444V25.4184C7.24414 25.4001 7.25141 25.3825 7.26434 25.3696C7.27727 25.3567 7.29482 25.3494 7.31311 25.3494H60.5925C60.6108 25.3494 60.6283 25.3567 60.6413 25.3696C60.6542 25.3825 60.6615 25.4001 60.6615 25.4184V32.0444ZM14.1461 27.117V30.3969C14.1461 30.4226 14.1563 30.4473 14.1745 30.4655C14.1927 30.4837 14.2174 30.4939 14.2432 30.4939H15.293C15.7354 30.4939 16.1597 30.33 16.4725 30.0383C16.7853 29.7466 16.961 29.3509 16.961 28.9383V28.5756C16.961 28.163 16.7853 27.7673 16.4725 27.4756C16.1597 27.1839 15.7354 27.02 15.293 27.02H14.2432C14.2174 27.02 14.1927 27.0302 14.1745 27.0484C14.1563 27.0666 14.1461 27.0913 14.1461 27.117ZM18.274 27.1375C18.1258 27.0949 18.0552 27.2209 18.062 27.5155C18.0824 28.4726 18.0875 29.4339 18.0773 30.3994C18.0769 30.4258 18.0819 30.452 18.092 30.4763C18.1021 30.5007 18.117 30.5227 18.1359 30.5411C18.1548 30.5596 18.1772 30.5739 18.2018 30.5834C18.2265 30.5928 18.2527 30.5971 18.2791 30.5961C18.4051 30.5927 18.4221 30.5655 18.3302 30.5144L20.131 30.5118C20.2621 30.5118 20.3277 30.4462 20.3277 30.3151L20.3303 30.19C20.332 30.0639 20.269 30.0009 20.1412 30.0009L18.9892 29.9984C18.9716 29.9984 18.9547 29.9914 18.9423 29.9789C18.9298 29.9665 18.9228 29.9496 18.9228 29.932L18.9305 28.9817C18.9305 28.9648 18.9375 28.9486 18.9499 28.9366C18.9624 28.9246 18.9793 28.9179 18.9969 28.9179L20.0237 28.9153C20.16 28.9153 20.2366 28.8472 20.2536 28.711L20.2664 28.6318C20.2689 28.6114 20.2671 28.5908 20.2611 28.5712C20.2551 28.5516 20.245 28.5335 20.2315 28.518C20.218 28.5026 20.2014 28.4902 20.1827 28.4816C20.1641 28.473 20.1439 28.4685 20.1234 28.4683L18.9841 28.4428C18.9712 28.4428 18.9589 28.4376 18.9498 28.4285C18.9407 28.4194 18.9356 28.4071 18.9356 28.3942L18.9228 27.5896C18.9228 27.5504 18.9432 27.5308 18.9841 27.5308L20.1412 27.5232C20.1855 27.5225 20.2277 27.5047 20.2588 27.4737C20.2899 27.4426 20.3073 27.4007 20.3073 27.3571L20.3098 27.186C20.3115 27.0685 20.2545 27.0097 20.1387 27.0097H18.44C18.3974 27.0097 18.3617 27.0259 18.3327 27.0583C18.3106 27.0838 18.291 27.1102 18.274 27.1375ZM22.2844 27.5589C22.5619 27.4551 22.8787 27.4695 23.2346 27.6024C23.3691 27.6517 23.4713 27.6143 23.5411 27.49L23.5743 27.4287C23.6425 27.3061 23.6118 27.2192 23.4824 27.1681C22.6854 26.8463 21.2728 26.9127 21.5104 28.1362C21.6228 28.7237 22.3048 28.946 22.7799 29.1708C23.0388 29.2951 23.1265 29.4884 23.043 29.7506C23.0257 29.8054 22.9948 29.8547 22.9532 29.8941C22.9116 29.9334 22.8608 29.9614 22.8055 29.9754C22.4036 30.0776 21.9813 30.041 21.5385 29.8656C21.4619 29.8349 21.4244 29.8604 21.4261 29.9422V30.2053C21.4261 30.3279 21.484 30.4079 21.5998 30.4454C22.2256 30.6421 23.278 30.683 23.5871 29.9473C24.0597 28.8336 22.7952 28.6548 22.195 28.2154C22.1398 28.1756 22.0965 28.1215 22.0697 28.059C22.0429 27.9964 22.0336 27.9278 22.0428 27.8604C22.052 27.793 22.0793 27.7293 22.1218 27.6762C22.1644 27.6231 22.2206 27.5826 22.2844 27.5589ZM25.5307 27.1472C25.5307 27.1298 25.5272 27.1125 25.5205 27.0964C25.5138 27.0803 25.504 27.0657 25.4917 27.0533C25.4793 27.041 25.4647 27.0313 25.4485 27.0246C25.4324 27.018 25.4151 27.0146 25.3977 27.0146L25.0912 27.0151C25.0737 27.0152 25.0564 27.0186 25.0403 27.0253C25.0242 27.032 25.0096 27.0418 24.9973 27.0542C24.985 27.0666 24.9752 27.0812 24.9686 27.0973C24.9619 27.1135 24.9585 27.1308 24.9586 27.1482L24.9642 30.3769C24.9642 30.3944 24.9677 30.4116 24.9744 30.4277C24.9811 30.4438 24.9909 30.4585 25.0032 30.4708C25.0156 30.4831 25.0303 30.4928 25.0464 30.4995C25.0625 30.5061 25.0798 30.5095 25.0972 30.5095L25.4038 30.509C25.4212 30.5089 25.4385 30.5055 25.4546 30.4988C25.4707 30.4921 25.4853 30.4823 25.4976 30.4699C25.5099 30.4576 25.5197 30.4429 25.5263 30.4268C25.533 30.4106 25.5364 30.3934 25.5364 30.3759L25.5307 27.1472ZM29.171 29.2602L29.1787 29.8349C29.1804 29.9388 29.1301 29.9975 29.028 30.0112C28.5707 30.0673 28.0317 30.1082 27.7482 29.6535C27.0253 28.4862 27.7942 27.1068 29.2962 27.5973C29.4341 27.6415 29.5397 27.6015 29.6129 27.4772L29.6691 27.3827C29.7355 27.2737 29.7091 27.1962 29.5899 27.1502C28.3638 26.6751 26.9691 27.1579 26.9027 28.6548C26.8235 30.4301 28.1518 30.8311 29.6206 30.3969C29.7159 30.3679 29.7645 30.3032 29.7662 30.2027L29.7713 28.7518C29.7713 28.6514 29.7219 28.6011 29.6231 28.6011L28.678 28.5986C28.5333 28.5986 28.46 28.6709 28.4583 28.8157L28.4558 28.9153C28.4541 29.0822 28.5358 29.1588 28.701 29.1452L29.0152 29.1171C29.1191 29.1086 29.171 29.1563 29.171 29.2602ZM31.8097 27.9242L33.3244 30.356C33.3874 30.4565 33.4777 30.5067 33.5952 30.5067H33.9273C34.0414 30.5067 34.0984 30.4497 34.0984 30.3356L34.0959 27.2064C34.0959 27.0685 34.0269 27.0004 33.889 27.0021L33.751 27.0046C33.727 27.0046 33.7032 27.0095 33.681 27.0189C33.6588 27.0283 33.6387 27.042 33.6219 27.0594C33.605 27.0767 33.5917 27.0973 33.5827 27.1199C33.5738 27.1425 33.5693 27.1667 33.5697 27.1911L33.6054 29.4236C33.6088 29.6757 33.5441 29.6944 33.4113 29.4798C32.9702 28.768 32.5189 28.0298 32.0575 27.2652C31.894 26.9944 31.6283 26.9638 31.3448 27.0149C31.2494 27.0319 31.2017 27.0889 31.2017 27.186L31.1992 30.3866C31.1992 30.4701 31.2401 30.5118 31.3218 30.5118L31.6079 30.5144C31.6445 30.5144 31.6796 30.4998 31.7054 30.474C31.7313 30.4481 31.7458 30.413 31.7458 30.3764L31.7305 27.9472C31.7288 27.8467 31.7552 27.8391 31.8097 27.9242ZM38.0884 27.6202C38.0884 27.5918 38.0997 27.5645 38.1198 27.5444C38.1399 27.5243 38.1672 27.513 38.1957 27.513H39.3783C39.3926 27.513 39.4068 27.5101 39.42 27.5046C39.4332 27.499 39.4451 27.4909 39.4551 27.4806C39.4651 27.4704 39.473 27.4583 39.4782 27.445C39.4834 27.4317 39.486 27.4174 39.4856 27.4031L39.4754 27.1196C39.4747 27.0916 39.4631 27.0649 39.4431 27.0454C39.423 27.0258 39.3961 27.0148 39.3681 27.0149L37.6235 27.0072C37.6094 27.0072 37.5954 27.01 37.5824 27.0154C37.5694 27.0208 37.5576 27.0287 37.5476 27.0386C37.5376 27.0486 37.5297 27.0604 37.5243 27.0734C37.519 27.0864 37.5162 27.1004 37.5162 27.1145L37.5213 30.3943C37.5213 30.4223 37.5322 30.4492 37.5518 30.4693C37.5714 30.4893 37.598 30.5009 37.626 30.5016L37.9887 30.5041C38.003 30.5045 38.0173 30.502 38.0306 30.4967C38.0439 30.4915 38.056 30.4836 38.0663 30.4736C38.0765 30.4636 38.0846 30.4517 38.0902 30.4385C38.0957 30.4253 38.0986 30.4112 38.0986 30.3969L38.0884 29.2116C38.0884 29.1832 38.0997 29.1559 38.1198 29.1358C38.1399 29.1156 38.1672 29.1043 38.1957 29.1043L39.3196 29.0967C39.3339 29.0967 39.348 29.0938 39.3612 29.0883C39.3744 29.0827 39.3864 29.0746 39.3964 29.0644C39.4064 29.0541 39.4142 29.042 39.4194 29.0287C39.4247 29.0154 39.4272 29.0011 39.4269 28.9868L39.4141 28.6854C39.4128 28.6579 39.4009 28.6319 39.3809 28.6128C39.3609 28.5938 39.3344 28.5832 39.3068 28.5833L38.2059 28.596C38.1779 28.596 38.1509 28.5851 38.1309 28.5655C38.1108 28.5459 38.0993 28.5193 38.0986 28.4913L38.0884 27.6202ZM41.2839 27.1732C41.2839 27.1299 41.2667 27.0883 41.236 27.0576C41.2054 27.027 41.1638 27.0097 41.1204 27.0097H40.9007C40.8574 27.0097 40.8158 27.027 40.7851 27.0576C40.7545 27.0883 40.7373 27.1299 40.7373 27.1732V30.3458C40.7373 30.3891 40.7545 30.4307 40.7851 30.4614C40.8158 30.492 40.8574 30.5093 40.9007 30.5093H41.1204C41.1638 30.5093 41.2054 30.492 41.236 30.4614C41.2667 30.4307 41.2839 30.3891 41.2839 30.3458V27.1732ZM42.8293 27.1988C42.6965 27.1409 42.6292 27.1605 42.6275 27.2575C42.602 28.2469 42.5909 29.2363 42.5943 30.2257C42.5943 30.3007 42.6037 30.3637 42.6224 30.4147C42.6786 30.5782 42.7501 30.5944 42.837 30.4633C43.0124 30.5331 43.1776 30.5416 43.3325 30.4888C43.4109 30.4616 43.45 30.4062 43.45 30.3228L43.4372 29.2372C43.4355 29.1367 43.4841 29.0924 43.5829 29.1043L43.8383 29.1299C43.9354 29.1401 44.0086 29.1878 44.058 29.2729L44.671 30.3202C44.7425 30.4411 44.8481 30.5033 44.9878 30.5067L45.2483 30.5093C45.3965 30.511 45.4305 30.4497 45.3505 30.3253L44.5714 29.1171C44.5152 29.0286 44.5322 28.957 44.6225 28.9025L44.786 28.8055C44.8823 28.7506 44.9591 28.6667 45.0056 28.5654C45.3607 27.7991 45.0031 27.1324 44.1423 27.0506C43.7267 27.0115 43.3283 26.9995 42.9468 27.0149C42.9059 27.0166 42.8744 27.0336 42.8523 27.0659C42.8251 27.1017 42.8174 27.146 42.8293 27.1988ZM47.1437 27.8578L47.8359 29.8732C48.1544 30.7996 48.4788 30.8013 48.8091 29.8783L49.509 27.9191C49.5652 27.7658 49.5925 27.771 49.5908 27.9344L49.5703 30.3713C49.5703 30.4548 49.6129 30.4982 49.6981 30.5016L50.0301 30.5118C50.1136 30.5135 50.1553 30.4726 50.1553 30.3892V27.163C50.1553 27.0625 50.1051 27.0123 50.0046 27.0123L49.4911 27.0149C49.3873 27.0149 49.3174 27.0642 49.2817 27.163L48.4209 29.5411C48.4138 29.5607 48.4008 29.5777 48.3838 29.5897C48.3667 29.6017 48.3465 29.6082 48.3259 29.6082C48.3053 29.6082 48.2854 29.6017 48.2689 29.5897C48.2525 29.5777 48.2404 29.5607 48.2344 29.5411L47.4451 27.2039C47.4008 27.0745 47.3097 27.0097 47.1718 27.0097L46.7631 27.0123C46.6336 27.014 46.5689 27.0787 46.5689 27.2064L46.5613 30.333C46.5613 30.442 46.6158 30.4982 46.7247 30.5016L46.9725 30.5093C47.0594 30.511 47.1028 30.4684 47.1028 30.3815L47.0798 27.8706C47.0798 27.7343 47.1011 27.7301 47.1437 27.8578ZM53.0852 29.4849C53.1567 29.7915 53.0298 29.9686 52.7046 30.0163C52.3265 30.0708 51.9672 30.0265 51.6266 29.8834C51.5108 29.834 51.4512 29.8724 51.4478 29.9984L51.4427 30.144C51.4376 30.3075 51.5134 30.4088 51.67 30.448C52.1826 30.5757 52.6313 30.5765 53.0162 30.4505C53.7697 30.2027 53.946 29.1605 53.1873 28.7518C52.9166 28.6054 52.633 28.4683 52.3367 28.3406C52.2809 28.3164 52.2304 28.2812 52.1883 28.237C52.1463 28.1929 52.1135 28.1408 52.0918 28.0837C52.0702 28.0266 52.0601 27.9656 52.0622 27.9045C52.0644 27.8433 52.0787 27.7832 52.1043 27.7275C52.2856 27.329 52.9958 27.5079 53.3125 27.5921C53.3562 27.6033 53.4024 27.598 53.4425 27.5773C53.4825 27.5565 53.5135 27.5218 53.5296 27.4798L53.5679 27.3801C53.6071 27.2814 53.5765 27.2115 53.476 27.1707C52.7224 26.8641 51.4529 26.8744 51.5091 28.0111C51.5398 28.6292 52.2575 28.9511 52.7505 29.1146C52.8334 29.1428 52.9077 29.1916 52.9663 29.2565C53.0248 29.3213 53.0658 29.4 53.0852 29.4849Z" fill="#333333"/>
<path d="M14.1465 27.1171C14.1465 27.0913 14.1567 27.0667 14.1749 27.0484C14.1931 27.0302 14.2178 27.02 14.2436 27.02H15.2934C15.7358 27.02 16.1601 27.1839 16.4729 27.4757C16.7857 27.7674 16.9614 28.1631 16.9614 28.5756V28.9384C16.9614 29.3509 16.7857 29.7466 16.4729 30.0384C16.1601 30.3301 15.7358 30.494 15.2934 30.494H14.2436C14.2178 30.494 14.1931 30.4838 14.1749 30.4656C14.1567 30.4474 14.1465 30.4227 14.1465 30.3969V27.1171ZM14.7008 27.5948V29.9244C14.7008 29.9454 14.7091 29.9655 14.724 29.9804C14.7388 29.9952 14.759 30.0035 14.78 30.0035H15.2832C15.565 30.0035 15.8353 29.8916 16.0346 29.6923C16.2339 29.493 16.3458 29.2227 16.3458 28.9409V28.5782C16.3458 28.2964 16.2339 28.0261 16.0346 27.8268C15.8353 27.6275 15.565 27.5156 15.2832 27.5156H14.78C14.759 27.5156 14.7388 27.5239 14.724 27.5388C14.7091 27.5536 14.7008 27.5738 14.7008 27.5948Z" fill="white"/>
<path d="M18.3296 30.5144L18.2734 27.1375C18.2905 27.1102 18.3101 27.0838 18.3322 27.0583C18.3611 27.0259 18.3969 27.0098 18.4395 27.0098H20.1381C20.2539 27.0098 20.311 27.0685 20.3093 27.186L20.3067 27.3572C20.3067 27.4008 20.2893 27.4426 20.2582 27.4737C20.2272 27.5047 20.185 27.5225 20.1407 27.5232L18.9836 27.5309C18.9427 27.5309 18.9223 27.5504 18.9223 27.5896L18.935 28.3942C18.935 28.4071 18.9401 28.4195 18.9492 28.4286C18.9583 28.4377 18.9707 28.4428 18.9836 28.4428L20.1228 28.4683C20.1433 28.4685 20.1636 28.4731 20.1822 28.4816C20.2008 28.4902 20.2174 28.5026 20.2309 28.518C20.2444 28.5335 20.2545 28.5516 20.2606 28.5712C20.2666 28.5908 20.2684 28.6114 20.2659 28.6318L20.2531 28.711C20.2361 28.8472 20.1594 28.9153 20.0232 28.9153L18.9963 28.9179C18.9787 28.9179 18.9618 28.9246 18.9494 28.9366C18.9369 28.9486 18.9299 28.9648 18.9299 28.9818L18.9223 29.932C18.9223 29.9496 18.9293 29.9665 18.9417 29.9789C18.9542 29.9914 18.9711 29.9984 18.9887 29.9984L20.1407 30.001C20.2684 30.001 20.3314 30.064 20.3297 30.19L20.3272 30.3151C20.3272 30.4463 20.2616 30.5118 20.1305 30.5118L18.3296 30.5144Z" fill="white"/>
<path d="M22.2861 27.559C22.2223 27.5826 22.1661 27.6231 22.1235 27.6762C22.081 27.7293 22.0537 27.793 22.0445 27.8604C22.0353 27.9278 22.0446 27.9965 22.0714 28.059C22.0982 28.1215 22.1415 28.1756 22.1967 28.2154C22.7969 28.6548 24.0614 28.8336 23.5888 29.9473C23.2797 30.683 22.2273 30.6421 21.6015 30.4454C21.4857 30.408 21.4278 30.3279 21.4278 30.2053V29.9422C21.4261 29.8605 21.4635 29.8349 21.5402 29.8656C21.9829 30.041 22.4053 30.0776 22.8072 29.9754C22.8625 29.9614 22.9133 29.9334 22.9549 29.8941C22.9965 29.8548 23.0274 29.8054 23.0447 29.7506C23.1282 29.4884 23.0405 29.2951 22.7816 29.1708C22.3065 28.946 21.6245 28.7238 21.5121 28.1363C21.2745 26.9127 22.6871 26.8463 23.4841 27.1681C23.6135 27.2192 23.6441 27.3061 23.576 27.4287L23.5428 27.49C23.473 27.6143 23.3708 27.6518 23.2363 27.6024C22.8804 27.4696 22.5636 27.4551 22.2861 27.559Z" fill="white"/>
<path d="M25.3983 27.0146L25.0918 27.0151C25.0185 27.0153 24.9591 27.0748 24.9592 27.1482L24.9649 30.3769C24.965 30.4503 25.0246 30.5097 25.0979 30.5095L25.4044 30.509C25.4778 30.5089 25.5372 30.4493 25.537 30.3759L25.5314 27.1472C25.5313 27.0739 25.4717 27.0145 25.3983 27.0146Z" fill="white"/>
<path d="M29.0162 29.1171L28.702 29.1452C28.5369 29.1589 28.4551 29.0822 28.4568 28.9153L28.4594 28.8157C28.4611 28.671 28.5343 28.5986 28.6791 28.5986L29.6242 28.6012C29.723 28.6012 29.7723 28.6514 29.7723 28.7519L29.7672 30.2028C29.7655 30.3032 29.717 30.3679 29.6216 30.3969C28.1529 30.8311 26.8246 30.4301 26.9038 28.6548C26.9702 27.1579 28.3649 26.6751 29.591 27.1503C29.7102 27.1962 29.7366 27.2737 29.6702 27.3827L29.614 27.4772C29.5407 27.6015 29.4352 27.6416 29.2972 27.5973C27.7952 27.1068 27.0264 28.4862 27.7493 29.6536C28.0328 30.1082 28.5718 30.0674 29.029 30.0112C29.1312 29.9976 29.1814 29.9388 29.1797 29.8349L29.1721 29.2602C29.1721 29.1563 29.1201 29.1086 29.0162 29.1171Z" fill="white"/>
<path d="M31.8097 27.9243C31.7552 27.8391 31.7288 27.8468 31.7305 27.9473L31.7459 30.3765C31.7459 30.4131 31.7313 30.4481 31.7055 30.474C31.6796 30.4999 31.6445 30.5144 31.6079 30.5144L31.3218 30.5119C31.2401 30.5119 31.1992 30.4701 31.1992 30.3867L31.2018 27.186C31.2018 27.089 31.2495 27.0319 31.3448 27.0149C31.6284 26.9638 31.894 26.9945 32.0575 27.2652C32.519 28.0298 32.9703 28.7681 33.4113 29.4799C33.5441 29.6945 33.6089 29.6757 33.6055 29.4237L33.5697 27.1912C33.5694 27.1668 33.5738 27.1426 33.5828 27.12C33.5917 27.0974 33.605 27.0768 33.6219 27.0594C33.6388 27.0421 33.6589 27.0283 33.6811 27.0189C33.7032 27.0095 33.727 27.0047 33.7511 27.0047L33.889 27.0021C34.0269 27.0004 34.0959 27.0685 34.0959 27.2065L34.0984 30.3356C34.0984 30.4497 34.0414 30.5067 33.9273 30.5067H33.5952C33.4777 30.5067 33.3875 30.4565 33.3245 30.356L31.8097 27.9243Z" fill="white"/>
<path d="M38.0878 27.6203L38.098 28.4913C38.0987 28.5193 38.1103 28.546 38.1303 28.5655C38.1504 28.5851 38.1773 28.5961 38.2053 28.5961L39.3062 28.5833C39.3338 28.5833 39.3604 28.5939 39.3804 28.6129C39.4003 28.6319 39.4122 28.6579 39.4135 28.6855L39.4263 28.9869C39.4266 29.0012 39.4241 29.0154 39.4189 29.0287C39.4136 29.042 39.4058 29.0542 39.3958 29.0644C39.3858 29.0746 39.3739 29.0828 39.3607 29.0883C39.3475 29.0939 39.3333 29.0967 39.319 29.0967L38.1951 29.1044C38.1666 29.1044 38.1394 29.1157 38.1192 29.1358C38.0991 29.1559 38.0878 29.1832 38.0878 29.2117L38.098 30.3969C38.098 30.4112 38.0952 30.4254 38.0896 30.4386C38.0841 30.4517 38.0759 30.4637 38.0657 30.4737C38.0555 30.4837 38.0433 30.4915 38.03 30.4968C38.0167 30.502 38.0025 30.5045 37.9882 30.5042L37.6255 30.5016C37.5975 30.501 37.5708 30.4894 37.5512 30.4693C37.5317 30.4493 37.5207 30.4224 37.5207 30.3944L37.5156 27.1145C37.5156 27.1004 37.5184 27.0865 37.5238 27.0735C37.5292 27.0604 37.5371 27.0486 37.547 27.0387C37.557 27.0287 37.5688 27.0208 37.5819 27.0154C37.5949 27.01 37.6088 27.0072 37.6229 27.0072L39.3676 27.0149C39.3956 27.0149 39.4225 27.0258 39.4425 27.0454C39.4626 27.065 39.4742 27.0916 39.4748 27.1196L39.4851 27.4032C39.4854 27.4175 39.4829 27.4317 39.4776 27.445C39.4724 27.4583 39.4645 27.4704 39.4546 27.4807C39.4446 27.4909 39.4326 27.499 39.4194 27.5046C39.4062 27.5101 39.3921 27.513 39.3778 27.513H38.1951C38.1666 27.513 38.1394 27.5243 38.1192 27.5444C38.0991 27.5645 38.0878 27.5918 38.0878 27.6203Z" fill="white"/>
<path d="M41.1214 27.0098H40.9018C40.8115 27.0098 40.7383 27.083 40.7383 27.1732V30.3458C40.7383 30.4361 40.8115 30.5093 40.9018 30.5093H41.1214C41.2117 30.5093 41.2849 30.4361 41.2849 30.3458V27.1732C41.2849 27.083 41.2117 27.0098 41.1214 27.0098Z" fill="white"/>
<path d="M42.8373 30.4633L42.8297 27.1988C42.8177 27.146 42.8254 27.1017 42.8526 27.066C42.8748 27.0336 42.9063 27.0166 42.9472 27.0149C43.3286 26.9996 43.7271 27.0115 44.1426 27.0506C45.0034 27.1324 45.3611 27.7991 45.006 28.5654C44.9595 28.6667 44.8826 28.7507 44.7863 28.8055L44.6228 28.9026C44.5326 28.9571 44.5156 29.0286 44.5718 29.1171L45.3508 30.3254C45.4309 30.4497 45.3968 30.511 45.2487 30.5093L44.9881 30.5067C44.8485 30.5033 44.7429 30.4412 44.6714 30.3203L44.0583 29.273C44.0089 29.1878 43.9357 29.1401 43.8386 29.1299L43.5832 29.1044C43.4844 29.0925 43.4359 29.1367 43.4376 29.2372L43.4504 30.3228C43.4504 30.4063 43.4112 30.4616 43.3329 30.4889C43.1779 30.5416 43.0127 30.5331 42.8373 30.4633ZM43.4402 27.6075L43.435 28.568C43.435 28.5896 43.4437 28.6104 43.459 28.6258C43.4743 28.6411 43.4951 28.6497 43.5168 28.6497L43.8565 28.6522C43.9462 28.6527 44.035 28.6397 44.118 28.614C44.2009 28.5883 44.2764 28.5504 44.34 28.5025C44.4035 28.4546 44.454 28.3976 44.4885 28.3347C44.5231 28.2719 44.5409 28.2044 44.5411 28.1363V28.0494C44.5415 27.912 44.4701 27.78 44.3427 27.6823C44.2153 27.5846 44.0423 27.5292 43.8616 27.5283L43.5219 27.5258C43.5002 27.5258 43.4794 27.5344 43.4641 27.5497C43.4488 27.565 43.4402 27.5858 43.4402 27.6075Z" fill="white"/>
<path d="M47.0791 27.8706L47.1021 30.3816C47.1021 30.4684 47.0587 30.511 46.9718 30.5093L46.724 30.5016C46.615 30.4982 46.5605 30.442 46.5605 30.333L46.5682 27.2065C46.5682 27.0787 46.6329 27.014 46.7623 27.0123L47.171 27.0098C47.309 27.0098 47.4001 27.0745 47.4444 27.2039L48.2337 29.5412C48.2397 29.5607 48.2518 29.5777 48.2682 29.5897C48.2846 29.6018 48.3046 29.6082 48.3252 29.6082C48.3458 29.6082 48.366 29.6018 48.3831 29.5897C48.4001 29.5777 48.4131 29.5607 48.4201 29.5412L49.281 27.163C49.3167 27.0643 49.3866 27.0149 49.4904 27.0149L50.0039 27.0123C50.1043 27.0123 50.1546 27.0626 50.1546 27.163V30.3892C50.1546 30.4727 50.1128 30.5135 50.0294 30.5118L49.6973 30.5016C49.6122 30.4982 49.5696 30.4548 49.5696 30.3713L49.59 27.9345C49.5918 27.771 49.5645 27.7659 49.5083 27.9191L48.8084 29.8783C48.478 30.8013 48.1536 30.7996 47.8352 29.8732L47.1429 27.8578C47.1004 27.7301 47.0791 27.7344 47.0791 27.8706Z" fill="white"/>
<path d="M53.0861 29.485C53.0667 29.4 53.0257 29.3213 52.9672 29.2565C52.9086 29.1917 52.8343 29.1428 52.7514 29.1146C52.2584 28.9511 51.5407 28.6292 51.51 28.0111C51.4538 26.8744 52.7233 26.8642 53.4769 27.1707C53.5774 27.2116 53.608 27.2814 53.5688 27.3801L53.5305 27.4798C53.5144 27.5219 53.4834 27.5565 53.4434 27.5773C53.4033 27.598 53.3571 27.6033 53.3134 27.5922C52.9967 27.5079 52.2865 27.3291 52.1052 27.7275C52.0796 27.7832 52.0653 27.8433 52.0631 27.9045C52.061 27.9657 52.0711 28.0266 52.0927 28.0837C52.1144 28.1408 52.1472 28.1929 52.1892 28.2371C52.2313 28.2812 52.2818 28.3164 52.3376 28.3406C52.6339 28.4683 52.9175 28.6054 53.1882 28.7519C53.9469 29.1606 53.7706 30.2027 53.0171 30.4505C52.6322 30.5765 52.1835 30.5757 51.6709 30.448C51.5143 30.4088 51.4385 30.3075 51.4436 30.144L51.4487 29.9984C51.4521 29.8724 51.5117 29.8341 51.6275 29.8834C51.9681 30.0265 52.3274 30.0708 52.7055 30.0163C53.0307 29.9686 53.1576 29.7915 53.0861 29.485Z" fill="white"/>
<path d="M42.8274 27.1988L42.8351 30.4633C42.7482 30.5944 42.6767 30.5783 42.6205 30.4148C42.6018 30.3637 42.5924 30.3007 42.5924 30.2258C42.589 29.2364 42.6001 28.247 42.6256 27.2576C42.6273 27.1605 42.6946 27.1409 42.8274 27.1988Z" fill="#232223"/>
<path d="M14.6992 27.5947C14.6992 27.5737 14.7076 27.5536 14.7224 27.5387C14.7373 27.5239 14.7574 27.5155 14.7784 27.5155H15.2816C15.5634 27.5155 15.8337 27.6275 16.033 27.8268C16.2323 28.0261 16.3442 28.2963 16.3442 28.5782V28.9409C16.3442 29.2227 16.2323 29.493 16.033 29.6923C15.8337 29.8916 15.5634 30.0035 15.2816 30.0035H14.7784C14.7574 30.0035 14.7373 29.9952 14.7224 29.9803C14.7076 29.9655 14.6992 29.9453 14.6992 29.9243V27.5947Z" fill="#333333"/>
<path d="M43.4387 27.6075C43.4387 27.5858 43.4473 27.565 43.4626 27.5497C43.478 27.5344 43.4988 27.5258 43.5204 27.5258L43.8602 27.5283C44.0409 27.5292 44.2139 27.5846 44.3413 27.6823C44.4687 27.78 44.54 27.912 44.5396 28.0494V28.1363C44.5395 28.2044 44.5216 28.2719 44.4871 28.3347C44.4526 28.3975 44.4021 28.4546 44.3385 28.5025C44.2749 28.5504 44.1995 28.5883 44.1165 28.614C44.0336 28.6397 43.9447 28.6527 43.8551 28.6522L43.5153 28.6497C43.4937 28.6497 43.4729 28.6411 43.4575 28.6257C43.4422 28.6104 43.4336 28.5896 43.4336 28.5679L43.4387 27.6075Z" fill="#232223"/>
<path d="M9.34336 37.4444C9.50344 37.4615 9.57837 37.5151 9.56815 37.6054L9.5375 37.7816C9.52217 37.8736 9.46853 37.9195 9.37657 37.9195H1.11313C1.09739 37.9192 1.082 37.9149 1.06843 37.9069C1.05486 37.8989 1.04356 37.8876 1.03561 37.874C1.02767 37.8604 1.02334 37.8451 1.02305 37.8293C1.02276 37.8136 1.02651 37.798 1.03394 37.7842L3.34311 33.7303C3.38738 33.652 3.38823 33.5728 3.34566 33.4928L1.00584 29.2091C1.00053 29.1998 0.997849 29.1893 0.998058 29.1786C0.998267 29.1679 1.00136 29.1574 1.00704 29.1481C1.01271 29.1389 1.02077 29.1311 1.03041 29.1257C1.04006 29.1202 1.05096 29.1173 1.06204 29.1171L5.21292 29.1222C5.29806 29.1222 5.34064 29.164 5.34064 29.2474L5.34319 29.5054C5.34319 29.5667 5.31339 29.5974 5.25379 29.5974L1.9995 29.5922C1.88881 29.5922 1.86071 29.6399 1.9152 29.7353L4.0098 33.5056C4.04897 33.5771 4.04812 33.6478 4.00725 33.7176L1.89988 37.3065C1.89171 37.3205 1.88729 37.3365 1.88707 37.3527C1.88685 37.369 1.89083 37.3849 1.89863 37.3989C1.90642 37.4129 1.91773 37.4246 1.93141 37.4325C1.9451 37.4405 1.96066 37.4446 1.97651 37.4444H9.34336Z" fill="#232223"/>
<path d="M63.9606 33.5796L66.1063 29.7097C66.1129 29.6977 66.1163 29.6841 66.1161 29.6704C66.116 29.6567 66.1122 29.6432 66.1053 29.6313C66.0983 29.6195 66.0884 29.6096 66.0764 29.6028C66.0645 29.5959 66.051 29.5923 66.0373 29.5922L62.4841 29.6076C62.4735 29.6076 62.463 29.6054 62.4532 29.6013C62.4435 29.5972 62.4346 29.5911 62.4272 29.5835C62.4198 29.5758 62.4141 29.5668 62.4102 29.5569C62.4064 29.547 62.4046 29.5364 62.4049 29.5258L62.4203 29.1963C62.4209 29.1757 62.4296 29.1563 62.4444 29.142C62.4591 29.1277 62.4789 29.1197 62.4995 29.1197L66.9211 29.1146C66.9349 29.1146 66.9483 29.1183 66.9603 29.1251C66.9722 29.132 66.9821 29.1418 66.9891 29.1537C66.996 29.1655 66.9998 29.179 67 29.1927C67.0001 29.2065 66.9967 29.22 66.9901 29.2321L64.617 33.5771C64.611 33.589 64.608 33.6023 64.6084 33.6157C64.6089 33.6291 64.6127 33.6422 64.6196 33.6537L66.985 37.802C66.9916 37.8141 66.995 37.8276 66.9948 37.8414C66.9947 37.8551 66.9909 37.8686 66.984 37.8804C66.977 37.8923 66.9671 37.9021 66.9552 37.909C66.9432 37.9158 66.9297 37.9195 66.916 37.9195H58.5402C58.5295 37.9195 58.519 37.9174 58.5093 37.9133C58.4995 37.9091 58.4906 37.9031 58.4832 37.8954C58.4759 37.8878 58.4701 37.8788 58.4663 37.8689C58.4624 37.859 58.4606 37.8484 58.461 37.8378L58.4712 37.4981C58.4719 37.4775 58.4805 37.458 58.4953 37.4437C58.51 37.4294 58.5298 37.4214 58.5504 37.4214L66.0577 37.4419C66.0716 37.4416 66.0852 37.4377 66.0971 37.4305C66.1091 37.4234 66.1189 37.4132 66.1256 37.401C66.1323 37.3889 66.1358 37.3751 66.1355 37.3612C66.1352 37.3473 66.1313 37.3337 66.1241 37.3218L63.9606 33.6588C63.9536 33.6468 63.95 33.6331 63.95 33.6192C63.95 33.6053 63.9536 33.5917 63.9606 33.5796Z" fill="#232223"/>
<path d="M7.53196 34.0062C7.53026 34.7419 7.52941 35.4511 7.52941 36.134C7.52941 36.4457 7.72184 36.6738 8.1067 36.8186L3.05923 36.816C2.94684 36.816 2.91959 36.7684 2.97749 36.673L4.69149 33.7533C4.74087 33.6699 4.74172 33.5864 4.69404 33.503L2.93662 30.356C2.87532 30.2487 2.90682 30.1951 3.03113 30.1951L5.21513 30.2027C5.30369 30.2027 5.34796 30.247 5.34796 30.3356L5.35052 33.8376C5.35052 33.9602 5.41182 34.0207 5.53443 34.019L7.53196 34.0062Z" fill="#333333"/>
<path d="M59.6094 36.8391L60.0487 36.5402C60.1203 36.4925 60.156 36.4253 60.156 36.3384L60.1662 33.9782L62.2532 33.9986C62.3519 34.0003 62.4013 33.9518 62.4013 33.853V30.3356C62.4013 30.2453 62.4464 30.2002 62.5367 30.2002L64.9787 30.1977C65.0962 30.1977 65.1268 30.2487 65.0707 30.3509L63.3132 33.4979C63.2673 33.5831 63.2681 33.6674 63.3158 33.7508L65.0298 36.6705C65.086 36.7658 65.0587 36.8135 64.948 36.8135L59.6094 36.8391Z" fill="#333333"/>
<path d="M60.165 33.9781L60.1548 36.3384C60.1548 36.4253 60.119 36.4925 60.0475 36.5402L59.6081 36.8391L33.9646 49.5727C33.9303 49.5894 33.8925 49.5981 33.854 49.5981C33.8156 49.5981 33.7774 49.5894 33.7424 49.5727C25.7676 45.5929 17.7852 41.6055 9.79504 37.6105C9.70308 37.5645 9.6273 37.5628 9.5677 37.6054C9.57791 37.5151 9.50299 37.4615 9.34291 37.4445L8.10659 36.8186C7.72173 36.6739 7.5293 36.4457 7.5293 36.1341C7.5293 35.4512 7.53015 34.7419 7.53185 34.0062L9.14367 33.9884C9.24244 33.9884 9.29182 34.0378 9.29182 34.1365L9.28927 35.5619C9.28757 35.693 9.34547 35.7884 9.46297 35.848L33.6019 47.9302C33.682 47.9694 33.7629 47.9694 33.8446 47.9302L58.0474 35.8071C58.1394 35.7611 58.1853 35.6862 58.1853 35.5823L58.1828 34.1238C58.1828 34.0369 58.2271 33.9926 58.3156 33.9909L60.165 33.9781Z" fill="white"/>
<path d="M23.6034 36.6526L23.8486 36.6551C24.0257 36.6568 24.0487 36.7165 23.9176 36.834C23.7047 37.0298 23.64 37.252 23.7234 37.5006C23.7643 37.6199 23.7302 37.6471 23.6213 37.5824C23.3897 37.4479 23.1453 37.4496 22.8881 37.5875C22.7485 37.6624 22.7085 37.6275 22.7681 37.4828C22.8737 37.2171 22.7987 37.0077 22.5433 36.8544C22.3628 36.7471 22.3773 36.6841 22.5867 36.6654L22.8754 36.6424C22.9131 36.6392 22.9494 36.6267 22.9811 36.6062C23.0127 36.5857 23.0387 36.5578 23.0567 36.5249L23.1793 36.3077C23.2406 36.1988 23.2934 36.2022 23.3377 36.318L23.4195 36.5249C23.4518 36.61 23.5131 36.6526 23.6034 36.6526Z" fill="white"/>
<path d="M44.6243 36.6475L44.8542 36.6551C45.0228 36.6602 45.0424 36.7173 44.913 36.8263C44.7103 37 44.6303 37.2128 44.6728 37.4649C44.6933 37.579 44.6516 37.6096 44.5477 37.5568C44.3467 37.4547 44.1254 37.4598 43.8835 37.5722C43.7609 37.6284 43.726 37.5943 43.7788 37.47C43.8895 37.2043 43.8027 36.9991 43.5183 36.8544C43.4484 36.8169 43.4331 36.7641 43.4723 36.696C43.5046 36.6449 43.5506 36.627 43.6102 36.6424C43.9099 36.7241 44.0904 36.6245 44.1518 36.3435C44.179 36.2141 44.2275 36.2064 44.2974 36.3205L44.4302 36.5351C44.4745 36.6066 44.5392 36.6441 44.6243 36.6475Z" fill="white"/>
<path d="M28.1417 38.6833L28.9591 38.6731C28.9763 38.6734 28.9929 38.6792 29.0066 38.6895C29.0203 38.6998 29.0304 38.7142 29.0355 38.7306C29.0406 38.747 29.0404 38.7645 29.035 38.7808C29.0295 38.7971 29.019 38.8112 29.0051 38.8212L28.3384 39.2912C28.3241 39.3018 28.3136 39.3167 28.3085 39.3338C28.3034 39.3508 28.3041 39.3691 28.3103 39.3858L28.5709 40.1572C28.577 40.1739 28.5774 40.1922 28.5722 40.2092C28.567 40.2263 28.5563 40.2411 28.5418 40.2515C28.5274 40.262 28.5099 40.2674 28.4921 40.2669C28.4743 40.2665 28.4571 40.2602 28.4431 40.2491L27.7918 39.7587C27.7775 39.7477 27.76 39.7418 27.742 39.7418C27.7239 39.7418 27.7064 39.7477 27.6921 39.7587L27.0382 40.2466C27.0242 40.2566 27.0074 40.2619 26.9902 40.2618C26.973 40.2617 26.9562 40.2561 26.9423 40.2459C26.9285 40.2357 26.9182 40.2214 26.9129 40.205C26.9076 40.1886 26.9077 40.171 26.9131 40.1546L27.1762 39.3832C27.1821 39.3663 27.1824 39.3478 27.1768 39.3308C27.1713 39.3137 27.1603 39.2989 27.1455 39.2887L26.4814 38.8187C26.4672 38.8086 26.4567 38.7942 26.4513 38.7777C26.4459 38.7611 26.4459 38.7433 26.4513 38.7268C26.4567 38.7103 26.4673 38.6959 26.4814 38.6858C26.4955 38.6757 26.5125 38.6703 26.5299 38.6705L27.3447 38.6807C27.3622 38.6811 27.3793 38.6758 27.3936 38.6657C27.4078 38.6556 27.4185 38.6411 27.4239 38.6245L27.6666 37.8455C27.6718 37.8289 27.6822 37.8145 27.6962 37.8042C27.7102 37.794 27.7272 37.7885 27.7445 37.7885C27.7619 37.7885 27.7788 37.794 27.7928 37.8042C27.8068 37.8145 27.8172 37.8289 27.8224 37.8455L28.0651 38.6245C28.07 38.6412 28.08 38.6559 28.0938 38.6664C28.1076 38.677 28.1244 38.6829 28.1417 38.6833Z" fill="white"/>
<path d="M40.1287 38.6858L40.9615 38.6705C40.9781 38.6707 40.9942 38.6761 41.0076 38.686C41.021 38.6958 41.0309 38.7096 41.036 38.7255C41.0411 38.7413 41.0411 38.7583 41.0359 38.7741C41.0308 38.7899 41.0208 38.8037 41.0074 38.8136L40.3229 39.2887C40.3087 39.2988 40.2983 39.3133 40.2932 39.3299C40.2882 39.3465 40.2887 39.3643 40.2948 39.3806L40.5681 40.1674C40.5738 40.1835 40.5741 40.2009 40.5691 40.2172C40.564 40.2335 40.5538 40.2477 40.5401 40.2578C40.5263 40.2678 40.5096 40.2731 40.4926 40.2729C40.4756 40.2728 40.459 40.2671 40.4455 40.2568L39.7813 39.7536C39.7674 39.7428 39.7504 39.737 39.7328 39.737C39.7152 39.737 39.6981 39.7428 39.6843 39.7536L39.0201 40.2568C39.0066 40.2671 38.99 40.2728 38.973 40.2729C38.9559 40.2731 38.9393 40.2678 38.9255 40.2578C38.9117 40.2477 38.9016 40.2335 38.8965 40.2172C38.8915 40.2009 38.8918 40.1835 38.8975 40.1674L39.1708 39.3806C39.1769 39.3643 39.1774 39.3465 39.1723 39.3299C39.1673 39.3133 39.1568 39.2988 39.1427 39.2887L38.4582 38.8136C38.4447 38.8037 38.4348 38.7899 38.4296 38.7741C38.4245 38.7583 38.4245 38.7413 38.4296 38.7255C38.4347 38.7096 38.4446 38.6958 38.458 38.686C38.4714 38.6761 38.4875 38.6707 38.5041 38.6705L39.3369 38.6858C39.3544 38.6866 39.3717 38.6815 39.3861 38.6713C39.4004 38.6611 39.411 38.6465 39.416 38.6296L39.6562 37.8327C39.6606 37.8157 39.6705 37.8007 39.6844 37.79C39.6982 37.7793 39.7153 37.7734 39.7328 37.7734C39.7503 37.7734 39.7673 37.7793 39.7812 37.79C39.7951 37.8007 39.805 37.8157 39.8094 37.8327L40.0495 38.6296C40.0546 38.6465 40.0652 38.6611 40.0795 38.6713C40.0938 38.6815 40.1112 38.6866 40.1287 38.6858Z" fill="white"/>
<path d="M34.3587 40.3947L35.945 40.3666C35.9625 40.3654 35.98 40.37 35.9946 40.3797C36.0093 40.3895 36.0202 40.4039 36.0258 40.4206C36.0314 40.4373 36.0312 40.4553 36.0254 40.4719C36.0195 40.4885 36.0083 40.5027 35.9935 40.5122L34.6933 41.4242C34.6793 41.4338 34.6687 41.4477 34.6632 41.4638C34.6577 41.4799 34.6575 41.4973 34.6627 41.5136L35.1786 43.0155C35.1843 43.0316 35.1847 43.0491 35.1796 43.0654C35.1746 43.0816 35.1644 43.0959 35.1506 43.1059C35.1369 43.1159 35.1202 43.1213 35.1032 43.1211C35.0861 43.1209 35.0696 43.1153 35.056 43.1049L33.7891 42.1496C33.7752 42.1388 33.7581 42.133 33.7405 42.133C33.723 42.133 33.7059 42.1388 33.692 42.1496L32.425 43.1049C32.4115 43.1153 32.3949 43.1209 32.3779 43.1211C32.3608 43.1213 32.3442 43.1159 32.3304 43.1059C32.3166 43.0959 32.3065 43.0816 32.3014 43.0654C32.2964 43.0491 32.2967 43.0316 32.3024 43.0155L32.8184 41.5136C32.8236 41.4973 32.8234 41.4799 32.8179 41.4638C32.8123 41.4477 32.8018 41.4338 32.7877 41.4242L31.4876 40.5122C31.4727 40.5027 31.4615 40.4885 31.4557 40.4719C31.4498 40.4553 31.4497 40.4373 31.4552 40.4206C31.4608 40.4039 31.4718 40.3895 31.4864 40.3797C31.5011 40.37 31.5185 40.3654 31.5361 40.3666L33.1224 40.3947C33.1395 40.3949 33.1562 40.3895 33.17 40.3794C33.1839 40.3693 33.194 40.3549 33.199 40.3385L33.6639 38.8212C33.6683 38.8043 33.6782 38.7892 33.6921 38.7785C33.706 38.7678 33.723 38.762 33.7405 38.762C33.7581 38.762 33.7751 38.7678 33.789 38.7785C33.8028 38.7892 33.8127 38.8043 33.8172 38.8212L34.2821 40.3385C34.287 40.3549 34.2972 40.3693 34.311 40.3794C34.3248 40.3895 34.3416 40.3949 34.3587 40.3947Z" fill="white"/>
</g>
</svg>
