<svg width="176" height="72" viewBox="0 0 176 72" fill="none" xmlns="http://www.w3.org/2000/svg">
<path d="M11.0303 1.12224C11.0303 1.07081 11.0507 1.02149 11.0871 0.985117C11.1234 0.948749 11.1728 0.928318 11.2242 0.928318L15.0934 0.914466C15.648 0.912084 16.1976 1.02249 16.7108 1.23937C17.224 1.45625 17.6908 1.77535 18.0844 2.17843C18.4781 2.58151 18.7909 3.06067 19.005 3.58851C19.219 4.11635 19.3302 4.68253 19.3321 5.25467V6.47363C19.3359 7.62766 18.8955 8.73596 18.1076 9.55498C17.3198 10.374 16.2489 10.8367 15.1304 10.8415L11.2611 10.8554C11.2357 10.8554 11.2105 10.8504 11.1869 10.8406C11.1634 10.8309 11.142 10.8166 11.124 10.7986C11.106 10.7806 11.0917 10.7592 11.082 10.7357C11.0722 10.7121 11.0672 10.6869 11.0672 10.6615L11.0303 1.12224ZM13.0388 3.13998L13.0203 8.7176C13.0197 8.77014 13.0295 8.82227 13.0492 8.87098C13.0689 8.91969 13.098 8.96401 13.135 9.00137C13.1719 9.03874 13.2159 9.0684 13.2644 9.08864C13.3128 9.10889 13.3649 9.11931 13.4174 9.11931L14.8487 9.12392C15.4602 9.12504 16.0471 8.87531 16.4808 8.42951C16.9145 7.98371 17.1595 7.37828 17.162 6.74604L17.1712 5.14848C17.1725 4.83458 17.1138 4.52351 16.9986 4.2331C16.8835 3.9427 16.714 3.67864 16.5 3.45605C16.286 3.23346 16.0316 3.05672 15.7514 2.93593C15.4713 2.81514 15.1708 2.75268 14.8672 2.75213L13.4359 2.74751C13.3313 2.7475 13.231 2.78871 13.1567 2.86218C13.0824 2.93565 13.04 3.03547 13.0388 3.13998Z" fill="white"/>
<path d="M3.35649 8.0433C5.21036 8.0433 6.71323 6.54044 6.71323 4.68657C6.71323 2.8327 5.21036 1.32983 3.35649 1.32983C1.50262 1.32983 -0.000244141 2.8327 -0.000244141 4.68657C-0.000244141 6.54044 1.50262 8.0433 3.35649 8.0433Z" fill="white"/>
<path d="M58.1581 20.1958H62.7246C62.9308 20.1958 63.0308 20.2989 63.0247 20.5051L62.9 24.5221C62.8976 24.6026 62.864 24.6789 62.8062 24.7349C62.7484 24.791 62.6711 24.8223 62.5907 24.8223L58.1396 24.7946C57.9888 24.7946 57.9134 24.87 57.9134 25.0208V52.184C57.9134 52.2506 57.8878 52.3145 57.842 52.362C57.7963 52.4095 57.734 52.4368 57.6687 52.438L52.2065 52.5257C52.0095 52.5288 51.911 52.4318 51.911 52.2348V25.1593C51.911 24.9284 51.7955 24.813 51.5647 24.813H48.8544C48.6604 24.813 48.5635 24.7161 48.5635 24.5221V20.4266C48.5635 20.2727 48.6404 20.1958 48.7943 20.1958H51.5555C51.7278 20.1958 51.8171 20.108 51.8232 19.9326C52.0818 12.1895 50.2903 1.42669 62.8077 4.22012C62.9493 4.2509 63.0201 4.33863 63.0201 4.48331L62.9785 9.45607C62.9785 9.57612 62.9216 9.61614 62.8077 9.57612C56.4959 7.32291 57.8441 16.936 57.9365 19.9834C57.9426 20.125 58.0165 20.1958 58.1581 20.1958Z" fill="white"/>
<path d="M6.1076 14.4523H0.409924C0.295173 14.4523 0.202148 14.5453 0.202148 14.66V46.5375C0.202148 46.6522 0.295173 46.7453 0.409924 46.7453H6.1076C6.22235 46.7453 6.31538 46.6522 6.31538 46.5375V14.66C6.31538 14.5453 6.22235 14.4523 6.1076 14.4523Z" fill="white"/>
<path d="M16.815 22.2741H13.0704C13.0396 22.2745 13.0097 22.2845 12.9849 22.3027C12.96 22.3209 12.9415 22.3464 12.9319 22.3757L12.2578 24.4026C12.2475 24.4342 12.2269 24.4614 12.1992 24.4799C12.1716 24.4983 12.1385 24.5069 12.1054 24.5042L10.2169 24.3749C10.1938 24.373 10.1714 24.3657 10.1517 24.3535C10.1319 24.3414 10.1153 24.3247 10.1031 24.3049C10.091 24.2852 10.0837 24.2628 10.0818 24.2396C10.0799 24.2165 10.0835 24.1933 10.0923 24.1718L13.7768 14.7526C13.788 14.7251 13.8071 14.7015 13.8319 14.6851C13.8566 14.6686 13.8857 14.6599 13.9154 14.6602L15.9377 14.651C15.9674 14.6507 15.9965 14.6593 16.0212 14.6758C16.0459 14.6923 16.0651 14.7158 16.0762 14.7434L19.8808 24.2641C19.8898 24.2863 19.8933 24.3103 19.8909 24.3342C19.8885 24.358 19.8804 24.3809 19.8672 24.4009C19.8541 24.4208 19.8362 24.4373 19.8153 24.4489C19.7943 24.4605 19.7709 24.4668 19.7469 24.4673H17.8077C17.7767 24.4682 17.7462 24.4593 17.7205 24.4419C17.6948 24.4245 17.6752 24.3994 17.6646 24.3703L16.9581 22.371C16.9475 22.3419 16.9279 22.3168 16.9022 22.2994C16.8765 22.282 16.846 22.2732 16.815 22.2741ZM13.763 20.3487C13.7549 20.3716 13.7524 20.3962 13.7557 20.4203C13.759 20.4444 13.7681 20.4673 13.7821 20.4872C13.7961 20.5071 13.8147 20.5234 13.8363 20.5346C13.8578 20.5459 13.8818 20.5518 13.9061 20.5518L15.9469 20.5334C15.9718 20.5336 15.9964 20.5277 16.0185 20.5162C16.0406 20.5047 16.0595 20.488 16.0736 20.4674C16.0877 20.4469 16.0966 20.4233 16.0995 20.3986C16.1024 20.3738 16.0991 20.3488 16.0901 20.3256L15.042 17.4952C15.0313 17.4659 15.0118 17.4405 14.9862 17.4226C14.9606 17.4047 14.9301 17.3951 14.8988 17.3951C14.8676 17.3951 14.8371 17.4047 14.8115 17.4226C14.7859 17.4405 14.7664 17.4659 14.7557 17.4952L13.763 20.3487Z" fill="white"/>
<path d="M29.5685 22.6066C29.5624 22.822 29.6347 22.8528 29.7855 22.6989C31.7094 20.7166 33.7979 19.6761 36.0511 19.5776C39.8558 19.416 43.0047 21.8493 43.0971 25.834C43.1925 29.9988 43.194 38.8269 43.1017 52.3185C43.0986 52.4693 43.0216 52.5432 42.8708 52.5401L37.3855 52.4339C37.167 52.4309 37.0577 52.3185 37.0577 52.0969C37.1039 44.0352 37.0777 36.0966 36.9792 28.2811C36.91 22.842 29.7763 23.0452 29.6701 28.0457C29.5809 32.1304 29.5578 40.1659 29.6009 52.1523C29.6009 52.2908 29.5316 52.3616 29.3931 52.3647L23.6954 52.5263C23.6568 52.5269 23.6185 52.5198 23.5827 52.5055C23.5468 52.4911 23.5142 52.4698 23.4867 52.4427C23.4592 52.4157 23.4374 52.3834 23.4225 52.3478C23.4076 52.3122 23.3999 52.274 23.3999 52.2354V20.1964C23.3999 20.0424 23.4769 19.9655 23.6308 19.9655H29.4208C29.587 19.9655 29.667 20.0486 29.6609 20.2148L29.5685 22.6066Z" fill="white"/>
<path d="M76.2491 19.7346C83.7844 18.354 87.4598 24.2641 88.1062 30.8114C88.8542 38.3929 89.399 52.4431 78.3453 52.8402C66.5714 53.265 66.8068 37.7418 67.915 30.0911C68.7184 24.5088 70.5145 20.7827 76.2491 19.7346ZM79.5273 25.1321C72.0336 21.2352 74.3237 40.1336 74.5546 43.2825C74.9655 48.8417 80.7509 49.7651 81.4389 43.9474C81.799 40.9046 82.7086 26.7851 79.5273 25.1321Z" fill="white"/>
<path d="M101.884 24.458C101.882 24.4935 101.892 24.5286 101.914 24.5569C101.935 24.5852 101.966 24.6048 102.001 24.6121C102.036 24.6194 102.072 24.6139 102.103 24.5966C102.134 24.5793 102.158 24.5515 102.17 24.5181C103.408 21.7062 106.224 19.4622 109.415 19.6469C109.472 19.6493 109.526 19.6737 109.565 19.715C109.605 19.7563 109.627 19.8113 109.627 19.8685V24.6843C109.627 24.8228 109.559 24.8967 109.424 24.9059C103.047 25.4369 101.87 27.2145 101.875 33.3832C101.878 39.6965 101.83 46.0082 101.732 52.3185C101.728 52.4693 101.653 52.5432 101.505 52.5401L95.803 52.4662C95.734 52.465 95.6682 52.4368 95.6199 52.3875C95.5715 52.3383 95.5444 52.2721 95.5444 52.203V20.4272C95.5444 20.2733 95.6214 20.1963 95.7753 20.1963H101.57C101.739 20.1963 101.825 20.281 101.828 20.4503L101.884 24.458Z" fill="white"/>
<path d="M119.582 22.62C123.645 18.8108 128.899 17.9889 132.311 23.2572C132.41 23.408 132.515 23.4142 132.625 23.2756C135.894 19.1848 143.771 17.4764 146.048 23.6358C146.371 24.5069 146.537 25.949 146.546 27.9622C146.583 36.0454 146.585 44.1333 146.551 52.2257C146.548 52.3581 146.48 52.4258 146.348 52.4289L140.687 52.4889C140.653 52.4896 140.62 52.4834 140.588 52.471C140.557 52.4585 140.529 52.4398 140.505 52.4162C140.48 52.3926 140.461 52.3644 140.448 52.3332C140.435 52.3021 140.429 52.2687 140.429 52.235C140.475 44.5919 140.462 36.9704 140.392 29.3704C140.369 26.9556 140.004 24.8686 137.58 24.3191C134.592 23.645 133.046 26.2861 132.986 28.9779C132.829 36.6949 132.782 44.4195 132.847 52.1519C132.847 52.3119 132.765 52.392 132.602 52.392L126.923 52.4151C126.785 52.4181 126.715 52.3489 126.715 52.2073C126.706 44.0317 126.705 35.8638 126.711 27.7036C126.715 23.0956 119.305 23.0217 119.318 28.507C119.337 36.384 119.335 44.261 119.314 52.138C119.314 52.295 119.235 52.375 119.078 52.3781L113.367 52.4843C113.182 52.4874 113.09 52.3981 113.09 52.2165V20.4268C113.09 20.2729 113.167 20.196 113.321 20.196H119.032C119.226 20.196 119.323 20.2929 119.323 20.4868V22.5046C119.323 22.7416 119.409 22.7801 119.582 22.62Z" fill="white"/>
<path d="M168.293 23.3444L168.145 20.4355C168.143 20.4047 168.148 20.3738 168.158 20.3447C168.169 20.3156 168.185 20.289 168.207 20.2665C168.228 20.244 168.253 20.2261 168.282 20.2139C168.31 20.2017 168.341 20.1954 168.372 20.1954H174.152C174.306 20.1954 174.383 20.2724 174.383 20.4263V52.1698C174.383 52.3237 174.306 52.4007 174.152 52.4007H168.418C168.208 52.4007 168.108 52.296 168.118 52.0867L168.256 49.0486C168.258 49.0056 168.245 48.9634 168.22 48.9286C168.194 48.8937 168.158 48.8682 168.117 48.8561C168.076 48.8439 168.032 48.8458 167.992 48.8614C167.952 48.877 167.918 48.9055 167.896 48.9424C166.081 52.059 162.808 53.9659 159.271 52.2668C153.809 49.6396 154.058 41.781 154.04 36.6836C154.026 31.1106 154.151 17.3189 163.805 19.8676C165.68 20.3617 166.936 21.8853 167.97 23.4506C167.991 23.4836 168.022 23.5086 168.059 23.5218C168.096 23.535 168.136 23.5355 168.173 23.5233C168.21 23.5111 168.242 23.4869 168.264 23.4545C168.285 23.4221 168.296 23.3834 168.293 23.3444ZM166.576 25.5884C163.131 23.3305 161.275 26.6226 160.998 29.55C160.749 32.131 159.045 50.2491 165.606 47.1924C166.848 46.6107 167.485 45.1101 167.656 43.8311C168.021 41.1439 169.046 27.209 166.576 25.5884Z" fill="white"/>
<path d="M12.9643 32.5102L13.0335 37.9447C13.0335 38.012 13.0068 38.0766 12.9591 38.1242C12.9115 38.1718 12.8469 38.1986 12.7796 38.1986H11.4082C11.1681 38.1986 11.0481 38.0786 11.0481 37.8385V28.7379C11.0481 28.584 11.1204 28.4808 11.2651 28.4285C12.3856 28.013 13.2182 28.3008 13.763 29.2919C14.6865 30.9665 15.6576 32.6148 16.6765 34.237C16.8335 34.4833 16.9135 34.4617 16.9166 34.1724L16.9812 28.5901C16.9818 28.5509 16.9902 28.5122 17.0059 28.4763C17.0216 28.4404 17.0443 28.4079 17.0727 28.3808C17.101 28.3538 17.1345 28.3326 17.1711 28.3186C17.2078 28.3046 17.2468 28.298 17.286 28.2992L18.5881 28.3408C18.7943 28.3469 18.8974 28.4531 18.8974 28.6594V37.9354C18.8975 37.9722 18.89 38.0086 18.8754 38.0424C18.8608 38.0761 18.8394 38.1065 18.8126 38.1316C18.7857 38.1567 18.754 38.1761 18.7193 38.1884C18.6846 38.2007 18.6478 38.2058 18.6111 38.2032L17.0551 38.1016C16.8766 38.0893 16.7396 38.0078 16.6442 37.8569C15.4991 36.0562 14.374 34.2447 13.269 32.4224C13.2495 32.3929 13.221 32.3705 13.1878 32.3582C13.1546 32.346 13.1184 32.3447 13.0844 32.3545C13.0505 32.3643 13.0205 32.3847 12.9989 32.4127C12.9772 32.4406 12.9651 32.4748 12.9643 32.5102Z" fill="white"/>
<path d="M14.2254 43.8271C10.4162 45.771 14.5209 54.1421 17.2728 48.4952C17.359 48.3197 17.4944 48.2612 17.6791 48.3197L19.0043 48.7307C19.1766 48.783 19.2397 48.8969 19.1936 49.0723C18.815 50.5714 17.9223 51.5041 16.5156 51.8704C9.13721 53.7865 8.40769 40.9783 16.0031 41.9295C17.6653 42.1357 18.7272 42.996 19.1889 44.5105C19.2382 44.6675 19.1828 44.7691 19.0227 44.8152L17.5221 45.24C17.4657 45.2559 17.4054 45.2506 17.352 45.2252C17.2986 45.1998 17.2558 45.1559 17.2312 45.1015C16.6772 43.8502 15.4028 43.2269 14.2254 43.8271Z" fill="white"/>
<path d="M13.6903 59.5575H18.1459C18.169 59.5575 18.1918 59.5621 18.2131 59.5709C18.2343 59.5797 18.2537 59.5926 18.27 59.6089C18.2863 59.6252 18.2992 59.6445 18.308 59.6658C18.3168 59.6871 18.3214 59.7099 18.3214 59.733V61.1135C18.3214 61.1366 18.3168 61.1594 18.308 61.1807C18.2992 61.202 18.2863 61.2213 18.27 61.2376C18.2537 61.2539 18.2343 61.2668 18.2131 61.2756C18.1918 61.2844 18.169 61.289 18.1459 61.289H13.5333C13.5102 61.289 13.4874 61.2935 13.4661 61.3023C13.4449 61.3112 13.4255 61.3241 13.4092 61.3404C13.3929 61.3567 13.38 61.376 13.3712 61.3973C13.3624 61.4186 13.3578 61.4414 13.3578 61.4644V63.653C13.3578 63.6761 13.3624 63.6989 13.3712 63.7202C13.38 63.7415 13.3929 63.7608 13.4092 63.7771C13.4255 63.7934 13.4449 63.8063 13.4661 63.8151C13.4874 63.8239 13.5102 63.8285 13.5333 63.8285H18.8385C18.8615 63.8285 18.8844 63.833 18.9056 63.8418C18.9269 63.8506 18.9463 63.8636 18.9626 63.8799C18.9789 63.8962 18.9918 63.9155 19.0006 63.9368C19.0094 63.9581 19.014 63.9809 19.014 64.0039V65.3614C19.014 65.4071 18.9961 65.4511 18.9642 65.4839C18.9323 65.5166 18.8888 65.5356 18.8431 65.5369L11.5756 65.68C11.5522 65.6806 11.5288 65.6765 11.507 65.668C11.4852 65.6594 11.4653 65.6466 11.4485 65.6303C11.4317 65.6139 11.4184 65.5944 11.4093 65.5728C11.4002 65.5512 11.3955 65.528 11.3955 65.5045V55.836C11.3955 55.7895 11.414 55.7449 11.4469 55.712C11.4798 55.6791 11.5244 55.6606 11.571 55.6606L18.6076 55.619C18.6542 55.619 18.6988 55.6375 18.7317 55.6704C18.7646 55.7033 18.7831 55.7479 18.7831 55.7945V57.1981C18.7831 57.2439 18.7653 57.2878 18.7333 57.3206C18.7014 57.3534 18.658 57.3724 18.6123 57.3736L13.5241 57.4705C13.4998 57.471 13.4758 57.4766 13.4538 57.4868C13.4318 57.497 13.4121 57.5117 13.396 57.53C13.38 57.5482 13.3679 57.5696 13.3605 57.5927C13.3531 57.6159 13.3507 57.6403 13.3532 57.6645L13.5148 59.4005C13.5194 59.4438 13.5399 59.4838 13.5723 59.5128C13.6047 59.5418 13.6468 59.5578 13.6903 59.5575Z" fill="white"/>
<path d="M26.6226 58.9767C26.6226 58.9411 26.6367 58.9071 26.6618 58.882C26.6869 58.8569 26.7209 58.8428 26.7565 58.8428L29.4391 58.8381C30.284 58.837 31.0947 59.1949 31.693 59.8331C32.2914 60.4712 32.6282 61.3374 32.6296 62.241L32.6388 67.5232C32.6395 67.9707 32.5577 68.414 32.3982 68.8276C32.2387 69.2413 32.0045 69.6173 31.7091 69.9342C31.4137 70.251 31.0628 70.5025 30.6765 70.6743C30.2902 70.8461 29.876 70.9348 29.4575 70.9353L26.7749 70.9399C26.7573 70.9399 26.7399 70.9365 26.7237 70.9297C26.7074 70.923 26.6927 70.9131 26.6802 70.9007C26.6678 70.8883 26.6579 70.8735 26.6512 70.8573C26.6445 70.841 26.641 70.8236 26.641 70.806L26.6226 58.9767ZM30.5103 61.2253C30.5103 61.1349 30.4925 61.0454 30.4579 60.962C30.4233 60.8785 30.3727 60.8027 30.3088 60.7388C30.2449 60.6749 30.169 60.6242 30.0856 60.5896C30.0021 60.5551 29.9127 60.5373 29.8223 60.5373H29.2682C29.0858 60.5373 28.9108 60.6098 28.7818 60.7388C28.6527 60.8678 28.5803 61.0428 28.5803 61.2253V68.539C28.5803 68.7214 28.6527 68.8964 28.7818 69.0254C28.9108 69.1544 29.0858 69.2269 29.2682 69.2269H29.8223C29.9127 69.2269 30.0021 69.2091 30.0856 69.1746C30.169 69.14 30.2449 69.0893 30.3088 69.0254C30.3727 68.9615 30.4233 68.8857 30.4579 68.8022C30.4925 68.7188 30.5103 68.6293 30.5103 68.539V61.2253Z" fill="white"/>
<path d="M36.1759 70.9529C35.8311 70.9868 35.4848 70.9976 35.137 70.9852C34.9308 70.9791 34.8276 70.8729 34.8276 70.6667V59.1559C34.8276 58.962 34.9246 58.865 35.1185 58.865H36.5591C36.713 58.865 36.79 58.9419 36.79 59.0959V70.7128C36.79 70.9191 36.6884 71.0083 36.4852 70.9806L36.319 70.9575C36.273 70.9514 36.225 70.9498 36.1759 70.9529Z" fill="white"/>
<path d="M41.6052 68.8984C43.3644 70.1081 43.2813 67.6286 43.3921 66.7883C43.3967 66.7498 43.3932 66.7109 43.3818 66.6739C43.3704 66.637 43.3514 66.603 43.3261 66.5742C43.3007 66.5453 43.2696 66.5223 43.2348 66.5067C43.2 66.4911 43.1624 66.4832 43.1243 66.4835H42.4456C42.2362 66.4835 42.1285 66.3789 42.1224 66.1696L42.0993 65.2323C42.0931 65.026 42.1932 64.9137 42.3994 64.8952C43.3198 64.8213 44.234 64.8583 45.142 65.006C45.2682 65.0276 45.3313 65.1014 45.3313 65.2276V70.676C45.331 70.7195 45.3215 70.7625 45.3034 70.8021C45.2853 70.8417 45.259 70.8771 45.2264 70.9058C45.1937 70.9346 45.1553 70.9561 45.1137 70.969C45.0721 70.9819 45.0283 70.9859 44.985 70.9807C44.5202 70.9253 44.2324 70.6483 44.1216 70.1496C44.1156 70.1202 44.1021 70.0928 44.0824 70.0701C44.0627 70.0473 44.0375 70.0301 44.0093 70.0199C43.981 70.0097 43.9506 70.0069 43.9209 70.0118C43.8913 70.0168 43.8634 70.0292 43.84 70.048L43.0874 70.6437C42.955 70.7483 42.8057 70.8099 42.6395 70.8284C38.1608 71.3686 39.2135 64.3688 39.3428 62.1018C39.6152 57.2906 45.7423 58.1356 45.2298 62.6697C45.2218 62.7361 45.1902 62.7973 45.1408 62.8416C45.0914 62.8859 45.0277 62.9101 44.962 62.9098L43.5445 62.9006C43.5145 62.9003 43.4849 62.8935 43.4577 62.8806C43.4305 62.8678 43.4062 62.8492 43.3866 62.8261C43.367 62.8029 43.3524 62.7758 43.3438 62.7465C43.3352 62.7171 43.3328 62.6863 43.3367 62.6558C43.4383 61.9232 43.2659 61.2938 42.8196 60.7674C42.7092 60.6379 42.5618 60.5454 42.3972 60.5024C42.2326 60.4594 42.0588 60.4679 41.8992 60.5268C41.7396 60.5857 41.602 60.6921 41.5048 60.8318C41.4076 60.9714 41.3557 61.1375 41.3559 61.3076L41.3744 68.4597C41.3742 68.5464 41.3952 68.6318 41.4355 68.7082C41.4757 68.7847 41.534 68.85 41.6052 68.8984Z" fill="white"/>
<path d="M49.4596 58.865H47.7882C47.7091 58.865 47.645 58.9291 47.645 59.0081V70.8375C47.645 70.9165 47.7091 70.9806 47.7882 70.9806H49.4596C49.5386 70.9806 49.6027 70.9165 49.6027 70.8375V59.0081C49.6027 58.9291 49.5386 58.865 49.4596 58.865Z" fill="white"/>
<path d="M52.9081 60.5965H51.4952C51.4578 60.5965 51.4208 60.5889 51.3865 60.5741C51.3522 60.5593 51.3213 60.5375 51.2957 60.5102C51.2702 60.483 51.2505 60.4507 51.238 60.4155C51.2254 60.3803 51.2203 60.3429 51.2228 60.3056L51.2967 59.1189C51.3014 59.0499 51.3321 58.9853 51.3827 58.9381C51.4333 58.891 51.4999 58.8648 51.5691 58.865H56.9297C57.002 58.865 57.0712 58.8937 57.1223 58.9448C57.1734 58.9959 57.2021 59.0652 57.2021 59.1374V60.324C57.2021 60.3963 57.1734 60.4656 57.1223 60.5167C57.0712 60.5678 57.002 60.5965 56.9297 60.5965H55.5261C55.4538 60.5965 55.3845 60.6252 55.3334 60.6762C55.2823 60.7273 55.2536 60.7966 55.2536 60.8689L55.2629 70.7128C55.2629 70.7851 55.2342 70.8544 55.1831 70.9055C55.132 70.9565 55.0627 70.9852 54.9905 70.9852H53.4529C53.3807 70.9852 53.3114 70.9565 53.2603 70.9055C53.2092 70.8544 53.1805 70.7851 53.1805 70.7128V60.8689C53.1805 60.7966 53.1518 60.7273 53.1007 60.6762C53.0496 60.6252 52.9803 60.5965 52.9081 60.5965Z" fill="white"/>
<path d="M59.6353 68.6583L59.3028 70.7499C59.2942 70.8078 59.2654 70.8609 59.2214 70.8998C59.1775 70.9386 59.1213 70.9607 59.0627 70.9623L57.6452 70.9946C57.6082 70.9952 57.5715 70.9876 57.5378 70.9723C57.5041 70.957 57.4742 70.9344 57.4504 70.9061C57.4265 70.8778 57.4092 70.8445 57.3998 70.8087C57.3904 70.7729 57.3891 70.7355 57.3959 70.6991L59.5106 59.0729C59.5214 59.0158 59.5517 58.9643 59.5964 58.9272C59.641 58.8901 59.6973 58.8698 59.7553 58.8697L61.8008 58.8605C61.8595 58.8607 61.9162 58.8817 61.961 58.9197C62.0058 58.9577 62.0357 59.0103 62.0455 59.0682L64.1417 70.7129C64.1479 70.7494 64.1459 70.7867 64.1359 70.8223C64.1258 70.8579 64.108 70.8908 64.0837 70.9186C64.0594 70.9464 64.0292 70.9685 63.9953 70.9833C63.9614 70.998 63.9247 71.005 63.8878 71.0038L62.4056 70.9392C62.3464 70.9362 62.2902 70.9123 62.2471 70.8717C62.2039 70.8311 62.1767 70.7764 62.1701 70.7175L61.9347 68.6675C61.9279 68.6071 61.8993 68.5512 61.8542 68.5104C61.8092 68.4696 61.7507 68.4466 61.69 68.4459H59.88C59.8206 68.4463 59.7633 68.468 59.7184 68.5069C59.6736 68.5458 59.6441 68.5995 59.6353 68.6583ZM60.4341 66.6313C60.748 66.6313 61.0712 66.6144 61.4037 66.5805C61.5207 66.5682 61.5699 66.5035 61.5514 66.3866L60.8958 61.8571C60.8465 61.5154 60.7865 61.5138 60.7157 61.8524C60.3833 63.4531 60.1586 65.0568 60.0416 66.6636C60.0415 66.6702 60.0438 66.6766 60.048 66.6817C60.0523 66.6868 60.0582 66.6902 60.0647 66.6913C60.1139 66.7005 60.1678 66.6928 60.2263 66.6682C60.294 66.6405 60.3633 66.6282 60.4341 66.6313Z" fill="white"/>
<path d="M67.212 69.1391H69.9685C70.0162 69.1391 70.062 69.1581 70.0958 69.1919C70.1296 69.2256 70.1486 69.2714 70.1486 69.3192V70.7274C70.1486 70.7752 70.1296 70.821 70.0958 70.8548C70.062 70.8885 70.0162 70.9075 69.9685 70.9075L65.1896 70.9491C65.1419 70.9491 65.0961 70.9301 65.0623 70.8963C65.0285 70.8626 65.0096 70.8168 65.0096 70.769L64.9542 59.0966C64.9535 59.073 64.9576 59.0494 64.9661 59.0273C64.9746 59.0053 64.9873 58.9851 65.0036 58.9679C65.0199 58.9508 65.0394 58.937 65.061 58.9274C65.0827 58.9178 65.106 58.9125 65.1296 58.9119L66.8426 58.8473C66.867 58.846 66.8914 58.8498 66.9144 58.8582C66.9373 58.8667 66.9582 58.8798 66.976 58.8966C66.9937 58.9135 67.0078 58.9338 67.0174 58.9562C67.027 58.9787 67.032 59.0029 67.0319 59.0274V68.959C67.0319 69.0068 67.0509 69.0526 67.0847 69.0864C67.1184 69.1201 67.1642 69.1391 67.212 69.1391Z" fill="white"/>
<path d="M75.2387 59.1098C75.2387 59.0363 75.2679 58.9659 75.3198 58.9139C75.3718 58.862 75.4422 58.8328 75.5157 58.8328L77.9813 58.8374C78.4106 58.838 78.8356 58.9265 79.232 59.0981C79.6284 59.2697 79.9885 59.5208 80.2916 59.8372C80.5947 60.1537 80.835 60.5291 80.9987 60.9423C81.1624 61.3554 81.2464 61.798 81.2457 62.2449L81.2365 67.6009C81.2352 68.5034 80.8896 69.3684 80.2756 70.0057C79.6617 70.643 78.8298 71.0003 77.9629 70.9992L75.4973 70.9946C75.4609 70.9946 75.4248 70.9874 75.3912 70.9735C75.3576 70.9596 75.3271 70.9392 75.3014 70.9134C75.2756 70.8877 75.2552 70.8572 75.2413 70.8236C75.2274 70.79 75.2202 70.7539 75.2202 70.7175L75.2387 59.1098ZM79.1172 61.1829C79.1172 61.0384 79.0598 60.8999 78.9576 60.7977C78.8554 60.6955 78.7168 60.6381 78.5723 60.6381H77.8428C77.7713 60.6381 77.7004 60.6522 77.6343 60.6796C77.5682 60.707 77.5081 60.7471 77.4576 60.7977C77.407 60.8483 77.3668 60.9083 77.3394 60.9744C77.3121 61.0405 77.298 61.1114 77.298 61.1829V68.6629C77.298 68.7344 77.3121 68.8053 77.3394 68.8714C77.3668 68.9375 77.407 68.9975 77.4576 69.0481C77.5081 69.0987 77.5682 69.1389 77.6343 69.1662C77.7004 69.1936 77.7713 69.2077 77.8428 69.2077H78.5723C78.7168 69.2077 78.8554 69.1503 78.9576 69.0481C79.0598 68.946 79.1172 68.8074 79.1172 68.6629V61.1829Z" fill="white"/>
<path d="M84.8267 68.5843L84.5405 70.7867C84.5348 70.8263 84.5147 70.8623 84.484 70.8879C84.4533 70.9135 84.4142 70.9268 84.3742 70.9252L82.7905 70.8467C82.7675 70.8458 82.745 70.8399 82.7245 70.8295C82.704 70.8192 82.6859 70.8045 82.6715 70.7866C82.657 70.7687 82.6466 70.7479 82.6409 70.7256C82.6351 70.7033 82.6342 70.6801 82.6382 70.6574L84.7205 58.9989C84.727 58.9618 84.7462 58.9281 84.7749 58.9036C84.8035 58.8792 84.8398 58.8655 84.8775 58.865H87.0846C87.1222 58.8655 87.1585 58.8792 87.1872 58.9036C87.2159 58.9281 87.2351 58.9618 87.2415 58.9989L89.3285 70.7174C89.3333 70.7408 89.3329 70.765 89.3272 70.7881C89.3215 70.8113 89.3108 70.8329 89.2958 70.8515C89.2808 70.87 89.2619 70.885 89.2404 70.8953C89.2189 70.9057 89.1954 70.9112 89.1716 70.9114L87.6017 70.9345C87.5625 70.9349 87.5246 70.921 87.4949 70.8956C87.4651 70.8701 87.4457 70.8347 87.4401 70.7959L87.0661 68.5797C87.0595 68.5418 87.0396 68.5075 87.01 68.4829C86.9804 68.4584 86.943 68.4452 86.9045 68.4458H84.9883C84.9492 68.4454 84.9112 68.4592 84.8815 68.4847C84.8518 68.5101 84.8323 68.5455 84.8267 68.5843ZM85.4593 66.7097L86.4289 66.7189C86.462 66.7189 86.4937 66.7058 86.5171 66.6824C86.5404 66.659 86.5536 66.6273 86.5536 66.5943L86.5582 66.5204C86.5625 65.9008 86.5524 65.2872 86.5282 64.7146C86.5041 64.1421 86.4666 63.6218 86.4177 63.1835C86.3688 62.7453 86.3095 62.3976 86.2433 62.1605C86.1771 61.9234 86.1053 61.8014 86.0318 61.8016H85.9302C85.7822 61.8018 85.6368 62.298 85.526 63.181C85.4151 64.0641 85.348 65.2618 85.3392 66.5111L85.3346 66.585C85.3346 66.6181 85.3478 66.6498 85.3711 66.6732C85.3945 66.6965 85.4262 66.7097 85.4593 66.7097Z" fill="white"/>
<path d="M95.0788 65.1259L95.0834 59.0357C95.0834 58.9953 95.0994 58.9566 95.128 58.928C95.1566 58.8994 95.1953 58.8834 95.2357 58.8834L96.7779 58.8741C96.8183 58.8741 96.8571 58.8902 96.8856 58.9188C96.9142 58.9473 96.9303 58.9861 96.9303 59.0265V70.7451C96.9303 70.7839 96.9156 70.8213 96.889 70.8497C96.8624 70.878 96.8259 70.8951 96.7871 70.8974L95.2865 70.9944C95.2536 70.9963 95.2209 70.9874 95.1934 70.969C95.1659 70.9507 95.1451 70.924 95.1342 70.8928L92.8579 64.0177C92.8489 63.9806 92.8263 63.9482 92.7946 63.927C92.7629 63.9057 92.7243 63.8971 92.6866 63.9029C92.6488 63.9087 92.6147 63.9285 92.5908 63.9583C92.5669 63.9881 92.5551 64.0258 92.5577 64.0639L92.5347 70.8328C92.5347 70.8528 92.5307 70.8726 92.5231 70.8911C92.5154 70.9096 92.5042 70.9264 92.49 70.9405C92.4759 70.9547 92.4591 70.9659 92.4406 70.9736C92.4221 70.9812 92.4023 70.9852 92.3823 70.9852H90.9325C90.9125 70.9852 90.8927 70.9812 90.8742 70.9736C90.8557 70.9659 90.8389 70.9547 90.8247 70.9405C90.8106 70.9264 90.7994 70.9096 90.7917 70.8911C90.7841 70.8726 90.7801 70.8528 90.7801 70.8328L90.6924 59.0634C90.6924 59.0238 90.7078 58.9857 90.7354 58.9573C90.763 58.9289 90.8005 58.9123 90.8401 58.9111L92.507 58.8464C92.5399 58.8446 92.5726 58.8535 92.6001 58.8718C92.6276 58.8901 92.6484 58.9169 92.6593 58.948L94.7833 65.1721C94.7953 65.2053 94.8185 65.2333 94.8489 65.2513C94.8794 65.2693 94.9151 65.2761 94.95 65.2707C94.9849 65.2652 95.0169 65.2478 95.0404 65.2214C95.0638 65.195 95.0774 65.1612 95.0788 65.1259Z" fill="white"/>
<path d="M102.049 69.1438L102.622 69.0561C102.788 69.0315 102.88 68.936 102.899 68.7698L103.111 66.8352C103.119 66.7699 103.151 66.7098 103.2 66.6664C103.25 66.623 103.313 66.5992 103.379 66.5997H104.658C104.815 66.5997 104.909 66.6782 104.94 66.8352C105.886 71.7433 98.9881 72.6575 99.0112 67.3477C99.0205 64.9329 97.8338 58.0809 102.511 58.9582C104.404 59.3137 105.235 60.8789 104.981 62.712C104.963 62.8413 104.887 62.9059 104.755 62.9059H103.268C103.127 62.9059 103.048 62.8351 103.033 62.6935L102.908 61.3314C102.899 61.2411 102.87 61.1543 102.822 61.0781C102.774 61.0019 102.708 60.9384 102.631 60.8928C102.083 60.5727 101.595 60.6188 101.167 61.0313C101.035 61.1575 100.969 61.313 100.969 61.4977V68.2157C100.969 68.3508 100.999 68.4842 101.056 68.6069C101.112 68.7296 101.195 68.8386 101.297 68.9266C101.4 69.0147 101.52 69.0796 101.65 69.1171C101.779 69.1546 101.916 69.1637 102.049 69.1438Z" fill="white"/>
<path d="M109.341 69.1384H112.568C112.615 69.1384 112.66 69.1568 112.692 69.1897C112.725 69.2226 112.744 69.2673 112.744 69.3138V70.7729C112.744 70.7963 112.739 70.8195 112.73 70.8411C112.721 70.8627 112.708 70.8822 112.691 70.8986C112.674 70.9149 112.654 70.9278 112.632 70.9363C112.61 70.9448 112.587 70.9489 112.564 70.9483L107.374 70.8375C107.328 70.8363 107.285 70.8173 107.253 70.7845C107.221 70.7517 107.203 70.7078 107.203 70.662V59.0404C107.203 58.9939 107.222 58.9493 107.255 58.9164C107.287 58.8835 107.332 58.865 107.379 58.865H112.337C112.384 58.865 112.429 58.8835 112.462 58.9164C112.494 58.9493 112.513 58.9939 112.513 59.0404V60.421C112.513 60.4675 112.494 60.5122 112.462 60.5451C112.429 60.578 112.384 60.5965 112.337 60.5965H109.341C109.294 60.5965 109.25 60.6149 109.217 60.6478C109.184 60.6807 109.165 60.7254 109.165 60.7719V63.6531C109.165 63.6996 109.184 63.7442 109.217 63.7771C109.25 63.81 109.294 63.8285 109.341 63.8285H111.59C111.613 63.8285 111.637 63.8333 111.659 63.8427C111.681 63.8521 111.701 63.8658 111.717 63.8831C111.733 63.9004 111.746 63.9209 111.754 63.9432C111.763 63.9656 111.766 63.9894 111.765 64.0132L111.677 65.5369C111.676 65.5604 111.67 65.5834 111.66 65.6045C111.65 65.6257 111.635 65.6446 111.618 65.6601C111.6 65.6756 111.58 65.6874 111.557 65.6948C111.535 65.7022 111.511 65.705 111.488 65.7031L109.359 65.4907C109.335 65.4881 109.31 65.4907 109.287 65.4984C109.263 65.506 109.241 65.5185 109.223 65.5351C109.205 65.5517 109.19 65.5719 109.18 65.5945C109.17 65.6171 109.165 65.6415 109.165 65.6662V68.9629C109.165 69.0094 109.184 69.0541 109.217 69.087C109.25 69.1199 109.294 69.1384 109.341 69.1384Z" fill="white"/>
<path d="M121.526 65.4124C121.533 65.4444 121.551 65.4728 121.577 65.4934C121.602 65.5139 121.634 65.5254 121.667 65.5259C121.7 65.5264 121.732 65.516 121.758 65.4963C121.784 65.4766 121.803 65.4487 121.812 65.4171L123.248 59.1099C123.285 58.9468 123.386 58.8652 123.553 58.8652H125.612C125.806 58.8652 125.903 58.9622 125.903 59.1561V70.6946C125.903 70.8885 125.807 70.9855 125.617 70.9855H124.462C124.268 70.9855 124.171 70.8885 124.171 70.6946V62.0973C124.174 62.0747 124.168 62.0523 124.154 62.0351C124.141 62.0178 124.12 62.0071 124.097 62.0052C124.075 62.0034 124.052 62.0106 124.034 62.0253C124.015 62.0399 124.004 62.0608 124 62.0834L122.329 70.4776C122.302 70.6189 122.228 70.7463 122.117 70.8378C122.007 70.9294 121.867 70.9795 121.723 70.9795C121.579 70.9795 121.439 70.9294 121.327 70.8378C121.216 70.7463 121.139 70.6189 121.11 70.4776L119.443 62.185C119.434 62.1388 119.405 62.1127 119.356 62.1065C119.316 62.0973 119.276 62.0988 119.235 62.1111C119.217 62.1173 119.208 62.1311 119.208 62.1527V70.7223C119.208 70.9347 119.103 71.027 118.894 70.9993L117.684 70.8516C117.546 70.8331 117.476 70.7546 117.476 70.6161V59.0914C117.476 58.9345 117.555 58.856 117.712 58.856L119.947 58.8837C120.1 58.8837 120.193 58.9591 120.224 59.1099L121.526 65.4124Z" fill="white"/>
<path d="M129.172 68.709L128.983 70.5743C128.977 70.6406 128.949 70.7029 128.903 70.7508C128.857 70.7987 128.795 70.8293 128.729 70.8375L127.349 70.9899C127.304 70.9948 127.259 70.9892 127.217 70.9737C127.174 70.9582 127.136 70.9332 127.106 70.9005C127.075 70.8679 127.052 70.8285 127.039 70.7855C127.026 70.7426 127.023 70.6971 127.03 70.6528L129.094 59.1051C129.106 59.0378 129.141 58.9769 129.193 58.933C129.246 58.8891 129.312 58.865 129.38 58.865H131.352C131.42 58.865 131.486 58.8891 131.539 58.933C131.591 58.9769 131.626 59.0378 131.638 59.1051L133.684 70.6667C133.691 70.7105 133.689 70.7555 133.677 70.7983C133.665 70.8412 133.643 70.8806 133.613 70.9136C133.583 70.9466 133.546 70.9723 133.505 70.9887C133.463 71.0052 133.419 71.0119 133.374 71.0083L131.957 70.8975C131.89 70.8927 131.826 70.8648 131.777 70.8185C131.729 70.7722 131.697 70.7103 131.689 70.6436L131.43 68.6997C131.421 68.6299 131.387 68.5657 131.335 68.519C131.282 68.4723 131.214 68.4463 131.144 68.4458H129.463C129.391 68.4454 129.321 68.4723 129.267 68.5209C129.213 68.5696 129.179 68.6367 129.172 68.709ZM130.294 61.6538L129.588 66.2803C129.557 66.4896 129.647 66.6066 129.856 66.6312L130.798 66.7374C131.022 66.762 131.119 66.662 131.089 66.4373L130.461 61.6538C130.461 61.6318 130.452 61.6106 130.436 61.595C130.421 61.5794 130.4 61.5707 130.378 61.5707C130.356 61.5707 130.334 61.5794 130.319 61.595C130.303 61.6106 130.294 61.6318 130.294 61.6538Z" fill="white"/>
<path d="M135.271 62.4715C135.363 60.9109 135.64 58.9024 137.778 58.907C140.068 58.907 141.164 60.1506 141.065 62.6377C141.059 62.8163 140.967 62.9055 140.788 62.9055H139.546C139.392 62.9055 139.299 62.8301 139.265 62.6793L138.932 61.114C138.915 61.0312 138.879 60.9537 138.826 60.8878C138.773 60.822 138.705 60.7697 138.627 60.7354C138.104 60.5046 137.662 60.6539 137.302 61.1833C137.244 61.2695 137.216 61.3634 137.219 61.4649L137.275 68.4878C137.276 68.6127 137.316 68.7341 137.388 68.8357C137.461 68.9373 137.563 69.0141 137.681 69.0557C139.182 69.5867 139.315 67.7167 139.126 66.7147C139.092 66.527 138.981 66.4485 138.794 66.4793C138.11 66.5932 137.826 66.2592 137.94 65.4773C137.998 65.071 138.232 64.8679 138.641 64.8679H140.908C141.062 64.8679 141.139 64.9448 141.139 65.0987V70.6348C141.141 70.7394 141.106 70.8413 141.04 70.9224C140.974 71.0035 140.881 71.0586 140.778 71.0779C140.675 71.0973 140.569 71.0796 140.478 71.0281C140.387 70.9766 140.317 70.8945 140.28 70.7964L140.05 70.2054C140.036 70.171 140.015 70.1402 139.988 70.1154C139.961 70.0906 139.928 70.0725 139.893 70.0626C139.857 70.0528 139.82 70.0513 139.784 70.0585C139.748 70.0656 139.714 70.0812 139.685 70.1038C137.815 71.549 135.543 70.8518 135.266 68.437C135.106 67.0672 135.108 65.0787 135.271 62.4715Z" fill="white"/>
<path d="M144.833 68.6074L144.561 70.7452C144.555 70.7901 144.533 70.8313 144.499 70.8611C144.465 70.8909 144.422 70.9071 144.376 70.9068L142.816 70.8929C142.789 70.8927 142.762 70.8866 142.738 70.875C142.714 70.8635 142.693 70.8468 142.675 70.8262C142.658 70.8055 142.646 70.7814 142.639 70.7554C142.632 70.7295 142.631 70.7023 142.636 70.6759L144.695 59.0174C144.703 58.9742 144.725 58.9351 144.759 58.9072C144.793 58.8793 144.836 58.8643 144.88 58.865H147.05C147.093 58.8654 147.134 58.8809 147.167 58.9087C147.2 58.9365 147.222 58.975 147.23 59.0174L149.331 70.639C149.335 70.6643 149.335 70.6903 149.328 70.7153C149.322 70.7403 149.311 70.7638 149.296 70.7843C149.28 70.8047 149.26 70.8216 149.238 70.834C149.215 70.8463 149.19 70.8538 149.164 70.856L147.645 70.9853C147.599 70.9894 147.553 70.9761 147.516 70.9478C147.48 70.9196 147.455 70.8786 147.447 70.8329L147.077 68.5982C147.07 68.555 147.047 68.5159 147.013 68.488C146.979 68.4601 146.937 68.4451 146.893 68.4458H145.018C144.973 68.4454 144.929 68.4617 144.895 68.4915C144.861 68.5213 144.839 68.5625 144.833 68.6074ZM145.9 61.7785L145.166 66.3403C145.141 66.5127 145.215 66.5989 145.388 66.5989H146.486C146.671 66.5989 146.751 66.5081 146.727 66.3265L146.099 61.7785C146.094 61.7558 146.081 61.7355 146.063 61.721C146.045 61.7064 146.023 61.6984 145.999 61.6984C145.976 61.6984 145.954 61.7064 145.936 61.721C145.918 61.7355 145.905 61.7558 145.9 61.7785Z" fill="white"/>
<path d="M152.567 69.1384H155.623C155.817 69.1384 155.914 69.2353 155.914 69.4292V70.6528C155.914 70.8159 155.832 70.8975 155.669 70.8975L150.415 70.8837C150.363 70.8839 150.312 70.8666 150.272 70.8347C150.232 70.8027 150.204 70.758 150.193 70.7082C149.745 68.4642 152.797 63.1175 153.79 60.8966C153.882 60.6965 153.819 60.5965 153.601 60.5965H150.78C150.586 60.5965 150.489 60.501 150.489 60.3102V59.1559C150.489 58.962 150.586 58.865 150.78 58.865H155.475C155.688 58.865 155.796 58.9712 155.799 59.1836C155.808 62.1063 153.458 66.054 152.373 68.8613C152.302 69.046 152.366 69.1384 152.567 69.1384Z" fill="white"/>
<path d="M159.728 58.8739H158.343C158.154 58.8739 158.001 59.0269 158.001 59.2156V70.5925C158.001 70.7812 158.154 70.9341 158.343 70.9341H159.728C159.917 70.9341 160.07 70.7812 160.07 70.5925V59.2156C160.07 59.0269 159.917 58.8739 159.728 58.8739Z" fill="white"/>
<path d="M166.221 65.3106C166.228 65.3302 166.241 65.3469 166.259 65.3576C166.277 65.3683 166.298 65.3724 166.318 65.3691C166.339 65.3657 166.357 65.3553 166.371 65.3395C166.384 65.3237 166.392 65.3036 166.392 65.2829L166.48 59.1789C166.483 58.9695 166.589 58.8649 166.798 58.8649H167.92C168.151 58.8649 168.266 58.9803 168.266 59.2112C168.266 63.0558 168.266 66.902 168.266 70.7497C168.267 70.7863 168.259 70.8225 168.244 70.856C168.229 70.8896 168.208 70.9197 168.18 70.9444C168.153 70.9692 168.121 70.9881 168.085 70.9999C168.05 71.0116 168.013 71.0161 167.976 71.0129L166.761 70.8836C166.601 70.8682 166.495 70.7835 166.443 70.6296L164.162 63.87C164.151 63.8425 164.131 63.8196 164.105 63.805C164.079 63.7905 164.049 63.7852 164.02 63.7901C163.991 63.7949 163.965 63.8096 163.945 63.8317C163.925 63.8538 163.914 63.882 163.912 63.9115L163.903 70.5604C163.904 70.6408 163.874 70.7184 163.82 70.7782C163.766 70.838 163.692 70.8755 163.612 70.8836L162.5 70.9805C162.456 70.9844 162.412 70.9792 162.37 70.9655C162.328 70.9517 162.29 70.9296 162.258 70.9005C162.225 70.8715 162.199 70.8361 162.181 70.7966C162.163 70.7572 162.154 70.7145 162.153 70.6712L162.033 59.1789C162.033 59.0065 162.119 58.9172 162.292 58.9111L163.672 58.851C163.76 58.8469 163.847 58.8712 163.92 58.9202C163.994 58.9692 164.049 59.0405 164.079 59.1235L166.221 65.3106Z" fill="white"/>
<path d="M172.593 63.8285H174.809C174.849 63.8285 174.888 63.8446 174.917 63.8731C174.945 63.9017 174.961 63.9405 174.961 63.9809V65.4215C174.961 65.4603 174.947 65.4978 174.92 65.5261C174.893 65.5544 174.857 65.5715 174.818 65.5738L172.565 65.7124C172.526 65.7147 172.49 65.7318 172.463 65.7601C172.436 65.7885 172.422 65.8259 172.422 65.8647L172.417 68.986C172.417 69.0264 172.433 69.0652 172.462 69.0937C172.49 69.1223 172.529 69.1384 172.57 69.1384H175.848C175.888 69.1384 175.927 69.1544 175.955 69.183C175.984 69.2116 176 69.2503 176 69.2907V70.6944C176 70.7348 175.984 70.7735 175.955 70.8021C175.927 70.8307 175.888 70.8467 175.848 70.8467L170.496 70.9298C170.456 70.9298 170.417 70.9138 170.389 70.8852C170.36 70.8566 170.344 70.8179 170.344 70.7775V59.0174C170.344 58.9769 170.36 58.9382 170.389 58.9096C170.417 58.881 170.456 58.865 170.496 58.865H175.589C175.629 58.865 175.667 58.8804 175.695 58.908C175.724 58.9356 175.74 58.9731 175.742 59.0127L175.783 60.4395C175.784 60.4599 175.78 60.4802 175.773 60.4992C175.765 60.5182 175.754 60.5356 175.74 60.5502C175.726 60.5649 175.709 60.5765 175.69 60.5844C175.671 60.5924 175.651 60.5965 175.631 60.5965H172.528C172.508 60.5964 172.487 60.6005 172.469 60.6085C172.45 60.6164 172.433 60.6281 172.419 60.6427C172.404 60.6573 172.393 60.6747 172.386 60.6937C172.378 60.7127 172.375 60.733 172.376 60.7534L172.44 63.6808C172.441 63.7204 172.458 63.758 172.486 63.7855C172.515 63.8131 172.553 63.8285 172.593 63.8285Z" fill="white"/>
</svg>
