<svg width="150" height="150" viewBox="0 0 150 150" fill="none" xmlns="http://www.w3.org/2000/svg">
<circle cx="75" cy="75" r="75" fill="#001838"/>
<circle cx="75" cy="75" r="53.75" fill="#04234D"/>
<circle cx="75" cy="75" r="28.75" fill="white"/>
<path d="M65.542 86.57C63.802 86.57 62.312 86.29 61.072 85.73C59.832 85.15 58.822 84.37 58.042 83.39C57.282 82.41 56.712 81.28 56.332 80C55.972 78.7 55.792 77.33 55.792 75.89V74.18C55.792 72.18 56.142 70.37 56.842 68.75C57.542 67.13 58.612 65.84 60.052 64.88C61.492 63.92 63.322 63.44 65.542 63.44C67.762 63.44 69.582 63.92 71.002 64.88C72.442 65.84 73.512 67.13 74.212 68.75C74.912 70.37 75.262 72.18 75.262 74.18V75.89C75.262 77.33 75.072 78.7 74.692 80C74.332 81.28 73.762 82.41 72.982 83.39C72.222 84.37 71.222 85.15 69.982 85.73C68.762 86.29 67.282 86.57 65.542 86.57ZM65.542 82.04C67.162 82.04 68.362 81.48 69.142 80.36C69.942 79.22 70.342 77.46 70.342 75.08C70.342 72.56 69.932 70.75 69.112 69.65C68.312 68.53 67.122 67.97 65.542 67.97C63.922 67.97 62.712 68.53 61.912 69.65C61.112 70.75 60.712 72.54 60.712 75.02C60.712 77.42 61.102 79.19 61.882 80.33C62.682 81.47 63.902 82.04 65.542 82.04ZM86.2629 86.57C84.5629 86.57 83.0829 86.26 81.8229 85.64C80.5829 85 79.6329 84.14 78.9729 83.06C78.3129 81.98 77.9829 80.76 77.9829 79.4H82.7229C82.7229 80.32 83.0329 81.07 83.6529 81.65C84.2729 82.21 85.1429 82.49 86.2629 82.49C87.0029 82.49 87.6329 82.35 88.1529 82.07C88.6729 81.79 89.0729 81.41 89.3529 80.93C89.6329 80.43 89.7729 79.87 89.7729 79.25C89.7729 78.29 89.4629 77.5 88.8429 76.88C88.2429 76.26 87.3829 75.95 86.2629 75.95C85.6629 75.95 85.1329 76.04 84.6729 76.22C84.2329 76.4 83.8529 76.62 83.5329 76.88L81.3129 73.13L87.9429 68.81L87.6729 68.3H78.8829V64.1H93.6429V68.66L85.9929 73.52L83.5929 72.86C83.9929 72.74 84.4129 72.65 84.8529 72.59C85.3129 72.51 85.8029 72.47 86.3229 72.47C88.0229 72.47 89.4829 72.75 90.7029 73.31C91.9229 73.87 92.8629 74.66 93.5229 75.68C94.2029 76.68 94.5429 77.85 94.5429 79.19V79.55C94.5429 80.89 94.2029 82.09 93.5229 83.15C92.8629 84.21 91.9129 85.05 90.6729 85.67C89.4529 86.27 87.9829 86.57 86.2629 86.57Z" fill="black"/>
</svg>
