<svg width="155" height="155" viewBox="0 0 155 155" fill="none" xmlns="http://www.w3.org/2000/svg">
<path d="M77.5 155C120.302 155 155 120.302 155 77.5C155 34.6979 120.302 0 77.5 0C34.6979 0 0 34.6979 0 77.5C0 120.302 34.6979 155 77.5 155Z" fill="black"/>
<g clip-path="url(#clip0_1165_6128)">
<path d="M77.502 90.8203C86.6977 90.8203 94.1523 83.3657 94.1523 74.1699C94.1523 64.9742 86.6977 57.5195 77.502 57.5195C68.3062 57.5195 60.8516 64.9742 60.8516 74.1699C60.8516 83.3657 68.3062 90.8203 77.502 90.8203Z" fill="white"/>
<path d="M80.6316 109.635L77.5014 112.765L74.3711 109.635L76.136 97.4138C76.6022 97.4804 77.0352 97.4804 77.5014 97.4804C77.9676 97.4804 78.4005 97.4804 78.8667 97.4138L80.6316 109.635Z" fill="white"/>
<path d="M100.809 105.306V124.121C100.809 127.784 97.8115 130.781 94.1484 130.781H60.8477C57.1846 130.781 54.1875 127.784 54.1875 124.121V105.306C54.1875 99.3786 56.6518 94.0172 60.5813 90.1876C63.0455 92.8184 66.1092 94.8497 69.5725 96.0819L67.5411 110.335C67.4079 111.367 67.7409 112.399 68.4735 113.165L75.1337 119.825C75.7997 120.458 76.6322 120.791 77.498 120.791C78.3639 120.791 79.1964 120.458 79.8624 119.825L86.5226 113.165C87.2552 112.399 87.5882 111.367 87.455 110.335L85.4236 96.0819C88.8869 94.8497 91.9506 92.8184 94.4148 90.1876C98.3443 94.0172 100.809 99.3786 100.809 105.306Z" fill="white"/>
<path d="M90.3688 33.0921L84.1119 31.3508L80.2534 25.676C79.0113 23.8548 75.9869 23.8548 74.7444 25.676L70.8859 31.3508L64.629 33.0921C63.5527 33.3911 62.6989 34.209 62.3542 35.2726C62.0095 36.3342 62.2193 37.4988 62.9153 38.3719L67.2551 43.8352L66.7542 50.0402C66.6617 51.1734 67.1542 52.2743 68.06 52.962C68.9674 53.6483 70.1576 53.8221 71.2275 53.4318L77.4991 51.1148L83.7706 53.4318C84.1462 53.57 84.5365 53.6383 84.9251 53.6383C85.6404 53.6383 86.3494 53.4075 86.9382 52.962C87.844 52.2743 88.3365 51.1734 88.2439 50.0402L87.7431 43.8352L92.0828 38.3719C92.7788 37.4988 92.9886 36.3346 92.6439 35.2726C92.2993 34.2093 91.4451 33.3914 90.3688 33.0921Z" fill="white"/>
<path d="M57.4643 47.6189L51.2074 45.8789L47.3488 40.2041C46.7278 39.2937 45.6968 38.7472 44.5945 38.7472C43.4923 38.7472 42.4613 39.2937 41.8416 40.2041L37.9813 45.8789L31.7228 47.6189C30.6478 47.9179 29.7927 48.7358 29.448 49.7977C29.1033 50.8597 29.3131 52.0239 30.0075 52.8987L34.3505 58.3637L33.8497 64.5686C33.7571 65.7018 34.2513 66.8044 35.1571 67.4904C36.0612 68.1768 37.2547 68.3506 38.323 67.9603L44.5945 65.6416L50.8661 67.9603C51.2417 68.0985 51.632 68.1668 52.0206 68.1668C52.7359 68.1668 53.4449 67.936 54.032 67.4904C54.9394 66.8028 55.4319 65.7018 55.3394 64.5686L54.8385 58.3637L59.1799 52.8987C59.8743 52.0239 60.0841 50.8597 59.7394 49.7977C59.3947 48.7358 58.5389 47.9179 57.4643 47.6189Z" fill="white"/>
<path d="M125.555 49.7977C125.211 48.7361 124.355 47.9179 123.281 47.6188L117.022 45.8789L113.162 40.2041C111.923 38.3795 108.897 38.3829 107.655 40.2041L103.796 45.8789L97.5392 47.6188C96.4642 47.9179 95.6091 48.7357 95.2644 49.7977C94.9197 50.8597 95.1295 52.0239 95.8239 52.8987L100.165 58.3637L99.6644 64.5686C99.5719 65.7018 100.064 66.8027 100.972 67.4904C101.559 67.936 102.268 68.1667 102.983 68.1667C103.372 68.1667 103.762 68.0985 104.138 67.9603L110.409 65.6415L116.681 67.9603C117.747 68.3522 118.939 68.1781 119.847 67.4904C120.753 66.8041 121.247 65.7018 121.154 64.5686L120.653 58.3637L124.996 52.8987C125.691 52.0239 125.9 50.8597 125.555 49.7977Z" fill="white"/>
</g>
<defs>
<clipPath id="clip0_1165_6128">
<rect width="106.562" height="106.562" fill="white" transform="translate(24.2188 24.2188)"/>
</clipPath>
</defs>
</svg>
