<svg width="116" height="90" viewBox="0 0 116 90" fill="none" xmlns="http://www.w3.org/2000/svg">
<g clip-path="url(#clip0_425_842)">
<path d="M57.1114 0H58.2714C77.4735 0.424186 92.4607 16.0521 91.7157 34.7449C91.5971 37.7253 90.9714 40.8056 90.0964 43.6598C90.0897 43.6812 90.0752 43.6919 90.0528 43.6919H52.1785C52.1643 43.6919 52.1507 43.6863 52.1406 43.6765C52.1306 43.6667 52.1249 43.6534 52.1249 43.6395V40.1184C52.1249 40.0993 52.1325 40.081 52.1461 40.0673C52.1597 40.0536 52.1783 40.0457 52.1978 40.0451C56.6849 39.9158 61.1799 39.7791 65.6828 39.6349C68.5649 39.5428 71.8549 38.663 73.6685 36.2658C75.5764 33.7444 75.6514 30.2665 74.8307 27.3537C73.7807 23.6295 71.3221 20.37 68.1385 18.1346C65.2457 16.1044 61.6928 15.067 58.1107 14.9784C53.5268 14.8653 49.533 16.2463 46.1292 19.1212C42.4842 22.1993 40.2649 26.7167 39.7957 31.3493C39.6278 33.007 39.7171 34.7191 39.9707 36.3649C40.7357 41.34 43.3907 45.6426 47.6649 48.3809C51.4114 50.7816 56.0528 51.7779 60.5849 51.7814C68.9478 51.787 77.3437 51.7874 85.7728 51.7828C85.7757 51.7827 85.7786 51.7835 85.7812 51.7849C85.7838 51.7863 85.7859 51.7884 85.7873 51.7909C85.7888 51.7934 85.7895 51.7962 85.7895 51.7991C85.7895 51.8019 85.7886 51.8047 85.7871 51.8072C85.6271 52.0602 85.4604 52.3095 85.2871 52.5551C76.3685 65.2235 59.6099 69.8832 45.1292 64.2698C36.4499 60.9049 29.4835 53.9951 26.0521 45.4891C19.8749 30.1758 26.2171 12.5442 40.8007 4.39744C45.8288 1.5886 51.2657 0.122791 57.1114 0Z" fill="white"/>
<path d="M52.7165 75.8393C53.4767 75.8393 54.0929 75.2374 54.0929 74.4949C54.0929 73.7524 53.4767 73.1505 52.7165 73.1505C51.9563 73.1505 51.3401 73.7524 51.3401 74.4949C51.3401 75.2374 51.9563 75.8393 52.7165 75.8393Z" fill="white"/>
<path d="M47.4458 84.3119C47.4458 84.3017 47.4422 84.2919 47.4357 84.2839C47.4292 84.276 47.4201 84.2705 47.4099 84.2683C47.3998 84.2661 47.3892 84.2674 47.3799 84.2719C47.3705 84.2764 47.363 84.2838 47.3586 84.293C46.6444 85.7826 45.2072 86.571 43.5601 86.2716C39.6229 85.5579 38.9201 80.1419 41.6236 77.8242C42.4308 77.1321 43.5279 76.7756 44.5922 76.8809C45.8729 77.0065 46.7865 77.7558 47.3622 78.8903C47.3665 78.8991 47.3738 78.9063 47.3829 78.9106C47.392 78.9149 47.4023 78.916 47.4121 78.9138C47.4219 78.9117 47.4307 78.9063 47.4369 78.8985C47.4432 78.8908 47.4466 78.8813 47.4465 78.8714V73.2558C47.4465 73.2466 47.4503 73.2377 47.457 73.2312C47.4637 73.2246 47.4727 73.2209 47.4822 73.2209H49.7858C49.8096 73.2209 49.8215 73.2326 49.8215 73.2558V86.0582C49.8215 86.0674 49.8177 86.0763 49.811 86.0828C49.8043 86.0894 49.7953 86.093 49.7858 86.093H47.5272C47.5059 86.093 47.4855 86.0848 47.4704 86.0702C47.4553 86.0556 47.4467 86.0357 47.4465 86.0149L47.4458 84.3119ZM44.8879 84.4158C45.5761 84.417 46.2367 84.1208 46.7243 83.5924C47.2119 83.064 47.4866 82.3466 47.4879 81.5982C47.4893 80.8497 47.2171 80.1314 46.7314 79.6013C46.2457 79.0713 45.5862 78.7728 44.898 78.7716C44.2097 78.7705 43.5492 79.0667 43.0616 79.5951C42.574 80.1235 42.2993 80.8409 42.2979 81.5893C42.2966 82.3378 42.5687 83.056 43.0544 83.5861C43.5401 84.1162 44.1997 84.4147 44.8879 84.4158Z" fill="white"/>
<path d="M0 81.7974V81.4144C0.0785714 80.1591 0.54381 79.1058 1.39571 78.2546C3.61357 76.0381 7.35143 76.4574 9.02357 79.0898C9.78262 80.2856 9.95191 81.6074 9.53143 83.0553C9.52476 83.0786 9.50929 83.0902 9.485 83.0902L4.11357 83.0909C4.08691 83.0909 4.07357 83.0779 4.07357 83.0519L4.07071 82.5998C4.07071 82.5733 4.08429 82.5598 4.11143 82.5593C5.04381 82.5356 5.71333 82.5137 6.12 82.4937C6.71357 82.4651 7.23 82.1644 7.36429 81.5812C7.65214 80.3372 6.50571 79.2307 5.35286 79.013C3.42643 78.6495 1.96214 80.4035 2.36929 82.1902C2.71714 83.7153 3.995 84.2379 5.45714 84.2421C6.6 84.2453 7.74024 84.2458 8.87786 84.2435C8.8814 84.2436 8.88486 84.2446 8.88788 84.2464C8.89089 84.2482 8.89337 84.2507 8.89504 84.2538C8.89671 84.2568 8.89752 84.2603 8.89739 84.2637C8.89726 84.2672 8.89618 84.2706 8.89429 84.2735C7.37357 86.4684 4.33143 87.0349 2.11143 85.53C0.821429 84.6556 0.117619 83.4114 0 81.7974Z" fill="white"/>
<path d="M38.3493 84.2909C35.955 87.7221 30.5293 86.6986 29.5893 82.6395C28.9308 79.7965 31.0308 77.033 34.0158 76.8342C37.4622 76.604 40.0086 79.8251 38.9929 83.0679C38.9906 83.075 38.986 83.0812 38.9799 83.0856C38.9737 83.09 38.9663 83.0924 38.9586 83.0923L33.6086 83.0833C33.5938 83.0833 33.5795 83.0775 33.569 83.0674C33.5584 83.0572 33.5524 83.0433 33.5522 83.0288L33.5465 82.6158C33.5463 82.6009 33.5521 82.5866 33.5627 82.5759C33.5732 82.5652 33.5877 82.559 33.6029 82.5586C34.2548 82.5442 34.9153 82.52 35.5843 82.4861C36.2372 82.4526 36.7565 82.1358 36.8493 81.473C36.9886 80.4698 36.2543 79.5251 35.335 79.1581C33.005 78.2274 31.055 80.6442 32.0172 82.7407C32.5115 83.8193 33.6415 84.24 34.8158 84.2428C35.9934 84.2451 37.1627 84.2453 38.3236 84.2435C38.3627 84.2435 38.3712 84.2593 38.3493 84.2909Z" fill="white"/>
<path d="M95.6464 81.5944C95.6464 82.8601 95.1317 84.0739 94.2154 84.9688C93.2992 85.8637 92.0565 86.3665 90.7607 86.3665C89.4649 86.3665 88.2222 85.8637 87.306 84.9688C86.3897 84.0739 85.875 82.8601 85.875 81.5944C85.875 80.3288 86.3897 79.115 87.306 78.22C88.2222 77.3251 89.4649 76.8223 90.7607 76.8223C92.0565 76.8223 93.2992 77.3251 94.2154 78.22C95.1317 79.115 95.6464 80.3288 95.6464 81.5944ZM90.7545 84.263C91.4422 84.2642 92.1022 83.9841 92.5893 83.4843C93.0765 82.9846 93.3509 82.3061 93.3521 81.5981C93.3534 80.8902 93.0814 80.2108 92.5961 79.7094C92.1107 79.208 91.4517 78.9256 90.7641 78.9244C90.0764 78.9233 89.4164 79.2034 88.9292 79.7031C88.4421 80.2029 88.1677 80.8814 88.1664 81.5893C88.1652 82.2972 88.4371 82.9767 88.9225 83.4781C89.4079 83.9795 90.0668 84.2618 90.7545 84.263Z" fill="white"/>
<path d="M83.1965 79.0633C83.1969 79.0705 83.1999 79.0774 83.2051 79.0827C83.2103 79.0879 83.2173 79.0912 83.2247 79.0918C83.2321 79.0924 83.2395 79.0903 83.2455 79.0859C83.2515 79.0816 83.2557 79.0753 83.2572 79.0681C83.4765 77.7719 84.1801 76.7107 85.7001 76.8677C85.7215 76.87 85.7322 76.8816 85.7322 76.9026V79.2412C85.7322 79.2723 85.7163 79.2881 85.6844 79.2886C85.0387 79.2963 84.1615 79.1491 83.6637 79.6891C83.3632 80.0156 83.2096 80.3988 83.203 80.8388C83.1911 81.6467 83.1896 83.3647 83.1987 85.9926C83.1987 86.0693 83.1644 86.1265 83.0787 86.0868C83.0622 86.0794 83.0439 86.0756 83.0251 86.0756L80.8965 86.0986C80.8867 86.0987 80.877 86.0969 80.8679 86.0933C80.8588 86.0898 80.8505 86.0845 80.8435 86.0778C80.8366 86.0711 80.831 86.0632 80.8273 86.0544C80.8235 86.0456 80.8215 86.0362 80.8215 86.0268V77.1349C80.8215 77.1277 80.8245 77.1207 80.8299 77.1156C80.8353 77.1105 80.8425 77.1077 80.8501 77.1077L83.1615 77.1119C83.1708 77.1119 83.1797 77.1155 83.1863 77.1219C83.1928 77.1283 83.1965 77.137 83.1965 77.1461V79.0633Z" fill="white"/>
<path d="M21.25 84.3147V89.7384C21.25 89.7616 21.2381 89.7733 21.2143 89.7733H18.9107C18.8869 89.7733 18.875 89.7616 18.875 89.7384V77.1447C18.875 77.135 18.8788 77.1258 18.8857 77.119C18.8925 77.1122 18.9018 77.1084 18.9114 77.1084L21.215 77.1112C21.2383 77.1112 21.25 77.1228 21.25 77.1461V78.8742C21.25 78.8849 21.2537 78.8953 21.2605 78.9036C21.2674 78.912 21.2769 78.9178 21.2876 78.9201C21.2983 78.9224 21.3095 78.921 21.3193 78.9162C21.3291 78.9114 21.3369 78.9035 21.3414 78.8937C22.7514 75.8868 26.61 76.4477 28.0643 79.0354C28.6686 80.1119 28.8057 81.4458 28.5964 82.6514C28.2729 84.5177 26.7964 86.1656 24.7871 86.3219C23.2407 86.4426 21.9557 85.627 21.34 84.2958C21.3355 84.2863 21.3279 84.2786 21.3183 84.2739C21.3087 84.2692 21.2978 84.2678 21.2873 84.27C21.2768 84.2722 21.2674 84.2778 21.2606 84.2859C21.2538 84.2941 21.2501 84.3042 21.25 84.3147ZM23.8057 84.4151C24.494 84.4151 25.154 84.118 25.6407 83.589C26.1273 83.06 26.4007 82.3425 26.4007 81.5944C26.4007 81.224 26.3336 80.8572 26.2032 80.515C26.0728 80.1728 25.8816 79.8618 25.6407 79.5999C25.3997 79.338 25.1136 79.1302 24.7988 78.9885C24.4839 78.8467 24.1465 78.7737 23.8057 78.7737C23.4649 78.7737 23.1275 78.8467 22.8127 78.9885C22.4978 79.1302 22.2117 79.338 21.9708 79.5999C21.7298 79.8618 21.5387 80.1728 21.4082 80.515C21.2778 80.8572 21.2107 81.224 21.2107 81.5944C21.2107 82.3425 21.4841 83.06 21.9708 83.589C22.4574 84.118 23.1175 84.4151 23.8057 84.4151Z" fill="white"/>
<path d="M62.5357 84.3139C62.5357 84.3033 62.532 84.2929 62.5252 84.2845C62.5183 84.2762 62.5087 84.2704 62.498 84.2681C62.4873 84.2658 62.4762 84.2672 62.4664 84.272C62.4566 84.2767 62.4488 84.2847 62.4442 84.2944C61.7542 85.7602 60.3392 86.5423 58.7185 86.2828C55.2621 85.7295 54.2428 81.5009 55.8199 78.8826C57.3164 76.3974 61.085 75.9802 62.4414 78.8909C62.446 78.901 62.4541 78.9093 62.4642 78.9143C62.4743 78.9193 62.4859 78.9207 62.497 78.9183C62.508 78.9159 62.5179 78.9099 62.525 78.9012C62.532 78.8926 62.5358 78.8818 62.5357 78.8707V77.16C62.5357 77.126 62.553 77.1091 62.5878 77.1091L64.8885 77.1112C64.8944 77.1112 64.9 77.1134 64.9042 77.1175C64.9083 77.1215 64.9107 77.127 64.9107 77.1328V86.0421C64.9107 86.0516 64.9068 86.0607 64.8998 86.0675C64.8929 86.0743 64.8834 86.0782 64.8735 86.0784L62.6099 86.0972C62.6002 86.0973 62.5906 86.0955 62.5816 86.092C62.5726 86.0885 62.5644 86.0832 62.5575 86.0766C62.5506 86.07 62.5451 86.0621 62.5413 86.0534C62.5376 86.0448 62.5357 86.0354 62.5357 86.026V84.3139ZM59.977 84.4158C60.6655 84.417 61.3262 84.1208 61.814 83.5924C62.3017 83.0639 62.5765 82.3466 62.5778 81.5981C62.5791 80.8497 62.3069 80.1314 61.8211 79.6013C61.3353 79.0713 60.6756 78.7728 59.9871 78.7716C59.2987 78.7705 58.638 79.0667 58.1502 79.5951C57.6625 80.1235 57.3877 80.8408 57.3864 81.5893C57.3851 82.3378 57.6572 83.056 58.1431 83.5861C58.6289 84.1162 59.2886 84.4146 59.977 84.4158Z" fill="white"/>
<path d="M76.7243 84.2421C76.724 84.232 76.7202 84.2224 76.7136 84.2147C76.7069 84.2071 76.6978 84.2019 76.6877 84.2C76.6776 84.1981 76.6671 84.1997 76.6581 84.2044C76.649 84.2092 76.6418 84.2168 76.6378 84.226C75.56 86.6149 72.5928 86.8528 70.8 85.1372C68.2457 82.6933 69.1714 77.2507 73.2021 76.8893C74.7664 76.7491 75.9964 77.5228 76.65 78.8881C76.6541 78.8964 76.6609 78.9031 76.6694 78.9071C76.6779 78.9111 76.6875 78.9123 76.6967 78.9103C76.7059 78.9084 76.7142 78.9035 76.7202 78.8965C76.7262 78.8894 76.7297 78.8806 76.73 78.8714L76.7371 77.1684C76.7371 77.1528 76.7435 77.1379 76.7549 77.1269C76.7663 77.1159 76.7817 77.1098 76.7978 77.1098L79.0707 77.1112C79.0945 77.1112 79.1064 77.1228 79.1064 77.1461C79.1074 79.7972 79.1076 82.4479 79.1071 85.0981C79.1066 85.7256 79.079 86.1886 79.0243 86.4872C78.6357 88.5942 76.8935 89.8409 74.7378 89.9728C72.9488 90.0826 71.3857 89.5756 70.0486 88.4519C70.0295 88.4361 70.0286 88.4191 70.0457 88.4009L71.415 86.9512C71.4253 86.9401 71.4397 86.9333 71.4551 86.9323C71.4705 86.9312 71.4858 86.936 71.4978 86.9456C72.5385 87.7688 73.7021 88.2607 75.0536 87.9405C76.7893 87.5295 76.7807 85.6095 76.7243 84.2421ZM74.2157 84.3384C74.8933 84.3395 75.5437 84.0474 76.0238 83.5263C76.5039 83.0052 76.7744 82.2978 76.7757 81.5597C76.777 80.8216 76.5091 80.1133 76.0309 79.5905C75.5526 79.0678 74.9033 78.7735 74.2257 78.7723C73.548 78.7712 72.8976 79.0633 72.4176 79.5844C71.9375 80.1055 71.667 80.8129 71.6657 81.551C71.6644 82.2891 71.9323 82.9974 72.4105 83.5202C72.8888 84.0429 73.5381 84.3372 74.2157 84.3384Z" fill="white"/>
<path d="M114.722 84.9481C112.999 86.9268 109.693 86.8388 108.541 84.2714C108.537 84.2633 108.531 84.2567 108.523 84.2527C108.514 84.2487 108.505 84.2475 108.496 84.2493C108.487 84.251 108.479 84.2557 108.474 84.2625C108.468 84.2694 108.465 84.2779 108.464 84.2868V89.7384C108.464 89.7612 108.452 89.7726 108.429 89.7726L106.124 89.7747C106.101 89.7747 106.089 89.7635 106.089 89.7412V77.1335C106.089 77.127 106.092 77.1208 106.097 77.1162C106.102 77.1117 106.108 77.1091 106.115 77.1091L108.429 77.1112C108.438 77.1112 108.447 77.1148 108.454 77.1212C108.461 77.1276 108.464 77.1363 108.464 77.1454L108.465 78.863C108.465 78.8737 108.469 78.8841 108.476 78.8925C108.482 78.9008 108.492 78.9066 108.503 78.9089C108.513 78.9112 108.525 78.9098 108.534 78.905C108.544 78.9002 108.552 78.8923 108.557 78.8826C109.32 77.2779 110.949 76.5237 112.719 77.0044C116.154 77.9365 116.804 82.5586 114.722 84.9481ZM111.011 84.4151C111.351 84.4163 111.689 84.3444 112.005 84.2037C112.32 84.063 112.607 83.8562 112.849 83.595C113.09 83.3338 113.283 83.0235 113.414 82.6816C113.546 82.3397 113.614 81.9731 113.616 81.6026C113.617 81.2321 113.551 80.865 113.422 80.5222C113.293 80.1795 113.103 79.8678 112.863 79.605C112.623 79.3422 112.337 79.1334 112.023 78.9905C111.709 78.8476 111.372 78.7735 111.031 78.7723C110.69 78.7712 110.352 78.843 110.037 78.9837C109.722 79.1244 109.435 79.3313 109.193 79.5925C108.951 79.8536 108.759 80.164 108.627 80.5059C108.496 80.8477 108.427 81.2144 108.426 81.5849C108.424 81.9554 108.49 82.3225 108.619 82.6653C108.749 83.008 108.939 83.3197 109.179 83.5825C109.419 83.8453 109.704 84.0541 110.018 84.197C110.333 84.3398 110.67 84.414 111.011 84.4151Z" fill="white"/>
<path d="M13.8472 79.74L15.6707 77.1237C15.6735 77.1199 15.6771 77.1168 15.6813 77.1146C15.6855 77.1124 15.6902 77.1112 15.695 77.1112L18.1993 77.1091C18.2049 77.109 18.2103 77.1105 18.2151 77.1134C18.2199 77.1162 18.2237 77.1203 18.2262 77.1251C18.2288 77.13 18.2298 77.1354 18.2294 77.1408C18.2289 77.1463 18.2269 77.1514 18.2236 77.1558L15.1057 81.406C15.1022 81.411 15.1003 81.4168 15.1003 81.4228C15.1003 81.4288 15.1022 81.4346 15.1057 81.4395L18.49 86.047C18.4931 86.0513 18.495 86.0565 18.4953 86.0618C18.4957 86.0671 18.4946 86.0724 18.4921 86.0771C18.4896 86.0819 18.4858 86.0859 18.4812 86.0887C18.4765 86.0915 18.4712 86.093 18.4657 86.093H15.8072C15.8023 86.0931 15.7974 86.092 15.7931 86.0898C15.7887 86.0876 15.785 86.0844 15.7822 86.0805L13.7679 83.2172C13.7651 83.2133 13.7614 83.2101 13.7571 83.208C13.7528 83.2058 13.7481 83.2046 13.7432 83.2046C13.7384 83.2046 13.7336 83.2058 13.7293 83.208C13.725 83.2101 13.7213 83.2133 13.7186 83.2172L11.6922 86.0749C11.6894 86.0788 11.6856 86.082 11.6813 86.0842C11.6769 86.0864 11.6721 86.0875 11.6672 86.0874L9.16858 86.0826C9.16313 86.0825 9.1578 86.081 9.15316 86.0782C9.14852 86.0754 9.14474 86.0714 9.14225 86.0667C9.13975 86.0619 9.13862 86.0566 9.13898 86.0513C9.13934 86.046 9.14118 86.0409 9.1443 86.0365L12.4622 81.5526C12.466 81.5475 12.468 81.5414 12.468 81.5351C12.468 81.5288 12.466 81.5227 12.4622 81.5177L9.24501 77.1565C9.24169 77.1521 9.23969 77.1469 9.23922 77.1415C9.23876 77.1361 9.23984 77.1307 9.24237 77.1258C9.24489 77.121 9.24874 77.1169 9.2535 77.1141C9.25826 77.1112 9.26373 77.1097 9.2693 77.1098L11.93 77.1112C11.9349 77.1111 11.9398 77.1122 11.9441 77.1144C11.9485 77.1166 11.9522 77.1198 11.955 77.1237L13.7972 79.74C13.7999 79.744 13.8036 79.7473 13.808 79.7496C13.8123 79.7519 13.8172 79.7531 13.8222 79.7531C13.8271 79.7531 13.832 79.7519 13.8363 79.7496C13.8407 79.7473 13.8444 79.744 13.8472 79.74Z" fill="white"/>
<path d="M51.5356 86.0526L51.5349 77.1544C51.5349 77.1486 51.5361 77.1428 51.5384 77.1373C51.5407 77.1319 51.5441 77.127 51.5483 77.1229C51.5525 77.1187 51.5576 77.1154 51.5631 77.1132C51.5687 77.1109 51.5746 77.1098 51.5806 77.1098L53.8649 77.1112C53.8709 77.1112 53.8769 77.1123 53.8824 77.1146C53.888 77.1168 53.893 77.1201 53.8972 77.1242C53.9015 77.1284 53.9049 77.1333 53.9071 77.1387C53.9094 77.1441 53.9106 77.15 53.9106 77.1558V86.0344C53.9106 86.0461 53.9059 86.0574 53.8975 86.0658C53.8891 86.0741 53.8776 86.0789 53.8656 86.0791L51.5821 86.0972C51.576 86.0973 51.57 86.0962 51.5643 86.094C51.5587 86.0918 51.5536 86.0885 51.5493 86.0844C51.5449 86.0802 51.5415 86.0753 51.5392 86.0698C51.5368 86.0643 51.5356 86.0585 51.5356 86.0526Z" fill="white"/>
<path d="M101.975 86.1691C100.037 86.7418 97.4715 86.116 96.9001 83.9512C96.8277 83.6781 96.7906 83.2158 96.7886 82.5642C96.7839 80.8028 96.7829 79.0191 96.7858 77.213C96.7858 77.1446 96.8208 77.1105 96.8908 77.1105H99.1358C99.1424 77.1105 99.1488 77.113 99.1535 77.1176C99.1582 77.1222 99.1608 77.1284 99.1608 77.1349C99.1603 79.0479 99.1605 80.9639 99.1615 82.883C99.1622 84.743 102.065 84.7409 102.069 82.8621C102.072 80.9486 102.073 79.0365 102.071 77.1258C102.071 77.1208 102.073 77.116 102.076 77.1125C102.08 77.109 102.085 77.107 102.09 77.107L104.411 77.1126C104.42 77.1126 104.429 77.1161 104.436 77.1226C104.443 77.129 104.447 77.1377 104.447 77.1467C104.447 79.0821 104.447 81.0232 104.447 82.9702C104.447 84.5421 103.469 85.7274 101.975 86.1691Z" fill="white"/>
</g>
<defs>
<clipPath id="clip0_425_842">
<rect width="116" height="90" fill="white"/>
</clipPath>
</defs>
</svg>
