<svg width="80" height="81" viewBox="0 0 80 81" fill="none" xmlns="http://www.w3.org/2000/svg">
<g clip-path="url(#clip0_1165_6141)">
<path fill-rule="evenodd" clip-rule="evenodd" d="M92.25 -72.277H61.5V-32.6429L33.388 -60.6684L11.6444 -38.9918L39.7565 -10.9662H0V19.6892H39.7564L11.6444 47.7143L33.388 69.3915L61.5 41.3656V80.9999H92.25V41.3656L120.362 69.3915L142.106 47.7151L113.993 19.6892H153.75V-10.9662H113.993L142.106 -38.9918L120.362 -60.6685L92.25 -32.6429V-72.277Z" fill="#E9FF69"/>
</g>
<defs>
<clipPath id="clip0_1165_6141">
<path d="M0 0H56C67.3137 0 72.9706 0 76.4853 3.51472C80 7.02944 80 12.6863 80 24V81H24C12.6863 81 7.02944 81 3.51472 77.4853C0 73.9706 0 68.3137 0 57V0Z" fill="white"/>
</clipPath>
</defs>
</svg>
