<svg width="155" height="155" viewBox="0 0 155 155" fill="none" xmlns="http://www.w3.org/2000/svg">
<path d="M77.5 155C120.302 155 155 120.302 155 77.5C155 34.6979 120.302 0 77.5 0C34.6979 0 0 34.6979 0 77.5C0 120.302 34.6979 155 77.5 155Z" fill="black"/>
<g clip-path="url(#clip0_1165_6165)">
<path d="M112.682 46.4132L108.344 42.0755V29.0625L94.8493 43.0396L93.8855 54.1247L79.9084 68.1018C78.9444 68.1018 78.4625 68.1018 77.4986 68.1018C72.197 68.1018 67.8594 72.4394 67.8594 77.741C67.8594 83.0427 72.197 87.3803 77.4986 87.3803C82.8003 87.3803 87.1379 83.0427 87.1379 77.741C87.1379 76.7772 87.1379 76.2951 86.656 75.3313L100.633 61.3542L111.718 60.3902L125.695 46.4132H112.682Z" fill="white"/>
<path d="M103.526 65.6919H103.044L96.2966 72.9213C96.7785 74.3673 96.7785 76.2951 96.7785 77.7411C96.7785 88.3443 88.1031 97.0198 77.4998 97.0198C66.8965 97.0198 58.2211 88.3443 58.2211 77.7411C58.2211 67.1378 66.8967 58.4624 77.5 58.4624C79.4278 58.4624 80.8738 58.9443 82.3197 58.9443L89.5492 51.7148V51.2329C85.6935 49.787 81.8378 48.8231 77.5 48.8231C61.5951 48.8231 48.582 61.8362 48.582 77.7411C48.582 93.646 61.5951 106.659 77.5 106.659C93.4049 106.659 106.418 93.6458 106.418 77.7409C106.418 73.4033 105.454 69.5476 103.526 65.6919Z" fill="white"/>
<path d="M121.36 57.9805L114.13 64.728C115.095 68.5837 116.058 72.9215 116.058 77.7411C116.058 98.9476 98.7077 116.298 77.5011 116.298C56.2946 116.298 38.9439 98.9474 38.9439 77.7411C38.9439 56.5347 56.2946 39.1839 77.5011 39.1839C81.8387 39.1839 86.1766 40.1479 90.5142 41.5936V41.1117L97.7437 33.8822C91.4782 30.9904 84.7306 29.5444 77.5011 29.5444C50.993 29.5444 29.3047 51.2329 29.3047 77.7411C29.3047 104.249 50.993 125.938 77.5011 125.938C104.009 125.938 125.698 104.249 125.698 77.7411C125.698 70.5116 124.252 63.764 121.36 57.9805Z" fill="white"/>
</g>
<defs>
<clipPath id="clip0_1165_6165">
<rect width="96.875" height="96.875" fill="white" transform="translate(29.0625 29.0625)"/>
</clipPath>
</defs>
</svg>
