<svg width="674" height="147" viewBox="0 0 674 147" fill="none" xmlns="http://www.w3.org/2000/svg">
<path d="M0.333333 46.5C0.333333 47.9728 1.52724 49.1667 3 49.1667C4.47276 49.1667 5.66667 47.9728 5.66667 46.5C5.66667 45.0272 4.47276 43.8333 3 43.8333C1.52724 43.8333 0.333333 45.0272 0.333333 46.5ZM673.354 46.8535C673.549 46.6582 673.549 46.3417 673.354 46.1464L670.172 42.9644C669.976 42.7691 669.66 42.7691 669.464 42.9644C669.269 43.1597 669.269 43.4763 669.464 43.6715L672.293 46.4999L669.464 49.3284C669.269 49.5236 669.269 49.8402 669.464 50.0355C669.66 50.2307 669.976 50.2307 670.172 50.0355L673.354 46.8535ZM3 47L673 46.9999L673 45.9999L3 46L3 47Z" fill="#5A5A5A"/>
<circle cx="104.5" cy="46.5" r="16.5" fill="#3F3F3F"/>
<circle cx="337.5" cy="46.5" r="16.5" fill="#3F3F3F"/>
<circle cx="570.5" cy="46.5" r="16.5" fill="#3F3F3F"/>
<circle cx="104.5" cy="46.5" r="5.5" fill="#5CA1FF"/>
<circle cx="337.5" cy="46.5" r="5.5" fill="#5CA1FF"/>
<circle cx="570.5" cy="46.5" r="5.5" fill="#5CA1FF"/>
<path d="M83.2495 14V11.48C83.2495 10.928 83.3335 10.448 83.5015 10.04C83.6815 9.632 83.9695 9.272 84.3655 8.96C84.7735 8.636 85.3075 8.33 85.9675 8.042L88.1995 7.052C88.7515 6.8 89.1715 6.494 89.4595 6.134C89.7595 5.762 89.9095 5.288 89.9095 4.712C89.9095 4.076 89.7175 3.572 89.3335 3.2C88.9615 2.816 88.4275 2.624 87.7315 2.624C87.0355 2.624 86.4955 2.816 86.1115 3.2C85.7395 3.584 85.5535 4.118 85.5535 4.802H83.0875C83.0875 3.986 83.2615 3.254 83.6095 2.606C83.9575 1.946 84.4735 1.43 85.1575 1.058C85.8415 0.673999 86.6995 0.481999 87.7315 0.481999C88.7635 0.481999 89.6215 0.667999 90.3055 1.04C90.9895 1.412 91.5055 1.91 91.8535 2.534C92.2015 3.146 92.3755 3.83 92.3755 4.586V4.82C92.3755 5.804 92.0995 6.626 91.5475 7.286C90.9955 7.934 90.1855 8.498 89.1175 8.978L86.8855 9.968C86.4655 10.148 86.1715 10.34 86.0035 10.544C85.8355 10.736 85.7515 11 85.7515 11.336V12.488L85.1395 11.822H92.4295V14H83.2495ZM99.6467 14.342C98.6147 14.342 97.7387 14.174 97.0187 13.838C96.2987 13.49 95.7107 13.022 95.2547 12.434C94.7987 11.834 94.4627 11.15 94.2467 10.382C94.0427 9.602 93.9407 8.786 93.9407 7.934V6.926C93.9407 5.714 94.1447 4.622 94.5527 3.65C94.9607 2.678 95.5847 1.91 96.4247 1.346C97.2647 0.769999 98.3387 0.481999 99.6467 0.481999C100.943 0.481999 102.011 0.769999 102.851 1.346C103.691 1.91 104.309 2.678 104.705 3.65C105.113 4.622 105.317 5.714 105.317 6.926V7.934C105.317 8.786 105.209 9.602 104.993 10.382C104.789 11.15 104.459 11.834 104.003 12.434C103.559 13.022 102.977 13.49 102.257 13.838C101.537 14.174 100.667 14.342 99.6467 14.342ZM99.6467 12.002C100.715 12.002 101.501 11.636 102.005 10.904C102.509 10.16 102.761 9.008 102.761 7.448C102.761 5.792 102.503 4.61 101.987 3.902C101.471 3.182 100.691 2.822 99.6467 2.822C98.5907 2.822 97.7987 3.182 97.2707 3.902C96.7547 4.61 96.4967 5.78 96.4967 7.412C96.4967 8.984 96.7547 10.142 97.2707 10.886C97.7867 11.63 98.5787 12.002 99.6467 12.002ZM107.06 14V11.48C107.06 10.928 107.144 10.448 107.312 10.04C107.492 9.632 107.78 9.272 108.176 8.96C108.584 8.636 109.118 8.33 109.778 8.042L112.01 7.052C112.562 6.8 112.982 6.494 113.27 6.134C113.57 5.762 113.72 5.288 113.72 4.712C113.72 4.076 113.528 3.572 113.144 3.2C112.772 2.816 112.238 2.624 111.542 2.624C110.846 2.624 110.306 2.816 109.922 3.2C109.55 3.584 109.364 4.118 109.364 4.802H106.898C106.898 3.986 107.072 3.254 107.42 2.606C107.768 1.946 108.284 1.43 108.968 1.058C109.652 0.673999 110.51 0.481999 111.542 0.481999C112.574 0.481999 113.432 0.667999 114.116 1.04C114.8 1.412 115.316 1.91 115.664 2.534C116.012 3.146 116.186 3.83 116.186 4.586V4.82C116.186 5.804 115.91 6.626 115.358 7.286C114.806 7.934 113.996 8.498 112.928 8.978L110.696 9.968C110.276 10.148 109.982 10.34 109.814 10.544C109.646 10.736 109.562 11 109.562 11.336V12.488L108.95 11.822H116.24V14H107.06ZM117.805 14V11.48C117.805 10.928 117.889 10.448 118.057 10.04C118.237 9.632 118.525 9.272 118.921 8.96C119.329 8.636 119.863 8.33 120.523 8.042L122.755 7.052C123.307 6.8 123.727 6.494 124.015 6.134C124.315 5.762 124.465 5.288 124.465 4.712C124.465 4.076 124.273 3.572 123.889 3.2C123.517 2.816 122.983 2.624 122.287 2.624C121.591 2.624 121.051 2.816 120.667 3.2C120.295 3.584 120.109 4.118 120.109 4.802H117.643C117.643 3.986 117.817 3.254 118.165 2.606C118.513 1.946 119.029 1.43 119.713 1.058C120.397 0.673999 121.255 0.481999 122.287 0.481999C123.319 0.481999 124.177 0.667999 124.861 1.04C125.545 1.412 126.061 1.91 126.409 2.534C126.757 3.146 126.931 3.83 126.931 4.586V4.82C126.931 5.804 126.655 6.626 126.103 7.286C125.551 7.934 124.741 8.498 123.673 8.978L121.441 9.968C121.021 10.148 120.727 10.34 120.559 10.544C120.391 10.736 120.307 11 120.307 11.336V12.488L119.695 11.822H126.985V14H117.805Z" fill="white"/>
<path d="M316.258 14V11.48C316.258 10.928 316.342 10.448 316.51 10.04C316.69 9.632 316.978 9.272 317.374 8.96C317.782 8.636 318.316 8.33 318.976 8.042L321.208 7.052C321.76 6.8 322.18 6.494 322.468 6.134C322.768 5.762 322.918 5.288 322.918 4.712C322.918 4.076 322.726 3.572 322.342 3.2C321.97 2.816 321.436 2.624 320.74 2.624C320.044 2.624 319.504 2.816 319.12 3.2C318.748 3.584 318.562 4.118 318.562 4.802H316.096C316.096 3.986 316.27 3.254 316.618 2.606C316.966 1.946 317.482 1.43 318.166 1.058C318.85 0.673999 319.708 0.481999 320.74 0.481999C321.772 0.481999 322.63 0.667999 323.314 1.04C323.998 1.412 324.514 1.91 324.862 2.534C325.21 3.146 325.384 3.83 325.384 4.586V4.82C325.384 5.804 325.108 6.626 324.556 7.286C324.004 7.934 323.194 8.498 322.126 8.978L319.894 9.968C319.474 10.148 319.18 10.34 319.012 10.544C318.844 10.736 318.76 11 318.76 11.336V12.488L318.148 11.822H325.438V14H316.258ZM332.655 14.342C331.623 14.342 330.747 14.174 330.027 13.838C329.307 13.49 328.719 13.022 328.263 12.434C327.807 11.834 327.471 11.15 327.255 10.382C327.051 9.602 326.949 8.786 326.949 7.934V6.926C326.949 5.714 327.153 4.622 327.561 3.65C327.969 2.678 328.593 1.91 329.433 1.346C330.273 0.769999 331.347 0.481999 332.655 0.481999C333.951 0.481999 335.019 0.769999 335.859 1.346C336.699 1.91 337.317 2.678 337.713 3.65C338.121 4.622 338.325 5.714 338.325 6.926V7.934C338.325 8.786 338.217 9.602 338.001 10.382C337.797 11.15 337.467 11.834 337.011 12.434C336.567 13.022 335.985 13.49 335.265 13.838C334.545 14.174 333.675 14.342 332.655 14.342ZM332.655 12.002C333.723 12.002 334.509 11.636 335.013 10.904C335.517 10.16 335.769 9.008 335.769 7.448C335.769 5.792 335.511 4.61 334.995 3.902C334.479 3.182 333.699 2.822 332.655 2.822C331.599 2.822 330.807 3.182 330.279 3.902C329.763 4.61 329.505 5.78 329.505 7.412C329.505 8.984 329.763 10.142 330.279 10.886C330.795 11.63 331.587 12.002 332.655 12.002ZM340.069 14V11.48C340.069 10.928 340.153 10.448 340.321 10.04C340.501 9.632 340.789 9.272 341.185 8.96C341.593 8.636 342.127 8.33 342.787 8.042L345.019 7.052C345.571 6.8 345.991 6.494 346.279 6.134C346.579 5.762 346.729 5.288 346.729 4.712C346.729 4.076 346.537 3.572 346.153 3.2C345.781 2.816 345.247 2.624 344.551 2.624C343.855 2.624 343.315 2.816 342.931 3.2C342.559 3.584 342.373 4.118 342.373 4.802H339.907C339.907 3.986 340.081 3.254 340.429 2.606C340.777 1.946 341.293 1.43 341.977 1.058C342.661 0.673999 343.519 0.481999 344.551 0.481999C345.583 0.481999 346.441 0.667999 347.125 1.04C347.809 1.412 348.325 1.91 348.673 2.534C349.021 3.146 349.195 3.83 349.195 4.586V4.82C349.195 5.804 348.919 6.626 348.367 7.286C347.815 7.934 347.005 8.498 345.937 8.978L343.705 9.968C343.285 10.148 342.991 10.34 342.823 10.544C342.655 10.736 342.571 11 342.571 11.336V12.488L341.959 11.822H349.249V14H340.069ZM355.152 14.342C354.144 14.342 353.274 14.15 352.542 13.766C351.822 13.382 351.27 12.872 350.886 12.236C350.502 11.588 350.31 10.868 350.31 10.076H352.776C352.776 10.712 352.986 11.228 353.406 11.624C353.838 12.008 354.42 12.2 355.152 12.2C355.644 12.2 356.064 12.11 356.412 11.93C356.772 11.738 357.048 11.48 357.24 11.156C357.432 10.82 357.528 10.436 357.528 10.004C357.528 9.356 357.318 8.828 356.898 8.42C356.478 8 355.902 7.79 355.17 7.79C354.81 7.79 354.492 7.838 354.216 7.934C353.952 8.03 353.718 8.156 353.514 8.312L352.344 6.296L356.664 3.344L356.502 3.038H350.85V0.86H359.436V3.488L354.99 6.44L353.604 6.188C353.832 6.116 354.078 6.062 354.342 6.026C354.606 5.978 354.894 5.954 355.206 5.954C356.202 5.954 357.054 6.128 357.762 6.476C358.482 6.812 359.034 7.28 359.418 7.88C359.802 8.48 359.994 9.17 359.994 9.95V10.184C359.994 10.94 359.802 11.636 359.418 12.272C359.034 12.896 358.482 13.4 357.762 13.784C357.042 14.156 356.172 14.342 355.152 14.342Z" fill="white"/>
<path d="M338 105C333.029 105 329 100.971 329 96C329 91.0294 333.029 87 338 87C342.971 87 347 91.0294 347 96C347 100.971 342.971 105 338 105ZM337.1 98.7V100.5H338.9V98.7H337.1ZM337.1 91.5V96.9H338.9V91.5H337.1Z" fill="#FFD676"/>
<path d="M279.831 131.21C279.441 131.21 279.041 131.195 278.631 131.165C278.231 131.135 277.856 131.095 277.506 131.045V129.305C277.866 129.345 278.251 129.38 278.661 129.41C279.071 129.45 279.456 129.47 279.816 129.47C280.486 129.47 281.026 129.39 281.436 129.23C281.856 129.07 282.161 128.815 282.351 128.465C282.551 128.125 282.651 127.69 282.651 127.16V125.555L283.101 124.535C283.071 125.285 282.916 125.925 282.636 126.455C282.356 126.975 281.976 127.375 281.496 127.655C281.016 127.925 280.461 128.06 279.831 128.06C279.271 128.06 278.761 127.955 278.301 127.745C277.851 127.535 277.461 127.245 277.131 126.875C276.811 126.505 276.561 126.07 276.381 125.57C276.201 125.07 276.111 124.535 276.111 123.965V123.65C276.111 123.08 276.201 122.55 276.381 122.06C276.571 121.56 276.836 121.125 277.176 120.755C277.516 120.385 277.921 120.1 278.391 119.9C278.861 119.7 279.381 119.6 279.951 119.6C280.621 119.6 281.201 119.745 281.691 120.035C282.191 120.325 282.581 120.745 282.861 121.295C283.141 121.845 283.296 122.52 283.326 123.32L282.966 123.38V119.855H284.616V127.04C284.616 128.03 284.446 128.83 284.106 129.44C283.766 130.05 283.241 130.495 282.531 130.775C281.831 131.065 280.931 131.21 279.831 131.21ZM280.431 126.275C280.831 126.275 281.196 126.185 281.526 126.005C281.856 125.825 282.121 125.565 282.321 125.225C282.521 124.885 282.621 124.475 282.621 123.995V123.47C282.621 123.01 282.516 122.62 282.306 122.3C282.106 121.98 281.841 121.74 281.511 121.58C281.181 121.41 280.821 121.325 280.431 121.325C279.991 121.325 279.601 121.43 279.261 121.64C278.931 121.84 278.671 122.125 278.481 122.495C278.291 122.865 278.196 123.305 278.196 123.815C278.196 124.315 278.291 124.75 278.481 125.12C278.671 125.49 278.931 125.775 279.261 125.975C279.601 126.175 279.991 126.275 280.431 126.275ZM286.89 128V119.855H288.54V123.305H288.495C288.495 122.135 288.745 121.25 289.245 120.65C289.745 120.05 290.48 119.75 291.45 119.75H291.75V121.565H291.18C290.48 121.565 289.935 121.755 289.545 122.135C289.165 122.505 288.975 123.045 288.975 123.755V128H286.89ZM297.001 128.285C296.281 128.285 295.646 128.17 295.096 127.94C294.546 127.71 294.081 127.4 293.701 127.01C293.321 126.61 293.031 126.16 292.831 125.66C292.641 125.16 292.546 124.64 292.546 124.1V123.785C292.546 123.225 292.646 122.695 292.846 122.195C293.056 121.685 293.351 121.235 293.731 120.845C294.121 120.445 294.591 120.135 295.141 119.915C295.691 119.685 296.311 119.57 297.001 119.57C297.691 119.57 298.311 119.685 298.861 119.915C299.411 120.135 299.876 120.445 300.256 120.845C300.646 121.235 300.941 121.685 301.141 122.195C301.341 122.695 301.441 123.225 301.441 123.785V124.1C301.441 124.64 301.341 125.16 301.141 125.66C300.951 126.16 300.666 126.61 300.286 127.01C299.906 127.4 299.441 127.71 298.891 127.94C298.341 128.17 297.711 128.285 297.001 128.285ZM297.001 126.5C297.511 126.5 297.941 126.39 298.291 126.17C298.641 125.94 298.906 125.635 299.086 125.255C299.266 124.865 299.356 124.425 299.356 123.935C299.356 123.435 299.261 122.995 299.071 122.615C298.891 122.225 298.621 121.92 298.261 121.7C297.911 121.47 297.491 121.355 297.001 121.355C296.511 121.355 296.086 121.47 295.726 121.7C295.376 121.92 295.106 122.225 294.916 122.615C294.726 122.995 294.631 123.435 294.631 123.935C294.631 124.425 294.721 124.865 294.901 125.255C295.091 125.635 295.361 125.94 295.711 126.17C296.061 126.39 296.491 126.5 297.001 126.5ZM305.881 128L307.426 120.125H309.826L311.611 128H309.961L308.146 120.17H309.016L307.411 128H305.881ZM305.266 128L305.251 126.29H306.916V128H305.266ZM304.426 128L302.206 119.855H304.231L306.346 128H304.426ZM310.486 128V126.29H312.151L312.136 128H310.486ZM311.146 128L313.021 119.855H314.911L312.946 128H311.146ZM320.24 128.105C319.49 128.105 318.87 128.01 318.38 127.82C317.9 127.62 317.54 127.29 317.3 126.83C317.06 126.36 316.94 125.73 316.94 124.94L316.955 117.56H318.905L318.89 125.075C318.89 125.475 318.995 125.785 319.205 126.005C319.425 126.215 319.735 126.32 320.135 126.32H321.41V128.105H320.24ZM315.65 121.385V119.855H321.41V121.385H315.65ZM323.16 128V117.05H325.245V123.44H324.885C324.885 122.62 324.99 121.925 325.2 121.355C325.41 120.785 325.72 120.35 326.13 120.05C326.55 119.75 327.08 119.6 327.72 119.6H327.81C328.74 119.6 329.445 119.92 329.925 120.56C330.405 121.2 330.645 122.13 330.645 123.35V128H328.56V123.155C328.56 122.635 328.41 122.225 328.11 121.925C327.82 121.625 327.435 121.475 326.955 121.475C326.445 121.475 326.03 121.645 325.71 121.985C325.4 122.315 325.245 122.75 325.245 123.29V128H323.16ZM339.078 128.255C337.958 128.255 337.078 128.02 336.438 127.55C335.808 127.07 335.478 126.41 335.448 125.57H337.323C337.353 125.85 337.508 126.105 337.788 126.335C338.068 126.565 338.508 126.68 339.108 126.68C339.608 126.68 340.003 126.59 340.293 126.41C340.593 126.23 340.743 125.985 340.743 125.675C340.743 125.405 340.628 125.19 340.398 125.03C340.178 124.87 339.798 124.765 339.258 124.715L338.538 124.64C337.628 124.54 336.928 124.28 336.438 123.86C335.948 123.44 335.703 122.88 335.703 122.18C335.703 121.62 335.843 121.15 336.123 120.77C336.403 120.39 336.788 120.105 337.278 119.915C337.778 119.715 338.348 119.615 338.988 119.615C339.988 119.615 340.798 119.835 341.418 120.275C342.038 120.715 342.363 121.36 342.393 122.21H340.518C340.498 121.93 340.358 121.69 340.098 121.49C339.838 121.29 339.463 121.19 338.973 121.19C338.533 121.19 338.193 121.275 337.953 121.445C337.713 121.615 337.593 121.835 337.593 122.105C337.593 122.365 337.688 122.565 337.878 122.705C338.078 122.845 338.398 122.94 338.838 122.99L339.558 123.065C340.518 123.165 341.268 123.43 341.808 123.86C342.358 124.29 342.633 124.87 342.633 125.6C342.633 126.14 342.483 126.61 342.183 127.01C341.893 127.4 341.483 127.705 340.953 127.925C340.423 128.145 339.798 128.255 339.078 128.255ZM347.896 128.105C347.146 128.105 346.526 128.01 346.036 127.82C345.556 127.62 345.196 127.29 344.956 126.83C344.716 126.36 344.596 125.73 344.596 124.94L344.611 117.56H346.561L346.546 125.075C346.546 125.475 346.651 125.785 346.861 126.005C347.081 126.215 347.391 126.32 347.791 126.32H349.066V128.105H347.896ZM343.306 121.385V119.855H349.066V121.385H343.306ZM354.687 128.285C353.967 128.285 353.332 128.17 352.782 127.94C352.232 127.71 351.767 127.4 351.387 127.01C351.007 126.61 350.717 126.16 350.517 125.66C350.327 125.16 350.232 124.64 350.232 124.1V123.785C350.232 123.225 350.332 122.695 350.532 122.195C350.742 121.685 351.037 121.235 351.417 120.845C351.807 120.445 352.277 120.135 352.827 119.915C353.377 119.685 353.997 119.57 354.687 119.57C355.377 119.57 355.997 119.685 356.547 119.915C357.097 120.135 357.562 120.445 357.942 120.845C358.332 121.235 358.627 121.685 358.827 122.195C359.027 122.695 359.127 123.225 359.127 123.785V124.1C359.127 124.64 359.027 125.16 358.827 125.66C358.637 126.16 358.352 126.61 357.972 127.01C357.592 127.4 357.127 127.71 356.577 127.94C356.027 128.17 355.397 128.285 354.687 128.285ZM354.687 126.5C355.197 126.5 355.627 126.39 355.977 126.17C356.327 125.94 356.592 125.635 356.772 125.255C356.952 124.865 357.042 124.425 357.042 123.935C357.042 123.435 356.947 122.995 356.757 122.615C356.577 122.225 356.307 121.92 355.947 121.7C355.597 121.47 355.177 121.355 354.687 121.355C354.197 121.355 353.772 121.47 353.412 121.7C353.062 121.92 352.792 122.225 352.602 122.615C352.412 122.995 352.317 123.435 352.317 123.935C352.317 124.425 352.407 124.865 352.587 125.255C352.777 125.635 353.047 125.94 353.397 126.17C353.747 126.39 354.177 126.5 354.687 126.5ZM360.953 131V119.855H362.603V123.365L362.348 123.35C362.388 122.52 362.558 121.825 362.858 121.265C363.168 120.705 363.578 120.29 364.088 120.02C364.598 119.74 365.168 119.6 365.798 119.6C366.378 119.6 366.898 119.705 367.358 119.915C367.828 120.125 368.228 120.42 368.558 120.8C368.898 121.18 369.158 121.625 369.338 122.135C369.518 122.635 369.608 123.175 369.608 123.755V124.07C369.608 124.66 369.518 125.21 369.338 125.72C369.168 126.22 368.913 126.665 368.573 127.055C368.243 127.435 367.843 127.735 367.373 127.955C366.903 128.165 366.378 128.27 365.798 128.27C365.188 128.27 364.628 128.145 364.118 127.895C363.618 127.635 363.213 127.24 362.903 126.71C362.593 126.17 362.418 125.475 362.378 124.625L363.038 125.63V131H360.953ZM365.273 126.515C365.723 126.515 366.113 126.405 366.443 126.185C366.783 125.965 367.048 125.66 367.238 125.27C367.428 124.87 367.523 124.42 367.523 123.92C367.523 123.4 367.428 122.95 367.238 122.57C367.048 122.19 366.783 121.895 366.443 121.685C366.113 121.465 365.723 121.355 365.273 121.355C364.863 121.355 364.483 121.445 364.133 121.625C363.793 121.805 363.513 122.07 363.293 122.42C363.083 122.77 362.978 123.19 362.978 123.68V124.28C362.978 124.75 363.088 125.15 363.308 125.48C363.528 125.81 363.813 126.065 364.163 126.245C364.513 126.425 364.883 126.515 365.273 126.515ZM371.441 131V119.855H373.091V123.365L372.836 123.35C372.876 122.52 373.046 121.825 373.346 121.265C373.656 120.705 374.066 120.29 374.576 120.02C375.086 119.74 375.656 119.6 376.286 119.6C376.866 119.6 377.386 119.705 377.846 119.915C378.316 120.125 378.716 120.42 379.046 120.8C379.386 121.18 379.646 121.625 379.826 122.135C380.006 122.635 380.096 123.175 380.096 123.755V124.07C380.096 124.66 380.006 125.21 379.826 125.72C379.656 126.22 379.401 126.665 379.061 127.055C378.731 127.435 378.331 127.735 377.861 127.955C377.391 128.165 376.866 128.27 376.286 128.27C375.676 128.27 375.116 128.145 374.606 127.895C374.106 127.635 373.701 127.24 373.391 126.71C373.081 126.17 372.906 125.475 372.866 124.625L373.526 125.63V131H371.441ZM375.761 126.515C376.211 126.515 376.601 126.405 376.931 126.185C377.271 125.965 377.536 125.66 377.726 125.27C377.916 124.87 378.011 124.42 378.011 123.92C378.011 123.4 377.916 122.95 377.726 122.57C377.536 122.19 377.271 121.895 376.931 121.685C376.601 121.465 376.211 121.355 375.761 121.355C375.351 121.355 374.971 121.445 374.621 121.625C374.281 121.805 374.001 122.07 373.781 122.42C373.571 122.77 373.466 123.19 373.466 123.68V124.28C373.466 124.75 373.576 125.15 373.796 125.48C374.016 125.81 374.301 126.065 374.651 126.245C375.001 126.425 375.371 126.515 375.761 126.515ZM385.574 128.285C384.874 128.285 384.259 128.165 383.729 127.925C383.209 127.685 382.774 127.365 382.424 126.965C382.084 126.555 381.824 126.1 381.644 125.6C381.474 125.1 381.389 124.59 381.389 124.07V123.785C381.389 123.245 381.474 122.725 381.644 122.225C381.824 121.715 382.084 121.265 382.424 120.875C382.774 120.475 383.204 120.16 383.714 119.93C384.224 119.69 384.814 119.57 385.484 119.57C386.364 119.57 387.099 119.765 387.689 120.155C388.289 120.535 388.739 121.04 389.039 121.67C389.339 122.29 389.489 122.96 389.489 123.68V124.43H382.274V123.155H388.184L387.539 123.785C387.539 123.265 387.464 122.82 387.314 122.45C387.164 122.08 386.934 121.795 386.624 121.595C386.324 121.395 385.944 121.295 385.484 121.295C385.024 121.295 384.634 121.4 384.314 121.61C383.994 121.82 383.749 122.125 383.579 122.525C383.419 122.915 383.339 123.385 383.339 123.935C383.339 124.445 383.419 124.9 383.579 125.3C383.739 125.69 383.984 126 384.314 126.23C384.644 126.45 385.064 126.56 385.574 126.56C386.084 126.56 386.499 126.46 386.819 126.26C387.139 126.05 387.344 125.795 387.434 125.495H389.354C389.234 126.055 389.004 126.545 388.664 126.965C388.324 127.385 387.889 127.71 387.359 127.94C386.839 128.17 386.244 128.285 385.574 128.285ZM394.606 128.27C394.036 128.27 393.511 128.165 393.031 127.955C392.551 127.745 392.136 127.45 391.786 127.07C391.436 126.69 391.166 126.25 390.976 125.75C390.786 125.24 390.691 124.69 390.691 124.1V123.785C390.691 123.205 390.781 122.66 390.961 122.15C391.151 121.64 391.411 121.195 391.741 120.815C392.081 120.435 392.486 120.14 392.956 119.93C393.436 119.71 393.966 119.6 394.546 119.6C395.186 119.6 395.746 119.74 396.226 120.02C396.716 120.29 397.106 120.7 397.396 121.25C397.686 121.8 397.846 122.49 397.876 123.32L397.261 122.6V117.05H399.346V128H397.696V124.535H398.056C398.026 125.365 397.856 126.06 397.546 126.62C397.236 127.17 396.826 127.585 396.316 127.865C395.816 128.135 395.246 128.27 394.606 128.27ZM395.071 126.515C395.481 126.515 395.856 126.425 396.196 126.245C396.536 126.055 396.806 125.785 397.006 125.435C397.216 125.075 397.321 124.655 397.321 124.175V123.575C397.321 123.095 397.216 122.695 397.006 122.375C396.796 122.045 396.521 121.795 396.181 121.625C395.841 121.445 395.471 121.355 395.071 121.355C394.621 121.355 394.221 121.465 393.871 121.685C393.531 121.895 393.261 122.195 393.061 122.585C392.871 122.975 392.776 123.43 392.776 123.95C392.776 124.47 392.876 124.925 393.076 125.315C393.276 125.695 393.546 125.99 393.886 126.2C394.236 126.41 394.631 126.515 395.071 126.515Z" fill="white"/>
<path d="M105 105C100.029 105 96 100.971 96 96C96 91.0294 100.029 87 105 87C109.971 87 114 91.0294 114 96C114 100.971 109.971 105 105 105ZM104.1 98.7V100.5H105.9V98.7H104.1ZM104.1 91.5V96.9H105.9V91.5H104.1Z" fill="#FFD676"/>
<path d="M46.8308 131.21C46.4408 131.21 46.0408 131.195 45.6308 131.165C45.2308 131.135 44.8558 131.095 44.5058 131.045V129.305C44.8658 129.345 45.2508 129.38 45.6608 129.41C46.0708 129.45 46.4558 129.47 46.8158 129.47C47.4858 129.47 48.0258 129.39 48.4358 129.23C48.8558 129.07 49.1608 128.815 49.3508 128.465C49.5508 128.125 49.6508 127.69 49.6508 127.16V125.555L50.1008 124.535C50.0708 125.285 49.9158 125.925 49.6358 126.455C49.3558 126.975 48.9758 127.375 48.4958 127.655C48.0158 127.925 47.4608 128.06 46.8308 128.06C46.2708 128.06 45.7608 127.955 45.3008 127.745C44.8508 127.535 44.4608 127.245 44.1308 126.875C43.8108 126.505 43.5608 126.07 43.3808 125.57C43.2008 125.07 43.1108 124.535 43.1108 123.965V123.65C43.1108 123.08 43.2008 122.55 43.3808 122.06C43.5708 121.56 43.8358 121.125 44.1758 120.755C44.5158 120.385 44.9208 120.1 45.3908 119.9C45.8608 119.7 46.3808 119.6 46.9508 119.6C47.6208 119.6 48.2008 119.745 48.6908 120.035C49.1908 120.325 49.5808 120.745 49.8608 121.295C50.1408 121.845 50.2958 122.52 50.3258 123.32L49.9658 123.38V119.855H51.6158V127.04C51.6158 128.03 51.4458 128.83 51.1058 129.44C50.7658 130.05 50.2408 130.495 49.5308 130.775C48.8308 131.065 47.9308 131.21 46.8308 131.21ZM47.4308 126.275C47.8308 126.275 48.1958 126.185 48.5258 126.005C48.8558 125.825 49.1208 125.565 49.3208 125.225C49.5208 124.885 49.6208 124.475 49.6208 123.995V123.47C49.6208 123.01 49.5158 122.62 49.3058 122.3C49.1058 121.98 48.8408 121.74 48.5108 121.58C48.1808 121.41 47.8208 121.325 47.4308 121.325C46.9908 121.325 46.6008 121.43 46.2608 121.64C45.9308 121.84 45.6708 122.125 45.4808 122.495C45.2908 122.865 45.1958 123.305 45.1958 123.815C45.1958 124.315 45.2908 124.75 45.4808 125.12C45.6708 125.49 45.9308 125.775 46.2608 125.975C46.6008 126.175 46.9908 126.275 47.4308 126.275ZM53.8901 128V119.855H55.5401V123.305H55.4951C55.4951 122.135 55.7451 121.25 56.2451 120.65C56.7451 120.05 57.4801 119.75 58.4501 119.75H58.7501V121.565H58.1801C57.4801 121.565 56.9351 121.755 56.5451 122.135C56.1651 122.505 55.9751 123.045 55.9751 123.755V128H53.8901ZM64.0014 128.285C63.2814 128.285 62.6464 128.17 62.0964 127.94C61.5464 127.71 61.0814 127.4 60.7014 127.01C60.3214 126.61 60.0314 126.16 59.8314 125.66C59.6414 125.16 59.5464 124.64 59.5464 124.1V123.785C59.5464 123.225 59.6464 122.695 59.8464 122.195C60.0564 121.685 60.3514 121.235 60.7314 120.845C61.1214 120.445 61.5914 120.135 62.1414 119.915C62.6914 119.685 63.3114 119.57 64.0014 119.57C64.6914 119.57 65.3114 119.685 65.8614 119.915C66.4114 120.135 66.8764 120.445 67.2564 120.845C67.6464 121.235 67.9414 121.685 68.1414 122.195C68.3414 122.695 68.4414 123.225 68.4414 123.785V124.1C68.4414 124.64 68.3414 125.16 68.1414 125.66C67.9514 126.16 67.6664 126.61 67.2864 127.01C66.9064 127.4 66.4414 127.71 65.8914 127.94C65.3414 128.17 64.7114 128.285 64.0014 128.285ZM64.0014 126.5C64.5114 126.5 64.9414 126.39 65.2914 126.17C65.6414 125.94 65.9064 125.635 66.0864 125.255C66.2664 124.865 66.3564 124.425 66.3564 123.935C66.3564 123.435 66.2614 122.995 66.0714 122.615C65.8914 122.225 65.6214 121.92 65.2614 121.7C64.9114 121.47 64.4914 121.355 64.0014 121.355C63.5114 121.355 63.0864 121.47 62.7264 121.7C62.3764 121.92 62.1064 122.225 61.9164 122.615C61.7264 122.995 61.6314 123.435 61.6314 123.935C61.6314 124.425 61.7214 124.865 61.9014 125.255C62.0914 125.635 62.3614 125.94 62.7114 126.17C63.0614 126.39 63.4914 126.5 64.0014 126.5ZM72.8813 128L74.4263 120.125H76.8262L78.6113 128H76.9613L75.1463 120.17H76.0163L74.4113 128H72.8813ZM72.2663 128L72.2513 126.29H73.9163V128H72.2663ZM71.4263 128L69.2063 119.855H71.2313L73.3463 128H71.4263ZM77.4863 128V126.29H79.1513L79.1363 128H77.4863ZM78.1463 128L80.0213 119.855H81.9113L79.9463 128H78.1463ZM87.2396 128.105C86.4896 128.105 85.8696 128.01 85.3796 127.82C84.8996 127.62 84.5396 127.29 84.2996 126.83C84.0596 126.36 83.9396 125.73 83.9396 124.94L83.9546 117.56H85.9046L85.8896 125.075C85.8896 125.475 85.9946 125.785 86.2046 126.005C86.4246 126.215 86.7346 126.32 87.1346 126.32H88.4096V128.105H87.2396ZM82.6496 121.385V119.855H88.4096V121.385H82.6496ZM90.1596 128V117.05H92.2446V123.44H91.8846C91.8846 122.62 91.9896 121.925 92.1996 121.355C92.4096 120.785 92.7196 120.35 93.1296 120.05C93.5496 119.75 94.0796 119.6 94.7196 119.6H94.8096C95.7396 119.6 96.4446 119.92 96.9246 120.56C97.4046 121.2 97.6446 122.13 97.6446 123.35V128H95.5596V123.155C95.5596 122.635 95.4096 122.225 95.1096 121.925C94.8196 121.625 94.4346 121.475 93.9546 121.475C93.4446 121.475 93.0296 121.645 92.7096 121.985C92.3996 122.315 92.2446 122.75 92.2446 123.29V128H90.1596ZM106.078 128.255C104.958 128.255 104.078 128.02 103.438 127.55C102.808 127.07 102.478 126.41 102.448 125.57H104.323C104.353 125.85 104.508 126.105 104.788 126.335C105.068 126.565 105.508 126.68 106.108 126.68C106.608 126.68 107.003 126.59 107.293 126.41C107.593 126.23 107.743 125.985 107.743 125.675C107.743 125.405 107.628 125.19 107.398 125.03C107.178 124.87 106.798 124.765 106.258 124.715L105.538 124.64C104.628 124.54 103.928 124.28 103.438 123.86C102.948 123.44 102.703 122.88 102.703 122.18C102.703 121.62 102.843 121.15 103.123 120.77C103.403 120.39 103.788 120.105 104.278 119.915C104.778 119.715 105.348 119.615 105.988 119.615C106.988 119.615 107.798 119.835 108.418 120.275C109.038 120.715 109.363 121.36 109.393 122.21H107.518C107.498 121.93 107.358 121.69 107.098 121.49C106.838 121.29 106.463 121.19 105.973 121.19C105.533 121.19 105.193 121.275 104.953 121.445C104.713 121.615 104.593 121.835 104.593 122.105C104.593 122.365 104.688 122.565 104.878 122.705C105.078 122.845 105.398 122.94 105.838 122.99L106.558 123.065C107.518 123.165 108.268 123.43 108.808 123.86C109.358 124.29 109.633 124.87 109.633 125.6C109.633 126.14 109.483 126.61 109.183 127.01C108.893 127.4 108.483 127.705 107.953 127.925C107.423 128.145 106.798 128.255 106.078 128.255ZM114.896 128.105C114.146 128.105 113.526 128.01 113.036 127.82C112.556 127.62 112.196 127.29 111.956 126.83C111.716 126.36 111.596 125.73 111.596 124.94L111.611 117.56H113.561L113.546 125.075C113.546 125.475 113.651 125.785 113.861 126.005C114.081 126.215 114.391 126.32 114.791 126.32H116.066V128.105H114.896ZM110.306 121.385V119.855H116.066V121.385H110.306ZM121.687 128.285C120.967 128.285 120.332 128.17 119.782 127.94C119.232 127.71 118.767 127.4 118.387 127.01C118.007 126.61 117.717 126.16 117.517 125.66C117.327 125.16 117.232 124.64 117.232 124.1V123.785C117.232 123.225 117.332 122.695 117.532 122.195C117.742 121.685 118.037 121.235 118.417 120.845C118.807 120.445 119.277 120.135 119.827 119.915C120.377 119.685 120.997 119.57 121.687 119.57C122.377 119.57 122.997 119.685 123.547 119.915C124.097 120.135 124.562 120.445 124.942 120.845C125.332 121.235 125.627 121.685 125.827 122.195C126.027 122.695 126.127 123.225 126.127 123.785V124.1C126.127 124.64 126.027 125.16 125.827 125.66C125.637 126.16 125.352 126.61 124.972 127.01C124.592 127.4 124.127 127.71 123.577 127.94C123.027 128.17 122.397 128.285 121.687 128.285ZM121.687 126.5C122.197 126.5 122.627 126.39 122.977 126.17C123.327 125.94 123.592 125.635 123.772 125.255C123.952 124.865 124.042 124.425 124.042 123.935C124.042 123.435 123.947 122.995 123.757 122.615C123.577 122.225 123.307 121.92 122.947 121.7C122.597 121.47 122.177 121.355 121.687 121.355C121.197 121.355 120.772 121.47 120.412 121.7C120.062 121.92 119.792 122.225 119.602 122.615C119.412 122.995 119.317 123.435 119.317 123.935C119.317 124.425 119.407 124.865 119.587 125.255C119.777 125.635 120.047 125.94 120.397 126.17C120.747 126.39 121.177 126.5 121.687 126.5ZM127.953 131V119.855H129.603V123.365L129.348 123.35C129.388 122.52 129.558 121.825 129.858 121.265C130.168 120.705 130.578 120.29 131.088 120.02C131.598 119.74 132.168 119.6 132.798 119.6C133.378 119.6 133.898 119.705 134.358 119.915C134.828 120.125 135.228 120.42 135.558 120.8C135.898 121.18 136.158 121.625 136.338 122.135C136.518 122.635 136.608 123.175 136.608 123.755V124.07C136.608 124.66 136.518 125.21 136.338 125.72C136.168 126.22 135.913 126.665 135.573 127.055C135.243 127.435 134.843 127.735 134.373 127.955C133.903 128.165 133.378 128.27 132.798 128.27C132.188 128.27 131.628 128.145 131.118 127.895C130.618 127.635 130.213 127.24 129.903 126.71C129.593 126.17 129.418 125.475 129.378 124.625L130.038 125.63V131H127.953ZM132.273 126.515C132.723 126.515 133.113 126.405 133.443 126.185C133.783 125.965 134.048 125.66 134.238 125.27C134.428 124.87 134.523 124.42 134.523 123.92C134.523 123.4 134.428 122.95 134.238 122.57C134.048 122.19 133.783 121.895 133.443 121.685C133.113 121.465 132.723 121.355 132.273 121.355C131.863 121.355 131.483 121.445 131.133 121.625C130.793 121.805 130.513 122.07 130.293 122.42C130.083 122.77 129.978 123.19 129.978 123.68V124.28C129.978 124.75 130.088 125.15 130.308 125.48C130.528 125.81 130.813 126.065 131.163 126.245C131.513 126.425 131.883 126.515 132.273 126.515ZM138.441 131V119.855H140.091V123.365L139.836 123.35C139.876 122.52 140.046 121.825 140.346 121.265C140.656 120.705 141.066 120.29 141.576 120.02C142.086 119.74 142.656 119.6 143.286 119.6C143.866 119.6 144.386 119.705 144.846 119.915C145.316 120.125 145.716 120.42 146.046 120.8C146.386 121.18 146.646 121.625 146.826 122.135C147.006 122.635 147.096 123.175 147.096 123.755V124.07C147.096 124.66 147.006 125.21 146.826 125.72C146.656 126.22 146.401 126.665 146.061 127.055C145.731 127.435 145.331 127.735 144.861 127.955C144.391 128.165 143.866 128.27 143.286 128.27C142.676 128.27 142.116 128.145 141.606 127.895C141.106 127.635 140.701 127.24 140.391 126.71C140.081 126.17 139.906 125.475 139.866 124.625L140.526 125.63V131H138.441ZM142.761 126.515C143.211 126.515 143.601 126.405 143.931 126.185C144.271 125.965 144.536 125.66 144.726 125.27C144.916 124.87 145.011 124.42 145.011 123.92C145.011 123.4 144.916 122.95 144.726 122.57C144.536 122.19 144.271 121.895 143.931 121.685C143.601 121.465 143.211 121.355 142.761 121.355C142.351 121.355 141.971 121.445 141.621 121.625C141.281 121.805 141.001 122.07 140.781 122.42C140.571 122.77 140.466 123.19 140.466 123.68V124.28C140.466 124.75 140.576 125.15 140.796 125.48C141.016 125.81 141.301 126.065 141.651 126.245C142.001 126.425 142.371 126.515 142.761 126.515ZM152.574 128.285C151.874 128.285 151.259 128.165 150.729 127.925C150.209 127.685 149.774 127.365 149.424 126.965C149.084 126.555 148.824 126.1 148.644 125.6C148.474 125.1 148.389 124.59 148.389 124.07V123.785C148.389 123.245 148.474 122.725 148.644 122.225C148.824 121.715 149.084 121.265 149.424 120.875C149.774 120.475 150.204 120.16 150.714 119.93C151.224 119.69 151.814 119.57 152.484 119.57C153.364 119.57 154.099 119.765 154.689 120.155C155.289 120.535 155.739 121.04 156.039 121.67C156.339 122.29 156.489 122.96 156.489 123.68V124.43H149.274V123.155H155.184L154.539 123.785C154.539 123.265 154.464 122.82 154.314 122.45C154.164 122.08 153.934 121.795 153.624 121.595C153.324 121.395 152.944 121.295 152.484 121.295C152.024 121.295 151.634 121.4 151.314 121.61C150.994 121.82 150.749 122.125 150.579 122.525C150.419 122.915 150.339 123.385 150.339 123.935C150.339 124.445 150.419 124.9 150.579 125.3C150.739 125.69 150.984 126 151.314 126.23C151.644 126.45 152.064 126.56 152.574 126.56C153.084 126.56 153.499 126.46 153.819 126.26C154.139 126.05 154.344 125.795 154.434 125.495H156.354C156.234 126.055 156.004 126.545 155.664 126.965C155.324 127.385 154.889 127.71 154.359 127.94C153.839 128.17 153.244 128.285 152.574 128.285ZM161.606 128.27C161.036 128.27 160.511 128.165 160.031 127.955C159.551 127.745 159.136 127.45 158.786 127.07C158.436 126.69 158.166 126.25 157.976 125.75C157.786 125.24 157.691 124.69 157.691 124.1V123.785C157.691 123.205 157.781 122.66 157.961 122.15C158.151 121.64 158.411 121.195 158.741 120.815C159.081 120.435 159.486 120.14 159.956 119.93C160.436 119.71 160.966 119.6 161.546 119.6C162.186 119.6 162.746 119.74 163.226 120.02C163.716 120.29 164.106 120.7 164.396 121.25C164.686 121.8 164.846 122.49 164.876 123.32L164.261 122.6V117.05H166.346V128H164.696V124.535H165.056C165.026 125.365 164.856 126.06 164.546 126.62C164.236 127.17 163.826 127.585 163.316 127.865C162.816 128.135 162.246 128.27 161.606 128.27ZM162.071 126.515C162.481 126.515 162.856 126.425 163.196 126.245C163.536 126.055 163.806 125.785 164.006 125.435C164.216 125.075 164.321 124.655 164.321 124.175V123.575C164.321 123.095 164.216 122.695 164.006 122.375C163.796 122.045 163.521 121.795 163.181 121.625C162.841 121.445 162.471 121.355 162.071 121.355C161.621 121.355 161.221 121.465 160.871 121.685C160.531 121.895 160.261 122.195 160.061 122.585C159.871 122.975 159.776 123.43 159.776 123.95C159.776 124.47 159.876 124.925 160.076 125.315C160.276 125.695 160.546 125.99 160.886 126.2C161.236 126.41 161.631 126.515 162.071 126.515Z" fill="white"/>
<path d="M569.36 100.738L570.082 99.0914C570.725 97.6265 571.882 96.4603 573.325 95.8229L575.312 94.9447C575.944 94.6656 575.944 93.7506 575.312 93.4714L573.387 92.6207C571.907 91.9668 570.729 90.7575 570.098 89.2426L569.366 87.4883C569.095 86.8372 568.191 86.8372 567.92 87.4883L567.188 89.2426C566.557 90.7575 565.379 91.9668 563.899 92.6207L561.974 93.4714C561.342 93.7506 561.342 94.6656 561.974 94.9447L563.961 95.8229C565.404 96.4603 566.561 97.6265 567.203 99.0914L567.926 100.738C568.203 101.37 569.083 101.37 569.36 100.738ZM576.59 104.746L576.793 104.282C577.155 103.456 577.807 102.799 578.621 102.439L579.246 102.162C579.585 102.013 579.585 101.523 579.246 101.374L578.656 101.112C577.821 100.743 577.157 100.061 576.802 99.2073L576.593 98.7066C576.448 98.3578 575.963 98.3578 575.818 98.7066L575.609 99.2073C575.253 100.061 574.59 100.743 573.755 101.112L573.165 101.374C572.826 101.523 572.826 102.013 573.165 102.162L573.79 102.439C574.604 102.799 575.256 103.456 575.618 104.282L575.821 104.746C575.97 105.085 576.441 105.085 576.59 104.746Z" fill="#DFF36B"/>
<path d="M542.238 128V117.05H545.733L550.338 126.23H550.833L550.533 126.5V117.05H552.543V128H549.033L544.428 118.82H543.918L544.218 118.55V128H542.238ZM558.996 128.285C558.276 128.285 557.641 128.17 557.091 127.94C556.541 127.71 556.076 127.4 555.696 127.01C555.316 126.61 555.026 126.16 554.826 125.66C554.636 125.16 554.541 124.64 554.541 124.1V123.785C554.541 123.225 554.641 122.695 554.841 122.195C555.051 121.685 555.346 121.235 555.726 120.845C556.116 120.445 556.586 120.135 557.136 119.915C557.686 119.685 558.306 119.57 558.996 119.57C559.686 119.57 560.306 119.685 560.856 119.915C561.406 120.135 561.871 120.445 562.251 120.845C562.641 121.235 562.936 121.685 563.136 122.195C563.336 122.695 563.436 123.225 563.436 123.785V124.1C563.436 124.64 563.336 125.16 563.136 125.66C562.946 126.16 562.661 126.61 562.281 127.01C561.901 127.4 561.436 127.71 560.886 127.94C560.336 128.17 559.706 128.285 558.996 128.285ZM558.996 126.5C559.506 126.5 559.936 126.39 560.286 126.17C560.636 125.94 560.901 125.635 561.081 125.255C561.261 124.865 561.351 124.425 561.351 123.935C561.351 123.435 561.256 122.995 561.066 122.615C560.886 122.225 560.616 121.92 560.256 121.7C559.906 121.47 559.486 121.355 558.996 121.355C558.506 121.355 558.081 121.47 557.721 121.7C557.371 121.92 557.101 122.225 556.911 122.615C556.721 122.995 556.626 123.435 556.626 123.935C556.626 124.425 556.716 124.865 556.896 125.255C557.086 125.635 557.356 125.94 557.706 126.17C558.056 126.39 558.486 126.5 558.996 126.5ZM567.876 128L569.421 120.125H571.821L573.606 128H571.956L570.141 120.17H571.011L569.406 128H567.876ZM567.261 128L567.246 126.29H568.911V128H567.261ZM566.421 128L564.201 119.855H566.226L568.341 128H566.421ZM572.481 128V126.29H574.146L574.131 128H572.481ZM573.141 128L575.016 119.855H576.906L574.941 128H573.141ZM582.175 128V119.855H584.26V128H582.175ZM581.035 121.415V119.855H584.26V121.415H581.035ZM582.94 118.88C582.53 118.88 582.225 118.775 582.025 118.565C581.835 118.345 581.74 118.075 581.74 117.755C581.74 117.415 581.835 117.14 582.025 116.93C582.225 116.72 582.53 116.615 582.94 116.615C583.35 116.615 583.65 116.72 583.84 116.93C584.03 117.14 584.125 117.415 584.125 117.755C584.125 118.075 584.03 118.345 583.84 118.565C583.65 118.775 583.35 118.88 582.94 118.88ZM590.203 128.105C589.453 128.105 588.833 128.01 588.343 127.82C587.863 127.62 587.503 127.29 587.263 126.83C587.023 126.36 586.903 125.73 586.903 124.94L586.918 117.56H588.868L588.853 125.075C588.853 125.475 588.958 125.785 589.168 126.005C589.388 126.215 589.698 126.32 590.098 126.32H591.373V128.105H590.203ZM585.613 121.385V119.855H591.373V121.385H585.613ZM596.019 128.255C594.899 128.255 594.019 128.02 593.379 127.55C592.749 127.07 592.419 126.41 592.389 125.57H594.264C594.294 125.85 594.449 126.105 594.729 126.335C595.009 126.565 595.449 126.68 596.049 126.68C596.549 126.68 596.944 126.59 597.234 126.41C597.534 126.23 597.684 125.985 597.684 125.675C597.684 125.405 597.569 125.19 597.339 125.03C597.119 124.87 596.739 124.765 596.199 124.715L595.479 124.64C594.569 124.54 593.869 124.28 593.379 123.86C592.889 123.44 592.644 122.88 592.644 122.18C592.644 121.62 592.784 121.15 593.064 120.77C593.344 120.39 593.729 120.105 594.219 119.915C594.719 119.715 595.289 119.615 595.929 119.615C596.929 119.615 597.739 119.835 598.359 120.275C598.979 120.715 599.304 121.36 599.334 122.21H597.459C597.439 121.93 597.299 121.69 597.039 121.49C596.779 121.29 596.404 121.19 595.914 121.19C595.474 121.19 595.134 121.275 594.894 121.445C594.654 121.615 594.534 121.835 594.534 122.105C594.534 122.365 594.629 122.565 594.819 122.705C595.019 122.845 595.339 122.94 595.779 122.99L596.499 123.065C597.459 123.165 598.209 123.43 598.749 123.86C599.299 124.29 599.574 124.87 599.574 125.6C599.574 126.14 599.424 126.61 599.124 127.01C598.834 127.4 598.424 127.705 597.894 127.925C597.364 128.145 596.739 128.255 596.019 128.255ZM522.784 146.105C522.034 146.105 521.414 146.01 520.924 145.82C520.444 145.62 520.084 145.29 519.844 144.83C519.604 144.36 519.484 143.73 519.484 142.94L519.499 135.56H521.449L521.434 143.075C521.434 143.475 521.539 143.785 521.749 144.005C521.969 144.215 522.279 144.32 522.679 144.32H523.954V146.105H522.784ZM518.194 139.385V137.855H523.954V139.385H518.194ZM526.094 146V137.855H528.179V146H526.094ZM524.954 139.415V137.855H528.179V139.415H524.954ZM526.859 136.88C526.449 136.88 526.144 136.775 525.944 136.565C525.754 136.345 525.659 136.075 525.659 135.755C525.659 135.415 525.754 135.14 525.944 134.93C526.144 134.72 526.449 134.615 526.859 134.615C527.269 134.615 527.569 134.72 527.759 134.93C527.949 135.14 528.044 135.415 528.044 135.755C528.044 136.075 527.949 136.345 527.759 136.565C527.569 136.775 527.269 136.88 526.859 136.88ZM530.581 146V137.855H532.231V141.35H532.081C532.081 140.53 532.186 139.845 532.396 139.295C532.606 138.735 532.916 138.315 533.326 138.035C533.746 137.745 534.266 137.6 534.886 137.6H534.976C535.606 137.6 536.126 137.745 536.536 138.035C536.956 138.315 537.266 138.735 537.466 139.295C537.676 139.845 537.781 140.53 537.781 141.35H537.256C537.256 140.53 537.361 139.845 537.571 139.295C537.791 138.735 538.106 138.315 538.516 138.035C538.936 137.745 539.456 137.6 540.076 137.6H540.166C540.796 137.6 541.321 137.745 541.741 138.035C542.161 138.315 542.476 138.735 542.686 139.295C542.906 139.845 543.016 140.53 543.016 141.35V146H540.931V141.155C540.931 140.645 540.801 140.24 540.541 139.94C540.281 139.63 539.911 139.475 539.431 139.475C538.951 139.475 538.566 139.635 538.276 139.955C537.986 140.265 537.841 140.685 537.841 141.215V146H535.756V141.155C535.756 140.645 535.626 140.24 535.366 139.94C535.106 139.63 534.736 139.475 534.256 139.475C533.776 139.475 533.391 139.635 533.101 139.955C532.811 140.265 532.666 140.685 532.666 141.215V146H530.581ZM548.89 146.285C548.19 146.285 547.575 146.165 547.045 145.925C546.525 145.685 546.09 145.365 545.74 144.965C545.4 144.555 545.14 144.1 544.96 143.6C544.79 143.1 544.705 142.59 544.705 142.07V141.785C544.705 141.245 544.79 140.725 544.96 140.225C545.14 139.715 545.4 139.265 545.74 138.875C546.09 138.475 546.52 138.16 547.03 137.93C547.54 137.69 548.13 137.57 548.8 137.57C549.68 137.57 550.415 137.765 551.005 138.155C551.605 138.535 552.055 139.04 552.355 139.67C552.655 140.29 552.805 140.96 552.805 141.68V142.43H545.59V141.155H551.5L550.855 141.785C550.855 141.265 550.78 140.82 550.63 140.45C550.48 140.08 550.25 139.795 549.94 139.595C549.64 139.395 549.26 139.295 548.8 139.295C548.34 139.295 547.95 139.4 547.63 139.61C547.31 139.82 547.065 140.125 546.895 140.525C546.735 140.915 546.655 141.385 546.655 141.935C546.655 142.445 546.735 142.9 546.895 143.3C547.055 143.69 547.3 144 547.63 144.23C547.96 144.45 548.38 144.56 548.89 144.56C549.4 144.56 549.815 144.46 550.135 144.26C550.455 144.05 550.66 143.795 550.75 143.495H552.67C552.55 144.055 552.32 144.545 551.98 144.965C551.64 145.385 551.205 145.71 550.675 145.94C550.155 146.17 549.56 146.285 548.89 146.285ZM561.324 146.105C560.574 146.105 559.954 146.01 559.464 145.82C558.984 145.62 558.624 145.29 558.384 144.83C558.144 144.36 558.024 143.73 558.024 142.94L558.039 135.56H559.989L559.974 143.075C559.974 143.475 560.079 143.785 560.289 144.005C560.509 144.215 560.819 144.32 561.219 144.32H562.494V146.105H561.324ZM556.734 139.385V137.855H562.494V139.385H556.734ZM568.115 146.285C567.395 146.285 566.76 146.17 566.21 145.94C565.66 145.71 565.195 145.4 564.815 145.01C564.435 144.61 564.145 144.16 563.945 143.66C563.755 143.16 563.66 142.64 563.66 142.1V141.785C563.66 141.225 563.76 140.695 563.96 140.195C564.17 139.685 564.465 139.235 564.845 138.845C565.235 138.445 565.705 138.135 566.255 137.915C566.805 137.685 567.425 137.57 568.115 137.57C568.805 137.57 569.425 137.685 569.975 137.915C570.525 138.135 570.99 138.445 571.37 138.845C571.76 139.235 572.055 139.685 572.255 140.195C572.455 140.695 572.555 141.225 572.555 141.785V142.1C572.555 142.64 572.455 143.16 572.255 143.66C572.065 144.16 571.78 144.61 571.4 145.01C571.02 145.4 570.555 145.71 570.005 145.94C569.455 146.17 568.825 146.285 568.115 146.285ZM568.115 144.5C568.625 144.5 569.055 144.39 569.405 144.17C569.755 143.94 570.02 143.635 570.2 143.255C570.38 142.865 570.47 142.425 570.47 141.935C570.47 141.435 570.375 140.995 570.185 140.615C570.005 140.225 569.735 139.92 569.375 139.7C569.025 139.47 568.605 139.355 568.115 139.355C567.625 139.355 567.2 139.47 566.84 139.7C566.49 139.92 566.22 140.225 566.03 140.615C565.84 140.995 565.745 141.435 565.745 141.935C565.745 142.425 565.835 142.865 566.015 143.255C566.205 143.635 566.475 143.94 566.825 144.17C567.175 144.39 567.605 144.5 568.115 144.5ZM580.573 146.255C579.453 146.255 578.573 146.02 577.933 145.55C577.303 145.07 576.973 144.41 576.943 143.57H578.818C578.848 143.85 579.003 144.105 579.283 144.335C579.563 144.565 580.003 144.68 580.603 144.68C581.103 144.68 581.498 144.59 581.788 144.41C582.088 144.23 582.238 143.985 582.238 143.675C582.238 143.405 582.123 143.19 581.893 143.03C581.673 142.87 581.293 142.765 580.753 142.715L580.033 142.64C579.123 142.54 578.423 142.28 577.933 141.86C577.443 141.44 577.198 140.88 577.198 140.18C577.198 139.62 577.338 139.15 577.618 138.77C577.898 138.39 578.283 138.105 578.773 137.915C579.273 137.715 579.843 137.615 580.483 137.615C581.483 137.615 582.293 137.835 582.913 138.275C583.533 138.715 583.858 139.36 583.888 140.21H582.013C581.993 139.93 581.853 139.69 581.593 139.49C581.333 139.29 580.958 139.19 580.468 139.19C580.028 139.19 579.688 139.275 579.448 139.445C579.208 139.615 579.088 139.835 579.088 140.105C579.088 140.365 579.183 140.565 579.373 140.705C579.573 140.845 579.893 140.94 580.333 140.99L581.053 141.065C582.013 141.165 582.763 141.43 583.303 141.86C583.853 142.29 584.128 142.87 584.128 143.6C584.128 144.14 583.978 144.61 583.678 145.01C583.388 145.4 582.978 145.705 582.448 145.925C581.918 146.145 581.293 146.255 580.573 146.255ZM585.85 146V135.05H587.935V141.44H587.575C587.575 140.62 587.68 139.925 587.89 139.355C588.1 138.785 588.41 138.35 588.82 138.05C589.24 137.75 589.77 137.6 590.41 137.6H590.5C591.43 137.6 592.135 137.92 592.615 138.56C593.095 139.2 593.335 140.13 593.335 141.35V146H591.25V141.155C591.25 140.635 591.1 140.225 590.8 139.925C590.51 139.625 590.125 139.475 589.645 139.475C589.135 139.475 588.72 139.645 588.4 139.985C588.09 140.315 587.935 140.75 587.935 141.29V146H585.85ZM595.967 146V137.855H598.052V146H595.967ZM594.827 139.415V137.855H598.052V139.415H594.827ZM596.732 136.88C596.322 136.88 596.017 136.775 595.817 136.565C595.627 136.345 595.532 136.075 595.532 135.755C595.532 135.415 595.627 135.14 595.817 134.93C596.017 134.72 596.322 134.615 596.732 134.615C597.142 134.615 597.442 134.72 597.632 134.93C597.822 135.14 597.917 135.415 597.917 135.755C597.917 136.075 597.822 136.345 597.632 136.565C597.442 136.775 597.142 136.88 596.732 136.88ZM600.455 146V137.855H602.105V141.35H601.955C601.955 140.52 602.065 139.83 602.285 139.28C602.505 138.72 602.83 138.3 603.26 138.02C603.7 137.74 604.245 137.6 604.895 137.6H604.985C605.955 137.6 606.69 137.915 607.19 138.545C607.69 139.165 607.94 140.095 607.94 141.335V146H605.855V141.155C605.855 140.655 605.71 140.25 605.42 139.94C605.14 139.63 604.75 139.475 604.25 139.475C603.74 139.475 603.325 139.635 603.005 139.955C602.695 140.265 602.54 140.685 602.54 141.215V146H600.455ZM613.826 146.285C613.126 146.285 612.511 146.165 611.981 145.925C611.461 145.685 611.026 145.365 610.676 144.965C610.336 144.555 610.076 144.1 609.896 143.6C609.726 143.1 609.641 142.59 609.641 142.07V141.785C609.641 141.245 609.726 140.725 609.896 140.225C610.076 139.715 610.336 139.265 610.676 138.875C611.026 138.475 611.456 138.16 611.966 137.93C612.476 137.69 613.066 137.57 613.736 137.57C614.616 137.57 615.351 137.765 615.941 138.155C616.541 138.535 616.991 139.04 617.291 139.67C617.591 140.29 617.741 140.96 617.741 141.68V142.43H610.526V141.155H616.436L615.791 141.785C615.791 141.265 615.716 140.82 615.566 140.45C615.416 140.08 615.186 139.795 614.876 139.595C614.576 139.395 614.196 139.295 613.736 139.295C613.276 139.295 612.886 139.4 612.566 139.61C612.246 139.82 612.001 140.125 611.831 140.525C611.671 140.915 611.591 141.385 611.591 141.935C611.591 142.445 611.671 142.9 611.831 143.3C611.991 143.69 612.236 144 612.566 144.23C612.896 144.45 613.316 144.56 613.826 144.56C614.336 144.56 614.751 144.46 615.071 144.26C615.391 144.05 615.596 143.795 615.686 143.495H617.606C617.486 144.055 617.256 144.545 616.916 144.965C616.576 145.385 616.141 145.71 615.611 145.94C615.091 146.17 614.496 146.285 613.826 146.285ZM619.558 142.445V135.05H621.688V142.445H619.558ZM619.393 146V143.78H621.853V146H619.393Z" fill="#DFF36B"/>
<path d="M542.503 14V11.48C542.503 10.928 542.587 10.448 542.755 10.04C542.935 9.632 543.223 9.272 543.619 8.96C544.027 8.636 544.561 8.33 545.221 8.042L547.453 7.052C548.005 6.8 548.425 6.494 548.713 6.134C549.013 5.762 549.163 5.288 549.163 4.712C549.163 4.076 548.971 3.572 548.587 3.2C548.215 2.816 547.681 2.624 546.985 2.624C546.289 2.624 545.749 2.816 545.365 3.2C544.993 3.584 544.807 4.118 544.807 4.802H542.341C542.341 3.986 542.515 3.254 542.863 2.606C543.211 1.946 543.727 1.43 544.411 1.058C545.095 0.673999 545.953 0.481999 546.985 0.481999C548.017 0.481999 548.875 0.667999 549.559 1.04C550.243 1.412 550.759 1.91 551.107 2.534C551.455 3.146 551.629 3.83 551.629 4.586V4.82C551.629 5.804 551.353 6.626 550.801 7.286C550.249 7.934 549.439 8.498 548.371 8.978L546.139 9.968C545.719 10.148 545.425 10.34 545.257 10.544C545.089 10.736 545.005 11 545.005 11.336V12.488L544.393 11.822H551.683V14H542.503ZM558.901 14.342C557.869 14.342 556.993 14.174 556.273 13.838C555.553 13.49 554.965 13.022 554.509 12.434C554.053 11.834 553.717 11.15 553.501 10.382C553.297 9.602 553.195 8.786 553.195 7.934V6.926C553.195 5.714 553.399 4.622 553.807 3.65C554.215 2.678 554.839 1.91 555.679 1.346C556.519 0.769999 557.593 0.481999 558.901 0.481999C560.197 0.481999 561.265 0.769999 562.105 1.346C562.945 1.91 563.563 2.678 563.959 3.65C564.367 4.622 564.571 5.714 564.571 6.926V7.934C564.571 8.786 564.463 9.602 564.247 10.382C564.043 11.15 563.713 11.834 563.257 12.434C562.813 13.022 562.231 13.49 561.511 13.838C560.791 14.174 559.921 14.342 558.901 14.342ZM558.901 12.002C559.969 12.002 560.755 11.636 561.259 10.904C561.763 10.16 562.015 9.008 562.015 7.448C562.015 5.792 561.757 4.61 561.241 3.902C560.725 3.182 559.945 2.822 558.901 2.822C557.845 2.822 557.053 3.182 556.525 3.902C556.009 4.61 555.751 5.78 555.751 7.412C555.751 8.984 556.009 10.142 556.525 10.886C557.041 11.63 557.833 12.002 558.901 12.002ZM566.314 14V11.48C566.314 10.928 566.398 10.448 566.566 10.04C566.746 9.632 567.034 9.272 567.43 8.96C567.838 8.636 568.372 8.33 569.032 8.042L571.264 7.052C571.816 6.8 572.236 6.494 572.524 6.134C572.824 5.762 572.974 5.288 572.974 4.712C572.974 4.076 572.782 3.572 572.398 3.2C572.026 2.816 571.492 2.624 570.796 2.624C570.1 2.624 569.56 2.816 569.176 3.2C568.804 3.584 568.618 4.118 568.618 4.802H566.152C566.152 3.986 566.326 3.254 566.674 2.606C567.022 1.946 567.538 1.43 568.222 1.058C568.906 0.673999 569.764 0.481999 570.796 0.481999C571.828 0.481999 572.686 0.667999 573.37 1.04C574.054 1.412 574.57 1.91 574.918 2.534C575.266 3.146 575.44 3.83 575.44 4.586V4.82C575.44 5.804 575.164 6.626 574.612 7.286C574.06 7.934 573.25 8.498 572.182 8.978L569.95 9.968C569.53 10.148 569.236 10.34 569.068 10.544C568.9 10.736 568.816 11 568.816 11.336V12.488L568.204 11.822H575.494V14H566.314ZM576.573 11.282V8.51L581.721 0.499999L583.647 1.814L579.111 8.906L579.327 9.266H587.391V11.282H576.573ZM583.449 14V4.586H585.807V14H583.449ZM593.96 9.752V6.548H595.49C596.21 6.548 596.738 6.362 597.074 5.99C597.422 5.606 597.596 5.138 597.596 4.586C597.596 4.19 597.518 3.848 597.362 3.56C597.206 3.26 596.978 3.032 596.678 2.876C596.378 2.72 596.03 2.642 595.634 2.642C595.202 2.642 594.83 2.732 594.518 2.912C594.218 3.092 593.984 3.332 593.816 3.632C593.648 3.932 593.564 4.28 593.564 4.676H591.17C591.17 3.908 591.344 3.206 591.692 2.57C592.04 1.934 592.55 1.43 593.222 1.058C593.894 0.673999 594.716 0.481999 595.688 0.481999C596.576 0.481999 597.338 0.655999 597.974 1.004C598.622 1.34 599.12 1.802 599.468 2.39C599.816 2.978 599.99 3.644 599.99 4.388V4.604C599.99 5.336 599.816 5.99 599.468 6.566C599.12 7.142 598.604 7.598 597.92 7.934C597.248 8.258 596.426 8.432 595.454 8.456L596.48 7.52L596.444 9.752H593.96ZM593.762 14V11.336H596.642V14H593.762Z" fill="white"/>
</svg>
