<svg width="130" height="48" viewBox="0 0 130 48" fill="none" xmlns="http://www.w3.org/2000/svg">
<path d="M23.4075 15.8166H16.3702C16.1897 15.8166 16.0994 15.7278 16.0994 15.5501V12.644C16.0994 12.4663 16.1897 12.3775 16.3702 12.3775H26.8294C26.9209 12.3773 27.009 12.4117 27.0761 12.474C27.1431 12.5362 27.184 12.6216 27.1905 12.7128C27.6118 17.9259 26.0786 22.0156 22.5907 24.9818C17.2515 29.5172 9.78432 29.3796 4.61706 24.5004C-1.23804 18.972 -0.739366 9.03295 5.42095 3.99894C9.41892 0.731786 14.3196 0.069761 19.1301 1.94838C19.228 1.98656 19.3149 2.04854 19.3832 2.1288C19.4515 2.20906 19.4989 2.3051 19.5213 2.40835L20.3381 6.32465C20.3451 6.35664 20.342 6.39003 20.3294 6.42023C20.3167 6.45042 20.295 6.47596 20.2672 6.49336C20.2395 6.51077 20.207 6.51918 20.1743 6.51745C20.1416 6.51572 20.1102 6.50393 20.0845 6.4837C15.1278 2.72217 9.13089 3.73242 5.79495 8.79221C1.99473 14.557 4.90508 22.8109 11.7102 24.5992C17.4621 26.1124 22.7971 21.6717 23.6268 16.0702C23.6497 15.9011 23.5766 15.8166 23.4075 15.8166Z" fill="white"/>
<path d="M52.954 1.84534H49.747C49.6235 1.84534 49.5234 1.94542 49.5234 2.06888V28.06C49.5234 28.1834 49.6235 28.2835 49.747 28.2835H52.954C53.0774 28.2835 53.1775 28.1834 53.1775 28.06V2.06888C53.1775 1.94542 53.0774 1.84534 52.954 1.84534Z" fill="white"/>
<path d="M77.1271 11.6081C80.8112 8.67198 86.2923 9.08897 88.2526 13.6071C89.6842 16.9087 89.0995 23.688 89.0608 27.9439C89.0608 28.0987 88.9834 28.176 88.8287 28.176H85.9871C85.9221 28.176 85.8598 28.1502 85.8139 28.1043C85.7679 28.0583 85.7421 27.996 85.7421 27.931C85.7449 24.3486 85.7421 20.7791 85.7335 17.2225C85.7163 12.455 79.427 11.4706 77.6645 15.5416C77.3406 16.2925 77.1715 17.5563 77.1572 19.3332C77.1343 22.2335 77.1328 25.1339 77.1529 28.0342C77.1529 28.2004 77.0698 28.2835 76.9036 28.2835H73.7611C73.5805 28.2835 73.4902 28.1932 73.4902 28.0127V2.11617C73.4902 1.93562 73.5791 1.84534 73.7568 1.84534H76.6628C76.8405 1.84534 76.9293 1.93562 76.9293 2.11617V11.5135C76.9293 11.6798 76.9953 11.7113 77.1271 11.6081Z" fill="white"/>
<path d="M94.0983 12.996C99.4418 6.02753 110.193 10.1201 110.34 18.7995C110.391 21.7744 110.43 24.7506 110.456 27.7283C110.458 27.8831 110.383 27.9605 110.228 27.9605H107.266C107.068 27.9605 106.982 27.863 107.008 27.6682L107.09 26.9459C107.095 26.9063 107.089 26.866 107.075 26.8289C107.06 26.7918 107.036 26.759 107.005 26.7337C106.974 26.7083 106.937 26.6913 106.898 26.684C106.858 26.6768 106.818 26.6796 106.78 26.6923C106.075 26.9201 105.37 27.4188 104.755 27.6123C100.511 28.9392 97.1448 28.1969 94.6572 25.3854C91.605 21.9334 91.2611 16.6931 94.0983 12.996ZM97.0044 14.7199C94.6357 17.6947 95.2805 22.5439 98.6637 24.4053C101.544 25.9959 104.282 24.6417 106.759 23.0683C106.882 22.991 106.949 22.8806 106.961 22.7373C107.214 20.1279 107.219 16.663 105.555 14.6683C103.397 12.0761 99.1925 11.9686 97.0044 14.7199Z" fill="white"/>
<path d="M41.9926 27.2778C36.1805 30.128 30.3125 26.8092 30.2093 20.2491C30.152 16.8071 30.1491 13.3623 30.2007 9.91458C30.2036 9.76556 30.2795 9.69104 30.4286 9.69104H33.2658C33.4292 9.69104 33.5109 9.77128 33.5109 9.93178C33.5137 13.305 33.5137 16.6624 33.5109 20.0041C33.5109 21.715 33.9923 23.1595 35.3637 24.2256C37.4959 25.8764 40.9136 24.965 41.9324 22.4158C42.1789 21.7939 42.305 20.7951 42.3107 19.4194C42.3279 16.264 42.3308 13.1044 42.3193 9.94038C42.3193 9.90763 42.3257 9.87521 42.3383 9.84496C42.3508 9.81471 42.3692 9.78722 42.3923 9.76407C42.4155 9.74091 42.443 9.72255 42.4732 9.71002C42.5035 9.69749 42.5359 9.69104 42.5686 9.69104H45.3887C45.5664 9.69104 45.6552 9.78132 45.6552 9.96187V27.798C45.6552 27.9785 45.565 28.0688 45.3844 28.0688H42.6976C42.497 28.0688 42.3795 27.9699 42.3451 27.7722L42.2763 27.424C42.2706 27.3932 42.2579 27.3642 42.2394 27.3391C42.2208 27.314 42.1968 27.2936 42.1693 27.2794C42.1418 27.2653 42.1115 27.2577 42.0809 27.2575C42.0502 27.2572 42.02 27.2641 41.9926 27.2778Z" fill="white"/>
<path d="M117.496 10.9033C122.831 8.08326 129.185 10.7271 129.447 17.141C129.513 18.8262 129.516 22.4301 129.456 27.9527C129.456 28.1018 129.381 28.1763 129.232 28.1763H126.494C126.331 28.1763 126.249 28.0946 126.249 27.9312C126.269 24.9277 126.268 21.9343 126.245 18.9508C126.233 17.3975 126.089 16.2812 125.811 15.602C123.915 10.9807 117.432 12.769 117.445 17.8589C117.453 21.2637 117.499 24.6669 117.582 28.0688C117.585 28.2092 117.518 28.2794 117.38 28.2794L114.492 28.2837C114.311 28.2837 114.221 28.1949 114.221 28.0172V9.96187C114.221 9.78132 114.31 9.69104 114.487 9.69104H116.959C117.14 9.69104 117.23 9.78132 117.23 9.96187V10.74C117.23 10.9406 117.319 10.995 117.496 10.9033Z" fill="white"/>
<path d="M56.6202 13.8646C57.7809 8.76616 65.721 9.96125 69.0655 10.0214C69.2203 10.0243 69.2976 10.1031 69.2976 10.2579V12.9963C69.2976 13.0613 69.2718 13.1236 69.2259 13.1695C69.1799 13.2155 69.1176 13.2413 69.0526 13.2413C65.1377 13.2327 62.643 13.2356 61.5682 13.2499C59.8272 13.28 59.1523 15.4724 60.7042 16.0614C63.0299 16.9426 68.253 18.6708 69.5814 20.7601C70.7765 22.643 70.5013 25.4115 68.6227 26.8559C66.0993 28.7947 60.1152 28.3605 56.8953 28.2487C56.7091 28.2401 56.6159 28.1427 56.6159 27.9564V25.2954C56.6159 25.2666 56.6216 25.2381 56.6326 25.2115C56.6436 25.1849 56.6598 25.1607 56.6801 25.1404C56.7005 25.12 56.7247 25.1039 56.7513 25.0928C56.7779 25.0818 56.8064 25.0761 56.8352 25.0761C59.3142 25.0446 61.7832 25.0418 64.2421 25.0676C67.419 25.1019 67.6512 22.3507 64.8655 21.3189C61.6155 20.1152 55.5541 18.5418 56.6202 13.8646Z" fill="white"/>
<path d="M33.2653 37.3318C33.2391 37.6726 33.4193 37.9645 33.6679 37.9836C33.9164 38.0027 34.1392 37.7419 34.1654 37.401C34.1916 37.0602 34.0114 36.7683 33.7628 36.7492C33.5143 36.7301 33.2915 36.9909 33.2653 37.3318Z" fill="white"/>
<path d="M95.7794 36.9675C95.7937 36.7669 95.9557 36.7067 96.2652 36.787C96.3261 36.8046 96.3796 36.841 96.4176 36.8907C96.4556 36.9403 96.476 37.0005 96.4758 37.0621C96.4787 39.1571 96.5117 41.2736 96.5747 43.4115C96.589 43.9417 96.8541 44.1223 97.37 43.9532C97.435 43.9322 97.5046 43.9297 97.571 43.9459C97.6374 43.962 97.698 43.9963 97.7461 44.0449C97.7942 44.0934 97.8279 44.1543 97.8435 44.2209C97.859 44.2874 97.8559 44.3569 97.8343 44.4218C97.6107 45.0666 96.162 44.9334 95.8568 44.4132C95.2206 43.3342 95.6848 38.3775 95.7794 36.9675Z" fill="white"/>
<path d="M99.4157 36.9629C99.4171 36.9298 99.4276 36.898 99.4459 36.8713C99.4642 36.8446 99.4895 36.8242 99.5189 36.8124C99.9115 36.6577 100.118 36.7981 100.138 37.2337C100.227 39.2342 100.26 41.236 100.237 43.2393C100.231 43.9013 100.622 44.1707 101.41 44.0475C101.447 44.0412 101.484 44.0443 101.52 44.0565C101.555 44.0687 101.586 44.0896 101.611 44.1173C101.637 44.145 101.654 44.1787 101.664 44.2153C101.673 44.2519 101.673 44.2902 101.664 44.3269C101.432 45.2082 99.6006 45.1265 99.5146 43.7294C99.377 41.4825 99.3441 39.227 99.4157 36.9629Z" fill="white"/>
<path d="M1.3754 41.3953V43.7081C1.3754 43.8857 1.46568 43.9746 1.64624 43.9746H5.46365C5.61841 43.9746 5.72015 44.0491 5.76887 44.1981C6.0655 45.0751 1.3797 44.7269 0.799353 44.7054C0.610202 44.6997 0.515625 44.6022 0.515625 44.4131V37.2554C0.515625 37.0777 0.605904 36.9889 0.786457 36.9889H5.40777C5.58545 36.9889 5.6743 37.0792 5.6743 37.2597V37.4876C5.6743 37.6567 5.58975 37.7412 5.42066 37.7412C4.14532 37.7412 2.86855 37.7412 1.59035 37.7412C1.44705 37.7412 1.3754 37.8128 1.3754 37.9561V40.1873C1.3754 40.3191 1.44132 40.3879 1.57315 40.3936C2.09761 40.4194 5.22721 40.1959 5.18852 40.8235C5.18197 40.9204 5.13878 41.0113 5.06773 41.0775C4.99668 41.1438 4.90308 41.1805 4.80592 41.1803H1.59035C1.44705 41.1803 1.3754 41.252 1.3754 41.3953Z" fill="white"/>
<path d="M69.2285 41.421L69.3188 43.721C69.3274 43.89 69.4148 43.9746 69.581 43.9746H73.4328C73.6134 43.9746 73.7036 44.0634 73.7036 44.2411V44.469C73.7036 44.5351 73.6774 44.5985 73.6306 44.6453C73.5838 44.692 73.5204 44.7183 73.4543 44.7183L68.7083 44.7312C68.5278 44.7312 68.4375 44.6409 68.4375 44.4604V37.2554C68.4375 37.0777 68.5278 36.9889 68.7083 36.9889L73.3038 36.9932C73.4214 36.9932 73.4987 37.0462 73.536 37.1523C73.8842 38.1152 70.1356 37.7412 69.5122 37.7455C69.3689 37.7455 69.2973 37.8186 69.2973 37.9647V40.1916C69.2973 40.3291 69.3661 40.4008 69.5036 40.4065C70.084 40.4323 73.1362 40.1916 73.1491 40.8149C73.1502 40.8619 73.1421 40.9087 73.1251 40.9525C73.1081 40.9962 73.0826 41.0361 73.0502 41.0698C73.0177 41.1034 72.979 41.1302 72.9361 41.1484C72.8933 41.1667 72.8473 41.176 72.8009 41.176L69.4606 41.1803C69.4294 41.1803 69.3985 41.1866 69.3698 41.1988C69.341 41.211 69.315 41.2288 69.2934 41.2513C69.2717 41.2738 69.2548 41.3004 69.2436 41.3296C69.2325 41.3587 69.2273 41.3898 69.2285 41.421Z" fill="white"/>
<path d="M14.8218 44.1803L14.7832 46.837C14.7803 47.0061 14.6943 47.0906 14.5252 47.0906H14.3275C14.1469 47.0906 14.0566 47.0003 14.0566 46.8198V39.387C14.0571 39.33 14.0716 39.274 14.0988 39.224C14.1259 39.174 14.1649 39.1315 14.2122 39.1004C14.2595 39.0692 14.3137 39.0505 14.3698 39.0457C14.426 39.041 14.4823 39.0504 14.5338 39.0732C14.7602 39.1678 14.8519 39.3326 14.8089 39.5676C14.8025 39.5989 14.8075 39.6299 14.8233 39.6562C14.8391 39.6824 14.8649 39.7027 14.8971 39.714C14.9293 39.7254 14.9663 39.7273 15.0029 39.7196C15.0395 39.7118 15.0739 39.6947 15.1013 39.6707C16.262 38.6218 17.3969 38.5774 18.506 39.5375C21.1326 41.8159 18.4372 46.837 15.0325 44.0814C14.8949 43.9696 14.8247 44.0026 14.8218 44.1803ZM16.98 44.0531C17.4883 43.9925 17.9486 43.7064 18.2597 43.2577C18.5707 42.809 18.707 42.2344 18.6386 41.6604C18.5701 41.0864 18.3026 40.5601 17.8947 40.197C17.4869 39.834 16.9722 39.6642 16.4639 39.7248C15.9556 39.7854 15.4953 40.0715 15.1842 40.5202C14.8732 40.969 14.7369 41.5435 14.8053 42.1175C14.8738 42.6915 15.1414 43.2179 15.5492 43.5809C15.957 43.9439 16.4717 44.1138 16.98 44.0531Z" fill="white"/>
<path d="M22.104 42.5167C22.5124 44.692 24.5285 44.4169 25.8784 43.2476C25.9034 43.2252 25.9331 43.2086 25.9653 43.199C25.9975 43.1894 26.0316 43.187 26.0651 43.1919C26.0986 43.1968 26.1307 43.2089 26.1594 43.2274C26.188 43.2459 26.2124 43.2704 26.2309 43.2991C27.2283 44.8467 20.638 46.274 21.1582 41.4979C21.5408 37.9814 26.6264 38.0416 26.8671 41.9923C26.8695 42.0259 26.8648 42.0596 26.8533 42.0913C26.8419 42.123 26.8239 42.1521 26.8005 42.1767C26.7771 42.2013 26.7488 42.2209 26.7174 42.2343C26.6859 42.2477 26.6521 42.2546 26.6178 42.2545H22.3232C22.2907 42.2546 22.2585 42.2619 22.2291 42.2757C22.1996 42.2896 22.1735 42.3097 22.1526 42.3347C22.1318 42.3596 22.1166 42.3889 22.1082 42.4203C22.0998 42.4518 22.0983 42.4847 22.104 42.5167ZM22.1813 41.4979L25.8526 41.5065C25.8735 41.5065 25.8937 41.4985 25.9089 41.4841C25.9241 41.4697 25.9332 41.45 25.9343 41.4291V41.3732C25.9365 40.9241 25.7452 40.4924 25.4026 40.1731C25.06 39.8539 24.594 39.6732 24.1073 39.6709H23.9439C23.7028 39.6697 23.4639 39.7124 23.2407 39.7964C23.0175 39.8805 22.8145 40.0043 22.6433 40.1608C22.472 40.3173 22.3359 40.5034 22.2426 40.7085C22.1493 40.9135 22.1008 41.1336 22.0997 41.356V41.4119C22.0991 41.423 22.1008 41.4341 22.1046 41.4445C22.1085 41.4549 22.1144 41.4644 22.122 41.4725C22.1297 41.4805 22.1389 41.4869 22.1491 41.4913C22.1593 41.4957 22.1703 41.4979 22.1813 41.4979Z" fill="white"/>
<path d="M37.0392 42.5298C37.3545 43.7507 38.1741 44.301 39.4982 44.1806C39.6107 44.1693 39.719 44.1278 39.812 44.0602L40.9684 43.209C41.0248 43.165 41.0955 43.1432 41.1669 43.1478C41.2384 43.1524 41.3056 43.183 41.356 43.2339C41.4063 43.2848 41.4363 43.3524 41.4401 43.4239C41.4439 43.4953 41.4214 43.5657 41.3768 43.6217C37.9635 48.1227 33.4109 40.2858 38.1698 39.052C40.1559 38.5404 41.7035 39.886 41.7981 41.9022C41.7998 41.9479 41.7924 41.9934 41.7764 42.0361C41.7603 42.0789 41.7359 42.1178 41.7045 42.1508C41.6732 42.1837 41.6357 42.2098 41.5941 42.2277C41.5526 42.2456 41.5079 42.2547 41.4628 42.2547H37.2541C37.065 42.2547 36.9933 42.3464 37.0392 42.5298ZM37.0779 41.5153L40.8265 41.4981C40.8493 41.4981 40.8712 41.489 40.8873 41.4729C40.9034 41.4568 40.9125 41.4349 40.9125 41.4121V41.382C40.9114 41.1466 40.8607 40.9137 40.7634 40.6966C40.666 40.4795 40.5238 40.2825 40.345 40.1168C40.1661 39.9512 39.9541 39.8201 39.721 39.731C39.488 39.642 39.2384 39.5968 38.9866 39.598H38.9006C38.3922 39.6003 37.9054 39.7914 37.5475 40.1292C37.1896 40.467 36.9897 40.9238 36.9919 41.3992V41.4293C36.9919 41.4521 37.001 41.474 37.0171 41.4901C37.0332 41.5062 37.0551 41.5153 37.0779 41.5153Z" fill="white"/>
<path d="M44.7137 39.7185C49.1244 37.0274 48.7461 41.8637 48.4667 44.572C48.4581 44.6752 48.4008 44.7267 48.2947 44.7267H48.0153C47.8118 44.7267 47.7086 44.625 47.7058 44.4215C47.6886 43.119 47.9938 40.9781 47.2028 39.8905C47.1617 39.8334 47.1072 39.7868 47.0436 39.7547C46.9801 39.7225 46.9094 39.7057 46.8374 39.7056C43.97 39.7271 44.473 42.487 44.473 44.3484C44.473 44.5405 44.377 44.6551 44.185 44.6924L44.0173 44.7267C43.8196 44.7669 43.7207 44.6852 43.7207 44.4817V39.2628C43.7207 39.226 43.7289 39.1895 43.7447 39.1561C43.7604 39.1227 43.7835 39.093 43.8121 39.0693C43.8408 39.0456 43.8744 39.0283 43.9105 39.0186C43.9467 39.009 43.9846 39.0073 44.0216 39.0135C44.314 39.0651 44.4644 39.2557 44.473 39.5853C44.4759 39.7687 44.5561 39.8131 44.7137 39.7185Z" fill="white"/>
<path d="M50.7782 43.3809C49.1318 40.419 52.6826 37.3668 55.4683 39.8773C55.603 39.9977 55.6202 40.1338 55.5199 40.2857L55.2878 40.621C55.176 40.7844 55.0571 40.7887 54.931 40.6339C54.4581 40.045 53.9121 39.5764 53.1039 39.714C49.2392 40.3545 52.4591 46.446 54.8622 43.2907C54.9187 43.2137 55.0009 43.1595 55.0939 43.1379C55.1869 43.1163 55.2846 43.1287 55.3693 43.1728C55.4539 43.217 55.52 43.29 55.5555 43.3786C55.591 43.4672 55.5936 43.5657 55.5629 43.6561C54.9052 45.7066 51.6036 44.864 50.7782 43.3809Z" fill="white"/>
<path d="M58.1077 42.5254C58.4487 43.7893 59.2856 44.3238 60.6182 44.1289C60.773 44.1089 60.9063 44.0444 61.018 43.9355C61.2788 43.6804 61.5998 43.454 61.981 43.2562C62.0807 43.2063 62.1886 43.2004 62.2818 43.24C62.375 43.2795 62.4464 43.3613 62.4809 43.4682C62.5154 43.5751 62.5104 43.6988 62.4669 43.8132C62.4233 43.9276 62.3447 44.0238 62.2475 44.0816C60.0723 45.3455 57.3038 44.9543 57.149 42.1686C56.9212 38.132 62.8064 37.7064 62.858 42.0225C62.8585 42.0527 62.853 42.0828 62.8415 42.1109C62.8301 42.1391 62.8131 42.1647 62.7915 42.1863C62.7699 42.2079 62.7441 42.2251 62.7157 42.2368C62.6872 42.2485 62.6567 42.2546 62.6258 42.2546H58.314C58.2811 42.2548 58.2487 42.2625 58.2193 42.2772C58.1899 42.2919 58.1642 42.3131 58.1443 42.3393C58.1243 42.3654 58.1107 42.3958 58.1043 42.4281C58.098 42.4604 58.0991 42.4937 58.1077 42.5254ZM58.2109 41.4851L61.8477 41.5109C61.8694 41.5109 61.8902 41.5023 61.9055 41.487C61.9208 41.4716 61.9294 41.4509 61.9294 41.4292V41.3733C61.931 41.1518 61.885 40.9321 61.7942 40.7268C61.7034 40.5215 61.5696 40.3346 61.4003 40.1769C61.231 40.0192 61.0296 39.8937 60.8076 39.8076C60.5856 39.7215 60.3474 39.6766 60.1067 39.6753H59.9691C59.484 39.6726 59.0178 39.8472 58.6728 40.1608C58.3278 40.4743 58.1323 40.9011 58.1292 41.3475V41.4034C58.1292 41.4251 58.1378 41.4459 58.1531 41.4612C58.1684 41.4765 58.1892 41.4851 58.2109 41.4851Z" fill="white"/>
<path d="M81.5145 40.9738C82.8902 36.9973 87.4642 39.9335 86.1487 40.6084C86.0169 40.6743 85.9023 40.6514 85.8048 40.5396C84.6312 39.1769 82.8386 39.5079 82.327 41.1758C81.665 43.3425 84.1326 45.2168 85.8177 43.3167C85.8725 43.2545 85.9479 43.2141 86.03 43.2031C86.1122 43.192 86.1955 43.211 86.2648 43.2565L86.454 43.3812C86.5973 43.4786 86.6116 43.5918 86.497 43.7208C84.2228 46.2872 80.4527 44.0346 81.5145 40.9738Z" fill="white"/>
<path d="M89.0085 42.4779C89.5244 44.6445 91.4073 44.4812 92.8045 43.2689C92.8573 43.2247 92.9235 43.1995 92.9923 43.1971C93.0612 43.1948 93.1289 43.2155 93.1846 43.256C93.2404 43.2964 93.2811 43.3543 93.3002 43.4205C93.3193 43.4867 93.3158 43.5574 93.2902 43.6214C93.0753 44.1315 92.6282 44.4697 91.949 44.6359C89.8769 45.1489 88.6044 44.4195 88.1316 42.4478C87.1858 38.5057 93.9652 37.3278 93.7502 42.0867C93.7445 42.1985 93.6857 42.2543 93.574 42.2543H89.1848C89.0329 42.2543 88.9742 42.3289 89.0085 42.4779ZM89.0773 41.5235L92.8346 41.5149C92.8517 41.5149 92.8681 41.5081 92.8802 41.496C92.8923 41.484 92.899 41.4676 92.899 41.4505V41.4075C92.8979 40.9259 92.6941 40.4644 92.3322 40.1243C91.9704 39.7842 91.48 39.5932 90.9688 39.5933H90.943C90.6892 39.5934 90.4379 39.6406 90.2034 39.7323C89.969 39.8239 89.756 39.9583 89.5767 40.1276C89.3974 40.2969 89.2553 40.4978 89.1586 40.7189C89.0618 40.94 89.0123 41.1769 89.0128 41.4161V41.459C89.0128 41.4761 89.0196 41.4926 89.0317 41.5046C89.0438 41.5167 89.0602 41.5235 89.0773 41.5235Z" fill="white"/>
<path d="M107.903 44.0513C101.502 47.6537 101.497 37.6115 106.394 39.0559C107.681 39.4371 108.378 40.3642 108.487 41.8373C108.491 41.8906 108.485 41.9442 108.467 41.9946C108.449 42.0451 108.422 42.0914 108.385 42.1306C108.349 42.1697 108.305 42.201 108.256 42.2223C108.207 42.2436 108.154 42.2545 108.1 42.2543H103.999C103.707 42.2543 103.615 42.389 103.724 42.6584C104.191 43.822 104.985 44.3149 106.106 44.1372C106.755 44.0341 107.017 43.5354 107.524 43.3075C107.623 43.2574 107.737 43.2484 107.843 43.2827C107.948 43.317 108.035 43.3916 108.085 43.4903C108.136 43.5889 108.144 43.7034 108.11 43.8086C108.076 43.9138 108.001 44.0011 107.903 44.0513ZM103.793 41.502H107.559C107.572 41.502 107.586 41.4966 107.595 41.4869C107.605 41.4772 107.61 41.4641 107.61 41.4504V41.4074C107.61 40.9309 107.407 40.4738 107.046 40.1368C106.685 39.7998 106.195 39.6105 105.684 39.6105H105.667C105.156 39.6105 104.667 39.7998 104.305 40.1368C103.944 40.4738 103.741 40.9309 103.741 41.4074V41.4504C103.741 41.4641 103.747 41.4772 103.756 41.4869C103.766 41.4966 103.779 41.502 103.793 41.502Z" fill="white"/>
<path d="M111.491 39.7661C112.093 39.1613 112.758 38.8733 113.486 38.902C115.751 38.9922 115.236 42.9515 115.158 44.512C115.15 44.6553 115.074 44.727 114.93 44.727H114.599C114.419 44.727 114.329 44.6381 114.329 44.4604L114.324 40.7075C114.324 40.4591 114.23 40.2198 114.062 40.0368C113.893 39.8537 113.661 39.7403 113.413 39.7188C110.64 39.4866 111.229 42.8398 111.208 44.4217C111.206 44.4836 111.186 44.5438 111.149 44.5944C111.112 44.6451 111.061 44.6838 111.001 44.7055C110.524 44.8731 110.343 44.6066 110.348 44.1681C110.365 42.5259 110.381 40.8852 110.395 39.2459C110.395 39.008 110.505 38.9349 110.726 39.0266C110.981 39.1355 111.114 39.3333 111.126 39.6199C111.137 39.9523 111.259 40.0011 111.491 39.7661Z" fill="white"/>
<path d="M120.688 44.7699C114.833 45.5781 116.974 36.2366 121.832 39.6327C122.055 39.7903 122.174 40.0053 122.188 40.2776C122.191 40.3482 122.173 40.4183 122.135 40.4782C122.097 40.5381 122.042 40.5849 121.977 40.6122C121.912 40.6395 121.84 40.646 121.772 40.6307C121.704 40.6154 121.642 40.5792 121.595 40.5269C118.474 37.1351 115.916 44.3615 120.473 44.0778C120.591 44.0692 120.691 44.0219 120.774 43.9359C121.129 43.5691 121.548 43.3183 122.029 43.1836C122.067 43.1725 122.108 43.1722 122.146 43.1826C122.184 43.1931 122.219 43.214 122.246 43.2429C122.273 43.2718 122.292 43.3077 122.3 43.3466C122.308 43.3854 122.305 43.4257 122.292 43.463C122.028 44.2225 121.493 44.6581 120.688 44.7699Z" fill="white"/>
<path d="M124.754 42.5123C125.064 43.7188 125.865 44.2791 127.157 44.1931C127.267 44.1847 127.372 44.1476 127.462 44.0857L128.623 43.2603C128.689 43.2114 128.771 43.1893 128.852 43.1985C128.933 43.2077 129.008 43.2476 129.061 43.3099C129.114 43.3723 129.141 43.4525 129.138 43.5343C129.134 43.6161 129.099 43.6933 129.04 43.7503C127.351 45.4871 124.298 45.1217 123.856 42.5252C123.142 38.338 129.401 37.4611 129.5 41.9018C129.501 41.9477 129.493 41.9934 129.477 42.0361C129.46 42.0788 129.435 42.1178 129.404 42.1506C129.372 42.1835 129.334 42.2096 129.292 42.2274C129.251 42.2452 129.206 42.2544 129.16 42.2543H124.952C124.92 42.2546 124.89 42.2621 124.862 42.2761C124.834 42.2901 124.809 42.3103 124.79 42.3351C124.771 42.36 124.758 42.3888 124.752 42.4195C124.745 42.4502 124.746 42.4819 124.754 42.5123ZM124.866 41.5106L128.52 41.502C128.544 41.502 128.567 41.4925 128.584 41.4756C128.601 41.4586 128.61 41.4357 128.61 41.4117V41.3859C128.609 40.9112 128.414 40.4563 128.067 40.1211C127.721 39.7858 127.251 39.5976 126.762 39.5976H126.624C126.381 39.5976 126.14 39.6442 125.916 39.7345C125.691 39.8249 125.487 39.9573 125.315 40.1242C125.144 40.2912 125.008 40.4893 124.915 40.7073C124.822 40.9252 124.775 41.1588 124.775 41.3945V41.4203C124.775 41.4322 124.778 41.4439 124.782 41.4549C124.787 41.4658 124.794 41.4758 124.802 41.4842C124.81 41.4926 124.82 41.4992 124.831 41.5037C124.842 41.5083 124.854 41.5106 124.866 41.5106Z" fill="white"/>
<path d="M9.46631 41.0422C9.49066 41.0822 9.52472 41.1155 9.56529 41.1389C9.60586 41.1623 9.65157 41.175 9.69808 41.1759C9.7446 41.1768 9.79038 41.1657 9.83107 41.1438C9.87176 41.1219 9.90601 41.0899 9.93058 41.0508C10.3476 40.393 11.1816 38.94 12.08 39.0475C12.1101 39.0511 12.1387 39.0626 12.163 39.0809C12.1872 39.0991 12.2061 39.1234 12.2179 39.1514C12.2297 39.1793 12.2339 39.2098 12.23 39.2399C12.2262 39.27 12.2145 39.2985 12.1961 39.3226L10.3261 41.7214C10.2833 41.7755 10.2596 41.8422 10.2588 41.9107C10.2581 41.9792 10.2802 42.0458 10.3218 42.0997L12.0757 44.3566C12.1018 44.391 12.1182 44.4319 12.1231 44.4748C12.1281 44.5177 12.1213 44.561 12.1035 44.6C12.0858 44.639 12.0578 44.6722 12.0226 44.696C11.9874 44.7198 11.9463 44.7332 11.9038 44.7349C11.1644 44.765 10.4508 43.4538 9.83171 42.723C9.73141 42.6055 9.63539 42.6084 9.54368 42.7316C9.13099 43.2819 8.16373 44.8768 7.38993 44.7177C7.19792 44.6776 7.16209 44.5801 7.28246 44.4254L9.09659 42.0825C9.17111 41.985 9.17255 41.8876 9.1009 41.7902L7.27817 39.3527C7.16927 39.2065 7.19936 39.1019 7.36844 39.0389C8.04767 38.7809 9.17398 40.5478 9.46631 41.0422Z" fill="white"/>
<path d="M29.921 39.6706C30.2764 39.3009 30.712 39.0917 31.2279 39.043C31.321 39.0393 31.4122 39.0701 31.4839 39.1295C31.5557 39.1888 31.6031 39.2726 31.6169 39.3648C31.6308 39.4569 31.6101 39.5509 31.559 39.6287C31.5078 39.7066 31.4297 39.7628 31.3397 39.7867C28.9194 40.2897 29.4997 42.6626 29.5427 44.4768C29.5442 44.5463 29.5225 44.6143 29.4812 44.6697C29.4399 44.725 29.3813 44.7646 29.3149 44.782C28.2616 45.0571 28.6743 39.9629 28.6915 39.2665C28.6973 39.1175 28.7732 39.0372 28.9194 39.0258C29.3206 38.9943 29.5327 39.1648 29.5556 39.5373C29.5575 39.5789 29.5716 39.619 29.5962 39.6525C29.6208 39.6861 29.6548 39.7116 29.6939 39.7258C29.733 39.7401 29.7754 39.7425 29.8158 39.7326C29.8562 39.7228 29.8928 39.7012 29.921 39.6706Z" fill="white"/>
<path d="M33.758 39.031L33.6721 39.0312C33.4584 39.0316 33.2855 39.2051 33.2858 39.4188L33.2944 44.3453C33.2948 44.559 33.4683 44.7319 33.682 44.7315L33.768 44.7314C33.9817 44.731 34.1546 44.5575 34.1542 44.3438L34.1456 39.4173C34.1452 39.2036 33.9717 39.0307 33.758 39.031Z" fill="white"/>
<path d="M77.8703 41.0204C78.3431 40.4486 79.1642 38.8452 80.0326 39.0558C80.0638 39.0635 80.0925 39.0788 80.1163 39.1004C80.1401 39.1219 80.1581 39.1491 80.1688 39.1794C80.1794 39.2097 80.1824 39.2421 80.1774 39.2738C80.1724 39.3055 80.1596 39.3355 80.1401 39.361L78.4119 41.6265C78.3492 41.7094 78.3152 41.8106 78.3152 41.9146C78.3152 42.0186 78.3492 42.1197 78.4119 42.2026L80.0799 44.3993C80.1945 44.5484 80.163 44.6515 79.9853 44.7088C79.2545 44.9453 78.485 43.5954 77.9089 42.77C77.8058 42.621 77.6926 42.6124 77.5693 42.7443C77.1394 43.2042 76.1464 44.9238 75.3726 44.7045C75.1835 44.6501 75.1491 44.5455 75.2694 44.3907L77.0492 42.1338C77.1409 42.0192 77.1423 41.9017 77.0535 41.7813L75.2393 39.3137C75.2174 39.2851 75.2045 39.2507 75.2022 39.2147C75.2 39.1787 75.2086 39.1428 75.2268 39.1113C75.2451 39.0798 75.2723 39.0541 75.305 39.0374C75.3378 39.0207 75.3747 39.0136 75.4113 39.0171C76.3184 39.1203 76.9116 40.4271 77.5221 41.0376C77.6424 41.1608 77.7585 41.1551 77.8703 41.0204Z" fill="white"/>
</svg>
