<svg width="190" height="44" viewBox="0 0 190 44" fill="none" xmlns="http://www.w3.org/2000/svg">
<mask id="mask0_425_1240" style="mask-type:alpha" maskUnits="userSpaceOnUse" x="8" y="0" width="32" height="44">
<path fill-rule="evenodd" clip-rule="evenodd" d="M25.8769 21.8205C29.9563 21.7991 34.136 21.8088 38.2357 21.8088C38.4249 21.8088 38.5906 21.8177 38.7343 21.7912C39.124 21.7194 39.4163 21.4161 39.437 20.9346C39.4517 20.5929 39.437 20.235 39.437 19.8798C39.437 19.5296 39.437 19.1764 39.437 18.8251C39.4372 18.2953 39.2252 17.9822 38.8306 17.8577C38.6988 17.816 38.5506 17.8168 38.3604 17.8168C33.5743 17.8167 28.7786 17.8138 23.9899 17.8168C23.9665 17.8168 23.9472 17.827 23.9616 17.7994C23.9795 17.7651 24.0217 17.7375 24.0467 17.712C25.207 16.5187 26.2717 15.1936 27.2313 13.8075C27.7346 13.0803 28.2075 12.338 28.6308 11.5404C29.0554 10.7411 29.4424 9.88872 29.7132 8.9529C29.8495 8.48193 29.9778 7.97214 30.0248 7.42032C30.0746 6.83688 30.0613 6.23716 29.9682 5.69541C29.7894 4.65444 29.4061 3.8265 28.8973 3.09624C28.3941 2.37405 27.7534 1.79784 26.9989 1.34216C26.4273 0.997095 25.7832 0.738634 25.0213 0.596332C24.7679 0.549073 24.492 0.523068 24.2109 0.503003C24.0315 0.503003 23.852 0.503003 23.6725 0.503003C22.5379 0.564388 21.6501 0.889119 20.8846 1.34216C20.128 1.79005 19.4873 2.37656 18.9863 3.09044C18.4824 3.80881 18.0856 4.65469 17.9153 5.69541C17.8268 6.23601 17.796 6.83474 17.8529 7.42615C17.9057 7.97593 18.0162 8.4711 18.1589 8.95873C18.4347 9.90165 18.8125 10.7508 19.2413 11.5521C20.2987 13.5285 21.6134 15.2785 23.0605 16.8844C23.3191 17.1717 23.6137 17.4825 23.8878 17.7703C23.9052 17.7887 23.894 17.7603 23.9161 17.7995C23.9344 17.8316 23.8544 17.817 23.8142 17.817C19.0418 17.8168 14.2458 17.8171 9.45515 17.817C9.0725 17.817 8.88019 17.8895 8.69014 18.085C8.60274 18.175 8.53599 18.2755 8.49182 18.4056C8.44661 18.5384 8.44639 18.6886 8.44639 18.8834C8.44639 19.2491 8.44639 19.5861 8.44639 19.9383C8.44639 20.2911 8.42584 20.6456 8.44639 20.993C8.4655 21.3173 8.63815 21.5262 8.82606 21.6573C8.92656 21.7274 9.06006 21.7898 9.20011 21.8031C9.35222 21.8173 9.51727 21.8089 9.70452 21.8089C13.7916 21.8089 17.9021 21.8089 22.0008 21.8089C22.001 26.6984 22.0006 31.5868 22.0008 36.4946C22.0008 38.4746 22.0008 40.4076 22.0008 42.3574C22.0008 42.8477 22.2105 43.1274 22.5449 43.2606C22.7181 43.3293 22.9524 43.3188 23.2021 43.3188C23.6865 43.3188 24.1451 43.3188 24.6244 43.3188C24.8659 43.3188 25.1186 43.3409 25.2988 43.2779C25.6254 43.1638 25.8767 42.8711 25.8767 42.4097C25.8773 35.5891 25.8765 28.6514 25.8769 21.8205ZM22.5053 10.4914C22.0646 10.3016 21.7038 10.0459 21.3946 9.73978C20.7856 9.13616 20.301 8.30412 20.2614 7.12305C20.2412 6.52404 20.3671 5.97174 20.5446 5.53212C20.7273 5.07976 20.9738 4.72268 21.2756 4.39003C21.5619 4.07414 21.9266 3.79258 22.3409 3.59154C22.756 3.39022 23.2496 3.25294 23.8313 3.22442C24.403 3.19643 24.9675 3.33728 25.3839 3.52169C25.8189 3.71417 26.1883 3.96999 26.4888 4.27927C27.0978 4.90537 27.5712 5.7035 27.622 6.89579C27.6487 7.5158 27.5107 8.04738 27.3274 8.48683C26.9593 9.36969 26.3486 10.0141 25.5255 10.4215C25.1086 10.6278 24.6168 10.7671 24.052 10.7944C23.4627 10.8232 22.9315 10.6751 22.5053 10.4914Z" fill="#BDBDBD"/>
</mask>
<g mask="url(#mask0_425_1240)">
<path d="M23.953 0.503003C20.5691 0.503003 17.8264 3.30654 17.8264 6.76407C17.8264 11.7177 23.953 17.7459 23.953 17.7459C23.953 17.7459 30.0795 11.6321 30.0795 6.76407C30.0795 3.30654 27.3367 0.503003 23.953 0.503003ZM27.645 6.97895C27.645 9.06268 25.9925 10.7522 23.953 10.7522C21.9135 10.7522 20.2608 9.06268 20.2608 6.97895C20.2608 4.89467 21.9135 3.20521 23.953 3.20521C25.9925 3.20521 27.645 4.89467 27.645 6.97895Z" fill="white"/>
<path d="M25.8929 30.1229V18.2373L22.0127 21.6762V33.5618L25.8929 30.1229Z" fill="white"/>
<path d="M26.0142 43.1791L25.8826 29.0146L22.0127 33.5899V46.0602L26.0142 43.1791Z" fill="white"/>
<path d="M17.1492 21.7106H5.51904L8.88403 17.7458H20.5142L17.1492 21.7106Z" fill="white"/>
<path d="M28.7489 21.7106H17.1187L20.4836 17.7458H32.1138L28.7489 21.7106Z" fill="white"/>
<path d="M40.3192 21.7106H28.6892L32.054 17.7458H43.6843L40.3192 21.7106Z" fill="white"/>
</g>
<path fill-rule="evenodd" clip-rule="evenodd" d="M18.3965 25.6669C18.3965 25.3671 18.3923 25.1269 18.2945 24.9384C18.206 24.7678 18.0603 24.622 17.8695 24.5421C17.6705 24.459 17.4093 24.4781 17.1215 24.4781C13.3426 24.4785 9.54719 24.4779 5.77131 24.4781C5.49858 24.4781 5.21812 24.5033 4.96667 24.4723C4.53525 24.419 4.22426 24.0751 4.22426 23.5689C4.22426 17.7565 4.22426 11.9105 4.22426 6.06859C4.22426 5.7618 4.20152 5.56407 4.08254 5.38098C3.97472 5.2148 3.81812 5.08714 3.6179 5.02549C3.41688 4.96345 3.10576 4.99052 2.84159 4.99052C2.31982 4.99052 1.73965 4.99052 1.22109 4.99052C0.727297 4.99052 0.420525 5.3233 0.348389 5.76549C0.348389 18.0222 0.348389 30.2867 0.348389 42.5439C0.393699 42.7979 0.48265 42.9659 0.626151 43.0974C0.769785 43.2293 0.960777 43.3188 1.22109 43.3188C1.74004 43.3188 2.31353 43.3188 2.84159 43.3188C3.12025 43.3188 3.40727 43.3492 3.6179 43.2837C3.81621 43.2225 3.97293 43.0972 4.08254 42.9283C4.20025 42.7471 4.22426 42.5315 4.22426 42.2409C4.22426 38.0802 4.22426 33.9095 4.22426 29.7404C4.22426 29.4443 4.21103 29.1773 4.29793 28.9829C4.41884 28.7122 4.65809 28.4869 5.01749 28.47C5.39562 28.4523 5.8477 28.47 6.23023 28.47C8.66284 28.4698 11.0844 28.47 13.5287 28.47C13.8198 28.47 14.0045 28.5082 14.1747 28.6389C14.3283 28.7574 14.4421 28.9214 14.492 29.146C14.5414 29.3674 14.5147 29.673 14.5147 29.9561C14.5147 33.8153 14.5147 37.7385 14.5147 41.623C14.5147 41.9 14.5059 42.1942 14.5147 42.4563C14.5237 42.7231 14.6242 42.9103 14.7527 43.0448C14.883 43.1815 15.0529 43.3006 15.2966 43.3188C15.5479 43.3375 15.8019 43.3188 16.107 43.3188C16.3829 43.3188 16.653 43.3188 16.9173 43.3188C17.1926 43.3188 17.477 43.3492 17.7107 43.3013C18.1392 43.2132 18.3963 42.87 18.3963 42.3398C18.3967 36.8066 18.3963 31.1881 18.3965 25.6669Z" fill="white"/>
<path fill-rule="evenodd" clip-rule="evenodd" d="M29.2755 25.6669C29.2755 25.3671 29.2796 25.1269 29.3775 24.9384C29.4659 24.7678 29.6116 24.622 29.8024 24.5421C30.0014 24.459 30.2626 24.4781 30.5504 24.4781C34.3293 24.4785 38.1247 24.4779 41.9006 24.4781C42.1733 24.4781 42.4538 24.5033 42.7053 24.4723C43.1366 24.419 43.4476 24.0751 43.4476 23.5689C43.4476 17.7565 43.4476 11.9105 43.4476 6.06859C43.4476 5.7618 43.4704 5.56407 43.5894 5.38098C43.6972 5.2148 43.8538 5.08714 44.054 5.02549C44.2551 4.96345 44.5662 4.99052 44.8303 4.99052C45.3521 4.99052 45.9323 4.99052 46.4508 4.99052C46.9446 4.99052 47.2514 5.3233 47.3235 5.76549C47.3235 18.0222 47.3235 30.2867 47.3235 42.5439C47.2782 42.7979 47.1893 42.9659 47.0457 43.0974C46.9021 43.2293 46.7111 43.3188 46.4508 43.3188C45.9319 43.3188 45.3584 43.3188 44.8303 43.3188C44.5517 43.3188 44.2646 43.3492 44.054 43.2837C43.8557 43.2225 43.699 43.0972 43.5894 42.9283C43.4717 42.7471 43.4476 42.5315 43.4476 42.2409C43.4476 38.0802 43.4476 33.9095 43.4476 29.7404C43.4476 29.4443 43.4609 29.1773 43.374 28.9829C43.2531 28.7122 43.0138 28.4869 42.6544 28.47C42.2763 28.4523 41.8242 28.47 41.4417 28.47C39.0091 28.4698 36.5875 28.47 34.1432 28.47C33.8521 28.47 33.6674 28.5082 33.4972 28.6389C33.3437 28.7574 33.2298 28.9214 33.1799 29.146C33.1305 29.3674 33.1572 29.673 33.1572 29.9561C33.1572 33.8153 33.1572 37.7385 33.1572 41.623C33.1572 41.9 33.1661 42.1942 33.1572 42.4563C33.1482 42.7231 33.0477 42.9103 32.9192 43.0448C32.7889 43.1815 32.619 43.3006 32.3753 43.3188C32.124 43.3375 31.87 43.3188 31.5649 43.3188C31.289 43.3188 31.0189 43.3188 30.7546 43.3188C30.4793 43.3188 30.1949 43.3492 29.9612 43.3013C29.5328 43.2132 29.2756 42.87 29.2756 42.3398C29.2752 36.8066 29.2756 31.1881 29.2755 25.6669Z" fill="white"/>
<path d="M56.2564 35.2252H65.0603V33.1743L56.2564 33.2458V35.2252ZM65.0603 26.497V34.8437V43.1904H67.0038V34.8437V26.497H65.0603ZM54.313 26.497V43.1904H56.2564V26.497H54.313Z" fill="white"/>
<path d="M79.371 26.497L75.2323 34.2236L71.1162 26.497H68.9441L74.2718 36.0122V43.1904H76.2153V35.9884L81.543 26.497H79.371Z" fill="white"/>
<path d="M85.4201 34.2236L87.5921 34.3667C88.5526 34.3667 89.3836 34.2236 90.0847 33.9375C90.8012 33.6513 91.3574 33.23 91.754 32.6735C92.1505 32.1171 92.3487 31.4493 92.3487 30.6703C92.3487 29.7164 92.1505 28.9374 91.754 28.3332C91.3574 27.7132 90.8012 27.2521 90.0847 26.9501C89.3836 26.648 88.5526 26.497 87.5921 26.497H83.4766V43.1904H87.8212C88.8577 43.1904 89.7802 43.0155 90.5881 42.6658C91.4108 42.3001 92.0591 41.7595 92.5316 41.0441C93.0195 40.3127 93.2635 39.3986 93.2635 38.3016C93.2635 37.5385 93.1258 36.8787 92.8515 36.3222C92.5773 35.7658 92.1885 35.3127 91.6857 34.9629C91.1977 34.5973 90.6261 34.327 89.9707 34.1521C89.3148 33.9772 88.5983 34.3639 87.8212 34.3639L85.4201 34.2236V34.9629L87.8212 35.0106C88.3395 35.0106 88.812 35.0821 89.2388 35.2252C89.6656 35.3524 90.0313 35.5512 90.3364 35.8214C90.6564 36.0917 90.9003 36.4256 91.0683 36.823C91.2357 37.2205 91.3194 37.6736 91.3194 38.1824C91.3194 38.866 91.1669 39.4463 90.8623 39.9232C90.5726 40.4002 90.1613 40.7659 89.6276 41.0203C89.1094 41.2746 88.5069 41.4018 87.8212 41.4018H85.4201V34.2236V28.2855H87.5921C88.4006 28.2855 89.0708 28.5081 89.6045 28.9533C90.1381 29.3825 90.4047 29.9946 90.4047 30.7895C90.4047 31.3142 90.283 31.7594 90.039 32.125C89.795 32.4907 89.4596 32.7689 89.0328 32.9597C88.606 33.1505 88.1258 33.2458 87.5921 33.2458L85.4201 33.1743V34.2236Z" fill="white"/>
<path d="M100.02 36.513L104.573 43.1904H106.974L102.221 36.3222L100.02 36.513ZM96.2271 26.497V43.1904H98.1706V34.8437V26.497H96.2271ZM98.1706 28.2855H100.572C101.258 28.2855 101.86 28.4127 102.378 28.6671C102.912 28.9215 103.323 29.2871 103.613 29.7641C103.918 30.241 104.07 30.8213 104.07 31.505C104.07 32.1886 103.918 32.7689 103.613 33.2458C103.323 33.7228 102.912 34.0885 102.378 34.3429C101.86 34.5973 101.258 34.7244 100.572 34.7244H98.1706V36.513H100.572C101.608 36.513 102.531 36.3143 103.339 35.9168C104.162 35.5034 104.81 34.9232 105.282 34.176C105.77 33.4128 106.014 32.5225 106.014 31.505C106.014 30.4716 105.77 29.5813 105.282 28.834C104.81 28.0868 104.162 27.5145 103.339 27.117C102.531 26.7037 101.608 26.497 100.572 26.497H98.1706V28.2855Z" fill="white"/>
<path d="M109.022 26.497V43.1904H110.966V26.497H109.022Z" fill="white"/>
<path d="M114.627 26.497V43.1904H116.571V26.497H114.627ZM119.429 43.1904C120.984 43.1904 122.364 42.8406 123.568 42.1411C124.772 41.4416 125.718 40.4717 126.403 39.2317C127.09 37.9757 127.433 36.513 127.433 34.8437C127.433 33.1743 127.09 31.7196 126.403 30.4795C125.718 29.2235 124.772 28.2458 123.568 27.5463C122.364 26.8467 120.984 26.497 119.429 26.497H116.571V28.524H119.429C120.329 28.524 121.152 28.675 121.899 28.9771C122.646 29.2633 123.286 29.6846 123.819 30.241C124.353 30.7816 124.765 31.4414 125.054 32.2204C125.344 32.9994 125.489 33.8738 125.489 34.8437C125.489 35.8135 125.344 36.6879 125.054 37.4669C124.765 38.246 124.353 38.9137 123.819 39.4701C123.286 40.0107 122.646 40.432 121.899 40.734C121.152 41.0203 120.329 41.1633 119.429 41.1633H116.571V43.1904H119.429Z" fill="white"/>
<path d="M132.113 35.0821H140.917V33.1743H132.113V35.0821ZM140.917 26.497V43.1904H142.86V26.497H140.917ZM130.169 26.497V43.1904H132.113V26.497H130.169Z" fill="white"/>
<path d="M148.459 43.1904H155.662V41.2826H148.459V43.1904ZM148.459 28.4047H155.662V26.497H148.459V28.4047ZM148.459 35.0821H155.204V33.1743H148.459V35.0821ZM146.515 26.497V34.8437V43.1904H148.459V26.497H146.515Z" fill="white"/>
<path d="M162.982 36.513L167.433 43.1904H169.834L165.238 36.281L162.982 36.513ZM159.087 26.497V43.1904H161.031V34.8437V26.497H159.087ZM161.031 28.2855H163.432C164.117 28.2855 164.72 28.4127 165.238 28.6671C165.772 28.9215 166.183 29.2871 166.473 29.7641C166.777 30.241 166.93 30.8213 166.93 31.505C166.93 32.1886 166.777 32.7689 166.473 33.2458C166.183 33.7228 165.772 34.0885 165.238 34.3429C164.72 34.5973 164.117 34.7244 163.432 34.7244H161.031V36.513H163.432C164.468 36.513 165.391 36.3143 166.199 35.9168C167.021 35.5034 167.67 34.9232 168.142 34.176C168.63 33.4128 168.874 32.5225 168.874 31.505C168.874 30.4716 168.63 29.5813 168.142 28.834C167.67 28.0868 167.021 27.5145 166.199 27.117C165.391 26.7037 164.468 26.497 163.432 26.497H161.031V28.2855Z" fill="white"/>
<path d="M173.026 34.8437C173.026 33.5877 173.285 32.4668 173.803 31.4811C174.337 30.4954 175.061 29.7164 175.975 29.1441C176.89 28.5717 177.927 28.2855 179.085 28.2855C180.259 28.2855 181.296 28.5717 182.195 29.1441C183.11 29.7164 183.826 30.4954 184.345 31.4811C184.878 32.4668 185.145 33.5877 185.145 34.8437C185.145 36.0996 184.878 37.2205 184.345 38.2062C183.826 39.1919 183.11 39.9709 182.195 40.5433C181.296 41.1156 180.259 41.4018 179.085 41.4018C177.927 41.4018 176.89 41.1156 175.975 40.5433C175.061 39.9709 174.337 39.1919 173.803 38.2062C173.285 37.2205 173.026 36.0996 173.026 34.8437ZM170.968 34.8437C170.968 36.052 171.166 37.1808 171.562 38.2301C171.974 39.2794 172.545 40.1935 173.277 40.9725C174.009 41.7357 174.87 42.3398 175.861 42.785C176.852 43.2142 177.927 43.4289 179.085 43.4289C180.259 43.4289 181.334 43.2142 182.31 42.785C183.3 42.3398 184.162 41.7357 184.893 40.9725C185.625 40.1935 186.189 39.2794 186.585 38.2301C186.997 37.1808 187.203 36.052 187.203 34.8437C187.203 33.6195 186.997 32.4907 186.585 31.4573C186.189 30.408 185.625 29.5018 184.893 28.7387C184.162 27.9596 183.3 27.3555 182.31 26.9262C181.334 26.4811 180.259 26.2585 179.085 26.2585C177.927 26.2585 176.852 26.4811 175.861 26.9262C174.87 27.3555 174.009 27.9596 173.277 28.7387C172.545 29.5018 171.974 30.408 171.562 31.4573C171.166 32.4907 170.968 33.6195 170.968 34.8437Z" fill="white"/>
</svg>
