<svg width="56" height="57" viewBox="0 0 56 57" fill="none" xmlns="http://www.w3.org/2000/svg">
<path d="M28.8553 19.6846C29.7931 19.6861 30.2684 19.6911 30.679 19.7033L30.8408 19.7086C31.0276 19.7152 31.2119 19.7236 31.4342 19.734C32.3209 19.775 32.9259 19.9152 33.4571 20.1215C34.0064 20.3333 34.4703 20.6194 34.9334 21.0826C35.3959 21.5458 35.6821 22.0111 35.8946 22.559C36.1001 23.0895 36.2404 23.6951 36.2821 24.5819C36.292 24.8041 36.3 24.9885 36.3066 25.1753L36.3119 25.3371C36.324 25.7477 36.3296 26.223 36.3314 27.1608L36.332 27.7823C36.3321 27.8582 36.3321 27.9365 36.3321 28.0173L36.332 28.2524L36.3315 28.8738C36.3299 29.8117 36.325 30.2869 36.3128 30.6976L36.3074 30.8593C36.3009 31.0462 36.2925 31.2305 36.2821 31.4528C36.2411 32.3395 36.1001 32.9444 35.8946 33.4757C35.6828 34.0249 35.3959 34.4888 34.9334 34.952C34.4703 35.4145 34.0043 35.7007 33.4571 35.9132C32.9259 36.1187 32.3209 36.259 31.4342 36.3007C31.2119 36.3106 31.0276 36.3186 30.8408 36.3252L30.679 36.3304C30.2684 36.3426 29.7931 36.3482 28.8553 36.3499L28.2339 36.3506C28.1579 36.3507 28.0796 36.3507 27.9988 36.3507L27.7637 36.3506L27.1423 36.3501C26.2044 36.3485 25.7291 36.3436 25.3185 36.3313L25.1568 36.326C24.9699 36.3194 24.7856 36.3111 24.5633 36.3007C23.6765 36.2597 23.0724 36.1187 22.5404 35.9132C21.9918 35.7013 21.5272 35.4145 21.064 34.952C20.6008 34.4888 20.3154 34.0228 20.1029 33.4757C19.8967 32.9444 19.7571 32.3395 19.7154 31.4528C19.7055 31.2305 19.6975 31.0462 19.6909 30.8593L19.6857 30.6976C19.6735 30.2869 19.6679 29.8117 19.6661 28.8738L19.666 27.1608C19.6676 26.223 19.6725 25.7477 19.6847 25.3371L19.69 25.1753C19.6967 24.9885 19.705 24.8041 19.7154 24.5819C19.7564 23.6944 19.8967 23.0902 20.1029 22.559C20.3147 22.0104 20.6008 21.5458 21.064 21.0826C21.5272 20.6194 21.9925 20.334 22.5404 20.1215C23.0717 19.9152 23.6758 19.7757 24.5633 19.734C24.7856 19.7241 24.9699 19.716 25.1568 19.7095L25.3185 19.7042C25.7291 19.692 26.2044 19.6865 27.1423 19.6847L28.8553 19.6846ZM27.9988 23.8507C25.6963 23.8507 23.8321 25.7169 23.8321 28.0173C23.8321 30.3198 25.6984 32.184 27.9988 32.184C30.3012 32.184 32.1654 30.3177 32.1654 28.0173C32.1654 25.7149 30.2991 23.8507 27.9988 23.8507ZM27.9988 25.5173C29.3795 25.5173 30.4988 26.6362 30.4988 28.0173C30.4988 29.3981 29.3799 30.5173 27.9988 30.5173C26.618 30.5173 25.4988 29.3984 25.4988 28.0173C25.4988 26.6366 26.6176 25.5173 27.9988 25.5173ZM32.3738 22.6007C31.7994 22.6007 31.3321 23.0672 31.3321 23.6416C31.3321 24.216 31.7987 24.6833 32.3738 24.6833C32.9481 24.6833 33.4154 24.2167 33.4154 23.6416C33.4154 23.0672 32.9474 22.5999 32.3738 22.6007Z" fill="white"/>
<rect x="0.5" y="0.517578" width="55" height="55" rx="27.5" stroke="#2D2D2D"/>
</svg>
