<svg width="18" height="18" viewBox="0 0 18 18" fill="none" xmlns="http://www.w3.org/2000/svg">
<path d="M9.85528 0.68457C10.7931 0.68612 11.2684 0.691079 11.679 0.703304L11.8408 0.708595C12.0276 0.715237 12.2119 0.72357 12.4342 0.733987C13.3209 0.774954 13.9259 0.915237 14.4571 1.12149C15.0064 1.33329 15.4703 1.6194 15.9334 2.0826C16.3959 2.54579 16.6821 3.01107 16.8946 3.55899C17.1001 4.08954 17.2404 4.6951 17.2821 5.5819C17.292 5.80412 17.3 5.98845 17.3066 6.17533L17.3119 6.33706C17.324 6.74769 17.3296 7.223 17.3314 8.16084L17.332 8.78225C17.3321 8.85817 17.3321 8.9365 17.3321 9.01734L17.332 9.25242L17.3315 9.87384C17.3299 10.8117 17.325 11.2869 17.3128 11.6976L17.3074 11.8593C17.3009 12.0462 17.2925 12.2305 17.2821 12.4528C17.2411 13.3395 17.1001 13.9444 16.8946 14.4757C16.6828 15.0249 16.3959 15.4888 15.9334 15.952C15.4703 16.4145 15.0043 16.7007 14.4571 16.9132C13.9259 17.1187 13.3209 17.259 12.4342 17.3007C12.2119 17.3106 12.0276 17.3186 11.8408 17.3252L11.679 17.3304C11.2684 17.3426 10.7931 17.3482 9.85528 17.3499L9.23386 17.3506C9.15795 17.3507 9.07962 17.3507 8.99878 17.3507L8.7637 17.3506L8.14228 17.3501C7.20445 17.3485 6.72913 17.3436 6.31851 17.3313L6.15677 17.326C5.9699 17.3194 5.78557 17.3111 5.56335 17.3007C4.67654 17.2597 4.07237 17.1187 3.54043 16.9132C2.99182 16.7013 2.52723 16.4145 2.06404 15.952C1.60085 15.4888 1.31543 15.0228 1.10293 14.4757C0.896682 13.9444 0.757099 13.3395 0.715432 12.4528C0.705532 12.2305 0.697457 12.0462 0.690916 11.8593L0.685674 11.6976C0.673482 11.2869 0.667924 10.8117 0.666124 9.87384L0.666016 8.16084C0.667566 7.223 0.672524 6.74769 0.684749 6.33706L0.690041 6.17533C0.696682 5.98845 0.705016 5.80412 0.715432 5.5819C0.756399 4.6944 0.896682 4.09024 1.10293 3.55899C1.31473 3.01037 1.60085 2.54579 2.06404 2.0826C2.52723 1.6194 2.99252 1.33399 3.54043 1.12149C4.07168 0.915237 4.67585 0.775654 5.56335 0.733987C5.78557 0.724087 5.9699 0.716012 6.15677 0.70947L6.31851 0.704229C6.72913 0.692037 7.20445 0.686479 8.14228 0.684679L9.85528 0.68457ZM8.99878 4.85065C6.69635 4.85065 4.8321 6.71693 4.8321 9.01734C4.8321 11.3198 6.69837 13.184 8.99878 13.184C11.3012 13.184 13.1654 11.3177 13.1654 9.01734C13.1654 6.7149 11.2991 4.85065 8.99878 4.85065ZM8.99878 6.51732C10.3795 6.51732 11.4988 7.63617 11.4988 9.01734C11.4988 10.3981 10.3799 11.5173 8.99878 11.5173C7.61803 11.5173 6.49877 10.3984 6.49877 9.01734C6.49877 7.63659 7.61762 6.51732 8.99878 6.51732ZM13.3738 3.60065C12.7994 3.60065 12.3321 4.06724 12.3321 4.64161C12.3321 5.21598 12.7987 5.68329 13.3738 5.68329C13.9481 5.68329 14.4154 5.2167 14.4154 4.64161C14.4154 4.06724 13.9474 3.59993 13.3738 3.60065Z" fill="white"/>
</svg>
