<svg width="56" height="57" viewBox="0 0 56 57" fill="none" xmlns="http://www.w3.org/2000/svg">
<path d="M23.392 22.185C23.3917 22.8636 22.98 23.4742 22.351 23.729C21.7221 23.9838 21.0015 23.8318 20.529 23.3447C20.0565 22.8576 19.9265 22.1327 20.2003 21.5118C20.4741 20.8909 21.097 20.498 21.7753 20.5183C22.6762 20.5454 23.3924 21.2837 23.392 22.185ZM23.442 25.085H20.1086V35.5183H23.442V25.085ZM28.7087 25.085H25.392V35.5183H28.6753V30.0433C28.6753 26.9933 32.6503 26.71 32.6503 30.0433V35.5183H35.942V28.91C35.942 23.7683 30.0587 23.96 28.6753 26.485L28.7087 25.085Z" fill="white"/>
<rect x="0.5" y="0.517578" width="55" height="55" rx="27.5" stroke="#2D2D2D"/>
</svg>
