<svg width="16" height="16" viewBox="0 0 16 16" fill="none" xmlns="http://www.w3.org/2000/svg">
<path d="M3.39197 2.185C3.39166 2.86359 2.97997 3.47424 2.35102 3.729C1.72207 3.98377 1.00146 3.83177 0.528985 3.34468C0.0565104 2.85759 -0.0734729 2.13268 0.200319 1.51178C0.474119 0.890883 1.09702 0.497975 1.7753 0.518333C2.67619 0.545375 3.39238 1.2837 3.39197 2.185ZM3.44197 5.085H0.108635V15.5183H3.44197V5.085ZM8.70865 5.085H5.39197V15.5183H8.67532V10.0433C8.67532 6.99331 12.6503 6.70998 12.6503 10.0433V15.5183H15.942V8.90998C15.942 3.76833 10.0587 3.96 8.67532 6.48498L8.70865 5.085Z" fill="white"/>
</svg>
