<svg width="184" height="56" viewBox="0 0 184 56" fill="none" xmlns="http://www.w3.org/2000/svg">
<g clip-path="url(#clip0_1084_6781)">
<path d="M35.6641 1.29709C39.5179 4.15887 42.433 6.66127 44.4093 8.80429C47.7202 12.3937 52.3104 19.5924 52.6798 25.0163C52.6864 25.1091 52.6677 25.1788 52.6237 25.2252C52.571 25.2827 52.4984 25.3181 52.4061 25.3314" stroke="#484848" stroke-width="2"/>
<path d="M52.4074 25.3314L49.9078 26.3697C49.8555 26.3915 49.7987 26.4003 49.7423 26.3956C49.6859 26.3909 49.6314 26.3727 49.5833 26.3425C49.5353 26.3123 49.4951 26.2711 49.4661 26.2222C49.437 26.1732 49.42 26.1181 49.4165 26.0612C49.3967 25.7803 49.267 25.599 49.0273 25.5172" stroke="#8A725A" stroke-width="2"/>
<path d="M49.0279 25.5172L49.1235 23.6926C49.1301 23.5533 49.0674 23.4659 48.9355 23.4306L47.5703 23.0789" stroke="#1B1A1B" stroke-width="2"/>
<path d="M47.5704 23.0789C46.8185 21.8382 46.148 20.8972 45.5588 20.2558C43.2307 17.7147 39.2703 17.8574 36.4805 19.6421" stroke="#8A725A" stroke-width="2"/>
<path d="M36.4807 19.6421C33.7151 20.9425 30.8616 22.0937 27.9201 23.0955C26.5516 23.5632 20.1048 20.4681 18.6406 19.7914" stroke="#998974" stroke-width="2"/>
<path d="M18.6389 19.7914C13.6792 16.9982 9.89467 18.0896 7.28516 23.0656" stroke="#8A725A" stroke-width="2"/>
<path d="M7.28669 23.0656C6.73049 23.0325 6.23475 23.1342 5.79946 23.3708C5.68734 23.4305 5.63458 23.5245 5.64117 23.6528L5.75 25.5835" stroke="#1B1A1B" stroke-width="2"/>
<path d="M5.74841 25.5835C5.54396 25.7096 5.38237 25.9208 5.26366 26.2171C5.21529 26.341 5.12956 26.3786 5.00644 26.3299L2.48047 25.348" stroke="#8A725A" stroke-width="2"/>
<path d="M2.48351 25.348C2.27906 25.2816 2.19662 25.1257 2.23619 24.8802C3.3277 17.9901 7.81906 11.2724 12.7919 6.56506C14.1197 5.30889 16.4138 3.5341 19.674 1.24069" stroke="#484848" stroke-width="2"/>
<path d="M46.2662 15.6546C43.6314 13.6576 40.103 12.8515 37.1285 14.6694C34.9719 15.9864 32.7493 17.1176 30.619 18.4678C30.5311 18.5253 30.5157 18.5983 30.5728 18.6867C30.6322 18.7752 30.7157 18.7962 30.8235 18.7498C33.821 17.4493 36.68 15.8404 39.5061 15.585C44.8515 15.1006 46.6256 17.4659 49.3396 21.4435C49.3664 21.4849 49.4075 21.5148 49.455 21.5273C49.5025 21.5399 49.5529 21.5343 49.5965 21.5115C49.6401 21.4888 49.6737 21.4505 49.6909 21.4042C49.708 21.3579 49.7074 21.3069 49.6891 21.261C48.9505 19.3369 47.9414 16.9219 46.2662 15.6546Z" stroke="#282727" stroke-width="2"/>
<path d="M24.4379 18.8526C22.0009 17.7811 19.8047 16.3446 17.5063 14.9447C14.1625 12.9079 8.83354 14.0125 6.84178 17.4891C5.95142 19.0439 5.16549 20.6528 4.48398 22.3159C4.47079 22.3447 4.47519 22.3701 4.49717 22.3922C4.51916 22.4165 4.53125 22.4475 4.53345 22.4851C4.53481 22.5006 4.54104 22.5152 4.55124 22.5269C4.56144 22.5385 4.57507 22.5466 4.59016 22.5499C4.60524 22.5533 4.62098 22.5517 4.6351 22.5454C4.64922 22.5391 4.66097 22.5284 4.66865 22.5149C6.86486 18.4611 9.59859 15.5717 14.4824 15.8106C18.146 15.993 21.1567 18.209 24.5269 19.2805C24.5512 19.2888 24.5773 19.2897 24.6021 19.2833C24.6269 19.2769 24.6495 19.2633 24.6671 19.2442C24.6847 19.2251 24.6967 19.2012 24.7016 19.1753C24.7066 19.1495 24.7043 19.1227 24.6951 19.0981C24.6555 18.9941 24.5698 18.9123 24.4379 18.8526Z" stroke="#282727" stroke-width="2"/>
<path d="M2.48008 25.348C2.29761 25.379 2.25144 25.4652 2.34158 25.6067" stroke="#9F876F" stroke-width="2"/>
<path d="M2.34332 25.6068C2.2378 25.7439 2.18284 25.8401 2.17844 25.8954C1.94431 30.5695 2.7852 35.5124 5.04077 39.6226C6.1191 41.5931 7.16114 43.7527 8.35158 45.3749C9.51454 46.9606 10.8171 48.4247 12.2593 49.7671C12.345 49.8467 12.3428 49.923 12.2527 49.996L12.0977 50.1254" stroke="#484848" stroke-width="2"/>
<path d="M41.9138 51.0012L41.7588 50.832C41.6533 50.7192 41.6588 50.6131 41.7753 50.5135C45.8017 47.0635 48.7926 42.1704 50.88 37.337C52.364 33.909 52.9454 29.9846 52.6245 25.5636C52.6201 25.5128 52.5893 25.4796 52.5321 25.4641" stroke="#484848" stroke-width="2"/>
<path d="M52.5316 25.4641C52.5206 25.4353 52.4788 25.3911 52.4062 25.3314" stroke="#9F876F" stroke-width="2"/>
<path d="M18.6415 19.7914C16.4871 19.3402 14.5997 19.4619 12.9795 20.1563C12.1518 20.5113 10.0479 21.8714 9.71484 22.7206" stroke="#F0C89A" stroke-width="2"/>
<path d="M9.7122 22.7206L7.28516 23.0656" stroke="#715942" stroke-width="2"/>
<path d="M47.5696 23.0789L45.7031 22.8168" stroke="#715942" stroke-width="2"/>
<path d="M45.7039 22.8168C44.2826 21.0653 42.3173 19.7118 40.0782 19.4696C39.0163 19.3535 37.7336 19.745 36.4805 19.6421" stroke="#F0C89A" stroke-width="2"/>
<path d="M45.7051 22.8168C39.9969 22.1036 34.1271 22.8202 28.6333 24.1338C26.7866 24.575 24.3233 23.7358 21.9259 23.2448C18.2854 22.4995 14.215 22.3248 9.71484 22.7206" stroke="#81705C" stroke-width="2"/>
<path d="M49.0278 25.5172C48.8146 26.4527 48.6024 27.3738 48.3914 28.2805C48.2155 29.0391 47.7231 29.7645 46.9141 30.4567" stroke="#715942" stroke-width="2"/>
<path d="M46.9145 30.4567C44.7293 31.5271 42.5924 32.2382 40.5039 32.5898" stroke="#7E7357" stroke-width="2"/>
<path d="M40.5017 32.5898C42.4429 32.0015 44.2346 31.1489 45.8769 30.0321C46.9288 29.3156 46.8826 26.2039 46.9156 25.0428C46.9172 24.9782 46.8965 24.9149 46.8569 24.8636C46.8172 24.8123 46.7612 24.776 46.698 24.7608C44.3336 24.1969 42.1506 23.7888 39.6938 23.968C37.3591 24.136 34.9969 24.4523 32.6072 24.9167C32.4799 24.9411 32.3647 25.0092 32.2812 25.1095C32.1977 25.2098 32.151 25.3362 32.1489 25.4674C32.1291 27.0266 31.7268 29.9558 33.3294 30.8979C34.8199 31.7737 36.5787 32.3509 38.6056 32.6296" stroke="#818081" stroke-width="2"/>
<path d="M38.608 32.6296C36.68 32.7026 34.8081 32.3178 32.9922 31.4752" stroke="#7E7357" stroke-width="2"/>
<path d="M32.9899 31.4752C31.9786 31.0262 31.1773 30.2853 30.5859 29.2525" stroke="#715942" stroke-width="2"/>
<path d="M30.5865 29.2525C30.2039 28.4918 30.0237 27.6237 30.0457 26.6484C30.0501 26.5223 29.9995 26.4272 29.894 26.3631C28.2298 25.3082 26.5601 25.2971 24.8849 26.3299C24.786 26.3896 24.7376 26.477 24.7398 26.592C24.8288 31.1633 20.2023 32.6462 16.4727 32.6761" stroke="#81705C" stroke-width="2"/>
<path d="M16.4727 32.676L16.4957 32.5334" stroke="#302F30" stroke-width="2"/>
<path d="M16.495 32.5334C18.2856 32.3078 22.0779 31.4055 22.467 29.2492C22.5857 28.5968 22.6264 27.4379 22.589 25.7726C22.5758 25.1921 22.3648 24.9963 21.824 24.8869C16.993 23.9149 12.96 23.4173 7.98385 24.8205C7.88932 24.8471 7.84096 24.9101 7.83876 25.0096C7.82227 26.0844 7.84865 29.3554 8.75879 29.9989C10.3285 31.1069 12.163 31.9484 14.2625 32.5234" stroke="#818081" stroke-width="2"/>
<path d="M14.2628 32.5234C14.2496 32.5655 14.2376 32.6064 14.2266 32.6462" stroke="#302F30" stroke-width="2"/>
<path d="M14.2279 32.6462C12.5088 32.2879 10.6346 31.6996 8.60547 30.8813" stroke="#81705C" stroke-width="2"/>
<path d="M8.60574 30.8814C7.42079 30.3019 6.63046 29.2769 6.23475 27.8062C6.04788 27.1095 5.8863 26.3686 5.75 25.5835" stroke="#715942" stroke-width="2"/>
<path d="M16.4981 32.5334L14.2656 32.5234" stroke="#AEAEAE" stroke-width="2"/>
<path d="M40.5016 32.5898L38.6055 32.6296" stroke="#FCF2D5" stroke-width="2"/>
<path d="M8.60547 30.8813C10.1048 33.2809 12.412 34.5824 15.5272 34.7859" stroke="#F0C89A" stroke-width="2"/>
<path d="M15.5276 34.7859C8.25308 36.0896 5.08077 31.2993 2.34375 25.6068" stroke="#8A725A" stroke-width="2"/>
<path d="M52.5331 25.4641C49.8323 31.16 46.7425 35.9271 39.6328 34.8523" stroke="#8A725A" stroke-width="2"/>
<path d="M39.6328 34.8522C43.1085 34.6643 45.5356 33.1991 46.914 30.4567" stroke="#EDCA95" stroke-width="2"/>
<path d="M30.5863 29.2525C30.6127 29.3852 30.5819 29.4825 30.494 29.5445C30.3863 29.6241 30.2884 29.613 30.2005 29.5113C30.095 29.3896 29.9686 29.3133 29.8213 29.2824C29.7092 29.2581 29.6157 29.2028 29.541 29.1165C27.6646 27.0233 24.987 29.2094 23.7734 30.9344" stroke="#F0C89A" stroke-width="2"/>
<path d="M23.7747 30.9344C21.2421 32.0988 18.3369 34.003 15.5273 34.7859" stroke="#998974" stroke-width="2"/>
<path d="M14.2266 32.6462L16.4722 32.676" stroke="#AE9E89" stroke-width="2"/>
<path d="M23.7734 30.9344C24.8748 30.6093 25.9499 29.9923 26.9952 29.9359C28.9969 29.8298 30.9622 31.0804 32.8023 31.7605" stroke="#8A725A" stroke-width="2"/>
<path d="M32.8047 31.7605C35.0339 32.8486 37.0982 34.3414 39.6341 34.8523" stroke="#968C6F" stroke-width="2"/>
<path d="M40.024 37.4398C38.8798 37.4 37.8476 36.9555 36.7825 36.5341C36.7505 36.5229 36.7156 36.5235 36.684 36.5359C36.6525 36.5482 36.6264 36.5716 36.6104 36.6016C36.5945 36.6317 36.5898 36.6665 36.5971 36.6998C36.6045 36.733 36.6235 36.7625 36.6506 36.7829C40.0339 39.1416 44.3835 38.435 47.4206 35.8375C47.4454 35.8176 47.4619 35.7887 47.4667 35.7567C47.4716 35.7248 47.4644 35.6923 47.4466 35.666C47.4288 35.6396 47.4019 35.6213 47.3713 35.615C47.3407 35.6086 47.3087 35.6147 47.2821 35.6318C44.943 36.9212 42.5236 37.5238 40.024 37.4398Z" stroke="#282727" stroke-width="2"/>
<path d="M7.14988 36.209C8.46234 36.7995 9.18122 37.7118 10.6684 38.0634C11.9897 38.3753 13.3263 38.4936 14.6783 38.4184C16.1821 38.3355 18.1408 37.0019 19.4401 36.4844C19.6665 36.3937 19.7842 36.24 19.793 36.0233C19.7939 35.9974 19.7882 35.9717 19.7763 35.9487C19.7644 35.9257 19.7468 35.9063 19.7252 35.8922C19.7036 35.8782 19.6787 35.87 19.653 35.8686C19.6273 35.8671 19.6017 35.8724 19.5786 35.8839C17.9144 36.6823 16.7965 37.1478 16.2249 37.2805C12.9955 38.0281 10.0045 37.5094 7.25211 35.7247C7.21871 35.7031 7.18001 35.6913 7.14031 35.6905C7.10062 35.6897 7.06149 35.7001 7.0273 35.7204C6.99311 35.7407 6.96519 35.7701 6.94666 35.8054C6.92813 35.8408 6.91971 35.8806 6.92235 35.9204C6.93114 36.0465 7.00699 36.1427 7.14988 36.209Z" stroke="#282727" stroke-width="2"/>
<path d="M32.9927 31.4752L32.8047 31.7605" stroke="#EDCA95" stroke-width="2"/>
<path d="M26.8166 0H28.782C31.352 0.132695 33.6471 0.565058 35.6675 1.29709C39.5213 4.15887 42.4364 6.66127 44.4127 8.80429C47.7235 12.3937 52.3138 19.5924 52.6832 25.0163C52.6898 25.1091 52.6711 25.1788 52.6271 25.2252C52.5743 25.2827 52.5018 25.3181 52.4095 25.3314L49.9099 26.3697C49.8575 26.3915 49.8008 26.4003 49.7444 26.3956C49.6879 26.3909 49.6334 26.3727 49.5854 26.3425C49.5373 26.3123 49.4971 26.2711 49.4681 26.2222C49.4391 26.1733 49.4221 26.1181 49.4185 26.0612C49.3987 25.7804 49.269 25.599 49.0294 25.5172L49.125 23.6926C49.1316 23.5533 49.069 23.4659 48.9371 23.4306L47.5719 23.0789C46.82 21.8382 46.1495 20.8972 45.5603 20.2558C43.2322 17.7147 39.2717 17.8574 36.482 19.6421C33.7164 20.9425 30.8628 22.0937 27.9213 23.0955C26.5528 23.5632 20.106 20.4681 18.6418 19.7914C13.6822 16.9982 9.89766 18.0896 7.28814 23.0656C6.73194 23.0325 6.2362 23.1342 5.80091 23.3708C5.6888 23.4306 5.63603 23.5245 5.64263 23.6528L5.75145 25.5835C5.547 25.7096 5.38541 25.9208 5.2667 26.2171C5.21834 26.341 5.1326 26.3786 5.00949 26.3299L2.48351 25.348C2.27906 25.2816 2.19662 25.1257 2.23619 24.8802C3.3277 17.9901 7.81906 11.2724 12.7919 6.56507C14.1197 5.30889 16.4138 3.5341 19.674 1.24069C21.956 0.528567 24.3368 0.115002 26.8166 0ZM46.2693 15.6546C43.6345 13.6576 40.106 12.8515 37.1316 14.6694C34.975 15.9864 32.7524 17.1176 30.6221 18.4678C30.5342 18.5253 30.5188 18.5983 30.5759 18.6867C30.6353 18.7752 30.7188 18.7962 30.8265 18.7497C33.8241 17.4493 36.6831 15.8404 39.5092 15.585C44.8546 15.1006 46.6287 17.4659 49.3427 21.4434C49.3695 21.4849 49.4106 21.5148 49.4581 21.5273C49.5056 21.5399 49.556 21.5343 49.5996 21.5115C49.6432 21.4888 49.6768 21.4505 49.694 21.4042C49.7111 21.3579 49.7105 21.3069 49.6922 21.261C48.9536 19.3369 47.9445 16.9219 46.2693 15.6546ZM24.4391 18.8526C22.0021 17.7811 19.8059 16.3447 17.5075 14.9447C14.1637 12.9079 8.83472 14.0126 6.84296 17.4892C5.9526 19.0439 5.16667 20.6528 4.48516 22.3159C4.47197 22.3447 4.47637 22.3701 4.49835 22.3922C4.52034 22.4165 4.53243 22.4475 4.53463 22.4851C4.53599 22.5006 4.54223 22.5152 4.55243 22.5269C4.56262 22.5385 4.57626 22.5466 4.59134 22.5499C4.60642 22.5533 4.62216 22.5517 4.63628 22.5454C4.6504 22.5391 4.66215 22.5284 4.66983 22.515C6.86605 18.4611 9.59977 15.5717 14.4835 15.8106C18.1472 15.993 21.1579 18.209 24.5281 19.2805C24.5524 19.2888 24.5785 19.2897 24.6033 19.2833C24.6281 19.2769 24.6507 19.2633 24.6683 19.2442C24.6859 19.2251 24.6979 19.2012 24.7028 19.1753C24.7078 19.1495 24.7055 19.1227 24.6963 19.0981C24.6567 18.9941 24.571 18.9123 24.4391 18.8526Z" fill="#333333"/>
<path d="M19.6725 1.24069C16.4123 3.5341 14.1182 5.30889 12.7904 6.56506C7.81758 11.2724 3.32623 17.9901 2.23471 24.8802C2.19514 25.1257 2.27758 25.2816 2.48204 25.348C2.29957 25.379 2.2534 25.4652 2.34354 25.6067C2.23801 25.7439 2.18305 25.8401 2.17865 25.8954C1.94452 30.5695 2.78542 35.5124 5.04099 39.6226C6.11931 41.5931 7.16136 43.7527 8.3518 45.3749C9.51476 46.9606 10.8173 48.4247 12.2595 49.7671C12.3452 49.8467 12.343 49.923 12.2529 49.996L12.0979 50.1254C-6.84363 36.6403 -2.32919 8.44601 19.6725 1.24069Z" fill="#5D5D5D"/>
<path d="M35.668 1.29709C48.5814 5.24144 56.9244 17.9768 54.8172 31.5017C53.5224 39.8106 49.2223 46.3104 41.917 51.0012L41.762 50.832C41.6564 50.7192 41.6619 50.613 41.7785 50.5135C45.8048 47.0635 48.7958 42.1703 50.8832 37.3369C52.3671 33.909 52.9486 29.9846 52.6276 25.5636C52.6232 25.5127 52.5924 25.4796 52.5353 25.4641C52.5243 25.4353 52.4825 25.3911 52.41 25.3314C52.5023 25.3181 52.5749 25.2827 52.6276 25.2252C52.6716 25.1788 52.6903 25.1091 52.6837 25.0163C52.3143 19.5924 47.7241 12.3937 44.4133 8.80429C42.4369 6.66127 39.5218 4.15887 35.668 1.29709Z" fill="#5D5D5D"/>
<path d="M46.2701 15.6546C47.9453 16.9219 48.9544 19.3369 49.693 21.261C49.7113 21.3069 49.7119 21.3579 49.6948 21.4042C49.6777 21.4505 49.644 21.4888 49.6004 21.5115C49.5568 21.5343 49.5064 21.5399 49.4589 21.5273C49.4114 21.5148 49.3703 21.4849 49.3435 21.4435C46.6296 17.4659 44.8554 15.1006 39.51 15.585C36.6839 15.8404 33.8249 17.4493 30.8274 18.7498C30.7196 18.7962 30.6361 18.7752 30.5767 18.6867C30.5196 18.5983 30.535 18.5253 30.6229 18.4678C32.7532 17.1176 34.9758 15.9864 37.1324 14.6694C40.1069 12.8515 43.6353 13.6576 46.2701 15.6546Z" fill="#1C1B1B"/>
<path d="M24.4379 18.8526C24.5698 18.9123 24.6555 18.9941 24.6951 19.0981C24.7043 19.1227 24.7066 19.1495 24.7016 19.1753C24.6967 19.2012 24.6847 19.2251 24.6671 19.2442C24.6495 19.2633 24.6269 19.2769 24.6021 19.2833C24.5773 19.2897 24.5512 19.2888 24.5269 19.2805C21.1567 18.209 18.146 15.993 14.4824 15.8106C9.59859 15.5717 6.86486 18.4611 4.66865 22.5149C4.66097 22.5284 4.64922 22.5391 4.6351 22.5454C4.62098 22.5517 4.60524 22.5533 4.59016 22.5499C4.57507 22.5466 4.56144 22.5385 4.55124 22.5269C4.54104 22.5152 4.53481 22.5006 4.53345 22.4851C4.53125 22.4475 4.51916 22.4165 4.49717 22.3922C4.47519 22.3701 4.47079 22.3447 4.48398 22.3159C5.16549 20.6528 5.95142 19.0439 6.84178 17.4891C8.83354 14.0125 14.1625 12.9079 17.5063 14.9447C19.8047 16.3446 22.0009 17.7811 24.4379 18.8526Z" fill="#1C1B1B"/>
<path d="M18.6428 19.7914C16.4883 19.3402 14.601 19.4619 12.9808 20.1563C12.1531 20.5113 10.0492 21.8714 9.71611 22.7206L7.28906 23.0656C9.89858 18.0896 13.6831 16.9982 18.6428 19.7914Z" fill="#E0B080"/>
<path d="M47.5704 23.0789L45.7039 22.8168C44.2826 21.0653 42.3173 19.7118 40.0782 19.4696C39.0163 19.3535 37.7336 19.745 36.4805 19.6421C39.2703 17.8574 43.2307 17.7147 45.5588 20.2558C46.148 20.8972 46.8185 21.8382 47.5704 23.0789Z" fill="#E0B080"/>
<path d="M45.7051 22.8168C39.9969 22.1036 34.1271 22.8202 28.6333 24.1338C26.7866 24.5751 24.3233 23.7358 21.9259 23.2448C18.2854 22.4995 14.215 22.3248 9.71484 22.7206C10.0479 21.8714 12.1518 20.5113 12.9795 20.1563C14.5997 19.4619 16.4871 19.3403 18.6415 19.7914C20.1056 20.4682 26.5525 23.5633 27.921 23.0955C30.8625 22.0937 33.716 20.9425 36.4816 19.6421C37.7347 19.745 39.0175 19.3535 40.0793 19.4696C42.3184 19.7118 44.2838 21.0653 45.7051 22.8168Z" fill="#FFDFB4"/>
<path d="M45.704 22.8168L47.5704 23.0789L48.9356 23.4306C49.0675 23.4659 49.1302 23.5533 49.1236 23.6926L49.0279 25.5172C48.8147 26.4527 48.6026 27.3738 48.3915 28.2805C48.2156 29.0391 47.7232 29.7645 46.9142 30.4567C44.729 31.5271 42.5921 32.2382 40.5036 32.5898C42.4448 32.0015 44.2365 31.149 45.8787 30.0321C46.9307 29.3156 46.8845 26.2039 46.9175 25.0428C46.9191 24.9782 46.8983 24.915 46.8587 24.8636C46.8191 24.8123 46.763 24.776 46.6998 24.7608C44.3354 24.1969 42.1524 23.7888 39.6957 23.968C37.361 24.136 34.9988 24.4523 32.6091 24.9167C32.4817 24.9411 32.3666 25.0092 32.2831 25.1095C32.1996 25.2098 32.1529 25.3362 32.1507 25.4674C32.1309 27.0266 31.7286 29.9558 33.3313 30.8979C34.8218 31.7737 36.5805 32.351 38.6075 32.6296C36.6795 32.7026 34.8075 32.3178 32.9916 31.4752C31.9804 31.0262 31.179 30.2853 30.5877 29.2525C30.2051 28.4918 30.0249 27.6237 30.0469 26.6484C30.0513 26.5223 30.0007 26.4272 29.8952 26.3631C28.231 25.3082 26.5613 25.2971 24.8861 26.3299C24.7872 26.3896 24.7388 26.477 24.741 26.592C24.83 31.1633 20.2035 32.6462 16.4739 32.6761L16.4969 32.5334C18.2875 32.3078 22.0798 31.4055 22.4689 29.2492C22.5876 28.5968 22.6283 27.4379 22.5909 25.7726C22.5777 25.1921 22.3667 24.9964 21.8259 24.8869C16.9949 23.9149 12.9619 23.4173 7.98578 24.8205C7.89125 24.8471 7.84289 24.9101 7.84069 25.0096C7.8242 26.0844 7.85058 29.3554 8.76072 29.9989C10.3304 31.1069 12.165 31.9484 14.2644 32.5235C14.2513 32.5655 14.2392 32.6064 14.2282 32.6462C12.509 32.2879 10.6349 31.6996 8.60573 30.8814C7.42079 30.3019 6.63046 29.2769 6.23475 27.8062C6.04788 27.1095 5.8863 26.3686 5.75 25.5835L5.64117 23.6528C5.63458 23.5245 5.68734 23.4306 5.79946 23.3708C6.23475 23.1342 6.73049 23.0325 7.28669 23.0656L9.71373 22.7206C14.2139 22.3248 18.2842 22.4995 21.9248 23.2448C24.3222 23.7358 26.7855 24.575 28.6322 24.1338C34.126 22.8202 39.9958 22.1036 45.704 22.8168Z" fill="#020103"/>
<path d="M16.4989 32.5334L14.2664 32.5234C12.1669 31.9484 10.3324 31.1069 8.7627 29.9989C7.85256 29.3554 7.82618 26.0844 7.84266 25.0096C7.84486 24.9101 7.89323 24.8471 7.98776 24.8205C12.9639 23.4173 16.9969 23.9149 21.8279 24.8869C22.3687 24.9963 22.5797 25.1921 22.5929 25.7726C22.6303 27.4379 22.5896 28.5968 22.4709 29.2492C22.0818 31.4055 18.2895 32.3078 16.4989 32.5334Z" fill="white"/>
<path d="M40.5056 32.5898L38.6095 32.6296C36.5826 32.3509 34.8239 31.7737 33.3333 30.8979C31.7307 29.9558 32.133 27.0266 32.1528 25.4674C32.1549 25.3362 32.2017 25.2098 32.2851 25.1095C32.3686 25.0092 32.4838 24.9411 32.6111 24.9167C35.0008 24.4523 37.363 24.136 39.6977 23.968C42.1545 23.7888 44.3375 24.1969 46.7019 24.7608C46.7651 24.776 46.8212 24.8123 46.8608 24.8636C46.9004 24.9149 46.9211 24.9782 46.9195 25.0428C46.8865 26.2039 46.9327 29.3156 45.8808 30.0321C44.2386 31.1489 42.4468 32.0015 40.5056 32.5898Z" fill="white"/>
<path d="M2.48399 25.348L5.00996 26.3299C5.13307 26.3786 5.21881 26.341 5.26718 26.2171C5.38589 25.9208 5.54747 25.7096 5.75193 25.5835C5.88823 26.3686 6.04981 27.1095 6.23668 27.8062C6.63239 29.2769 7.42272 30.3019 8.60766 30.8814C10.107 33.2809 12.4142 34.5824 15.5294 34.7859C8.25482 36.0896 5.08251 31.2993 2.34549 25.6067C2.25535 25.4652 2.30152 25.379 2.48399 25.348Z" fill="#E0B080"/>
<path d="M52.4078 25.3314C52.4803 25.3911 52.5221 25.4353 52.5331 25.4641C49.8323 31.16 46.7425 35.9271 39.6328 34.8522C43.1085 34.6642 45.5356 33.1991 46.914 30.4567C47.723 29.7645 48.2154 29.0391 48.3913 28.2805C48.6023 27.3738 48.8145 26.4527 49.0277 25.5172C49.2674 25.599 49.3971 25.7803 49.4168 26.0612C49.4204 26.1181 49.4374 26.1732 49.4665 26.2222C49.4955 26.2711 49.5357 26.3123 49.5837 26.3425C49.6317 26.3727 49.6862 26.3909 49.7427 26.3956C49.7991 26.4003 49.8559 26.3915 49.9082 26.3697L52.4078 25.3314Z" fill="#E0B080"/>
<path d="M30.5874 29.2525C30.6138 29.3852 30.583 29.4825 30.4951 29.5445C30.3873 29.6241 30.2895 29.613 30.2016 29.5113C30.0961 29.3897 29.9696 29.3134 29.8224 29.2824C29.7102 29.2581 29.6168 29.2028 29.5421 29.1165C27.6657 27.0233 24.988 29.2094 23.7745 30.9344C21.2419 32.0988 18.3367 34.003 15.5272 34.7859C12.412 34.5824 10.1048 33.2809 8.60547 30.8814C10.6346 31.6996 12.5088 32.2879 14.2279 32.6462L16.4736 32.6761C20.2032 32.6462 24.8298 31.1633 24.7407 26.592C24.7385 26.477 24.7869 26.3896 24.8858 26.3299C26.561 25.2971 28.2307 25.3082 29.8949 26.3631C30.0004 26.4272 30.051 26.5223 30.0466 26.6484C30.0246 27.6237 30.2049 28.4918 30.5874 29.2525Z" fill="#FFDFB4"/>
<path d="M52.5331 25.4641C52.5902 25.4796 52.621 25.5128 52.6254 25.5636C52.9464 29.9846 52.3649 33.909 50.881 37.337C48.7936 42.1704 45.8026 47.0635 41.7763 50.5135C41.6597 50.6131 41.6542 50.7192 41.7598 50.832L41.9148 51.0012C32.4407 56.4782 21.2189 56.2658 12.0977 50.1254L12.2527 49.996C12.3428 49.923 12.345 49.8467 12.2593 49.7671C10.8171 48.4247 9.51454 46.9606 8.35158 45.3749C7.16114 43.7527 6.1191 41.5931 5.04077 39.6226C2.7852 35.5124 1.94431 30.5695 2.17844 25.8954C2.18284 25.8401 2.2378 25.7439 2.34332 25.6068C5.08035 31.2994 8.25266 36.0896 15.5272 34.7859C18.3368 34.003 21.242 32.0988 23.7745 30.9344C24.876 30.6093 25.951 29.9923 26.9963 29.9359C28.998 29.8298 30.9634 31.0804 32.8034 31.7605C35.0326 32.8486 37.0969 34.3414 39.6328 34.8523C46.7425 35.9271 49.8323 31.16 52.5331 25.4641ZM40.0252 37.4398C38.8809 37.4 37.8488 36.9555 36.7837 36.5342C36.7517 36.5229 36.7168 36.5235 36.6852 36.5359C36.6537 36.5482 36.6276 36.5716 36.6116 36.6016C36.5957 36.6317 36.591 36.6665 36.5983 36.6998C36.6057 36.733 36.6246 36.7625 36.6518 36.783C40.0351 39.1416 44.3847 38.435 47.4218 35.8375C47.4466 35.8176 47.4631 35.7887 47.4679 35.7568C47.4727 35.7248 47.4655 35.6923 47.4478 35.666C47.43 35.6396 47.4031 35.6213 47.3724 35.615C47.3418 35.6086 47.3099 35.6147 47.2833 35.6318C44.9442 36.9212 42.5248 37.5238 40.0252 37.4398ZM7.14795 36.2091C8.46041 36.7995 9.17929 37.7118 10.6665 38.0635C11.9878 38.3753 13.3244 38.4936 14.6764 38.4184C16.1801 38.3355 18.1389 37.0019 19.4382 36.4844C19.6646 36.3937 19.7822 36.24 19.791 36.0233C19.792 35.9974 19.7863 35.9717 19.7744 35.9487C19.7625 35.9258 19.7449 35.9063 19.7233 35.8922C19.7017 35.8782 19.6768 35.87 19.6511 35.8686C19.6254 35.8671 19.5997 35.8724 19.5767 35.884C17.9125 36.6823 16.7946 37.1479 16.223 37.2806C12.9935 38.0281 10.0026 37.5095 7.25018 35.7247C7.21678 35.7031 7.17808 35.6913 7.13838 35.6905C7.09869 35.6898 7.05956 35.7001 7.02537 35.7204C6.99118 35.7407 6.96326 35.7701 6.94473 35.8055C6.92619 35.8408 6.91778 35.8806 6.92042 35.9204C6.92921 36.0465 7.00506 36.1427 7.14795 36.2091Z" fill="#333333"/>
<path d="M30.5902 29.2525C31.1816 30.2853 31.9829 31.0262 32.9942 31.4752L32.8062 31.7605C30.9662 31.0804 29.0008 29.8297 26.9991 29.9359C25.9538 29.9923 24.8787 30.6093 23.7773 30.9344C24.9909 29.2094 27.6685 27.0233 29.5449 29.1165C29.6196 29.2028 29.7131 29.2581 29.8252 29.2824C29.9725 29.3133 30.0989 29.3896 30.2044 29.5113C30.2923 29.613 30.3902 29.6241 30.4979 29.5445C30.5858 29.4825 30.6166 29.3852 30.5902 29.2525Z" fill="#E0B080"/>
<path d="M46.9152 30.4567C45.5368 33.1991 43.1097 34.6643 39.6341 34.8522C37.0982 34.3414 35.0339 32.8485 32.8047 31.7605L32.9927 31.4752C34.8085 32.3178 36.6805 32.7026 38.6085 32.6296L40.5046 32.5898C42.5931 32.2382 44.73 31.5271 46.9152 30.4567Z" fill="#F9E4AA"/>
<path d="M14.2667 32.5234L16.4992 32.5334L16.4761 32.676L14.2305 32.6462C14.2415 32.6064 14.2536 32.5655 14.2667 32.5234Z" fill="#5D5D5D"/>
<path d="M40.0279 37.4398C42.5275 37.5238 44.9469 36.9212 47.286 35.6318C47.3126 35.6147 47.3446 35.6086 47.3752 35.615C47.4058 35.6213 47.4327 35.6396 47.4505 35.666C47.4683 35.6923 47.4755 35.7248 47.4706 35.7567C47.4658 35.7887 47.4493 35.8176 47.4245 35.8375C44.3874 38.435 40.0378 39.1416 36.6545 36.7829C36.6274 36.7625 36.6084 36.733 36.601 36.6998C36.5937 36.6665 36.5984 36.6317 36.6143 36.6016C36.6303 36.5716 36.6564 36.5482 36.6879 36.5359C36.7195 36.5235 36.7544 36.5229 36.7864 36.5341C37.8515 36.9555 38.8837 37.4 40.0279 37.4398Z" fill="#1C1B1B"/>
<path d="M7.14988 36.209C7.00699 36.1427 6.93114 36.0465 6.92235 35.9204C6.91971 35.8806 6.92813 35.8408 6.94666 35.8054C6.96519 35.7701 6.99311 35.7407 7.0273 35.7204C7.06149 35.7001 7.10062 35.6897 7.14031 35.6905C7.18001 35.6913 7.21871 35.7031 7.25211 35.7247C10.0045 37.5094 12.9955 38.0281 16.2249 37.2805C16.7965 37.1478 17.9144 36.6823 19.5786 35.8839C19.6017 35.8724 19.6273 35.8671 19.653 35.8686C19.6787 35.87 19.7036 35.8782 19.7252 35.8922C19.7468 35.9063 19.7644 35.9257 19.7763 35.9487C19.7882 35.9717 19.7939 35.9974 19.793 36.0233C19.7842 36.24 19.6665 36.3937 19.4401 36.4844C18.1408 37.0019 16.1821 38.3355 14.6783 38.4184C13.3263 38.4936 11.9897 38.3753 10.6684 38.0634C9.18122 37.7118 8.46234 36.7995 7.14988 36.209Z" fill="#1C1B1B"/>
</g>
<path d="M65.5607 34.7L61.8741 20.2311H64.7877L67.7806 32.8171L67.0076 32.3612H68.9897L68.1176 32.8171L70.4762 20.7861H72.8943L69.9609 34.7H65.5607ZM74.2024 34.7L71.0113 20.7861H73.5285L76.2439 32.8171L75.3916 32.3612H77.334L76.5809 32.8171L79.217 20.2311H81.972L78.6818 34.7H74.2024ZM83.4293 34.7V20.2311H86.1843V34.7H83.4293ZM85.7879 34.7V32.3216H92.3485V34.7H85.7879ZM85.7879 28.5359V26.1574H91.8331V28.5359H85.7879ZM85.7879 22.6096V20.2311H92.1899V22.6096H85.7879ZM96.8022 34.7991V32.5396H100.429C101.09 32.5396 101.592 32.3612 101.936 32.0044C102.279 31.6345 102.451 31.1323 102.451 30.4981C102.451 29.8638 102.279 29.3749 101.936 29.0314C101.592 28.6746 101.09 28.4962 100.429 28.4962H96.8022V26.7719H100.231C101.196 26.7719 102.055 26.8908 102.808 27.1286C103.574 27.3532 104.169 27.7364 104.592 28.2782C105.028 28.82 105.246 29.5467 105.246 30.4584V30.7359C105.246 31.5948 105.054 32.3282 104.671 32.936C104.301 33.5306 103.739 33.9931 102.986 34.3234C102.246 34.6406 101.328 34.7991 100.231 34.7991H96.8022ZM94.4435 34.7991V20.132H97.1986V34.7991H94.4435ZM96.8022 28.0404V26.316H99.8941C100.568 26.316 101.064 26.1376 101.381 25.7808C101.698 25.4241 101.856 24.9484 101.856 24.3538C101.856 23.7591 101.698 23.2835 101.381 22.9267C101.064 22.5699 100.568 22.3915 99.8941 22.3915H96.8022V20.132H99.6365C101.275 20.132 102.517 20.4756 103.363 21.1627C104.222 21.8498 104.651 22.8342 104.651 24.1159V24.3934C104.651 25.2919 104.433 26.0121 103.997 26.5538C103.574 27.0824 102.986 27.4656 102.233 27.7034C101.48 27.928 100.614 28.0404 99.6365 28.0404H96.8022Z" fill="white"/>
<path d="M107.297 34.7V20.2311H111.915L118 32.3612H118.654L118.257 32.718V20.2311H120.913V34.7H116.275L110.19 22.5699H109.516L109.913 22.2132V34.7H107.297ZM123.731 34.7V20.2311H126.546V34.7H123.731ZM129.364 34.7V20.2311H133.982L140.067 32.3612H140.721L140.325 32.718V20.2311H142.98V34.7H138.342L132.258 22.5699H131.584L131.98 22.2132V34.7H129.364ZM149.921 35.0766C148.877 35.0766 147.959 34.8718 147.166 34.4622C146.373 34.0525 145.759 33.4513 145.323 32.6585C144.887 31.8657 144.669 30.8945 144.669 29.7449V29.1107H147.464V29.9828C147.464 30.7491 147.688 31.357 148.137 31.8062C148.587 32.2423 149.175 32.4603 149.901 32.4603C150.641 32.4603 151.229 32.2423 151.666 31.8062C152.115 31.357 152.339 30.7491 152.339 29.9828V22.3123H155.154V29.7449C155.154 30.8945 154.936 31.8657 154.5 32.6585C154.064 33.4513 153.456 34.0525 152.676 34.4622C151.897 34.8718 150.978 35.0766 149.921 35.0766ZM146.433 22.7087V20.2311H155.154V22.7087H146.433ZM155.675 34.7L160.611 20.2311H165.209L170.283 34.7H167.389L163.088 22.1537L164.099 22.5897H161.621L162.652 22.1537L158.49 34.7H155.675ZM159.124 30.8549L160.016 28.4764H165.883L166.755 30.8549H159.124ZM170.767 34.7V32.2819L178.755 22.6096L178.795 23.0258L178.2 22.233L178.596 22.5501H171.005V20.2311H181.867V22.6492L173.859 32.3017L173.8 31.8459L174.454 32.7378L173.978 32.381H181.966V34.7H170.767Z" fill="#DFF36B"/>
<defs>
<clipPath id="clip0_1084_6781">
<rect width="55.4" height="55.4" fill="white"/>
</clipPath>
</defs>
</svg>
