<svg width="113" height="52" viewBox="0 0 113 52" fill="none" xmlns="http://www.w3.org/2000/svg">
<g id="Group 144">
<path id="Subtract" fill-rule="evenodd" clip-rule="evenodd" d="M10.3685 0.74794C10.2419 0.405879 9.7581 0.405879 9.63151 0.74794L7.16212 7.42139C7.12233 7.52893 7.03754 7.61373 6.92999 7.65352L0.256546 10.1229C-0.0855152 10.2495 -0.0855152 10.7333 0.256546 10.8599L6.92999 13.3293C7.03754 13.3691 7.12233 13.4539 7.16212 13.5614L9.63151 20.2348C9.7581 20.5769 10.2419 20.5769 10.3685 20.2348L12.8379 13.5614C12.8777 13.4539 12.9625 13.3691 13.07 13.3293L19.7435 10.8599C20.0855 10.7333 20.0855 10.2495 19.7435 10.1229L13.07 7.65352C12.9625 7.61373 12.8777 7.52893 12.8379 7.42139L10.3685 0.74794ZM10 12.5214C11.1211 12.5214 12.03 11.6125 12.03 10.4914C12.03 9.37027 11.1211 8.46141 10 8.46141C8.87887 8.46141 7.97002 9.37027 7.97002 10.4914C7.97002 11.6125 8.87887 12.5214 10 12.5214Z" fill="#DFF36B"/>
<g id="Vector">
<path d="M16 51.5086V33.0349H20.6942V36.6552H20.8858C21.8118 34.253 23.9194 33.0349 26.3463 33.0349C29.7631 33.0349 32.3816 35.0988 32.3816 40.5462V51.5086H27.6875V41.6289C27.6875 38.5838 26.7295 37.0951 24.4622 37.0951C22.0353 37.0951 20.6942 39.1251 20.6942 41.4259V51.5086H16Z" fill="white"/>
<path d="M36.2388 51.5086V40.0838H40.9329V51.5086H36.2388Z" fill="white"/>
<path d="M44.9705 51.5086L45.1621 33.0349H49.6646V36.6552H49.8562C50.7823 34.253 52.8899 33.0349 55.3168 33.0349C58.7336 33.0349 61.3521 35.0988 61.3521 40.5462V51.5086H56.658V41.6289C56.658 38.5838 55.7 37.0951 53.4327 37.0951C51.0058 37.0951 49.6646 39.1251 49.6646 41.4259V51.5086H44.9705Z" fill="white"/>
<path d="M67.2096 51.5086C65.9004 51.5086 64.4429 51.4748 63.6765 51.1026V46.8733C64.2832 47.2116 65.0496 47.4146 66.0076 47.4146C68.2748 47.4146 69.3286 46.3657 69.3286 44.065V33.0349H74.2782V44.471C74.2782 49.6477 70.536 51.5086 67.2096 51.5086Z" fill="white"/>
<path d="M84.6175 51.5086C80.5301 51.5086 77.7839 48.6665 77.7839 42.4409C77.7839 36.1815 80.5301 33.0349 84.6175 33.0349C87.268 33.0349 89.2478 34.4221 90.0462 36.5199H90.3016L90.4932 33.0349H94.9958V51.5086H90.3016V48.3282H90.0462C89.2478 50.4259 87.268 51.5086 84.6175 51.5086ZM86.4058 47.7868C89.0243 47.7868 90.2378 45.6214 90.2378 43.2868V41.5612C90.2378 39.2266 89.0243 37.0612 86.4058 37.0612C84.1066 37.0612 82.5738 38.753 82.5738 42.4409C82.5738 46.0951 84.1066 47.7868 86.4058 47.7868Z" fill="white"/>
<path d="M97.9276 51.5086V47.956L106.645 37.3657H98.4385V33.0349H112.649V36.8582L103.899 47.5161H113V51.5086H97.9276Z" fill="white"/>
<path d="M40.9366 35.5514C40.9366 36.9411 39.885 38.0678 38.5877 38.0678C37.2904 38.0678 36.2388 36.9411 36.2388 35.5514C36.2388 34.1616 37.2904 33.0349 38.5877 33.0349C39.885 33.0349 40.9366 34.1616 40.9366 35.5514Z" fill="white"/>
<path d="M18.8743 28.1098L16 16.7888H18.2569L20.4711 25.9055H20.5776L22.6641 16.7888H25.0913L27.2417 25.9269H27.3056L29.5198 16.7888H31.6702L28.7959 28.1098H25.9216L23.8351 19.5923H23.75L21.7273 28.1098H18.8743Z" fill="white"/>
<path d="M37.912 28.3024C34.5267 28.3024 32.4615 25.9911 32.4615 22.5028C32.4615 18.9289 34.5267 16.6176 37.8269 16.6176C41.5315 16.6176 43.32 19.3355 42.9793 22.888H34.6332C34.6758 25.2207 35.9532 26.5476 37.912 26.5476C39.4237 26.5476 40.5521 25.7985 40.8289 24.6215H42.9154C42.6174 26.8472 40.5734 28.3024 37.912 28.3024ZM37.8056 18.351C36.0384 18.351 34.8461 19.4853 34.6758 21.3258H40.8289C40.765 19.2285 39.4663 18.351 37.8056 18.351Z" fill="white"/>
<path d="M51.5029 28.3024C49.608 28.3024 48.2028 27.3394 47.6705 25.8841H47.5428L47.4576 28.1098H45.3498V12.5086H47.5428V19.0145H47.6705C48.2028 17.5806 49.608 16.5962 51.5029 16.5962C54.2494 16.5962 56.1018 18.672 56.1018 22.46C56.1018 26.2479 54.2494 28.3024 51.5029 28.3024ZM50.7364 26.4834C52.61 26.4834 53.8449 25.1137 53.8449 22.46C53.8449 19.7849 52.61 18.4152 50.7364 18.4152C48.6499 18.4152 47.564 20.0631 47.564 21.818V23.0806C47.564 24.8355 48.6499 26.4834 50.7364 26.4834Z" fill="white"/>
<path d="M59.7776 23.774V21.7214H65.9039V23.774H59.7776Z" fill="white"/>
</g>
</g>
</svg>
