<svg width="108" height="44" viewBox="0 0 108 44" fill="none" xmlns="http://www.w3.org/2000/svg">
<g clip-path="url(#clip0_425_1721)">
<path d="M1.8837 0H4.50161C5.14959 0.127712 5.51284 0.544873 5.33314 1.20394C5.07732 2.14174 4.97808 2.70852 3.99624 2.94903C3.84946 2.98507 3.61822 3.0034 3.3025 3.00402C2.87341 3.00496 2.44384 3.00636 2.01378 3.00822C1.99772 3.00822 1.98744 3.01568 1.98295 3.03059L1.51082 4.64284C1.50664 4.65682 1.49717 4.66381 1.48239 4.66381L0.539579 4.66241C0.534983 4.66237 0.530459 4.6613 0.52636 4.65929C0.522261 4.65727 0.518698 4.65437 0.515947 4.65081C0.513197 4.64725 0.511333 4.64312 0.510502 4.63874C0.509671 4.63437 0.509894 4.62987 0.511155 4.62559L1.8837 0ZM4.22556 1.58055C4.32914 1.25148 4.50836 0.743898 3.9365 0.765805C3.51978 0.781653 3.09871 0.766271 2.67717 0.776525C2.65854 0.776836 2.64666 0.785692 2.64152 0.803093L2.19541 2.3058C2.19443 2.30923 2.19427 2.31284 2.19496 2.31633C2.19564 2.31982 2.19714 2.3231 2.19934 2.3259C2.20154 2.32871 2.20438 2.33097 2.20763 2.3325C2.21087 2.33402 2.21444 2.33478 2.21805 2.3347C2.53473 2.33035 2.85237 2.3288 3.17098 2.33004C3.8045 2.3333 4.04249 2.16225 4.22556 1.58055Z" fill="white"/>
<path d="M13.2716 0H14.2717L13.1304 3.85513C13.1227 3.8803 13.1323 3.89288 13.1593 3.89288L15.294 3.89055C15.3152 3.89055 15.3229 3.90034 15.3172 3.91991L15.1095 4.63631C15.1047 4.65309 15.0931 4.66148 15.0748 4.66148H11.9106C11.8974 4.66148 11.8926 4.65527 11.8961 4.64284L13.2716 0Z" fill="white"/>
<path d="M17.286 0H18.2876L16.9122 4.64237C16.9071 4.65977 16.8952 4.66847 16.8765 4.66847L15.9424 4.66381C15.9378 4.66375 15.9333 4.66268 15.9292 4.66068C15.9251 4.65868 15.9215 4.65581 15.9188 4.6523C15.916 4.64878 15.9142 4.64471 15.9133 4.6404C15.9125 4.63609 15.9127 4.63166 15.914 4.62746L17.286 0Z" fill="white"/>
<path d="M20.992 0H23.3936L23.1768 0.75089C23.1753 0.756247 23.172 0.760979 23.1674 0.76435C23.1628 0.767721 23.1571 0.769544 23.1513 0.769534C22.4397 0.768602 21.7315 0.745297 21.0469 0.785847C20.61 0.811483 20.5295 1.2114 20.4447 1.55025C20.3879 1.77585 20.5213 1.84203 20.7294 1.84669C21.1206 1.85477 21.5117 1.85648 21.9025 1.85182C22.0104 1.85058 22.1318 1.88119 22.2667 1.94364C22.8516 2.21445 22.8256 2.6936 22.6681 3.21564C22.4667 3.88309 22.2773 4.37297 21.5359 4.58225C21.3602 4.63165 21.0612 4.65729 20.6389 4.65915C19.9442 4.66195 19.2496 4.66257 18.5552 4.66102C18.5506 4.66105 18.5461 4.66004 18.542 4.65808C18.5379 4.65613 18.5343 4.65327 18.5316 4.64974C18.5288 4.64621 18.527 4.6421 18.5261 4.63775C18.5253 4.63339 18.5255 4.62891 18.5268 4.62466L18.7315 3.92737C18.7346 3.91716 18.741 3.90817 18.7498 3.90178C18.7585 3.89539 18.7692 3.89194 18.7802 3.89195C19.4405 3.89226 20.1078 3.89195 20.7819 3.89102C21.1015 3.89071 21.3418 3.78273 21.5027 3.56708C21.6323 3.39369 21.8558 2.81013 21.599 2.6675C21.546 2.63767 21.455 2.6226 21.3259 2.62229C20.9559 2.62136 20.586 2.6212 20.2163 2.62182C19.816 2.62275 19.4431 2.39064 19.3815 2.01542C19.3631 1.90418 19.3803 1.75161 19.433 1.55771C19.5364 1.17613 19.6175 0.914025 19.6763 0.771398C19.8733 0.295508 20.4592 0.0372881 20.992 0Z" fill="white"/>
<path d="M25.2226 0H26.1833L25.5849 2.02381C25.5843 2.0257 25.5842 2.02771 25.5845 2.02966C25.5849 2.03161 25.5857 2.03346 25.5869 2.03505C25.5881 2.03664 25.5897 2.03793 25.5915 2.03881C25.5934 2.03969 25.5954 2.04014 25.5974 2.04013L28.0092 2.03873C28.0249 2.03873 28.0349 2.03143 28.039 2.01682L28.6345 0H29.5966L28.2202 4.64144C28.216 4.65605 28.206 4.66335 28.1903 4.66335L27.2836 4.66195C27.2804 4.66194 27.2771 4.66119 27.2742 4.65976C27.2713 4.65832 27.2688 4.65623 27.2668 4.65366C27.2649 4.65109 27.2635 4.6481 27.2629 4.64493C27.2623 4.64176 27.2625 4.63849 27.2634 4.63538L27.7933 2.84742C27.7988 2.82908 27.7916 2.81992 27.7716 2.81992H25.3739C25.3578 2.81992 25.3476 2.82753 25.3431 2.84275L24.8204 4.60742C24.8155 4.6239 24.8052 4.6384 24.791 4.64867C24.7768 4.65894 24.7595 4.66442 24.7418 4.66428L23.8722 4.66242C23.8536 4.66242 23.8469 4.65356 23.852 4.63585L25.2226 0Z" fill="white"/>
<path d="M35.1476 0H36.2499L36.7437 4.60415C36.7463 4.62621 36.7376 4.64299 36.7177 4.65449C36.642 4.69784 35.9261 4.66102 35.7874 4.66288C35.7767 4.66301 35.7664 4.65914 35.7586 4.65208C35.7509 4.64503 35.7463 4.63535 35.746 4.62513L35.7118 3.7372C35.7114 3.72558 35.7063 3.71456 35.6977 3.70646C35.6891 3.69837 35.6775 3.69385 35.6655 3.69386H33.5583C33.5503 3.69385 33.5425 3.69582 33.5356 3.69958C33.5287 3.70333 33.5229 3.70875 33.5188 3.7153L32.9305 4.61627C32.9208 4.63111 32.9074 4.64334 32.8914 4.65181C32.8755 4.66029 32.8576 4.66473 32.8395 4.66475L31.8846 4.66148C31.8522 4.66148 31.8451 4.64843 31.8634 4.62233L35.1476 0ZM35.5706 0.582161L34.0087 2.96581C34.0068 2.96864 34.0057 2.97192 34.0056 2.97531C34.0054 2.97869 34.0062 2.98205 34.0079 2.98503C34.0096 2.988 34.0121 2.99047 34.0151 2.99217C34.0181 2.99388 34.0216 2.99475 34.0251 2.9947H35.6568C35.6596 2.99471 35.6624 2.99416 35.665 2.99309C35.6676 2.99203 35.6699 2.99047 35.6718 2.98851C35.6738 2.98655 35.6753 2.98423 35.6763 2.98169C35.6772 2.97915 35.6777 2.97644 35.6776 2.97373C35.6458 2.2985 35.6159 1.62079 35.5879 0.940593C35.5835 0.826864 35.5868 0.710494 35.5981 0.591483C35.5984 0.588236 35.5977 0.584964 35.5959 0.582199C35.5941 0.579434 35.5914 0.57734 35.5882 0.576259C35.585 0.575177 35.5815 0.575172 35.5783 0.576244C35.5751 0.577316 35.5724 0.579402 35.5706 0.582161Z" fill="white"/>
<path d="M39.34 0H40.3425L38.9753 4.61208C38.9708 4.62746 38.9612 4.64098 38.9479 4.65058C38.9347 4.66017 38.9186 4.66531 38.9021 4.66521L38.0021 4.66008C37.9971 4.66007 37.9922 4.65892 37.9877 4.65674C37.9832 4.65455 37.9793 4.65139 37.9764 4.6475C37.9734 4.64361 37.9713 4.6391 37.9705 4.63433C37.9696 4.62955 37.9699 4.62465 37.9713 4.62L39.34 0Z" fill="white"/>
<path d="M42.067 0H44.6609C45.1687 0.0798588 45.4603 0.325184 45.5358 0.735974C45.5955 1.06225 45.4442 1.47335 45.3286 1.79682C45.1677 2.24708 44.71 2.48712 44.2514 2.55051C44.2466 2.55105 44.2422 2.55316 44.2389 2.55648C44.2356 2.55981 44.2335 2.56414 44.2331 2.56875C44.2327 2.57336 44.234 2.57796 44.2367 2.58177C44.2394 2.58558 44.2434 2.58837 44.248 2.58966C44.5799 2.69593 44.9124 2.87212 44.9119 3.25992C44.9104 3.68873 44.7799 4.14504 44.8998 4.63864C44.9034 4.65356 44.8973 4.66102 44.8815 4.66102H44.0288C44.0221 4.66099 44.0156 4.65902 44.0101 4.65536C44.0046 4.6517 44.0004 4.64653 43.998 4.64051C43.8501 4.2583 43.9426 3.8472 43.9956 3.45708C44.0379 3.14665 43.9715 2.91919 43.6145 2.915C43.1484 2.91003 42.6824 2.91018 42.2164 2.91547C42.2098 2.91561 42.2035 2.91776 42.1983 2.92162C42.1931 2.92547 42.1893 2.93083 42.1875 2.93691L41.6889 4.63538C41.6834 4.65403 41.6706 4.66319 41.6503 4.66288L40.7075 4.66008C40.6895 4.66008 40.6831 4.65185 40.6882 4.63538L42.067 0ZM42.8244 0.783983L42.4375 2.09699C42.4321 2.11595 42.4396 2.12573 42.4602 2.12636C43.063 2.14065 43.4937 2.14081 43.7523 2.12682C44.1097 2.10771 44.3082 1.89843 44.4022 1.57869C44.4942 1.265 44.7105 0.786314 44.1338 0.774661C43.7012 0.766271 43.2703 0.765184 42.8412 0.771398C42.8373 0.771535 42.8335 0.772834 42.8305 0.775101C42.8275 0.777369 42.8253 0.780483 42.8244 0.783983Z" fill="white"/>
<path d="M47.5111 0H48.5132L47.369 3.86631C47.3681 3.86934 47.368 3.87253 47.3686 3.87562C47.3692 3.87872 47.3706 3.88164 47.3726 3.88416C47.3746 3.88668 47.3772 3.88874 47.3802 3.89017C47.3831 3.8916 47.3864 3.89237 47.3897 3.89242L49.5524 3.89102C49.5543 3.89102 49.5562 3.89145 49.5579 3.89229C49.5597 3.89312 49.5612 3.89433 49.5623 3.89582C49.5635 3.89731 49.5643 3.89904 49.5646 3.90087C49.565 3.90271 49.5649 3.9046 49.5644 3.9064L49.3505 4.63678C49.3486 4.64376 49.3443 4.64992 49.3384 4.65431C49.3325 4.65869 49.3252 4.66105 49.3177 4.66102L46.1598 4.66148C46.1563 4.66147 46.1528 4.66067 46.1497 4.65915C46.1466 4.65763 46.1438 4.65543 46.1417 4.65272C46.1396 4.65001 46.1382 4.64686 46.1376 4.64353C46.1369 4.6402 46.1371 4.63677 46.1381 4.63352L47.5111 0Z" fill="white"/>
<path d="M51.5285 0H52.5291L51.16 4.62466C51.157 4.63475 51.1508 4.64363 51.1423 4.64995C51.1338 4.65626 51.1234 4.65966 51.1128 4.65962L50.1733 4.66381C50.1702 4.66387 50.1672 4.66322 50.1645 4.66191C50.1617 4.6606 50.1593 4.65867 50.1574 4.65627C50.1555 4.65387 50.1543 4.65108 50.1537 4.6481C50.1531 4.64512 50.1532 4.64204 50.154 4.63911L51.5285 0Z" fill="white"/>
<path d="M54.3377 0H55.5922L56.6945 3.8211C56.6997 3.83944 56.705 3.83944 56.7104 3.8211L57.8406 0H58.6987L57.3256 4.64144C57.3211 4.65636 57.3107 4.66381 57.2943 4.66381L56.0547 4.66055C56.0463 4.66053 56.0381 4.65783 56.0314 4.65286C56.0247 4.64789 56.0199 4.64093 56.0176 4.63305L54.9679 0.866017C54.9573 0.828418 54.9465 0.828418 54.9356 0.866017L53.8275 4.6186C53.8235 4.63207 53.815 4.6439 53.8035 4.65231C53.7919 4.66072 53.7779 4.66524 53.7635 4.66521L52.9955 4.66195C52.9695 4.66164 52.96 4.64952 52.9671 4.62559L54.3377 0Z" fill="white"/>
<path d="M60.5102 0H63.9182L63.7004 0.747161C63.6985 0.753834 63.6944 0.759723 63.6887 0.763931C63.6829 0.768139 63.6759 0.770434 63.6686 0.770466L61.2217 0.768602C61.2157 0.768576 61.2097 0.770475 61.2049 0.774008C61.2 0.777542 61.1964 0.782517 61.1948 0.788178L60.8864 1.8178C60.8852 1.82203 60.8851 1.82647 60.8859 1.83077C60.8868 1.83508 60.8886 1.83912 60.8913 1.8426C60.894 1.84608 60.8975 1.84889 60.9015 1.85081C60.9055 1.85273 60.9099 1.85372 60.9144 1.85369L62.9171 1.85042C62.9209 1.85041 62.9247 1.85128 62.9282 1.85296C62.9317 1.85464 62.9347 1.85709 62.937 1.86011C62.9393 1.86313 62.9409 1.86665 62.9416 1.87039C62.9424 1.87413 62.9422 1.87798 62.9412 1.88165L62.7301 2.59945C62.7282 2.60593 62.7241 2.61161 62.7187 2.61564C62.7132 2.61968 62.7066 2.62184 62.6998 2.62182H60.6822C60.6731 2.62179 60.6643 2.62463 60.6571 2.62991C60.6498 2.6352 60.6444 2.64266 60.6417 2.65119L60.2804 3.86258C60.2743 3.88247 60.282 3.89242 60.3035 3.89242L62.7446 3.89055C62.7616 3.89055 62.7679 3.89847 62.7634 3.91432L62.5504 4.63025C62.5443 4.65045 62.5304 4.66055 62.5085 4.66055L59.167 4.66148C59.1624 4.66151 59.1578 4.66049 59.1536 4.65851C59.1495 4.65653 59.1458 4.65364 59.143 4.65006C59.1402 4.64649 59.1383 4.64234 59.1375 4.63793C59.1366 4.63352 59.1368 4.62898 59.1381 4.62466L60.5102 0Z" fill="white"/>
<path d="M66.4204 0H68.8138C68.7675 0.251384 68.6989 0.501215 68.608 0.749491C68.6032 0.763164 68.5933 0.77 68.5782 0.77C67.9207 0.767514 67.2638 0.768446 66.6073 0.772797C66.3115 0.775127 66.1404 0.852966 66.0128 1.1233C65.9222 1.31487 65.7117 1.82712 66.0836 1.8411C66.496 1.85664 66.9084 1.85959 67.3208 1.84996C67.3988 1.84809 67.5 1.86938 67.6243 1.91381C68.08 2.07648 68.2833 2.44797 68.1754 2.92525C68.0063 3.67008 67.8011 4.34174 66.9835 4.57945C66.8107 4.62979 66.5122 4.65604 66.0879 4.65822C65.3868 4.66226 64.6833 4.6635 63.9773 4.66195C63.974 4.66185 63.9708 4.66104 63.9679 4.65956C63.965 4.65808 63.9625 4.65598 63.9605 4.65343C63.9586 4.65087 63.9573 4.64791 63.9567 4.64479C63.9561 4.64166 63.9562 4.63844 63.9571 4.63538L64.1691 3.91432C64.1709 3.90824 64.1747 3.90289 64.1799 3.89903C64.1851 3.89518 64.1914 3.89302 64.198 3.89288C64.876 3.89039 65.5514 3.89039 66.2243 3.89288C66.6424 3.89443 66.9201 3.70753 67.0572 3.33216C67.1777 3.00263 67.2885 2.62369 66.7532 2.62229C66.1727 2.62089 64.7766 2.82551 64.8055 1.87932C64.8117 1.67097 64.9293 1.35915 65.0011 1.10792C65.2077 0.381737 65.6437 0.077839 66.4204 0Z" fill="white"/>
<path d="M6.59155 4.29092C6.31116 4.07216 6.16294 3.80213 6.14688 3.48083C6.13949 3.33106 6.19634 3.04953 6.31742 2.63626C6.51334 1.96693 6.65032 1.50456 6.72837 1.24914C6.9601 0.490789 7.77332 0.0102386 8.55763 0.0111708C8.91703 0.0114815 9.27642 0.0116369 9.63582 0.0116369C9.9737 0.0116369 10.2157 0.0343205 10.3618 0.0796877C10.8118 0.219518 11.242 0.604052 11.2714 1.08227C11.2788 1.20284 11.2396 1.4101 11.1539 1.70405C10.9814 2.29445 10.8063 2.88391 10.6287 3.47244C10.4673 4.00706 9.83286 4.44566 9.30822 4.58596C9.12708 4.63443 8.84669 4.65976 8.46706 4.66193C7.75742 4.66566 7.15425 4.73045 6.59155 4.29092ZM7.06608 3.3438C7.06512 3.56753 7.24048 3.88028 7.51027 3.88028C7.95093 3.88028 8.39287 3.88028 8.83609 3.88028C9.42336 3.88028 9.70664 3.52931 9.8661 3.01659C10.0842 2.31558 10.2335 1.81887 10.3141 1.52647C10.4073 1.18901 10.3186 0.960154 10.0482 0.8399C9.95314 0.79795 9.8152 0.777287 9.63437 0.777908C9.2981 0.779151 8.96151 0.782414 8.62459 0.787696C8.05852 0.796552 7.71502 1.03193 7.55122 1.55956C7.40701 2.02473 7.26537 2.49052 7.12631 2.95693C7.08648 3.09117 7.06641 3.22013 7.06608 3.3438Z" fill="white"/>
<path d="M52.2749 44H30.0053C30.0053 43.9987 30.0053 43.9978 30.0053 43.9972C30.0053 43.9947 30.0053 43.9935 30.0053 43.9935L0.53914 43.8298C0.534668 43.8298 0.530266 43.8287 0.526281 43.8268C0.522296 43.8248 0.518836 43.822 0.516174 43.8186C0.513512 43.8152 0.511721 43.8112 0.510941 43.807C0.510161 43.8028 0.510414 43.7985 0.51168 43.7944L10.7193 9.3537C10.7221 9.34456 10.7279 9.33653 10.7358 9.33082C10.7437 9.32511 10.7533 9.32202 10.7632 9.32201H23.8383C23.8787 9.32201 23.8935 9.34081 23.8826 9.37841L16.8782 33.014C16.8775 33.0166 16.8773 33.0193 16.8778 33.022C16.8783 33.0246 16.8794 33.0271 16.8811 33.0293C16.8827 33.0315 16.8848 33.0332 16.8872 33.0344C16.8896 33.0357 16.8923 33.0363 16.8951 33.0363L29.1314 33.0321C29.1793 33.0321 29.191 33.0122 29.1666 32.9725C27.9434 30.9813 27.3359 28.7454 27.3571 26.4168C27.4443 17.0127 35.1872 9.37654 44.8861 9.05587C45.1058 9.04872 45.4268 9.04608 45.8491 9.04794C66.3913 9.13899 86.93 9.23081 107.465 9.32341C107.47 9.32337 107.474 9.32433 107.478 9.3262C107.482 9.32808 107.485 9.33082 107.488 9.33421C107.49 9.3376 107.492 9.34155 107.493 9.34575C107.494 9.34994 107.494 9.35426 107.492 9.35837L104.308 20.1043C104.304 20.1174 104.295 20.1239 104.28 20.1239H92.0861C92.0713 20.1239 92.062 20.1308 92.0581 20.1444L85.0426 43.8037C85.041 43.8097 85.0373 43.8149 85.0323 43.8186C85.0272 43.8223 85.021 43.8243 85.0147 43.8243C80.6425 43.8249 76.2983 43.8283 71.982 43.8345C71.9618 43.8345 71.9428 43.8353 71.9251 43.8368C71.884 43.8409 71.8691 43.8236 71.8803 43.7851L78.8857 20.151C78.8867 20.1478 78.8868 20.1445 78.8862 20.1413C78.8856 20.1381 78.8842 20.1351 78.8822 20.1325C78.8801 20.1298 78.8775 20.1277 78.8744 20.1262C78.8713 20.1247 78.8679 20.1239 78.8645 20.1239H66.5511C66.5487 20.1239 66.5464 20.1246 66.5444 20.1257C66.5423 20.1269 66.5406 20.1285 66.5395 20.1305C66.5383 20.1325 66.5377 20.1347 66.5377 20.137C66.5377 20.1393 66.5383 20.1415 66.5395 20.1435C67.7473 22.1235 68.389 24.3626 68.3673 26.6638C68.284 35.5673 61.4472 42.9732 52.2749 44ZM50.2698 19.6793C44.4776 17.8242 38.9792 22.948 40.6403 28.6251C40.6445 28.6394 40.6541 28.6453 40.6692 28.6429L46.0924 27.8356C46.1098 27.8328 46.1225 27.8238 46.1305 27.8085L50.292 19.731C50.2944 19.7262 50.2957 19.721 50.2959 19.7157C50.2961 19.7104 50.2951 19.7052 50.293 19.7003C50.2909 19.6954 50.2877 19.691 50.2837 19.6874C50.2797 19.6837 50.275 19.681 50.2698 19.6793ZM54.1499 28.1101C54.3648 28.4264 54.6685 28.6049 55.061 28.6457C55.0664 28.6462 55.0718 28.6448 55.0763 28.6418C55.0808 28.6389 55.0841 28.6344 55.0855 28.6293C56.171 24.9238 54.1928 21.0864 50.4408 19.7347C50.4373 19.7338 50.4336 19.7341 50.4303 19.7355C50.427 19.737 50.4243 19.7395 50.4228 19.7427C50.4212 19.7459 50.4209 19.7495 50.4218 19.7529C50.4227 19.7563 50.4249 19.7593 50.4278 19.7613C51.216 20.2181 51.3721 21.1694 50.9067 21.9193C49.7277 23.8201 48.5486 25.7187 47.3696 27.6151C47.3676 27.6183 47.3666 27.622 47.3668 27.6257C47.3669 27.6294 47.3682 27.633 47.3704 27.6361C47.3726 27.6391 47.3757 27.6416 47.3793 27.6431C47.3829 27.6445 47.3869 27.645 47.3908 27.6445C47.7197 27.5938 48.0514 27.5435 48.3861 27.4935C48.6202 27.4583 48.807 27.4515 48.9464 27.4729C49.5674 27.5676 49.9331 28.0015 49.9923 28.6154C49.9942 28.6334 50.0045 28.6424 50.0231 28.6424L53.3652 28.6419C53.3678 28.642 53.3704 28.6413 53.3726 28.6399C53.3749 28.6386 53.3767 28.6366 53.3778 28.6344C53.379 28.6321 53.3795 28.6295 53.3792 28.627C53.3789 28.6244 53.3779 28.622 53.3762 28.62L53.105 28.29C53.0938 28.276 53.079 28.269 53.0607 28.269H52.4927C52.4737 28.269 52.459 28.2616 52.4484 28.2467L52.3616 28.126C52.3456 28.1039 52.3515 28.0929 52.3795 28.0929L54.121 28.0947C54.1268 28.0947 54.1325 28.0961 54.1375 28.0988C54.1426 28.1015 54.1469 28.1054 54.1499 28.1101ZM50.6543 33.3029L45.9628 28.8456C45.951 28.8341 45.9367 28.8284 45.92 28.8284H40.7391C40.7349 28.8284 40.7308 28.8293 40.7271 28.8312C40.7234 28.8331 40.7202 28.8358 40.7177 28.8391C40.7153 28.8424 40.7137 28.8462 40.713 28.8503C40.7124 28.8543 40.7127 28.8585 40.714 28.8624C42.1039 32.8336 46.5809 34.8858 50.6456 33.344C50.6496 33.3425 50.6531 33.3401 50.6559 33.337C50.6586 33.3338 50.6606 33.33 50.6614 33.3259C50.6623 33.3219 50.6621 33.3176 50.6608 33.3136C50.6596 33.3096 50.6573 33.3059 50.6543 33.3029ZM47.4057 28.8498C48.4145 29.5903 49.405 30.3252 50.3772 31.0545C50.5895 31.2136 50.7355 31.3433 50.8152 31.4437C51.2584 32.0035 51.1842 32.7637 50.7169 33.2904C50.7151 33.2924 50.714 33.2951 50.7139 33.2978C50.7137 33.3005 50.7145 33.3032 50.7161 33.3055C50.7177 33.3077 50.72 33.3094 50.7226 33.3103C50.7253 33.3112 50.7282 33.3112 50.7309 33.3104C50.8218 33.279 50.9202 33.2383 51.0262 33.1883C52.968 32.2766 54.2967 30.8354 55.0123 28.8647C55.0139 28.8607 55.0144 28.8563 55.0138 28.852C55.0132 28.8477 55.0116 28.8436 55.0091 28.84C55.0065 28.8364 55.0031 28.8335 54.9991 28.8315C54.9952 28.8295 54.9908 28.8284 54.9863 28.8284H47.4129C47.4104 28.8283 47.4079 28.829 47.4058 28.8304C47.4038 28.8318 47.4022 28.8339 47.4014 28.8363C47.4006 28.8386 47.4006 28.8412 47.4014 28.8437C47.4022 28.8461 47.4037 28.8482 47.4057 28.8498Z" fill="white"/>
</g>
<defs>
<clipPath id="clip0_425_1721">
<rect width="107" height="44" fill="white" transform="translate(0.5)"/>
</clipPath>
</defs>
</svg>
