<svg width="299" height="299" viewBox="0 0 299 299" fill="none" xmlns="http://www.w3.org/2000/svg">
<path fill-rule="evenodd" clip-rule="evenodd" d="M295.949 146.437H279.913C279.377 123.119 272.73 100.694 260.543 80.9957L261.955 81.3087C262.173 81.3576 262.394 81.3801 262.615 81.3801C263.413 81.3801 264.194 81.0646 264.773 80.488L298.11 47.1493C298.896 46.3627 299.188 45.2093 298.878 44.139C298.565 43.071 297.699 42.2564 296.608 42.0153L270.684 36.2583C270.449 34.2982 269.588 32.3985 268.087 30.8973C266.583 29.3961 264.686 28.5357 262.724 28.2971L256.967 2.37101C256.732 1.28356 255.914 0.413969 254.843 0.100915C253.869 -0.182237 252.555 0.147903 251.83 0.87287L218.496 34.2122C217.761 34.9493 217.451 36.0118 217.678 37.0303L217.988 38.4393C198.291 26.251 175.867 19.6042 152.551 19.0709V3.03129C152.551 1.56854 151.519 0.345621 150.144 0.0496544H148.852C147.48 0.346232 146.447 1.56854 146.447 3.03129V19.0709C76.9409 20.6752 20.6897 76.9235 19.0854 146.437H3.05042C1.36564 146.437 0 147.805 0 149.49C0 151.175 1.36625 152.541 3.05042 152.541H19.086C20.6903 222.057 76.9415 278.303 146.448 279.907V295.946C146.448 297.631 147.816 299 149.498 299C151.18 299 152.552 297.631 152.552 295.946V279.91C186.253 279.141 217.825 265.655 241.744 241.735C265.656 217.818 279.144 186.244 279.913 152.54H295.949C297.634 152.54 298.999 151.174 298.999 149.49C298.999 147.805 297.633 146.437 295.949 146.437ZM259.458 35.2136C260.049 34.6168 260.83 34.3208 261.613 34.3208C262.397 34.3208 263.174 34.6161 263.771 35.2136C264.962 36.4017 264.962 38.3362 263.771 39.5268L151.658 151.648C150.47 152.836 148.533 152.836 147.345 151.648C146.766 151.071 146.447 150.305 146.447 149.49C146.447 148.676 146.766 147.909 147.345 147.333L259.458 35.2136ZM149.497 179.874C166.248 179.874 179.882 166.245 179.882 149.49C179.882 144.583 178.702 139.784 176.458 135.474L196.205 115.73C203.264 125.507 207.132 137.363 207.132 149.491C207.132 181.272 181.279 207.129 149.497 207.129C117.716 207.129 91.8659 181.272 91.8659 149.491C91.8659 117.71 117.719 91.85 149.497 91.85C161.625 91.85 173.479 95.7184 183.256 102.784L163.516 122.531C159.2 120.284 154.405 119.108 149.497 119.108C132.75 119.108 119.117 132.736 119.117 149.49C119.117 166.245 132.75 179.874 149.497 179.874ZM152.551 273.806V257.844C152.551 256.16 151.182 254.794 149.497 254.794C147.813 254.794 146.447 256.159 146.447 257.844V273.806C80.3013 272.205 26.7935 218.691 25.1893 152.542H41.1505C42.8347 152.542 44.2009 151.175 44.2009 149.491C44.2009 147.807 42.8353 146.437 41.1505 146.437H25.1893C26.7935 80.2878 80.3013 26.7739 146.447 25.1751V41.1372C146.447 42.8221 147.816 44.1878 149.497 44.1878C151.179 44.1878 152.551 42.8214 152.551 41.1372V25.1751C176.768 25.7579 199.958 33.2565 219.879 46.9656L223.372 62.672L211.374 74.665C194 60.2841 172.142 52.3894 149.497 52.3894C95.958 52.3894 52.4021 95.9478 52.4021 149.49C52.4021 203.033 95.958 246.588 149.497 246.588C203.037 246.588 246.593 203.03 246.593 149.49C246.593 126.847 238.699 104.988 224.315 87.6107L236.313 75.6146L252.019 79.1015C265.725 99.024 273.223 122.221 273.803 146.436H257.847C256.163 146.436 254.793 147.805 254.793 149.49C254.793 151.175 256.162 152.54 257.847 152.54H273.808C272.204 218.69 218.696 272.204 152.55 273.805L152.551 273.806Z" fill="#D1CCFB"/>
</svg>
