<svg width="148" height="148" viewBox="0 0 148 148" fill="none" xmlns="http://www.w3.org/2000/svg">
<path fill-rule="evenodd" clip-rule="evenodd" d="M146.49 72.4837H138.552C138.287 60.942 134.997 49.842 128.964 40.0915L129.663 40.2465C129.771 40.2706 129.881 40.2818 129.99 40.2818C130.385 40.2818 130.771 40.1256 131.058 39.8402L147.559 23.3381C147.949 22.9487 148.093 22.3779 147.94 21.848C147.785 21.3194 147.356 20.9162 146.816 20.7969L133.984 17.9473C133.868 16.977 133.442 16.0367 132.698 15.2937C131.954 14.5506 131.015 14.1247 130.044 14.0066L127.194 1.17361C127.078 0.635342 126.673 0.204908 126.143 0.0499512C125.661 -0.0902042 125.011 0.0732096 124.652 0.432056L108.152 16.9345C107.788 17.2993 107.635 17.8252 107.747 18.3294L107.901 19.0268C98.1506 12.9938 87.0512 9.70376 75.5102 9.43976V1.50044C75.5102 0.776403 74.9994 0.171077 74.3189 0.0245781H73.6795C72.9999 0.171379 72.4888 0.776403 72.4888 1.50044V9.43976C38.0845 10.2339 10.241 38.0759 9.44697 72.4837H1.50991C0.67597 72.4837 0 73.1612 0 73.9952C0 74.8292 0.676272 75.5052 1.50991 75.5052H9.44727C10.2413 109.915 38.0848 137.755 72.4892 138.549V146.488C72.4892 147.322 73.1666 148 73.9991 148C74.8315 148 75.5105 147.322 75.5105 146.488V138.551C92.1923 138.17 107.82 131.495 119.659 119.655C131.495 107.816 138.172 92.1876 138.552 75.5049H146.49C147.324 75.5049 148 74.8286 148 73.9949C148 73.1612 147.323 72.4837 146.49 72.4837ZM128.427 17.4301C128.72 17.1347 129.106 16.9882 129.494 16.9882C129.882 16.9882 130.267 17.1344 130.562 17.4301C131.152 18.0182 131.152 18.9758 130.562 19.5651L75.0683 75.0633C74.4802 75.6514 73.5215 75.6514 72.9335 75.0633C72.6465 74.7779 72.4888 74.3985 72.4888 73.9952C72.4888 73.592 72.6465 73.2126 72.9335 72.9271L128.427 17.4301ZM73.9988 89.0344C82.2898 89.0344 89.0383 82.2883 89.0383 73.9952C89.0383 71.5661 88.4545 69.191 87.3439 67.0575L97.118 57.2844C100.612 62.124 102.527 67.9924 102.527 73.9955C102.527 89.7265 89.7303 102.525 73.9988 102.525C58.2672 102.525 45.4721 89.7265 45.4721 73.9955C45.4721 58.2646 58.269 45.4642 73.9988 45.4642C80.0015 45.4642 85.8693 47.379 90.7086 50.8762L80.9376 60.6509C78.8012 59.5387 76.4278 58.9563 73.9988 58.9563C65.7089 58.9563 58.9607 65.7022 58.9607 73.9952C58.9607 82.2883 65.7092 89.0344 73.9988 89.0344ZM75.5102 135.529V127.629C75.5102 126.795 74.8327 126.119 73.9988 126.119C73.1648 126.119 72.4888 126.795 72.4888 127.629V135.529C39.7478 134.737 13.2624 108.248 12.4683 75.5055H20.3688C21.2024 75.5055 21.8787 74.8292 21.8787 73.9955C21.8787 73.1618 21.2027 72.484 20.3688 72.484H12.4683C13.2624 39.7411 39.7478 13.2527 72.4888 12.4613V20.3622C72.4888 21.1962 73.1663 21.8722 73.9988 21.8722C74.8312 21.8722 75.5102 21.1959 75.5102 20.3622V12.4613C87.4973 12.7497 98.9758 16.4614 108.837 23.2472L110.565 31.0216L104.626 36.9579C96.027 29.8396 85.2075 25.9319 73.9988 25.9319C47.4976 25.9319 25.9382 47.4926 25.9382 73.9952C25.9382 100.498 47.4976 122.057 73.9988 122.057C100.5 122.057 122.059 100.496 122.059 73.9952C122.059 62.7873 118.152 51.9673 111.032 43.3658L116.971 37.4279L124.745 39.1539C131.529 49.0152 135.241 60.4971 135.528 72.4834H127.63C126.796 72.4834 126.118 73.1609 126.118 73.9949C126.118 74.8289 126.796 75.5049 127.63 75.5049H135.53C134.736 108.248 108.251 134.737 75.5102 135.529Z" fill="black"/>
</svg>
