<svg width="71" height="71" viewBox="0 0 71 71" fill="none" xmlns="http://www.w3.org/2000/svg">
<circle cx="35.5" cy="35.5" r="35.5" fill="black" fill-opacity="0.2"/>
<g clip-path="url(#clip0_2483_4844)">
<path d="M45.7119 20.2197C45.7119 19.7584 45.4448 19.3213 45.032 19.1271C44.5949 18.9085 44.1093 18.9814 43.7451 19.2728L32.9883 27.8442L45.7119 40.5678V20.2197Z" fill="white"/>
<path d="M52.6419 50.9262L21.0757 19.36C20.6022 18.8865 19.8325 18.8865 19.359 19.36C18.8855 19.8335 18.8855 20.6032 19.359 21.0767L26.998 28.7182H26.2866C25.5339 28.7182 24.8782 29.0581 24.4412 29.5923C24.077 30.0051 23.8584 30.5636 23.8584 31.1463V40.859C23.8584 42.1945 24.9511 43.2871 26.2866 43.2871H31.9199L43.7451 52.7327C43.9636 52.9027 44.2307 52.9998 44.4978 52.9998C44.6678 52.9998 44.862 52.9512 45.032 52.8784C45.4448 52.6841 45.7119 52.2471 45.7119 51.7857V47.432L50.9228 52.6429C51.1607 52.8808 51.4715 52.9998 51.7823 52.9998C52.0931 52.9998 52.4039 52.8808 52.6419 52.6453C53.1154 52.1694 53.1154 51.4021 52.6419 50.9262Z" fill="white"/>
</g>
<defs>
<clipPath id="clip0_2483_4844">
<rect width="34" height="34" fill="white" transform="translate(19 19)"/>
</clipPath>
</defs>
</svg>
