<svg width="82" height="82" viewBox="0 0 82 82" fill="none" xmlns="http://www.w3.org/2000/svg">
<circle cx="41" cy="41" r="41" fill="url(#paint0_linear_425_1812)"/>
<path d="M67.7793 42.5492L67.7777 47.1097C67.7777 47.1374 67.764 47.1513 67.7368 47.1513H67.0377C67.0105 47.1513 66.9969 47.1374 66.9969 47.1097L66.9961 41.6451V34.6399C66.9961 34.6223 67.0046 34.6137 67.0217 34.6143L67.7384 34.6215C67.7651 34.6215 67.7785 34.6348 67.7785 34.6615L67.7793 42.5492Z" fill="white"/>
<path d="M76.9695 34.6261L77.7703 34.6221C77.7954 34.6221 77.8079 34.6346 77.8079 34.6597V47.1119C77.8079 47.1385 77.7945 47.1519 77.7679 47.1519H77.0488C77.0412 47.1519 77.0338 47.1504 77.0268 47.1474C77.0199 47.1445 77.0136 47.1402 77.0083 47.1347C77.003 47.1293 76.9988 47.1228 76.996 47.1158C76.9932 47.1087 76.9918 47.1011 76.9919 47.0934L77.0079 45.8498C77.0106 45.6315 76.9676 45.6219 76.879 45.821C76.5896 46.4707 76.0718 46.9448 75.3255 47.2432C74.1088 47.6585 72.9341 47.603 71.8012 47.0766C70.7146 46.4328 70.1692 45.4398 69.8866 44.2346C69.4822 42.3736 69.6247 40.105 71.0293 38.6764C71.5172 38.2477 72.062 37.9637 72.6637 37.8244C74.3365 37.4264 76.1207 37.9605 76.9695 39.5317C76.9709 39.5343 76.9732 39.5365 76.976 39.5377C76.9787 39.5389 76.9818 39.5392 76.9848 39.5385C76.9877 39.5377 76.9903 39.536 76.9922 39.5336C76.9941 39.5312 76.9951 39.5283 76.9951 39.5253C76.9583 37.8893 77.0263 36.5143 76.9695 34.6261ZM72.0046 46.3655C73.3235 47.2304 74.9771 46.9709 75.9813 45.8987C76.521 45.3221 76.7989 44.5926 76.927 43.8102C77.2914 41.5969 76.662 38.3737 73.7728 38.3337C70.4647 38.26 70.2093 42.3424 70.8355 44.5942C71.0405 45.332 71.4302 45.9224 72.0046 46.3655Z" fill="white"/>
<path d="M54.5738 37.7155C57.419 37.4985 59.0133 39.3483 59.1815 42.0285C59.2672 44.2034 58.7803 46.5233 56.426 47.3057C55.7528 47.4941 55.074 47.555 54.3896 47.4883C51.4419 47.2008 50.453 44.5598 50.69 41.9645C50.8181 39.675 52.1066 37.834 54.5738 37.7155ZM51.5869 41.4656C51.1961 44.0961 52.0481 47.1687 55.3225 46.862C57.053 46.6995 58.0187 45.4543 58.2686 43.8079C58.6265 41.4488 58.0724 38.4715 55.1079 38.3345C53.0659 38.24 51.8751 39.5261 51.5869 41.4656Z" fill="white"/>
<path d="M10.5997 37.8368C11.9525 38.0664 12.9791 38.7396 13.6795 39.8564C14.3457 41.084 14.4683 42.5631 14.196 43.9188C14.0236 44.7964 13.6277 45.558 13.0084 46.2034C12.0307 47.1251 10.6958 47.4999 9.36168 47.4943C8.83156 47.4964 8.2921 47.435 7.7433 47.3101C5.78672 46.7736 4.67951 45.4846 4.42166 43.4431C4.34265 42.8174 4.35279 42.1691 4.45209 41.498C4.55192 40.9166 4.72782 40.3943 4.9798 39.9309C5.17039 39.5855 5.42904 39.2548 5.75576 38.9387C5.97144 38.7481 6.2437 38.5519 6.57255 38.3501C7.82818 37.741 9.17056 37.5699 10.5997 37.8368ZM8.68261 39.9581C8.08149 40.2058 7.70459 40.6908 7.55191 41.4131C7.29966 42.5927 7.26523 44.9454 8.878 45.2961C9.47539 45.4264 10.0103 45.3279 10.4828 45.0006C11.1218 44.4345 11.3028 43.4968 11.2547 42.6696C11.3716 41.0736 10.6557 39.3968 8.68261 39.9581Z" fill="white"/>
<path d="M21.6402 37.7203C24.3068 37.6626 25.1067 39.2714 25.0515 41.6465L25.0563 45.1107L25.0571 47.1094C25.0571 47.1207 25.0526 47.1315 25.0447 47.1394C25.0367 47.1474 25.0259 47.1519 25.0146 47.1519H22.2552C22.2285 47.1519 22.2151 47.1385 22.2151 47.1118L22.2127 45.2676L22.2119 42.3512C22.2092 42.081 22.1847 41.7685 22.1382 41.4135C22.0526 40.764 21.7379 40.1794 21.0588 40.0241C19.6366 39.699 18.7758 40.7624 18.7149 42.0725C18.6818 42.7916 18.6759 43.7042 18.6973 44.8104L18.6933 47.1527C18.4194 47.1527 15.8681 47.1767 15.8473 47.1134L15.8457 43.566L15.8473 39.683L15.8513 38.0918C15.8513 38.0683 15.8631 38.0566 15.8865 38.0566L18.5323 38.0662C18.5478 38.0662 18.5627 38.0723 18.5737 38.0833C18.5846 38.0943 18.5908 38.1091 18.5908 38.1246V39.0816C18.5908 39.1179 18.6025 39.1222 18.626 39.0944C19.1786 38.4426 19.8758 38.0272 20.7177 37.8484C21.047 37.7784 21.3545 37.7357 21.6402 37.7203Z" fill="white"/>
<path d="M33.1947 37.8911C34.122 38.1324 34.8596 38.6185 35.4073 39.3494C36.2073 40.5073 36.4179 41.8478 36.4243 43.2315C36.4243 43.2561 36.412 43.2684 36.3875 43.2684H29.6417C29.6118 43.2684 29.5968 43.2833 29.5968 43.3132C29.6056 44.2677 30.0084 45.1406 31.0134 45.3696C31.8454 45.5586 32.9481 45.5282 33.246 44.5656C33.2545 44.5373 33.2738 44.5232 33.3036 44.5232L36.1897 44.5328C36.2105 44.5328 36.218 44.5427 36.2121 44.5624C35.8005 45.9713 34.9119 46.8615 33.5463 47.233C30.9373 47.9441 27.8295 47.398 26.875 44.5096C26.5611 43.3751 26.5338 42.2319 26.7933 41.0798C27.3058 39.3475 28.456 38.2827 30.2439 37.8855C31.2555 37.6613 32.2391 37.6632 33.1947 37.8911ZM33.3917 41.7004C33.3517 40.8732 33.1427 39.8667 32.1866 39.6625C30.7291 39.3526 29.6585 40.259 29.5992 41.7028C29.5982 41.7322 29.6126 41.7469 29.6425 41.7469H33.3477C33.3781 41.7469 33.3928 41.7314 33.3917 41.7004Z" fill="white"/>
<path d="M61.1113 39.3446L61.1153 38.0842C61.1153 38.0795 61.1163 38.0749 61.1181 38.0705C61.1199 38.0662 61.1226 38.0623 61.1259 38.059C61.1293 38.0557 61.1333 38.0531 61.1376 38.0514C61.142 38.0497 61.1467 38.0489 61.1514 38.049L61.8785 38.0618C61.8998 38.0623 61.9105 38.0733 61.9105 38.0946L61.9137 39.086L61.9193 39.886C61.9195 39.8925 61.922 39.8988 61.9262 39.9039C61.9305 39.909 61.9363 39.9124 61.9426 39.9137C61.949 39.9151 61.9556 39.9141 61.9612 39.9111C61.9669 39.9081 61.9713 39.9032 61.9738 39.8972C62.5615 38.5038 63.9581 37.7543 65.4708 37.8984C65.478 37.899 65.4847 37.9023 65.4896 37.9077C65.4945 37.913 65.4972 37.92 65.4972 37.9273V38.6432C65.4972 38.6714 65.4831 38.6851 65.4548 38.684C64.1199 38.6384 62.9115 39.0652 62.3581 40.3304C61.9209 41.3314 61.9265 42.2387 61.9177 43.5632C61.9102 44.7446 61.9097 45.9263 61.9161 47.1082C61.9167 47.137 61.9022 47.1515 61.8729 47.1515H61.1562C61.1321 47.1515 61.1201 47.1394 61.1201 47.1154L61.1113 39.3446Z" fill="white"/>
<path d="M49.7106 38.0685L47.3587 45.6879L46.9231 47.1173C46.9162 47.1403 46.9009 47.1518 46.8775 47.1518H45.8613C45.8566 47.1517 45.8521 47.1502 45.8485 47.1475C45.8449 47.1447 45.8423 47.1409 45.8413 47.1365C45.8375 47.1237 45.833 47.1149 45.8276 47.1101L44.7146 43.3657L43.4301 39.0414C43.4205 39.0083 43.4109 39.0083 43.4013 39.0414L41.5915 45.1258L41.0069 47.1021C40.9995 47.1272 40.9834 47.1429 40.9589 47.1493C40.9402 47.1547 40.9186 47.1555 40.894 47.1518H39.9763C39.9411 47.1518 39.9184 47.1349 39.9083 47.1013L37.1191 38.0661L37.9888 38.0565L40.4568 46.1636C40.4578 46.1666 40.4598 46.1692 40.4623 46.1711C40.4649 46.1729 40.468 46.1739 40.4712 46.1739C40.4744 46.1739 40.4775 46.1729 40.4801 46.1711C40.4827 46.1692 40.4846 46.1666 40.4856 46.1636L42.904 38.1005C42.9125 38.0722 42.9315 38.0581 42.9608 38.0581L43.8561 38.0653C43.8962 38.0653 43.9218 38.0845 43.933 38.1229L46.3337 46.1235C46.3497 46.1764 46.3658 46.1764 46.3818 46.1235L48.825 38.1005C48.834 38.0701 48.8546 38.0551 48.8866 38.0557L49.7106 38.0685Z" fill="white"/>
<defs>
<linearGradient id="paint0_linear_425_1812" x1="0" y1="0" x2="82" y2="82" gradientUnits="userSpaceOnUse">
<stop stop-color="#898989"/>
<stop offset="1" stop-color="#1F1F1F"/>
</linearGradient>
</defs>
</svg>
