<svg width="140" height="46" viewBox="0 0 140 46" fill="none" xmlns="http://www.w3.org/2000/svg">
<path d="M71.6909 8.23181C69.0352 8.23697 66.3796 8.22148 63.724 8.18533C63.3707 8.17913 63.1306 8.03504 63.0671 7.68798C62.6472 5.38252 62.5449 2.47125 63.191 0.106907C63.2106 0.0356359 63.2576 0 63.332 0L90.164 0.0588769C90.1746 0.0589351 90.1849 0.0625011 90.193 0.0689836C90.2012 0.0754661 90.2068 0.0844742 90.2089 0.0945117C90.7223 2.43716 90.7874 4.79324 90.4042 7.16274C90.2864 7.89095 89.9657 8.26435 89.222 8.26745C86.7079 8.27571 84.1927 8.2628 81.6765 8.22871C81.6218 8.22768 81.5944 8.25453 81.5944 8.30928L81.5294 42.5225C81.5294 42.5772 81.502 42.6098 81.4472 42.6201C78.2225 43.2285 74.9988 43.2228 71.7761 42.6031C71.7224 42.5927 71.6955 42.5602 71.6955 42.5055L71.7652 8.30463C71.7652 8.25608 71.7404 8.23181 71.6909 8.23181Z" fill="white"/>
<path d="M16.5987 5.34993C23.0781 6.98142 23.7986 16.854 23.1773 21.9437C22.6567 26.1998 20.1607 28.4805 16.0037 28.9763C14.6526 29.1385 13.3031 29.2856 11.9552 29.4179C11.9415 29.419 11.9282 29.4229 11.9161 29.4293C11.9039 29.4357 11.8931 29.4445 11.8843 29.4551C11.8755 29.4658 11.8689 29.4781 11.8649 29.4914C11.8608 29.5047 11.8594 29.5187 11.8607 29.5325L13.4178 45.003C13.4271 45.097 13.3847 45.1486 13.2908 45.1579L4.94274 45.9992C4.89109 46.0044 4.86269 45.9817 4.85752 45.9311L0.875637 6.33378C0.870473 6.28626 0.891648 6.25993 0.939162 6.25476C6.9972 5.61126 11.1154 5.19809 13.2938 5.01526C14.2834 4.93263 15.385 5.04419 16.5987 5.34993ZM13.1869 12.9883C12.2511 12.3562 11.1743 12.5065 10.2354 12.6397C10.1868 12.647 10.1646 12.6748 10.1688 12.7234L11.117 22.1296C11.1211 22.1689 11.1428 22.188 11.1821 22.1869C12.6261 22.1451 14.3133 21.6555 14.5814 20.1588C14.8417 18.7024 14.6341 13.9644 13.1869 12.9883Z" fill="#969696"/>
<path d="M57.2821 38.4677C55.6924 41.6502 53.2119 42.3861 49.935 41.441C47.0593 40.6105 46.0615 38.0618 45.8818 35.3334C45.6169 31.2942 46.1653 25.0331 50.6833 23.2343C53.0926 22.2737 56.1294 21.7779 58.8222 21.2356C58.9162 21.216 58.9683 21.1587 58.9786 21.0637C59.085 20.0307 59.1992 18.9725 59.3211 17.889C59.4326 16.8958 59.0763 15.4642 57.9731 15.2024C55.8938 14.7081 55.8629 17.7325 55.7653 18.893C55.7639 18.9096 55.7592 18.9258 55.7516 18.9406C55.744 18.9554 55.7335 18.9686 55.7208 18.9792C55.7081 18.9899 55.6934 18.9979 55.6777 19.0028C55.6619 19.0077 55.6453 19.0093 55.6289 19.0076L47.9223 18.2345C47.8562 18.2273 47.8247 18.1901 47.8278 18.1229C48.0819 13.5941 49.5352 9.91593 54.6265 9.36745C59.5968 8.83137 66.82 10.1561 67.5591 16.3272C67.6314 16.9325 67.5957 17.9628 67.4522 19.4182C66.6847 27.1816 65.9105 34.944 65.1297 42.7053C65.1245 42.758 65.0956 42.7817 65.0429 42.7765L57.0822 41.9817C57.07 41.9806 57.0581 41.977 57.0473 41.9712C57.0364 41.9654 57.0268 41.9575 57.0191 41.948C57.0113 41.9385 57.0055 41.9276 57.0019 41.9158C56.9984 41.904 56.9973 41.8917 56.9986 41.8795L57.3363 38.4832C57.3466 38.3799 57.3286 38.3748 57.2821 38.4677ZM54.3662 34.2875C54.7442 35.5906 56.0457 36.4319 57.3239 36.7278C57.3273 36.7285 57.3308 36.7285 57.3342 36.7279C57.3376 36.7272 57.3408 36.7259 57.3435 36.724C57.3463 36.7221 57.3486 36.7197 57.3503 36.7168C57.352 36.714 57.353 36.7109 57.3534 36.7077L58.5805 24.652C58.5814 24.6398 58.5795 24.6275 58.575 24.6162C58.5705 24.6048 58.5634 24.5947 58.5544 24.5865C58.5454 24.5784 58.5346 24.5726 58.523 24.5694C58.5114 24.5662 58.4993 24.5659 58.4875 24.5683C56.6639 24.9402 54.9115 26.3176 54.6652 28.245C54.4803 29.6869 54.3512 31.1377 54.2779 32.5972C54.2386 33.3832 54.268 33.9467 54.3662 34.2875Z" fill="#969696"/>
<path d="M32.6231 26.9744C32.5642 29.157 32.5208 31.34 32.493 33.5236C32.479 34.6175 32.5239 36.3001 33.968 36.5402C35.5654 36.8067 35.9341 35.5951 36.0178 34.2487C36.1066 32.8078 36.1495 31.3643 36.1464 29.9182C36.1464 29.8645 36.1732 29.8382 36.2269 29.8392L43.7801 30.0205C43.8648 30.0226 43.9087 30.0659 43.9118 30.1506C44.0327 33.2323 43.6779 37.3335 41.6807 39.8296C39.6232 42.4015 35.4972 42.7098 32.3923 42.3535C28.9387 41.9584 26.4225 40.4927 25.3751 36.9989C24.8422 35.2233 24.602 33.4059 24.6547 31.5466C24.7652 27.636 24.867 23.7244 24.9599 19.8117C24.9868 18.6631 25.0415 17.7856 25.1241 17.1793C25.6587 13.2578 28.1454 10.9338 31.8779 10.2164C34.6543 9.68344 38.4007 9.87866 40.8549 11.4466C43.3138 13.0192 44.1907 15.8066 44.2031 18.6497C44.2103 20.3942 44.1174 23.2012 43.9242 27.0705C43.9211 27.1242 43.8927 27.1505 43.839 27.1495L32.713 26.8877C32.6541 26.8866 32.6241 26.9156 32.6231 26.9744ZM32.7904 23.0778L36.1603 23.1707C36.1801 23.1713 36.1997 23.1681 36.2182 23.1611C36.2367 23.1541 36.2536 23.1435 36.268 23.13C36.2824 23.1165 36.2939 23.1003 36.3021 23.0823C36.3102 23.0642 36.3147 23.0448 36.3153 23.0251L36.4361 18.6667C36.4582 17.8755 36.2994 17.1117 35.9946 16.5432C35.6899 15.9746 35.2641 15.6478 34.8108 15.6346L34.5598 15.6284C34.3352 15.6219 34.1107 15.6927 33.8989 15.8367C33.6872 15.9808 33.4925 16.1952 33.3259 16.4679C33.1593 16.7405 33.024 17.066 32.9279 17.4258C32.8318 17.7855 32.7766 18.1724 32.7656 18.5644L32.6448 22.9228C32.6442 22.9426 32.6475 22.9622 32.6544 22.9807C32.6614 22.9992 32.672 23.0161 32.6855 23.0305C32.699 23.0449 32.7153 23.0564 32.7333 23.0646C32.7513 23.0727 32.7707 23.0772 32.7904 23.0778Z" fill="#969696"/>
<path d="M95.1425 42.6992C85.6836 40.8027 83.0791 31.113 84.8206 22.8812C85.9702 17.4444 89.4904 13.3804 95.0542 12.1673C97.7687 11.577 100.836 11.5568 103.559 12.1952C109.313 13.5462 112.754 17.6365 113.825 23.3863C114.376 26.3425 114.343 29.2796 113.724 32.1975C111.797 41.297 103.495 44.3725 95.1425 42.6992ZM94.4437 29.9215C94.8853 33.09 96.3959 35.5132 99.9889 35.067C105.184 34.4224 104.902 25.3695 103.143 22.1499C102.132 20.2999 100.131 19.6399 98.1359 20.0644C94.1168 20.9197 94.0068 26.7887 94.4437 29.9215Z" fill="white"/>
<path d="M122.514 30.566C119.299 29.6348 116.283 27.3046 115.714 23.8076C114.751 17.8906 118.608 13.5725 124.152 12.4058C128.713 11.4468 133.732 12.285 138.076 13.7925C138.112 13.8049 138.142 13.8291 138.162 13.8612C138.182 13.8933 138.191 13.9314 138.186 13.9691C137.883 16.5865 137.154 19.0795 136 21.448C135.96 21.5316 135.896 21.5564 135.81 21.5223C133.235 20.4966 129.449 19.4508 126.673 20.0055C125.934 20.1527 125.207 20.8329 125.488 21.6494C125.689 22.2366 126.64 22.6379 127.184 22.7835C132.523 24.2151 138.411 24.9743 138.958 31.8783C139.52 38.9791 133.878 42.6821 127.525 43.2554C123.2 43.6468 119.014 43.0839 114.967 41.5665C114.919 41.549 114.897 41.5139 114.902 41.4612C115.165 38.7167 115.877 36.0952 117.04 33.5966C117.066 33.5429 117.106 33.5279 117.16 33.5516C120.305 34.9688 123.604 35.5044 127.057 35.1583C127.315 35.1325 127.703 35.0019 128.219 34.7663C129.146 34.3418 129.519 33.0698 128.52 32.4888C128 32.1872 127.293 31.9129 126.399 31.6661C125.102 31.3076 123.808 30.941 122.514 30.566Z" fill="white"/>
<path d="M139.125 19.1796C139.125 19.3752 139.047 19.5628 138.909 19.7011C138.771 19.8394 138.583 19.9171 138.388 19.9171C138.291 19.9171 138.195 19.8981 138.105 19.861C138.016 19.8239 137.935 19.7696 137.866 19.7011C137.798 19.6326 137.743 19.5513 137.706 19.4619C137.669 19.3724 137.65 19.2765 137.65 19.1796C137.65 19.0828 137.669 18.9869 137.706 18.8974C137.743 18.8079 137.798 18.7266 137.866 18.6581C137.935 18.5897 138.016 18.5353 138.105 18.4983C138.195 18.4612 138.291 18.4421 138.388 18.4421C138.583 18.4421 138.771 18.5198 138.909 18.6581C139.047 18.7965 139.125 18.984 139.125 19.1796ZM138.694 18.9829L138.687 19.4539C138.684 19.5448 138.715 19.5577 138.778 19.4926C138.977 19.2871 138.981 19.0691 138.79 18.8388C138.181 18.1028 137.253 19.4616 138.431 19.7405C138.456 19.7463 138.483 19.7444 138.507 19.7351C138.531 19.7257 138.552 19.7093 138.567 19.688C138.582 19.6666 138.59 19.6414 138.59 19.6154C138.591 19.5894 138.583 19.5639 138.569 19.5422L138.436 19.3485C138.389 19.2793 138.353 19.2845 138.329 19.364C138.31 19.425 138.28 19.4776 138.239 19.5221C138.228 19.534 138.214 19.5424 138.199 19.5461C138.183 19.5499 138.167 19.5489 138.152 19.5432C138.137 19.5375 138.124 19.5273 138.115 19.5142C138.106 19.501 138.101 19.4854 138.101 19.4694V18.8977C138.101 18.8821 138.105 18.8668 138.112 18.853C138.119 18.8391 138.129 18.8271 138.141 18.8179C138.153 18.8087 138.168 18.8026 138.183 18.8C138.198 18.7975 138.213 18.7985 138.228 18.8031L138.276 18.8186C138.33 18.8362 138.35 18.8723 138.336 18.9271C138.315 19.0128 138.32 19.0918 138.353 19.1641C138.397 19.2571 138.427 19.253 138.443 19.1518C138.457 19.0681 138.449 18.9875 138.42 18.91C138.415 18.8963 138.412 18.8806 138.413 18.8651C138.414 18.8497 138.418 18.8352 138.425 18.8237C138.432 18.8122 138.441 18.8042 138.452 18.8008C138.462 18.7974 138.473 18.7988 138.484 18.8047C138.524 18.8274 138.567 18.847 138.614 18.8636C138.67 18.8842 138.696 18.924 138.694 18.9829Z" fill="white"/>
</svg>
