<svg width="112" height="48" viewBox="0 0 112 48" fill="none" xmlns="http://www.w3.org/2000/svg">
<path d="M1.29497 10.8603V19.1255C1.29497 19.176 1.26977 19.2012 1.21937 19.2012L0.086797 19.1998C0.0289319 19.1998 1.40203e-09 19.1704 1.40203e-09 19.1115V0.867478C-3.66388e-06 0.849122 0.00717933 0.831497 0.0200053 0.818388C0.0328312 0.805278 0.050278 0.797729 0.0685989 0.797362C2.10694 0.789883 4.15276 0.790352 6.20603 0.798766C7.72639 0.804375 8.6275 0.827747 8.90936 0.868881C10.8917 1.15635 12.5913 2.3399 13.0924 4.39708C13.9842 8.0557 11.5553 10.7173 7.93499 10.7537C5.74544 10.7752 3.55497 10.7879 1.36356 10.7916C1.31783 10.7916 1.29497 10.8145 1.29497 10.8603ZM1.31317 2.06225L1.28796 9.48045C1.28796 9.49495 1.29372 9.50886 1.30396 9.51912C1.3142 9.52937 1.32808 9.53513 1.34256 9.53513L7.99238 9.55757C9.03511 9.56097 10.0363 9.19326 10.7759 8.53531C11.5154 7.87736 11.9327 6.98304 11.9361 6.049L11.9389 5.56661C11.9405 5.10391 11.8404 4.64538 11.6442 4.21721C11.448 3.78905 11.1596 3.39963 10.7955 3.07121C10.4313 2.74279 9.9986 2.48179 9.52196 2.30314C9.04532 2.12448 8.53412 2.03167 8.01758 2.02999L1.36776 2.00755C1.36059 2.00755 1.35349 2.00897 1.34687 2.01172C1.34025 2.01447 1.33423 2.01849 1.32916 2.02357C1.32409 2.02865 1.32006 2.03468 1.31732 2.04131C1.31458 2.04795 1.31317 2.05506 1.31317 2.06225Z" fill="white"/>
<path d="M40.5298 10.7874C40.4141 10.7874 40.3562 10.8454 40.3562 10.9613L40.352 19.1297C40.352 19.1765 40.3291 19.1999 40.2834 19.1999H39.0934C39.0468 19.1999 39.0234 19.1765 39.0234 19.1297V0.902563C39.0234 0.859559 39.0449 0.838058 39.0878 0.838058C41.5555 0.802533 44.0185 0.788043 46.4768 0.794587C49.4028 0.803001 52.0459 2.00618 52.2895 5.25112C52.4603 7.52986 51.5069 9.48047 49.309 10.3261C48.3332 10.7033 47.3826 10.779 46.2066 10.7804C44.2812 10.7832 42.3889 10.7856 40.5298 10.7874ZM40.3464 2.08331L40.3604 9.50151C40.3604 9.5175 40.3667 9.53284 40.378 9.54414C40.3893 9.55545 40.4046 9.5618 40.4206 9.5618L46.9934 9.54918C48.0559 9.54712 49.0742 9.17575 49.8242 8.51673C50.5743 7.85772 50.9947 6.96503 50.9931 6.03501V5.51054C50.9923 5.04991 50.8879 4.59397 50.6857 4.16876C50.4836 3.74356 50.1877 3.35741 49.8149 3.03238C49.4422 2.70735 49 2.4498 48.5135 2.27445C48.0269 2.09909 47.5057 2.00937 46.9794 2.01039L40.4066 2.02301C40.3906 2.02301 40.3753 2.02936 40.364 2.04067C40.3527 2.05198 40.3464 2.06731 40.3464 2.08331Z" fill="white"/>
<path d="M59.5331 10.8602V19.1296C59.5331 19.1763 59.5098 19.1997 59.4631 19.1997H58.2899C58.2321 19.1997 58.2031 19.1702 58.2031 19.1113V0.854717C58.2031 0.841196 58.2084 0.828208 58.2178 0.818517C58.2272 0.808826 58.24 0.803198 58.2535 0.802833C58.9199 0.786005 59.5872 0.78367 60.2555 0.795823C62.4366 0.835088 64.8025 0.743937 66.7079 0.835087C70.0944 0.99495 72.0894 3.87248 71.3012 7.12583C70.7034 9.58688 68.5348 10.7256 66.1381 10.7508C63.9598 10.7742 61.7805 10.7877 59.6003 10.7915C59.5555 10.7915 59.5331 10.8144 59.5331 10.8602ZM59.5457 2.04949L59.5205 9.49293C59.5205 9.50408 59.5249 9.51478 59.5328 9.52267C59.5407 9.53056 59.5514 9.53499 59.5625 9.53499L66.2053 9.55743C67.2458 9.56083 68.2449 9.1949 68.9829 8.54011C69.7208 7.88531 70.1373 6.99527 70.1406 6.06569L70.1434 5.54964C70.1451 5.08915 70.0451 4.63282 69.8494 4.20669C69.6536 3.78057 69.3658 3.39301 69.0025 3.06615C68.6391 2.73929 68.2073 2.47954 67.7317 2.30173C67.256 2.12392 66.7459 2.03153 66.2305 2.02985L59.5877 2.00741C59.5822 2.00741 59.5767 2.0085 59.5716 2.01061C59.5665 2.01273 59.5619 2.01583 59.558 2.01973C59.5541 2.02364 59.551 2.02828 59.5489 2.03339C59.5468 2.03849 59.5457 2.04396 59.5457 2.04949Z" fill="white"/>
<path d="M105.279 10.643L111.225 19.1395C111.256 19.1853 111.245 19.2078 111.19 19.2068L109.751 19.2026C109.734 19.2026 109.717 19.1986 109.702 19.1908C109.687 19.183 109.674 19.1716 109.664 19.1578L103.732 10.7664C103.672 10.6832 103.591 10.6411 103.489 10.6402L97.2545 10.6289C97.1668 10.6289 97.1229 10.6724 97.1229 10.7593V19.1255C97.1229 19.176 97.0977 19.2012 97.0473 19.2012L95.863 19.1998C95.8163 19.1998 95.793 19.1765 95.793 19.1297V0.867478C95.793 0.849122 95.8001 0.831497 95.813 0.818388C95.8258 0.805278 95.8432 0.797729 95.8616 0.797362C98.1276 0.789883 100.401 0.790352 102.682 0.798766C104.901 0.80718 106.318 0.774925 107.894 1.81403C109.599 2.94009 110.081 5.26511 109.578 7.14C109.051 9.10603 107.31 10.2475 105.353 10.4789C105.237 10.4929 105.212 10.5476 105.279 10.643ZM97.1341 2.05944L97.1089 9.31217C97.1089 9.32742 97.115 9.34204 97.1257 9.35282C97.1365 9.36361 97.1511 9.36966 97.1663 9.36966L104.427 9.3949C105.484 9.39841 106.5 9.03726 107.25 8.39086C108 7.74447 108.423 6.86578 108.426 5.94804L108.429 5.5021C108.431 5.04754 108.329 4.59707 108.13 4.17642C107.931 3.75576 107.638 3.37316 107.269 3.05048C106.9 2.72779 106.461 2.47133 105.977 2.29576C105.494 2.12018 104.976 2.02892 104.452 2.02719L97.1915 2.00194C97.1763 2.00194 97.1617 2.008 97.1509 2.01878C97.1402 2.02957 97.1341 2.04419 97.1341 2.05944Z" fill="white"/>
<path d="M21.4548 10.4129V18.5912C21.4548 18.6038 21.4598 18.616 21.4687 18.6249C21.4777 18.6339 21.4898 18.6389 21.5024 18.6389H32.9919C33.0045 18.6389 33.0166 18.6439 33.0256 18.6528C33.0345 18.6618 33.0395 18.6739 33.0395 18.6866V19.8533C33.0395 19.8659 33.0345 19.878 33.0256 19.887C33.0166 19.8959 33.0045 19.901 32.9919 19.901H20.1374C20.1248 19.901 20.1127 19.8959 20.1038 19.887C20.0949 19.878 20.0898 19.8659 20.0898 19.8533V1.0175C20.0898 1.00485 20.0949 0.992724 20.1038 0.983782C20.1127 0.974841 20.1248 0.969818 20.1374 0.969818H32.5719C32.5845 0.969818 32.5966 0.974841 32.6056 0.983782C32.6145 0.992724 32.6195 1.00485 32.6195 1.0175V2.18141C32.6195 2.18767 32.6183 2.19387 32.6159 2.19966C32.6135 2.20544 32.61 2.2107 32.6056 2.21512C32.6011 2.21955 32.5959 2.22307 32.5901 2.22546C32.5843 2.22786 32.5782 2.22909 32.5719 2.22909L21.5024 2.25854C21.4898 2.25854 21.4777 2.26356 21.4687 2.2725C21.4598 2.28144 21.4548 2.29357 21.4548 2.30622V9.02046C21.4548 9.0331 21.4598 9.04523 21.4687 9.05417C21.4777 9.06312 21.4898 9.06814 21.5024 9.06814H30.647C30.6596 9.06814 30.6717 9.07316 30.6806 9.0821C30.6895 9.09104 30.6946 9.10317 30.6946 9.11582V10.3176C30.6946 10.3302 30.6895 10.3424 30.6806 10.3513C30.6717 10.3602 30.6596 10.3653 30.647 10.3653H21.5024C21.4898 10.3653 21.4777 10.3703 21.4687 10.3792C21.4598 10.3882 21.4548 10.4003 21.4548 10.4129Z" fill="white"/>
<path d="M79.5637 2.32725C79.5175 2.58808 79.5875 2.9022 79.5875 3.09431C79.5865 4.79017 79.587 6.48696 79.5889 8.18469C79.5903 8.35717 79.5343 8.72037 79.5553 8.9812C79.557 9.0049 79.5678 9.02705 79.5855 9.04318C79.6032 9.05931 79.6264 9.06823 79.6505 9.06814H88.8972C88.9439 9.06814 88.9672 9.09151 88.9672 9.13825V10.2952C88.9672 10.3419 88.9439 10.3653 88.8972 10.3653H79.6169C79.6104 10.3653 79.6041 10.3665 79.5981 10.369C79.5922 10.3715 79.5868 10.3751 79.5822 10.3796C79.5777 10.3842 79.5741 10.3896 79.5716 10.3956C79.5691 10.4015 79.5679 10.4079 79.5679 10.4144L79.5931 18.5589C79.5931 18.6122 79.6197 18.6389 79.6729 18.6389H91.2309C91.2522 18.6389 91.2732 18.6431 91.2928 18.6515C91.3124 18.6598 91.3301 18.6719 91.3448 18.6873C91.3596 18.7026 91.3711 18.7207 91.3788 18.7406C91.3864 18.7605 91.3899 18.7817 91.3891 18.8029L91.3569 19.8266C91.3562 19.8466 91.3479 19.8655 91.3338 19.8793C91.3197 19.8932 91.3009 19.901 91.2814 19.901H78.2575C78.2108 19.901 78.1875 19.8776 78.1875 19.8308V1.03993C78.1875 0.99319 78.2108 0.969818 78.2575 0.969818H90.8572C90.9038 0.969818 90.9272 0.99319 90.9272 1.03993V2.15617C90.9272 2.20478 90.9029 2.22909 90.8544 2.22909L79.6421 2.26134C79.5982 2.26134 79.5721 2.28331 79.5637 2.32725Z" fill="white"/>
<path d="M46.5153 47.1942C43.8651 47.0778 41.516 45.5493 40.508 43.0672C39.9256 41.634 39.8024 40.4421 39.7982 38.7382C39.7917 35.4512 39.7912 32.1638 39.7968 28.8758C39.7968 28.8319 39.8188 28.8094 39.8626 28.8085L41.0246 28.7987C41.0703 28.7987 41.0932 28.8216 41.0932 28.8674C41.0829 32.0497 41.0843 35.2311 41.0974 38.4115C41.103 39.6932 41.2257 40.7879 41.4656 41.6957C42.3868 45.1889 45.5899 46.5884 48.919 45.7414C52.4007 44.8551 53.1875 41.8219 53.1931 38.6485C53.2006 35.3942 53.2019 32.1395 53.1973 28.8842C53.1973 28.8356 53.2216 28.8113 53.2701 28.8113L54.4615 28.7931C54.5035 28.7922 54.5244 28.8127 54.5244 28.8548C54.531 32.3222 54.5338 35.7883 54.5329 39.2529C54.5329 44.175 51.6251 47.4171 46.5153 47.1942Z" fill="white"/>
<path d="M100.132 30.077V36.6089C100.132 36.6204 100.137 36.6315 100.145 36.6397C100.153 36.6478 100.164 36.6524 100.176 36.6524L109.539 36.6959C109.544 36.6959 109.55 36.697 109.555 36.6992C109.561 36.7013 109.565 36.7046 109.569 36.7086C109.573 36.7126 109.577 36.7174 109.579 36.7227C109.581 36.728 109.582 36.7336 109.582 36.7393V37.878C109.582 37.8895 109.578 37.9006 109.569 37.9087C109.561 37.9169 109.55 37.9215 109.539 37.9215H100.176C100.164 37.9215 100.153 37.9261 100.145 37.9342C100.137 37.9424 100.132 37.9534 100.132 37.9649V45.9357C100.132 45.9472 100.137 45.9582 100.145 45.9664C100.153 45.9745 100.164 45.9791 100.176 45.9791L111.93 46.0212C111.941 46.0212 111.952 46.0256 111.96 46.0334C111.968 46.0413 111.973 46.052 111.973 46.0633L112 47.1669C112 47.1727 111.999 47.1785 111.997 47.1839C111.995 47.1894 111.992 47.1943 111.988 47.1985C111.984 47.2027 111.979 47.206 111.973 47.2083C111.968 47.2106 111.962 47.2118 111.956 47.2118H98.7758C98.7643 47.2118 98.7533 47.2072 98.7451 47.199C98.737 47.1909 98.7324 47.1798 98.7324 47.1683V28.8443C98.7324 28.8328 98.737 28.8218 98.7451 28.8136C98.7533 28.8055 98.7643 28.8009 98.7758 28.8009H111.534C111.545 28.8009 111.556 28.8055 111.564 28.8136C111.572 28.8218 111.577 28.8328 111.577 28.8443V29.99C111.577 30.0016 111.572 30.0126 111.564 30.0208C111.556 30.0289 111.545 30.0335 111.534 30.0335H100.176C100.164 30.0335 100.153 30.0381 100.145 30.0462C100.137 30.0544 100.132 30.0654 100.132 30.077Z" fill="white"/>
<path d="M9.82691 39.2901C8.25895 38.6085 7.11938 38.3477 5.21264 37.7868C2.8831 37.1025 0.550761 36.0984 0.542362 33.2321C0.537695 31.7456 1.20968 30.5873 2.55831 29.7572C5.09924 28.1936 9.61552 28.6073 12.113 30.262C12.1569 30.2919 12.1788 30.3331 12.1788 30.3854V31.5661C12.1788 31.6213 12.1555 31.6339 12.1088 31.604C10.7238 30.7196 9.10546 30.2031 7.25378 30.0545C5.50103 29.9142 3.02169 30.2872 2.15092 32.0626C1.41734 33.556 2.10892 34.9639 3.50888 35.7408C6.5916 37.4516 12.883 37.2273 13.247 41.8563C13.5046 45.1489 10.5913 46.9298 7.67377 47.1626C5.10204 47.3687 2.23352 46.8387 0.064974 45.3705C0.025775 45.3433 0.00570777 45.3059 0.00477446 45.2583L0.00197608 43.9611C0.00104277 43.8929 0.0285748 43.8784 0.0845733 43.9177C2.12292 45.3705 4.40439 46.0688 6.92899 46.0127C9.14933 45.9636 12.0668 44.7436 11.9017 42.0526C11.8233 40.7765 11.1317 39.8556 9.82691 39.2901Z" fill="white"/>
<path d="M24.3256 47.2068C20.2154 47.2012 17.3916 44.4821 17.0332 40.4098C16.8457 38.2797 16.7827 35.7485 17.4126 33.6843C18.2918 30.804 20.2742 29.5686 23.0993 29.0637C25.776 28.5855 29.1485 28.6122 31.6615 29.8041C33.9756 30.9007 35.2453 33.3632 35.3293 35.8775C35.4511 39.5642 35.3224 43.356 35.3588 47.1058C35.3597 47.175 35.3256 47.2096 35.2566 47.2096C31.6297 47.2133 27.9861 47.2124 24.3256 47.2068ZM20.046 44.1694C21.8365 45.7764 23.3863 45.9741 25.909 45.9811C28.5969 45.9877 31.2867 45.9877 33.9784 45.9811C34.0269 45.9811 34.0512 45.9568 34.0512 45.9082C34.0568 43.155 34.0573 40.4023 34.0526 37.6501C34.0498 36.3356 33.9887 35.405 33.8692 34.8581C32.8234 30.086 28.0187 29.7453 24.0905 30.2487C23.0106 30.3861 22.1576 30.5988 21.5313 30.8867C18.3576 32.3451 18.163 35.419 18.247 38.5966C18.303 40.7099 18.4122 42.704 20.046 44.1694Z" fill="white"/>
<path d="M71.9353 41.8823H61.4271C61.4151 41.8824 61.4034 41.8859 61.3933 41.8923C61.3831 41.8987 61.375 41.9079 61.3697 41.9187L58.9128 47.1732C58.9076 47.184 58.8995 47.1932 58.8893 47.1996C58.8792 47.206 58.8674 47.2095 58.8554 47.2096L57.5618 47.211C57.551 47.2109 57.5403 47.2081 57.5309 47.2028C57.5214 47.1974 57.5135 47.1898 57.5077 47.1806C57.502 47.1713 57.4987 47.1608 57.4981 47.1499C57.4976 47.1391 57.4997 47.1283 57.5045 47.1185L66.04 28.8436C66.045 28.8325 66.0531 28.8231 66.0633 28.8164C66.0734 28.8097 66.0853 28.806 66.0974 28.8058H67.2986C67.3108 28.806 67.3226 28.8097 67.3328 28.8164C67.3429 28.8231 67.351 28.8325 67.356 28.8436L75.865 47.1185C75.8694 47.1283 75.8713 47.1391 75.8705 47.1499C75.8697 47.1607 75.8662 47.1711 75.8604 47.1801C75.8545 47.1892 75.8465 47.1967 75.837 47.2018C75.8276 47.207 75.8169 47.2096 75.8062 47.2096L74.5126 47.211C74.5006 47.2109 74.4888 47.2074 74.4787 47.201C74.4686 47.1946 74.4604 47.1854 74.4552 47.1746L71.9927 41.9187C71.9874 41.9079 71.9793 41.8987 71.9692 41.8923C71.959 41.8859 71.9473 41.8824 71.9353 41.8823ZM61.9409 40.6272C61.9376 40.6339 61.936 40.6413 61.9363 40.6487C61.9366 40.6562 61.9389 40.6635 61.9428 40.6698C61.9467 40.6761 61.9522 40.6814 61.9588 40.685C61.9653 40.6885 61.9727 40.6904 61.9801 40.6903H71.3963C71.4037 40.6904 71.4111 40.6885 71.4176 40.685C71.4242 40.6814 71.4297 40.6761 71.4336 40.6698C71.4375 40.6635 71.4398 40.6562 71.4401 40.6487C71.4404 40.6413 71.4388 40.6339 71.4355 40.6272L66.7274 30.6105C66.7239 30.6031 66.7183 30.5968 66.7114 30.5924C66.7045 30.588 66.6964 30.5857 66.6882 30.5857C66.68 30.5857 66.672 30.588 66.665 30.5924C66.6581 30.5968 66.6525 30.6031 66.649 30.6105L61.9409 40.6272Z" fill="white"/>
<path d="M88.2695 38.5549L94.2669 47.123C94.2728 47.1313 94.2763 47.1411 94.277 47.1512C94.2777 47.1614 94.2757 47.1715 94.2711 47.1806C94.2665 47.1897 94.2595 47.1974 94.2509 47.2028C94.2422 47.2082 94.2323 47.2111 94.2221 47.2113H92.839C92.7839 47.2113 92.7401 47.1884 92.7074 47.1426C90.7138 44.3212 88.7203 41.4997 86.7267 38.6783C86.7006 38.6409 86.6651 38.6222 86.6203 38.6222H80.2533C80.2067 38.6222 80.1833 38.6455 80.1833 38.6923V47.1412C80.1833 47.1598 80.176 47.1776 80.1628 47.1908C80.1497 47.2039 80.1319 47.2113 80.1133 47.2113H78.8884C78.8698 47.2113 78.852 47.2039 78.8389 47.1908C78.8257 47.1776 78.8184 47.1598 78.8184 47.1412V28.8776C78.8184 28.8308 78.8417 28.8074 78.8884 28.8074C81.7741 28.8018 84.6553 28.8051 87.5317 28.8172C88.8104 28.8229 89.9392 29.1491 90.9182 29.7961C93.0448 31.204 93.3486 34.348 92.0662 36.3561C91.2318 37.663 89.8179 38.3361 88.3017 38.4848C88.2504 38.4894 88.2396 38.5128 88.2695 38.5549ZM80.1693 30.106L80.1945 37.325C80.1945 37.3403 80.2006 37.3549 80.2113 37.3657C80.2221 37.3765 80.2367 37.3825 80.2519 37.3825L87.5849 37.3573C88.0956 37.3556 88.6009 37.2658 89.0721 37.0932C89.5433 36.9205 89.9711 36.6683 90.3311 36.3509C90.6911 36.0336 90.9762 35.6573 91.1701 35.2436C91.3641 34.8299 91.463 34.3869 91.4614 33.9399L91.4586 33.4126C91.4553 32.5101 91.0428 31.6461 90.3116 31.0105C89.5805 30.3749 88.5906 30.0198 87.5597 30.0232L80.2267 30.0485C80.2115 30.0485 80.1969 30.0545 80.1861 30.0653C80.1754 30.0761 80.1693 30.0907 80.1693 30.106Z" fill="white"/>
</svg>
