<svg width="247" height="304" viewBox="0 0 247 304" fill="none" xmlns="http://www.w3.org/2000/svg">
<path d="M89 0.69515C87.5272 0.69515 86.3333 1.88906 86.3333 3.36182C86.3333 4.83458 87.5272 6.02848 89 6.02848C90.4728 6.02848 91.6667 4.83458 91.6667 3.36182C91.6667 1.88906 90.4728 0.69515 89 0.69515ZM88.6464 303.715C88.8417 303.911 89.1583 303.911 89.3535 303.715L92.5355 300.533C92.7308 300.338 92.7308 300.022 92.5355 299.826C92.3403 299.631 92.0237 299.631 91.8284 299.826L89 302.655L86.1716 299.826C85.9763 299.631 85.6597 299.631 85.4645 299.826C85.2692 300.022 85.2692 300.338 85.4645 300.533L88.6464 303.715ZM88.5 3.36182L88.5 303.362L89.5 303.362L89.5 3.36182L88.5 3.36182Z" fill="#5A5A5A"/>
<circle cx="88.9961" cy="140.862" r="16.5" transform="rotate(90 88.9961 140.862)" fill="#3F3F3F"/>
<circle cx="88.9961" cy="140.862" r="5.5" transform="rotate(90 88.9961 140.862)" fill="#5CA1FF"/>
<path d="M15.3466 146.862V144.342C15.3466 143.79 15.4306 143.31 15.5986 142.902C15.7786 142.494 16.0666 142.134 16.4626 141.822C16.8706 141.498 17.4046 141.192 18.0646 140.904L20.2966 139.914C20.8486 139.662 21.2686 139.356 21.5566 138.996C21.8566 138.624 22.0066 138.15 22.0066 137.574C22.0066 136.938 21.8146 136.434 21.4306 136.062C21.0586 135.678 20.5246 135.486 19.8286 135.486C19.1326 135.486 18.5926 135.678 18.2086 136.062C17.8366 136.446 17.6506 136.98 17.6506 137.664H15.1846C15.1846 136.848 15.3586 136.116 15.7066 135.468C16.0546 134.808 16.5706 134.292 17.2546 133.92C17.9386 133.536 18.7966 133.344 19.8286 133.344C20.8606 133.344 21.7186 133.53 22.4026 133.902C23.0866 134.274 23.6026 134.772 23.9506 135.396C24.2986 136.008 24.4726 136.692 24.4726 137.448V137.682C24.4726 138.666 24.1966 139.488 23.6446 140.148C23.0926 140.796 22.2826 141.36 21.2146 141.84L18.9826 142.83C18.5626 143.01 18.2686 143.202 18.1006 143.406C17.9326 143.598 17.8486 143.862 17.8486 144.198V145.35L17.2366 144.684H24.5266V146.862H15.3466ZM31.7438 147.204C30.7118 147.204 29.8358 147.036 29.1158 146.7C28.3958 146.352 27.8078 145.884 27.3518 145.296C26.8958 144.696 26.5598 144.012 26.3438 143.244C26.1398 142.464 26.0378 141.648 26.0378 140.796V139.788C26.0378 138.576 26.2418 137.484 26.6498 136.512C27.0578 135.54 27.6818 134.772 28.5218 134.208C29.3618 133.632 30.4358 133.344 31.7438 133.344C33.0398 133.344 34.1078 133.632 34.9478 134.208C35.7878 134.772 36.4058 135.54 36.8018 136.512C37.2098 137.484 37.4138 138.576 37.4138 139.788V140.796C37.4138 141.648 37.3058 142.464 37.0898 143.244C36.8858 144.012 36.5558 144.696 36.0998 145.296C35.6558 145.884 35.0738 146.352 34.3538 146.7C33.6338 147.036 32.7638 147.204 31.7438 147.204ZM31.7438 144.864C32.8118 144.864 33.5978 144.498 34.1018 143.766C34.6058 143.022 34.8578 141.87 34.8578 140.31C34.8578 138.654 34.5998 137.472 34.0838 136.764C33.5678 136.044 32.7878 135.684 31.7438 135.684C30.6878 135.684 29.8958 136.044 29.3678 136.764C28.8518 137.472 28.5938 138.642 28.5938 140.274C28.5938 141.846 28.8518 143.004 29.3678 143.748C29.8838 144.492 30.6758 144.864 31.7438 144.864ZM39.1573 146.862V144.342C39.1573 143.79 39.2413 143.31 39.4093 142.902C39.5893 142.494 39.8773 142.134 40.2733 141.822C40.6813 141.498 41.2153 141.192 41.8753 140.904L44.1073 139.914C44.6593 139.662 45.0793 139.356 45.3673 138.996C45.6673 138.624 45.8173 138.15 45.8173 137.574C45.8173 136.938 45.6253 136.434 45.2413 136.062C44.8693 135.678 44.3353 135.486 43.6393 135.486C42.9433 135.486 42.4033 135.678 42.0193 136.062C41.6473 136.446 41.4613 136.98 41.4613 137.664H38.9953C38.9953 136.848 39.1693 136.116 39.5173 135.468C39.8653 134.808 40.3813 134.292 41.0653 133.92C41.7493 133.536 42.6073 133.344 43.6393 133.344C44.6713 133.344 45.5293 133.53 46.2133 133.902C46.8973 134.274 47.4133 134.772 47.7613 135.396C48.1093 136.008 48.2833 136.692 48.2833 137.448V137.682C48.2833 138.666 48.0073 139.488 47.4553 140.148C46.9033 140.796 46.0933 141.36 45.0253 141.84L42.7933 142.83C42.3733 143.01 42.0793 143.202 41.9113 143.406C41.7433 143.598 41.6593 143.862 41.6593 144.198V145.35L41.0473 144.684H48.3373V146.862H39.1573ZM54.2404 147.204C53.2324 147.204 52.3624 147.012 51.6304 146.628C50.9104 146.244 50.3584 145.734 49.9744 145.098C49.5904 144.45 49.3984 143.73 49.3984 142.938H51.8644C51.8644 143.574 52.0744 144.09 52.4944 144.486C52.9264 144.87 53.5084 145.062 54.2404 145.062C54.7324 145.062 55.1524 144.972 55.5004 144.792C55.8604 144.6 56.1364 144.342 56.3284 144.018C56.5204 143.682 56.6164 143.298 56.6164 142.866C56.6164 142.218 56.4064 141.69 55.9864 141.282C55.5664 140.862 54.9904 140.652 54.2584 140.652C53.8984 140.652 53.5804 140.7 53.3044 140.796C53.0404 140.892 52.8064 141.018 52.6024 141.174L51.4324 139.158L55.7524 136.206L55.5904 135.9H49.9384V133.722H58.5244V136.35L54.0784 139.302L52.6924 139.05C52.9204 138.978 53.1664 138.924 53.4304 138.888C53.6944 138.84 53.9824 138.816 54.2944 138.816C55.2904 138.816 56.1424 138.99 56.8504 139.338C57.5704 139.674 58.1224 140.142 58.5064 140.742C58.8904 141.342 59.0824 142.032 59.0824 142.812V143.046C59.0824 143.802 58.8904 144.498 58.5064 145.134C58.1224 145.758 57.5704 146.262 56.8504 146.646C56.1304 147.018 55.2604 147.204 54.2404 147.204Z" fill="white"/>
<path d="M184 123.862C179.029 123.862 175 119.832 175 114.862C175 109.891 179.029 105.862 184 105.862C188.971 105.862 193 109.891 193 114.862C193 119.832 188.971 123.862 184 123.862ZM183.1 117.562V119.362H184.9V117.562H183.1ZM183.1 110.362V115.762H184.9V110.362H183.1Z" fill="#FFD676"/>
<path d="M125.831 150.072C125.441 150.072 125.041 150.057 124.631 150.027C124.231 149.997 123.856 149.957 123.506 149.907V148.167C123.866 148.207 124.251 148.242 124.661 148.272C125.071 148.312 125.456 148.332 125.816 148.332C126.486 148.332 127.026 148.252 127.436 148.092C127.856 147.932 128.161 147.677 128.351 147.327C128.551 146.987 128.651 146.552 128.651 146.022V144.417L129.101 143.397C129.071 144.147 128.916 144.787 128.636 145.317C128.356 145.837 127.976 146.237 127.496 146.517C127.016 146.787 126.461 146.922 125.831 146.922C125.271 146.922 124.761 146.817 124.301 146.607C123.851 146.397 123.461 146.107 123.131 145.737C122.811 145.367 122.561 144.932 122.381 144.432C122.201 143.932 122.111 143.397 122.111 142.827V142.512C122.111 141.942 122.201 141.412 122.381 140.922C122.571 140.422 122.836 139.987 123.176 139.617C123.516 139.247 123.921 138.962 124.391 138.762C124.861 138.562 125.381 138.462 125.951 138.462C126.621 138.462 127.201 138.607 127.691 138.897C128.191 139.187 128.581 139.607 128.861 140.157C129.141 140.707 129.296 141.382 129.326 142.182L128.966 142.242V138.717H130.616V145.902C130.616 146.892 130.446 147.692 130.106 148.302C129.766 148.912 129.241 149.357 128.531 149.637C127.831 149.927 126.931 150.072 125.831 150.072ZM126.431 145.137C126.831 145.137 127.196 145.047 127.526 144.867C127.856 144.687 128.121 144.427 128.321 144.087C128.521 143.747 128.621 143.337 128.621 142.857V142.332C128.621 141.872 128.516 141.482 128.306 141.162C128.106 140.842 127.841 140.602 127.511 140.442C127.181 140.272 126.821 140.187 126.431 140.187C125.991 140.187 125.601 140.292 125.261 140.502C124.931 140.702 124.671 140.987 124.481 141.357C124.291 141.727 124.196 142.167 124.196 142.677C124.196 143.177 124.291 143.612 124.481 143.982C124.671 144.352 124.931 144.637 125.261 144.837C125.601 145.037 125.991 145.137 126.431 145.137ZM132.89 146.862V138.717H134.54V142.167H134.495C134.495 140.997 134.745 140.112 135.245 139.512C135.745 138.912 136.48 138.612 137.45 138.612H137.75V140.427H137.18C136.48 140.427 135.935 140.617 135.545 140.997C135.165 141.367 134.975 141.907 134.975 142.617V146.862H132.89ZM143.001 147.147C142.281 147.147 141.646 147.032 141.096 146.802C140.546 146.572 140.081 146.262 139.701 145.872C139.321 145.472 139.031 145.022 138.831 144.522C138.641 144.022 138.546 143.502 138.546 142.962V142.647C138.546 142.087 138.646 141.557 138.846 141.057C139.056 140.547 139.351 140.097 139.731 139.707C140.121 139.307 140.591 138.997 141.141 138.777C141.691 138.547 142.311 138.432 143.001 138.432C143.691 138.432 144.311 138.547 144.861 138.777C145.411 138.997 145.876 139.307 146.256 139.707C146.646 140.097 146.941 140.547 147.141 141.057C147.341 141.557 147.441 142.087 147.441 142.647V142.962C147.441 143.502 147.341 144.022 147.141 144.522C146.951 145.022 146.666 145.472 146.286 145.872C145.906 146.262 145.441 146.572 144.891 146.802C144.341 147.032 143.711 147.147 143.001 147.147ZM143.001 145.362C143.511 145.362 143.941 145.252 144.291 145.032C144.641 144.802 144.906 144.497 145.086 144.117C145.266 143.727 145.356 143.287 145.356 142.797C145.356 142.297 145.261 141.857 145.071 141.477C144.891 141.087 144.621 140.782 144.261 140.562C143.911 140.332 143.491 140.217 143.001 140.217C142.511 140.217 142.086 140.332 141.726 140.562C141.376 140.782 141.106 141.087 140.916 141.477C140.726 141.857 140.631 142.297 140.631 142.797C140.631 143.287 140.721 143.727 140.901 144.117C141.091 144.497 141.361 144.802 141.711 145.032C142.061 145.252 142.491 145.362 143.001 145.362ZM151.881 146.862L153.426 138.987H155.826L157.611 146.862H155.961L154.146 139.032H155.016L153.411 146.862H151.881ZM151.266 146.862L151.251 145.152H152.916V146.862H151.266ZM150.426 146.862L148.206 138.717H150.231L152.346 146.862H150.426ZM156.486 146.862V145.152H158.151L158.136 146.862H156.486ZM157.146 146.862L159.021 138.717H160.911L158.946 146.862H157.146ZM166.24 146.967C165.49 146.967 164.87 146.872 164.38 146.682C163.9 146.482 163.54 146.152 163.3 145.692C163.06 145.222 162.94 144.592 162.94 143.802L162.955 136.422H164.905L164.89 143.937C164.89 144.337 164.995 144.647 165.205 144.867C165.425 145.077 165.735 145.182 166.135 145.182H167.41V146.967H166.24ZM161.65 140.247V138.717H167.41V140.247H161.65ZM169.16 146.862V135.912H171.245V142.302H170.885C170.885 141.482 170.99 140.787 171.2 140.217C171.41 139.647 171.72 139.212 172.13 138.912C172.55 138.612 173.08 138.462 173.72 138.462H173.81C174.74 138.462 175.445 138.782 175.925 139.422C176.405 140.062 176.645 140.992 176.645 142.212V146.862H174.56V142.017C174.56 141.497 174.41 141.087 174.11 140.787C173.82 140.487 173.435 140.337 172.955 140.337C172.445 140.337 172.03 140.507 171.71 140.847C171.4 141.177 171.245 141.612 171.245 142.152V146.862H169.16ZM185.078 147.117C183.958 147.117 183.078 146.882 182.438 146.412C181.808 145.932 181.478 145.272 181.448 144.432H183.323C183.353 144.712 183.508 144.967 183.788 145.197C184.068 145.427 184.508 145.542 185.108 145.542C185.608 145.542 186.003 145.452 186.293 145.272C186.593 145.092 186.743 144.847 186.743 144.537C186.743 144.267 186.628 144.052 186.398 143.892C186.178 143.732 185.798 143.627 185.258 143.577L184.538 143.502C183.628 143.402 182.928 143.142 182.438 142.722C181.948 142.302 181.703 141.742 181.703 141.042C181.703 140.482 181.843 140.012 182.123 139.632C182.403 139.252 182.788 138.967 183.278 138.777C183.778 138.577 184.348 138.477 184.988 138.477C185.988 138.477 186.798 138.697 187.418 139.137C188.038 139.577 188.363 140.222 188.393 141.072H186.518C186.498 140.792 186.358 140.552 186.098 140.352C185.838 140.152 185.463 140.052 184.973 140.052C184.533 140.052 184.193 140.137 183.953 140.307C183.713 140.477 183.593 140.697 183.593 140.967C183.593 141.227 183.688 141.427 183.878 141.567C184.078 141.707 184.398 141.802 184.838 141.852L185.558 141.927C186.518 142.027 187.268 142.292 187.808 142.722C188.358 143.152 188.633 143.732 188.633 144.462C188.633 145.002 188.483 145.472 188.183 145.872C187.893 146.262 187.483 146.567 186.953 146.787C186.423 147.007 185.798 147.117 185.078 147.117ZM193.896 146.967C193.146 146.967 192.526 146.872 192.036 146.682C191.556 146.482 191.196 146.152 190.956 145.692C190.716 145.222 190.596 144.592 190.596 143.802L190.611 136.422H192.561L192.546 143.937C192.546 144.337 192.651 144.647 192.861 144.867C193.081 145.077 193.391 145.182 193.791 145.182H195.066V146.967H193.896ZM189.306 140.247V138.717H195.066V140.247H189.306ZM200.687 147.147C199.967 147.147 199.332 147.032 198.782 146.802C198.232 146.572 197.767 146.262 197.387 145.872C197.007 145.472 196.717 145.022 196.517 144.522C196.327 144.022 196.232 143.502 196.232 142.962V142.647C196.232 142.087 196.332 141.557 196.532 141.057C196.742 140.547 197.037 140.097 197.417 139.707C197.807 139.307 198.277 138.997 198.827 138.777C199.377 138.547 199.997 138.432 200.687 138.432C201.377 138.432 201.997 138.547 202.547 138.777C203.097 138.997 203.562 139.307 203.942 139.707C204.332 140.097 204.627 140.547 204.827 141.057C205.027 141.557 205.127 142.087 205.127 142.647V142.962C205.127 143.502 205.027 144.022 204.827 144.522C204.637 145.022 204.352 145.472 203.972 145.872C203.592 146.262 203.127 146.572 202.577 146.802C202.027 147.032 201.397 147.147 200.687 147.147ZM200.687 145.362C201.197 145.362 201.627 145.252 201.977 145.032C202.327 144.802 202.592 144.497 202.772 144.117C202.952 143.727 203.042 143.287 203.042 142.797C203.042 142.297 202.947 141.857 202.757 141.477C202.577 141.087 202.307 140.782 201.947 140.562C201.597 140.332 201.177 140.217 200.687 140.217C200.197 140.217 199.772 140.332 199.412 140.562C199.062 140.782 198.792 141.087 198.602 141.477C198.412 141.857 198.317 142.297 198.317 142.797C198.317 143.287 198.407 143.727 198.587 144.117C198.777 144.497 199.047 144.802 199.397 145.032C199.747 145.252 200.177 145.362 200.687 145.362ZM206.953 149.862V138.717H208.603V142.227L208.348 142.212C208.388 141.382 208.558 140.687 208.858 140.127C209.168 139.567 209.578 139.152 210.088 138.882C210.598 138.602 211.168 138.462 211.798 138.462C212.378 138.462 212.898 138.567 213.358 138.777C213.828 138.987 214.228 139.282 214.558 139.662C214.898 140.042 215.158 140.487 215.338 140.997C215.518 141.497 215.608 142.037 215.608 142.617V142.932C215.608 143.522 215.518 144.072 215.338 144.582C215.168 145.082 214.913 145.527 214.573 145.917C214.243 146.297 213.843 146.597 213.373 146.817C212.903 147.027 212.378 147.132 211.798 147.132C211.188 147.132 210.628 147.007 210.118 146.757C209.618 146.497 209.213 146.102 208.903 145.572C208.593 145.032 208.418 144.337 208.378 143.487L209.038 144.492V149.862H206.953ZM211.273 145.377C211.723 145.377 212.113 145.267 212.443 145.047C212.783 144.827 213.048 144.522 213.238 144.132C213.428 143.732 213.523 143.282 213.523 142.782C213.523 142.262 213.428 141.812 213.238 141.432C213.048 141.052 212.783 140.757 212.443 140.547C212.113 140.327 211.723 140.217 211.273 140.217C210.863 140.217 210.483 140.307 210.133 140.487C209.793 140.667 209.513 140.932 209.293 141.282C209.083 141.632 208.978 142.052 208.978 142.542V143.142C208.978 143.612 209.088 144.012 209.308 144.342C209.528 144.672 209.813 144.927 210.163 145.107C210.513 145.287 210.883 145.377 211.273 145.377ZM217.441 149.862V138.717H219.091V142.227L218.836 142.212C218.876 141.382 219.046 140.687 219.346 140.127C219.656 139.567 220.066 139.152 220.576 138.882C221.086 138.602 221.656 138.462 222.286 138.462C222.866 138.462 223.386 138.567 223.846 138.777C224.316 138.987 224.716 139.282 225.046 139.662C225.386 140.042 225.646 140.487 225.826 140.997C226.006 141.497 226.096 142.037 226.096 142.617V142.932C226.096 143.522 226.006 144.072 225.826 144.582C225.656 145.082 225.401 145.527 225.061 145.917C224.731 146.297 224.331 146.597 223.861 146.817C223.391 147.027 222.866 147.132 222.286 147.132C221.676 147.132 221.116 147.007 220.606 146.757C220.106 146.497 219.701 146.102 219.391 145.572C219.081 145.032 218.906 144.337 218.866 143.487L219.526 144.492V149.862H217.441ZM221.761 145.377C222.211 145.377 222.601 145.267 222.931 145.047C223.271 144.827 223.536 144.522 223.726 144.132C223.916 143.732 224.011 143.282 224.011 142.782C224.011 142.262 223.916 141.812 223.726 141.432C223.536 141.052 223.271 140.757 222.931 140.547C222.601 140.327 222.211 140.217 221.761 140.217C221.351 140.217 220.971 140.307 220.621 140.487C220.281 140.667 220.001 140.932 219.781 141.282C219.571 141.632 219.466 142.052 219.466 142.542V143.142C219.466 143.612 219.576 144.012 219.796 144.342C220.016 144.672 220.301 144.927 220.651 145.107C221.001 145.287 221.371 145.377 221.761 145.377ZM231.574 147.147C230.874 147.147 230.259 147.027 229.729 146.787C229.209 146.547 228.774 146.227 228.424 145.827C228.084 145.417 227.824 144.962 227.644 144.462C227.474 143.962 227.389 143.452 227.389 142.932V142.647C227.389 142.107 227.474 141.587 227.644 141.087C227.824 140.577 228.084 140.127 228.424 139.737C228.774 139.337 229.204 139.022 229.714 138.792C230.224 138.552 230.814 138.432 231.484 138.432C232.364 138.432 233.099 138.627 233.689 139.017C234.289 139.397 234.739 139.902 235.039 140.532C235.339 141.152 235.489 141.822 235.489 142.542V143.292H228.274V142.017H234.184L233.539 142.647C233.539 142.127 233.464 141.682 233.314 141.312C233.164 140.942 232.934 140.657 232.624 140.457C232.324 140.257 231.944 140.157 231.484 140.157C231.024 140.157 230.634 140.262 230.314 140.472C229.994 140.682 229.749 140.987 229.579 141.387C229.419 141.777 229.339 142.247 229.339 142.797C229.339 143.307 229.419 143.762 229.579 144.162C229.739 144.552 229.984 144.862 230.314 145.092C230.644 145.312 231.064 145.422 231.574 145.422C232.084 145.422 232.499 145.322 232.819 145.122C233.139 144.912 233.344 144.657 233.434 144.357H235.354C235.234 144.917 235.004 145.407 234.664 145.827C234.324 146.247 233.889 146.572 233.359 146.802C232.839 147.032 232.244 147.147 231.574 147.147ZM240.606 147.132C240.036 147.132 239.511 147.027 239.031 146.817C238.551 146.607 238.136 146.312 237.786 145.932C237.436 145.552 237.166 145.112 236.976 144.612C236.786 144.102 236.691 143.552 236.691 142.962V142.647C236.691 142.067 236.781 141.522 236.961 141.012C237.151 140.502 237.411 140.057 237.741 139.677C238.081 139.297 238.486 139.002 238.956 138.792C239.436 138.572 239.966 138.462 240.546 138.462C241.186 138.462 241.746 138.602 242.226 138.882C242.716 139.152 243.106 139.562 243.396 140.112C243.686 140.662 243.846 141.352 243.876 142.182L243.261 141.462V135.912H245.346V146.862H243.696V143.397H244.056C244.026 144.227 243.856 144.922 243.546 145.482C243.236 146.032 242.826 146.447 242.316 146.727C241.816 146.997 241.246 147.132 240.606 147.132ZM241.071 145.377C241.481 145.377 241.856 145.287 242.196 145.107C242.536 144.917 242.806 144.647 243.006 144.297C243.216 143.937 243.321 143.517 243.321 143.037V142.437C243.321 141.957 243.216 141.557 243.006 141.237C242.796 140.907 242.521 140.657 242.181 140.487C241.841 140.307 241.471 140.217 241.071 140.217C240.621 140.217 240.221 140.327 239.871 140.547C239.531 140.757 239.261 141.057 239.061 141.447C238.871 141.837 238.776 142.292 238.776 142.812C238.776 143.332 238.876 143.787 239.076 144.177C239.276 144.557 239.546 144.852 239.886 145.062C240.236 145.272 240.631 145.377 241.071 145.377Z" fill="white"/>
<circle cx="88.9961" cy="39.3618" r="16.5" transform="rotate(90 88.9961 39.3618)" fill="#3F3F3F"/>
<circle cx="88.9961" cy="39.3618" r="5.5" transform="rotate(90 88.9961 39.3618)" fill="#5CA1FF"/>
<path d="M15.3291 45.3618V42.8418C15.3291 42.2898 15.4131 41.8098 15.5811 41.4018C15.7611 40.9938 16.0491 40.6338 16.4451 40.3218C16.8531 39.9978 17.3871 39.6918 18.0471 39.4038L20.2791 38.4138C20.8311 38.1618 21.2511 37.8558 21.5391 37.4958C21.8391 37.1238 21.9891 36.6498 21.9891 36.0738C21.9891 35.4378 21.7971 34.9338 21.4131 34.5618C21.0411 34.1778 20.5071 33.9858 19.8111 33.9858C19.1151 33.9858 18.5751 34.1778 18.1911 34.5618C17.8191 34.9458 17.6331 35.4798 17.6331 36.1638H15.1671C15.1671 35.3478 15.3411 34.6158 15.6891 33.9678C16.0371 33.3078 16.5531 32.7918 17.2371 32.4198C17.9211 32.0358 18.7791 31.8438 19.8111 31.8438C20.8431 31.8438 21.7011 32.0298 22.3851 32.4018C23.0691 32.7738 23.5851 33.2718 23.9331 33.8958C24.2811 34.5078 24.4551 35.1918 24.4551 35.9478V36.1818C24.4551 37.1658 24.1791 37.9878 23.6271 38.6478C23.0751 39.2958 22.2651 39.8598 21.1971 40.3398L18.9651 41.3298C18.5451 41.5098 18.2511 41.7018 18.0831 41.9058C17.9151 42.0978 17.8311 42.3618 17.8311 42.6978V43.8498L17.2191 43.1838H24.5091V45.3618H15.3291ZM31.7262 45.7038C30.6942 45.7038 29.8182 45.5358 29.0982 45.1998C28.3782 44.8518 27.7902 44.3838 27.3342 43.7958C26.8782 43.1958 26.5422 42.5118 26.3262 41.7438C26.1222 40.9638 26.0202 40.1478 26.0202 39.2958V38.2878C26.0202 37.0758 26.2242 35.9838 26.6322 35.0118C27.0402 34.0398 27.6642 33.2718 28.5042 32.7078C29.3442 32.1318 30.4182 31.8438 31.7262 31.8438C33.0222 31.8438 34.0902 32.1318 34.9302 32.7078C35.7702 33.2718 36.3882 34.0398 36.7842 35.0118C37.1922 35.9838 37.3962 37.0758 37.3962 38.2878V39.2958C37.3962 40.1478 37.2882 40.9638 37.0722 41.7438C36.8682 42.5118 36.5382 43.1958 36.0822 43.7958C35.6382 44.3838 35.0562 44.8518 34.3362 45.1998C33.6162 45.5358 32.7462 45.7038 31.7262 45.7038ZM31.7262 43.3638C32.7942 43.3638 33.5802 42.9978 34.0842 42.2658C34.5882 41.5218 34.8402 40.3698 34.8402 38.8098C34.8402 37.1538 34.5822 35.9718 34.0662 35.2638C33.5502 34.5438 32.7702 34.1838 31.7262 34.1838C30.6702 34.1838 29.8782 34.5438 29.3502 35.2638C28.8342 35.9718 28.5762 37.1418 28.5762 38.7738C28.5762 40.3458 28.8342 41.5038 29.3502 42.2478C29.8662 42.9918 30.6582 43.3638 31.7262 43.3638ZM39.1397 45.3618V42.8418C39.1397 42.2898 39.2237 41.8098 39.3917 41.4018C39.5717 40.9938 39.8597 40.6338 40.2557 40.3218C40.6637 39.9978 41.1977 39.6918 41.8577 39.4038L44.0897 38.4138C44.6417 38.1618 45.0617 37.8558 45.3497 37.4958C45.6497 37.1238 45.7997 36.6498 45.7997 36.0738C45.7997 35.4378 45.6077 34.9338 45.2237 34.5618C44.8517 34.1778 44.3177 33.9858 43.6217 33.9858C42.9257 33.9858 42.3857 34.1778 42.0017 34.5618C41.6297 34.9458 41.4437 35.4798 41.4437 36.1638H38.9777C38.9777 35.3478 39.1517 34.6158 39.4997 33.9678C39.8477 33.3078 40.3637 32.7918 41.0477 32.4198C41.7317 32.0358 42.5897 31.8438 43.6217 31.8438C44.6537 31.8438 45.5117 32.0298 46.1957 32.4018C46.8797 32.7738 47.3957 33.2718 47.7437 33.8958C48.0917 34.5078 48.2657 35.1918 48.2657 35.9478V36.1818C48.2657 37.1658 47.9897 37.9878 47.4377 38.6478C46.8857 39.2958 46.0757 39.8598 45.0077 40.3398L42.7757 41.3298C42.3557 41.5098 42.0617 41.7018 41.8937 41.9058C41.7257 42.0978 41.6417 42.3618 41.6417 42.6978V43.8498L41.0297 43.1838H48.3197V45.3618H39.1397ZM49.8848 45.3618V42.8418C49.8848 42.2898 49.9688 41.8098 50.1368 41.4018C50.3168 40.9938 50.6048 40.6338 51.0008 40.3218C51.4088 39.9978 51.9428 39.6918 52.6028 39.4038L54.8348 38.4138C55.3868 38.1618 55.8068 37.8558 56.0948 37.4958C56.3948 37.1238 56.5448 36.6498 56.5448 36.0738C56.5448 35.4378 56.3528 34.9338 55.9688 34.5618C55.5968 34.1778 55.0628 33.9858 54.3668 33.9858C53.6708 33.9858 53.1308 34.1778 52.7468 34.5618C52.3748 34.9458 52.1888 35.4798 52.1888 36.1638H49.7228C49.7228 35.3478 49.8968 34.6158 50.2448 33.9678C50.5928 33.3078 51.1088 32.7918 51.7928 32.4198C52.4768 32.0358 53.3348 31.8438 54.3668 31.8438C55.3988 31.8438 56.2568 32.0298 56.9408 32.4018C57.6248 32.7738 58.1408 33.2718 58.4888 33.8958C58.8368 34.5078 59.0108 35.1918 59.0108 35.9478V36.1818C59.0108 37.1658 58.7348 37.9878 58.1828 38.6478C57.6308 39.2958 56.8208 39.8598 55.7528 40.3398L53.5208 41.3298C53.1008 41.5098 52.8068 41.7018 52.6388 41.9058C52.4708 42.0978 52.3868 42.3618 52.3868 42.6978V43.8498L51.7748 43.1838H59.0648V45.3618H49.8848Z" fill="white"/>
<path d="M184 22.3618C179.029 22.3618 175 18.3323 175 13.3618C175 8.39125 179.029 4.36182 184 4.36182C188.971 4.36182 193 8.39125 193 13.3618C193 18.3323 188.971 22.3618 184 22.3618ZM183.1 16.0618V17.8618H184.9V16.0618H183.1ZM183.1 8.86182V14.2618H184.9V8.86182H183.1Z" fill="#FFD676"/>
<path d="M125.831 48.5718C125.441 48.5718 125.041 48.5568 124.631 48.5268C124.231 48.4968 123.856 48.4568 123.506 48.4068V46.6668C123.866 46.7068 124.251 46.7418 124.661 46.7718C125.071 46.8118 125.456 46.8318 125.816 46.8318C126.486 46.8318 127.026 46.7518 127.436 46.5918C127.856 46.4318 128.161 46.1768 128.351 45.8268C128.551 45.4868 128.651 45.0518 128.651 44.5218V42.9168L129.101 41.8968C129.071 42.6468 128.916 43.2868 128.636 43.8168C128.356 44.3368 127.976 44.7368 127.496 45.0168C127.016 45.2868 126.461 45.4218 125.831 45.4218C125.271 45.4218 124.761 45.3168 124.301 45.1068C123.851 44.8968 123.461 44.6068 123.131 44.2368C122.811 43.8668 122.561 43.4318 122.381 42.9318C122.201 42.4318 122.111 41.8968 122.111 41.3268V41.0118C122.111 40.4418 122.201 39.9118 122.381 39.4218C122.571 38.9218 122.836 38.4868 123.176 38.1168C123.516 37.7468 123.921 37.4618 124.391 37.2618C124.861 37.0618 125.381 36.9618 125.951 36.9618C126.621 36.9618 127.201 37.1068 127.691 37.3968C128.191 37.6868 128.581 38.1068 128.861 38.6568C129.141 39.2068 129.296 39.8818 129.326 40.6818L128.966 40.7418V37.2168H130.616V44.4018C130.616 45.3918 130.446 46.1918 130.106 46.8018C129.766 47.4118 129.241 47.8568 128.531 48.1368C127.831 48.4268 126.931 48.5718 125.831 48.5718ZM126.431 43.6368C126.831 43.6368 127.196 43.5468 127.526 43.3668C127.856 43.1868 128.121 42.9268 128.321 42.5868C128.521 42.2468 128.621 41.8368 128.621 41.3568V40.8318C128.621 40.3718 128.516 39.9818 128.306 39.6618C128.106 39.3418 127.841 39.1018 127.511 38.9418C127.181 38.7718 126.821 38.6868 126.431 38.6868C125.991 38.6868 125.601 38.7918 125.261 39.0018C124.931 39.2018 124.671 39.4868 124.481 39.8568C124.291 40.2268 124.196 40.6668 124.196 41.1768C124.196 41.6768 124.291 42.1118 124.481 42.4818C124.671 42.8518 124.931 43.1368 125.261 43.3368C125.601 43.5368 125.991 43.6368 126.431 43.6368ZM132.89 45.3618V37.2168H134.54V40.6668H134.495C134.495 39.4968 134.745 38.6118 135.245 38.0118C135.745 37.4118 136.48 37.1118 137.45 37.1118H137.75V38.9268H137.18C136.48 38.9268 135.935 39.1168 135.545 39.4968C135.165 39.8668 134.975 40.4068 134.975 41.1168V45.3618H132.89ZM143.001 45.6468C142.281 45.6468 141.646 45.5318 141.096 45.3018C140.546 45.0718 140.081 44.7618 139.701 44.3718C139.321 43.9718 139.031 43.5218 138.831 43.0218C138.641 42.5218 138.546 42.0018 138.546 41.4618V41.1468C138.546 40.5868 138.646 40.0568 138.846 39.5568C139.056 39.0468 139.351 38.5968 139.731 38.2068C140.121 37.8068 140.591 37.4968 141.141 37.2768C141.691 37.0468 142.311 36.9318 143.001 36.9318C143.691 36.9318 144.311 37.0468 144.861 37.2768C145.411 37.4968 145.876 37.8068 146.256 38.2068C146.646 38.5968 146.941 39.0468 147.141 39.5568C147.341 40.0568 147.441 40.5868 147.441 41.1468V41.4618C147.441 42.0018 147.341 42.5218 147.141 43.0218C146.951 43.5218 146.666 43.9718 146.286 44.3718C145.906 44.7618 145.441 45.0718 144.891 45.3018C144.341 45.5318 143.711 45.6468 143.001 45.6468ZM143.001 43.8618C143.511 43.8618 143.941 43.7518 144.291 43.5318C144.641 43.3018 144.906 42.9968 145.086 42.6168C145.266 42.2268 145.356 41.7868 145.356 41.2968C145.356 40.7968 145.261 40.3568 145.071 39.9768C144.891 39.5868 144.621 39.2818 144.261 39.0618C143.911 38.8318 143.491 38.7168 143.001 38.7168C142.511 38.7168 142.086 38.8318 141.726 39.0618C141.376 39.2818 141.106 39.5868 140.916 39.9768C140.726 40.3568 140.631 40.7968 140.631 41.2968C140.631 41.7868 140.721 42.2268 140.901 42.6168C141.091 42.9968 141.361 43.3018 141.711 43.5318C142.061 43.7518 142.491 43.8618 143.001 43.8618ZM151.881 45.3618L153.426 37.4868H155.826L157.611 45.3618H155.961L154.146 37.5318H155.016L153.411 45.3618H151.881ZM151.266 45.3618L151.251 43.6518H152.916V45.3618H151.266ZM150.426 45.3618L148.206 37.2168H150.231L152.346 45.3618H150.426ZM156.486 45.3618V43.6518H158.151L158.136 45.3618H156.486ZM157.146 45.3618L159.021 37.2168H160.911L158.946 45.3618H157.146ZM166.24 45.4668C165.49 45.4668 164.87 45.3718 164.38 45.1818C163.9 44.9818 163.54 44.6518 163.3 44.1918C163.06 43.7218 162.94 43.0918 162.94 42.3018L162.955 34.9218H164.905L164.89 42.4368C164.89 42.8368 164.995 43.1468 165.205 43.3668C165.425 43.5768 165.735 43.6818 166.135 43.6818H167.41V45.4668H166.24ZM161.65 38.7468V37.2168H167.41V38.7468H161.65ZM169.16 45.3618V34.4118H171.245V40.8018H170.885C170.885 39.9818 170.99 39.2868 171.2 38.7168C171.41 38.1468 171.72 37.7118 172.13 37.4118C172.55 37.1118 173.08 36.9618 173.72 36.9618H173.81C174.74 36.9618 175.445 37.2818 175.925 37.9218C176.405 38.5618 176.645 39.4918 176.645 40.7118V45.3618H174.56V40.5168C174.56 39.9968 174.41 39.5868 174.11 39.2868C173.82 38.9868 173.435 38.8368 172.955 38.8368C172.445 38.8368 172.03 39.0068 171.71 39.3468C171.4 39.6768 171.245 40.1118 171.245 40.6518V45.3618H169.16ZM185.078 45.6168C183.958 45.6168 183.078 45.3818 182.438 44.9118C181.808 44.4318 181.478 43.7718 181.448 42.9318H183.323C183.353 43.2118 183.508 43.4668 183.788 43.6968C184.068 43.9268 184.508 44.0418 185.108 44.0418C185.608 44.0418 186.003 43.9518 186.293 43.7718C186.593 43.5918 186.743 43.3468 186.743 43.0368C186.743 42.7668 186.628 42.5518 186.398 42.3918C186.178 42.2318 185.798 42.1268 185.258 42.0768L184.538 42.0018C183.628 41.9018 182.928 41.6418 182.438 41.2218C181.948 40.8018 181.703 40.2418 181.703 39.5418C181.703 38.9818 181.843 38.5118 182.123 38.1318C182.403 37.7518 182.788 37.4668 183.278 37.2768C183.778 37.0768 184.348 36.9768 184.988 36.9768C185.988 36.9768 186.798 37.1968 187.418 37.6368C188.038 38.0768 188.363 38.7218 188.393 39.5718H186.518C186.498 39.2918 186.358 39.0518 186.098 38.8518C185.838 38.6518 185.463 38.5518 184.973 38.5518C184.533 38.5518 184.193 38.6368 183.953 38.8068C183.713 38.9768 183.593 39.1968 183.593 39.4668C183.593 39.7268 183.688 39.9268 183.878 40.0668C184.078 40.2068 184.398 40.3018 184.838 40.3518L185.558 40.4268C186.518 40.5268 187.268 40.7918 187.808 41.2218C188.358 41.6518 188.633 42.2318 188.633 42.9618C188.633 43.5018 188.483 43.9718 188.183 44.3718C187.893 44.7618 187.483 45.0668 186.953 45.2868C186.423 45.5068 185.798 45.6168 185.078 45.6168ZM193.896 45.4668C193.146 45.4668 192.526 45.3718 192.036 45.1818C191.556 44.9818 191.196 44.6518 190.956 44.1918C190.716 43.7218 190.596 43.0918 190.596 42.3018L190.611 34.9218H192.561L192.546 42.4368C192.546 42.8368 192.651 43.1468 192.861 43.3668C193.081 43.5768 193.391 43.6818 193.791 43.6818H195.066V45.4668H193.896ZM189.306 38.7468V37.2168H195.066V38.7468H189.306ZM200.687 45.6468C199.967 45.6468 199.332 45.5318 198.782 45.3018C198.232 45.0718 197.767 44.7618 197.387 44.3718C197.007 43.9718 196.717 43.5218 196.517 43.0218C196.327 42.5218 196.232 42.0018 196.232 41.4618V41.1468C196.232 40.5868 196.332 40.0568 196.532 39.5568C196.742 39.0468 197.037 38.5968 197.417 38.2068C197.807 37.8068 198.277 37.4968 198.827 37.2768C199.377 37.0468 199.997 36.9318 200.687 36.9318C201.377 36.9318 201.997 37.0468 202.547 37.2768C203.097 37.4968 203.562 37.8068 203.942 38.2068C204.332 38.5968 204.627 39.0468 204.827 39.5568C205.027 40.0568 205.127 40.5868 205.127 41.1468V41.4618C205.127 42.0018 205.027 42.5218 204.827 43.0218C204.637 43.5218 204.352 43.9718 203.972 44.3718C203.592 44.7618 203.127 45.0718 202.577 45.3018C202.027 45.5318 201.397 45.6468 200.687 45.6468ZM200.687 43.8618C201.197 43.8618 201.627 43.7518 201.977 43.5318C202.327 43.3018 202.592 42.9968 202.772 42.6168C202.952 42.2268 203.042 41.7868 203.042 41.2968C203.042 40.7968 202.947 40.3568 202.757 39.9768C202.577 39.5868 202.307 39.2818 201.947 39.0618C201.597 38.8318 201.177 38.7168 200.687 38.7168C200.197 38.7168 199.772 38.8318 199.412 39.0618C199.062 39.2818 198.792 39.5868 198.602 39.9768C198.412 40.3568 198.317 40.7968 198.317 41.2968C198.317 41.7868 198.407 42.2268 198.587 42.6168C198.777 42.9968 199.047 43.3018 199.397 43.5318C199.747 43.7518 200.177 43.8618 200.687 43.8618ZM206.953 48.3618V37.2168H208.603V40.7268L208.348 40.7118C208.388 39.8818 208.558 39.1868 208.858 38.6268C209.168 38.0668 209.578 37.6518 210.088 37.3818C210.598 37.1018 211.168 36.9618 211.798 36.9618C212.378 36.9618 212.898 37.0668 213.358 37.2768C213.828 37.4868 214.228 37.7818 214.558 38.1618C214.898 38.5418 215.158 38.9868 215.338 39.4968C215.518 39.9968 215.608 40.5368 215.608 41.1168V41.4318C215.608 42.0218 215.518 42.5718 215.338 43.0818C215.168 43.5818 214.913 44.0268 214.573 44.4168C214.243 44.7968 213.843 45.0968 213.373 45.3168C212.903 45.5268 212.378 45.6318 211.798 45.6318C211.188 45.6318 210.628 45.5068 210.118 45.2568C209.618 44.9968 209.213 44.6018 208.903 44.0718C208.593 43.5318 208.418 42.8368 208.378 41.9868L209.038 42.9918V48.3618H206.953ZM211.273 43.8768C211.723 43.8768 212.113 43.7668 212.443 43.5468C212.783 43.3268 213.048 43.0218 213.238 42.6318C213.428 42.2318 213.523 41.7818 213.523 41.2818C213.523 40.7618 213.428 40.3118 213.238 39.9318C213.048 39.5518 212.783 39.2568 212.443 39.0468C212.113 38.8268 211.723 38.7168 211.273 38.7168C210.863 38.7168 210.483 38.8068 210.133 38.9868C209.793 39.1668 209.513 39.4318 209.293 39.7818C209.083 40.1318 208.978 40.5518 208.978 41.0418V41.6418C208.978 42.1118 209.088 42.5118 209.308 42.8418C209.528 43.1718 209.813 43.4268 210.163 43.6068C210.513 43.7868 210.883 43.8768 211.273 43.8768ZM217.441 48.3618V37.2168H219.091V40.7268L218.836 40.7118C218.876 39.8818 219.046 39.1868 219.346 38.6268C219.656 38.0668 220.066 37.6518 220.576 37.3818C221.086 37.1018 221.656 36.9618 222.286 36.9618C222.866 36.9618 223.386 37.0668 223.846 37.2768C224.316 37.4868 224.716 37.7818 225.046 38.1618C225.386 38.5418 225.646 38.9868 225.826 39.4968C226.006 39.9968 226.096 40.5368 226.096 41.1168V41.4318C226.096 42.0218 226.006 42.5718 225.826 43.0818C225.656 43.5818 225.401 44.0268 225.061 44.4168C224.731 44.7968 224.331 45.0968 223.861 45.3168C223.391 45.5268 222.866 45.6318 222.286 45.6318C221.676 45.6318 221.116 45.5068 220.606 45.2568C220.106 44.9968 219.701 44.6018 219.391 44.0718C219.081 43.5318 218.906 42.8368 218.866 41.9868L219.526 42.9918V48.3618H217.441ZM221.761 43.8768C222.211 43.8768 222.601 43.7668 222.931 43.5468C223.271 43.3268 223.536 43.0218 223.726 42.6318C223.916 42.2318 224.011 41.7818 224.011 41.2818C224.011 40.7618 223.916 40.3118 223.726 39.9318C223.536 39.5518 223.271 39.2568 222.931 39.0468C222.601 38.8268 222.211 38.7168 221.761 38.7168C221.351 38.7168 220.971 38.8068 220.621 38.9868C220.281 39.1668 220.001 39.4318 219.781 39.7818C219.571 40.1318 219.466 40.5518 219.466 41.0418V41.6418C219.466 42.1118 219.576 42.5118 219.796 42.8418C220.016 43.1718 220.301 43.4268 220.651 43.6068C221.001 43.7868 221.371 43.8768 221.761 43.8768ZM231.574 45.6468C230.874 45.6468 230.259 45.5268 229.729 45.2868C229.209 45.0468 228.774 44.7268 228.424 44.3268C228.084 43.9168 227.824 43.4618 227.644 42.9618C227.474 42.4618 227.389 41.9518 227.389 41.4318V41.1468C227.389 40.6068 227.474 40.0868 227.644 39.5868C227.824 39.0768 228.084 38.6268 228.424 38.2368C228.774 37.8368 229.204 37.5218 229.714 37.2918C230.224 37.0518 230.814 36.9318 231.484 36.9318C232.364 36.9318 233.099 37.1268 233.689 37.5168C234.289 37.8968 234.739 38.4018 235.039 39.0318C235.339 39.6518 235.489 40.3218 235.489 41.0418V41.7918H228.274V40.5168H234.184L233.539 41.1468C233.539 40.6268 233.464 40.1818 233.314 39.8118C233.164 39.4418 232.934 39.1568 232.624 38.9568C232.324 38.7568 231.944 38.6568 231.484 38.6568C231.024 38.6568 230.634 38.7618 230.314 38.9718C229.994 39.1818 229.749 39.4868 229.579 39.8868C229.419 40.2768 229.339 40.7468 229.339 41.2968C229.339 41.8068 229.419 42.2618 229.579 42.6618C229.739 43.0518 229.984 43.3618 230.314 43.5918C230.644 43.8118 231.064 43.9218 231.574 43.9218C232.084 43.9218 232.499 43.8218 232.819 43.6218C233.139 43.4118 233.344 43.1568 233.434 42.8568H235.354C235.234 43.4168 235.004 43.9068 234.664 44.3268C234.324 44.7468 233.889 45.0718 233.359 45.3018C232.839 45.5318 232.244 45.6468 231.574 45.6468ZM240.606 45.6318C240.036 45.6318 239.511 45.5268 239.031 45.3168C238.551 45.1068 238.136 44.8118 237.786 44.4318C237.436 44.0518 237.166 43.6118 236.976 43.1118C236.786 42.6018 236.691 42.0518 236.691 41.4618V41.1468C236.691 40.5668 236.781 40.0218 236.961 39.5118C237.151 39.0018 237.411 38.5568 237.741 38.1768C238.081 37.7968 238.486 37.5018 238.956 37.2918C239.436 37.0718 239.966 36.9618 240.546 36.9618C241.186 36.9618 241.746 37.1018 242.226 37.3818C242.716 37.6518 243.106 38.0618 243.396 38.6118C243.686 39.1618 243.846 39.8518 243.876 40.6818L243.261 39.9618V34.4118H245.346V45.3618H243.696V41.8968H244.056C244.026 42.7268 243.856 43.4218 243.546 43.9818C243.236 44.5318 242.826 44.9468 242.316 45.2268C241.816 45.4968 241.246 45.6318 240.606 45.6318ZM241.071 43.8768C241.481 43.8768 241.856 43.7868 242.196 43.6068C242.536 43.4168 242.806 43.1468 243.006 42.7968C243.216 42.4368 243.321 42.0168 243.321 41.5368V40.9368C243.321 40.4568 243.216 40.0568 243.006 39.7368C242.796 39.4068 242.521 39.1568 242.181 38.9868C241.841 38.8068 241.471 38.7168 241.071 38.7168C240.621 38.7168 240.221 38.8268 239.871 39.0468C239.531 39.2568 239.261 39.5568 239.061 39.9468C238.871 40.3368 238.776 40.7918 238.776 41.3118C238.776 41.8318 238.876 42.2868 239.076 42.6768C239.276 43.0568 239.546 43.3518 239.886 43.5618C240.236 43.7718 240.631 43.8768 241.071 43.8768Z" fill="white"/>
<circle cx="88.9961" cy="260.362" r="16.5" transform="rotate(90 88.9961 260.362)" fill="#3F3F3F"/>
<circle cx="88.9961" cy="260.362" r="5.5" transform="rotate(90 88.9961 260.362)" fill="#5CA1FF"/>
<path d="M172.36 221.099L173.082 219.453C173.725 217.988 174.882 216.822 176.325 216.185L178.312 215.307C178.944 215.027 178.944 214.112 178.312 213.833L176.387 212.982C174.907 212.329 173.729 211.119 173.098 209.604L172.366 207.85C172.095 207.199 171.191 207.199 170.92 207.85L170.188 209.604C169.557 211.119 168.379 212.329 166.899 212.982L164.974 213.833C164.342 214.112 164.342 215.027 164.974 215.307L166.961 216.185C168.404 216.822 169.561 217.988 170.203 219.453L170.926 221.099C171.203 221.732 172.083 221.732 172.36 221.099ZM179.59 225.107L179.793 224.644C180.155 223.818 180.807 223.161 181.621 222.801L182.246 222.524C182.585 222.374 182.585 221.885 182.246 221.735L181.656 221.474C180.821 221.105 180.157 220.423 179.802 219.569L179.593 219.068C179.448 218.72 178.963 218.72 178.818 219.068L178.609 219.569C178.253 220.423 177.59 221.105 176.755 221.474L176.165 221.735C175.826 221.885 175.826 222.374 176.165 222.524L176.79 222.801C177.604 223.161 178.256 223.818 178.618 224.644L178.821 225.107C178.97 225.447 179.441 225.447 179.59 225.107Z" fill="#DFF36B"/>
<path d="M145.238 248.362V237.412H148.733L153.338 246.592H153.833L153.533 246.862V237.412H155.543V248.362H152.033L147.428 239.182H146.918L147.218 238.912V248.362H145.238ZM161.996 248.647C161.276 248.647 160.641 248.532 160.091 248.302C159.541 248.072 159.076 247.762 158.696 247.372C158.316 246.972 158.026 246.522 157.826 246.022C157.636 245.522 157.541 245.002 157.541 244.462V244.147C157.541 243.587 157.641 243.057 157.841 242.557C158.051 242.047 158.346 241.597 158.726 241.207C159.116 240.807 159.586 240.497 160.136 240.277C160.686 240.047 161.306 239.932 161.996 239.932C162.686 239.932 163.306 240.047 163.856 240.277C164.406 240.497 164.871 240.807 165.251 241.207C165.641 241.597 165.936 242.047 166.136 242.557C166.336 243.057 166.436 243.587 166.436 244.147V244.462C166.436 245.002 166.336 245.522 166.136 246.022C165.946 246.522 165.661 246.972 165.281 247.372C164.901 247.762 164.436 248.072 163.886 248.302C163.336 248.532 162.706 248.647 161.996 248.647ZM161.996 246.862C162.506 246.862 162.936 246.752 163.286 246.532C163.636 246.302 163.901 245.997 164.081 245.617C164.261 245.227 164.351 244.787 164.351 244.297C164.351 243.797 164.256 243.357 164.066 242.977C163.886 242.587 163.616 242.282 163.256 242.062C162.906 241.832 162.486 241.717 161.996 241.717C161.506 241.717 161.081 241.832 160.721 242.062C160.371 242.282 160.101 242.587 159.911 242.977C159.721 243.357 159.626 243.797 159.626 244.297C159.626 244.787 159.716 245.227 159.896 245.617C160.086 245.997 160.356 246.302 160.706 246.532C161.056 246.752 161.486 246.862 161.996 246.862ZM170.876 248.362L172.421 240.487H174.821L176.606 248.362H174.956L173.141 240.532H174.011L172.406 248.362H170.876ZM170.261 248.362L170.246 246.652H171.911V248.362H170.261ZM169.421 248.362L167.201 240.217H169.226L171.341 248.362H169.421ZM175.481 248.362V246.652H177.146L177.131 248.362H175.481ZM176.141 248.362L178.016 240.217H179.906L177.941 248.362H176.141ZM185.175 248.362V240.217H187.26V248.362H185.175ZM184.035 241.777V240.217H187.26V241.777H184.035ZM185.94 239.242C185.53 239.242 185.225 239.137 185.025 238.927C184.835 238.707 184.74 238.437 184.74 238.117C184.74 237.777 184.835 237.502 185.025 237.292C185.225 237.082 185.53 236.977 185.94 236.977C186.35 236.977 186.65 237.082 186.84 237.292C187.03 237.502 187.125 237.777 187.125 238.117C187.125 238.437 187.03 238.707 186.84 238.927C186.65 239.137 186.35 239.242 185.94 239.242ZM193.203 248.467C192.453 248.467 191.833 248.372 191.343 248.182C190.863 247.982 190.503 247.652 190.263 247.192C190.023 246.722 189.903 246.092 189.903 245.302L189.918 237.922H191.868L191.853 245.437C191.853 245.837 191.958 246.147 192.168 246.367C192.388 246.577 192.698 246.682 193.098 246.682H194.373V248.467H193.203ZM188.613 241.747V240.217H194.373V241.747H188.613ZM199.019 248.617C197.899 248.617 197.019 248.382 196.379 247.912C195.749 247.432 195.419 246.772 195.389 245.932H197.264C197.294 246.212 197.449 246.467 197.729 246.697C198.009 246.927 198.449 247.042 199.049 247.042C199.549 247.042 199.944 246.952 200.234 246.772C200.534 246.592 200.684 246.347 200.684 246.037C200.684 245.767 200.569 245.552 200.339 245.392C200.119 245.232 199.739 245.127 199.199 245.077L198.479 245.002C197.569 244.902 196.869 244.642 196.379 244.222C195.889 243.802 195.644 243.242 195.644 242.542C195.644 241.982 195.784 241.512 196.064 241.132C196.344 240.752 196.729 240.467 197.219 240.277C197.719 240.077 198.289 239.977 198.929 239.977C199.929 239.977 200.739 240.197 201.359 240.637C201.979 241.077 202.304 241.722 202.334 242.572H200.459C200.439 242.292 200.299 242.052 200.039 241.852C199.779 241.652 199.404 241.552 198.914 241.552C198.474 241.552 198.134 241.637 197.894 241.807C197.654 241.977 197.534 242.197 197.534 242.467C197.534 242.727 197.629 242.927 197.819 243.067C198.019 243.207 198.339 243.302 198.779 243.352L199.499 243.427C200.459 243.527 201.209 243.792 201.749 244.222C202.299 244.652 202.574 245.232 202.574 245.962C202.574 246.502 202.424 246.972 202.124 247.372C201.834 247.762 201.424 248.067 200.894 248.287C200.364 248.507 199.739 248.617 199.019 248.617ZM125.784 266.467C125.034 266.467 124.414 266.372 123.924 266.182C123.444 265.982 123.084 265.652 122.844 265.192C122.604 264.722 122.484 264.092 122.484 263.302L122.499 255.922H124.449L124.434 263.437C124.434 263.837 124.539 264.147 124.749 264.367C124.969 264.577 125.279 264.682 125.679 264.682H126.954V266.467H125.784ZM121.194 259.747V258.217H126.954V259.747H121.194ZM129.094 266.362V258.217H131.179V266.362H129.094ZM127.954 259.777V258.217H131.179V259.777H127.954ZM129.859 257.242C129.449 257.242 129.144 257.137 128.944 256.927C128.754 256.707 128.659 256.437 128.659 256.117C128.659 255.777 128.754 255.502 128.944 255.292C129.144 255.082 129.449 254.977 129.859 254.977C130.269 254.977 130.569 255.082 130.759 255.292C130.949 255.502 131.044 255.777 131.044 256.117C131.044 256.437 130.949 256.707 130.759 256.927C130.569 257.137 130.269 257.242 129.859 257.242ZM133.581 266.362V258.217H135.231V261.712H135.081C135.081 260.892 135.186 260.207 135.396 259.657C135.606 259.097 135.916 258.677 136.326 258.397C136.746 258.107 137.266 257.962 137.886 257.962H137.976C138.606 257.962 139.126 258.107 139.536 258.397C139.956 258.677 140.266 259.097 140.466 259.657C140.676 260.207 140.781 260.892 140.781 261.712H140.256C140.256 260.892 140.361 260.207 140.571 259.657C140.791 259.097 141.106 258.677 141.516 258.397C141.936 258.107 142.456 257.962 143.076 257.962H143.166C143.796 257.962 144.321 258.107 144.741 258.397C145.161 258.677 145.476 259.097 145.686 259.657C145.906 260.207 146.016 260.892 146.016 261.712V266.362H143.931V261.517C143.931 261.007 143.801 260.602 143.541 260.302C143.281 259.992 142.911 259.837 142.431 259.837C141.951 259.837 141.566 259.997 141.276 260.317C140.986 260.627 140.841 261.047 140.841 261.577V266.362H138.756V261.517C138.756 261.007 138.626 260.602 138.366 260.302C138.106 259.992 137.736 259.837 137.256 259.837C136.776 259.837 136.391 259.997 136.101 260.317C135.811 260.627 135.666 261.047 135.666 261.577V266.362H133.581ZM151.89 266.647C151.19 266.647 150.575 266.527 150.045 266.287C149.525 266.047 149.09 265.727 148.74 265.327C148.4 264.917 148.14 264.462 147.96 263.962C147.79 263.462 147.705 262.952 147.705 262.432V262.147C147.705 261.607 147.79 261.087 147.96 260.587C148.14 260.077 148.4 259.627 148.74 259.237C149.09 258.837 149.52 258.522 150.03 258.292C150.54 258.052 151.13 257.932 151.8 257.932C152.68 257.932 153.415 258.127 154.005 258.517C154.605 258.897 155.055 259.402 155.355 260.032C155.655 260.652 155.805 261.322 155.805 262.042V262.792H148.59V261.517H154.5L153.855 262.147C153.855 261.627 153.78 261.182 153.63 260.812C153.48 260.442 153.25 260.157 152.94 259.957C152.64 259.757 152.26 259.657 151.8 259.657C151.34 259.657 150.95 259.762 150.63 259.972C150.31 260.182 150.065 260.487 149.895 260.887C149.735 261.277 149.655 261.747 149.655 262.297C149.655 262.807 149.735 263.262 149.895 263.662C150.055 264.052 150.3 264.362 150.63 264.592C150.96 264.812 151.38 264.922 151.89 264.922C152.4 264.922 152.815 264.822 153.135 264.622C153.455 264.412 153.66 264.157 153.75 263.857H155.67C155.55 264.417 155.32 264.907 154.98 265.327C154.64 265.747 154.205 266.072 153.675 266.302C153.155 266.532 152.56 266.647 151.89 266.647ZM164.324 266.467C163.574 266.467 162.954 266.372 162.464 266.182C161.984 265.982 161.624 265.652 161.384 265.192C161.144 264.722 161.024 264.092 161.024 263.302L161.039 255.922H162.989L162.974 263.437C162.974 263.837 163.079 264.147 163.289 264.367C163.509 264.577 163.819 264.682 164.219 264.682H165.494V266.467H164.324ZM159.734 259.747V258.217H165.494V259.747H159.734ZM171.115 266.647C170.395 266.647 169.76 266.532 169.21 266.302C168.66 266.072 168.195 265.762 167.815 265.372C167.435 264.972 167.145 264.522 166.945 264.022C166.755 263.522 166.66 263.002 166.66 262.462V262.147C166.66 261.587 166.76 261.057 166.96 260.557C167.17 260.047 167.465 259.597 167.845 259.207C168.235 258.807 168.705 258.497 169.255 258.277C169.805 258.047 170.425 257.932 171.115 257.932C171.805 257.932 172.425 258.047 172.975 258.277C173.525 258.497 173.99 258.807 174.37 259.207C174.76 259.597 175.055 260.047 175.255 260.557C175.455 261.057 175.555 261.587 175.555 262.147V262.462C175.555 263.002 175.455 263.522 175.255 264.022C175.065 264.522 174.78 264.972 174.4 265.372C174.02 265.762 173.555 266.072 173.005 266.302C172.455 266.532 171.825 266.647 171.115 266.647ZM171.115 264.862C171.625 264.862 172.055 264.752 172.405 264.532C172.755 264.302 173.02 263.997 173.2 263.617C173.38 263.227 173.47 262.787 173.47 262.297C173.47 261.797 173.375 261.357 173.185 260.977C173.005 260.587 172.735 260.282 172.375 260.062C172.025 259.832 171.605 259.717 171.115 259.717C170.625 259.717 170.2 259.832 169.84 260.062C169.49 260.282 169.22 260.587 169.03 260.977C168.84 261.357 168.745 261.797 168.745 262.297C168.745 262.787 168.835 263.227 169.015 263.617C169.205 263.997 169.475 264.302 169.825 264.532C170.175 264.752 170.605 264.862 171.115 264.862ZM183.573 266.617C182.453 266.617 181.573 266.382 180.933 265.912C180.303 265.432 179.973 264.772 179.943 263.932H181.818C181.848 264.212 182.003 264.467 182.283 264.697C182.563 264.927 183.003 265.042 183.603 265.042C184.103 265.042 184.498 264.952 184.788 264.772C185.088 264.592 185.238 264.347 185.238 264.037C185.238 263.767 185.123 263.552 184.893 263.392C184.673 263.232 184.293 263.127 183.753 263.077L183.033 263.002C182.123 262.902 181.423 262.642 180.933 262.222C180.443 261.802 180.198 261.242 180.198 260.542C180.198 259.982 180.338 259.512 180.618 259.132C180.898 258.752 181.283 258.467 181.773 258.277C182.273 258.077 182.843 257.977 183.483 257.977C184.483 257.977 185.293 258.197 185.913 258.637C186.533 259.077 186.858 259.722 186.888 260.572H185.013C184.993 260.292 184.853 260.052 184.593 259.852C184.333 259.652 183.958 259.552 183.468 259.552C183.028 259.552 182.688 259.637 182.448 259.807C182.208 259.977 182.088 260.197 182.088 260.467C182.088 260.727 182.183 260.927 182.373 261.067C182.573 261.207 182.893 261.302 183.333 261.352L184.053 261.427C185.013 261.527 185.763 261.792 186.303 262.222C186.853 262.652 187.128 263.232 187.128 263.962C187.128 264.502 186.978 264.972 186.678 265.372C186.388 265.762 185.978 266.067 185.448 266.287C184.918 266.507 184.293 266.617 183.573 266.617ZM188.85 266.362V255.412H190.935V261.802H190.575C190.575 260.982 190.68 260.287 190.89 259.717C191.1 259.147 191.41 258.712 191.82 258.412C192.24 258.112 192.77 257.962 193.41 257.962H193.5C194.43 257.962 195.135 258.282 195.615 258.922C196.095 259.562 196.335 260.492 196.335 261.712V266.362H194.25V261.517C194.25 260.997 194.1 260.587 193.8 260.287C193.51 259.987 193.125 259.837 192.645 259.837C192.135 259.837 191.72 260.007 191.4 260.347C191.09 260.677 190.935 261.112 190.935 261.652V266.362H188.85ZM198.967 266.362V258.217H201.052V266.362H198.967ZM197.827 259.777V258.217H201.052V259.777H197.827ZM199.732 257.242C199.322 257.242 199.017 257.137 198.817 256.927C198.627 256.707 198.532 256.437 198.532 256.117C198.532 255.777 198.627 255.502 198.817 255.292C199.017 255.082 199.322 254.977 199.732 254.977C200.142 254.977 200.442 255.082 200.632 255.292C200.822 255.502 200.917 255.777 200.917 256.117C200.917 256.437 200.822 256.707 200.632 256.927C200.442 257.137 200.142 257.242 199.732 257.242ZM203.455 266.362V258.217H205.105V261.712H204.955C204.955 260.882 205.065 260.192 205.285 259.642C205.505 259.082 205.83 258.662 206.26 258.382C206.7 258.102 207.245 257.962 207.895 257.962H207.985C208.955 257.962 209.69 258.277 210.19 258.907C210.69 259.527 210.94 260.457 210.94 261.697V266.362H208.855V261.517C208.855 261.017 208.71 260.612 208.42 260.302C208.14 259.992 207.75 259.837 207.25 259.837C206.74 259.837 206.325 259.997 206.005 260.317C205.695 260.627 205.54 261.047 205.54 261.577V266.362H203.455ZM216.826 266.647C216.126 266.647 215.511 266.527 214.981 266.287C214.461 266.047 214.026 265.727 213.676 265.327C213.336 264.917 213.076 264.462 212.896 263.962C212.726 263.462 212.641 262.952 212.641 262.432V262.147C212.641 261.607 212.726 261.087 212.896 260.587C213.076 260.077 213.336 259.627 213.676 259.237C214.026 258.837 214.456 258.522 214.966 258.292C215.476 258.052 216.066 257.932 216.736 257.932C217.616 257.932 218.351 258.127 218.941 258.517C219.541 258.897 219.991 259.402 220.291 260.032C220.591 260.652 220.741 261.322 220.741 262.042V262.792H213.526V261.517H219.436L218.791 262.147C218.791 261.627 218.716 261.182 218.566 260.812C218.416 260.442 218.186 260.157 217.876 259.957C217.576 259.757 217.196 259.657 216.736 259.657C216.276 259.657 215.886 259.762 215.566 259.972C215.246 260.182 215.001 260.487 214.831 260.887C214.671 261.277 214.591 261.747 214.591 262.297C214.591 262.807 214.671 263.262 214.831 263.662C214.991 264.052 215.236 264.362 215.566 264.592C215.896 264.812 216.316 264.922 216.826 264.922C217.336 264.922 217.751 264.822 218.071 264.622C218.391 264.412 218.596 264.157 218.686 263.857H220.606C220.486 264.417 220.256 264.907 219.916 265.327C219.576 265.747 219.141 266.072 218.611 266.302C218.091 266.532 217.496 266.647 216.826 266.647ZM222.558 262.807V255.412H224.688V262.807H222.558ZM222.393 266.362V264.142H224.853V266.362H222.393Z" fill="#DFF36B"/>
<path d="M1.8368 266.362V263.842C1.8368 263.29 1.9208 262.81 2.0888 262.402C2.2688 261.994 2.5568 261.634 2.9528 261.322C3.3608 260.998 3.8948 260.692 4.5548 260.404L6.7868 259.414C7.3388 259.162 7.7588 258.856 8.0468 258.496C8.3468 258.124 8.4968 257.65 8.4968 257.074C8.4968 256.438 8.3048 255.934 7.9208 255.562C7.5488 255.178 7.0148 254.986 6.3188 254.986C5.6228 254.986 5.0828 255.178 4.6988 255.562C4.3268 255.946 4.1408 256.48 4.1408 257.164H1.6748C1.6748 256.348 1.8488 255.616 2.1968 254.968C2.5448 254.308 3.0608 253.792 3.7448 253.42C4.4288 253.036 5.2868 252.844 6.3188 252.844C7.3508 252.844 8.2088 253.03 8.8928 253.402C9.5768 253.774 10.0928 254.272 10.4408 254.896C10.7888 255.508 10.9628 256.192 10.9628 256.948V257.182C10.9628 258.166 10.6868 258.988 10.1348 259.648C9.5828 260.296 8.7728 260.86 7.7048 261.34L5.4728 262.33C5.0528 262.51 4.7588 262.702 4.5908 262.906C4.4228 263.098 4.3388 263.362 4.3388 263.698V264.85L3.7268 264.184H11.0168V266.362H1.8368ZM18.234 266.704C17.202 266.704 16.326 266.536 15.606 266.2C14.886 265.852 14.298 265.384 13.842 264.796C13.386 264.196 13.05 263.512 12.834 262.744C12.63 261.964 12.528 261.148 12.528 260.296V259.288C12.528 258.076 12.732 256.984 13.14 256.012C13.548 255.04 14.172 254.272 15.012 253.708C15.852 253.132 16.926 252.844 18.234 252.844C19.53 252.844 20.598 253.132 21.438 253.708C22.278 254.272 22.896 255.04 23.292 256.012C23.7 256.984 23.904 258.076 23.904 259.288V260.296C23.904 261.148 23.796 261.964 23.58 262.744C23.376 263.512 23.046 264.196 22.59 264.796C22.146 265.384 21.564 265.852 20.844 266.2C20.124 266.536 19.254 266.704 18.234 266.704ZM18.234 264.364C19.302 264.364 20.088 263.998 20.592 263.266C21.096 262.522 21.348 261.37 21.348 259.81C21.348 258.154 21.09 256.972 20.574 256.264C20.058 255.544 19.278 255.184 18.234 255.184C17.178 255.184 16.386 255.544 15.858 256.264C15.342 256.972 15.084 258.142 15.084 259.774C15.084 261.346 15.342 262.504 15.858 263.248C16.374 263.992 17.166 264.364 18.234 264.364ZM25.6474 266.362V263.842C25.6474 263.29 25.7314 262.81 25.8994 262.402C26.0794 261.994 26.3674 261.634 26.7634 261.322C27.1714 260.998 27.7054 260.692 28.3654 260.404L30.5974 259.414C31.1494 259.162 31.5694 258.856 31.8574 258.496C32.1574 258.124 32.3074 257.65 32.3074 257.074C32.3074 256.438 32.1154 255.934 31.7314 255.562C31.3594 255.178 30.8254 254.986 30.1294 254.986C29.4334 254.986 28.8934 255.178 28.5094 255.562C28.1374 255.946 27.9514 256.48 27.9514 257.164H25.4854C25.4854 256.348 25.6594 255.616 26.0074 254.968C26.3554 254.308 26.8714 253.792 27.5554 253.42C28.2394 253.036 29.0974 252.844 30.1294 252.844C31.1614 252.844 32.0194 253.03 32.7034 253.402C33.3874 253.774 33.9034 254.272 34.2514 254.896C34.5994 255.508 34.7734 256.192 34.7734 256.948V257.182C34.7734 258.166 34.4974 258.988 33.9454 259.648C33.3934 260.296 32.5834 260.86 31.5154 261.34L29.2834 262.33C28.8634 262.51 28.5694 262.702 28.4014 262.906C28.2334 263.098 28.1494 263.362 28.1494 263.698V264.85L27.5374 264.184H34.8274V266.362H25.6474ZM35.9066 263.644V260.872L41.0546 252.862L42.9806 254.176L38.4446 261.268L38.6606 261.628H46.7246V263.644H35.9066ZM42.7826 266.362V256.948H45.1406V266.362H42.7826ZM53.2933 262.114V258.91H54.8233C55.5433 258.91 56.0713 258.724 56.4073 258.352C56.7553 257.968 56.9293 257.5 56.9293 256.948C56.9293 256.552 56.8513 256.21 56.6953 255.922C56.5393 255.622 56.3113 255.394 56.0113 255.238C55.7113 255.082 55.3633 255.004 54.9673 255.004C54.5353 255.004 54.1633 255.094 53.8513 255.274C53.5513 255.454 53.3173 255.694 53.1493 255.994C52.9813 256.294 52.8973 256.642 52.8973 257.038H50.5033C50.5033 256.27 50.6773 255.568 51.0253 254.932C51.3733 254.296 51.8833 253.792 52.5553 253.42C53.2273 253.036 54.0493 252.844 55.0213 252.844C55.9093 252.844 56.6713 253.018 57.3073 253.366C57.9553 253.702 58.4533 254.164 58.8013 254.752C59.1493 255.34 59.3233 256.006 59.3233 256.75V256.966C59.3233 257.698 59.1493 258.352 58.8013 258.928C58.4533 259.504 57.9373 259.96 57.2533 260.296C56.5813 260.62 55.7593 260.794 54.7873 260.818L55.8133 259.882L55.7773 262.114H53.2933ZM53.0953 266.362V263.698H55.9753V266.362H53.0953Z" fill="white"/>
</svg>
