<svg width="382" height="498" viewBox="0 0 382 498" fill="none" xmlns="http://www.w3.org/2000/svg">
<rect width="382" height="497.515" rx="18.2994" fill="#292929"/>
<path d="M145 281.745C145 279.677 146.677 278 148.745 278H327.26C329.326 278 331 279.674 331 281.74V289.26C331 291.326 329.326 293 327.26 293H148.745C146.677 293 145 291.323 145 289.255V281.745Z" fill="#565656"/>
<rect x="145" y="256" width="220" height="14" rx="3.74484" fill="#565656"/>
<circle cx="19.1324" cy="16.8453" r="3.1207" fill="#FF5E5D"/>
<circle cx="27.7145" cy="16.8453" r="3.1207" fill="#FEBE28"/>
<circle cx="36.2965" cy="16.8453" r="3.1207" fill="#28C946"/>
<line x1="1.3641e-08" y1="29.5803" x2="382" y2="29.5803" stroke="#DEDEDE" stroke-width="0.31207"/>
<circle cx="37.1704" cy="72.626" r="21.1587" fill="#565656"/>
<rect x="80.0605" y="51.4673" width="284.784" height="72.0539" rx="3.74484" fill="#5CA1FF"/>
<path d="M80 54.7448C80 52.6766 81.6766 51 83.7448 51H365V124H83.7448C81.6766 124 80 122.323 80 120.255V54.7448Z" fill="#565656"/>
<rect x="16.0117" y="180.707" width="42.3174" height="44.6048" rx="3.74484" fill="#565656"/>
<rect x="145" y="151" width="64" height="15" rx="3.74484" fill="#565656"/>
<rect x="145.252" y="233.317" width="60.6168" height="14.8683" rx="3.74484" fill="#565656"/>
<rect x="145" y="317" width="97" height="15" rx="3.74484" fill="#565656"/>
<rect x="145" y="400" width="97" height="15" rx="3.74484" fill="#565656"/>
<rect x="145.252" y="173.844" width="219.593" height="13.7246" rx="3.74484" fill="#565656"/>
<rect x="145.252" y="339.683" width="219.593" height="13.7246" rx="3.74484" fill="#565656"/>
<rect x="145.252" y="423.174" width="219.593" height="13.7246" rx="3.74484" fill="#565656"/>
<rect x="145.252" y="195.575" width="185.281" height="14.8683" rx="3.74484" fill="#565656"/>
<rect x="145.252" y="361.413" width="185.281" height="14.8683" rx="3.74484" fill="#565656"/>
<rect x="145" y="445" width="192" height="15" rx="3.74484" fill="#565656"/>
<rect x="80.0605" y="150.97" width="60.6168" height="60.6168" rx="3.74484" fill="#565656"/>
<rect x="80.0605" y="233.317" width="60.6168" height="60.6168" rx="3.74484" fill="#565656"/>
<path d="M80.0605 237.062C80.0605 234.994 81.7372 233.317 83.8054 233.317H136.932C139.001 233.317 140.677 234.994 140.677 237.062V249.329H80.0605V237.062Z" fill="#565656"/>
<rect x="80.0605" y="316.809" width="60.6168" height="60.6168" rx="3.74484" fill="#565656"/>
<rect x="80.0605" y="400.299" width="60.6168" height="60.6168" rx="3.74484" fill="#565656"/>
<rect x="16.0117" y="306.515" width="42.3174" height="41.1737" rx="3.74484" fill="#565656"/>
<rect x="16.0117" y="243.611" width="42.3174" height="41.1737" rx="3.74484" fill="#565656"/>
<path d="M16.0117 247.356C16.0117 245.287 17.6883 243.611 19.7566 243.611H54.5842C56.6525 243.611 58.3291 245.287 58.3291 247.356V249.329H16.0117V247.356Z" fill="#565656"/>
<rect x="16.0117" y="368.275" width="42.3174" height="42.3174" rx="3.74484" fill="#565656"/>
</svg>
