<svg width="50" height="50" viewBox="0 0 50 50" fill="none" xmlns="http://www.w3.org/2000/svg">
<rect x="0.5" y="0.5" width="49" height="49" rx="24.5" fill="white"/>
<path d="M26.5 16.4634C26.5 16.8968 26.3069 17.2862 26 17.5542V19.3902H31C32.6569 19.3902 34 20.7006 34 22.3171V32.0732C34 33.6897 32.6569 35 31 35H19C17.3432 35 16 33.6897 16 32.0732V22.3171C16 20.7006 17.3432 19.3902 19 19.3902H24V17.5542C23.6931 17.2862 23.5 16.8968 23.5 16.4634C23.5 15.6552 24.1716 15 25 15C25.8284 15 26.5 15.6552 26.5 16.4634ZM13 24.2683H15V30.122H13V24.2683ZM37 24.2683H35V30.122H37V24.2683ZM22 28.6585C22.8284 28.6585 23.5 28.0033 23.5 27.1951C23.5 26.3869 22.8284 25.7317 22 25.7317C21.1716 25.7317 20.5 26.3869 20.5 27.1951C20.5 28.0033 21.1716 28.6585 22 28.6585ZM29.5 27.1951C29.5 26.3869 28.8284 25.7317 28 25.7317C27.1716 25.7317 26.5 26.3869 26.5 27.1951C26.5 28.0033 27.1716 28.6585 28 28.6585C28.8284 28.6585 29.5 28.0033 29.5 27.1951Z" fill="black"/>
<rect x="0.5" y="0.5" width="49" height="49" rx="24.5" stroke="#CCCCCC"/>
</svg>
