<svg width="155" height="155" viewBox="0 0 155 155" fill="none" xmlns="http://www.w3.org/2000/svg">
<path d="M77.5 155C120.302 155 155 120.302 155 77.5C155 34.6979 120.302 0 77.5 0C34.6979 0 0 34.6979 0 77.5C0 120.302 34.6979 155 77.5 155Z" fill="black"/>
<g clip-path="url(#clip0_1165_6146)">
<path d="M31.4453 103.553V120.826C31.4453 121.877 32.2991 122.753 33.3719 122.753H46.7266C47.7775 122.753 48.6532 121.899 48.6532 120.826V90.4388L38.9546 100.137C36.8967 102.173 34.2695 103.356 31.4453 103.553Z" fill="white"/>
<path d="M55.3086 90.2198V120.826C55.3086 121.877 56.1624 122.753 57.2352 122.753H70.5899C71.6408 122.753 72.5165 121.899 72.5165 120.826V102.808C69.4734 102.743 66.6273 101.539 64.4818 99.393L55.3086 90.2198Z" fill="white"/>
<path d="M79.1719 100.904V120.826C79.1719 121.877 80.0257 122.753 81.0985 122.753H94.4532C95.5041 122.753 96.3798 121.899 96.3798 120.826V84.068L81.0766 99.3712C80.4855 99.9623 79.8506 100.466 79.1719 100.904Z" fill="white"/>
<path d="M118.951 61.4744L103.035 77.3906V120.826C103.035 121.877 103.889 122.753 104.962 122.753H118.316C119.367 122.753 120.243 121.899 120.243 120.826V62.6785C119.805 62.3063 119.477 61.9779 119.236 61.759L118.951 61.4744Z" fill="white"/>
<path d="M129.874 33.2762C129.24 32.5975 128.276 32.2472 127.05 32.2472C126.941 32.2472 126.809 32.2472 126.7 32.2472C120.482 32.5318 114.287 32.8383 108.069 33.1229C107.237 33.1667 106.099 33.2105 105.201 34.1081C104.916 34.3927 104.697 34.7211 104.522 35.1152C103.603 37.1074 104.895 38.3991 105.508 39.0121L107.062 40.5884C108.135 41.6831 109.229 42.7777 110.324 43.8505L72.7556 81.4408L55.8761 64.5613C54.869 63.5542 53.5116 62.985 52.0667 62.985C50.6217 62.985 49.2863 63.5542 48.2792 64.5613L25.795 87.0235C23.6933 89.1252 23.6933 92.5187 25.795 94.6204L26.8021 95.6275C27.8092 96.6345 29.1666 97.2038 30.6115 97.2038C32.0564 97.2038 33.3919 96.6345 34.399 95.6275L52.0667 77.9598L68.9462 94.8393C69.9533 95.8464 71.3106 96.4156 72.7556 96.4156C74.2005 96.4156 75.536 95.8464 76.565 94.8393L118.95 52.4544L123.744 57.2271C124.314 57.7963 125.102 58.5845 126.306 58.5845C126.809 58.5845 127.313 58.4531 127.838 58.1685C128.189 57.9715 128.495 57.7526 128.758 57.4898C129.699 56.5484 129.874 55.3443 129.918 54.4029C130.093 50.3746 130.29 46.3463 130.487 42.2961L130.772 36.2317C130.838 34.9619 130.553 33.9767 129.874 33.2762Z" fill="white"/>
</g>
<defs>
<clipPath id="clip0_1165_6146">
<rect width="106.562" height="106.562" fill="white" transform="translate(24.2188 24.2188)"/>
</clipPath>
</defs>
</svg>
