<svg width="30" height="30" viewBox="0 0 30 30" fill="none" xmlns="http://www.w3.org/2000/svg">
<path d="M15 0C23.2713 0 30 6.72867 30 15C30 23.2713 23.2713 30 15 30C6.72867 30 0 23.2713 0 15C0 6.72867 6.72867 0 15 0Z" fill="#02BC7D" fill-opacity="0.2"/>
<path d="M12.0175 22.3613C11.6606 22.3613 11.4228 22.2424 11.1849 22.0045L5.35682 15.8196C4.88106 15.3439 4.88106 14.6302 5.35682 14.1545C5.83258 13.6787 6.54622 13.6787 7.02198 14.1545L11.8985 19.3878L21.8895 8.44535C22.2463 7.96959 23.0789 7.85065 23.5546 8.20747C24.0304 8.56429 24.1494 9.39687 23.7925 9.87263L23.6736 9.99157L12.85 21.8856C12.7311 22.2424 12.3743 22.3613 12.0175 22.3613Z" fill="#02BC7D"/>
</svg>
