<svg width="30" height="30" viewBox="0 0 30 30" fill="none" xmlns="http://www.w3.org/2000/svg">
<g clip-path="url(#clip0_1592_4952)">
<path d="M15 0C23.2713 0 30 6.72867 30 15C30 23.2713 23.2713 30 15 30C6.72867 30 0 23.2713 0 15C0 6.72867 6.72867 0 15 0Z" fill="#F44336" fill-opacity="0.2"/>
<path d="M8.43554 19.4641C7.85482 20.0451 7.85482 20.9838 8.43554 21.5648C8.72522 21.8545 9.10548 22 9.48601 22C9.86626 22 10.2465 21.8545 10.5362 21.5648L15 17.1006L19.4638 21.5648C19.7535 21.8545 20.1337 22 20.514 22C20.8945 22 21.2748 21.8545 21.5645 21.5648C22.1452 20.9838 22.1452 20.0451 21.5645 19.4641L17.1004 15.0002L21.5645 10.5363C22.1452 9.95525 22.1452 9.01656 21.5645 8.43555C20.9835 7.85482 20.0448 7.85482 19.4638 8.43555L15 12.8997L10.5362 8.43555C9.95521 7.85482 9.01653 7.85482 8.43554 8.43555C7.85482 9.01656 7.85482 9.95525 8.43554 10.5363L12.8996 15.0002L8.43554 19.4641Z" fill="#F44336"/>
</g>
<defs>
<clipPath id="clip0_1592_4952">
<rect width="30" height="30" fill="white" transform="matrix(-1 0 0 1 30 0)"/>
</clipPath>
</defs>
</svg>
