<svg width="253" height="253" viewBox="0 0 253 253" fill="none" xmlns="http://www.w3.org/2000/svg">
<circle cx="126.5" cy="126.5" r="126.5" fill="#1B1B1B"/>
<path d="M108.941 136.5H103.076C99.9563 136.5 97.4213 134.055 97.4213 131.04C97.4213 130.185 96.9713 129.435 96.1913 128.97C95.3213 128.46 94.2863 128.445 93.4013 128.925C90.7313 130.395 87.2813 129.51 85.7213 126.945L82.7813 122.1C82.0163 120.855 81.8063 119.385 82.1813 117.975C82.5713 116.535 83.5163 115.335 84.8513 114.6C85.6763 114.15 86.1563 113.37 86.1563 112.485C86.1563 111.6 85.6763 110.835 84.8513 110.37C83.5163 109.635 82.5563 108.435 82.1813 106.995C81.8063 105.585 82.0163 104.13 82.7813 102.87L85.7213 98.025C87.2813 95.46 90.7313 94.575 93.4013 96.045C94.2863 96.525 95.3213 96.51 96.1913 96C96.9713 95.535 97.4213 94.785 97.4213 93.93C97.4213 90.915 99.9563 88.47 103.076 88.47H108.941C112.061 88.47 114.596 90.915 114.596 93.93C114.596 94.785 115.046 95.535 115.826 96C116.696 96.51 117.731 96.525 118.616 96.045C121.301 94.575 124.736 95.46 126.296 98.025L129.236 102.87C130.001 104.115 130.211 105.585 129.836 106.995C129.446 108.435 128.501 109.635 127.166 110.37C126.341 110.82 125.861 111.6 125.861 112.485C125.861 113.37 126.341 114.135 127.166 114.6C128.501 115.335 129.461 116.535 129.836 117.975C130.211 119.385 130.001 120.84 129.236 122.1L126.296 126.945C124.736 129.51 121.286 130.395 118.616 128.925C117.731 128.445 116.696 128.46 115.826 128.97C115.046 129.435 114.596 130.185 114.596 131.04C114.596 134.055 112.061 136.5 108.941 136.5ZM94.7513 125.58C95.7713 125.58 96.7913 125.85 97.7063 126.405C99.4013 127.41 100.406 129.135 100.406 131.055C100.406 132.405 101.591 133.515 103.061 133.515H108.926C110.396 133.515 111.581 132.42 111.581 131.055C111.581 129.135 112.586 127.41 114.281 126.405C116.066 125.355 118.226 125.31 120.041 126.315C121.331 127.02 122.981 126.615 123.716 125.4L126.656 120.555C126.986 120.015 127.076 119.37 126.911 118.77C126.746 118.125 126.311 117.585 125.681 117.24C123.896 116.25 122.831 114.48 122.831 112.5C122.831 110.52 123.896 108.735 125.681 107.76C126.296 107.415 126.731 106.875 126.911 106.23C127.076 105.63 126.986 104.985 126.656 104.445L123.716 99.6C122.981 98.385 121.331 97.98 120.041 98.685C118.226 99.69 116.066 99.645 114.281 98.595C112.586 97.59 111.581 95.865 111.581 93.945C111.581 92.595 110.396 91.485 108.926 91.485H103.061C101.591 91.485 100.406 92.58 100.406 93.945C100.406 95.865 99.4013 97.59 97.7063 98.595C95.9213 99.645 93.7613 99.69 91.9463 98.685C90.6563 97.98 89.0063 98.385 88.2713 99.6L85.3313 104.445C85.0013 104.985 84.9113 105.63 85.0763 106.23C85.2413 106.875 85.6763 107.415 86.3063 107.76C88.0913 108.75 89.1563 110.52 89.1563 112.5C89.1563 114.48 88.0913 116.265 86.3063 117.24C85.6913 117.585 85.2563 118.125 85.0763 118.77C84.9113 119.37 85.0013 120.015 85.3313 120.555L88.2713 125.4C89.0063 126.615 90.6563 127.02 91.9463 126.315C92.8313 125.835 93.7913 125.595 94.7513 125.595V125.58Z" fill="white"/>
<path d="M106 123C100.21 123 95.5 118.29 95.5 112.5C95.5 106.71 100.21 102 106 102C111.79 102 116.5 106.71 116.5 112.5C116.5 118.29 111.79 123 106 123ZM106 105C101.86 105 98.5 108.36 98.5 112.5C98.5 116.64 101.86 120 106 120C110.14 120 113.5 116.64 113.5 112.5C113.5 108.36 110.14 105 106 105Z" fill="white"/>
<path d="M161.5 102C155.71 102 151 97.29 151 91.5C151 85.71 155.71 81 161.5 81C167.29 81 172 85.71 172 91.5C172 97.29 167.29 102 161.5 102ZM161.5 84C157.36 84 154 87.36 154 91.5C154 95.64 157.36 99 161.5 99C165.64 99 169 95.64 169 91.5C169 87.36 165.64 84 161.5 84Z" fill="white"/>
<path d="M154 115.5C153.175 115.5 152.5 114.825 152.5 114C152.5 110.685 149.815 108 146.5 108C143.185 108 140.5 110.685 140.5 114C140.5 114.825 139.825 115.5 139 115.5C138.175 115.5 137.5 114.825 137.5 114C137.5 109.035 141.535 105 146.5 105C151.465 105 155.5 109.035 155.5 114C155.5 114.825 154.825 115.5 154 115.5Z" fill="white"/>
<path d="M134.5 94.5C131.185 94.5 128.5 91.815 128.5 88.5C128.5 85.185 131.185 82.5 134.5 82.5C137.815 82.5 140.5 85.185 140.5 88.5C140.5 91.815 137.815 94.5 134.5 94.5ZM134.5 85.5C132.85 85.5 131.5 86.85 131.5 88.5C131.5 90.15 132.85 91.5 134.5 91.5C136.15 91.5 137.5 90.15 137.5 88.5C137.5 86.85 136.15 85.5 134.5 85.5Z" fill="white"/>
<path d="M171.998 114C171.998 113.175 171.323 112.5 170.498 112.5H132.998C132.173 112.5 131.498 113.175 131.498 114C131.498 114.825 132.173 115.5 132.998 115.5H168.998V124.5H132.998C132.173 124.5 131.498 125.175 131.498 126C131.498 126.825 132.173 127.5 132.998 127.5H166.718L142.463 150.405C142.163 150.69 141.998 151.08 141.998 151.5V162.42L126.998 167.415V151.5C126.998 151.095 126.833 150.69 126.533 150.405L114.368 138.915C113.768 138.345 112.823 138.375 112.253 138.975C111.683 139.575 111.713 140.52 112.313 141.09L124.013 152.13V169.485C124.013 169.965 124.238 170.415 124.643 170.7C124.898 170.88 125.213 170.985 125.513 170.985C125.678 170.985 125.828 170.955 125.993 170.91L143.993 164.91C144.608 164.7 145.013 164.13 145.013 163.485V152.13L171.548 127.08C171.548 127.08 171.548 127.08 171.548 127.065C171.638 126.975 171.713 126.855 171.773 126.735C171.803 126.675 171.848 126.645 171.878 126.585C171.908 126.525 171.908 126.45 171.923 126.375C171.953 126.255 171.998 126.135 171.998 126.015C171.998 126.015 171.998 126.015 171.998 126V114Z" fill="white"/>
</svg>
