<svg width="253" height="253" viewBox="0 0 253 253" fill="none" xmlns="http://www.w3.org/2000/svg">
<circle cx="126.5" cy="126.5" r="126.5" fill="#1B1B1B"/>
<path fill-rule="evenodd" clip-rule="evenodd" d="M169.375 174H98.5C97.75 174 97.1875 173.438 97.1875 172.688V79.3125C97.1875 78.5625 97.75 78 98.5 78H169.375C169.938 78 170.688 78.5625 170.688 79.3125V172.688C170.688 173.438 169.938 174 169.375 174ZM99.8125 171.375H168.062V80.625H99.8125V171.375Z" fill="white"/>
<path fill-rule="evenodd" clip-rule="evenodd" d="M98.5 165.938H91.5625C90.8125 165.938 90.25 165.188 90.25 164.625V87.375C90.25 86.8125 90.8125 86.0625 91.5625 86.0625H98.5C99.25 86.0625 99.8125 86.8125 99.8125 87.375C99.8125 88.125 99.25 88.6875 98.5 88.6875H92.875V163.312H98.5C99.25 163.312 99.8125 163.875 99.8125 164.625C99.8125 165.188 99.25 165.938 98.5 165.938Z" fill="white"/>
<path fill-rule="evenodd" clip-rule="evenodd" d="M91.5625 158.062H84.625C84.0625 158.062 83.3125 157.5 83.3125 156.75V95.25C83.3125 94.5 84.0625 93.9375 84.625 93.9375H91.5625C92.3125 93.9375 92.875 94.5 92.875 95.25C92.875 96 92.3125 96.5625 91.5625 96.5625H85.9375V155.438H91.5625C92.3125 155.438 92.875 156 92.875 156.75C92.875 157.5 92.3125 158.062 91.5625 158.062Z" fill="white"/>
<path fill-rule="evenodd" clip-rule="evenodd" d="M137.5 165.188H130.375C129.625 165.188 129.062 164.625 129.062 163.875V157.312C126.812 156.75 124.562 156 122.688 154.688L118 159.375C117.438 159.75 116.688 159.75 116.125 159.375L111.062 154.312C110.688 153.75 110.688 153 111.062 152.438L115.75 147.75C114.438 145.875 113.5 143.625 113.125 141.375H106.562C105.812 141.375 105.25 140.812 105.25 140.062V132.938C105.25 132.188 105.812 131.625 106.562 131.625H113.125C113.5 129.375 114.438 127.312 115.75 125.25L111.062 120.75C110.875 120.375 110.688 120 110.688 119.812C110.688 119.438 110.875 119.062 111.062 118.875L116.125 113.812C116.688 113.25 117.438 113.25 118 113.812L122.688 118.312C124.562 117.188 126.812 116.25 129.062 115.688V109.312C129.062 108.562 129.625 108 130.375 108H137.5C138.062 108 138.812 108.562 138.812 109.312V115.688C141.062 116.25 143.125 117.188 145.188 118.312L149.688 113.812C150.25 113.25 151 113.25 151.562 113.812L156.625 118.875C157.188 119.25 157.188 120.188 156.625 120.75L152.125 125.25C153.25 127.312 154.188 129.375 154.75 131.625H161.125C161.875 131.625 162.438 132.188 162.438 132.938V140.062C162.438 140.812 161.875 141.375 161.125 141.375H154.75C154.188 143.625 153.25 145.875 152.125 147.75L156.625 152.438C156.812 152.625 157 153 157 153.375C157 153.75 156.812 153.938 156.625 154.312L151.562 159.375C151 159.75 150.25 159.75 149.688 159.375L145.188 154.688C143.125 156 141.062 156.75 138.812 157.312V163.875C138.812 164.625 138.062 165.188 137.5 165.188ZM131.688 162.562H136.188V156.375C136.188 155.625 136.562 155.062 137.125 155.062C139.938 154.5 142.375 153.562 144.625 151.875C145 151.5 145.75 151.688 146.312 152.062L150.625 156.562L153.812 153.375L149.5 148.875C148.938 148.5 148.938 147.75 149.312 147.188C150.812 144.938 151.938 142.5 152.312 139.875C152.5 139.312 153.062 138.75 153.625 138.75H159.812V134.25H153.625C153.062 134.25 152.5 133.875 152.312 133.125C151.938 130.5 150.812 128.062 149.312 125.812C148.938 125.25 148.938 124.688 149.5 124.125L153.812 119.812L150.625 116.625L146.312 120.938C145.75 121.5 145 121.5 144.625 121.125C142.375 119.625 139.938 118.5 137.125 118.125C136.562 117.938 136.188 117.375 136.188 116.812V110.625H131.688V116.812C131.688 117.375 131.125 117.938 130.562 118.125C127.938 118.5 125.5 119.625 123.25 121.125C122.688 121.5 121.938 121.5 121.562 120.938L117.062 116.625L113.875 119.812L118.375 124.125C118.75 124.688 118.75 125.25 118.562 125.812C116.875 128.062 115.938 130.5 115.375 133.125C115.375 133.875 114.812 134.25 114.062 134.25H107.875V138.75H114.062C114.812 138.75 115.375 139.312 115.375 139.875C115.938 142.5 116.875 144.938 118.562 147.188C118.75 147.75 118.75 148.5 118.375 148.875L113.875 153.375L117.062 156.562L121.562 152.062C121.938 151.688 122.688 151.5 123.25 151.875C125.5 153.562 127.938 154.5 130.562 155.062C131.125 155.062 131.688 155.625 131.688 156.375V162.562Z" fill="white"/>
<path fill-rule="evenodd" clip-rule="evenodd" d="M133.938 150.188C126.438 150.188 120.25 144 120.25 136.5C120.25 129 126.438 123 133.938 123C141.438 123 147.438 129 147.438 136.5C147.438 144 141.438 150.188 133.938 150.188ZM133.938 125.625C127.75 125.625 122.875 130.5 122.875 136.5C122.875 142.688 127.75 147.562 133.938 147.562C139.938 147.562 144.812 142.688 144.812 136.5C144.812 130.5 139.938 125.625 133.938 125.625Z" fill="white"/>
<path fill-rule="evenodd" clip-rule="evenodd" d="M131.312 141.75C131.125 141.75 130.75 141.562 130.562 141.375L127.562 138.562C127.188 138 127.188 137.25 127.562 136.688C128.125 136.125 128.875 136.125 129.438 136.688L131.312 138.562L138.25 131.625C138.812 131.25 139.562 131.25 140.125 131.625C140.688 132.188 140.688 133.125 140.125 133.5L132.25 141.375C132.062 141.562 131.688 141.75 131.312 141.75Z" fill="white"/>
<path fill-rule="evenodd" clip-rule="evenodd" d="M116.691 100.875C116.503 100.875 116.128 100.875 115.941 100.875L111.628 98.4375L107.503 100.875C106.941 101.062 106.378 101.062 106.003 100.688C105.628 100.312 105.441 99.9375 105.441 99.375L106.378 94.5L102.816 91.3125C102.441 90.9375 102.253 90.375 102.441 89.8125C102.628 89.4375 103.003 89.0625 103.566 88.875L108.441 88.3125L110.503 84C110.691 83.4375 111.253 83.25 111.628 83.25C112.191 83.25 112.753 83.4375 112.941 84L115.003 88.3125L119.878 88.875C120.253 89.0625 120.816 89.4375 121.003 89.8125C121.003 90.375 121.003 90.9375 120.628 91.3125L117.066 94.5L118.003 99.375C118.003 99.9375 117.816 100.312 117.441 100.688C117.253 100.875 116.878 100.875 116.691 100.875ZM111.628 95.625C112.003 95.625 112.191 95.625 112.378 95.8125L114.816 97.125L114.253 94.3125C114.253 93.9375 114.253 93.375 114.628 93.1875L116.691 91.3125L113.878 90.9375C113.503 90.75 113.128 90.5625 112.941 90.1875L111.628 87.5625L110.503 90.1875C110.316 90.5625 109.941 90.75 109.566 90.9375L106.753 91.3125L108.816 93.1875C109.003 93.375 109.191 93.9375 109.191 94.3125L108.628 97.125L111.066 95.8125C111.253 95.625 111.441 95.625 111.628 95.625Z" fill="white"/>
<path fill-rule="evenodd" clip-rule="evenodd" d="M128.881 100.875C128.693 100.875 128.506 100.875 128.131 100.688C127.756 100.312 127.568 99.9375 127.756 99.375L128.506 94.5L124.943 91.3125C124.568 90.9375 124.568 90.375 124.756 89.8125C124.756 89.4375 125.318 89.0625 125.693 88.875L130.568 88.3125L132.631 84C132.818 83.4375 133.381 83.25 133.943 83.25C134.318 83.25 134.881 83.4375 135.068 84L137.131 88.3125L142.006 88.875C142.568 89.0625 142.943 89.4375 143.131 89.8125C143.318 90.375 143.131 90.9375 142.756 91.3125L139.193 94.5L140.131 99.375C140.131 99.9375 139.943 100.312 139.568 100.688C139.193 101.062 138.631 101.062 138.256 100.875L133.943 98.4375L129.631 100.875C129.443 100.875 129.256 100.875 128.881 100.875ZM133.943 95.625C134.131 95.625 134.318 95.625 134.506 95.8125L136.943 97.125L136.381 94.3125C136.381 93.9375 136.568 93.375 136.943 93.1875L139.006 91.3125L136.193 90.9375C135.631 90.75 135.256 90.5625 135.068 90.1875L133.943 87.5625L132.631 90.1875C132.443 90.5625 132.068 90.75 131.693 90.9375L128.881 91.3125L130.943 93.1875C131.318 93.375 131.318 93.9375 131.318 94.3125L130.756 97.125L133.193 95.8125C133.381 95.625 133.756 95.625 133.943 95.625Z" fill="white"/>
<path fill-rule="evenodd" clip-rule="evenodd" d="M151.191 100.875C150.816 100.875 150.628 100.875 150.441 100.688C149.878 100.312 149.691 99.9375 149.878 99.375L150.816 94.5L147.253 91.3125C146.878 90.9375 146.691 90.375 146.878 89.8125C147.066 89.4375 147.441 89.0625 148.003 88.875L152.691 88.3125L154.941 84C155.128 83.4375 155.503 83.25 156.066 83.25C156.628 83.25 157.003 83.4375 157.191 84L159.253 88.3125L164.128 88.875C164.691 89.0625 165.066 89.4375 165.253 89.8125C165.441 90.375 165.253 90.9375 164.878 91.3125L161.316 94.5L162.253 99.375C162.441 99.9375 162.253 100.312 161.691 100.688C161.316 101.062 160.753 101.062 160.378 100.875L156.066 98.4375L151.753 100.875C151.566 100.875 151.378 100.875 151.191 100.875ZM156.066 95.625C156.253 95.625 156.441 95.625 156.628 95.8125L159.253 97.125L158.691 94.3125C158.503 93.9375 158.691 93.375 159.066 93.1875L161.128 91.3125L158.316 90.9375C157.753 90.75 157.378 90.5625 157.191 90.1875L156.066 87.5625L154.941 90.1875C154.566 90.5625 154.191 90.75 153.816 90.9375L151.003 91.3125L153.066 93.1875C153.441 93.375 153.628 93.9375 153.441 94.3125L152.878 97.125L155.503 95.8125C155.691 95.625 155.878 95.625 156.066 95.625Z" fill="white"/>
</svg>
