<svg width="253" height="253" viewBox="0 0 253 253" fill="none" xmlns="http://www.w3.org/2000/svg">
<circle cx="126.5" cy="126.5" r="126.5" fill="#1B1B1B"/>
<g clip-path="url(#clip0_2613_9241)">
<path d="M126.5 162.49C118.794 162.49 111.519 161.347 106.014 159.271C99.8789 156.956 96.5 153.627 96.5 149.895C96.5 147.501 97.8834 144.041 104.475 141.146C109.043 139.14 115.325 137.818 122.164 137.424L122.4 141.526C108.182 142.345 100.609 146.912 100.609 149.895C100.609 153.439 110.459 158.381 126.5 158.381C142.541 158.381 152.391 153.439 152.391 149.895C152.391 146.913 144.818 142.345 130.6 141.526L130.836 137.424C137.675 137.818 143.957 139.139 148.526 141.146C155.117 144.04 156.5 147.501 156.5 149.895C156.5 153.627 153.121 156.957 146.986 159.271C141.481 161.347 134.206 162.49 126.5 162.49Z" fill="white"/>
<path d="M161.463 135.767C153.81 131.989 143.488 129.585 132.29 128.963V121.659C132.29 120.525 131.37 119.605 130.235 119.605C129.101 119.605 128.181 120.525 128.181 121.659V145.308L126.5 146.989L124.819 145.308V121.659C124.819 120.525 123.899 119.605 122.765 119.605C121.63 119.605 120.71 120.525 120.71 121.659V128.963C109.512 129.585 99.1903 131.989 91.5369 135.767C83.1298 139.917 78.5 145.469 78.5 151.401C78.5 157.747 83.7109 163.573 93.1728 167.804C102.109 171.799 113.945 174 126.5 174C139.055 174 150.891 171.799 159.827 167.804C169.289 163.573 174.5 157.747 174.5 151.401C174.5 145.47 169.87 139.917 161.463 135.767ZM158.15 164.053C149.73 167.818 138.49 169.891 126.5 169.891C114.51 169.891 103.27 167.818 94.8502 164.053C87.0709 160.574 82.6089 155.963 82.6089 151.401C82.6089 147.116 86.4256 142.873 93.3557 139.451C100.473 135.938 110.144 133.69 120.71 133.079V146.16C120.71 146.705 120.927 147.227 121.312 147.612L125.047 151.348C125.448 151.749 125.974 151.949 126.5 151.949C127.026 151.949 127.552 151.749 127.953 151.348L131.688 147.612C132.073 147.227 132.29 146.704 132.29 146.16V133.079C142.856 133.69 152.527 135.938 159.644 139.451C166.574 142.873 170.391 147.116 170.391 151.401C170.391 155.963 165.929 160.574 158.15 164.053Z" fill="white"/>
<path d="M141.105 108.561L137.839 89.3244C139.93 88.4141 141.396 86.3288 141.396 83.9066C141.396 80.6497 138.747 78 135.49 78H117.513C114.256 78 111.607 80.6497 111.607 83.9068C111.607 86.329 113.073 88.4143 115.164 89.3246L111.898 108.561C107.356 109.394 103.902 113.379 103.902 118.158V120.726C103.902 121.86 104.822 122.78 105.957 122.78H147.046C148.181 122.78 149.101 121.86 149.101 120.726V118.158C149.101 113.379 145.647 109.394 141.105 108.561ZM133.755 89.8132L136.909 108.399H116.094L119.248 89.8132H133.755ZM117.513 82.1089H135.49C136.481 82.1089 137.287 82.9154 137.287 83.9068C137.287 84.898 136.481 85.7042 135.49 85.7042H117.513C116.522 85.7042 115.716 84.8978 115.716 83.9066C115.716 82.9154 116.522 82.1089 117.513 82.1089ZM144.992 118.671H108.011V118.158C108.011 115.044 110.544 112.51 113.657 112.508C113.659 112.508 113.662 112.508 113.664 112.508C113.666 112.508 113.669 112.508 113.672 112.508H139.331C139.334 112.508 139.337 112.508 139.339 112.508C139.342 112.508 139.344 112.508 139.346 112.508C142.459 112.51 144.992 115.044 144.992 118.158V118.671H144.992Z" fill="white"/>
</g>
<defs>
<clipPath id="clip0_2613_9241">
<rect width="96" height="96" fill="white" transform="translate(78.5 78)"/>
</clipPath>
</defs>
</svg>
