<svg width="253" height="253" viewBox="0 0 253 253" fill="none" xmlns="http://www.w3.org/2000/svg">
<circle cx="126.5" cy="126.5" r="126.5" fill="#1B1B1B"/>
<path d="M141.46 159H89.5C85.36 159 82 155.64 82 151.5V88.5C82 84.36 85.36 81 89.5 81H164.5C168.64 81 172 84.36 172 88.5V151.5C172 153 171.565 154.44 170.725 155.685C170.26 156.375 169.33 156.555 168.64 156.09C167.95 155.625 167.77 154.695 168.235 154.005C168.73 153.255 169 152.385 169 151.5V88.5C169 86.025 166.975 84 164.5 84H89.5C87.025 84 85 86.025 85 88.5V151.5C85 153.975 87.025 156 89.5 156H141.46C142.285 156 142.96 156.675 142.96 157.5C142.96 158.325 142.285 159 141.46 159Z" fill="white"/>
<path d="M166.854 158.52L155.064 148.47C153.054 146.76 150.189 146.595 147.984 147.885L143.889 143.79C147.354 139.83 149.469 134.67 149.469 129C149.469 126.75 149.139 124.545 148.494 122.43C148.344 121.755 147.744 121.26 147.024 121.26C146.199 121.26 145.524 121.935 145.524 122.775C145.524 122.925 145.554 123.075 145.599 123.225C146.184 125.085 146.469 127.02 146.469 129C146.469 139.755 137.724 148.5 126.969 148.5C116.214 148.5 107.469 139.755 107.469 129C107.469 118.245 116.214 109.5 126.969 109.5C131.454 109.5 135.669 110.985 139.149 113.79C139.794 114.315 140.739 114.21 141.264 113.565C141.789 112.92 141.684 111.975 141.039 111.45C137.004 108.21 132.144 106.5 126.969 106.5C114.564 106.5 104.469 116.595 104.469 129C104.469 141.405 114.564 151.5 126.969 151.5C132.639 151.5 137.799 149.385 141.759 145.905L145.839 149.985C144.549 152.175 144.699 155.04 146.424 157.065L156.474 168.855C157.584 170.145 159.189 170.925 160.884 171H161.124C162.744 171 164.304 170.355 165.444 169.215L167.169 167.49C168.369 166.29 169.014 164.625 168.954 162.93C168.894 161.235 168.114 159.63 166.809 158.52H166.854ZM165.084 165.36L163.359 167.085C162.744 167.7 161.919 168.03 161.034 168C160.164 167.97 159.369 167.58 158.799 166.905L148.749 155.115C147.699 153.885 147.774 152.04 148.914 150.9C149.514 150.3 150.309 150 151.104 150C151.824 150 152.544 150.24 153.114 150.735L164.904 160.785C165.579 161.355 165.954 162.15 165.999 163.02C166.029 163.89 165.714 164.715 165.099 165.345L165.084 165.36Z" fill="white"/>
<path d="M157 102H148C147.175 102 146.5 102.675 146.5 103.5C146.5 104.325 147.175 105 148 105H153.52L131.47 128.355L125.065 121.95C124.48 121.365 123.535 121.365 122.95 121.95L113.95 130.95C113.365 131.535 113.365 132.48 113.95 133.065C114.25 133.365 114.625 133.5 115.015 133.5C115.405 133.5 115.78 133.35 116.08 133.065L124.015 125.13L130.45 131.565C130.735 131.85 131.14 131.985 131.53 132C131.935 132 132.325 131.82 132.595 131.535L155.5 107.28V112.515C155.5 113.34 156.175 114.015 157 114.015C157.825 114.015 158.5 113.34 158.5 112.515V103.515C158.5 102.69 157.825 102.015 157 102.015V102Z" fill="white"/>
<path d="M164.5 81H89.5C85.36 81 82 84.36 82 88.5V91.5C82 92.325 82.675 93 83.5 93H170.5C171.325 93 172 92.325 172 91.5V88.5C172 84.36 168.64 81 164.5 81ZM85 88.5C85 86.025 87.025 84 89.5 84H145V90H85V88.5ZM169 90H148V84H164.5C166.975 84 169 86.025 169 88.5V90Z" fill="white"/>
</svg>
