<svg width="253" height="253" viewBox="0 0 253 253" fill="none" xmlns="http://www.w3.org/2000/svg">
<circle cx="126.5" cy="126.5" r="126.5" fill="#1B1B1B"/>
<path fill-rule="evenodd" clip-rule="evenodd" d="M125.875 160.875H99.8125C93.8125 160.875 89.125 156.188 89.125 150.188V88.6875C89.125 82.6875 93.8125 78 99.8125 78H141.812C147.625 78 152.5 82.875 152.5 88.6875V134.625C152.5 135.375 151.938 135.938 151.188 135.938C150.438 135.938 149.875 135.375 149.875 134.625V88.6875C149.875 84.1875 146.312 80.625 141.812 80.625H99.8125C95.3125 80.625 91.75 84.1875 91.75 88.6875V150.188C91.75 154.688 95.3125 158.25 99.8125 158.25H125.875C126.625 158.25 127.188 158.812 127.188 159.562C127.188 160.312 126.625 160.875 125.875 160.875Z" fill="white"/>
<path fill-rule="evenodd" clip-rule="evenodd" d="M123.25 138H98.6875C97.9375 138 97.375 137.438 97.375 136.688C97.375 135.938 97.9375 135.375 98.6875 135.375H123.25C124 135.375 124.562 135.938 124.562 136.688C124.562 137.438 124 138 123.25 138Z" fill="white"/>
<path fill-rule="evenodd" clip-rule="evenodd" d="M134.125 92.25H107.312C106.562 92.25 106 91.6875 106 90.9375C106 90.1875 106.562 89.625 107.312 89.625H134.125C134.875 89.625 135.438 90.1875 135.438 90.9375C135.438 91.6875 134.875 92.25 134.125 92.25Z" fill="white"/>
<path fill-rule="evenodd" clip-rule="evenodd" d="M118.188 149.25H98.6875C97.9375 149.25 97.375 148.688 97.375 147.938C97.375 147.188 97.9375 146.625 98.6875 146.625H118.188C118.938 146.625 119.5 147.188 119.5 147.938C119.5 148.688 118.938 149.25 118.188 149.25Z" fill="white"/>
<path fill-rule="evenodd" clip-rule="evenodd" d="M142.75 103.688H98.6875C97.9375 103.688 97.375 103.125 97.375 102.375C97.375 101.625 97.9375 101.062 98.6875 101.062H142.75C143.5 101.062 144.062 101.625 144.062 102.375C144.062 103.125 143.5 103.688 142.75 103.688Z" fill="white"/>
<path fill-rule="evenodd" clip-rule="evenodd" d="M142.75 115.125H98.6875C97.9375 115.125 97.375 114.562 97.375 113.812C97.375 113.062 97.9375 112.5 98.6875 112.5H142.75C143.5 112.5 144.062 113.062 144.062 113.812C144.062 114.562 143.5 115.125 142.75 115.125Z" fill="white"/>
<path fill-rule="evenodd" clip-rule="evenodd" d="M142.75 126.562H98.6875C97.9375 126.562 97.375 126 97.375 125.25C97.375 124.5 97.9375 123.938 98.6875 123.938H142.75C143.5 123.938 144.062 124.5 144.062 125.25C144.062 126 143.5 126.562 142.75 126.562Z" fill="white"/>
<path fill-rule="evenodd" clip-rule="evenodd" d="M142.75 174H139C137.5 174 136.375 172.875 136.375 171.562L135.812 167.625C134.312 167.25 133.188 166.5 132.062 165.938L128.688 168.562C127.562 169.312 126.062 169.312 125.125 168.375L122.5 165.75C121.562 164.812 121.562 163.5 122.312 162.188H122.5L124.938 158.812C124.188 157.5 123.625 156.375 123.438 155.062L119.5 154.5C118 154.5 116.875 153.375 116.875 151.875V148.125C116.875 147.562 117.062 146.062 119.125 145.5H119.312L123.25 144.938C123.625 143.812 124.188 142.5 124.938 141.375L122.312 137.812C121.562 136.5 121.562 135.188 122.5 134.438L125.125 131.625C125.125 131.625 125.312 131.625 125.312 131.438C126.25 130.875 127.75 130.875 128.688 131.438V131.625L132.062 134.062C133.375 133.5 134.5 132.938 135.812 132.562L136.375 128.625C136.375 127.125 137.5 126 139 126H142.75C143.312 126 144.812 126.188 145.375 128.438L145.938 132.562C147.25 132.938 148.375 133.5 149.688 134.062L152.875 131.625C152.875 131.438 153.062 131.438 153.062 131.438C154.375 130.875 155.688 130.875 156.438 131.625L159.25 134.438C160 135.375 160.188 136.688 159.438 137.812L156.812 141.375C157.562 142.5 157.938 143.625 158.312 144.938L162.438 145.5H162.625C164.688 146.062 164.875 147.562 164.875 148.125V151.875C164.875 153.375 163.75 154.5 162.438 154.5L158.312 155.062C157.938 156.375 157.562 157.5 156.812 158.812L159.438 162.188C160 163.125 160 164.625 159.438 165.562L159.25 165.75L156.438 168.375C156.062 168.75 155.125 169.688 153.062 168.562H152.875L149.688 165.938C148.375 166.688 147.25 167.25 145.938 167.625L145.375 171.562V171.75C144.812 173.812 143.312 174 142.75 174ZM139 171.375H142.75V171.188L143.5 166.312C143.5 165.75 144.062 165.375 144.438 165.188C145.938 164.812 147.438 164.25 148.938 163.312C149.5 163.125 150.062 163.125 150.438 163.312L154.375 166.312L154.562 166.5L157.188 164.062C157.188 163.875 157.188 163.875 157.188 163.688L154.188 159.562C153.812 159.188 153.812 158.625 154.188 158.25C154.938 156.75 155.5 155.25 156.062 153.562C156.25 153.188 156.625 152.812 157.188 152.625L162.062 151.875H162.25V148.312C162.25 148.125 162.062 148.125 161.875 148.125L157.188 147.375C156.625 147.375 156.25 147 156.062 146.625C155.5 144.938 155.125 143.25 154.188 141.938C153.812 141.562 154 141 154.188 140.438L157.188 136.312L154.75 133.688C154.562 133.688 154.375 133.688 154.375 133.688L150.438 136.688C150.062 137.062 149.5 137.062 148.938 136.688C147.625 135.938 145.938 135.375 144.438 134.812C143.875 134.625 143.5 134.25 143.5 133.688L142.75 129C142.75 128.812 142.75 128.625 142.75 128.625H139V128.812L138.25 133.688C138.062 134.25 137.875 134.625 137.312 134.812C135.625 135.375 134.125 135.75 132.812 136.688C132.25 137.062 131.688 137.062 131.312 136.688L127.188 133.688C127.188 133.5 127 133.5 126.812 133.688L124.375 136.125C124.562 136.312 124.562 136.312 124.562 136.312L127.562 140.438C127.75 140.812 127.75 141.375 127.562 141.938C126.625 143.25 126.062 144.938 125.688 146.25C125.5 146.812 125.125 147.188 124.562 147.375L119.688 148.125H119.5V151.875H119.688L124.562 152.625C125.125 152.625 125.5 153.188 125.688 153.562C126.062 155.062 126.625 156.562 127.562 158.062C127.938 158.625 127.75 159.188 127.562 159.562L124.562 163.688C124.375 163.875 124.375 163.875 124.375 163.875L127 166.5C127 166.5 127.188 166.5 127.188 166.312L131.312 163.312C131.688 163.125 132.25 163.125 132.812 163.312C133.938 164.062 135.438 164.812 137.312 165.188C137.688 165.375 138.25 165.75 138.25 166.312L139 171.188V171.375Z" fill="white"/>
<path fill-rule="evenodd" clip-rule="evenodd" d="M140.875 160.688C134.875 160.688 130.188 156 130.188 150C130.188 144 134.875 139.312 140.875 139.312C146.688 139.312 151.562 144.188 151.562 150C151.562 155.812 146.688 160.688 140.875 160.688ZM140.875 141.938C136.375 141.938 132.812 145.5 132.812 150C132.812 154.5 136.375 158.062 140.875 158.062C145.375 158.062 148.938 154.5 148.938 150C148.938 145.5 145.375 141.938 140.875 141.938Z" fill="white"/>
</svg>
