<svg width="253" height="253" viewBox="0 0 253 253" fill="none" xmlns="http://www.w3.org/2000/svg">
<circle cx="126.5" cy="126.5" r="126.5" fill="#1B1B1B"/>
<path fill-rule="evenodd" clip-rule="evenodd" d="M108.25 132.188H99.8125C99.0625 132.188 98.5 131.625 98.5 130.875C98.5 130.125 99.0625 129.562 99.8125 129.562H106.938V112.125H99.8125C99.0625 112.125 98.5 111.562 98.5 110.812C98.5 110.062 99.0625 109.5 99.8125 109.5H108.25C109 109.5 109.562 110.062 109.562 110.812V130.875C109.562 131.625 109 132.188 108.25 132.188Z" fill="white"/>
<path fill-rule="evenodd" clip-rule="evenodd" d="M105.438 163.875C101.5 163.875 98.5 160.312 97.5625 154.687L94 131.062C94 130.312 94.375 129.75 95.125 129.562C95.875 129.375 96.4375 129.937 96.625 130.687L100.188 154.312C100.75 157.5 102.438 161.25 105.438 161.25C106.75 161.25 108.25 160.5 109.188 159.187C110.312 158.062 110.875 156.375 110.5 154.687L106.938 131.062C106.938 130.312 107.312 129.562 108.062 129.562C108.812 129.375 109.375 129.937 109.562 130.687L113.125 154.312C113.5 156.562 112.938 159 111.25 160.875C109.75 162.75 107.5 163.875 105.438 163.875Z" fill="white"/>
<path fill-rule="evenodd" clip-rule="evenodd" d="M148.75 132.188C148 132.188 147.438 131.625 147.438 130.875C147.438 130.125 148 129.562 148.75 129.562C152.688 129.562 156.062 126.375 156.062 122.438V119.25C156.062 115.5 152.688 112.125 148.75 112.125C148 112.125 147.438 111.562 147.438 110.812C147.438 110.062 148 109.5 148.75 109.5C154.188 109.5 158.688 114 158.688 119.25V122.438C158.688 127.875 154.188 132.188 148.75 132.188Z" fill="white"/>
<path fill-rule="evenodd" clip-rule="evenodd" d="M173.688 122.25H163.75C163 122.25 162.438 121.688 162.438 120.938C162.438 120.188 163 119.625 163.75 119.625H173.688C174.438 119.625 175 120.188 175 120.938C175 121.688 174.438 122.25 173.688 122.25Z" fill="white"/>
<path fill-rule="evenodd" clip-rule="evenodd" d="M167.688 136.688C167.312 136.688 166.938 136.5 166.75 136.312L159.812 129.375C159.25 128.812 159.25 128.062 159.812 127.5C160.375 126.938 161.125 126.938 161.688 127.5L168.625 134.438C169.188 135 169.188 135.75 168.625 136.312C168.438 136.5 168.062 136.688 167.688 136.688Z" fill="white"/>
<path fill-rule="evenodd" clip-rule="evenodd" d="M160.75 114.562C160.375 114.562 160 114.375 159.812 114.188C159.25 113.625 159.25 112.875 159.812 112.312L166.75 105.375C167.312 104.812 168.062 104.812 168.625 105.375C169.188 105.938 169.188 106.688 168.625 107.25L161.688 114.188C161.5 114.375 161.125 114.562 160.75 114.562Z" fill="white"/>
<path fill-rule="evenodd" clip-rule="evenodd" d="M88.75 127.5H84.625C81.4375 127.5 79 125.062 79 121.875V119.812C79 116.625 81.4375 114.188 84.625 114.188H88.75C89.5 114.188 90.0625 114.75 90.0625 115.5C90.0625 116.25 89.5 116.812 88.75 116.812H84.625C82.9375 116.812 81.625 118.125 81.625 119.812V121.875C81.625 123.562 82.9375 124.875 84.625 124.875H88.75C89.5 124.875 90.0625 125.438 90.0625 126.188C90.0625 126.938 89.5 127.5 88.75 127.5Z" fill="white"/>
<path fill-rule="evenodd" clip-rule="evenodd" d="M110.5 144C109.75 144 109.188 143.437 109.188 142.687C109.188 141.937 109.75 141.375 110.5 141.375C113.5 141.187 115.938 138.937 116.5 135.937C116.688 135.187 117.25 134.625 118 134.812C118.75 135 119.125 135.562 119.125 136.312C118.375 140.625 114.812 143.812 110.5 144Z" fill="white"/>
<path fill-rule="evenodd" clip-rule="evenodd" d="M145 153.562C142.188 153.562 139.938 151.312 139.938 148.5V93.1875C139.938 90.375 142.188 88.125 145 88.125C147.812 88.125 150.062 90.375 150.062 93.1875V148.5C150.062 151.312 147.812 153.562 145 153.562ZM145 90.75C143.688 90.75 142.562 91.875 142.562 93.1875V148.5C142.562 149.812 143.688 150.938 145 150.938C146.312 150.938 147.438 149.812 147.438 148.5V93.1875C147.438 91.875 146.312 90.75 145 90.75Z" fill="white"/>
<path fill-rule="evenodd" clip-rule="evenodd" d="M141.25 150.188C141.062 150.188 140.875 150.188 140.688 150L107.688 132C106.938 131.625 106.75 130.875 107.125 130.312C107.5 129.562 108.25 129.375 108.812 129.75L141.812 147.75C142.562 148.125 142.75 148.875 142.375 149.438C142.188 150 141.625 150.188 141.25 150.188ZM108.25 112.125C107.875 112.125 107.312 111.938 107.125 111.375C106.75 110.812 106.938 110.062 107.688 109.688L140.688 91.6875C141.25 91.3125 142 91.5 142.375 92.25C142.75 92.8125 142.562 93.5625 141.812 93.9375L108.812 111.938C108.625 112.125 108.438 112.125 108.25 112.125Z" fill="white"/>
<path fill-rule="evenodd" clip-rule="evenodd" d="M99.8125 132.188H94C90.0625 132.188 86.875 128.062 86.875 122.812V118.875C86.875 116.438 87.625 114.188 88.75 112.5C90.25 110.625 92.125 109.5 94 109.5H99.8125C100.562 109.5 101.125 110.062 101.125 110.812V130.875C101.125 131.625 100.562 132.188 99.8125 132.188ZM94 112.125C91.5625 112.125 89.5 115.312 89.5 118.875V122.812C89.5 126.375 91.5625 129.562 94 129.562H98.5V112.125H94Z" fill="white"/>
</svg>
