<svg width="253" height="253" viewBox="0 0 253 253" fill="none" xmlns="http://www.w3.org/2000/svg">
<circle cx="126.5" cy="126.5" r="126.5" fill="#1B1B1B"/>
<path fill-rule="evenodd" clip-rule="evenodd" d="M167.312 163.312H86.6875C82.375 163.312 79 159.938 79 155.625V96.375C79 92.0625 82.375 88.6875 86.6875 88.6875H167.312C171.625 88.6875 175 92.0625 175 96.375V155.625C175 159.938 171.625 163.312 167.312 163.312ZM86.6875 91.3125C83.875 91.3125 81.625 93.5625 81.625 96.375V155.625C81.625 158.438 83.875 160.688 86.6875 160.688H167.312C170.125 160.688 172.375 158.438 172.375 155.625V96.375C172.375 93.5625 170.125 91.3125 167.312 91.3125H86.6875Z" fill="white"/>
<path fill-rule="evenodd" clip-rule="evenodd" d="M173.688 105.562H80.3125C79.5625 105.562 79 105 79 104.25C79 103.5 79.5625 102.938 80.3125 102.938H173.688C174.438 102.938 175 103.5 175 104.25C175 105 174.438 105.562 173.688 105.562Z" fill="white"/>
<path fill-rule="evenodd" clip-rule="evenodd" d="M93.0625 99.375H88C87.25 99.375 86.6875 98.8125 86.6875 98.0625C86.6875 97.3125 87.25 96.75 88 96.75H93.0625C93.8125 96.75 94.375 97.3125 94.375 98.0625C94.375 98.8125 93.8125 99.375 93.0625 99.375Z" fill="white"/>
<path fill-rule="evenodd" clip-rule="evenodd" d="M107.875 99.375H102.812C102.062 99.375 101.5 98.8125 101.5 98.0625C101.5 97.3125 102.062 96.75 102.812 96.75H107.875C108.625 96.75 109.188 97.3125 109.188 98.0625C109.188 98.8125 108.625 99.375 107.875 99.375Z" fill="white"/>
<path fill-rule="evenodd" clip-rule="evenodd" d="M122.688 99.375H117.625C116.875 99.375 116.312 98.8125 116.312 98.0625C116.312 97.3125 116.875 96.75 117.625 96.75H122.688C123.438 96.75 124 97.3125 124 98.0625C124 98.8125 123.438 99.375 122.688 99.375Z" fill="white"/>
<path fill-rule="evenodd" clip-rule="evenodd" d="M114.062 132.375H88.5625C87.8125 132.375 87.25 131.812 87.25 131.062V113.062C87.25 112.312 87.8125 111.75 88.5625 111.75H114.062C114.812 111.75 115.375 112.312 115.375 113.062V131.062C115.375 131.812 114.812 132.375 114.062 132.375ZM89.875 129.75H112.75V114.375H89.875V129.75Z" fill="white"/>
<path fill-rule="evenodd" clip-rule="evenodd" d="M114.062 140.438H88.5625C87.8125 140.438 87.25 139.875 87.25 139.125C87.25 138.375 87.8125 137.812 88.5625 137.812H114.062C114.812 137.812 115.375 138.375 115.375 139.125C115.375 139.875 114.812 140.438 114.062 140.438Z" fill="white"/>
<path fill-rule="evenodd" clip-rule="evenodd" d="M153.438 147.562H88.5625C87.8125 147.562 87.25 147 87.25 146.25C87.25 145.5 87.8125 144.938 88.5625 144.938H153.438C154.188 144.938 154.75 145.5 154.75 146.25C154.75 147 154.188 147.562 153.438 147.562Z" fill="white"/>
<path fill-rule="evenodd" clip-rule="evenodd" d="M150.062 154.5H88.5625C87.8125 154.5 87.25 153.938 87.25 153.188C87.25 152.438 87.8125 151.875 88.5625 151.875H150.062C150.812 151.875 151.375 152.438 151.375 153.188C151.375 153.938 150.812 154.5 150.062 154.5Z" fill="white"/>
</svg>
