<svg width="253" height="253" viewBox="0 0 253 253" fill="none" xmlns="http://www.w3.org/2000/svg">
<circle cx="126.5" cy="126.5" r="126.5" fill="#1B1B1B"/>
<path fill-rule="evenodd" clip-rule="evenodd" d="M143.125 174H88.9375C85.75 174 83.125 171.375 83.125 168.188V83.8125C83.125 80.625 85.75 78 88.9375 78H143.125C146.312 78 148.938 80.625 148.938 83.8125V101.25C148.938 102 148.375 102.562 147.625 102.562H127L126.812 102.75V127.125H127H132.062C132.812 127.125 133.375 127.688 133.375 128.438V136.125L144.438 127.5C144.625 127.125 144.812 127.125 145.188 127.125H147.625C148.375 127.125 148.938 127.688 148.938 128.438V168.188C148.938 171.375 146.312 174 143.125 174ZM88.9375 80.625C87.25 80.625 85.75 82.125 85.75 83.8125V168.188C85.75 169.875 87.25 171.375 88.9375 171.375H143.125C144.812 171.375 146.312 169.875 146.312 168.188V129.75H145.562L132.812 139.875C132.438 140.25 131.875 140.25 131.5 140.062C131.125 139.875 130.75 139.5 130.75 138.938V129.75H127C125.5 129.75 124.188 128.625 124.188 127.125V102.75C124.188 101.25 125.5 99.9375 127 99.9375H146.312V83.8125C146.312 82.125 144.812 80.625 143.125 80.625H88.9375Z" fill="white"/>
<path fill-rule="evenodd" clip-rule="evenodd" d="M147.625 90.1875H84.4375C83.6875 90.1875 83.125 89.625 83.125 88.875C83.125 88.125 83.6875 87.5625 84.4375 87.5625H147.625C148.375 87.5625 148.938 88.125 148.938 88.875C148.938 89.625 148.375 90.1875 147.625 90.1875Z" fill="white"/>
<path fill-rule="evenodd" clip-rule="evenodd" d="M147.625 164.438H84.4375C83.6875 164.438 83.125 163.875 83.125 163.125C83.125 162.375 83.6875 161.812 84.4375 161.812H147.625C148.375 161.812 148.938 162.375 148.938 163.125C148.938 163.875 148.375 164.438 147.625 164.438Z" fill="white"/>
<path fill-rule="evenodd" clip-rule="evenodd" d="M122.125 169.125H109.75C109 169.125 108.438 168.562 108.438 167.812C108.438 167.062 109 166.5 109.75 166.5H122.125C122.875 166.5 123.438 167.062 123.438 167.812C123.438 168.562 122.875 169.125 122.125 169.125Z" fill="white"/>
<path fill-rule="evenodd" clip-rule="evenodd" d="M122.125 85.5H109.75C109 85.5 108.438 84.9375 108.438 84.1875C108.438 83.4375 109 82.875 109.75 82.875H122.125C122.875 82.875 123.438 83.4375 123.438 84.1875C123.438 84.9375 122.875 85.5 122.125 85.5Z" fill="white"/>
<path fill-rule="evenodd" clip-rule="evenodd" d="M132.062 140.25C131.875 140.25 131.688 140.25 131.5 140.062C131.125 139.875 130.75 139.5 130.75 138.938V129.75H127C125.5 129.75 124.188 128.625 124.188 127.125V102.75C124.188 101.25 125.5 99.9375 127 99.9375H168.25C169.75 99.9375 170.875 101.25 170.875 102.75V127.125C170.875 128.625 169.75 129.75 168.25 129.75H145.562L132.812 139.875C132.625 140.062 132.438 140.25 132.062 140.25ZM126.812 127.125H127H132.062C132.812 127.125 133.375 127.688 133.375 128.438V136.125L144.438 127.5C144.625 127.125 144.812 127.125 145.188 127.125H168.25V102.75V102.562H127L126.812 102.75V127.125Z" fill="white"/>
<path fill-rule="evenodd" clip-rule="evenodd" d="M161.5 110.062H133.562C132.812 110.062 132.25 109.5 132.25 108.75C132.25 108 132.812 107.438 133.562 107.438H161.5C162.25 107.438 162.812 108 162.812 108.75C162.812 109.5 162.25 110.062 161.5 110.062Z" fill="white"/>
<path fill-rule="evenodd" clip-rule="evenodd" d="M161.5 116.25H133.562C132.812 116.25 132.25 115.688 132.25 114.938C132.25 114.188 132.812 113.625 133.562 113.625H161.5C162.25 113.625 162.812 114.188 162.812 114.938C162.812 115.688 162.25 116.25 161.5 116.25Z" fill="white"/>
<path fill-rule="evenodd" clip-rule="evenodd" d="M161.5 122.438H133.562C132.812 122.438 132.25 121.875 132.25 121.125C132.25 120.375 132.812 119.812 133.562 119.812H161.5C162.25 119.812 162.812 120.375 162.812 121.125C162.812 121.875 162.25 122.438 161.5 122.438Z" fill="white"/>
<path fill-rule="evenodd" clip-rule="evenodd" d="M90.625 157.5C89.875 157.5 89.3125 156.938 89.3125 156.188V95.8125C89.3125 95.0625 89.875 94.5 90.625 94.5C91.375 94.5 91.9375 95.0625 91.9375 95.8125V156.188C91.9375 156.938 91.375 157.5 90.625 157.5Z" fill="white"/>
</svg>
