<svg width="253" height="253" viewBox="0 0 253 253" fill="none" xmlns="http://www.w3.org/2000/svg">
<circle cx="126.5" cy="126.5" r="126.5" fill="#1B1B1B"/>
<path d="M158.5 140H153.91C153.085 140 152.41 139.325 152.41 138.5C152.41 137.675 153.085 137 153.91 137H158.5C161.815 137 164.5 134.315 164.5 131V80C164.5 76.685 161.815 74 158.5 74H95.5C92.185 74 89.5 76.685 89.5 80V131C89.5 134.315 92.185 137 95.5 137H100.09C100.915 137 101.59 137.675 101.59 138.5C101.59 139.325 100.915 140 100.09 140H95.5C90.535 140 86.5 135.965 86.5 131V80C86.5 75.035 90.535 71 95.5 71H158.5C163.465 71 167.5 75.035 167.5 80V131C167.5 135.965 163.465 140 158.5 140Z" fill="white"/>
<path d="M102.913 82.475C102.688 81.89 102.133 81.5 101.503 81.5C100.873 81.5 100.318 81.89 100.093 82.475L95.5931 94.475C95.3081 95.255 95.6981 96.11 96.4781 96.41C97.2581 96.695 98.1131 96.305 98.4131 95.54L101.503 87.29L104.593 95.54C104.818 96.14 105.388 96.515 106.003 96.515C106.183 96.515 106.363 96.485 106.528 96.425C107.308 96.14 107.698 95.27 107.413 94.49L102.913 82.49V82.475Z" fill="white"/>
<path d="M121 81.5C120.175 81.5 119.5 82.175 119.5 83V90.5C119.5 92.15 118.15 93.5 116.5 93.5C114.85 93.5 113.5 92.15 113.5 90.5V83C113.5 82.175 112.825 81.5 112 81.5C111.175 81.5 110.5 82.175 110.5 83V90.5C110.5 93.815 113.185 96.5 116.5 96.5C119.815 96.5 122.5 93.815 122.5 90.5V83C122.5 82.175 121.825 81.5 121 81.5Z" fill="white"/>
<path d="M130 81.5H127C126.175 81.5 125.5 82.175 125.5 83V95C125.5 95.825 126.175 96.5 127 96.5H130C134.14 96.5 137.5 93.14 137.5 89C137.5 84.86 134.14 81.5 130 81.5ZM130 93.5H128.5V84.5H130C132.475 84.5 134.5 86.525 134.5 89C134.5 91.475 132.475 93.5 130 93.5Z" fill="white"/>
<path d="M142 81.5C141.175 81.5 140.5 82.175 140.5 83V95C140.5 95.825 141.175 96.5 142 96.5C142.825 96.5 143.5 95.825 143.5 95V83C143.5 82.175 142.825 81.5 142 81.5Z" fill="white"/>
<path d="M157 81.5H148C147.175 81.5 146.5 82.175 146.5 83C146.5 83.825 147.175 84.5 148 84.5H151V95C151 95.825 151.675 96.5 152.5 96.5C153.325 96.5 154 95.825 154 95V84.5H157C157.825 84.5 158.5 83.825 158.5 83C158.5 82.175 157.825 81.5 157 81.5Z" fill="white"/>
<path d="M155.5 104H98.5C97.675 104 97 103.325 97 102.5C97 101.675 97.675 101 98.5 101H155.5C156.325 101 157 101.675 157 102.5C157 103.325 156.325 104 155.5 104Z" fill="white"/>
<path d="M126.999 161C126.849 161 126.699 160.985 126.549 160.94L125.124 160.505C111.429 156.245 104.484 148.025 104.484 136.055V118.97C104.484 118.34 104.889 117.77 105.489 117.56L126.489 110.105C126.819 109.985 127.164 109.985 127.494 110.105L148.494 117.56C149.094 117.77 149.499 118.34 149.499 118.97V136.055C149.499 148.025 142.554 156.26 128.859 160.505L127.434 160.94C127.284 160.985 127.134 161 126.984 161H126.999ZM126.024 157.625L126.999 157.925L127.974 157.625C140.259 153.8 146.499 146.54 146.499 136.04V120.005L126.999 113.09L107.499 120.005V136.04C107.499 146.54 113.739 153.815 126.024 157.625Z" fill="white"/>
<path d="M127 155C126.85 155 126.685 154.97 126.55 154.925C115.75 151.475 110.5 145.265 110.5 135.98V122.975C110.5 122.345 110.89 121.79 111.49 121.565L126.49 116.09C126.82 115.97 127.18 115.97 127.525 116.09L142.525 121.565C143.11 121.775 143.515 122.345 143.515 122.975V135.98C143.515 145.28 138.265 151.475 127.465 154.925C127.315 154.97 127.165 155 127.015 155H127ZM113.5 124.025V135.98C113.5 143.9 117.67 148.82 127 151.925C136.33 148.82 140.5 143.9 140.5 135.98V124.025L127 119.09L113.5 124.025Z" fill="white"/>
<path d="M124.492 141.5C124.087 141.5 123.682 141.335 123.412 141.035L118.417 135.785C117.847 135.185 117.862 134.24 118.462 133.67C119.062 133.1 120.007 133.115 120.577 133.715L124.492 137.825L133.402 128.465C133.972 127.865 134.917 127.85 135.517 128.405C136.117 128.975 136.147 129.92 135.562 130.52L125.557 141.02C125.272 141.32 124.882 141.485 124.477 141.485L124.492 141.5Z" fill="white"/>
</svg>
