<svg width="515" height="410" viewBox="0 0 515 410" fill="none" xmlns="http://www.w3.org/2000/svg">
<path d="M32.444 0.110809C18.5183 1.01529 10.2222 3.72873 6.4692 8.72717C0.74092 16.2486 -0.641768 26.4359 0.247103 54.808C0.790302 73.4213 1.18536 76.3252 4.14826 82.1805C6.86425 87.6074 15.5061 94.2243 29.9749 102.031C33.3822 103.84 38.6661 106.697 41.6784 108.315C44.74 109.981 47.8017 111.933 48.4437 112.695C50.5671 115.075 50.814 117.836 50.6164 134.069C50.3695 150.112 50.172 151.635 47.8511 154.11C46.5672 155.443 46.4684 155.491 45.4314 154.777C44.8388 154.348 43.9499 152.92 43.4561 151.54C42.7648 149.398 42.6166 146.446 42.4191 130.356L42.2709 111.695H21.2837H0.345867V135.878C0.345867 164.726 0.839684 169.725 4.19764 176.342C5.97538 179.912 11.2592 184.625 14.9629 185.91C22.1726 188.528 34.7155 189.576 53.1843 189.1C72.0975 188.624 79.0603 187.005 84.8874 181.768C87.7021 179.198 89.7761 175.913 91.1095 171.676C93.0353 165.535 93.2822 160.965 93.0847 132.165C92.8872 106.03 92.8378 104.65 91.8502 101.127C91.2576 99.1276 90.2206 96.4617 89.5786 95.1764C86.1713 88.7499 77.1838 82.0853 62.073 74.8018C50.4683 69.2321 46.5178 66.4235 44.0487 62.1391L42.5672 59.5685V49.5716C42.5672 41.4313 42.7154 39.0987 43.4067 36.9089C44.7894 32.5769 46.9128 31.6248 48.493 34.6239C50.2214 37.8133 50.7152 41.7169 50.7152 53.2371V64.5669H71.9987H93.2822L93.0353 44.1923C92.8378 28.4353 92.6403 23.1036 92.0477 20.533C89.2329 7.91789 83.4553 2.77664 69.9741 0.777267C66.4186 0.253616 37.9747 -0.222427 32.444 0.110809Z" fill="#4F4F4F"/>
<path d="M234.463 2.20563C214.661 3.72896 207.55 10.2507 205.772 28.626C205.476 31.9583 205.278 62.3298 205.278 111.791V189.766H226.512H247.747L247.845 171.772L247.993 153.825L251.351 153.682C253.425 153.587 255.006 153.777 255.45 154.111C256.043 154.539 256.141 157.681 256.141 172.2V189.766L277.277 189.671L298.363 189.528L298.511 118.36C298.56 75.2781 298.462 43.05 298.116 36.7187C297.425 21.771 295.795 15.6776 291.104 10.5364C287.104 6.15678 282.709 4.1098 274.413 2.87209C268.684 2.01521 242.71 1.58678 234.463 2.20563ZM253.129 36.195C253.87 36.5759 254.858 37.7184 255.302 38.7181C256.092 40.3842 256.141 43.6689 256.043 80.2765L255.895 120.026H251.944H247.993L247.598 112.647C247.401 108.601 247.302 90.4638 247.352 72.4218C247.5 41.0031 247.549 39.5273 248.438 38.0516C249.228 36.8615 250.561 35.8142 251.598 35.5762C251.697 35.5286 252.339 35.8142 253.129 36.195Z" fill="#4F4F4F"/>
<path d="M103.305 3.72896C103.157 4.34781 103.108 46.3823 103.157 97.176L103.305 189.528L124.144 189.671L145.033 189.766L145.132 141.591L145.28 93.3677L148.885 93.2249C151.156 93.1297 152.786 93.3201 153.23 93.6533C153.823 94.1294 153.922 101.46 153.922 141.972V189.766H175.156H196.39V96.2239V2.68166H175.156H153.922L153.823 31.1014L153.675 59.5687L150.07 59.7115C147.798 59.8067 146.169 59.6163 145.724 59.2831C145.132 58.807 145.033 54.237 145.033 30.7205V2.68166H124.293H103.552L103.305 3.72896Z" fill="#4F4F4F"/>
<path d="M308.487 96.2239V189.766H329.721H350.956L351.054 147.97L351.202 106.221L353.82 106.268C355.252 106.316 356.733 106.602 357.128 106.935C358.955 108.411 359.054 109.982 359.202 150.35L359.4 189.766H380.634H401.819V152.254C401.819 130.785 401.572 112.838 401.325 110.267C400.782 105.221 399.35 99.6991 397.868 96.938C396.634 94.653 391.942 89.7022 389.671 88.3692C387.745 87.1791 387.547 86.6555 388.979 86.2271C389.523 86.0366 391.3 84.7513 392.881 83.3708C396.584 80.0385 399.053 75.4209 400.387 69.3276C401.671 63.377 402.214 44.1449 401.374 32.2915C400.485 19.5812 398.658 14.2495 393.72 9.9651C390.51 7.20406 387.449 5.72833 382.412 4.58583C375.153 2.96729 368.931 2.68166 338.314 2.68166H308.487V96.2239ZM356.585 36.5283C358.857 37.5279 359.054 38.7657 359.252 51.4284C359.449 65.424 359.202 66.8045 355.844 68.0899C353.523 68.9943 352.338 69.0419 351.548 68.2803C350.857 67.6138 350.659 36.433 351.351 35.8142C351.795 35.3858 354.906 35.8142 356.585 36.5283Z" fill="#4F4F4F"/>
<path d="M412.188 96.2239V189.766H433.176H454.163V149.922C454.163 128.024 454.36 110.267 454.558 110.553C454.805 110.791 455.694 116.646 456.583 123.596C457.472 130.547 458.706 139.115 459.348 142.638C465.027 174.819 467.644 189.1 467.842 189.385C467.94 189.623 477.372 189.766 488.78 189.766C506.557 189.766 509.47 189.671 509.47 189.052C509.47 188.671 503.792 165.917 496.878 138.496C489.965 111.076 483.891 86.9887 483.397 84.9417L482.459 81.3238L483.841 76.849C484.582 74.4212 488.138 62.663 491.693 50.7619C495.298 38.8609 499.841 23.6275 501.866 16.9629C503.89 10.2983 505.52 4.39542 505.52 3.77655V2.68166H484.829H464.138L463.299 7.06125C462.854 9.48906 461.422 16.7249 460.089 23.1515C458.755 29.578 457.076 39.4321 456.385 45.0494C455.644 50.6667 454.854 55.4747 454.607 55.7128C454.36 55.9984 454.163 45.2398 454.163 29.4352V2.68166H433.176H412.188V96.2239Z" fill="#4F4F4F"/>
<path d="M152.737 200.287C150.071 200.525 145.626 201.144 142.91 201.715C128.441 204.524 121.972 210.474 118.763 223.851L117.676 228.564L117.528 319.155L117.38 409.698H145.281H173.181L173.28 389.561L173.428 369.472L178.564 369.33C181.872 369.234 183.897 369.377 184.341 369.758C184.934 370.187 185.033 373.709 185.033 389.99V409.698H212.933H240.834V325.296C240.834 271.122 240.637 238.608 240.291 234.372C239.748 227.088 238.118 219.995 236.044 215.996C234.019 211.998 228.538 206.761 224.341 204.762C215.896 200.811 210.217 200.144 181.329 200.001C168.292 199.906 155.453 200.049 152.737 200.287ZM181.576 238.085C182.366 238.513 183.453 239.513 183.897 240.37C184.737 241.798 184.786 244.749 184.786 286.641V331.389L179.65 331.532C176.638 331.627 174.317 331.484 173.922 331.151C173.428 330.77 173.231 321.535 172.934 288.402C172.737 265.172 172.737 245.178 172.934 243.893C173.724 238.751 177.675 236.133 181.576 238.085Z" fill="#4F4F4F"/>
<path d="M0.838867 218.805V236.895H13.0855C21.9742 236.895 25.4803 237.038 25.9248 237.466C26.3692 237.894 26.5174 257.745 26.5174 323.868V409.698H54.6649H82.8125L82.9113 323.439L83.0594 237.133L95.7999 236.99L108.491 236.895V218.805V200.715H54.6649H0.838867V218.805Z" fill="#4F4F4F"/>
<path d="M250.712 305.207V409.698H274.415H298.118V363.665C298.118 336.959 298.316 317.822 298.563 318.107C298.81 318.346 299.6 322.582 300.291 327.581C302.563 343.29 304.094 351.621 306.069 359.952C307.155 364.379 310.167 377.232 312.686 388.419C315.254 399.606 317.476 408.984 317.624 409.27C317.822 409.508 328.982 409.698 346.315 409.698H374.66V305.207V200.715H349.969H325.278V247.796C325.278 273.74 325.081 295.019 324.883 295.162C324.636 295.305 324.044 292.449 323.599 288.878C321.624 274.407 319.303 261.411 317.13 252.366C314.958 243.226 305.526 201.525 305.526 201.001C305.526 200.811 293.18 200.715 278.119 200.715H250.712V305.207Z" fill="#4F4F4F"/>
<path d="M385.523 305.207V409.698H413.424H441.325V363.189C441.325 337.625 441.522 316.87 441.72 317.155C441.967 317.393 443.201 324.629 444.535 333.293C445.819 341.91 448.288 355.762 450.065 363.998C454.905 386.991 459.596 409.365 459.596 409.555C459.596 409.65 472.04 409.698 487.25 409.698C509.817 409.698 514.904 409.603 514.904 409.079C514.904 408.413 514.311 406.318 512.138 399.273L510.904 395.322L506.854 395.417C500.533 395.655 499.101 395.512 498.756 394.655C498.608 394.227 499.003 393.37 499.842 392.56C500.682 391.704 501.422 390.18 501.867 388.419C503.052 383.516 503.793 383.897 493.571 384.039C484.435 384.135 482.312 383.849 482.312 382.373C482.312 381.516 489.521 375.471 491.003 375.137C491.645 374.995 492.188 374.566 492.188 374.28C492.188 373.709 487.892 372.852 478.657 371.567C476.83 371.281 474.707 370.853 474.015 370.615C472.781 370.139 472.83 370.139 475.941 367.901C477.67 366.711 481.225 364.617 483.793 363.284C489.669 360.285 489.966 359.571 485.423 358.761C481.67 358.095 470.262 355.667 467.3 354.906L465.423 354.43L466.806 352.954C467.596 352.192 469.225 351.002 470.46 350.288C475.201 347.622 478.361 345.385 478.361 344.575C478.361 343.909 476.485 343.147 469.67 340.958C463.991 339.149 461.127 338.054 461.473 337.72C461.719 337.482 465.67 334.959 470.262 332.198C474.855 329.39 478.657 326.771 478.756 326.343C478.855 325.724 478.262 325.486 475.546 325.201C470.608 324.677 462.114 323.249 461.67 322.868C461.473 322.677 461.917 322.059 462.608 321.487C472.781 313.252 473.472 312.538 471.843 311.3C471.349 310.919 463.398 307.73 457.769 305.588C457.423 305.445 457.127 305.159 457.127 304.969C457.127 304.493 463.349 302.493 468.979 301.16C471.299 300.637 474.904 299.589 477.028 298.923C480.682 297.733 480.83 297.59 480.83 296.21C480.83 294.972 479.941 293.877 475.398 289.497L469.966 284.261L476.386 280.929C482.114 277.977 482.855 277.501 483.349 275.978C483.991 274.074 484.04 274.169 479.398 271.408L476.731 269.837L481.62 268.313C484.287 267.504 486.558 266.743 486.608 266.695C486.855 266.457 509.965 201.62 509.965 201.192C509.965 200.906 499.645 200.715 482.41 200.715H454.855L452.979 208.903C451.942 213.426 450.213 220.566 449.127 224.756C446.609 234.562 446.559 234.8 444.238 249.986C443.152 257.031 442.065 263.029 441.819 263.267C441.473 263.601 441.325 252.461 441.325 232.229V200.715H413.424H385.523V305.207Z" fill="#4F4F4F"/>
</svg>
