<svg width="52" height="53" viewBox="0 0 52 53" fill="none" xmlns="http://www.w3.org/2000/svg">
<path d="M37.8301 12.4017C37.8201 12.6658 37.7305 12.9197 37.591 13.1329L29.702 26.4986L37.3121 39.2548C37.4217 39.4579 37.4914 39.6712 37.5113 39.9048C37.5113 40.0876 37.4316 40.2603 37.2922 40.372C37.1129 40.504 36.8938 40.565 36.6746 40.5548H33.9254C33.1285 40.5548 32.5906 40.4939 32.3117 40.372C32.0328 40.2501 31.7439 39.9353 31.4551 39.4173L26.4348 30.4392L21.4145 39.4173C21.1455 39.9353 20.8965 40.2501 20.6574 40.372C20.4184 40.4939 19.9502 40.5548 19.2629 40.5548H16.1949C15.6371 40.5548 15.3582 40.3415 15.3582 39.9048C15.3781 39.6712 15.4578 39.4478 15.5973 39.2548L23.2871 26.5392L15.2387 13.1329C15.1092 12.9095 15.0395 12.6556 15.0395 12.4017C15.0395 11.9447 15.3184 11.7111 15.8762 11.7111H18.9043C19.6215 11.7111 20.0897 11.772 20.3188 11.8939C20.5479 12.0158 20.8068 12.3611 21.0957 12.9298L26.5941 22.6392L31.734 12.9298C32.0029 12.3915 32.2619 12.0462 32.5109 11.9142C32.76 11.7822 33.1982 11.7111 33.8059 11.7111H36.9535C37.5412 11.7111 37.8301 11.9447 37.8301 12.4017Z" fill="#AFAFAF"/>
</svg>
