<svg width="1600" height="554" viewBox="0 0 1600 554" fill="none" xmlns="http://www.w3.org/2000/svg">
<rect width="1600" height="554" rx="20" fill="#292929"/>
<circle cx="62.9724" cy="45.5998" r="10.8571" fill="#FF5E5D"/>
<circle cx="92.8298" cy="45.5998" r="10.8571" fill="#FEBE28"/>
<circle cx="122.687" cy="45.5998" r="10.8571" fill="#28C946"/>
<line y1="90.6573" x2="1520" y2="90.6573" stroke="#4F4F4F" stroke-width="1.08571"/>
<circle cx="84.6867" cy="149.829" r="32.5714" fill="#565656"/>
<rect x="373.486" y="117.257" width="1081.37" height="65.1429" rx="13.0286" fill="#565656"/>
<path d="M800 117H1441.97C1449.17 117 1455 122.833 1455 130.029V168.971C1455 176.167 1449.17 182 1441.97 182H800V117Z" fill="#565656"/>
<rect x="52.1152" y="233.429" width="246.457" height="41.2571" rx="13.0286" fill="#565656"/>
<rect x="471.199" y="208.457" width="211.249" height="19.5429" rx="9.77143" fill="#565656"/>
<rect x="471.199" y="241.028" width="791.02" height="19.5429" rx="9.77143" fill="#565656"/>
<path d="M800 241H1264C1269.52 241 1274 245.477 1274 251C1274 256.523 1269.52 261 1264 261H800V241Z" fill="#565656"/>
<rect x="471.199" y="273.6" width="668.18" height="19.5429" rx="9.77143" fill="#565656"/>
<rect x="373.486" y="208.457" width="84.6857" height="84.6857" rx="13.0286" fill="#565656"/>
<path d="M800 274H1147.5C1152.75 274 1157 278.253 1157 283.5C1157 288.747 1152.75 293 1147.5 293H800V274Z" fill="#565656"/>
<rect x="471.199" y="319.2" width="211.249" height="19.5429" rx="9.77143" fill="#565656"/>
<rect x="471.199" y="351.771" width="791.02" height="19.5429" rx="9.77143" fill="#565656"/>
<rect x="471.199" y="384.343" width="668.18" height="19.5429" rx="9.77143" fill="#565656"/>
<rect x="373.486" y="319.2" width="84.6857" height="84.6857" rx="13.0286" fill="#565656"/>
<rect x="471.199" y="429.943" width="211.249" height="19.5429" rx="9.77143" fill="#565656"/>
<rect x="471.199" y="462.514" width="791.02" height="19.5429" rx="9.77143" fill="#565656"/>
<rect x="471.199" y="495.086" width="668.18" height="19.5429" rx="9.77143" fill="#565656"/>
<rect x="373.486" y="429.943" width="84.6857" height="84.6857" rx="13.0286" fill="#565656"/>
<rect x="52.1152" y="348.514" width="246.457" height="41.2571" rx="13.0286" fill="#565656"/>
<rect x="52.1152" y="290.972" width="159.6" height="41.2571" rx="13.0286" fill="#565656"/>
<rect x="52.1152" y="406.057" width="159.6" height="41.2571" rx="13.0286" fill="#565656"/>
<path d="M800 352H1264.5C1269.75 352 1274 356.253 1274 361.5C1274 366.747 1269.75 371 1264.5 371H800V352Z" fill="#565656"/>
<path d="M800 384H1147C1152.52 384 1157 388.477 1157 394C1157 399.523 1152.52 404 1147 404H800V384Z" fill="#565656"/>
<path d="M800 463H1264.5C1269.75 463 1274 467.253 1274 472.5C1274 477.747 1269.75 482 1264.5 482H800V463Z" fill="#565656"/>
<path d="M800 495H1147C1152.52 495 1157 499.477 1157 505C1157 510.523 1152.52 515 1147 515H800V495Z" fill="#565656"/>
</svg>
