<svg width="46" height="43" viewBox="0 0 46 43" fill="none" xmlns="http://www.w3.org/2000/svg">
<g clip-path="url(#clip0_1100_7569)">
<path d="M19.7773 18.8125V37.625H0.000701904V18.5437C0.000701904 5.64375 12.7143 4.03125 12.7143 4.03125L14.4094 7.79375C14.4094 7.79375 8.75893 8.6 7.62883 12.9C6.49874 16.125 8.75893 18.8125 8.75893 18.8125H19.7773Z" fill="#333333"/>
<path d="M45.2031 18.8125V37.625H25.4265V18.5437C25.4265 5.64375 38.14 4.03125 38.14 4.03125L39.8352 7.79375C39.8352 7.79375 34.1847 8.6 33.0546 12.9C31.9245 16.125 34.1847 18.8125 34.1847 18.8125H45.2031Z" fill="#333333"/>
</g>
<defs>
<clipPath id="clip0_1100_7569">
<rect width="45.2038" height="43" fill="white" transform="matrix(-1 0 0 -1 45.2031 43)"/>
</clipPath>
</defs>
</svg>
