<svg width="36" height="36" viewBox="0 0 36 36" fill="none" xmlns="http://www.w3.org/2000/svg">
<path d="M14.0197 13.7478C14.0175 13.6932 14.0033 13.6122 13.9771 13.5051C13.0106 9.56233 11.8508 5.01274 11.8934 0.95189C11.9065 -0.291294 13.1384 -0.117445 13.8494 0.541869C15.2494 1.84082 16.5064 3.28409 17.6203 4.87169C17.6776 4.95347 17.7647 5.0095 17.8632 5.02787C17.9617 5.04625 18.0638 5.02552 18.1478 4.9701C19.419 4.13037 22.5674 -1.44263 23.9992 0.354899C24.0569 0.427596 24.0922 0.516531 24.1007 0.610753C24.2361 1.98842 24.1826 3.35953 23.9402 4.72408C23.4029 7.75058 22.7782 10.706 22.0662 13.5904C22.0534 13.6413 22.054 13.6946 22.0679 13.7452C22.0818 13.7958 22.1084 13.8419 22.1453 13.8792C22.1822 13.9165 22.2281 13.9436 22.2785 13.9579C22.3289 13.9723 22.3822 13.9733 22.4331 13.961C25.2922 13.2613 28.1087 12.6643 30.8825 12.1701C32.2618 11.924 36.403 11.0974 35.9443 13.0688C35.679 14.207 32.0849 16.8673 31.125 17.5823C31.0566 17.6332 31.0015 17.6998 30.9642 17.7765C30.927 17.8531 30.9087 17.9377 30.9109 18.0229C30.9132 18.1082 30.9359 18.1916 30.9771 18.2662C31.0184 18.3408 31.077 18.4044 31.1479 18.4516C32.2192 19.1667 36.367 22.1844 35.9738 23.6474C35.9603 23.7001 35.9362 23.7495 35.9029 23.7924C35.8697 23.8353 35.828 23.8708 35.7805 23.8967C33.7558 25.0316 25.0082 22.6568 22.5576 22.0368C22.1514 21.934 21.9974 22.086 22.0957 22.4928C22.8252 25.528 23.4302 28.5534 23.9107 31.569C24.0712 32.5727 24.7265 35.8791 23.4422 35.9972C22.112 36.1218 19.1175 32.0479 18.364 31.0901C18.0779 30.7271 17.8103 30.7402 17.5613 31.1294C16.4758 32.8176 15.1806 34.309 13.6757 35.6036C13.0205 36.1678 12.0081 36.1907 11.8902 35.1476C11.7984 34.3079 11.8836 33.0778 12.1457 31.4574C12.6481 28.3369 13.2738 25.3443 14.023 22.4796C14.1147 22.1254 13.9826 21.9887 13.6266 22.0696C11.0449 22.6502 2.46441 24.9758 0.43642 24.0279C0.391915 24.0072 0.352104 23.9776 0.319429 23.9409C0.286753 23.9042 0.261901 23.8613 0.246397 23.8147C-0.290906 22.1352 3.77819 19.2323 4.85607 18.4844C5.35187 18.1411 5.34969 17.801 4.84952 17.4643C3.2114 16.3665 1.76548 15.0916 0.511773 13.6396C-1.70297 11.0778 3.92562 11.9601 4.9478 12.134C7.85929 12.6238 10.7795 13.2481 13.7085 14.007C13.7468 14.017 13.7869 14.0177 13.8255 14.0091C13.8641 14.0005 13.9001 13.9828 13.9306 13.9574C13.961 13.9321 13.985 13.8999 14.0005 13.8634C14.016 13.827 14.0226 13.7873 14.0197 13.7478Z" fill="white"/>
</svg>
