<svg width="140" height="48" viewBox="0 0 140 48" fill="none" xmlns="http://www.w3.org/2000/svg">
<path d="M61.0634 6.22762C62.6389 6.22762 63.9162 4.95038 63.9162 3.37483C63.9162 1.79927 62.6389 0.522034 61.0634 0.522034C59.4878 0.522034 58.2106 1.79927 58.2106 3.37483C58.2106 4.95038 59.4878 6.22762 61.0634 6.22762Z" fill="white"/>
<path d="M72.4598 6.22762C74.0354 6.22762 75.3126 4.95038 75.3126 3.37483C75.3126 1.79927 74.0354 0.522034 72.4598 0.522034C70.8843 0.522034 69.6071 1.79927 69.6071 3.37483C69.6071 4.95038 70.8843 6.22762 72.4598 6.22762Z" fill="white"/>
<path d="M59.0719 24.2926C59.0719 25.3113 58.8713 26.3201 58.4814 27.2613C58.0915 28.2026 57.5201 29.0578 56.7997 29.7782C56.0793 30.4985 55.2241 31.07 54.2829 31.4599C53.3417 31.8497 52.3329 32.0504 51.3141 32.0504C50.2953 32.0504 49.2865 31.8497 48.3453 31.4599C47.4041 31.07 46.5489 30.4985 45.8285 29.7782C45.1081 29.0578 44.5367 28.2026 44.1468 27.2613C43.7569 26.3201 43.5563 25.3113 43.5563 24.2926C43.5563 22.2351 44.3736 20.2618 45.8285 18.8069C47.2834 17.3521 49.2566 16.5347 51.3141 16.5347C53.3716 16.5347 55.3448 17.3521 56.7997 18.8069C58.2546 20.2618 59.0719 22.2351 59.0719 24.2926ZM51.3289 29.3146C52.6099 29.3079 53.8357 28.7728 54.7366 27.8269C55.6374 26.8811 56.1397 25.602 56.1327 24.2711C56.1292 23.6121 56.0009 22.9602 55.755 22.3526C55.509 21.7451 55.1504 21.1937 54.6994 20.7301C54.2484 20.2664 53.714 19.8996 53.1267 19.6505C52.5394 19.4014 51.9106 19.2748 51.2763 19.2782C49.9953 19.2849 48.7695 19.82 47.8686 20.7659C46.9677 21.7117 46.4655 22.9908 46.4725 24.3217C46.4759 24.9807 46.6043 25.6326 46.8502 26.2401C47.0961 26.8477 47.4548 27.3991 47.9058 27.8627C48.3567 28.3263 48.8911 28.6932 49.4785 28.9423C50.0658 29.1914 50.6946 29.3179 51.3289 29.3146Z" fill="white"/>
<path d="M3.09002 20.5399C2.34131 22.2197 6.43236 22.7976 7.39609 23.026C9.98587 23.6403 12.1053 24.437 12.0592 27.5644C12.0112 30.7954 9.60191 31.8973 6.78368 32.0643C4.12286 32.2218 2.18773 31.3828 0.0394937 29.8374C-0.00530116 29.8054 -0.0123405 29.7663 0.018376 29.7203L1.47165 27.5759C1.5126 27.5132 1.56508 27.5023 1.62907 27.5432C3.17449 28.5454 4.82166 29.4937 6.73184 29.3306C8.94919 29.1424 10.5618 26.6697 7.45176 25.9498C5.86602 25.5812 4.08063 25.3701 2.5928 24.7173C-1.04518 23.1182 -0.53644 18.1459 3.16873 16.9864C6.09704 16.0713 8.81096 16.5775 11.3105 18.5049C11.3476 18.5331 11.3528 18.5664 11.3259 18.6048L9.863 20.7108C9.85223 20.726 9.83853 20.7389 9.82273 20.7487C9.80693 20.7586 9.78936 20.7651 9.77106 20.768C9.75277 20.7709 9.73413 20.77 9.71628 20.7654C9.69843 20.7609 9.68173 20.7527 9.66718 20.7415C8.69066 20.0056 7.59062 19.5429 6.36708 19.3535C5.33616 19.1922 3.57381 19.4552 3.09002 20.5399Z" fill="white"/>
<path d="M140 19.1533C140 19.8187 139.736 20.4569 139.265 20.9275C138.795 21.398 138.157 21.6624 137.491 21.6624C136.826 21.6624 136.188 21.398 135.717 20.9275C135.246 20.4569 134.982 19.8187 134.982 19.1533C134.982 18.4878 135.246 17.8496 135.717 17.379C136.188 16.9085 136.826 16.6441 137.491 16.6441C138.157 16.6441 138.795 16.9085 139.265 17.379C139.736 17.8496 140 18.4878 140 19.1533ZM139.593 19.1571C139.593 18.5996 139.372 18.0649 138.978 17.6706C138.583 17.2764 138.049 17.0549 137.491 17.0549C136.934 17.0549 136.399 17.2764 136.005 17.6706C135.611 18.0649 135.389 18.5996 135.389 19.1571C135.389 19.7146 135.611 20.2493 136.005 20.6435C136.399 21.0378 136.934 21.2593 137.491 21.2593C138.049 21.2593 138.583 21.0378 138.978 20.6435C139.372 20.2493 139.593 19.7146 139.593 19.1571Z" fill="white"/>
<path d="M73.8324 23.1064V31.6475C73.8324 31.673 73.8223 31.6974 73.8043 31.7154C73.7863 31.7334 73.7619 31.7435 73.7364 31.7435H71.0718C70.9924 31.7435 70.9528 31.7032 70.9528 31.6226L70.9547 16.9593C70.9547 16.6444 71.0705 16.5933 71.3022 16.8057L80.9625 25.6751C81.0086 25.716 81.0316 25.7058 81.0316 25.6444V16.9132C81.0316 16.8492 81.0636 16.8172 81.1276 16.8172H83.8594C83.9247 16.8172 83.9573 16.8499 83.9573 16.9151C83.9599 21.6186 83.9605 26.3214 83.9593 31.0236C83.9593 31.2744 83.9356 31.5234 83.8882 31.7704C83.8741 31.8446 83.8338 31.8632 83.7673 31.8261C83.5638 31.7096 83.4057 31.6002 83.2931 31.4978C80.1907 28.6642 77.0685 25.853 73.9265 23.0642C73.8638 23.0079 73.8324 23.022 73.8324 23.1064Z" fill="white"/>
<path d="M29.0532 19.4231V31.7308C29.0532 31.7471 29.0467 31.7627 29.0352 31.7742C29.0236 31.7857 29.008 31.7922 28.9917 31.7922H26.2349C26.2186 31.7922 26.203 31.7857 26.1915 31.7742C26.18 31.7627 26.1735 31.7471 26.1735 31.7308V19.4231C26.1735 19.4068 26.167 19.3912 26.1555 19.3796C26.144 19.3681 26.1283 19.3616 26.1121 19.3616H21.9634C21.9471 19.3616 21.9315 19.3552 21.92 19.3436C21.9084 19.3321 21.902 19.3165 21.902 19.3002V16.8794C21.902 16.8631 21.9084 16.8474 21.92 16.8359C21.9315 16.8244 21.9471 16.8179 21.9634 16.8179H33.2632C33.2795 16.8179 33.2951 16.8244 33.3067 16.8359C33.3182 16.8474 33.3247 16.8631 33.3247 16.8794V19.3002C33.3247 19.3165 33.3182 19.3321 33.3067 19.3436C33.2951 19.3552 33.2795 19.3616 33.2632 19.3616H29.1146C29.0983 19.3616 29.0827 19.3681 29.0711 19.3796C29.0596 19.3912 29.0532 19.4068 29.0532 19.4231Z" fill="white"/>
<path d="M99.5305 29.1525H107.555C107.573 29.1525 107.59 29.1596 107.603 29.1722C107.615 29.1848 107.622 29.2019 107.622 29.2197V31.725C107.622 31.7428 107.615 31.7599 107.603 31.7725C107.59 31.7851 107.573 31.7922 107.555 31.7922H96.6508C96.642 31.7922 96.6332 31.7905 96.6251 31.7871C96.6169 31.7837 96.6095 31.7788 96.6033 31.7725C96.5971 31.7663 96.5921 31.7589 96.5887 31.7507C96.5854 31.7426 96.5836 31.7338 96.5836 31.725V16.8851C96.5836 16.8763 96.5854 16.8676 96.5887 16.8594C96.5921 16.8513 96.5971 16.8439 96.6033 16.8376C96.6095 16.8314 96.6169 16.8264 96.6251 16.823C96.6332 16.8197 96.642 16.8179 96.6508 16.8179H107.555C107.573 16.8179 107.59 16.825 107.603 16.8376C107.615 16.8502 107.622 16.8673 107.622 16.8851V19.2944C107.622 19.3123 107.615 19.3294 107.603 19.342C107.59 19.3546 107.573 19.3616 107.555 19.3616H99.5305C99.5217 19.3616 99.5129 19.3634 99.5048 19.3668C99.4966 19.3701 99.4892 19.3751 99.483 19.3813C99.4767 19.3876 99.4718 19.395 99.4684 19.4031C99.465 19.4113 99.4633 19.42 99.4633 19.4288V22.99C99.4633 23.0078 99.4704 23.0249 99.483 23.0375C99.4956 23.0501 99.5127 23.0572 99.5305 23.0572H106.595C106.604 23.0572 106.613 23.059 106.621 23.0623C106.629 23.0657 106.637 23.0707 106.643 23.0769C106.649 23.0831 106.654 23.0905 106.657 23.0987C106.661 23.1068 106.662 23.1156 106.662 23.1244V25.6297C106.662 25.6475 106.655 25.6646 106.643 25.6772C106.63 25.6898 106.613 25.6969 106.595 25.6969H99.5305C99.5127 25.6969 99.4956 25.704 99.483 25.7166C99.4704 25.7292 99.4633 25.7463 99.4633 25.7641V29.0853C99.4633 29.1031 99.4704 29.1202 99.483 29.1328C99.4956 29.1454 99.5127 29.1525 99.5305 29.1525Z" fill="white"/>
<path d="M126.129 22.0973L129.915 16.8448C129.921 16.8365 129.929 16.8297 129.938 16.825C129.947 16.8204 129.957 16.8179 129.967 16.8179H133.463C133.474 16.818 133.486 16.8214 133.496 16.8276C133.506 16.8339 133.514 16.8428 133.519 16.8534C133.524 16.8639 133.526 16.8757 133.525 16.8875C133.524 16.8992 133.52 16.9103 133.513 16.9197L127.922 24.33C127.914 24.3411 127.909 24.3545 127.909 24.3684C127.909 24.3823 127.914 24.3958 127.922 24.4068L133.371 31.6905C133.378 31.6999 133.382 31.7113 133.383 31.7232C133.384 31.7351 133.382 31.747 133.377 31.7576C133.371 31.7683 133.363 31.7771 133.353 31.7833C133.342 31.7894 133.331 31.7925 133.319 31.7922H129.825C129.815 31.7922 129.805 31.7898 129.795 31.7851C129.786 31.7804 129.779 31.7736 129.773 31.7653L126.11 26.6779C126.104 26.6696 126.096 26.6628 126.087 26.6581C126.078 26.6534 126.068 26.651 126.058 26.651C126.048 26.651 126.038 26.6534 126.029 26.6581C126.02 26.6628 126.012 26.6696 126.006 26.6779L122.338 31.7653C122.332 31.7736 122.324 31.7804 122.315 31.7851C122.306 31.7898 122.296 31.7922 122.286 31.7922H118.788C118.776 31.7921 118.765 31.7888 118.755 31.7825C118.745 31.7762 118.737 31.7673 118.731 31.7568C118.726 31.7462 118.724 31.7344 118.725 31.7227C118.726 31.711 118.731 31.6998 118.738 31.6905L124.23 24.4222C124.239 24.4111 124.243 24.3977 124.243 24.3838C124.243 24.3699 124.239 24.3564 124.23 24.3454L118.669 16.9197C118.662 16.9103 118.657 16.8992 118.656 16.8875C118.655 16.8757 118.657 16.8639 118.662 16.8534C118.668 16.8428 118.676 16.8339 118.686 16.8276C118.695 16.8214 118.707 16.818 118.719 16.8179H122.192C122.202 16.8179 122.212 16.8204 122.221 16.825C122.23 16.8297 122.238 16.8365 122.243 16.8448L126.025 22.0973C126.031 22.1056 126.039 22.1124 126.048 22.1171C126.057 22.1218 126.067 22.1243 126.077 22.1243C126.087 22.1243 126.097 22.1218 126.106 22.1171C126.115 22.1124 126.123 22.1056 126.129 22.0973Z" fill="white"/>
<path d="M137.911 19.3912L138.533 20.3876C138.54 20.3983 138.544 20.4106 138.544 20.4232C138.545 20.4359 138.542 20.4484 138.536 20.4596C138.531 20.4709 138.522 20.4804 138.511 20.4873C138.501 20.4942 138.488 20.4982 138.476 20.499L138.219 20.5105C138.183 20.5121 138.148 20.5041 138.117 20.4872C138.086 20.4702 138.06 20.4451 138.042 20.4145L137.401 19.3509C137.379 19.3151 137.346 19.2874 137.306 19.2721C137.267 19.2567 137.224 19.2545 137.184 19.2658C137.143 19.277 137.107 19.3012 137.082 19.3345C137.056 19.3679 137.042 19.4087 137.042 19.4508V20.3934C137.042 20.4727 137.002 20.5124 136.923 20.5124H136.777C136.698 20.5124 136.658 20.4727 136.658 20.3934V17.9687C136.658 17.9034 136.69 17.8644 136.754 17.8516C137.28 17.7466 137.776 17.8029 138.244 18.0205C138.302 18.0474 138.345 18.0915 138.37 18.153C138.592 18.6828 138.456 19.0444 137.963 19.2377C137.884 19.2684 137.867 19.3196 137.911 19.3912ZM137.055 18.2144L137.051 18.9094C137.051 18.9257 137.058 18.9413 137.069 18.9528C137.081 18.9643 137.097 18.9708 137.113 18.9708L137.382 18.9727C137.463 18.9731 137.543 18.9637 137.619 18.9453C137.694 18.9268 137.762 18.8996 137.82 18.8652C137.877 18.8308 137.923 18.7899 137.954 18.7447C137.985 18.6996 138.002 18.6512 138.002 18.6022V18.5293C138.002 18.4306 137.937 18.3357 137.822 18.2656C137.706 18.1954 137.549 18.1556 137.385 18.1549L137.117 18.153C137.1 18.153 137.085 18.1595 137.073 18.171C137.062 18.1825 137.055 18.1981 137.055 18.2144Z" fill="white"/>
<path d="M25.6445 45.3246V46.5283C25.6445 46.5406 25.6469 46.5529 25.6517 46.5643C25.6564 46.5757 25.6633 46.5861 25.6721 46.5948C25.6808 46.6035 25.6912 46.6105 25.7026 46.6152C25.714 46.6199 25.7262 46.6224 25.7386 46.6224H27.9041C27.929 46.6224 27.953 46.6323 27.9706 46.6499C27.9882 46.6675 27.9981 46.6915 27.9981 46.7164L27.9924 47.2002C27.9924 47.2126 27.99 47.2248 27.9852 47.2362C27.9805 47.2476 27.9736 47.258 27.9648 47.2667C27.9561 47.2755 27.9457 47.2824 27.9343 47.2871C27.9229 47.2918 27.9107 47.2943 27.8983 47.2943H24.9707C24.9583 47.2943 24.9461 47.2918 24.9347 47.2871C24.9232 47.2824 24.9129 47.2755 24.9041 47.2667C24.8954 47.258 24.8885 47.2476 24.8837 47.2362C24.879 47.2248 24.8766 47.2126 24.8766 47.2002V42.5409C24.8766 42.516 24.8865 42.492 24.9041 42.4744C24.9218 42.4567 24.9457 42.4468 24.9707 42.4468H27.9022C27.9271 42.4468 27.951 42.4567 27.9687 42.4744C27.9863 42.492 27.9962 42.516 27.9962 42.5409V43.0727C27.9962 43.0976 27.9863 43.1216 27.9687 43.1392C27.951 43.1568 27.9271 43.1668 27.9022 43.1668H25.7386C25.7262 43.1668 25.714 43.1692 25.7026 43.1739C25.6912 43.1786 25.6808 43.1856 25.6721 43.1943C25.6633 43.203 25.6564 43.2134 25.6517 43.2248C25.6469 43.2362 25.6445 43.2485 25.6445 43.2608V44.4165C25.6445 44.4289 25.6469 44.4411 25.6517 44.4525C25.6564 44.4639 25.6633 44.4743 25.6721 44.4831C25.6808 44.4918 25.6912 44.4987 25.7026 44.5034C25.714 44.5082 25.7262 44.5106 25.7386 44.5106H27.5662C27.5911 44.5106 27.6151 44.5205 27.6327 44.5381C27.6504 44.5558 27.6603 44.5797 27.6603 44.6047V45.1365C27.6603 45.1614 27.6504 45.1853 27.6327 45.203C27.6151 45.2206 27.5911 45.2305 27.5662 45.2305H25.7386C25.7262 45.2305 25.714 45.2329 25.7026 45.2377C25.6912 45.2424 25.6808 45.2493 25.6721 45.2581C25.6633 45.2668 25.6564 45.2772 25.6517 45.2886C25.6469 45.3 25.6445 45.3122 25.6445 45.3246Z" fill="white"/>
<path d="M30.821 47.2963L30.1126 47.2905C30.0995 47.2903 30.0866 47.2867 30.0753 47.28C30.064 47.2733 30.0546 47.2637 30.0482 47.2522C30.0418 47.2407 30.0385 47.2277 30.0387 47.2146C30.0389 47.2014 30.0425 47.1885 30.0493 47.1772L31.445 44.8447C31.4519 44.8331 31.4556 44.8198 31.4556 44.8063C31.4556 44.7928 31.4519 44.7795 31.445 44.7679L30.1222 42.5602C30.1154 42.5487 30.1118 42.5357 30.1117 42.5224C30.1115 42.509 30.115 42.4959 30.1216 42.4844C30.1283 42.4728 30.1379 42.4633 30.1495 42.4567C30.1611 42.4501 30.1742 42.4467 30.1875 42.4469H30.9228C30.9361 42.4469 30.9492 42.4505 30.9606 42.4572C30.9721 42.464 30.9816 42.4737 30.9881 42.4853L31.8309 44.0365C31.8374 44.0481 31.8468 44.0577 31.8583 44.0644C31.8698 44.0711 31.8828 44.0747 31.8961 44.0747C31.9094 44.0747 31.9225 44.0711 31.9339 44.0644C31.9454 44.0577 31.9549 44.0481 31.9614 44.0365L32.7831 42.5064C32.7893 42.4944 32.7987 42.4844 32.8101 42.4773C32.8216 42.4702 32.8348 42.4663 32.8483 42.4661L33.597 42.4469C33.6105 42.4464 33.6239 42.4495 33.6358 42.4559C33.6476 42.4624 33.6575 42.4719 33.6644 42.4835C33.6713 42.4951 33.6749 42.5084 33.6749 42.5219C33.6748 42.5353 33.6712 42.5486 33.6642 42.5602L32.3281 44.7929C32.3211 44.8045 32.3175 44.8177 32.3175 44.8313C32.3175 44.8448 32.3211 44.858 32.3281 44.8697L33.7487 47.1811C33.7555 47.1925 33.7592 47.2056 33.7593 47.2189C33.7594 47.2322 33.756 47.2453 33.7493 47.2569C33.7427 47.2684 33.733 47.278 33.7215 47.2845C33.7099 47.2911 33.6968 47.2945 33.6834 47.2943H32.9635C32.9507 47.2942 32.9382 47.2907 32.9271 47.2844C32.916 47.278 32.9067 47.2688 32.9002 47.2579L31.9499 45.6241C31.9432 45.6126 31.9336 45.6031 31.922 45.5966C31.9104 45.59 31.8973 45.5867 31.884 45.5869C31.8708 45.5871 31.8577 45.5908 31.8464 45.5977C31.835 45.6046 31.8257 45.6144 31.8193 45.626L30.8863 47.2579C30.8798 47.2695 30.8704 47.2792 30.8589 47.2859C30.8474 47.2927 30.8344 47.2962 30.821 47.2963Z" fill="white"/>
<path d="M37.0536 47.2693C35.6848 46.8757 35.7559 45.5895 35.8211 44.3263C35.8506 43.7439 35.9715 43.3171 36.184 43.0458C36.8444 42.1953 38.4743 42.2375 39.031 43.1994C39.4226 43.8732 39.3785 45.8986 39.0656 46.5206C39.0297 46.5884 39.0393 46.6492 39.0944 46.703L39.3574 46.966C39.4265 47.0351 39.4265 47.1048 39.3574 47.1752L39.1059 47.4325C39.0909 47.4479 39.0727 47.46 39.0526 47.4678C39.0326 47.4756 39.011 47.479 38.9895 47.4777C38.968 47.4764 38.9471 47.4705 38.928 47.4604C38.909 47.4503 38.8924 47.4362 38.8793 47.419L38.649 47.1253C38.5965 47.0575 38.5331 47.0447 38.4589 47.0869C38.0097 47.3493 37.5413 47.4101 37.0536 47.2693ZM38.0673 45.6644L38.2977 45.9101C38.3578 45.9741 38.3981 45.9632 38.4186 45.8774C38.5722 45.2247 38.7142 43.6409 37.979 43.2473C36.1782 42.2836 35.9574 47.0792 37.787 46.5398C37.8817 46.5116 37.8945 46.463 37.8254 46.3939L37.5758 46.1462C37.5336 46.104 37.5227 46.0541 37.5432 45.9965C37.6187 45.7789 37.7435 45.6522 37.9175 45.6164C37.9445 45.6105 37.9725 45.6119 37.9988 45.6203C38.0251 45.6287 38.0487 45.6439 38.0673 45.6644Z" fill="white"/>
<path d="M42.9391 46.3795C43.5784 46.9632 44.5479 46.5216 44.5517 45.6443C44.5555 44.6178 44.5568 43.5882 44.5555 42.5553C44.5543 42.4773 44.5927 42.4395 44.6707 42.4421L45.214 42.4555C45.2883 42.4581 45.3254 42.4965 45.3254 42.5707C45.3215 43.6151 45.5385 45.7057 45.1008 46.5408C44.5555 47.5775 42.7433 47.5909 42.1366 46.5984C41.6356 45.7825 41.8679 43.5786 41.8679 42.5553C41.8679 42.4824 41.9043 42.4459 41.9773 42.4459H42.5263C42.6006 42.4459 42.637 42.4824 42.6358 42.5553C42.6338 43.3156 42.4323 45.9188 42.9391 46.3795Z" fill="white"/>
<path d="M48.7782 42.4478H48.16C48.1049 42.4478 48.0602 42.4925 48.0602 42.5476V47.1935C48.0602 47.2486 48.1049 47.2933 48.16 47.2933H48.7782C48.8333 47.2933 48.878 47.2486 48.878 47.1935V42.5476C48.878 42.4925 48.8333 42.4478 48.7782 42.4478Z" fill="white"/>
<path d="M53.4531 45.2837C49.5828 45.1013 51.8885 41.0083 54.4418 42.8801C54.4557 42.8904 54.4673 42.9034 54.4758 42.9185C54.4843 42.9335 54.4896 42.9502 54.4912 42.9674C54.4928 42.9846 54.4908 43.002 54.4853 43.0184C54.4797 43.0348 54.4708 43.0498 54.4591 43.0625L54.1519 43.3927C54.0956 43.4528 54.0341 43.4592 53.9676 43.4119C53.4749 43.0599 52.9821 42.9966 52.4894 43.2218C52.1534 43.3754 52.1016 44.0262 52.4049 44.2854C52.8868 44.7001 53.766 44.3948 54.3247 44.9362C55.1233 45.7099 54.6357 47.0383 53.5472 47.2783C52.7204 47.4601 51.9793 47.2988 51.3241 46.7945C51.3114 46.785 51.301 46.773 51.2933 46.7592C51.2856 46.7454 51.2809 46.7302 51.2794 46.7144C51.278 46.6987 51.2798 46.6828 51.2849 46.6679C51.2899 46.6529 51.298 46.6392 51.3087 46.6275L51.6389 46.2762C51.6616 46.2517 51.6926 46.2364 51.7258 46.2332C51.7591 46.23 51.7924 46.2392 51.8194 46.2589C52.2814 46.5968 52.7754 46.7081 53.3014 46.593C53.983 46.4432 54.1634 45.8135 53.6182 45.3489C53.5708 45.308 53.5158 45.2862 53.4531 45.2837Z" fill="white"/>
<path d="M57.9576 42.4507H57.3087C57.2632 42.4507 57.2262 42.4877 57.2262 42.5333V47.2137C57.2262 47.2593 57.2632 47.2963 57.3087 47.2963H57.9576C58.0032 47.2963 58.0402 47.2593 58.0402 47.2137V42.5333C58.0402 42.4877 58.0032 42.4507 57.9576 42.4507Z" fill="white"/>
<path d="M61.6497 43.1668H60.4825C60.4591 43.1668 60.4366 43.1575 60.42 43.1409C60.4035 43.1243 60.3942 43.1019 60.3942 43.0784V42.5352C60.3942 42.5117 60.4035 42.4893 60.42 42.4727C60.4366 42.4561 60.4591 42.4468 60.4825 42.4468H63.7135C63.7369 42.4468 63.7593 42.4561 63.7759 42.4727C63.7925 42.4893 63.8018 42.5117 63.8018 42.5352V43.0784C63.8018 43.1019 63.7925 43.1243 63.7759 43.1409C63.7593 43.1575 63.7369 43.1668 63.7135 43.1668H62.5942C62.5708 43.1668 62.5483 43.1761 62.5318 43.1926C62.5152 43.2092 62.5059 43.2316 62.5059 43.2551V47.206C62.5059 47.2294 62.4966 47.2519 62.4801 47.2684C62.4635 47.285 62.441 47.2943 62.4176 47.2943H61.8263C61.8029 47.2943 61.7804 47.285 61.7639 47.2684C61.7473 47.2519 61.738 47.2294 61.738 47.206V43.2551C61.738 43.2316 61.7287 43.2092 61.7121 43.1926C61.6956 43.1761 61.6731 43.1668 61.6497 43.1668Z" fill="white"/>
<path d="M67.0551 46.6224H69.2379C69.2603 46.6224 69.2818 46.6313 69.2977 46.6471C69.3135 46.6629 69.3224 46.6844 69.3224 46.7068V47.2098C69.3224 47.2209 69.3202 47.2319 69.316 47.2421C69.3117 47.2524 69.3055 47.2617 69.2977 47.2695C69.2898 47.2774 69.2805 47.2836 69.2703 47.2878C69.26 47.2921 69.249 47.2943 69.2379 47.2943H66.2872C66.2761 47.2943 66.2651 47.2921 66.2549 47.2878C66.2447 47.2836 66.2353 47.2774 66.2275 47.2695C66.2197 47.2617 66.2134 47.2524 66.2092 47.2421C66.2049 47.2319 66.2028 47.2209 66.2028 47.2098V42.5313C66.2028 42.5089 66.2117 42.4874 66.2275 42.4716C66.2433 42.4557 66.2648 42.4468 66.2872 42.4468H69.2379C69.2603 42.4468 69.2818 42.4557 69.2977 42.4716C69.3135 42.4874 69.3224 42.5089 69.3224 42.5313V43.0823C69.3224 43.1047 69.3135 43.1262 69.2977 43.142C69.2818 43.1579 69.2603 43.1668 69.2379 43.1668H67.0551C67.044 43.1668 67.0331 43.1689 67.0228 43.1732C67.0126 43.1774 67.0033 43.1836 66.9954 43.1915C66.9876 43.1993 66.9813 43.2086 66.9771 43.2189C66.9729 43.2291 66.9707 43.2401 66.9707 43.2512V44.4261C66.9707 44.4372 66.9729 44.4482 66.9771 44.4585C66.9813 44.4687 66.9876 44.478 66.9954 44.4859C67.0033 44.4937 67.0126 44.4999 67.0228 44.5042C67.0331 44.5084 67.044 44.5106 67.0551 44.5106H68.902C68.9244 44.5106 68.9459 44.5195 68.9617 44.5353C68.9775 44.5512 68.9864 44.5727 68.9864 44.5951V45.146C68.9864 45.1684 68.9775 45.1899 68.9617 45.2058C68.9459 45.2216 68.9244 45.2305 68.902 45.2305H67.0551C67.0327 45.2305 67.0113 45.2394 66.9954 45.2553C66.9796 45.2711 66.9707 45.2926 66.9707 45.315V46.5379C66.9707 46.549 66.9729 46.56 66.9771 46.5702C66.9813 46.5805 66.9876 46.5898 66.9954 46.5976C67.0033 46.6055 67.0126 46.6117 67.0228 46.6159C67.0331 46.6202 67.044 46.6224 67.0551 46.6224Z" fill="white"/>
<path d="M77.2855 45.3083L78.5603 42.5534C78.591 42.4856 78.6435 42.4517 78.7177 42.4517H79.2399C79.3141 42.4517 79.3512 42.4888 79.3512 42.563V47.1974C79.3512 47.2614 79.3192 47.2933 79.2552 47.2933H78.6793C78.6153 47.2933 78.5833 47.2614 78.5833 47.1974V44.429C78.5844 44.4147 78.5802 44.4005 78.5716 44.389C78.563 44.3776 78.5506 44.3696 78.5366 44.3665C78.5225 44.3635 78.5079 44.3656 78.4953 44.3725C78.4827 44.3794 78.4731 44.3906 78.4681 44.4041C78.3433 44.6805 77.3719 47.5103 76.7806 46.1069C76.5336 45.5195 76.254 44.9487 75.9417 44.3945C75.879 44.2819 75.8476 44.2902 75.8476 44.4194V47.1724C75.8476 47.253 75.8079 47.2933 75.7286 47.2933H75.1757C75.1117 47.2933 75.0797 47.2614 75.0797 47.1974V42.563C75.0797 42.4798 75.1213 42.4395 75.2045 42.4421L75.7344 42.4555C75.8137 42.4581 75.87 42.4952 75.9033 42.5669C76.3423 43.4743 76.7704 44.3881 77.1876 45.3083C77.1919 45.3177 77.1988 45.3257 77.2075 45.3313C77.2161 45.3369 77.2263 45.3398 77.2366 45.3398C77.2469 45.3398 77.257 45.3369 77.2657 45.3313C77.2744 45.3257 77.2813 45.3177 77.2855 45.3083Z" fill="white"/>
<path d="M84.5379 46.3333H82.7813C82.7652 46.333 82.7494 46.3378 82.7363 46.3471C82.7231 46.3565 82.7133 46.3698 82.7084 46.3852L82.4415 47.2318C82.4371 47.2469 82.4281 47.2602 82.4157 47.2698C82.4032 47.2795 82.3881 47.285 82.3724 47.2855L81.6909 47.299C81.6786 47.2992 81.6665 47.2963 81.6556 47.2908C81.6447 47.2852 81.6354 47.277 81.6284 47.267C81.6213 47.2569 81.6169 47.2453 81.6154 47.2331C81.6139 47.221 81.6155 47.2087 81.6199 47.1972L83.34 42.5072C83.3452 42.4935 83.3544 42.4816 83.3664 42.4731C83.3783 42.4646 83.3925 42.4597 83.4072 42.4592L83.914 42.4381C83.9299 42.4376 83.9455 42.4422 83.9586 42.4511C83.9717 42.4601 83.9817 42.473 83.987 42.488L85.7128 47.1934C85.7168 47.2047 85.7181 47.2168 85.7164 47.2287C85.7147 47.2406 85.7102 47.252 85.7032 47.2617C85.6963 47.2715 85.6871 47.2795 85.6764 47.285C85.6657 47.2905 85.6538 47.2933 85.6418 47.2932H84.968C84.9522 47.2932 84.9368 47.2881 84.924 47.2788C84.9113 47.2695 84.9018 47.2564 84.8969 47.2414L84.609 46.3852C84.6041 46.3701 84.5946 46.357 84.5819 46.3477C84.5691 46.3384 84.5537 46.3334 84.5379 46.3333ZM83.0328 45.5846C83.0298 45.5935 83.0289 45.603 83.0303 45.6123C83.0316 45.6216 83.0351 45.6305 83.0406 45.6382C83.046 45.6459 83.0532 45.6521 83.0615 45.6565C83.0698 45.6609 83.0791 45.6632 83.0885 45.6633L84.2788 45.6595C84.2883 45.6597 84.2978 45.6576 84.3064 45.6533C84.315 45.6491 84.3224 45.6428 84.3281 45.6351C84.3337 45.6274 84.3374 45.6184 84.3389 45.609C84.3403 45.5995 84.3394 45.5898 84.3363 45.5808L83.7335 43.8338C83.7293 43.8225 83.7217 43.8127 83.7117 43.8058C83.7018 43.799 83.69 43.7953 83.6779 43.7953C83.6658 43.7953 83.654 43.799 83.644 43.8058C83.6341 43.8127 83.6265 43.8225 83.6222 43.8338L83.0328 45.5846Z" fill="white"/>
<path d="M88.7578 45.3738V47.1726C88.7578 47.2532 88.7175 47.2936 88.6368 47.2936H88.1089C88.0295 47.2936 87.9899 47.2532 87.9899 47.1726V42.5421C87.9899 42.4755 88.0231 42.4423 88.0897 42.4423C88.9997 42.4519 90.9732 42.0967 91.313 43.5519C91.4743 44.2417 91.2164 44.7799 90.5393 45.1664C90.4766 45.201 90.4619 45.2503 90.4952 45.3143L91.4628 47.163C91.4694 47.1756 91.4726 47.1896 91.4722 47.2038C91.4718 47.218 91.4677 47.2319 91.4604 47.244C91.453 47.2562 91.4427 47.2663 91.4303 47.2733C91.418 47.2802 91.404 47.2839 91.3898 47.284L90.7505 47.2974C90.7083 47.2986 90.6665 47.2875 90.63 47.2654C90.5936 47.2433 90.5641 47.2111 90.5451 47.1726L89.6428 45.3623C89.6295 45.3368 89.6096 45.3155 89.5852 45.3006C89.5609 45.2857 89.533 45.2778 89.5046 45.2778H88.8538C88.7898 45.2778 88.7578 45.3098 88.7578 45.3738ZM88.7597 43.2793L88.7559 44.4888C88.7556 44.504 88.7584 44.5192 88.7641 44.5334C88.7697 44.5476 88.7782 44.5605 88.7889 44.5714C88.7996 44.5823 88.8124 44.591 88.8265 44.5969C88.8406 44.6028 88.8558 44.6059 88.8711 44.6059L89.7541 44.6078C89.9718 44.6084 90.1807 44.5352 90.3351 44.4042C90.4895 44.2732 90.5768 44.0951 90.5777 43.909V43.8744C90.5782 43.782 90.5574 43.6904 90.5164 43.6049C90.4754 43.5194 90.4152 43.4416 90.339 43.376C90.2629 43.3103 90.1724 43.2582 90.0727 43.2225C89.973 43.1868 89.866 43.1683 89.758 43.1679L88.8749 43.166C88.8447 43.166 88.8157 43.1779 88.7941 43.1991C88.7726 43.2203 88.7602 43.2491 88.7597 43.2793Z" fill="white"/>
<path d="M96.8715 44.8982C97.2989 45.1746 97.4698 45.5906 97.384 46.1461C97.1556 47.6224 95.4259 47.3402 94.1031 47.271C94.0726 47.2696 94.0438 47.2564 94.0227 47.2342C94.0016 47.212 93.9898 47.1826 93.9899 47.152V42.5906C93.9897 42.5596 94.0011 42.5298 94.0218 42.507C94.0424 42.4842 94.0708 42.4702 94.1012 42.4677C94.8442 42.4063 96.4088 42.2911 96.9617 42.8747C97.5287 43.4724 97.4947 44.1162 96.8599 44.806C96.8267 44.8419 96.8305 44.8726 96.8715 44.8982ZM94.7578 43.2721V44.3971C94.7578 44.4256 94.7691 44.453 94.7893 44.4731C94.8094 44.4933 94.8368 44.5046 94.8653 44.5046H95.6562C95.8894 44.5046 96.1131 44.4436 96.278 44.3348C96.4429 44.2261 96.5355 44.0786 96.5355 43.9249V43.7444C96.5355 43.5906 96.4429 43.4432 96.278 43.3344C96.1131 43.2257 95.8894 43.1646 95.6562 43.1646H94.8653C94.8368 43.1646 94.8094 43.176 94.7893 43.1961C94.7691 43.2163 94.7578 43.2436 94.7578 43.2721ZM94.7559 45.2917L94.7597 46.505C94.7597 46.5194 94.7625 46.5336 94.768 46.5469C94.7735 46.5602 94.7816 46.5723 94.7917 46.5824C94.8019 46.5926 94.814 46.6006 94.8273 46.6061C94.8405 46.6116 94.8548 46.6145 94.8691 46.6145L95.7849 46.6126C96.0089 46.612 96.2235 46.5401 96.3815 46.4127C96.5396 46.2852 96.6281 46.1127 96.6276 45.9329V45.8562C96.6274 45.7672 96.6053 45.6791 96.5627 45.5969C96.52 45.5148 96.4576 45.4402 96.3789 45.3775C96.3003 45.3147 96.2071 45.265 96.1045 45.2312C96.0019 45.1974 95.892 45.1801 95.781 45.1804L94.8653 45.1823C94.8509 45.1823 94.8367 45.1851 94.8234 45.1906C94.8101 45.1961 94.7981 45.2042 94.7879 45.2144C94.7777 45.2245 94.7697 45.2366 94.7642 45.2499C94.7587 45.2631 94.7559 45.2774 94.7559 45.2917Z" fill="white"/>
<path d="M100.924 46.6224H103.085C103.104 46.6224 103.122 46.6298 103.136 46.6432C103.149 46.6565 103.156 46.6745 103.156 46.6934V47.2232C103.156 47.2421 103.149 47.2601 103.136 47.2735C103.122 47.2868 103.104 47.2943 103.085 47.2943H100.108C100.089 47.2943 100.071 47.2868 100.058 47.2735C100.044 47.2601 100.037 47.2421 100.037 47.2232V42.5179C100.037 42.499 100.044 42.481 100.058 42.4676C100.071 42.4543 100.089 42.4468 100.108 42.4468H100.782C100.8 42.4468 100.819 42.4543 100.832 42.4676C100.845 42.481 100.853 42.499 100.853 42.5179V46.5513C100.853 46.5702 100.86 46.5882 100.873 46.6015C100.887 46.6149 100.905 46.6224 100.924 46.6224Z" fill="white"/>
<path d="M106.362 46.6224H108.545C108.556 46.6224 108.567 46.6246 108.577 46.629C108.588 46.6333 108.597 46.6397 108.605 46.6478C108.613 46.6558 108.619 46.6654 108.623 46.6758C108.627 46.6863 108.629 46.6975 108.629 46.7087L108.619 47.2117C108.619 47.2338 108.61 47.2548 108.594 47.2702C108.578 47.2857 108.557 47.2943 108.535 47.2943H105.594C105.583 47.2943 105.572 47.2921 105.562 47.2878C105.551 47.2836 105.542 47.2774 105.534 47.2695C105.526 47.2617 105.52 47.2524 105.516 47.2421C105.512 47.2319 105.509 47.2209 105.509 47.2098V42.5313C105.509 42.5089 105.518 42.4874 105.534 42.4716C105.55 42.4557 105.571 42.4468 105.594 42.4468H108.545C108.567 42.4468 108.588 42.4557 108.604 42.4716C108.62 42.4874 108.629 42.5089 108.629 42.5313V43.0823C108.629 43.1047 108.62 43.1262 108.604 43.142C108.588 43.1579 108.567 43.1668 108.545 43.1668H106.362C106.351 43.1668 106.34 43.1689 106.329 43.1732C106.319 43.1774 106.31 43.1836 106.302 43.1915C106.294 43.1993 106.288 43.2086 106.284 43.2189C106.279 43.2291 106.277 43.2401 106.277 43.2512V44.4261C106.277 44.4372 106.279 44.4482 106.284 44.4585C106.288 44.4687 106.294 44.478 106.302 44.4859C106.31 44.4937 106.319 44.4999 106.329 44.5042C106.34 44.5084 106.351 44.5106 106.362 44.5106H108.209C108.231 44.5106 108.253 44.5195 108.268 44.5353C108.284 44.5512 108.293 44.5727 108.293 44.5951V45.146C108.293 45.1684 108.284 45.1899 108.268 45.2058C108.253 45.2216 108.231 45.2305 108.209 45.2305H106.362C106.339 45.2305 106.318 45.2394 106.302 45.2553C106.286 45.2711 106.277 45.2926 106.277 45.315V46.5379C106.277 46.549 106.279 46.56 106.284 46.5702C106.288 46.5805 106.294 46.5898 106.302 46.5976C106.31 46.6055 106.319 46.6117 106.329 46.6159C106.34 46.6202 106.351 46.6224 106.362 46.6224Z" fill="white"/>
</svg>
