<svg width="11" height="10" viewBox="0 0 11 10" fill="none" xmlns="http://www.w3.org/2000/svg">
<path d="M5.39423 0.0936587C5.42371 0.0297318 5.51457 0.0297318 5.54406 0.0936587L7.02095 3.29556C7.03297 3.32161 7.05766 3.33955 7.08615 3.34293L10.5877 3.7581C10.6576 3.76639 10.6857 3.85279 10.634 3.90059L8.04522 6.29464C8.02415 6.31412 8.01472 6.34315 8.02031 6.37129L8.70751 9.82978C8.72123 9.89883 8.64773 9.95223 8.5863 9.91784L5.50944 8.19555C5.4844 8.18154 5.45388 8.18154 5.42884 8.19555L2.35198 9.91784C2.29055 9.95223 2.21705 9.89883 2.23077 9.82978L2.91797 6.37129C2.92356 6.34315 2.91413 6.31412 2.89306 6.29464L0.30426 3.90059C0.252574 3.85279 0.28065 3.76639 0.35056 3.7581L3.85213 3.34293C3.88062 3.33955 3.90532 3.32161 3.91733 3.29556L5.39423 0.0936587Z" fill="#FEBE28"/>
</svg>
