<svg width="270" height="16" viewBox="0 0 270 16" fill="none" xmlns="http://www.w3.org/2000/svg">
<path d="M1 7C0.447715 7 4.82823e-08 7.44772 0 8C-4.82823e-08 8.55228 0.447715 9 1 9L1 7ZM269.707 8.70713C270.098 8.31661 270.098 7.68344 269.707 7.29292L263.343 0.928955C262.953 0.538431 262.319 0.538431 261.929 0.928955C261.538 1.31948 261.538 1.95264 261.929 2.34317L267.586 8.00002L261.929 13.6569C261.538 14.0474 261.538 14.6806 261.929 15.0711C262.319 15.4616 262.953 15.4616 263.343 15.0711L269.707 8.70713ZM1 9L269 9.00002L269 7.00002L1 7L1 9Z" fill="white"/>
</svg>
