<svg width="150" height="150" viewBox="0 0 150 150" fill="none" xmlns="http://www.w3.org/2000/svg">
<circle cx="75" cy="75" r="75" fill="#001838"/>
<circle cx="75" cy="75" r="53.75" fill="#04234D"/>
<circle cx="75" cy="75" r="28.75" fill="white"/>
<path d="M68.6036 86.57C66.8636 86.57 65.3736 86.29 64.1336 85.73C62.8936 85.15 61.8836 84.37 61.1036 83.39C60.3436 82.41 59.7736 81.28 59.3936 80C59.0336 78.7 58.8536 77.33 58.8536 75.89V74.18C58.8536 72.18 59.2036 70.37 59.9036 68.75C60.6036 67.13 61.6736 65.84 63.1136 64.88C64.5536 63.92 66.3836 63.44 68.6036 63.44C70.8236 63.44 72.6436 63.92 74.0636 64.88C75.5036 65.84 76.5736 67.13 77.2736 68.75C77.9736 70.37 78.3236 72.18 78.3236 74.18V75.89C78.3236 77.33 78.1336 78.7 77.7536 80C77.3936 81.28 76.8236 82.41 76.0436 83.39C75.2836 84.37 74.2836 85.15 73.0436 85.73C71.8236 86.29 70.3436 86.57 68.6036 86.57ZM68.6036 82.04C70.2236 82.04 71.4236 81.48 72.2036 80.36C73.0036 79.22 73.4036 77.46 73.4036 75.08C73.4036 72.56 72.9936 70.75 72.1736 69.65C71.3736 68.53 70.1836 67.97 68.6036 67.97C66.9836 67.97 65.7736 68.53 64.9736 69.65C64.1736 70.75 63.7736 72.54 63.7736 75.02C63.7736 77.42 64.1636 79.19 64.9436 80.33C65.7436 81.47 66.9636 82.04 68.6036 82.04ZM85.3044 86V67.34L86.6244 68.36H81.0144V64.1H90.1944V86H85.3044Z" fill="black"/>
</svg>
