<svg width="178" height="48" viewBox="0 0 178 48" fill="none" xmlns="http://www.w3.org/2000/svg">
<path d="M68.5789 0.46875H69.2037C83.2965 1.08288 94.3437 13.0655 92.2728 27.3119C91.323 33.8245 88.1274 38.5626 83.4536 42.9971C83.356 43.09 83.2394 43.1364 83.1037 43.1364H62.3055C62.1103 43.1364 62.0817 43.0662 62.2198 42.9257C65.6094 39.5028 69.0014 36.1037 72.3957 32.7283C74.4381 30.6955 75.7044 29.1793 76.1948 28.1795C79.6939 21.0278 71.7209 13.2405 64.5728 16.9145C63.7254 17.3478 62.5316 18.3308 60.9915 19.8638C57.283 23.5509 53.6077 27.2345 49.9658 30.9145C49.9473 30.9328 49.9239 30.9452 49.8984 30.9502C49.8729 30.9552 49.8465 30.9526 49.8225 30.9427C49.7985 30.9328 49.778 30.916 49.7635 30.8945C49.7489 30.873 49.7411 30.8477 49.7408 30.8217L49.8337 20.6564C49.8341 20.6313 49.8296 20.6063 49.8203 20.5829C49.811 20.5596 49.7971 20.5383 49.7795 20.5203C49.7619 20.5024 49.7409 20.4881 49.7177 20.4784C49.6945 20.4686 49.6696 20.4636 49.6444 20.4636H39.3685C39.2209 20.4636 39.1995 20.4113 39.3042 20.3065C42.9795 16.6194 46.6583 12.9394 50.3407 9.2665C52.6568 6.9528 54.4337 5.37702 55.6715 4.53914C59.4657 1.96122 63.7682 0.60443 68.5789 0.46875Z" fill="white"/>
<path d="M0 24.8054V22.6774C0.492731 15.1686 3.8633 9.79495 9.22264 4.9212C9.27739 4.86884 9.34404 4.84265 9.42259 4.84265H30.1708C30.3732 4.84265 30.4029 4.91406 30.2601 5.05688C27.1823 8.14657 24.1141 11.2243 21.0553 14.2902C18.5583 16.7944 17.098 18.4047 16.6743 19.1211C11.622 27.6582 23.2119 36.4738 30.1458 29.4506C31.6383 27.9391 33.1487 26.4431 34.6768 24.9625C34.7592 24.8824 34.8706 24.8375 34.9875 24.8375H45.2563C45.3036 24.8375 45.349 24.8563 45.3825 24.8898C45.416 24.9233 45.4348 24.9687 45.4348 25.0161V35.2741C45.4348 35.4074 45.3872 35.5193 45.292 35.6098C42.6676 38.1555 39.9005 41.2726 37.2119 43.1614C21.7587 54.0015 1.04259 43.4685 0 24.8054Z" fill="white"/>
<path d="M111.778 11.091H106.355C106.207 11.091 106.134 11.1648 106.134 11.3124V13.2155C106.134 13.3345 106.194 13.3952 106.316 13.3976C108.018 13.4214 109.711 13.4309 111.396 13.4262C114.042 13.4155 114.053 18.2142 111.582 18.2249C109.963 18.2321 108.344 18.2356 106.723 18.2356C105.484 18.2392 104.784 17.7144 104.798 16.4432C104.798 16.3314 104.854 16.2754 104.966 16.2754L105.766 16.2647C105.892 16.2647 105.97 16.3254 106.001 16.4468L106.105 16.8431C106.136 16.9693 106.217 17.0336 106.348 17.036L111.664 17.0859C111.713 17.0864 111.761 17.0772 111.806 17.0589C111.85 17.0406 111.891 17.0135 111.925 16.9793C111.96 16.945 111.987 16.9043 112.005 16.8595C112.023 16.8146 112.032 16.7666 112.032 16.7182L112.011 14.8615C112.011 14.8119 111.991 14.7643 111.956 14.7289C111.922 14.6936 111.874 14.6732 111.825 14.6723C109.937 14.6485 108.071 14.6473 106.226 14.6687C104.377 14.6901 103.895 9.86636 106.537 9.84851C108.091 9.83899 109.645 9.83661 111.196 9.84137C112.468 9.84494 113.303 10.2591 113.278 11.6231C113.276 11.7445 113.214 11.8052 113.092 11.8052H112.211C112.096 11.8052 112.036 11.748 112.028 11.6338L112.014 11.3124C112.011 11.2527 111.985 11.1964 111.941 11.1551C111.898 11.1139 111.839 11.0909 111.778 11.091Z" fill="white"/>
<path d="M124.661 15.6899C124.67 15.7143 124.685 15.7354 124.707 15.7503C124.728 15.7652 124.753 15.7733 124.779 15.7733C124.805 15.7733 124.83 15.7652 124.851 15.7503C124.872 15.7354 124.888 15.7143 124.897 15.6899L126.978 10.0164C127.021 9.89975 127.106 9.84143 127.232 9.84143H128.128C128.283 9.84143 128.334 9.91403 128.281 10.0592L125.457 17.8465C125.407 17.9844 125.316 18.1035 125.196 18.1877C125.076 18.2718 124.933 18.317 124.786 18.317C124.639 18.317 124.496 18.2718 124.376 18.1877C124.256 18.1035 124.165 17.9844 124.115 17.8465L121.965 11.9373C121.956 11.915 121.941 11.8958 121.921 11.8822C121.901 11.8686 121.878 11.8613 121.854 11.8613C121.83 11.8613 121.807 11.8686 121.788 11.8822C121.769 11.8958 121.755 11.915 121.747 11.9373L119.573 17.9358C119.525 18.0657 119.439 18.1778 119.326 18.2571C119.212 18.3363 119.077 18.3788 118.939 18.3788C118.801 18.3788 118.666 18.3363 118.553 18.2571C118.439 18.1778 118.353 18.0657 118.305 17.9358L115.449 10.0699C115.394 9.9176 115.448 9.84143 115.61 9.84143H116.481C116.617 9.84143 116.708 9.9057 116.756 10.0342C117.456 11.9361 118.146 13.8416 118.827 15.7506C118.893 15.9363 118.961 15.9363 119.03 15.7506L121.015 10.3306C121.08 10.1571 121.195 10.0075 121.347 9.90192C121.499 9.79636 121.68 9.73997 121.865 9.74036C122.05 9.74075 122.23 9.7979 122.381 9.90409C122.533 10.0103 122.648 10.1604 122.711 10.3342L124.661 15.6899Z" fill="white"/>
<path d="M131.93 11.2195V13.2904C131.93 13.3073 131.934 13.324 131.94 13.3396C131.947 13.3552 131.956 13.3694 131.968 13.3813C131.98 13.3933 131.994 13.4027 132.01 13.4092C132.025 13.4156 132.042 13.419 132.059 13.419L137.04 13.4083C137.057 13.4082 137.074 13.4117 137.09 13.4184C137.106 13.425 137.12 13.4348 137.132 13.4472C137.144 13.4595 137.153 13.4741 137.16 13.4901C137.166 13.5061 137.169 13.5232 137.168 13.5404L137.147 14.5365C137.146 14.57 137.132 14.6018 137.108 14.6251C137.084 14.6485 137.052 14.6615 137.018 14.6615H132.059C132.025 14.6615 131.992 14.675 131.968 14.6992C131.944 14.7233 131.93 14.756 131.93 14.79V16.9431C131.93 16.9772 131.944 17.0098 131.968 17.034C131.992 17.0581 132.025 17.0716 132.059 17.0716H138.318C138.352 17.0716 138.385 17.0851 138.409 17.1092C138.433 17.1334 138.447 17.166 138.447 17.2001V18.1213C138.447 18.1554 138.433 18.1881 138.409 18.2122C138.385 18.2363 138.352 18.2499 138.318 18.2499L130.809 18.2249C130.775 18.2249 130.743 18.2113 130.718 18.1872C130.694 18.1631 130.681 18.1304 130.681 18.0963V9.96985C130.681 9.93576 130.694 9.90306 130.718 9.87896C130.743 9.85485 130.775 9.84131 130.809 9.84131H138.318C138.352 9.84131 138.385 9.85485 138.409 9.87896C138.433 9.90306 138.447 9.93576 138.447 9.96985V10.9624C138.447 10.9965 138.433 11.0292 138.409 11.0533C138.385 11.0774 138.352 11.091 138.318 11.091H132.059C132.025 11.091 131.992 11.1045 131.968 11.1286C131.944 11.1527 131.93 11.1854 131.93 11.2195Z" fill="white"/>
<path d="M142.217 17.0716H149.108C149.135 17.0713 149.161 17.0804 149.181 17.0975C149.201 17.1145 149.215 17.1383 149.219 17.1644L149.358 18.1035C149.361 18.1194 149.36 18.1358 149.356 18.1513C149.351 18.1669 149.343 18.1813 149.333 18.1936C149.322 18.2058 149.309 18.2156 149.294 18.2223C149.28 18.2289 149.264 18.2322 149.248 18.232H140.967C140.938 18.232 140.91 18.2204 140.889 18.1996C140.868 18.1788 140.857 18.1507 140.857 18.1213V9.95199C140.857 9.92264 140.868 9.89449 140.889 9.87373C140.91 9.85297 140.938 9.84131 140.967 9.84131H141.996C142.025 9.84131 142.053 9.85297 142.074 9.87373C142.095 9.89449 142.106 9.92264 142.106 9.95199V16.9609C142.106 16.9903 142.118 17.0184 142.139 17.0392C142.16 17.0599 142.188 17.0716 142.217 17.0716Z" fill="white"/>
<path d="M152.493 17.0645L159.459 17.0752C159.487 17.075 159.513 17.0852 159.534 17.1037C159.554 17.1222 159.567 17.1477 159.57 17.1751L159.673 18.1035C159.675 18.1189 159.673 18.1344 159.668 18.1491C159.663 18.1638 159.655 18.1773 159.645 18.1888C159.635 18.2002 159.622 18.2093 159.608 18.2156C159.594 18.2218 159.578 18.2249 159.563 18.2249L151.322 18.2427C151.293 18.2427 151.264 18.2311 151.244 18.2103C151.223 18.1896 151.211 18.1614 151.211 18.132V9.95199C151.211 9.92264 151.223 9.89449 151.244 9.87373C151.264 9.85297 151.293 9.84131 151.322 9.84131H152.275C152.305 9.84131 152.333 9.85297 152.354 9.87373C152.374 9.89449 152.386 9.92264 152.386 9.95199L152.382 16.9538C152.382 16.9831 152.394 17.0113 152.415 17.032C152.436 17.0528 152.464 17.0645 152.493 17.0645Z" fill="white"/>
<path d="M106.133 29.8934V35.4598C106.133 35.5071 106.152 35.5525 106.186 35.586C106.219 35.6195 106.265 35.6383 106.312 35.6383H113.096C113.215 35.6383 113.274 35.6978 113.274 35.8168V36.7059C113.274 36.8249 113.214 36.8856 113.092 36.888C110.95 36.8927 108.81 36.888 106.673 36.8737C105.497 36.8642 104.904 36.2739 104.894 35.1027C104.887 33.8888 104.552 29.5756 105.366 28.8329C106.173 28.0938 111.768 28.3902 113.057 28.4401C113.202 28.4473 113.274 28.5223 113.274 28.6651V29.4328C113.274 29.5827 113.199 29.6577 113.05 29.6577H106.366C106.304 29.6577 106.245 29.6825 106.201 29.7267C106.158 29.7709 106.133 29.8309 106.133 29.8934Z" fill="white"/>
<path d="M124.148 35.2746C124.147 35.7064 123.974 36.12 123.667 36.4242C123.361 36.7285 122.946 36.8986 122.514 36.8971L117.302 36.8789C116.87 36.8774 116.456 36.7044 116.152 36.398C115.848 36.0916 115.678 35.6769 115.679 35.2451L115.697 30.0321C115.699 29.6003 115.872 29.1868 116.178 28.8825C116.485 28.5783 116.899 28.4082 117.331 28.4097L122.544 28.4279C122.976 28.4294 123.389 28.6024 123.694 28.9088C123.998 29.2152 124.168 29.6299 124.166 30.0617L124.148 35.2746ZM122.916 30.02C122.916 29.9736 122.907 29.9276 122.889 29.8847C122.872 29.8417 122.846 29.8027 122.813 29.7699C122.78 29.737 122.741 29.7109 122.698 29.693C122.655 29.6752 122.609 29.666 122.563 29.6659L117.293 29.6567C117.247 29.6566 117.201 29.6657 117.158 29.6834C117.115 29.701 117.076 29.727 117.043 29.7598C117.01 29.7925 116.984 29.8315 116.966 29.8743C116.948 29.9172 116.939 29.9631 116.939 30.0096L116.93 35.2796C116.93 35.3261 116.939 35.372 116.956 35.415C116.974 35.4579 117 35.4969 117.033 35.5298C117.066 35.5626 117.104 35.5887 117.147 35.6066C117.19 35.6244 117.236 35.6336 117.283 35.6337L122.553 35.6429C122.599 35.643 122.645 35.6339 122.688 35.6163C122.731 35.5986 122.77 35.5726 122.803 35.5398C122.836 35.5071 122.862 35.4681 122.88 35.4253C122.897 35.3824 122.907 35.3365 122.907 35.2901L122.916 30.02Z" fill="white"/>
<path d="M135.044 35.5241C135.023 36.2204 134.358 36.7488 133.687 36.7809C131.773 36.869 129.856 36.9 127.935 36.8738C127.292 36.8631 126.721 36.1811 126.678 35.4956C126.543 33.189 126.52 30.8813 126.61 28.5723C126.613 28.4628 126.669 28.4081 126.778 28.4081H127.703C127.737 28.4081 127.77 28.4212 127.794 28.4447C127.818 28.4681 127.832 28.4999 127.832 28.533L127.889 35.4027C127.891 35.5598 127.97 35.6384 128.124 35.6384H133.584C133.731 35.6384 133.805 35.5634 133.805 35.4134V28.5866C133.805 28.4676 133.865 28.4081 133.984 28.4081H134.869C134.983 28.4081 135.042 28.4664 135.044 28.583C135.073 32.2464 135.073 34.5601 135.044 35.5241Z" fill="white"/>
<path d="M144.609 35.0778C144.619 35.0884 144.631 35.096 144.645 35.0997C144.658 35.1033 144.673 35.1028 144.686 35.0982C144.7 35.0936 144.711 35.0852 144.72 35.0739C144.729 35.0626 144.734 35.0491 144.734 35.0349C144.806 33.0688 144.812 31.0812 144.752 29.0722C144.731 28.2902 145.163 28.2081 145.816 28.4795C145.858 28.4965 145.893 28.5256 145.918 28.5631C145.942 28.6006 145.956 28.6448 145.955 28.6901L145.941 36.7131C145.939 36.8297 145.879 36.888 145.763 36.888H144.724C144.655 36.888 144.588 36.8729 144.526 36.8439C144.465 36.8149 144.41 36.7727 144.367 36.7202L138.975 30.2969C138.962 30.2793 138.943 30.2665 138.922 30.2604C138.901 30.2542 138.878 30.2549 138.857 30.2625C138.837 30.2701 138.819 30.2841 138.807 30.3025C138.794 30.3208 138.788 30.3427 138.789 30.3647L138.811 36.7059C138.811 36.8273 138.75 36.888 138.629 36.888H137.733C137.614 36.888 137.554 36.8285 137.554 36.7095V28.633C137.554 28.483 137.629 28.4081 137.779 28.4081H138.772C138.943 28.4081 139.083 28.4735 139.193 28.6044L144.609 35.0778Z" fill="white"/>
<path d="M153.014 29.7613L152.897 36.7845C152.896 36.8123 152.884 36.8386 152.864 36.858C152.844 36.8773 152.817 36.8881 152.789 36.8881H151.875C151.847 36.8881 151.82 36.8768 151.8 36.8567C151.78 36.8366 151.768 36.8093 151.768 36.7809L151.697 29.7649C151.697 29.7365 151.686 29.7092 151.665 29.6891C151.645 29.669 151.618 29.6578 151.59 29.6578H148.201C148.173 29.6578 148.146 29.6465 148.126 29.6264C148.106 29.6063 148.094 29.5791 148.094 29.5506L148.083 28.5009C148.083 28.4725 148.095 28.4453 148.115 28.4252C148.135 28.4051 148.162 28.3938 148.191 28.3938L156.46 28.4188C156.488 28.4188 156.516 28.4301 156.536 28.4502C156.556 28.4703 156.567 28.4975 156.567 28.5259V29.5506C156.567 29.5791 156.556 29.6063 156.536 29.6264C156.516 29.6465 156.488 29.6578 156.46 29.6578H153.121C153.094 29.6577 153.067 29.6685 153.047 29.6879C153.027 29.7072 153.015 29.7335 153.014 29.7613Z" fill="white"/>
<path d="M159.87 34.0316V36.7095C159.87 36.8285 159.81 36.888 159.691 36.888H158.799C158.68 36.888 158.62 36.8285 158.62 36.7095V28.6151C158.62 28.4556 158.7 28.3771 158.859 28.3794L165.893 28.483C165.996 28.4854 166.096 28.5176 166.182 28.5758C166.661 28.8972 166.964 29.2399 167.007 29.8434C167.125 31.5572 167.579 34.1601 164.943 33.8316C164.915 33.8289 164.887 33.8344 164.862 33.8477C164.837 33.8609 164.817 33.8812 164.804 33.906C164.79 33.9309 164.785 33.9591 164.787 33.9871C164.79 34.0152 164.801 34.0418 164.819 34.0637L166.986 36.6131C167.006 36.6375 167.019 36.6673 167.023 36.6988C167.027 36.7304 167.022 36.7624 167.009 36.7912C166.995 36.8201 166.974 36.8444 166.947 36.8616C166.92 36.8787 166.889 36.8879 166.857 36.888H165.783C165.725 36.888 165.669 36.8755 165.617 36.8515C165.565 36.8274 165.52 36.7924 165.483 36.7487L163.137 33.9852C163.102 33.9438 163.059 33.9105 163.009 33.8876C162.96 33.8648 162.906 33.853 162.851 33.853H160.048C159.929 33.853 159.87 33.9126 159.87 34.0316ZM165.841 30.0423C165.84 29.9912 165.83 29.9406 165.81 29.8936C165.79 29.8465 165.761 29.8039 165.725 29.7681C165.688 29.7322 165.645 29.7039 165.598 29.6848C165.55 29.6657 165.499 29.656 165.448 29.6565L160.25 29.7019C160.147 29.7028 160.048 29.7446 159.976 29.8183C159.903 29.8919 159.863 29.9912 159.864 30.0944L159.883 32.2438C159.883 32.2949 159.894 32.3454 159.914 32.3925C159.934 32.4395 159.963 32.4822 159.999 32.518C160.036 32.5538 160.079 32.5821 160.126 32.6012C160.174 32.6204 160.224 32.63 160.275 32.6296L165.474 32.5842C165.577 32.5833 165.676 32.5414 165.748 32.4678C165.82 32.3942 165.861 32.2948 165.86 32.1916L165.841 30.0423Z" fill="white"/>
<path d="M173.688 32.1821L176.587 28.4974C176.599 28.4831 176.613 28.4717 176.63 28.4636C176.647 28.4556 176.665 28.4513 176.683 28.4509L177.869 28.4188C177.893 28.4183 177.916 28.4244 177.937 28.4366C177.957 28.4487 177.974 28.4663 177.985 28.4874C177.996 28.5086 178.001 28.5324 178 28.5562C177.998 28.58 177.99 28.6029 177.976 28.6223L174.266 33.6353C174.249 33.6581 174.241 33.6857 174.241 33.7139V36.7595C174.241 36.7936 174.228 36.8263 174.203 36.8504C174.179 36.8745 174.147 36.8881 174.113 36.8881H173.12C173.086 36.8881 173.053 36.8745 173.029 36.8504C173.005 36.8263 172.991 36.7936 172.991 36.7595V33.7996C172.992 33.7714 172.983 33.7437 172.966 33.721L169.203 28.6116C169.189 28.5925 169.181 28.5699 169.179 28.5464C169.178 28.5229 169.182 28.4994 169.193 28.4783C169.204 28.4573 169.22 28.4397 169.24 28.4273C169.26 28.4149 169.283 28.4083 169.307 28.4081H170.463C170.483 28.4078 170.503 28.4122 170.521 28.4209C170.539 28.4295 170.555 28.4423 170.567 28.4581L173.488 32.1821C173.5 32.197 173.515 32.2091 173.532 32.2173C173.55 32.2256 173.569 32.2299 173.588 32.2299C173.607 32.2299 173.626 32.2256 173.643 32.2173C173.66 32.2091 173.676 32.197 173.688 32.1821Z" fill="white"/>
</svg>
