<svg xmlns="http://www.w3.org/2000/svg" width="31" height="24" viewBox="0 0 31 24" fill="none"> <path d="M2 10.5C1.17157 10.5 0.5 11.1716 0.5 12C0.5 12.8284 1.17157 13.5 2 13.5V10.5ZM29.9307 13.0607C30.5165 12.4749 30.5165 11.5251 29.9307 10.9393L20.3848 1.3934C19.799 0.807611 18.8492 0.807611 18.2635 1.3934C17.6777 1.97919 17.6777 2.92893 18.2635 3.51472L26.7487 12L18.2635 20.4853C17.6777 21.0711 17.6777 22.0208 18.2635 22.6066C18.8492 23.1924 19.799 23.1924 20.3848 22.6066L29.9307 13.0607ZM2 13.5L28.8701 13.5V10.5L2 10.5V13.5Z" fill="white"></path> </svg>