<svg width="130" height="60" viewBox="0 0 130 60" fill="none" xmlns="http://www.w3.org/2000/svg">
<g clip-path="url(#clip0_425_2113)">
<path d="M0.5 19.1542V11.5353L4.20258 11.5226C4.27413 11.5226 4.3099 11.4864 4.3099 11.4139V0.659751C4.3099 0.588753 4.34567 0.553253 4.41722 0.553253H13.3785C13.407 0.553253 13.4343 0.564473 13.4544 0.584446C13.4745 0.604418 13.4859 0.631506 13.4859 0.659751V11.4161C13.4859 11.4871 13.5216 11.5226 13.5932 11.5226H20.7837C20.8122 11.5226 20.8395 11.5338 20.8596 11.5538C20.8797 11.5737 20.891 11.6008 20.891 11.6291V19.1372C20.891 19.2082 20.8552 19.2437 20.7837 19.2437H13.5975C13.5684 19.2437 13.5406 19.2551 13.5201 19.2755C13.4995 19.2959 13.488 19.3235 13.488 19.3523C13.4837 24.0553 13.4844 28.7753 13.4901 33.5123C13.4944 37.4123 18.7746 36.0811 20.7536 35.0054C20.7676 34.9977 20.7834 34.9936 20.7994 34.9938C20.8154 34.9939 20.8311 34.9981 20.8449 35.006C20.8588 35.014 20.8703 35.0254 20.8784 35.0391C20.8865 35.0528 20.8908 35.0683 20.891 35.0842V42.0833C20.891 42.1614 20.856 42.2189 20.7858 42.2558C17.2514 44.0677 13.5824 44.4916 9.77899 43.5274C5.16847 42.3581 4.32922 37.9341 4.31849 33.8616C4.30561 29.0082 4.30418 24.154 4.31419 19.2991C4.31419 19.2238 4.27627 19.1862 4.20043 19.1862L0.5 19.1542Z" fill="white"/>
<path d="M48.7408 39.6083C48.7413 39.5991 48.7388 39.5901 48.7337 39.5825C48.7286 39.5749 48.7212 39.5691 48.7125 39.566C48.7038 39.5629 48.6944 39.5626 48.6856 39.5653C48.6768 39.5679 48.669 39.5733 48.6635 39.5806C45.1992 43.9662 38.8458 44.8693 33.6579 43.2718C24.9584 40.5944 22.8399 30.4942 24.7438 22.7581C26.7249 14.709 34.3083 9.92509 42.5183 11.9507C44.7163 12.4938 47.1181 14.3554 48.612 16.0764C48.6217 16.0878 48.6346 16.0959 48.6491 16.0998C48.6636 16.1036 48.6789 16.1029 48.6929 16.0978C48.707 16.0926 48.7191 16.0834 48.7277 16.0712C48.7363 16.059 48.7408 16.0444 48.7408 16.0296V0.659751C48.7408 0.588753 48.7766 0.553253 48.8481 0.553253H57.8094C57.8379 0.553253 57.8652 0.564473 57.8853 0.584446C57.9054 0.604418 57.9168 0.631506 57.9168 0.659751V43.898C57.9168 43.969 57.881 44.0045 57.8094 44.0045H48.8481C48.7766 44.0045 48.7408 43.969 48.7408 43.898V39.6083ZM46.3626 22.7155C44.8536 20.0083 41.8036 18.5429 38.8351 19.0307C31.3183 20.2597 29.951 31.1161 35.6863 35.1801C38.7578 37.359 43.2567 36.8351 45.6135 33.8723C48.1548 30.6773 48.318 26.2236 46.3626 22.7155Z" fill="white"/>
<path d="M72.8301 15.1903C78.3057 10.628 85.8074 9.9336 91.137 15.2138C91.1871 15.2649 91.2407 15.2677 91.2979 15.2223C93.6934 13.2798 96.6018 11.8207 99.7162 11.5971C105.9 11.1541 111.124 14.7281 112.359 20.7815C112.512 21.5369 112.59 22.6907 112.593 24.2427C112.6 30.7973 112.6 37.3491 112.595 43.898C112.595 43.9262 112.583 43.9533 112.563 43.9733C112.542 43.9933 112.514 44.0045 112.485 44.0045H103.53C103.456 44.0045 103.419 43.9676 103.419 43.8937C103.422 37.7509 103.422 31.6117 103.421 25.4759C103.421 23.7095 102.821 22.2817 101.62 21.1926C98.746 18.5834 94.1613 19.8912 92.9893 23.4866C92.7589 24.1894 92.6423 25.5377 92.6395 27.5314C92.6323 32.9869 92.6316 38.4403 92.6373 43.8916C92.6373 43.9216 92.6256 43.9503 92.6046 43.9714C92.5837 43.9926 92.5553 44.0045 92.5257 44.0045H83.6245C83.5955 44.0045 83.5676 43.9931 83.5471 43.9727C83.5266 43.9523 83.515 43.9247 83.515 43.8959C83.5122 37.9859 83.5086 32.0582 83.5043 26.1128C83.5021 25.0436 83.3884 23.9253 82.9591 22.9668C80.9908 18.5621 74.5408 18.8603 73.0383 23.5292C72.8394 24.1454 72.7386 25.2502 72.7357 26.8434C72.7228 32.529 72.7214 38.2117 72.7314 43.8916C72.7314 43.9216 72.7192 43.9503 72.6975 43.9714C72.6757 43.9926 72.6462 44.0045 72.6155 44.0045H63.6585C63.5869 44.0045 63.5511 43.969 63.5511 43.898V11.5758C63.5511 11.5048 63.5869 11.4693 63.6585 11.4693H72.6198C72.6482 11.4693 72.6755 11.4805 72.6957 11.5005C72.7158 11.5205 72.7271 11.5476 72.7271 11.5758V15.1414C72.7271 15.2308 72.7614 15.2471 72.8301 15.1903Z" fill="white"/>
<path d="M122.108 43.9832C124.999 43.9832 127.343 41.6574 127.343 38.7882C127.343 35.9191 124.999 33.5933 122.108 33.5933C119.216 33.5933 116.873 35.9191 116.873 38.7882C116.873 41.6574 119.216 43.9832 122.108 43.9832Z" fill="white"/>
<path d="M9.52789 52.7203C7.59182 51.2144 5.22002 52.4775 5.58062 54.8503C5.87254 56.7651 7.81505 57.3317 9.36477 56.4094C9.42916 56.3725 9.46135 56.3164 9.46135 56.2411V55.2145C9.46135 55.125 9.41628 55.0803 9.32613 55.0803H7.85154C7.77999 55.0803 7.74422 55.0448 7.74422 54.9738V54.1751C7.74422 54.1041 7.77999 54.0686 7.85154 54.0686H10.5346C10.563 54.0686 10.5903 54.0798 10.6105 54.0998C10.6306 54.1197 10.6419 54.1468 10.6419 54.1751V56.7289C10.6419 56.8098 10.6097 56.8759 10.5453 56.927C8.98056 58.1517 6.75042 58.3306 5.28227 56.9121C4.03091 55.7023 4.003 53.6575 5.00538 52.3028C6.23528 50.6393 8.7144 50.5946 10.3028 51.8172C10.3543 51.857 10.3593 51.9017 10.3178 51.9514L9.69746 52.7011C9.67728 52.7256 9.64827 52.7413 9.6166 52.7449C9.58493 52.7485 9.5531 52.7397 9.52789 52.7203Z" fill="white"/>
<path d="M28.928 53.8314C29.0878 54.7401 28.8727 55.6755 28.3298 56.4316C27.7869 57.1878 26.9609 57.7029 26.0333 57.8635C25.1058 58.0242 24.1527 57.8172 23.3839 57.2882C22.615 56.7592 22.0932 55.9515 21.9334 55.0428C21.7736 54.134 21.9888 53.1987 22.5316 52.4425C23.0745 51.6864 23.9005 51.1713 24.8281 51.0107C25.7556 50.85 26.7087 51.057 27.4776 51.5859C28.2464 52.1149 28.7682 52.9226 28.928 53.8314ZM25.5615 56.8362C26.1715 56.8034 26.7426 56.5194 27.1494 56.0467C27.5561 55.574 27.7651 54.9513 27.7304 54.3156C27.6958 53.6799 27.4202 53.0833 26.9644 52.6569C26.5085 52.2306 25.9098 52.0095 25.2999 52.0423C24.69 52.075 24.1188 52.359 23.712 52.8317C23.3053 53.3044 23.0963 53.9271 23.131 54.5628C23.1657 55.1985 23.4412 55.7952 23.8971 56.2215C24.3529 56.6479 24.9516 56.869 25.5615 56.8362Z" fill="white"/>
<path d="M124.686 55.0143C123.979 54.9064 123.354 54.6408 122.812 54.2177C122.03 53.6043 122.097 52.4243 122.689 51.7448C123.739 50.5414 125.754 50.8992 126.903 51.764C126.966 51.8108 126.975 51.8669 126.931 51.9322L126.441 52.6373C126.433 52.6499 126.421 52.6606 126.408 52.6688C126.395 52.677 126.381 52.6825 126.365 52.6849C126.35 52.6872 126.334 52.6865 126.319 52.6827C126.304 52.6789 126.29 52.6722 126.278 52.6628C125.597 52.1261 124.855 51.9457 124.052 52.1218C123.168 52.3156 123.282 53.3593 124.1 53.6128C124.962 53.8812 126.398 54.141 126.914 54.8972C127.751 56.124 126.845 57.583 125.458 57.8322C124.212 58.0552 123.082 57.7371 122.069 56.878C122.01 56.8297 122.007 56.7765 122.058 56.7183L122.649 56.0409C122.659 56.0296 122.671 56.0203 122.685 56.0137C122.698 56.007 122.713 56.0032 122.728 56.0024C122.744 56.0016 122.759 56.0039 122.773 56.009C122.787 56.0142 122.801 56.0221 122.812 56.0324C123.615 56.7808 124.544 57.0037 125.6 56.7012C125.672 56.6806 125.736 56.6373 125.782 56.5777C126.525 55.6277 125.435 55.1315 124.686 55.0143Z" fill="white"/>
<path d="M33.8403 55.9174L35.4394 51.1441C35.4638 51.0703 35.5153 51.0334 35.594 51.0334H36.3495C36.4282 51.0334 36.4797 51.0703 36.5041 51.1441L38.0667 55.9153C38.0701 55.9279 38.0777 55.939 38.0882 55.9469C38.0986 55.9548 38.1114 55.9591 38.1246 55.9591C38.1378 55.9591 38.1506 55.9548 38.161 55.9469C38.1715 55.939 38.1791 55.9279 38.1826 55.9153L39.7087 51.1931C39.7316 51.1221 39.7802 51.0866 39.8546 51.0866H40.842C40.9436 51.0866 40.9772 51.1342 40.9429 51.2293L38.6762 57.7257C38.6476 57.8081 38.5897 57.8493 38.5024 57.8493H37.7533C37.6574 57.8493 37.5944 57.8045 37.5644 57.7151L36.0168 53.1996C35.9725 53.0703 35.9281 53.0703 35.8837 53.1996L34.3104 57.7598C34.2904 57.8194 34.2482 57.8493 34.1838 57.8493H33.3574C33.293 57.8493 33.2508 57.8194 33.2308 57.7598L30.9491 51.2187C30.9191 51.1307 30.9505 51.0866 31.0436 51.0866H32.0738C32.154 51.0866 32.2062 51.1243 32.2305 51.1995L33.7438 55.9174C33.7474 55.9272 33.754 55.9356 33.7626 55.9416C33.7713 55.9475 33.7815 55.9507 33.7921 55.9507C33.8026 55.9507 33.8128 55.9475 33.8215 55.9416C33.8301 55.9356 33.8367 55.9272 33.8403 55.9174Z" fill="white"/>
<path d="M76.273 56.1985H73.15C73.1335 56.1988 73.1175 56.2038 73.1038 56.2128C73.0901 56.2219 73.0793 56.2347 73.0727 56.2497L72.4309 57.7449C72.4243 57.7599 72.4136 57.7727 72.3999 57.7817C72.3862 57.7908 72.3701 57.7957 72.3537 57.796H71.3277C71.3134 57.7961 71.2992 57.7927 71.2866 57.786C71.274 57.7794 71.2632 57.7696 71.2553 57.7578C71.2474 57.7459 71.2426 57.7323 71.2414 57.7182C71.2402 57.704 71.2425 57.6898 71.2483 57.6767L74.1438 51.0952C74.1504 51.0802 74.1611 51.0674 74.1748 51.0583C74.1886 51.0493 74.2046 51.0443 74.221 51.044L75.2148 51.027C75.232 51.0264 75.249 51.031 75.2635 51.0401C75.2781 51.0492 75.2895 51.0625 75.2964 51.0781L78.2027 57.6746C78.2084 57.6876 78.2108 57.7019 78.2095 57.716C78.2083 57.7302 78.2035 57.7438 78.1956 57.7557C78.1877 57.7675 78.177 57.7772 78.1643 57.7839C78.1517 57.7906 78.1376 57.794 78.1233 57.7939L77.0436 57.7982C77.0265 57.7981 77.0099 57.793 76.9957 57.7835C76.9816 57.7741 76.9706 57.7606 76.9642 57.7449L76.3525 56.2518C76.346 56.2361 76.3351 56.2226 76.3209 56.2132C76.3068 56.2037 76.2901 56.1986 76.273 56.1985ZM73.5814 55.0377C73.5768 55.0481 73.5748 55.0594 73.5757 55.0707C73.5766 55.0819 73.5803 55.0928 73.5864 55.1023C73.5926 55.1118 73.6011 55.1197 73.6111 55.1251C73.6211 55.1306 73.6323 55.1335 73.6437 55.1336H75.7729C75.7843 55.1335 75.7955 55.1306 75.8055 55.1251C75.8155 55.1197 75.824 55.1118 75.8301 55.1023C75.8363 55.0928 75.84 55.0819 75.8409 55.0707C75.8418 55.0594 75.8398 55.0481 75.8352 55.0377L74.7705 52.5819C74.765 52.5701 74.7562 52.5602 74.7452 52.5532C74.7342 52.5462 74.7214 52.5425 74.7083 52.5425C74.6952 52.5425 74.6824 52.5462 74.6714 52.5532C74.6604 52.5602 74.6516 52.5701 74.646 52.5819L73.5814 55.0377Z" fill="white"/>
<path d="M17.0232 51.0781C19.6461 51.1143 20.2514 54.2219 17.8582 55.2252C17.8441 55.231 17.8315 55.2399 17.8214 55.2512C17.8113 55.2625 17.8039 55.2759 17.7998 55.2905C17.7957 55.305 17.7949 55.3203 17.7976 55.3352C17.8002 55.3501 17.8063 55.3642 17.8152 55.3764L19.4551 57.6384C19.5309 57.7435 19.5045 57.796 19.3757 57.796H18.2832C18.2474 57.796 18.2122 57.7875 18.1804 57.7712C18.1487 57.7549 18.1213 57.7313 18.1007 57.7023C17.5913 56.9838 17.0797 56.2667 16.566 55.551C16.5442 55.5207 16.5155 55.496 16.4822 55.479C16.449 55.462 16.4122 55.4531 16.375 55.4531H15.1236C15.0335 55.4531 14.9884 55.4978 14.9884 55.5873V57.664C14.9884 57.6964 14.9756 57.7275 14.9527 57.7506C14.9298 57.7737 14.8987 57.7869 14.866 57.7875L13.9173 57.8003C13.8444 57.8017 13.8079 57.7655 13.8079 57.6917V51.2421C13.8079 51.1498 13.8537 51.1023 13.9452 51.0994C14.9898 51.0724 16.0158 51.0653 17.0232 51.0781ZM14.9884 52.2006V54.3391C14.9884 54.3527 14.9938 54.3657 15.0035 54.3752C15.0131 54.3848 15.0262 54.3902 15.0399 54.3902H16.8901C17.2249 54.3902 17.5459 54.274 17.7826 54.0671C18.0192 53.8601 18.1522 53.5795 18.1522 53.2869V53.2528C18.1522 52.9602 18.0192 52.6796 17.7826 52.4726C17.5459 52.2657 17.2249 52.1495 16.8901 52.1495H15.0399C15.0262 52.1495 15.0131 52.1549 15.0035 52.1645C14.9938 52.1741 14.9884 52.1871 14.9884 52.2006Z" fill="white"/>
<path d="M46.5408 52.256V57.6917C46.5408 57.7193 46.5297 57.7459 46.51 57.7655C46.4902 57.785 46.4635 57.796 46.4356 57.796H45.4118C45.3979 57.796 45.3843 57.7933 45.3715 57.7881C45.3587 57.7828 45.3472 57.7751 45.3374 57.7655C45.3276 57.7558 45.3199 57.7443 45.3146 57.7316C45.3093 57.7189 45.3066 57.7054 45.3066 57.6917V52.256C45.3066 52.2283 45.2955 52.2018 45.2758 52.1822C45.256 52.1626 45.2293 52.1516 45.2014 52.1516H43.2653C43.2515 52.1516 43.2378 52.1489 43.2251 52.1437C43.2123 52.1384 43.2007 52.1307 43.191 52.1211C43.1812 52.1114 43.1734 52.0999 43.1682 52.0872C43.1629 52.0745 43.1602 52.061 43.1602 52.0473V51.191C43.1602 51.1633 43.1712 51.1368 43.191 51.1172C43.2107 51.0976 43.2374 51.0866 43.2653 51.0866H48.582C48.6099 51.0866 48.6367 51.0976 48.6564 51.1172C48.6761 51.1368 48.6872 51.1633 48.6872 51.191V52.0473C48.6872 52.061 48.6845 52.0745 48.6792 52.0872C48.6739 52.0999 48.6662 52.1114 48.6564 52.1211C48.6466 52.1307 48.635 52.1384 48.6223 52.1437C48.6095 52.1489 48.5958 52.1516 48.582 52.1516H46.6459C46.6181 52.1516 46.5913 52.1626 46.5716 52.1822C46.5519 52.2018 46.5408 52.2283 46.5408 52.256Z" fill="white"/>
<path d="M52.6495 53.8556H55.7253C55.7515 53.8556 55.7766 53.8453 55.7951 53.8269C55.8137 53.8085 55.8241 53.7836 55.8241 53.7576V51.1846C55.8241 51.1586 55.8345 51.1337 55.853 51.1153C55.8715 51.097 55.8966 51.0866 55.9228 51.0866H56.9059C56.9321 51.0866 56.9572 51.097 56.9757 51.1153C56.9942 51.1337 57.0046 51.1586 57.0046 51.1846V57.698C57.0046 57.724 56.9942 57.749 56.9757 57.7673C56.9572 57.7857 56.9321 57.796 56.9059 57.796H55.9228C55.8966 57.796 55.8715 57.7857 55.853 57.7673C55.8345 57.749 55.8241 57.724 55.8241 57.698V55.0718C55.8241 55.0458 55.8137 55.0209 55.7951 55.0025C55.7766 54.9841 55.7515 54.9738 55.7253 54.9738H52.6495C52.6233 54.9738 52.5982 54.9841 52.5797 55.0025C52.5612 55.0209 52.5508 55.0458 52.5508 55.0718V57.698C52.5508 57.724 52.5404 57.749 52.5219 57.7673C52.5033 57.7857 52.4782 57.796 52.452 57.796H51.469C51.456 57.796 51.4432 57.7935 51.4312 57.7886C51.4192 57.7836 51.4083 57.7764 51.3992 57.7673C51.39 57.7582 51.3827 57.7474 51.3778 57.7355C51.3728 57.7237 51.3702 57.7109 51.3702 57.698V51.1846C51.3702 51.1718 51.3728 51.159 51.3778 51.1471C51.3827 51.1352 51.39 51.1244 51.3992 51.1153C51.4083 51.1062 51.4192 51.099 51.4312 51.0941C51.4432 51.0892 51.456 51.0866 51.469 51.0866H52.452C52.4782 51.0866 52.5033 51.097 52.5219 51.1153C52.5404 51.1337 52.5508 51.1586 52.5508 51.1846V53.7576C52.5508 53.7836 52.5612 53.8085 52.5797 53.8269C52.5982 53.8453 52.6233 53.8556 52.6495 53.8556Z" fill="white"/>
<path d="M65.8585 55.7193V57.664C65.8585 57.752 65.8134 57.796 65.7233 57.796H64.8111C64.7223 57.796 64.678 57.7513 64.678 57.6618V51.2442C64.678 51.1619 64.7195 51.1186 64.8025 51.1143C66.3937 51.0462 67.4011 51.044 67.8246 51.1079C70.5892 51.5211 70.6579 54.9972 68.0006 55.5574C67.7202 55.6171 67.0455 55.6327 65.9766 55.6043C65.8979 55.6029 65.8585 55.6412 65.8585 55.7193ZM65.8542 52.2049L65.8585 54.4967C65.8585 54.5114 65.8644 54.5255 65.8749 54.5359C65.8853 54.5462 65.8995 54.5521 65.9143 54.5521L67.3954 54.55C67.7448 54.5493 68.0798 54.4287 68.3265 54.2146C68.5733 54.0005 68.7116 53.7105 68.7111 53.4083V53.2848C68.7109 53.1351 68.6765 52.9869 68.6101 52.8488C68.5436 52.7106 68.4463 52.5851 68.3237 52.4795C68.2011 52.3739 68.0557 52.2902 67.8956 52.2332C67.7356 52.1762 67.5642 52.147 67.3911 52.1474L65.91 52.1495C65.8952 52.1495 65.881 52.1553 65.8706 52.1657C65.8601 52.1761 65.8542 52.1902 65.8542 52.2049Z" fill="white"/>
<path d="M83.5666 55.4531H82.3066C82.2165 55.4531 82.1714 55.4971 82.1714 55.5851V57.6618C82.1714 57.7513 82.1263 57.796 82.0362 57.796H81.1239C81.0352 57.796 80.9908 57.7513 80.9908 57.6618V51.24C80.9908 51.1491 81.0373 51.1023 81.1304 51.0994C82.2093 51.0696 83.2696 51.0703 84.3114 51.1016C86.8441 51.1761 87.4215 54.2837 85.0068 55.2273C84.9958 55.2317 84.986 55.2385 84.978 55.2471C84.97 55.2558 84.9641 55.2661 84.9608 55.2772C84.9575 55.2883 84.9568 55.3 84.9588 55.3113C84.9609 55.3225 84.9655 55.3332 84.9725 55.3423L86.6381 57.6384C86.7154 57.7435 86.6889 57.796 86.5587 57.796H85.4618C85.3874 57.796 85.3288 57.7655 85.2858 57.7044C84.7736 56.9817 84.2591 56.261 83.7426 55.5425C83.7227 55.5148 83.6963 55.4923 83.6657 55.4767C83.6351 55.4612 83.6011 55.453 83.5666 55.4531ZM82.1714 52.2006V54.3391C82.1714 54.3527 82.1768 54.3657 82.1865 54.3752C82.1961 54.3848 82.2092 54.3902 82.2229 54.3902H84.0731C84.4078 54.3902 84.7289 54.274 84.9655 54.0671C85.2022 53.8601 85.3352 53.5795 85.3352 53.2869V53.2528C85.3352 52.9602 85.2022 52.6796 84.9655 52.4726C84.7289 52.2657 84.4078 52.1495 84.0731 52.1495H82.2229C82.2092 52.1495 82.1961 52.1549 82.1865 52.1645C82.1768 52.174 82.1714 52.1871 82.1714 52.2006Z" fill="white"/>
<path d="M90.9309 52.1516H88.9733C88.9483 52.1516 88.9243 52.1417 88.9066 52.1242C88.8889 52.1066 88.8789 52.0828 88.8789 52.0579V51.1804C88.8789 51.1555 88.8889 51.1317 88.9066 51.1141C88.9243 51.0965 88.9483 51.0866 88.9733 51.0866H94.3115C94.3365 51.0866 94.3606 51.0965 94.3783 51.1141C94.396 51.1317 94.4059 51.1555 94.4059 51.1804V52.0579C94.4059 52.0828 94.396 52.1066 94.3783 52.1242C94.3606 52.1417 94.3365 52.1516 94.3115 52.1516H92.354C92.3289 52.1516 92.3049 52.1615 92.2872 52.1791C92.2695 52.1966 92.2595 52.2205 92.2595 52.2453V57.6938C92.2595 57.7183 92.2499 57.7418 92.2326 57.7593C92.2154 57.7768 92.1919 57.7869 92.1672 57.7875L91.1219 57.7982C91.1093 57.7984 91.0968 57.7962 91.0851 57.7916C91.0734 57.7871 91.0627 57.7802 91.0537 57.7715C91.0447 57.7627 91.0376 57.7523 91.0327 57.7408C91.0278 57.7293 91.0253 57.7169 91.0253 57.7044V52.2453C91.0253 52.2205 91.0154 52.1966 90.9977 52.1791C90.98 52.1615 90.9559 52.1516 90.9309 52.1516Z" fill="white"/>
<path d="M101.884 51.0866H102.919C102.938 51.0866 102.957 51.0943 102.97 51.1079C102.984 51.1214 102.992 51.1399 102.992 51.1591V57.713C102.992 57.7318 102.984 57.7499 102.971 57.7634C102.958 57.777 102.94 57.7848 102.921 57.7854L102.047 57.8024C102.036 57.8023 102.025 57.7995 102.015 57.7943C102.005 57.7891 101.996 57.7817 101.989 57.7726L98.4005 53.1804C98.3913 53.1685 98.3785 53.1597 98.3641 53.1552C98.3496 53.1508 98.3341 53.1509 98.3197 53.1556C98.3054 53.1603 98.2928 53.1693 98.2838 53.1813C98.2748 53.1934 98.2698 53.208 98.2695 53.223V57.713C98.2695 57.7322 98.2618 57.7506 98.2481 57.7642C98.2345 57.7777 98.2159 57.7854 98.1965 57.7854L97.162 57.8003C97.143 57.8003 97.1247 57.793 97.1111 57.7798C97.0975 57.7667 97.0895 57.7488 97.089 57.73V51.1591C97.089 51.1399 97.0967 51.1214 97.1104 51.1079C97.124 51.0943 97.1426 51.0866 97.162 51.0866H98.1751C98.1862 51.0866 98.1972 51.089 98.2073 51.0938C98.2173 51.0986 98.2261 51.1056 98.233 51.1143L101.68 55.534C101.689 55.5459 101.702 55.5547 101.717 55.5592C101.731 55.5636 101.747 55.5635 101.761 55.5588C101.775 55.5541 101.788 55.5451 101.797 55.5331C101.806 55.521 101.811 55.5064 101.811 55.4914V51.1591C101.811 51.1399 101.819 51.1214 101.832 51.1079C101.846 51.0943 101.865 51.0866 101.884 51.0866Z" fill="white"/>
<path d="M107.358 53.8556H110.646C110.665 53.8556 110.684 53.8632 110.697 53.8768C110.711 53.8904 110.719 53.9088 110.719 53.928V54.8482C110.719 54.8674 110.711 54.8858 110.697 54.8994C110.684 54.9129 110.665 54.9206 110.646 54.9206H107.358C107.338 54.9206 107.32 54.9282 107.306 54.9418C107.292 54.9554 107.285 54.9738 107.285 54.993V56.6586C107.285 56.6778 107.292 56.6963 107.306 56.7098C107.32 56.7234 107.338 56.731 107.358 56.731H111.129C111.148 56.731 111.167 56.7387 111.18 56.7523C111.194 56.7658 111.202 56.7843 111.202 56.8035V57.7236C111.202 57.7428 111.194 57.7612 111.18 57.7748C111.167 57.7884 111.148 57.796 111.129 57.796H106.177C106.158 57.796 106.139 57.7884 106.125 57.7748C106.112 57.7612 106.104 57.7428 106.104 57.7236V51.1591C106.104 51.1399 106.112 51.1214 106.125 51.1078C106.139 51.0943 106.158 51.0866 106.177 51.0866H111.075C111.094 51.0866 111.113 51.0943 111.127 51.1078C111.14 51.1214 111.148 51.1399 111.148 51.1591V52.0792C111.148 52.0984 111.14 52.1168 111.127 52.1304C111.113 52.144 111.094 52.1516 111.075 52.1516H107.358C107.338 52.1516 107.32 52.1593 107.306 52.1728C107.292 52.1864 107.285 52.2048 107.285 52.224V53.7832C107.285 53.8024 107.292 53.8208 107.306 53.8344C107.32 53.848 107.338 53.8556 107.358 53.8556Z" fill="white"/>
<path d="M116.624 55.4531H115.362C115.271 55.4531 115.226 55.4978 115.226 55.5873V57.6618C115.226 57.7513 115.181 57.796 115.091 57.796H114.179C114.09 57.796 114.046 57.7513 114.046 57.6618V51.24C114.046 51.2034 114.06 51.1683 114.086 51.1421C114.112 51.1158 114.148 51.1005 114.185 51.0994C115.264 51.0696 116.325 51.0703 117.366 51.1016C119.888 51.1782 120.476 54.2645 118.09 55.2145C118.075 55.2203 118.063 55.2293 118.052 55.2407C118.042 55.2521 118.034 55.2657 118.03 55.2804C118.026 55.2952 118.025 55.3107 118.027 55.3258C118.03 55.3409 118.036 55.3553 118.045 55.3679L119.706 57.6533C119.775 57.7485 119.75 57.796 119.633 57.796H118.515C118.442 57.796 118.384 57.7669 118.343 57.7087L116.802 55.5447C116.782 55.5164 116.755 55.4933 116.724 55.4774C116.693 55.4615 116.659 55.4531 116.624 55.4531ZM115.224 52.2134L115.228 54.3306C115.228 54.3387 115.23 54.3467 115.233 54.3542C115.236 54.3617 115.241 54.3685 115.247 54.3743C115.252 54.38 115.259 54.3845 115.267 54.3876C115.274 54.3907 115.283 54.3923 115.291 54.3923L117.119 54.3902C117.457 54.3896 117.78 54.2728 118.019 54.0655C118.257 53.8582 118.391 53.5773 118.39 53.2848V53.2507C118.39 53.1058 118.357 52.9623 118.293 52.8286C118.228 52.6948 118.134 52.5733 118.016 52.4711C117.898 52.3688 117.757 52.2878 117.602 52.2326C117.448 52.1774 117.282 52.1492 117.115 52.1495L115.286 52.1516C115.27 52.1516 115.254 52.1581 115.242 52.1697C115.231 52.1813 115.224 52.197 115.224 52.2134Z" fill="white"/>
</g>
<defs>
<clipPath id="clip0_425_2113">
<rect width="129" height="59" fill="white" transform="translate(0.5 0.5)"/>
</clipPath>
</defs>
</svg>
