<svg width="64" height="64" viewBox="0 0 64 64" fill="none" xmlns="http://www.w3.org/2000/svg">
<g clip-path="url(#clip0_1024_1930)">
<path d="M32 64C49.6731 64 64 49.6731 64 32C64 14.3269 49.6731 0 32 0C14.3269 0 0 14.3269 0 32C0 49.6731 14.3269 64 32 64Z" fill="url(#paint0_linear_1024_1930)"/>
<path d="M31.875 13C21.4681 13 13 21.467 13 31.875C13 42.2829 21.4681 50.75 31.875 50.75C42.2819 50.75 50.75 42.2829 50.75 31.875C50.75 21.467 42.2819 13 31.875 13ZM20.772 32.9852H18.5514C17.9376 32.9852 17.4411 32.4886 17.4411 31.875C17.4411 31.2614 17.9377 30.7647 18.5514 30.7647H20.772C21.3857 30.7647 21.8822 31.2614 21.8822 31.875C21.8822 32.4886 21.3857 32.9852 20.772 32.9852ZM32.9852 45.1985C32.9852 45.8123 32.4886 46.3088 31.875 46.3088C31.2614 46.3088 30.7647 45.8121 30.7647 45.1985V42.9779C30.7647 42.3643 31.2614 41.8676 31.875 41.8676C32.4886 41.8676 32.9852 42.3643 32.9852 42.9779V45.1985ZM32.9852 31.875C32.9852 32.1699 32.8681 32.4519 32.66 32.66L24.812 40.5069C24.3783 40.9405 23.6758 40.9406 23.242 40.5069C22.8083 40.0731 22.8083 39.3705 23.242 38.9369L30.7646 31.4153V18.5515C30.7646 17.9378 31.2612 17.4412 31.8749 17.4412C32.4885 17.4412 32.9851 17.9379 32.9851 18.5515L32.9852 31.875ZM45.1985 32.9852H42.9779C42.3641 32.9852 41.8676 32.4886 41.8676 31.875C41.8676 31.2614 42.3643 30.7647 42.9779 30.7647H45.1985C45.8123 30.7647 46.3088 31.2614 46.3088 31.875C46.3088 32.4886 45.8123 32.9852 45.1985 32.9852Z" fill="url(#paint1_linear_1024_1930)"/>
</g>
<defs>
<linearGradient id="paint0_linear_1024_1930" x1="32" y1="64" x2="32" y2="0" gradientUnits="userSpaceOnUse">
<stop stop-color="#FFBEF9"/>
<stop offset="1" stop-color="#FFF1FF"/>
</linearGradient>
<linearGradient id="paint1_linear_1024_1930" x1="31.875" y1="50.75" x2="31.875" y2="13" gradientUnits="userSpaceOnUse">
<stop stop-color="#FF81FF"/>
<stop offset="1" stop-color="#A93AFF"/>
</linearGradient>
<clipPath id="clip0_1024_1930">
<rect width="64" height="64" fill="white"/>
</clipPath>
</defs>
</svg>
