<svg width="194" height="32" viewBox="0 0 194 32" fill="none" xmlns="http://www.w3.org/2000/svg">
<path d="M91.005 0.51828H97.4338V31.0431C97.4338 31.1097 97.4004 31.1431 97.3338 31.1431H91.3761C91.312 31.1431 91.28 31.111 91.28 31.0469V28.7411C91.28 28.654 91.2505 28.6424 91.1915 28.7065C89.9428 30.0629 88.4063 30.9136 86.5819 31.2584C80.8743 32.3373 75.4666 29.4508 73.8051 23.8046C72.3493 18.8681 73.7589 12.8374 78.532 10.124C82.3512 7.95284 87.5819 7.93746 90.8954 11.1297C90.9543 11.1874 90.9838 11.1746 90.9838 11.0913L91.005 0.51828ZM85.0204 13.9047C78.8512 14.3163 77.9397 23.4354 83.0685 25.7008C85.1723 26.6296 87.7204 26.2489 89.355 24.6489C90.8511 23.1873 91.2415 21.2297 91.055 19.1605C90.7684 15.9701 88.3242 13.6836 85.0204 13.9047Z" fill="white"/>
<path d="M103.395 0.51828H109.783V31.0488C109.783 31.1116 109.752 31.1431 109.689 31.1431H103.495C103.429 31.1431 103.397 31.1104 103.397 31.045L103.395 0.51828Z" fill="white"/>
<path d="M158.016 0.51828H164.44L164.444 9.05091C164.444 9.12014 164.42 9.17976 164.371 9.22975L151.604 21.997C151.555 22.0444 151.507 22.0444 151.458 21.997C149.85 20.4367 148.554 19.1457 147.569 18.1239C145.652 16.1316 142.787 18.7547 144.912 20.9008C146.603 22.6072 148.303 24.304 150.012 25.9912C151.067 27.0335 152.1 26.9239 153.108 25.92C156.855 22.1829 160.598 18.4585 164.335 14.747C164.413 14.6688 164.452 14.6848 164.452 14.7951V31.0469C164.452 31.111 164.42 31.1431 164.356 31.1431H158.414C158.362 31.1431 158.337 31.1174 158.337 31.0661L158.35 28.7565C158.35 28.7402 158.345 28.7244 158.336 28.711C158.327 28.6976 158.314 28.6873 158.298 28.6815C158.283 28.6757 158.266 28.6746 158.25 28.6784C158.234 28.6822 158.219 28.6906 158.208 28.7027C155.971 31.2142 152.817 31.7604 149.606 31.3488C141.087 30.2565 138.152 20.6662 141.823 13.847C144.733 8.44514 153.4 6.57977 157.902 11.1432C157.97 11.2124 158.004 11.1983 158.004 11.1009L158.016 0.51828Z" fill="white"/>
<path d="M0.846924 14.372V9.44702L4.03536 9.45856C4.21485 9.45856 4.30459 9.36818 4.30459 9.18741L4.27959 4.13937C4.27959 4.10979 4.29114 4.08142 4.3117 4.0605C4.33225 4.03958 4.36013 4.02783 4.38921 4.02783H10.6065C10.6706 4.02783 10.7026 4.05988 10.7026 4.12399V9.31626C10.7026 9.35451 10.7178 9.39119 10.7449 9.41824C10.7719 9.44529 10.8086 9.46048 10.8469 9.46048H16.1353C16.1994 9.46048 16.2314 9.49254 16.2314 9.55664V14.2758C16.2314 14.3451 16.1968 14.3797 16.1276 14.3797L10.7892 14.3912C10.7379 14.3912 10.7122 14.4169 10.7122 14.4681C10.6904 18.6258 10.6911 21.6668 10.7142 23.5912C10.7488 26.6892 13.9526 26.8969 15.991 25.6161C16.0564 25.5751 16.1032 25.5911 16.1314 25.6642L17.766 29.9834C17.7738 30.0043 17.7746 30.0271 17.7684 30.0483C17.7621 30.0695 17.7491 30.0879 17.7314 30.1007C16.0507 31.2873 13.7199 31.5565 11.7468 31.4411C8.39302 31.2411 5.55458 29.6969 4.62574 26.3104C4.42574 25.5796 4.3219 24.3911 4.31421 22.745C4.30267 19.9925 4.30203 17.2482 4.31228 14.5124C4.31254 14.4955 4.30944 14.4788 4.30318 14.4632C4.29692 14.4476 4.28761 14.4334 4.2758 14.4214C4.26398 14.4094 4.24991 14.3999 4.23438 14.3934C4.21885 14.3869 4.20219 14.3835 4.18536 14.3835L0.846924 14.372Z" fill="white"/>
<path d="M120.632 21.9606C121.288 24.2311 122.784 25.6138 125.12 26.1086C127.888 26.6958 130.37 26.0715 132.566 24.2356C132.574 24.2294 132.583 24.2263 132.593 24.227C132.602 24.2277 132.612 24.2322 132.618 24.2394L135.886 27.7894C135.941 27.8497 135.941 27.9099 135.886 27.9702C134.397 29.5689 132.525 30.6086 130.27 31.0894C124.213 32.3836 117.249 30.324 114.884 24.2221C113.147 19.7433 114.455 14.3491 118.161 11.2818C121.288 8.69531 125.79 8.01839 129.643 9.12607C135.297 10.7511 138.245 16.0914 137.388 21.7779C137.379 21.8356 137.345 21.8644 137.286 21.8644H120.705C120.638 21.8644 120.614 21.8965 120.632 21.9606ZM131.453 17.9664C130.353 11.9395 121.434 12.0011 120.563 18.0087C120.562 18.0164 120.562 18.0242 120.564 18.0317C120.567 18.0391 120.57 18.046 120.575 18.0519C120.581 18.0577 120.587 18.0624 120.594 18.0655C120.601 18.0687 120.609 18.0703 120.617 18.0702L131.372 18.0645C131.439 18.0645 131.466 18.0318 131.453 17.9664Z" fill="white"/>
<path d="M39.6195 11.4569C44.881 15.955 44.7213 24.6645 39.3137 28.8684C34.2272 32.8222 25.5792 32.2895 21.4773 27.0741C17.5792 22.1165 18.5504 14.3165 23.8946 10.757C28.383 7.76466 35.4099 7.85889 39.6195 11.4569ZM35.1368 15.3627C33.3291 13.7012 30.7638 13.4358 28.6195 14.5454C26.1292 15.8319 25.2696 18.7165 25.7215 21.3973C26.8138 27.8722 36.0676 27.8011 36.8791 21.153C37.1349 19.053 36.7406 16.8338 35.1368 15.3627Z" fill="white"/>
<path d="M49.8285 28.4581C45.5651 24.6832 45.0112 18.1351 48.092 13.5294C51.9977 7.69291 61.8457 7.05445 66.9264 11.691C70.5187 14.9698 71.411 20.2794 69.5399 24.7409C66.4553 32.0985 55.5765 33.5485 49.8285 28.4581ZM63.9361 20.9697C65.0572 11.5756 51.6285 11.5294 52.7208 20.9563C53.5323 27.9639 63.0995 27.962 63.9361 20.9697Z" fill="white"/>
<path d="M193.153 19.6777V20.5181C192.802 24.9706 190.811 28.1328 187.18 30.0046C183.834 31.7315 179.593 31.9238 176.099 30.6084C170.472 28.493 167.622 22.7546 169.157 16.9989C171.238 9.20086 180.38 6.78741 187.015 9.99701C190.813 11.8335 192.953 15.4335 193.153 19.6777ZM180.543 13.8931C173.224 14.3989 173.561 26.443 181.172 26.1815C188.79 25.9219 188.341 13.3547 180.543 13.8931Z" fill="white"/>
</svg>
