<svg width="83" height="51" viewBox="0 0 83 51" fill="none" xmlns="http://www.w3.org/2000/svg">
<g clip-path="url(#clip0_2611_4532)">
<path d="M19.62 13.851H35.2437V15.0929H21.0522V24.439H34.3976V25.6807H21.0522V35.9419H35.4065V37.1836H19.62V13.851ZM36.6435 13.851H38.3035L45.6596 24.1121L53.1784 13.8508L63.4053 0.817017L46.6035 25.1906L55.2617 37.1836H53.5365L45.6596 26.269L37.75 37.1836H36.0575L44.7808 25.1905L36.6435 13.851ZM55.88 15.0929V13.8508H73.6846V15.0927H65.4821V37.1835H64.0499V15.0929H55.88ZM0.0742188 13.8508H1.86442L26.5503 50.7911L16.349 37.1835L1.57142 15.6156L1.50638 37.1838H0.0742188L0.0742188 13.8508ZM73.5403 35.5669C73.2477 35.5669 73.0283 35.3403 73.0283 35.0472C73.0283 34.7543 73.2477 34.5275 73.5403 34.5275C73.8364 34.5275 74.0524 34.7542 74.0524 35.0472C74.0524 35.3402 73.8364 35.5669 73.5403 35.5669ZM74.9476 34.1997H75.714C75.7243 34.6147 76.0274 34.8938 76.4733 34.8938C76.9714 34.8938 77.2536 34.5938 77.2536 34.0323V30.4745H78.0339V34.0357C78.0339 35.0472 77.4487 35.6298 76.4802 35.6298C75.5709 35.6298 74.9476 35.0647 74.9476 34.1996V34.1997ZM79.0544 34.1544H79.8278C79.894 34.6322 80.3607 34.9356 81.0331 34.9356C81.6601 34.9356 82.1199 34.6112 82.1199 34.1648C82.1199 33.7812 81.8272 33.551 81.1619 33.394L80.5139 33.2371C79.6047 33.0242 79.1903 32.5847 79.1903 31.8454C79.1903 30.9491 79.9218 30.3525 81.0191 30.3525C82.0396 30.3525 82.7851 30.9489 82.8305 31.7965H82.071C81.9979 31.3327 81.5937 31.0431 81.0085 31.0431C80.3921 31.0431 79.9812 31.3396 79.9812 31.7929C79.9812 32.1521 80.2457 32.3581 80.9006 32.5115L81.4544 32.6475C82.4855 32.8883 82.9105 33.3068 82.9105 34.0637C82.9105 35.0263 82.1652 35.6298 80.9739 35.6298C79.8592 35.6298 79.1101 35.0541 79.0544 34.1543V34.1544Z" fill="white"/>
</g>
<defs>
<clipPath id="clip0_2611_4532">
<rect width="82.8363" height="50" fill="white" transform="translate(0.0742188 0.804077)"/>
</clipPath>
</defs>
</svg>
