<svg width="51" height="51" viewBox="0 0 51 51" fill="none" xmlns="http://www.w3.org/2000/svg">
<g clip-path="url(#clip0_2611_4536)">
<path d="M13.7647 7.70331C13.7647 4.33824 14.6876 2.50762 19.7834 1.63591C23.2431 1.04307 27.6789 0.96897 31.8167 1.63591C35.0848 2.16328 37.8355 4.54326 37.8355 7.70331V18.8054C37.8355 22.0615 35.1649 24.7288 31.8167 24.7288H19.7834C15.6995 24.7288 12.2576 28.1331 12.2576 31.9818V37.3084H8.12007C4.62027 37.3084 2.5826 34.8413 1.7266 31.389C0.571965 26.7511 0.620981 23.9877 1.7266 19.5459C2.68518 15.671 5.74814 13.6265 9.24819 13.6265H25.8022V12.1444H13.7644V7.70307L13.7647 7.70331Z" fill="url(#paint0_linear_2611_4536)"/>
<path d="M37.8364 43.2321C37.8364 46.5972 34.8493 48.3015 31.8177 49.1515C27.2567 50.433 23.5962 50.2369 19.7844 49.1515C16.6009 48.245 13.7656 46.3924 13.7656 43.2321V32.13C13.7656 28.9349 16.4898 26.2066 19.7844 26.2066H31.8177C35.8258 26.2066 39.3435 22.8201 39.3435 18.8054V13.627H43.8555C47.3598 13.627 49.0097 16.1724 49.8742 19.5464C51.0779 24.2323 51.1315 27.7366 49.8742 31.3895C48.6572 34.9376 47.3553 37.3089 43.8555 37.3089H25.8032V38.791H37.8364V43.2321Z" fill="url(#paint1_linear_2611_4536)"/>
<path d="M16.7734 6.96666C16.7734 5.73751 17.781 4.74353 19.0297 4.74353C20.2735 4.74353 21.2859 5.73727 21.2859 6.96666C21.2859 8.19185 20.2737 9.18534 19.0297 9.18534C17.7815 9.18534 16.7734 8.1916 16.7734 6.96666ZM30.3133 43.9689C30.3133 42.7437 31.3254 41.7502 32.5695 41.7502C33.8176 41.7502 34.8257 42.7439 34.8257 43.9689C34.8257 45.198 33.8181 46.192 32.5695 46.192C31.3257 46.192 30.3133 45.1982 30.3133 43.9689Z" fill="white"/>
</g>
<defs>
<linearGradient id="paint0_linear_2611_4536" x1="37.8357" y1="15.2145" x2="0.879302" y2="14.914" gradientUnits="userSpaceOnUse">
<stop stop-color="#366A96"/>
<stop offset="1" stop-color="#3679B0"/>
</linearGradient>
<linearGradient id="paint1_linear_2611_4536" x1="50.797" y1="31.8339" x2="-22.3592" y2="31.8339" gradientUnits="userSpaceOnUse">
<stop stop-color="#FFC836"/>
<stop offset="1" stop-color="#FFE873"/>
</linearGradient>
<clipPath id="clip0_2611_4536">
<rect width="50" height="50" fill="white" transform="translate(0.824219 0.804077)"/>
</clipPath>
</defs>
</svg>
