<svg width="69" height="51" viewBox="0 0 69 51" fill="none" xmlns="http://www.w3.org/2000/svg">
<g clip-path="url(#clip0_2611_4560)">
<path d="M46.0911 45.5631C46.0911 48.2923 43.8786 50.5048 41.1495 50.5048C41.1474 50.5048 41.1474 50.5048 41.1453 50.5048C41.1245 50.5048 41.0995 50.5048 41.0766 50.5048C39.7286 50.5048 38.5078 49.9506 37.6328 49.0568C36.7307 48.1923 36.1682 46.9777 36.1682 45.6298C36.1682 45.6048 36.1682 45.5777 36.1682 45.5527V45.5568C36.1807 42.8131 38.4016 40.5943 41.1432 40.5798H41.1453H41.2182C42.5641 40.5798 43.7807 41.1402 44.6432 42.0423L44.6453 42.0443C45.537 42.9193 46.0911 44.1381 46.0911 45.4839V45.5631ZM23.5036 45.5589V45.6318C23.5036 46.9777 22.9432 48.1943 22.0411 49.0568L22.0391 49.0589C21.1641 49.9506 19.9453 50.5048 18.5995 50.5048C18.5745 50.5048 18.5474 50.5048 18.5224 50.5048H18.5266C18.5266 50.5048 18.5245 50.5048 18.5224 50.5048C15.7932 50.5048 13.5807 48.2923 13.5807 45.5631C13.5807 45.561 13.5807 45.561 13.5807 45.5589C13.5807 45.5381 13.5807 45.5131 13.5807 45.4902C13.5807 44.1423 14.1349 42.9214 15.0286 42.0464C15.8932 41.1443 17.1078 40.5818 18.4557 40.5818H18.5328H18.5286C21.2724 40.5943 23.4911 42.8152 23.5057 45.5568L23.5036 45.5589ZM0.132812 0.504761C1.17656 1.61309 2.26406 2.64226 3.40781 3.60893L3.46615 3.65684C4.5349 4.54434 5.72865 5.36309 6.99531 6.06934L7.11615 6.13184C8.2599 6.78601 9.6099 7.42559 11.012 7.96309L11.2182 8.03184C12.5995 8.54851 14.2766 9.02143 15.9995 9.36726L16.2182 9.40476C18.178 9.80754 20.1884 10.1242 22.2495 10.3548C24.3106 10.5853 26.8238 10.7714 29.7891 10.9131C32.7543 11.0548 35.8099 11.1506 38.9557 11.2006C42.1016 11.2506 45.846 11.2756 50.1891 11.2756C52.9835 11.2756 55.4411 11.3256 57.562 11.4256C59.5786 11.5089 61.462 11.6881 63.3141 11.961L63.0203 11.9256C64.4432 12.1256 65.7078 12.4173 66.9266 12.8048L66.7599 12.7589C67.5932 12.9943 68.3141 13.4048 68.9057 13.9527L68.9016 13.9506C69.312 14.3485 69.5807 14.8923 69.6245 15.4964V15.5048C69.6182 16.2235 69.3995 16.8923 69.0286 17.4485L69.037 17.436C68.5099 18.3068 67.9474 19.061 67.3224 19.7568L67.3349 19.7423C66.621 20.5561 65.7217 21.4714 64.637 22.4881C63.5523 23.5048 62.3856 24.5555 61.137 25.6402C59.8884 26.7249 58.4911 27.9207 56.9453 29.2277C53.2259 32.3846 50.3509 34.8673 48.3203 36.6756C49.0557 35.4277 49.8203 34.3506 50.6661 33.3464L50.637 33.3839C51.5911 32.2186 52.5356 31.1582 53.4703 30.2027C54.405 29.2471 55.355 28.2568 56.3203 27.2318C57.2856 26.2068 58.1189 25.2867 58.8203 24.4714C59.4453 23.7673 59.9891 22.9693 60.4203 22.1068L60.4495 22.0443C60.7161 21.5693 60.8724 21.0027 60.8724 20.3985C60.8724 20.2339 60.8599 20.0735 60.8391 19.9152L60.8411 19.9339C60.6203 19.2048 60.1286 18.6173 59.4849 18.2735L59.4703 18.2673C58.4578 17.6798 57.2745 17.2464 56.0182 17.0381L55.9578 17.0298C54.187 16.6902 52.0724 16.436 49.9203 16.3256L49.8057 16.3214C47.2502 16.1603 44.1946 16.1103 40.6391 16.1714C37.2613 16.2117 34.1043 16.1513 31.1682 15.9902C28.2321 15.8291 25.6585 15.5978 23.4474 15.2964C21.0682 14.9777 18.9807 14.5464 16.9474 13.9798L17.2807 14.0589C15.3016 13.5277 13.6995 12.9943 12.137 12.3839L12.4703 12.4985C11.0495 11.9381 9.8349 11.3048 8.69323 10.5631L8.77448 10.6131C7.72865 9.95684 6.82865 9.29851 5.97656 8.58184L6.01406 8.61309C5.2724 7.95268 4.60156 7.24643 3.99531 6.48809L3.96823 6.45476C3.44948 5.83601 2.9474 5.15268 2.49115 4.43601L2.44531 4.35684C2.11198 3.80129 1.7099 3.11796 1.23906 2.30684C0.768229 1.49573 0.400174 0.897122 0.134896 0.511011L0.132812 0.504761Z" fill="#5CA1FF"/>
</g>
<defs>
<clipPath id="clip0_2611_4560">
<rect width="68.75" height="50" fill="white" transform="translate(0.132812 0.504761)"/>
</clipPath>
</defs>
</svg>
