<svg width="45" height="51" viewBox="0 0 45 51" fill="none" xmlns="http://www.w3.org/2000/svg">
<g clip-path="url(#clip0_2611_4543)">
<path d="M38.5492 10.6226C38.5148 10.3726 38.2958 10.2342 38.1148 10.219C37.9342 10.2039 34.1109 9.92055 34.1109 9.92055C34.1109 9.92055 31.4556 7.28442 31.1641 6.99264C30.8725 6.70103 30.303 6.78973 30.0819 6.85479C30.0494 6.86438 29.5018 7.03339 28.596 7.3137C27.709 4.7613 26.1436 2.41575 23.3897 2.41575C23.3136 2.41575 23.2354 2.41884 23.1571 2.42329C22.3739 1.3875 21.4037 0.9375 20.5657 0.9375C14.1504 0.9375 11.0855 8.95719 10.1246 13.0325C7.63177 13.805 5.86088 14.3541 5.63469 14.4252C4.24325 14.8616 4.19924 14.9055 4.01653 16.2166C3.87903 17.2092 0.238281 45.3649 0.238281 45.3649L28.6078 50.6803L43.9794 47.355C43.9794 47.355 38.5831 10.8726 38.5492 10.6226ZM27.028 7.79863L24.6275 8.54161C24.6283 8.37243 24.6292 8.20599 24.6292 8.02397C24.6292 6.43767 24.409 5.16045 24.0557 4.14795C25.4748 4.32603 26.4198 5.94058 27.028 7.79863ZM22.2955 4.4625C22.69 5.45103 22.9465 6.86969 22.9465 8.78407C22.9465 8.88202 22.9456 8.97157 22.9448 9.06216C21.3837 9.54572 19.6873 10.0707 17.9871 10.5974C18.9417 6.91318 20.7311 5.13373 22.2955 4.4625ZM20.3895 2.65822C20.6664 2.65822 20.9453 2.75223 21.2123 2.93596C19.1563 3.90342 16.9525 6.34007 16.0218 11.206L12.103 12.4197C13.1931 8.70822 15.7816 2.65822 20.3895 2.65822Z" fill="#95BF46"/>
<path d="M38.115 10.219C37.9344 10.2039 34.1111 9.92054 34.1111 9.92054C34.1111 9.92054 31.4558 7.28441 31.1643 6.99263C31.0553 6.88407 30.9082 6.82842 30.7544 6.80444L28.6094 50.68L43.9796 47.355C43.9796 47.355 38.5833 10.8726 38.5494 10.6226C38.515 10.3726 38.296 10.2342 38.115 10.219Z" fill="#5E8E3E"/>
<path d="M23.3912 18.7124L21.4958 24.3504C21.4958 24.3504 19.8352 23.4641 17.7996 23.4641C14.8153 23.4641 14.6651 25.3369 14.6651 25.8088C14.6651 28.3838 21.3775 29.3705 21.3775 35.402C21.3775 40.1473 18.3677 43.203 14.3095 43.203C9.43963 43.203 6.94922 40.1722 6.94922 40.1722L8.25316 35.864C8.25316 35.864 10.8131 38.0617 12.9732 38.0617C14.3847 38.0617 14.9588 36.9504 14.9588 36.1384C14.9588 32.7795 9.45196 32.6297 9.45196 27.1104C9.45196 22.465 12.7862 17.9696 19.5167 17.9696C22.11 17.9696 23.3912 18.7124 23.3912 18.7124Z" fill="white"/>
</g>
<defs>
<clipPath id="clip0_2611_4543">
<rect width="43.84" height="50" fill="white" transform="translate(0.230469 0.804077)"/>
</clipPath>
</defs>
</svg>
