<svg width="43" height="51" viewBox="0 0 43 51" fill="none" xmlns="http://www.w3.org/2000/svg">
<g clip-path="url(#clip0_2611_4493)">
<path d="M14.0819 50.8002C11.0838 49.5042 8.27853 46.2107 8.2717 42.8406C8.26353 39.1664 10.592 36.047 13.4881 33.9968C13.1399 35.3122 12.9501 36.5154 13.8126 37.692C14.6145 38.7858 16.0189 39.3174 17.3448 39.0289C20.4433 38.3506 20.5855 34.9443 18.7486 32.9598C16.9324 30.9945 15.1755 28.7748 15.8668 25.9248C16.2128 24.4961 17.09 23.1582 18.2013 22.2014C17.3471 24.4461 19.7744 26.6598 21.3738 27.7625C24.148 29.6756 27.1918 31.1215 29.7427 33.3641C32.4259 35.7211 34.4072 38.9078 34.0072 42.6041C33.5736 46.6104 30.3902 49.3967 26.8193 50.8033C34.365 49.1379 42.1617 43.2814 42.3214 34.9131C42.4538 28.0283 37.7308 22.7299 31.8804 19.6965L31.5748 19.5296C31.7353 19.9192 31.7879 20.2507 31.7818 20.5473C31.8342 20.3286 31.8697 20.1037 31.8798 19.8717C31.8782 20.1473 31.8424 20.4216 31.7726 20.6882L31.7818 20.5473C31.6949 20.9128 31.5486 21.2616 31.3487 21.5796L31.4345 21.4873C30.2673 23.4233 27.1075 23.8436 25.5466 21.839C23.0372 18.6144 25.5992 15.1379 25.9576 11.7232C26.4062 7.44373 23.7224 3.28923 20.3949 0.803101C22.2276 3.76775 19.8131 7.69021 17.8814 9.88298C16.0083 12.0086 13.7302 13.7834 11.6625 15.7146C9.44118 17.7888 7.30582 19.974 5.47985 22.4086C1.82828 27.2816 -0.407263 33.4103 1.23551 39.4896C2.87729 45.5648 8.13961 49.432 14.0824 50.7996L14.0819 50.8002Z" fill="#EE4323"/>
</g>
<defs>
<clipPath id="clip0_2611_4493">
<rect width="41.6367" height="50" fill="white" transform="translate(0.6875 0.804077)"/>
</clipPath>
</defs>
</svg>
