<svg width="48" height="51" viewBox="0 0 48 51" fill="none" xmlns="http://www.w3.org/2000/svg">
<g clip-path="url(#clip0_2611_4497)">
<path d="M25.6472 16.5345C23.3319 14.6371 21.5455 12.1813 17.8292 11.1069C14.9553 10.2806 11.9411 10.6203 9.16525 12.6875C7.84917 13.6704 6.94457 15.1531 6.51677 16.5475C5.3999 20.1725 7.68589 23.399 8.72765 24.5583L10.9973 26.988C11.4643 27.4648 12.591 28.709 12.0423 30.4953C11.448 32.4384 9.10647 33.6925 6.70944 32.9544C5.63829 32.6213 4.09688 31.8245 4.44304 30.7044C4.652 30.0534 5.10867 29.7533 5.3803 28.7547C5.8179 27.3211 5.22028 25.4596 3.68867 24.9861C2.25829 24.5485 0.795258 24.8947 0.227023 26.7365C-0.416319 28.8298 0.582985 32.6246 5.94527 34.2803C12.2285 36.2103 17.5418 32.7879 18.2962 28.3302C18.7729 25.538 17.5091 23.4578 15.197 20.7897L13.316 18.7094C12.173 17.5664 11.7843 15.6266 12.9633 14.1342C13.9593 12.8736 15.3799 12.338 17.7018 12.9683C21.0949 13.886 22.6069 16.2438 25.128 18.1412C23.9389 22.2008 22.9935 26.2714 22.4109 30.3582C20.605 39.8189 19.2301 45.0114 15.6509 47.9962C14.9292 48.5089 13.9005 49.2764 12.346 49.3319C11.191 49.3333 10.751 48.2018 12.0391 47.4607C12.5159 47.1994 13.2408 46.7651 13.1919 45.3837C13.1396 43.7443 11.7811 42.3237 9.82166 42.3923C8.35209 42.4413 6.11508 43.8227 6.19999 46.3536C6.28817 48.9661 8.72112 50.9256 12.395 50.7982C14.3577 50.7329 18.7436 49.9328 23.0641 44.7991C28.0933 38.9111 29.4975 32.1609 30.5589 27.2198L31.7378 20.6982C32.3942 20.7766 33.0963 20.8289 33.8605 20.8485C40.1208 20.9824 43.2526 17.7362 43.3016 15.3784C43.331 13.9513 42.3644 12.5438 41.0091 12.5764C40.0392 12.6058 38.8211 13.2492 38.5304 14.5914C38.2463 15.9074 40.5225 17.0962 38.7394 18.249C37.4756 19.0687 35.2059 19.6467 32.0121 19.1764C33.5617 11.066 34.7719 2.34976 40.787 2.2111C41.192 2.19151 42.6713 2.22743 42.704 3.20714C42.722 4.06887 41.6697 4.7509 41.7308 6.01564C41.7863 7.57012 42.9685 8.59228 44.6765 8.53023C46.9657 8.45512 47.6222 6.22791 47.5862 5.08165C47.4915 2.39071 44.6536 0.689284 40.9046 0.810117L40.9111 0.810111C35.005 1.07594 29.7676 5.40846 25.6472 16.5345Z" fill="white"/>
</g>
<defs>
<clipPath id="clip0_2611_4497">
<rect width="47.5586" height="50" fill="white" transform="translate(0.0546875 0.804077)"/>
</clipPath>
</defs>
</svg>
