<svg width="51" height="51" viewBox="0 0 51 51" fill="none" xmlns="http://www.w3.org/2000/svg">
<g clip-path="url(#clip0_2356_3837)">
<path d="M46.3321 0.103333H5.38581C2.88585 0.103333 0.859375 2.12981 0.859375 4.62977V45.5571C0.859375 48.076 2.88585 50.1024 5.38581 50.1024H46.3131C48.8131 50.1024 50.8396 48.076 50.8396 45.576V4.62977C50.8585 2.12981 48.832 0.103333 46.3321 0.103333Z" fill="#FF3366"/>
<path d="M17.5648 15.8417C19.2315 15.8417 20.614 14.5349 20.614 12.8304C20.614 11.1259 19.2125 9.81909 17.5648 9.81909C15.8982 9.81909 14.5156 11.1259 14.5156 12.8304C14.5156 14.5349 15.9171 15.8417 17.5648 15.8417Z" fill="white"/>
<path d="M11.2377 31.9588C11.0672 32.7164 10.9725 33.5497 10.9725 34.2126C10.9725 36.8641 12.4119 38.6254 15.4611 38.6254C17.9989 38.6254 20.0443 37.1292 21.5216 34.6861L20.6125 38.3034H25.6503L28.529 26.7695C29.2487 23.8529 30.6313 22.3378 32.7524 22.3378C34.4191 22.3378 35.4418 23.3795 35.4418 25.084C35.4418 25.5764 35.4039 26.1256 35.2145 26.6938L33.7373 31.9967C33.51 32.7543 33.4153 33.5308 33.4153 34.2505C33.4153 36.7694 34.8926 38.6065 37.9986 38.6065C40.65 38.6065 42.7523 36.9019 43.9265 32.8111L41.9568 32.0535C40.972 34.7997 40.1197 35.2921 39.4379 35.2921C38.7561 35.2921 38.3963 34.8376 38.3963 33.9475C38.3963 33.5497 38.491 33.0952 38.6236 32.546L40.0629 27.3756C40.4228 26.1635 40.5553 25.084 40.5553 24.0991C40.5553 20.2356 38.2258 18.228 35.385 18.228C32.7335 18.228 30.0442 20.6143 28.6995 23.1332L29.6843 18.6257H21.9951L20.9155 22.603H24.514L22.2981 31.4664C20.5557 35.33 17.3739 35.3868 16.9762 35.3111C16.3133 35.1595 15.8967 34.9133 15.8967 34.0611C15.8967 33.5687 15.9914 32.8679 16.2186 31.9967L19.5898 18.6257H11.0483L9.96875 22.603H13.5104L11.2377 31.9588Z" fill="white"/>
</g>
<defs>
<clipPath id="clip0_2356_3837">
<rect width="50" height="50" fill="white" transform="translate(0.851562 0.103333)"/>
</clipPath>
</defs>
</svg>
