<svg width="82" height="51" viewBox="0 0 82 51" fill="none" xmlns="http://www.w3.org/2000/svg">
<g clip-path="url(#clip0_2611_4501)">
<path d="M40.7015 50.6598C40.4255 50.6598 40.1678 50.5862 39.9286 50.4574L37.4809 49.0035C37.1128 48.801 37.2968 48.7274 37.4072 48.6906C37.9041 48.525 37.9962 48.4882 38.5115 48.1937C38.5667 48.1569 38.6403 48.1753 38.6955 48.2121L40.5727 49.3347C40.6463 49.3716 40.7383 49.3716 40.7935 49.3347L48.1366 45.0835C48.2103 45.0467 48.2471 44.9731 48.2471 44.881V36.3969C48.2471 36.3049 48.2103 36.2313 48.1366 36.1945L40.7935 31.9616C40.7199 31.9248 40.6279 31.9248 40.5727 31.9616L33.2296 36.1945C33.156 36.2313 33.1192 36.3233 33.1192 36.3969V44.881C33.1192 44.9546 33.156 45.0467 33.2296 45.0835L35.2356 46.2429C36.3214 46.795 37.0024 46.1509 37.0024 45.5068V37.133C37.0024 37.0226 37.0944 36.9122 37.2232 36.9122H38.1618C38.2722 36.9122 38.3826 37.0042 38.3826 37.133V45.5068C38.3826 46.9607 37.5913 47.8072 36.211 47.8072C35.7877 47.8072 35.4564 47.8072 34.5179 47.3471L32.5855 46.2429C32.107 45.9669 31.8125 45.4515 31.8125 44.8994V36.4153C31.8125 35.8632 32.107 35.3479 32.5855 35.0718L39.9286 30.8206C40.3887 30.5629 41.0144 30.5629 41.4745 30.8206L48.8176 35.0718C49.2961 35.3479 49.5905 35.8632 49.5905 36.4153V44.8994C49.5905 45.4515 49.2961 45.9669 48.8176 46.2429L41.4745 50.4942C41.2352 50.6046 40.9592 50.6598 40.7015 50.6598ZM42.9652 44.8258C39.7445 44.8258 39.082 43.3535 39.082 42.1021C39.082 41.9916 39.174 41.8812 39.3028 41.8812H40.2598C40.3702 41.8812 40.4623 41.9548 40.4623 42.0653C40.6095 43.0407 41.0328 43.5192 42.9836 43.5192C44.5295 43.5192 45.192 43.1695 45.192 42.3413C45.192 41.8628 45.008 41.5131 42.5971 41.2739C40.5911 41.0715 39.3396 40.6298 39.3396 39.0286C39.3396 37.5379 40.5911 36.6546 42.6891 36.6546C45.0448 36.6546 46.2042 37.4643 46.3515 39.2311C46.3515 39.2863 46.3331 39.3415 46.2963 39.3967C46.2595 39.4335 46.2042 39.4703 46.149 39.4703H45.192C45.1 39.4703 45.008 39.3967 44.9896 39.3047C44.7687 38.2925 44.1982 37.9612 42.6891 37.9612C40.996 37.9612 40.7935 38.5501 40.7935 38.9918C40.7935 39.5255 41.0328 39.6912 43.3148 39.9856C45.5785 40.2801 46.6459 40.7034 46.6459 42.2861C46.6275 43.9056 45.3025 44.8258 42.9652 44.8258Z" fill="#539E43"/>
<path d="M17.9172 17.4779C17.9172 17.1467 17.7331 16.8338 17.4387 16.6682L9.63547 12.1777C9.50665 12.104 9.35942 12.0672 9.21219 12.0488H9.13857C8.99134 12.0488 8.84411 12.104 8.71529 12.1777L0.912092 16.6682C0.617631 16.8338 0.433594 17.1467 0.433594 17.4779L0.451998 29.5508C0.451998 29.7164 0.544016 29.8821 0.691246 29.9557C0.838477 30.0477 1.02251 30.0477 1.15134 29.9557L5.78909 27.3055C6.08355 27.1399 6.26759 26.827 6.26759 26.4958V20.8458C6.26759 20.5146 6.45162 20.2017 6.74608 20.0361L8.71529 18.895C8.86252 18.803 9.02815 18.7662 9.19378 18.7662C9.35942 18.7662 9.52505 18.803 9.65388 18.895L11.6231 20.0361C11.9175 20.2017 12.1016 20.5146 12.1016 20.8458V26.4958C12.1016 26.827 12.2856 27.1399 12.5801 27.3055L17.2178 29.9557C17.3651 30.0477 17.5491 30.0477 17.6963 29.9557C17.8436 29.8821 17.9356 29.7164 17.9356 29.5508L17.9172 17.4779Z" fill="white"/>
<path d="M55.4259 0.859288C55.2787 0.785673 55.0947 0.785673 54.9658 0.859288C54.8186 0.951307 54.7266 1.09854 54.7266 1.26417V13.2266C54.7266 13.337 54.6714 13.4475 54.5609 13.5211C54.4505 13.5763 54.3401 13.5763 54.2297 13.5211L52.2789 12.3984C51.9844 12.2328 51.6347 12.2328 51.3403 12.3984L43.5371 16.9074C43.2426 17.073 43.0586 17.3859 43.0586 17.7171V26.7166C43.0586 27.0478 43.2426 27.3607 43.5371 27.5263L51.3403 32.0353C51.6347 32.2009 51.9844 32.2009 52.2789 32.0353L60.0821 27.5263C60.3765 27.3607 60.5606 27.0478 60.5606 26.7166V4.28239C60.5606 3.93272 60.3765 3.61985 60.0821 3.45422L55.4259 0.859288ZM54.7082 23.7536C54.7082 23.8456 54.6714 23.9192 54.5978 23.956L51.9292 25.5019C51.8556 25.5387 51.7636 25.5387 51.69 25.5019L49.0214 23.956C48.9478 23.9192 48.911 23.8272 48.911 23.7536V20.6617C48.911 20.5697 48.9478 20.4961 49.0214 20.4593L51.69 18.9134C51.7636 18.8766 51.8556 18.8766 51.9292 18.9134L54.5978 20.4593C54.6714 20.4961 54.7082 20.5881 54.7082 20.6617V23.7536Z" fill="white"/>
<path d="M81.3901 20.5881C81.6846 20.4225 81.8502 20.1096 81.8502 19.7784V17.5883C81.8502 17.2571 81.6662 16.9442 81.3901 16.7786L73.6422 12.288C73.3477 12.1224 72.998 12.1224 72.7036 12.288L64.9004 16.797C64.6059 16.9626 64.4219 17.2755 64.4219 17.6067V26.6062C64.4219 26.9374 64.6059 27.2503 64.9004 27.4159L72.6484 31.8328C72.9428 31.9985 73.2925 31.9985 73.5685 31.8328L78.2615 29.2195C78.4087 29.1459 78.5008 28.9803 78.5008 28.8146C78.5008 28.649 78.4087 28.4834 78.2615 28.4097L70.4215 23.9008C70.2743 23.8088 70.1823 23.6616 70.1823 23.4959V20.6802C70.1823 20.5145 70.2743 20.3489 70.4215 20.2753L72.8692 18.8766C73.0164 18.7846 73.2005 18.7846 73.3477 18.8766L75.7954 20.2753C75.9426 20.3673 76.0346 20.5145 76.0346 20.6802V22.8886C76.0346 23.0542 76.1267 23.2199 76.2739 23.2935C76.4211 23.3855 76.6052 23.3855 76.7524 23.2935L81.3901 20.5881Z" fill="white"/>
<path d="M73.0515 20.1648C73.1067 20.128 73.1803 20.128 73.2355 20.1648L74.7262 21.0298C74.7814 21.0666 74.8182 21.1218 74.8182 21.1954V22.9254C74.8182 22.999 74.7814 23.0542 74.7262 23.091L73.2355 23.956C73.1803 23.9928 73.1067 23.9928 73.0515 23.956L71.5608 23.091C71.5056 23.0542 71.4688 22.999 71.4688 22.9254V21.1954C71.4688 21.1218 71.5056 21.0666 71.5608 21.0298L73.0515 20.1648Z" fill="#539E43"/>
<path d="M30.967 12.3248C30.6725 12.1592 30.3228 12.1592 30.0284 12.3248L22.2804 16.7969C21.9859 16.9625 21.8203 17.2754 21.8203 17.6067V26.5693C21.8203 26.9006 22.0044 27.2134 22.2804 27.3791L30.0284 31.8512C30.3228 32.0168 30.6725 32.0168 30.967 31.8512L38.715 27.3791C39.0094 27.2134 39.1751 26.9006 39.1751 26.5693V17.6067C39.1751 17.2754 38.991 16.9625 38.715 16.7969L30.967 12.3248Z" fill="url(#paint0_linear_2611_4501)"/>
<mask id="mask0_2611_4501" style="mask-type:luminance" maskUnits="userSpaceOnUse" x="21" y="12" width="19" height="20">
<path d="M30.967 12.3248C30.6725 12.1592 30.3228 12.1592 30.0284 12.3248L22.2804 16.7969C21.9859 16.9625 21.8203 17.2754 21.8203 17.6067V26.5693C21.8203 26.9006 22.0044 27.2134 22.2804 27.3791L30.0284 31.8512C30.3228 32.0168 30.6725 32.0168 30.967 31.8512L38.715 27.3791C39.0094 27.2134 39.1751 26.9006 39.1751 26.5693V17.6067C39.1751 17.2754 38.991 16.9625 38.715 16.7969L30.967 12.3248Z" fill="white"/>
</mask>
<g mask="url(#mask0_2611_4501)">
<path d="M38.7318 16.7969L30.947 12.3248C30.8734 12.288 30.7814 12.2512 30.7078 12.2328L21.9844 27.1766C22.058 27.2687 22.15 27.3423 22.242 27.3975L30.0268 31.8696C30.2477 31.9984 30.5053 32.0352 30.7446 31.9616L38.9342 16.981C38.879 16.9073 38.8054 16.8521 38.7318 16.7969Z" fill="url(#paint1_linear_2611_4501)"/>
</g>
<mask id="mask1_2611_4501" style="mask-type:luminance" maskUnits="userSpaceOnUse" x="21" y="12" width="19" height="20">
<path d="M30.967 12.3248C30.6725 12.1592 30.3228 12.1592 30.0284 12.3248L22.2804 16.7969C21.9859 16.9625 21.8203 17.2754 21.8203 17.6067V26.5693C21.8203 26.9006 22.0044 27.2134 22.2804 27.3791L30.0284 31.8512C30.3228 32.0168 30.6725 32.0168 30.967 31.8512L38.715 27.3791C39.0094 27.2134 39.1751 26.9006 39.1751 26.5693V17.6067C39.1751 17.2754 38.991 16.9625 38.715 16.7969L30.967 12.3248Z" fill="white"/>
</mask>
<g mask="url(#mask1_2611_4501)">
<path fill-rule="evenodd" clip-rule="evenodd" d="M38.7526 27.3791C38.9735 27.2503 39.1391 27.0294 39.2127 26.7902L30.6734 12.2144C30.4525 12.1776 30.2133 12.196 30.0108 12.3248L22.2812 16.7785L30.6182 31.98C30.7286 31.9616 30.8574 31.9248 30.9678 31.8696L38.7526 27.3791Z" fill="url(#paint2_linear_2611_4501)"/>
<path fill-rule="evenodd" clip-rule="evenodd" d="M38.7528 27.3791L30.9864 31.8512C30.876 31.9064 30.7655 31.9432 30.6367 31.9616L30.7839 32.2376L39.3969 27.2502V27.1398L39.1761 26.7717C39.1393 27.0294 38.9736 27.2502 38.7528 27.3791Z" fill="url(#paint3_linear_2611_4501)"/>
<path fill-rule="evenodd" clip-rule="evenodd" d="M38.7528 27.3791L30.9864 31.8512C30.876 31.9064 30.7655 31.9432 30.6367 31.9616L30.7839 32.2376L39.3969 27.2502V27.1398L39.1761 26.7717C39.1393 27.0294 38.9736 27.2502 38.7528 27.3791Z" fill="url(#paint4_linear_2611_4501)"/>
</g>
</g>
<defs>
<linearGradient id="paint0_linear_2611_4501" x1="1205.21" y1="358" x2="355.928" y2="1692.42" gradientUnits="userSpaceOnUse">
<stop stop-color="#41873F"/>
<stop offset="0.3288" stop-color="#418B3D"/>
<stop offset="0.6352" stop-color="#419637"/>
<stop offset="0.9319" stop-color="#3FA92D"/>
<stop offset="1" stop-color="#3FAE2A"/>
</linearGradient>
<linearGradient id="paint1_linear_2611_4501" x1="755.516" y1="1102.72" x2="2882.42" y2="-52.8219" gradientUnits="userSpaceOnUse">
<stop offset="0.1376" stop-color="#41873F"/>
<stop offset="0.4032" stop-color="#54A044"/>
<stop offset="0.7136" stop-color="#66B848"/>
<stop offset="0.9081" stop-color="#6CC04A"/>
</linearGradient>
<linearGradient id="paint2_linear_2611_4501" x1="-52.0276" y1="1001.26" x2="1740.81" y2="1001.26" gradientUnits="userSpaceOnUse">
<stop offset="0.0919165" stop-color="#6CC04A"/>
<stop offset="0.2864" stop-color="#66B848"/>
<stop offset="0.5968" stop-color="#54A044"/>
<stop offset="0.8624" stop-color="#41873F"/>
</linearGradient>
<linearGradient id="paint3_linear_2611_4501" x1="-879.203" y1="301.573" x2="913.636" y2="301.573" gradientUnits="userSpaceOnUse">
<stop offset="0.0919165" stop-color="#6CC04A"/>
<stop offset="0.2864" stop-color="#66B848"/>
<stop offset="0.5968" stop-color="#54A044"/>
<stop offset="0.8624" stop-color="#41873F"/>
</linearGradient>
<linearGradient id="paint4_linear_2611_4501" x1="1174.83" y1="-1126.92" x2="720.637" y2="1253.06" gradientUnits="userSpaceOnUse">
<stop stop-color="#41873F"/>
<stop offset="0.3288" stop-color="#418B3D"/>
<stop offset="0.6352" stop-color="#419637"/>
<stop offset="0.9319" stop-color="#3FA92D"/>
<stop offset="1" stop-color="#3FAE2A"/>
</linearGradient>
<clipPath id="clip0_2611_4501">
<rect width="81.5287" height="50" fill="white" transform="translate(0.398438 0.804077)"/>
</clipPath>
</defs>
</svg>
