<svg width="51" height="51" viewBox="0 0 51 51" fill="none" xmlns="http://www.w3.org/2000/svg">
<g clip-path="url(#clip0_2611_4554)">
<path d="M26.5246 28.97H32.8359C34.6309 28.97 35.7665 27.9831 35.7665 26.3972C35.7665 24.9018 34.6309 23.8245 32.8359 23.8245H26.5246C26.3156 23.8245 26.1367 24.0034 26.1367 24.1842V28.6102C26.1649 28.8192 26.3136 28.97 26.5246 28.97ZM26.5246 39.1686H33.045C35.0489 39.1686 36.2449 38.1515 36.2449 36.3566C36.2449 34.8009 35.1092 33.5447 33.045 33.5447H26.5246C26.3156 33.5447 26.1367 33.7236 26.1367 33.9045V38.7806C26.1649 39.0198 26.3136 39.1686 26.5246 39.1686Z" fill="#6753AE"/>
<path d="M49.6154 0.61532L30.9509 19.2196H34.002C38.7576 19.2196 41.5695 22.2104 41.5695 25.4706C41.5695 28.0434 39.8349 29.9267 37.9797 30.7649C37.6802 30.8855 37.6802 31.3035 38.0099 31.4221C40.1625 32.2603 41.6881 34.5034 41.6881 37.1345C41.6881 40.8428 39.2058 43.8035 34.3899 43.8035H21.1703C20.9613 43.8035 20.7824 43.6246 20.7824 43.4437V29.3559L0.292795 49.7571C0.0234589 50.0264 0.202346 50.5048 0.59228 50.5048H49.8546C50.0335 50.5048 50.1842 50.356 50.1842 50.1751V0.884656C50.2727 0.555021 49.8546 0.376133 49.6154 0.61532Z" fill="#6753AE"/>
</g>
<defs>
<clipPath id="clip0_2611_4554">
<rect width="50.0322" height="50" fill="white" transform="translate(0.164062 0.504761)"/>
</clipPath>
</defs>
</svg>
