<svg width="51" height="51" viewBox="0 0 51 51" fill="none" xmlns="http://www.w3.org/2000/svg">
<g clip-path="url(#clip0_2611_4605)">
<path d="M25.1641 0.205444C38.9641 0.205444 50.1641 11.4054 50.1641 25.2054C50.1641 39.0054 38.9641 50.2054 25.1641 50.2054C11.3641 50.2054 0.164062 39.0054 0.164062 25.2054C0.164062 11.4054 11.3641 0.205444 25.1641 0.205444ZM25.1641 6.80544C14.9641 6.80544 6.76406 15.0054 6.76406 25.2054C6.76406 35.4054 14.9641 43.6054 25.1641 43.6054C35.3641 43.6054 43.5641 35.4054 43.5641 25.2054C43.5641 15.0054 35.3641 6.80544 25.1641 6.80544ZM31.3641 26.2054C34.2359 26.2054 36.5641 28.5336 36.5641 31.4054C36.5641 34.2773 34.2359 36.6054 31.3641 36.6054C28.4922 36.6054 26.1641 34.2773 26.1641 31.4054C26.1641 28.5336 28.4922 26.2054 31.3641 26.2054ZM18.9641 26.2054C21.8359 26.2054 24.1641 28.5336 24.1641 31.4054C24.1641 34.2773 21.8359 36.6054 18.9641 36.6054C16.0922 36.6054 13.7641 34.2773 13.7641 31.4054C13.7641 28.5336 16.0922 26.2054 18.9641 26.2054ZM31.3641 13.8054C34.2359 13.8054 36.5641 16.1336 36.5641 19.0054C36.5641 21.8773 34.2359 24.2054 31.3641 24.2054C28.4922 24.2054 26.1641 21.8773 26.1641 19.0054C26.1641 16.1336 28.4922 13.8054 31.3641 13.8054ZM18.9641 13.8054C21.8359 13.8054 24.1641 16.1336 24.1641 19.0054C24.1641 21.8773 21.8359 24.2054 18.9641 24.2054C16.0922 24.2054 13.7641 21.8773 13.7641 19.0054C13.7641 16.1336 16.0922 13.8054 18.9641 13.8054Z" fill="#F12E45"/>
</g>
<defs>
<clipPath id="clip0_2611_4605">
<rect width="50" height="50" fill="white" transform="translate(0.164062 0.205444)"/>
</clipPath>
</defs>
</svg>
