<svg width="51" height="51" viewBox="0 0 51 51" fill="none" xmlns="http://www.w3.org/2000/svg">
<g clip-path="url(#clip0_2611_4567)">
<path d="M42.6641 0.504761H7.66406C3.52193 0.504761 0.164062 3.86263 0.164062 8.00476V43.0048C0.164062 47.1469 3.52193 50.5048 7.66406 50.5048H42.6641C46.8062 50.5048 50.1641 47.1469 50.1641 43.0048V8.00476C50.1641 3.86263 46.8062 0.504761 42.6641 0.504761Z" fill="#21759B"/>
<path d="M25.1641 44.0594C35.4115 44.0594 43.7188 35.7522 43.7188 25.5048C43.7188 15.2573 35.4115 6.95007 25.1641 6.95007C14.9166 6.95007 6.60938 15.2573 6.60938 25.5048C6.60938 35.7522 14.9166 44.0594 25.1641 44.0594Z" stroke="white" stroke-width="1.95312"/>
<path d="M20.0859 43.0829L25.5547 27.0673L31.2188 42.5947L34.0508 41.0322L39.5195 25.2119C40.4961 22.6728 40.7891 20.622 40.7891 18.8642C40.8867 15.6415 39.5195 12.8095 37.1758 12.5165C35.0273 12.3212 33.8555 14.372 33.9531 15.6415C34.1484 18.5712 37.0781 20.2314 37.0781 24.2353C37.0781 27.165 35.2227 31.7548 33.9531 36.1494L27.6055 17.204C28.6797 17.1064 29.6562 17.1064 29.6562 17.1064C30.6328 17.0087 30.5352 15.5439 29.5586 15.6415C26.3359 15.9345 23.4062 15.8369 20.1836 15.6415C19.207 15.5439 19.1094 17.0087 20.0859 17.1064C20.0859 17.1064 20.9648 17.1064 21.9414 17.204L24.6758 24.7236L20.7695 36.3447L14.4219 17.204C15.4961 17.1064 16.375 17.1064 16.375 17.1064C17.3516 17.0087 17.2539 15.5439 16.2773 15.6415C13.3477 15.8369 10.5156 16.0322 9.83203 15.5439L8.95312 17.9853L17.5469 41.7158L20.0859 43.0829Z" fill="white"/>
</g>
<defs>
<clipPath id="clip0_2611_4567">
<rect width="50" height="50" fill="white" transform="translate(0.164062 0.504761)"/>
</clipPath>
</defs>
</svg>
