<svg width="51" height="51" viewBox="0 0 51 51" fill="none" xmlns="http://www.w3.org/2000/svg">
<g clip-path="url(#clip0_2611_4598)">
<path d="M19.8391 24.4075L10.3807 3.42834H0.507812L14.6682 35.295C14.6821 35.3256 14.7045 35.3516 14.7328 35.3698C14.7611 35.388 14.794 35.3977 14.8276 35.3977C14.8612 35.3977 14.8941 35.388 14.9224 35.3698C14.9507 35.3516 14.9731 35.3256 14.987 35.295L19.8391 24.4075ZM40.4599 3.42834C40.4599 3.42834 27.6516 32.32 26.0495 35.8554C22.2203 44.3054 19.3828 46.4179 16.4911 46.8742C16.4768 46.8753 16.4634 46.882 16.4541 46.893C16.4447 46.9039 16.44 46.9181 16.4411 46.9325C16.4423 46.9469 16.449 46.9602 16.46 46.9696C16.4709 46.979 16.4851 46.9836 16.4995 46.9825H25.5411C29.5224 46.9825 32.2474 44.3054 36.0828 35.8554C37.4245 32.9013 50.5078 3.42834 50.5078 3.42834H40.4599Z" fill="white"/>
</g>
<defs>
<clipPath id="clip0_2611_4598">
<rect width="50" height="50" fill="white" transform="translate(0.507812 0.205444)"/>
</clipPath>
</defs>
</svg>
