<svg width="50" height="51" viewBox="0 0 50 51" fill="none" xmlns="http://www.w3.org/2000/svg">
<g clip-path="url(#clip0_2611_4577)">
<path d="M49.559 7.39645C49.559 3.79044 46.6358 0.867188 43.0298 0.867188C39.7371 0.867188 37.0152 3.30478 36.5668 6.47358L36.5007 6.4387C31.161 4.03037 26.6631 8.29606 26.6631 8.29606L14.7656 20.2519L19.4666 24.779L29.0428 15.3709C33.5145 10.899 35.9493 13.9257 35.9493 13.9257C39.3156 16.7695 36.0652 20.1358 36.0652 20.1358L40.8825 24.779C44.8162 20.5304 45.0443 16.8224 43.8486 13.8728C47.068 13.4697 49.559 10.7249 49.559 7.39645Z" fill="#F9AE41"/>
<path d="M43.9109 37.4247C43.9332 37.3831 43.9458 37.3588 43.9458 37.3588C46.3543 32.0189 42.0884 27.521 42.0884 27.521L30.1324 15.6232L25.6055 20.3245L35.0136 29.9005C39.4853 34.3724 36.4586 36.8075 36.4586 36.8075C33.615 40.1737 30.2487 36.9234 30.2487 36.9234L25.6055 41.7404C29.8539 45.6741 33.5621 45.9022 36.5115 44.7065C36.9146 47.9259 39.6595 50.4172 42.988 50.4172C46.594 50.4172 49.5171 47.4939 49.5171 43.8879C49.5171 40.5953 47.0797 37.8734 43.9109 37.4247Z" fill="#EE4035"/>
<path d="M30.2335 26.2877L20.6573 35.6957C16.1854 40.1678 13.7505 37.1412 13.7505 37.1412C10.3842 34.2972 13.6344 30.9311 13.6344 30.9311L8.81756 26.2877C4.88384 30.5362 4.65555 34.2441 5.85109 37.1937C2.63171 37.597 0.140625 40.3416 0.140625 43.6703C0.140625 47.2763 3.06388 50.1994 6.67008 50.1994C9.96272 50.1995 12.6846 47.7621 13.1331 44.5933C13.1749 44.6156 13.1991 44.628 13.1991 44.628C18.5391 47.0369 23.0367 42.7707 23.0367 42.7707L34.9344 30.8147L30.2335 26.2877Z" fill="#4F91CD"/>
<path d="M14.6873 21.1662C10.2154 16.6943 13.2417 14.2592 13.2417 14.2592C16.0859 10.8929 19.452 14.1433 19.452 14.1433L24.0952 9.32647C19.8468 5.39275 16.1388 5.16465 13.1892 6.3602C12.7861 3.14062 10.0415 0.649536 6.71247 0.649536C3.10704 0.649536 0.183981 3.57279 0.183594 7.1788C0.183594 10.4716 2.621 13.1935 5.78999 13.642C5.7677 13.6838 5.7553 13.7083 5.7553 13.7083C3.34638 19.0478 7.61247 23.5455 7.61247 23.5455L19.5687 35.4433L24.0956 30.7424L14.6873 21.1662Z" fill="#7AC043"/>
</g>
<defs>
<clipPath id="clip0_2611_4577">
<rect width="49.62" height="50" fill="white" transform="translate(0.0117188 0.504761)"/>
</clipPath>
</defs>
</svg>
