<svg width="51" height="51" viewBox="0 0 51 51" fill="none" xmlns="http://www.w3.org/2000/svg">
<g clip-path="url(#clip0_2611_4573)">
<path d="M36.3764 9.80179C33.8242 8.21105 31.4152 7.58567 29.0073 5.99603C27.5136 4.98495 25.4429 2.57597 23.7078 0.504761C23.3712 3.82784 22.3595 5.17669 21.2035 6.14039C18.7466 8.06724 17.2049 8.64579 15.0858 9.80235C13.3033 10.717 3.62109 16.497 3.62109 28.9243C3.62109 41.3532 14.0741 50.5048 25.6826 50.5048C37.2927 50.5048 47.3601 42.075 47.3601 29.31C47.3601 16.5449 37.9187 10.7649 36.3764 9.80179ZM36.6558 45.9717C36.4144 46.213 34.1983 47.7536 31.5976 47.995C28.9958 48.2363 25.4798 48.3807 23.3601 46.4538C23.0235 46.1166 23.1199 45.635 23.3601 45.4427C23.6015 45.2493 23.7943 45.105 24.0831 45.105C24.3718 45.105 24.3244 45.105 24.4688 45.2014C25.4314 45.9717 26.8766 46.5982 29.9595 46.5982C33.0434 46.5982 35.2105 45.7309 36.1731 45.0085C36.6078 44.6713 36.7996 44.9606 36.8475 45.1534C36.896 45.3457 36.9924 45.6345 36.6558 45.9717ZM28.2249 41.5879C28.7555 41.1063 29.6228 40.336 30.441 39.9983C31.2593 39.6616 31.694 39.7096 32.4643 39.7096C33.2346 39.7096 34.0534 39.7569 34.6325 40.1432C35.2105 40.5278 35.5477 41.3951 35.74 41.8772C35.9329 42.3588 35.74 42.6469 35.3554 42.8398C35.0182 43.0332 34.9697 42.9362 34.6325 42.3108C34.2953 41.6838 34.0055 41.0579 32.32 41.0579C30.6333 41.0579 30.1044 41.6364 29.285 42.3108C28.4663 42.9853 28.1775 43.226 27.8888 42.8398C27.5995 42.4552 27.6954 42.0695 28.2249 41.5879ZM40.9911 41.9736C39.2571 41.8293 35.788 36.4339 33.5718 36.3374C30.7788 36.241 24.7084 42.1659 19.9401 42.1659C17.0506 42.1659 16.1828 41.7328 15.2197 41.1063C13.7744 40.0947 13.052 38.553 13.1 36.4339C13.149 32.6766 16.6649 29.1601 21.0961 29.1116C26.7323 29.0648 30.6339 34.7004 33.4765 34.6519C35.8849 34.604 40.5095 29.8836 42.773 29.8836C45.1814 29.8836 45.8569 32.3884 45.8569 33.8816C45.8569 35.3748 45.3743 38.072 44.2183 39.7575C43.0617 41.4436 42.3394 42.0695 40.9911 41.9736Z" fill="#0073BA"/>
</g>
<defs>
<clipPath id="clip0_2611_4573">
<rect width="50" height="50" fill="white" transform="translate(0.492188 0.504761)"/>
</clipPath>
</defs>
</svg>
