<svg width="53" height="52" viewBox="0 0 53 52" fill="none" xmlns="http://www.w3.org/2000/svg">
<g clip-path="url(#clip0_2611_4432)">
<path d="M9.31383 0.708378H43.0397C44.2544 0.707236 45.4574 0.94506 46.5799 1.40824C47.7023 1.87142 48.7222 2.55086 49.5812 3.40768C50.4401 4.2645 51.1212 5.28187 51.5855 6.40157C52.0498 7.52128 52.2882 8.72133 52.2871 9.93306V42.2737C52.2882 43.4854 52.0498 44.6855 51.5855 45.8052C51.1212 46.9249 50.4401 47.9423 49.5812 48.7991C48.7222 49.6559 47.7023 50.3353 46.5799 50.7985C45.4574 51.2617 44.2544 51.4995 43.0397 51.4984H9.31383C8.09912 51.4995 6.8961 51.2617 5.77364 50.7985C4.65117 50.3353 3.63129 49.6559 2.77236 48.7991C1.91343 47.9423 1.23232 46.9249 0.767996 45.8052C0.303676 44.6855 0.0652655 43.4854 0.0664104 42.2737V9.93306C0.0652655 8.72133 0.303676 7.52128 0.767996 6.40157C1.23232 5.28187 1.91343 4.2645 2.77236 3.40768C3.63129 2.55086 4.65117 1.87142 5.77364 1.40824C6.8961 0.94506 8.09912 0.707236 9.31383 0.708378Z" fill="#330000"/>
<path d="M25.3706 31.1824H17.2763L15.6227 36.2831C15.6042 36.3761 15.5516 36.4588 15.4751 36.515C15.3986 36.5712 15.3038 36.5969 15.2093 36.587H11.1187C10.8793 36.587 10.814 36.4567 10.8793 36.1963L17.8856 16.0756C17.9509 15.8586 18.0161 15.6198 18.1032 15.3594C18.1907 14.8942 18.2344 14.4218 18.2337 13.9485C18.2272 13.8942 18.2415 13.8393 18.2738 13.7951C18.3061 13.7508 18.3539 13.7203 18.4078 13.7098H24.0433C24.2173 13.7098 24.3044 13.7749 24.3261 13.8834L32.268 36.2397C32.3333 36.4784 32.268 36.587 32.0504 36.587H27.5029C27.426 36.5944 27.3489 36.5745 27.2853 36.5308C27.2216 36.4871 27.1754 36.4225 27.1548 36.3482L25.3706 31.1824ZM18.5383 26.7762H24.065C23.9345 26.3204 23.7604 25.7778 23.5646 25.2135C23.3688 24.6491 23.1729 23.998 22.9771 23.3468C22.7813 22.6957 22.5637 22.0228 22.3461 21.35C22.1285 20.6771 21.9327 20.0477 21.7586 19.4182C21.5845 18.7888 21.4322 18.2461 21.2799 17.7252H21.2364C21.0409 18.6712 20.7939 19.6059 20.4966 20.5252C20.1702 21.567 19.8439 22.6523 19.4957 23.7375C19.1911 24.8445 18.8647 25.8646 18.5383 26.7762ZM37.0114 17.4213C36.6543 17.4291 36.2991 17.366 35.9667 17.2356C35.6342 17.1051 35.3311 16.9101 35.0749 16.6617C34.5764 16.1179 34.3109 15.4012 34.3351 14.6648C34.3223 14.306 34.3854 13.9485 34.5203 13.6156C34.6553 13.2828 34.8591 12.982 35.1184 12.733C35.6414 12.2399 36.3353 11.9677 37.0549 11.9734C37.9035 11.9734 38.5563 12.2338 39.035 12.733C39.517 13.2593 39.7746 13.9522 39.753 14.6648C39.7663 15.0315 39.7057 15.3972 39.5749 15.7401C39.4441 16.0831 39.2457 16.3965 38.9914 16.6617C38.7351 16.9222 38.4256 17.1248 38.0841 17.2558C37.7425 17.3869 37.3767 17.4433 37.0114 17.4213ZM34.5744 36.2614V19.5484C34.5744 19.3314 34.6615 19.2446 34.8573 19.2446H39.1655C39.3613 19.2446 39.4484 19.3531 39.4484 19.5484V36.2614C39.4484 36.5001 39.3613 36.6087 39.1655 36.6087H34.9008C34.8551 36.6124 34.8091 36.6058 34.7663 36.5894C34.7235 36.5729 34.6849 36.547 34.6536 36.5137C34.6222 36.4803 34.5988 36.4402 34.5851 36.3966C34.5714 36.3529 34.5677 36.3067 34.5744 36.2614Z" fill="#FF9A00"/>
</g>
<defs>
<clipPath id="clip0_2611_4432">
<rect width="52.2207" height="50.79" fill="white" transform="translate(0.0664062 0.708374)"/>
</clipPath>
</defs>
</svg>
