<svg width="50" height="51" viewBox="0 0 50 51" fill="none" xmlns="http://www.w3.org/2000/svg">
<g clip-path="url(#clip0_2611_4584)">
<path d="M49.2194 11.9125C49.2373 11.9788 49.2465 12.0471 49.2467 12.1157V22.7828C49.2467 22.9197 49.2105 23.0542 49.1419 23.1727C49.0733 23.2911 48.9746 23.3894 48.8558 23.4575L39.9028 28.6121V38.8291C39.9028 39.1071 39.755 39.3638 39.5139 39.5038L20.8251 50.2622C20.7824 50.2865 20.7357 50.3021 20.689 50.3186C20.6715 50.3245 20.655 50.3351 20.6365 50.34C20.5059 50.3744 20.3686 50.3744 20.2379 50.34C20.2165 50.3342 20.1971 50.3225 20.1767 50.3147C20.1339 50.2992 20.0892 50.2856 20.0483 50.2622L1.36348 39.5038C1.24478 39.4356 1.14616 39.3373 1.07754 39.2189C1.00893 39.1004 0.97275 38.966 0.972656 38.8291V6.82788C0.972656 6.75788 0.982378 6.68983 0.999878 6.62372C1.00571 6.60136 1.01932 6.58094 1.0271 6.55858C1.04168 6.51775 1.05529 6.47594 1.07668 6.43803C1.09127 6.41275 1.11265 6.39233 1.13015 6.369C1.15251 6.33789 1.17293 6.30581 1.19918 6.27858C1.22154 6.25622 1.25071 6.2397 1.27599 6.22025C1.30418 6.19692 1.32946 6.17164 1.36154 6.15317L10.7054 0.773945C10.8237 0.705872 10.9578 0.670044 11.0943 0.670044C11.2308 0.670044 11.3649 0.705872 11.4832 0.773945L20.8261 6.15317H20.8281C20.8592 6.17261 20.8854 6.19692 20.9136 6.21928C20.9389 6.23872 20.9671 6.25622 20.9894 6.27761C21.0167 6.30581 21.0361 6.33789 21.0594 6.369C21.076 6.39233 21.0983 6.41275 21.1119 6.43803C21.1343 6.47692 21.1469 6.51775 21.1625 6.55858C21.1703 6.58094 21.1839 6.60136 21.1897 6.62469C21.2076 6.69094 21.2168 6.75925 21.2169 6.82788V26.8155L29.0024 22.3326V12.1147C29.0024 12.0467 29.0121 11.9777 29.0296 11.9125C29.0364 11.8892 29.049 11.8688 29.0568 11.8464C29.0724 11.8056 29.086 11.7638 29.1074 11.7259C29.122 11.7006 29.1433 11.6802 29.1599 11.6568C29.1832 11.6257 29.2027 11.5936 29.2299 11.5664C29.2522 11.5441 29.2804 11.5275 29.3057 11.5081C29.3349 11.4848 29.3601 11.4595 29.3913 11.441L38.7361 6.06178C38.8544 5.99361 38.9885 5.95773 39.125 5.95773C39.2615 5.95773 39.3956 5.99361 39.5139 6.06178L48.8568 11.441C48.8899 11.4605 48.9151 11.4848 48.9443 11.5071C48.9686 11.5266 48.9968 11.5441 49.0192 11.5655C49.0464 11.5936 49.0658 11.6257 49.0892 11.6568C49.1067 11.6802 49.128 11.7006 49.1417 11.7259C49.164 11.7638 49.1767 11.8056 49.1922 11.8464C49.201 11.8688 49.2136 11.8892 49.2194 11.9125ZM47.6892 22.3326V13.4622L44.4196 15.3444L39.9028 17.9451V26.8155L47.6902 22.3326H47.6892ZM38.3463 38.3789V29.5027L33.9033 32.0401L21.216 39.2811V48.241L38.3463 38.3789ZM2.53013 8.17439V38.3789L19.6585 48.24V39.2821L10.7103 34.2179L10.7074 34.2159L10.7035 34.214C10.6733 34.1965 10.6481 34.1712 10.6199 34.1498C10.5956 34.1304 10.5674 34.1148 10.546 34.0934L10.544 34.0905C10.5188 34.0662 10.5013 34.0361 10.4799 34.0089C10.4604 33.9826 10.4371 33.9603 10.4215 33.933L10.4206 33.9301C10.4031 33.9009 10.3924 33.866 10.3797 33.8329C10.3671 33.8037 10.3506 33.7765 10.3428 33.7454C10.3331 33.7085 10.3311 33.6686 10.3272 33.6307C10.3233 33.6015 10.3156 33.5723 10.3156 33.5432V12.6572L5.79967 10.0556L2.53013 8.17439ZM11.0953 2.34698L3.31082 6.82788L11.0933 11.3088L18.8768 6.82691L11.0933 2.34698H11.0953ZM15.1436 30.3116L19.6595 27.7119V8.17439L16.3899 10.0566L11.873 12.6572V32.1947L15.1436 30.3116ZM39.125 7.63481L31.3415 12.1157L39.125 16.5966L46.9075 12.1147L39.125 7.63481ZM38.3463 17.9451L33.8294 15.3444L30.5599 13.4622V22.3326L35.0758 24.9323L38.3463 26.8155V17.9451ZM20.4363 37.9346L31.8529 31.417L37.5597 28.1601L29.7821 23.6821L20.8271 28.8377L12.6654 33.5364L20.4363 37.9346Z" fill="#FF2D20"/>
</g>
<defs>
<clipPath id="clip0_2611_4584">
<rect width="48.36" height="50" fill="white" transform="translate(0.972656 0.504761)"/>
</clipPath>
</defs>
</svg>
