<svg width="26" height="51" viewBox="0 0 26 51" fill="none" xmlns="http://www.w3.org/2000/svg">
<path d="M21.9612 1.14672C21.177 1.61351 19.87 2.92051 18.3203 4.81566L19.7487 7.51369C20.7476 6.07598 21.7745 4.78765 22.8015 3.68604C22.8761 3.60202 22.9228 3.55534 22.9228 3.55534C22.8855 3.60202 22.8388 3.63936 22.8015 3.68604C22.4654 4.05013 21.4571 5.22643 19.9354 7.5697C21.4011 7.49501 23.651 7.19627 25.4901 6.87886C26.041 3.81674 24.958 2.41638 24.958 2.41638C24.958 2.41638 23.5763 0.185142 21.9612 1.14672Z" fill="url(#paint0_linear_2611_4700)"/>
<path d="M17.1539 23.795C16.9672 23.8324 16.7805 23.8604 16.5938 23.8884C16.6871 23.8791 16.7898 23.8604 16.8832 23.8417C16.9765 23.8324 17.0699 23.8137 17.1539 23.795Z" fill="#BE202E"/>
<path opacity="0.35" d="M17.1539 23.795C16.9672 23.8324 16.7805 23.8604 16.5938 23.8884C16.6871 23.8791 16.7898 23.8604 16.8832 23.8417C16.9765 23.8324 17.0699 23.8137 17.1539 23.795Z" fill="#BE202E"/>
<path d="M17.6359 21.4332C17.6266 21.4332 17.6266 21.4332 17.6359 21.4332C17.6639 21.4332 17.6919 21.4239 17.7199 21.4239C17.8413 21.4052 17.9627 21.3865 18.0747 21.3585C17.9347 21.3865 17.7853 21.4052 17.6359 21.4332Z" fill="#BE202E"/>
<path opacity="0.35" d="M17.6359 21.4332C17.6266 21.4332 17.6266 21.4332 17.6359 21.4332C17.6639 21.4332 17.6919 21.4239 17.7199 21.4239C17.8413 21.4052 17.9627 21.3865 18.0747 21.3585C17.9347 21.3865 17.7853 21.4052 17.6359 21.4332Z" fill="#BE202E"/>
<path d="M15.5285 14.4783C15.9673 13.6661 16.406 12.8725 16.8448 12.0977C17.3023 11.2948 17.7691 10.5199 18.2452 9.76373C18.2732 9.71705 18.3012 9.67037 18.3292 9.63303C18.796 8.89551 19.2628 8.18599 19.7389 7.50448L18.3105 4.8158C18.2078 4.9465 18.0958 5.0772 17.9838 5.21723C17.573 5.7307 17.1436 6.2815 16.7048 6.86966C16.21 7.53249 15.7059 8.23267 15.1831 8.97019C14.7069 9.6517 14.2215 10.3706 13.736 11.1081C13.3253 11.7429 12.9145 12.3871 12.5037 13.0499C12.485 13.0779 12.4757 13.0966 12.457 13.1246L14.3148 16.7935C14.7256 16.0187 15.127 15.2438 15.5285 14.4783Z" fill="url(#paint1_linear_2611_4700)"/>
<path d="M7.06012 35.1752C6.81739 35.8474 6.56533 36.5382 6.3226 37.2478C6.3226 37.2571 6.31326 37.2664 6.31326 37.2758C6.27592 37.3785 6.23858 37.4718 6.21057 37.5745C6.04253 38.0506 5.90249 38.4801 5.56641 39.451C6.11721 39.7031 6.55599 40.3566 6.96676 41.1034C6.92009 40.3286 6.60267 39.6004 5.99585 39.0402C8.69387 39.1616 11.0278 38.4801 12.2228 36.5009C12.3255 36.3235 12.4282 36.1368 12.5215 35.9408C11.9707 36.6316 11.2985 36.9304 10.0195 36.8557C11.896 36.0155 12.8389 35.2032 13.6698 33.8682C13.8659 33.5508 14.0619 33.2054 14.258 32.8226C12.6149 34.5124 10.7104 34.9885 8.70321 34.6244L7.20016 34.7925C7.15348 34.9232 7.1068 35.0445 7.06012 35.1752Z" fill="url(#paint2_linear_2611_4700)"/>
<path d="M7.76146 31.8054C8.08821 30.9651 8.42429 30.1156 8.76038 29.2567C9.08713 28.4352 9.42322 27.6136 9.76864 26.7827C10.1141 25.9519 10.4688 25.121 10.8236 24.2901C11.1877 23.4405 11.5611 22.6003 11.9439 21.7601C12.3173 20.9292 12.7094 20.0984 13.0922 19.2768C13.2322 18.9781 13.3722 18.6887 13.5216 18.3899C13.7643 17.8858 14.0164 17.3817 14.2685 16.8775C14.2778 16.8495 14.2965 16.8215 14.3058 16.7935L12.4667 13.1339C12.4387 13.1806 12.4106 13.2366 12.3733 13.2833C11.9439 13.9928 11.5051 14.7116 11.085 15.4492C10.6555 16.196 10.2354 16.9522 9.82465 17.7271C9.47923 18.3806 9.14315 19.0341 8.80706 19.6969C8.74171 19.8276 8.67636 19.9677 8.61101 20.0984C8.20957 20.9292 7.83614 21.7414 7.50939 22.5163C7.13597 23.3939 6.80921 24.2341 6.51981 25.0276C6.33309 25.5504 6.15571 26.0546 5.99701 26.54C5.86631 26.9508 5.74494 27.3709 5.62358 27.7817C5.34351 28.7526 5.11011 29.7235 4.91406 30.6944L6.78121 34.382C7.02394 33.7192 7.28534 33.0563 7.5374 32.3748C7.61209 32.1881 7.68677 32.0014 7.76146 31.8054Z" fill="url(#paint3_linear_2611_4700)"/>
<path d="M4.88467 30.8249C4.65128 32.0012 4.48323 33.1775 4.39921 34.3538C4.39921 34.3912 4.38988 34.4378 4.38988 34.4752C3.81106 33.5416 2.24266 32.6267 2.252 32.636C3.37228 34.2605 4.22183 35.8662 4.3432 37.4439C3.74571 37.5653 2.92417 37.3879 1.98126 37.0425C2.97085 37.9481 3.70837 38.2001 3.99778 38.2655C3.09221 38.3215 2.1493 38.947 1.19706 39.6658C2.58808 39.0964 3.7177 38.8723 4.52058 39.059C3.24158 42.6719 1.96259 46.6676 0.683594 50.9061C1.07569 50.794 1.30909 50.5233 1.43979 50.1685C1.66384 49.403 3.18557 44.3617 5.55684 37.7427C5.62219 37.556 5.69688 37.3693 5.76223 37.1732C5.7809 37.1172 5.79957 37.0705 5.81824 37.0145C6.07031 36.3237 6.33171 35.6141 6.60244 34.886C6.66779 34.7179 6.72381 34.5592 6.78916 34.3912V34.3818L4.92201 30.6942C4.90334 30.7409 4.894 30.7782 4.88467 30.8249Z" fill="url(#paint4_linear_2611_4700)"/>
<path d="M14.6118 17.1109C14.5558 17.2229 14.5091 17.3256 14.4531 17.4376C14.2944 17.7737 14.1263 18.1098 13.9676 18.4552C13.7902 18.8286 13.6129 19.2114 13.4261 19.6035C13.3328 19.7995 13.2394 19.9956 13.1461 20.201C12.866 20.8078 12.5859 21.4333 12.2965 22.0775C11.9418 22.871 11.587 23.6925 11.2229 24.5514C10.8775 25.3636 10.5227 26.2132 10.168 27.0814C9.83189 27.9123 9.48647 28.7618 9.14105 29.6487C8.83297 30.4329 8.52489 31.2451 8.20748 32.076C8.18881 32.1134 8.17947 32.16 8.1608 32.1974C7.85272 33.0189 7.5353 33.8685 7.21789 34.7367C7.20855 34.7554 7.19922 34.774 7.19922 34.7927L8.70227 34.6247C8.67426 34.6153 8.64626 34.6153 8.60891 34.606C10.4107 34.3819 12.8007 33.0376 14.341 31.3758C15.0506 30.6103 15.6947 29.7141 16.2922 28.6591C16.7403 27.8749 17.1511 27.0067 17.5525 26.0358C17.898 25.1956 18.234 24.2807 18.5515 23.2911C18.1407 23.5058 17.6646 23.6645 17.1418 23.7766C17.0484 23.7952 16.9551 23.8139 16.8617 23.8326C16.7683 23.8512 16.675 23.8606 16.5723 23.8793C18.2527 23.2351 19.3077 21.9934 20.0732 20.4624C19.6344 20.7611 18.9156 21.1532 18.0567 21.3493C17.9446 21.3773 17.8233 21.396 17.7019 21.4146C17.6739 21.4146 17.6459 21.424 17.6086 21.424C18.1874 21.1812 18.6822 20.9105 19.1116 20.5837C19.205 20.5184 19.289 20.4437 19.373 20.369C19.5037 20.257 19.6251 20.1356 19.7464 20.0143C19.8211 19.9302 19.8958 19.8556 19.9705 19.7715C20.1385 19.5755 20.2972 19.3608 20.4373 19.1274C20.484 19.0527 20.5306 18.9873 20.568 18.9126C20.624 18.8006 20.68 18.6979 20.7267 18.5952C20.9601 18.1284 21.1468 17.7083 21.2962 17.3349C21.3708 17.1482 21.4362 16.9802 21.4922 16.8214C21.5109 16.7561 21.5389 16.7001 21.5576 16.6347C21.6136 16.4574 21.6696 16.2986 21.7069 16.1586C21.7629 15.9532 21.8003 15.7852 21.819 15.6638C21.7629 15.7105 21.6976 15.7572 21.6229 15.7945C21.1188 16.0933 20.2506 16.3733 19.5504 16.504C19.541 16.504 19.5317 16.504 19.5224 16.5134C19.457 16.5227 19.3823 16.532 19.3077 16.5507C19.317 16.5414 19.3357 16.5414 19.345 16.532L14.6211 17.0455C14.6305 17.0828 14.6211 17.1015 14.6118 17.1109Z" fill="url(#paint5_linear_2611_4700)"/>
<path d="M19.934 7.56994C19.5139 8.2141 19.0564 8.95162 18.5616 9.77317C18.5336 9.81984 18.5056 9.85719 18.4869 9.90387C18.0575 10.6227 17.6094 11.4069 17.1333 12.2751C16.7225 13.022 16.293 13.8155 15.8449 14.6838C15.4528 15.4306 15.0607 16.2242 14.6406 17.0644L19.3645 16.5509C20.7369 15.9161 21.353 15.3466 21.9505 14.5157C22.1092 14.2917 22.2679 14.0489 22.4266 13.7969C22.9121 13.0407 23.3882 12.2098 23.8083 11.3789C24.2191 10.576 24.5832 9.7825 24.8539 9.07299C25.0313 8.61554 25.1713 8.19543 25.274 7.822C25.358 7.49525 25.4234 7.18717 25.4794 6.88843C23.6496 7.19651 21.3997 7.49525 19.934 7.56994Z" fill="url(#paint6_linear_2611_4700)"/>
<path d="M16.8832 23.8514C16.7898 23.8701 16.6964 23.8794 16.5938 23.8981C16.6871 23.8794 16.7805 23.8608 16.8832 23.8514Z" fill="#BE202E"/>
<path opacity="0.35" d="M16.8832 23.8514C16.7898 23.8701 16.6964 23.8794 16.5938 23.8981C16.6871 23.8794 16.7805 23.8608 16.8832 23.8514Z" fill="#BE202E"/>
<path d="M16.8832 23.8514C16.7898 23.8701 16.6964 23.8794 16.5938 23.8981C16.6871 23.8794 16.7805 23.8608 16.8832 23.8514Z" fill="url(#paint7_linear_2611_4700)"/>
<path d="M17.6289 21.4332C17.6569 21.4332 17.6849 21.4238 17.7223 21.4238C17.6943 21.4238 17.6662 21.4332 17.6289 21.4332Z" fill="#BE202E"/>
<path opacity="0.35" d="M17.6289 21.4332C17.6569 21.4332 17.6849 21.4238 17.7223 21.4238C17.6943 21.4238 17.6662 21.4332 17.6289 21.4332Z" fill="#BE202E"/>
<path d="M17.6289 21.4332C17.6569 21.4332 17.6849 21.4238 17.7223 21.4238C17.6943 21.4238 17.6662 21.4332 17.6289 21.4332Z" fill="url(#paint8_linear_2611_4700)"/>
<defs>
<linearGradient id="paint0_linear_2611_4700" x1="19.5389" y1="5.14137" x2="30.0072" y2="2.23085" gradientUnits="userSpaceOnUse">
<stop stop-color="#F69923"/>
<stop offset="0.3123" stop-color="#F79A23"/>
<stop offset="0.8383" stop-color="#E97826"/>
</linearGradient>
<linearGradient id="paint1_linear_2611_4700" x1="-3.37488" y1="52.1243" x2="17.917" y2="6.46219" gradientUnits="userSpaceOnUse">
<stop offset="0.3233" stop-color="#9E2064"/>
<stop offset="0.6302" stop-color="#C92037"/>
<stop offset="0.7514" stop-color="#CD2335"/>
<stop offset="1" stop-color="#E97826"/>
</linearGradient>
<linearGradient id="paint2_linear_2611_4700" x1="3.77432" y1="48.7475" x2="16.4622" y2="21.5373" gradientUnits="userSpaceOnUse">
<stop stop-color="#282662"/>
<stop offset="0.0954839" stop-color="#662E8D"/>
<stop offset="0.7882" stop-color="#9F2064"/>
<stop offset="0.9487" stop-color="#CD2032"/>
</linearGradient>
<linearGradient id="paint3_linear_2611_4700" x1="-2.60425" y1="49.3614" x2="18.6877" y2="3.69912" gradientUnits="userSpaceOnUse">
<stop offset="0.3233" stop-color="#9E2064"/>
<stop offset="0.6302" stop-color="#C92037"/>
<stop offset="0.7514" stop-color="#CD2335"/>
<stop offset="1" stop-color="#E97826"/>
</linearGradient>
<linearGradient id="paint4_linear_2611_4700" x1="-0.434974" y1="46.319" x2="10.7545" y2="22.3222" gradientUnits="userSpaceOnUse">
<stop stop-color="#282662"/>
<stop offset="0.0954839" stop-color="#662E8D"/>
<stop offset="0.7882" stop-color="#9F2064"/>
<stop offset="0.9487" stop-color="#CD2032"/>
</linearGradient>
<linearGradient id="paint5_linear_2611_4700" x1="2.11953" y1="51.5649" x2="23.4114" y2="5.90268" gradientUnits="userSpaceOnUse">
<stop offset="0.3233" stop-color="#9E2064"/>
<stop offset="0.6302" stop-color="#C92037"/>
<stop offset="0.7514" stop-color="#CD2335"/>
<stop offset="1" stop-color="#E97826"/>
</linearGradient>
<linearGradient id="paint6_linear_2611_4700" x1="0.564916" y1="54.2882" x2="21.8568" y2="8.62601" gradientUnits="userSpaceOnUse">
<stop offset="0.3233" stop-color="#9E2064"/>
<stop offset="0.6302" stop-color="#C92037"/>
<stop offset="0.7514" stop-color="#CD2335"/>
<stop offset="1" stop-color="#E97826"/>
</linearGradient>
<linearGradient id="paint7_linear_2611_4700" x1="3.52793" y1="52.2205" x2="24.8199" y2="6.55833" gradientUnits="userSpaceOnUse">
<stop offset="0.3233" stop-color="#9E2064"/>
<stop offset="0.6302" stop-color="#C92037"/>
<stop offset="0.7514" stop-color="#CD2335"/>
<stop offset="1" stop-color="#E97826"/>
</linearGradient>
<linearGradient id="paint8_linear_2611_4700" x1="3.36596" y1="52.1424" x2="24.6547" y2="6.48284" gradientUnits="userSpaceOnUse">
<stop offset="0.3233" stop-color="#9E2064"/>
<stop offset="0.6302" stop-color="#C92037"/>
<stop offset="0.7514" stop-color="#CD2335"/>
<stop offset="1" stop-color="#E97826"/>
</linearGradient>
</defs>
</svg>
