<svg width="86" height="51" viewBox="0 0 86 51" fill="none" xmlns="http://www.w3.org/2000/svg">
<g clip-path="url(#clip0_2611_4612)">
<path d="M24.4807 18.3645C24.4807 19.3934 24.5919 20.2277 24.7866 20.8395C25.009 21.4513 25.2871 22.1187 25.6764 22.8417C25.8155 23.0642 25.8711 23.2866 25.8711 23.4813C25.8711 23.7594 25.7043 24.0375 25.3427 24.3156L23.5908 25.4835C23.3405 25.6504 23.0902 25.7338 22.8678 25.7338C22.5897 25.7338 22.3116 25.5948 22.0335 25.3445C21.6442 24.9274 21.3105 24.4824 21.0324 24.0375C20.7543 23.5647 20.4762 23.0364 20.1703 22.3968C18.0013 24.9552 15.276 26.2344 11.9946 26.2344C9.65865 26.2344 7.79547 25.567 6.43284 24.2321C5.07022 22.8973 4.375 21.1176 4.375 18.8929C4.375 16.5291 5.20926 14.6103 6.90559 13.1643C8.60192 11.7182 10.8544 10.9952 13.7187 10.9952C14.6642 10.9952 15.6375 11.0786 16.6664 11.2177C17.6954 11.3567 18.7521 11.5792 19.8644 11.8295V9.79944C19.8644 7.68598 19.4195 6.21212 18.5574 5.35005C17.6675 4.48798 16.1659 4.07085 14.0246 4.07085C13.0513 4.07085 12.0502 4.18209 11.0213 4.43236C9.99235 4.68264 8.99124 4.98854 8.01794 5.37786C7.573 5.57252 7.23929 5.68375 7.04463 5.73937C6.84997 5.79499 6.71093 5.8228 6.59969 5.8228C6.21037 5.8228 6.01571 5.54471 6.01571 4.96073V3.5981C6.01571 3.15316 6.07133 2.81946 6.21037 2.6248C6.34942 2.43014 6.59969 2.23548 6.98902 2.04082C7.96232 1.54026 9.13028 1.12313 10.4929 0.789427C11.8555 0.427914 13.3016 0.261062 14.8311 0.261062C18.1403 0.261062 20.5597 1.0119 22.1169 2.51356C23.6464 4.01523 24.4251 6.29555 24.4251 9.3545V18.3645H24.4807ZM13.1904 22.5914C14.108 22.5914 15.0535 22.4246 16.0546 22.0909C17.0558 21.7572 17.9456 21.1454 18.6965 20.3111C19.1414 19.7828 19.4751 19.1988 19.642 18.5314C19.8088 17.864 19.9201 17.0575 19.9201 16.112V14.944C19.1136 14.7494 18.2515 14.5825 17.3617 14.4713C16.4718 14.3601 15.6097 14.3044 14.7476 14.3044C12.8845 14.3044 11.5218 14.666 10.6041 15.4168C9.68646 16.1676 9.24152 17.2244 9.24152 18.6148C9.24152 19.9218 9.57522 20.8951 10.2704 21.5625C10.9378 22.2577 11.9112 22.5914 13.1904 22.5914ZM35.5207 25.5948C35.0202 25.5948 34.6865 25.5113 34.464 25.3167C34.2415 25.1498 34.0469 24.7605 33.88 24.2321L27.345 2.73603C27.1781 2.17986 27.0947 1.81835 27.0947 1.62369C27.0947 1.17875 27.3172 0.92847 27.7621 0.92847H30.4873C31.0157 0.92847 31.3772 1.0119 31.5719 1.20656C31.7944 1.37341 31.9612 1.76273 32.1281 2.2911L36.7999 20.7004L41.1381 2.2911C41.2771 1.73492 41.444 1.37341 41.6664 1.20656C41.8889 1.0397 42.2782 0.92847 42.7788 0.92847H45.0035C45.5318 0.92847 45.8934 1.0119 46.1158 1.20656C46.3383 1.37341 46.533 1.76273 46.6442 2.2911L51.038 20.9229L55.8489 2.2911C56.0157 1.73492 56.2104 1.37341 56.405 1.20656C56.6275 1.0397 56.989 0.92847 57.4896 0.92847H60.0758C60.5207 0.92847 60.771 1.15094 60.771 1.62369C60.771 1.76273 60.7432 1.90177 60.7154 2.06863C60.6876 2.23548 60.632 2.45795 60.5207 2.76384L53.8188 24.26C53.652 24.8161 53.4573 25.1776 53.2348 25.3445C53.0124 25.5113 52.6509 25.6226 52.1781 25.6226H49.7866C49.2582 25.6226 48.8967 25.5392 48.6742 25.3445C48.4518 25.1498 48.2571 24.7883 48.1459 24.2321L43.8355 6.29554L39.553 24.2043C39.4139 24.7605 39.2471 25.122 39.0246 25.3167C38.8021 25.5113 38.4128 25.5948 37.9123 25.5948H35.5207ZM71.2549 26.3456C69.8088 26.3456 68.3628 26.1788 66.9723 25.845C65.5819 25.5113 64.4974 25.1498 63.7743 24.7327C63.3294 24.4824 63.0235 24.2043 62.9123 23.9541C62.801 23.7038 62.7454 23.4257 62.7454 23.1754V21.7572C62.7454 21.1732 62.9679 20.8951 63.385 20.8951C63.5519 20.8951 63.7187 20.9229 63.8856 20.9785C64.0524 21.0341 64.3027 21.1454 64.5808 21.2566C65.5263 21.6737 66.5552 22.0075 67.6397 22.2299C68.7521 22.4524 69.8366 22.5636 70.949 22.5636C72.7009 22.5636 74.0635 22.2577 75.009 21.6459C75.9545 21.0341 76.4551 20.1443 76.4551 19.0041C76.4551 18.2255 76.2048 17.5859 75.7043 17.0575C75.2037 16.5291 74.2582 16.0564 72.8956 15.6115L68.8633 14.3601C66.8333 13.7205 65.3316 12.775 64.4139 11.5236C63.4962 10.3 63.0235 8.93737 63.0235 7.49132C63.0235 6.32335 63.2738 5.29443 63.7743 4.40455C64.2749 3.51468 64.9423 2.73603 65.7766 2.12424C66.6108 1.48464 67.5563 1.0119 68.6687 0.678192C69.781 0.344488 70.949 0.205444 72.1726 0.205444C72.7843 0.205444 73.424 0.233253 74.0357 0.316679C74.6753 0.400105 75.2593 0.51134 75.8433 0.622574C76.3995 0.761618 76.9278 0.900661 77.4284 1.06751C77.9289 1.23437 78.3183 1.40122 78.5964 1.56807C78.9857 1.79054 79.2638 2.01301 79.4306 2.26329C79.5975 2.48576 79.6809 2.79165 79.6809 3.18097V4.48798C79.6809 5.07196 79.4584 5.37786 79.0413 5.37786C78.8188 5.37786 78.4573 5.26662 77.9846 5.04415C76.3995 4.32113 74.6197 3.95962 72.6453 3.95962C71.0602 3.95962 69.8088 4.20989 68.9467 4.73826C68.0847 5.26662 67.6397 6.07308 67.6397 7.21323C67.6397 7.99187 67.9178 8.65928 68.474 9.18765C69.0302 9.71601 70.0591 10.2444 71.533 10.7171L75.4818 11.9685C77.484 12.6081 78.9301 13.498 79.7921 14.6381C80.6542 15.7783 81.0713 17.0853 81.0713 18.5314C81.0713 19.7271 80.8211 20.8117 80.3483 21.7572C79.8477 22.7027 79.1803 23.5369 78.3183 24.2043C77.4562 24.8996 76.4273 25.4001 75.2315 25.7616C73.9801 26.1509 72.6731 26.3456 71.2549 26.3456Z" fill="white"/>
<path fill-rule="evenodd" clip-rule="evenodd" d="M76.5109 39.8606C67.3618 46.6181 54.0692 50.2054 42.6399 50.2054C26.6221 50.2054 12.1894 44.2822 1.28839 34.4379C0.426316 33.6593 1.20496 32.6025 2.23388 33.2143C14.0248 40.0553 28.5687 44.1988 43.6132 44.1988C53.7634 44.1988 64.9146 42.0853 75.176 37.7471C76.7055 37.0519 78.0125 38.7483 76.5109 39.8606Z" fill="#FF9900"/>
<path fill-rule="evenodd" clip-rule="evenodd" d="M80.3203 35.5225C79.1523 34.0208 72.5895 34.7995 69.6139 35.161C68.724 35.2722 68.585 34.4936 69.3915 33.9096C74.6195 30.2388 83.2124 31.2956 84.2135 32.5191C85.2146 33.7705 83.9354 42.3634 79.0411 46.4791C78.2902 47.1187 77.5672 46.785 77.9009 45.9507C79.0133 43.1977 81.4882 36.9963 80.3203 35.5225Z" fill="#FF9900"/>
</g>
<defs>
<clipPath id="clip0_2611_4612">
<rect width="85.3242" height="50" fill="white" transform="translate(0.160156 0.205444)"/>
</clipPath>
</defs>
</svg>
