<svg width="53" height="51" viewBox="0 0 53 51" fill="none" xmlns="http://www.w3.org/2000/svg">
<g clip-path="url(#clip0_2611_4691)">
<path fill-rule="evenodd" clip-rule="evenodd" d="M26.5039 0.966919C12.3702 0.966919 0.90625 12.4285 0.90625 26.5693C0.90625 37.8781 8.24065 47.4733 18.4135 50.8597C19.6935 51.0941 20.1615 50.3029 20.1615 49.6261C20.1615 49.0181 20.1375 47.4085 20.1247 45.2709C13.0047 46.8189 11.5007 41.8405 11.5007 41.8405C10.3383 38.8829 8.65985 38.0949 8.65985 38.0949C6.33505 36.5061 8.83585 36.5397 8.83585 36.5397C11.4054 36.7205 12.7559 39.1765 12.7559 39.1765C15.0407 43.0901 18.7495 41.9605 20.2079 41.3045C20.4399 39.6485 21.1014 38.5205 21.8319 37.8805C16.1479 37.2357 10.1719 35.0389 10.1719 25.2285C10.1719 22.4349 11.1695 20.1485 12.8071 18.3597C12.5431 17.7117 11.6646 15.1117 13.0582 11.5869C13.0582 11.5869 15.2079 10.8989 20.0982 14.2109C22.1399 13.6429 24.3302 13.3597 26.5063 13.3501C28.6823 13.3597 30.8719 13.6437 32.9159 14.2117C37.8039 10.8997 39.9478 11.5877 39.9478 11.5877C41.3462 15.1117 40.4679 17.7141 40.2039 18.3621C41.8455 20.1525 42.8358 22.4381 42.8358 25.2317C42.8358 35.0661 36.8494 37.2317 31.1478 37.8637C32.0662 38.6557 32.8839 40.2157 32.8839 42.6053C32.8839 46.0277 32.8534 48.7893 32.8534 49.6293C32.8534 50.3117 33.315 51.1093 34.6134 50.8589C44.7783 47.4645 52.1063 37.8741 52.1063 26.5685C52.1063 12.4293 40.6438 0.966919 26.5039 0.966919Z" fill="white"/>
</g>
<defs>
<clipPath id="clip0_2611_4691">
<rect width="51.2" height="50" fill="white" transform="translate(0.90625 0.906128)"/>
</clipPath>
</defs>
</svg>
