<svg width="51" height="51" viewBox="0 0 51 51" fill="none" xmlns="http://www.w3.org/2000/svg">
<g clip-path="url(#clip0_2611_4619)">
<path d="M44.479 1.77933C44.0737 0.968797 43.259 0.443604 42.2748 0.443604H38.3875C37.2834 0.443604 36.415 0.906766 36.0097 1.72144L30.2656 10.0749L35.257 16.9231L44.0199 4.38877C45 3.23086 44.6527 2.18874 44.479 1.77933Z" fill="#74BB11"/>
<path d="M14.3047 1.66339C13.4363 0.501342 12.2742 0.501343 11.869 0.501343H8.0975C7.10914 0.501343 6.3565 0.964505 5.95123 1.72128C5.54596 2.53182 5.60386 3.46228 6.18282 4.33071L20.1687 23.7092L4.09444 46.1644C3.51549 47.0328 3.45759 47.9632 3.86286 48.7159C4.26813 49.4685 5.0828 49.9358 6.00913 49.9358H9.8964C10.8848 49.9358 11.7532 49.4148 12.2164 48.6001L30.2053 23.7671L14.3047 1.66339Z" fill="#009CD9"/>
<path d="M46.3971 46.3423L35.1406 30.9091L30.207 37.6994L39.0857 49.5349L39.3173 49.6507C39.7226 49.8243 40.0699 49.8822 40.4214 49.8822H44.1929C45.1234 49.8822 45.876 49.477 46.3392 48.7781C46.8603 48.1412 46.8603 47.2149 46.3971 46.3423Z" fill="#EB2084"/>
</g>
<defs>
<clipPath id="clip0_2611_4619">
<rect width="50" height="50" fill="white" transform="translate(0.152344 0.205444)"/>
</clipPath>
</defs>
</svg>
