<svg width="53" height="52" viewBox="0 0 53 52" fill="none" xmlns="http://www.w3.org/2000/svg">
<g clip-path="url(#clip0_2611_4437)">
<path d="M9.64692 0.653809H43.3624C48.4742 0.653809 52.607 4.78668 52.607 9.89839V42.3088C52.607 47.4205 48.4742 51.5534 43.3624 51.5534H9.64692C4.53521 51.5534 0.402344 47.4205 0.402344 42.3088V9.89839C0.402344 4.78668 4.53521 0.653809 9.64692 0.653809Z" fill="#001E36"/>
<path d="M12.1484 36.3485V13.9658C12.1484 13.8135 12.2137 13.7265 12.366 13.7265C12.7357 13.7265 13.0838 13.7265 13.5841 13.7048C14.1061 13.683 14.6499 13.683 15.2372 13.6613C15.8245 13.6395 16.4553 13.6395 17.1296 13.6178C17.8039 13.596 18.4565 13.596 19.1091 13.596C20.8927 13.596 22.3719 13.8135 23.59 14.2703C24.6776 14.6401 25.6782 15.2492 26.5047 16.054C27.2008 16.75 27.7446 17.5984 28.0926 18.5337C28.4189 19.4473 28.5929 20.3826 28.5929 21.3615C28.5929 23.2321 28.1579 24.7765 27.2878 25.9946C26.4177 27.2127 25.1996 28.1263 23.7857 28.6484C22.3066 29.1922 20.6752 29.3879 18.8915 29.3879C18.3695 29.3879 18.0215 29.3879 17.8039 29.3662C17.5864 29.3444 17.2819 29.3444 16.8686 29.3444V36.3268C16.8904 36.4791 16.7816 36.6096 16.6293 36.6313H12.4095C12.2354 36.6313 12.1484 36.5443 12.1484 36.3485ZM16.8904 17.9246V25.2333C17.1949 25.2551 17.4777 25.2768 17.7387 25.2768H18.8915C19.7399 25.2768 20.5882 25.1463 21.393 24.8853C22.0891 24.6895 22.6981 24.2762 23.1767 23.7324C23.6335 23.1886 23.851 22.4491 23.851 21.492C23.8727 20.8177 23.6987 20.1433 23.3507 19.556C22.9809 18.9905 22.4589 18.5555 21.8281 18.3162C21.0232 17.9899 20.1532 17.8594 19.2613 17.8811C18.6958 17.8811 18.1955 17.8811 17.7822 17.9029C17.3472 17.8811 17.0426 17.9029 16.8904 17.9246ZM42.1661 23.9064C41.5136 23.5584 40.8175 23.3191 40.0779 23.1669C39.2731 22.9929 38.4683 22.8841 37.6417 22.8841C37.2067 22.8623 36.7499 22.9276 36.3366 23.0364C36.0538 23.1016 35.8146 23.2539 35.6623 23.4714C35.5535 23.6454 35.4883 23.8629 35.4883 24.0587C35.4883 24.2545 35.5753 24.4502 35.7058 24.6242C35.9016 24.8635 36.1626 25.0593 36.4454 25.2115C36.9457 25.4726 37.4677 25.7118 37.9898 25.9294C39.1644 26.3209 40.2955 26.8647 41.3396 27.5173C42.0574 27.974 42.6447 28.5831 43.058 29.3227C43.406 30.0187 43.58 30.7801 43.5583 31.5631C43.58 32.5855 43.2755 33.6078 42.7099 34.4561C42.1009 35.3262 41.2525 36.0005 40.2737 36.3921C39.2079 36.8488 37.9027 37.0881 36.3366 37.0881C35.336 37.0881 34.3572 37.0011 33.3783 36.8053C32.617 36.6748 31.8557 36.4356 31.1596 36.1093C31.0074 36.0223 30.8986 35.87 30.9204 35.696V31.9111C30.9204 31.8459 30.9421 31.7589 31.0074 31.7154C31.0726 31.6719 31.1379 31.6936 31.2031 31.7371C32.0515 32.2374 32.9433 32.5855 33.9004 32.803C34.727 33.0205 35.597 33.1293 36.4671 33.1293C37.2937 33.1293 37.881 33.0205 38.2725 32.8247C38.6206 32.6725 38.8598 32.3027 38.8598 31.9111C38.8598 31.6066 38.6858 31.3238 38.3378 31.0411C37.9898 30.7583 37.2719 30.432 36.2061 30.0187C35.0967 29.6272 34.0744 29.1051 33.1173 28.4526C32.443 27.974 31.8775 27.3432 31.4642 26.6037C31.1161 25.9076 30.9421 25.1463 30.9639 24.385C30.9639 23.4496 31.2249 22.5578 31.7034 21.753C32.2472 20.8829 33.0521 20.1868 33.9874 19.7518C35.0097 19.2298 36.2931 18.9905 37.8375 18.9905C38.7293 18.9905 39.6429 19.0557 40.5347 19.1863C41.1873 19.2733 41.8181 19.4473 42.4054 19.6866C42.4924 19.7083 42.5794 19.7953 42.6229 19.8823C42.6447 19.9693 42.6664 20.0563 42.6664 20.1433V23.6889C42.6664 23.7759 42.6229 23.8629 42.5577 23.9064C42.3619 23.9499 42.2531 23.9499 42.1661 23.9064Z" fill="#31A8FF"/>
</g>
<defs>
<clipPath id="clip0_2611_4437">
<rect width="52.2047" height="50.91" fill="white" transform="translate(0.402344 0.648376)"/>
</clipPath>
</defs>
</svg>
