<svg width="63" height="51" viewBox="0 0 63 51" fill="none" xmlns="http://www.w3.org/2000/svg">
<g clip-path="url(#clip0_2611_4627)">
<path d="M42.1118 14.7105L47.5184 9.30389L47.8776 7.0283C38.0267 -1.93151 22.3662 -0.914348 13.4832 9.14761C11.0157 11.9414 9.18698 15.4261 8.21094 19.0259L10.1466 18.7517L20.9597 16.9696L21.7932 16.117C26.6021 10.8337 34.7367 10.1237 40.2886 14.6173L42.1118 14.7105Z" fill="#EA4335"/>
<path d="M55.2259 18.8641C53.9839 14.2882 51.4314 10.173 47.8837 7.02551L40.2947 14.6145C43.4998 17.2328 45.323 21.1753 45.2462 25.3125V26.6587C48.9749 26.6587 51.999 29.6827 51.999 33.4114C51.999 37.1401 48.9749 40.0902 45.2462 40.0902H31.7215L30.3945 41.5323V49.6339L31.7215 50.9061H45.2462C54.9463 50.9829 62.8725 43.2541 62.9492 33.554C62.9958 27.6731 60.0951 22.1596 55.2259 18.8641Z" fill="#4285F4"/>
<path d="M18.2103 50.9062H31.7185V40.093H18.2103C17.2534 40.093 16.3103 39.8846 15.4412 39.4871L13.5248 40.0738L8.07978 45.4804L7.60547 47.32C10.6597 49.6258 14.3856 50.9226 18.2103 50.9062Z" fill="#34A853"/>
<path d="M18.2121 15.8291C8.50927 15.8867 0.692741 23.7991 0.750316 33.502C0.783216 38.9195 3.31379 44.019 7.60726 47.3228L15.443 39.487C12.0433 37.9517 10.5326 33.9516 12.068 30.5519C13.6033 27.1522 17.6034 25.6416 21.0031 27.1769C22.5001 27.8541 23.7009 29.0522 24.3781 30.5519L32.2138 22.7162C28.8799 18.3569 23.6982 15.8099 18.2121 15.8291Z" fill="#FBBC05"/>
</g>
<defs>
<clipPath id="clip0_2611_4627">
<rect width="62.1977" height="50" fill="white" transform="translate(0.75 0.906128)"/>
</clipPath>
</defs>
</svg>
