<svg width="48" height="51" viewBox="0 0 48 51" fill="none" xmlns="http://www.w3.org/2000/svg">
<g clip-path="url(#clip0_2611_4695)">
<path d="M43.5658 0.906767C43.6876 0.899073 43.8031 0.961338 43.8637 1.06728C43.9242 1.17322 43.9192 1.30438 43.8507 1.40538L31.5278 18.1447C31.4374 18.2466 31.3078 18.305 31.1716 18.305C31.0354 18.305 30.9058 18.2466 30.8154 18.1447L26.4703 13.301C26.3642 13.1908 26.2138 13.1348 26.0615 13.1486C25.9091 13.1625 25.7713 13.2447 25.6868 13.3722L23.0512 16.7201C22.9679 16.9086 22.9953 17.1277 23.1225 17.2899L30.9579 25.4103C31.0482 25.5122 31.1779 25.5706 31.3141 25.5706C31.4502 25.5706 31.5799 25.5122 31.6702 25.4103L47.0561 8.10111C47.147 8.00348 47.2878 7.97032 47.4126 8.01715C47.5375 8.06397 47.6217 8.18152 47.626 8.3148V50.4124C47.6319 50.5085 47.5962 50.6026 47.5281 50.6707C47.46 50.7388 47.366 50.7744 47.2698 50.7685H0.399755C0.303611 50.7744 0.209556 50.7388 0.141443 50.6707C0.0733313 50.6026 0.0377049 50.5085 0.0435997 50.4124V1.26292C0.0377049 1.16678 0.0733313 1.07272 0.141443 1.00461C0.209556 0.936499 0.303611 0.900872 0.399755 0.906767H43.5658ZM31.4565 29.328C29.3359 29.2907 27.2921 30.1216 25.7991 31.6281C24.3061 33.1345 23.4936 35.1856 23.5499 37.3059C23.5499 42.2208 27.1114 45.355 31.7414 45.355C33.8847 45.4083 35.9865 44.7578 37.7249 43.503C37.886 43.3566 37.9163 43.1146 37.7961 42.9331L36.5139 41.0099C36.3698 40.8446 36.1245 40.8139 35.9441 40.9386C34.8297 41.6997 33.518 42.1204 32.1688 42.1496C29.6757 42.1496 28.1087 40.5825 27.8237 38.7305C27.8289 38.654 27.8898 38.5932 27.9662 38.588H38.7221C38.9514 38.5725 39.134 38.3899 39.1495 38.1606V37.7332C39.1495 32.7471 36.0153 29.328 31.4565 29.328ZM20.8431 26.6212C18.6796 24.8527 15.942 23.9402 13.1501 24.0569C8.30641 24.0569 5.3147 26.9061 5.3147 30.3252C5.3147 38.0894 17.1391 35.5963 17.1391 39.2291C17.1391 40.3688 15.9994 41.5085 13.5775 41.5085C11.2774 41.5275 9.05818 40.6602 7.3804 39.0866C7.28024 38.993 7.14454 38.9471 7.0081 38.9608C6.87165 38.9744 6.74773 39.0462 6.66809 39.1579L4.81608 41.7222C4.69591 41.9037 4.72617 42.1457 4.88732 42.292C6.81056 44.0728 9.51734 45.2837 13.2926 45.2837C18.8486 45.2837 21.5554 42.4345 21.6979 38.7305C21.6979 31.0375 9.87349 33.2457 9.87349 29.9691C9.87349 28.7581 10.942 27.9034 12.794 27.9034C14.8355 27.8754 16.8238 28.5549 18.4212 29.8266C18.5151 29.9035 18.6361 29.9393 18.7568 29.9259C18.8774 29.9125 18.9876 29.851 19.0623 29.7554L20.9143 27.2623C20.9913 27.1684 21.0271 27.0474 21.0137 26.9267C21.0003 26.8061 20.9388 26.6959 20.8431 26.6212ZM31.5278 32.4621C33.4652 32.3538 35.1377 33.8054 35.303 35.7388C35.2978 35.8152 35.237 35.8761 35.1605 35.8812H27.895C27.8185 35.8761 27.7577 35.8152 27.7525 35.7388C27.9907 33.8434 29.6177 32.4312 31.5278 32.4621Z" fill="#2CB134"/>
</g>
<defs>
<clipPath id="clip0_2611_4695">
<rect width="47.5836" height="50" fill="white" transform="translate(0.0429688 0.906128)"/>
</clipPath>
</defs>
</svg>
