<svg width="51" height="51" viewBox="0 0 51 51" fill="none" xmlns="http://www.w3.org/2000/svg">
<path d="M11.7969 23.1155C11.8748 23.0461 11.9609 22.9862 12.0531 22.9374C11.9581 22.9815 11.8714 23.0418 11.7969 23.1155Z" fill="#F0D6B7"/>
<path d="M16.4476 29.4265C16.5414 30.0843 16.8226 35.9327 20.7695 39.1921C21.5715 39.3171 22.3793 39.4016 23.1898 39.4452C23.6273 38.5077 25.2398 38.5796 26.2914 38.8202C24.973 38.147 23.8138 37.1998 22.8914 36.0421C21.6635 34.9699 20.8498 33.5016 20.5914 31.8921C22.6976 34.814 24.4382 37.3609 28.2679 38.6515C31.1664 39.6234 34.5507 38.2062 36.7773 36.6421C37.6353 35.8976 38.3571 35.0094 38.9101 34.0171C41.435 29.9992 42.6093 25.2794 42.2617 20.5468C42.3328 18.7193 42.068 16.8943 41.4804 15.1624C40.7726 13.7437 38.3804 12.4749 36.9804 13.7562C36.9573 13.6294 36.9489 13.5005 36.9554 13.3718C36.732 13.5812 36.5961 13.7343 36.5961 13.7343C36.48 13.4968 36.415 13.2376 36.4054 12.9734C36.4254 12.3581 36.6787 11.7735 37.114 11.3382C37.5493 10.9029 38.1339 10.6495 38.7492 10.6296C38.0832 9.72279 37.3069 8.90242 36.4382 8.18743C33.3912 7.14622 30.105 7.02557 26.9898 7.84056C24.8304 8.30476 22.8311 9.32872 21.1925 10.8097C19.5538 12.2906 18.3335 14.1765 17.6539 16.2781C17.3559 17.4382 17.1531 18.6208 17.0476 19.814C16.9992 21.1952 17.6976 22.3999 17.7507 23.9031C17.3773 24.5187 16.2367 24.5952 15.4476 24.5531C15.3898 24.2609 15.3195 23.9609 15.2351 23.6687C14.6136 23.3222 13.949 23.0595 13.2586 22.8874C13.8641 23.1351 14.3584 23.5954 14.6487 24.1817C14.9389 24.768 15.0052 25.4401 14.8351 26.0718C14.2523 25.739 14.1132 24.2749 13.4289 24.2327C12.4507 24.1734 12.6289 26.1327 12.6336 27.2796C12.2949 26.7757 12.09 26.194 12.0381 25.5891C11.9861 24.9842 12.0889 24.376 12.3367 23.8218C11.8929 23.6046 11.6429 23.9171 11.3992 24.1609C11.0523 25.7796 10.5445 27.0874 11.4961 28.7234C11.7676 29.0388 12.1081 29.2875 12.4913 29.4501C12.8744 29.6127 13.2899 29.6848 13.7054 29.6609C14.5914 29.5734 14.8086 28.6859 15.7742 28.6952C15.9523 28.7236 16.1157 28.8112 16.238 28.9439C16.3602 29.0766 16.434 29.2466 16.4476 29.4265ZM26.5242 32.4687L26.0554 32.3734C26.0554 32.3734 25.5648 30.6546 25.8007 30.3327C25.9257 30.1656 26.6132 29.914 27.5757 30.3765C27.5695 30.3781 26.4289 30.5687 26.5242 32.4687ZM35.4398 34.564C33.7028 35.1531 31.8188 35.1454 30.0867 34.5421C29.2718 33.9451 28.5893 33.186 28.082 32.3124C27.8398 31.9999 26.6336 31.2062 28.0632 31.2046C29.1836 34.0171 33.032 33.6921 36.2773 33.6156C36.1277 34.0264 35.8286 34.3641 35.4398 34.564ZM35.9086 32.064C35.835 31.5128 35.835 30.9543 35.9086 30.4031C37.5528 30.0818 39.1218 29.4536 40.5336 28.5515C40.1819 29.5197 39.5583 30.3658 38.7377 30.9883C37.917 31.6108 36.9341 31.9832 35.907 32.0609L35.9086 32.064ZM40.2148 19.4499C39.9289 19.5452 38.0742 20.6406 38.2179 19.2593C38.2906 18.8525 38.4813 18.476 38.7664 18.1768C39.0514 17.8775 39.4182 17.6688 39.8211 17.5765C39.8073 17.3684 39.8073 17.1596 39.8211 16.9515H39.9445C40.4645 18.1884 41.0766 19.3844 41.7757 20.5296C41.2804 21.6827 38.0257 22.7015 38.0789 20.6327C38.782 20.3202 39.9961 20.5702 40.6195 20.1781C40.4726 19.7765 40.307 19.3968 40.1507 18.9968L40.2148 19.4499ZM32.1101 26.8718C32.138 26.922 32.1621 26.9742 32.182 27.0281C32.3242 26.2359 32.5867 25.3093 33.0382 25.4452C33.2577 25.5064 33.4519 25.6362 33.5924 25.8155C33.733 25.9948 33.8125 26.2144 33.8195 26.4421C33.2932 26.7827 32.7976 27.1686 32.3382 27.5952C32.4398 28.064 32.5632 28.5327 33.1554 28.639C34.8836 28.9343 36.8945 27.5812 38.1383 27.1093C38.9086 25.8093 38.0711 25.3312 37.3773 24.4952C35.9554 22.7765 34.0492 20.6577 34.1179 18.089C34.6929 17.6718 34.7429 18.7249 34.8242 18.9171C35.8793 20.9147 37.2177 22.7493 38.7976 24.364C39.132 24.7296 39.6836 25.0812 39.7445 25.3234C39.9211 26.0281 39.2851 26.8718 39.3586 27.339C37.3787 28.8978 34.8958 29.6761 32.3804 29.5265C32.0271 29.1875 31.8056 28.7341 31.7555 28.247C31.7054 27.7599 31.83 27.2709 32.107 26.8671L32.1101 26.8718ZM35.1695 30.4984C35.2687 31.0451 35.3085 31.6009 35.2882 32.1562C32.4586 32.2968 29.1132 31.5968 28.3711 29.6109C30.5468 30.3905 32.8652 30.6916 35.1679 30.4937L35.1695 30.4984ZM28.5195 16.9859C28.8827 18.0094 29.3972 18.9727 30.0461 19.8437C30.4023 20.1906 31.0929 20.6124 30.7507 21.5765C30.5086 21.9498 30.1588 22.2407 29.7476 22.4109C28.5132 22.7749 25.6367 22.4859 26.6101 20.9468C27.6304 20.9937 29.0039 21.6093 29.7664 20.8687C29.6179 20.6312 29.4398 20.3359 29.2632 20.0077C28.482 20.5015 26.3351 20.5234 26.3351 19.2593C26.3351 17.9281 28.4273 17.6437 28.4273 17.6437L28.4429 17.6812C28.4198 17.4452 28.4453 17.2069 28.5179 16.9812L28.5195 16.9859ZM23.482 12.4109C25.3492 11.1374 26.2945 11.864 26.7632 12.7046C26.8842 12.7523 26.9931 12.826 27.0824 12.9205C27.1717 13.015 27.2392 13.1279 27.28 13.2513C27.3208 13.3747 27.3341 13.5056 27.3188 13.6347C27.3034 13.7638 27.26 13.8879 27.1914 13.9984C24.6007 13.3952 23.3132 15.0827 22.5273 16.8327C22.3257 17.1984 22.3148 16.939 22.1992 16.6202C22.1541 16.5562 22.1218 16.484 22.1039 16.4077C22.0649 16.3384 22.0165 16.2748 21.9601 16.2187C21.5851 15.8327 21.3898 13.8374 23.482 12.4109Z" fill="#F0D6B7"/>
<path d="M9.99844 46.6562H23.675C23.6125 46.4452 23.5516 46.2374 23.4906 46.0405C23.1594 45.0481 22.9106 44.0301 22.7469 42.9968C21.0701 42.2701 19.4567 41.4051 17.9234 40.4108C17.7886 40.2865 17.6632 40.1523 17.5484 40.0093L9.32031 43.6858C9.32031 43.6858 9.61563 44.864 9.99844 46.6562Z" fill="#335061"/>
<path d="M14.918 11.8437C15.1553 11.7707 15.4001 11.7246 15.6477 11.7062C16.0343 11.7594 16.4252 11.7746 16.8148 11.7515C17.5867 11.5593 18.2398 9.82803 18.8227 9.18271C19.2906 8.75245 19.7815 8.3477 20.293 7.97021C18.1595 8.70497 16.29 10.0523 14.918 11.8437Z" fill="#6D6B6D"/>
<path d="M11.3928 20.5717C11.8863 20.3109 12.4371 20.1773 12.9953 20.1831C13.5535 20.1889 14.1015 20.3339 14.5895 20.605C15.0775 20.876 15.4901 21.2646 15.79 21.7355C16.0899 22.2063 16.2675 22.7446 16.3068 23.3014C17.3912 23.2733 16.7115 21.9483 16.5162 21.0936C15.9396 18.5811 17.2771 15.8749 16.8162 13.4983C10.7756 14.4014 11.1162 19.0405 11.3928 20.5717Z" fill="#6D6B6D"/>
<path d="M20.8828 6.9233C18.0391 7.72955 14.3953 9.79517 13.2266 12.3499C13.8033 12.2246 14.3695 12.0554 14.9203 11.8436C16.2923 10.0522 18.1619 8.70493 20.2953 7.97017C20.3841 7.88961 20.4671 7.80294 20.5437 7.7108C20.8437 7.56549 21.2875 7.57642 21.3047 7.12486C21.175 6.9858 21.0375 6.87955 20.8828 6.9233Z" fill="#DCD9D8"/>
<path d="M11.8973 14.9452C10.6473 16.328 10.9036 18.9171 11.0567 20.7593C11.1668 20.6907 11.2805 20.6281 11.3973 20.5718C11.1161 19.0421 10.7817 14.4015 16.8208 13.4983C16.7705 13.2353 16.6962 12.9775 16.5989 12.728C14.8023 12.8248 13.1149 13.6206 11.8973 14.9452Z" fill="#DCD9D8"/>
<path d="M16.4492 29.4264C16.4365 29.249 16.3651 29.0809 16.2463 28.9485C16.1275 28.8161 15.968 28.727 15.793 28.6952C16.3164 29.7389 14.9867 30.0671 14.8555 30.8124C14.8727 31.2516 14.9382 31.6875 15.0508 32.1124C15.5138 33.9756 16.2764 35.7513 17.3086 37.3702C17.7332 37.8931 18.2596 38.3242 18.8559 38.6373C19.4522 38.9505 20.1059 39.1393 20.7773 39.1921C16.8242 35.9343 16.543 30.0843 16.4492 29.4264Z" fill="#F7E4CD"/>
<path d="M33.8133 26.4342C33.8063 26.2065 33.7268 25.9869 33.5862 25.8076C33.4457 25.6282 33.2515 25.4985 33.032 25.4373C32.5805 25.3092 32.318 26.228 32.1758 27.0201C32.2428 27.2048 32.295 27.3944 32.332 27.5873C32.7914 27.1607 33.287 26.7748 33.8133 26.4342Z" fill="#F7E4CD"/>
<path d="M38.2188 19.2562C38.0751 20.6374 39.9376 19.5421 40.2157 19.4468L40.1485 18.9999C39.971 18.5428 39.861 18.0622 39.822 17.5734C39.4191 17.6656 39.0523 17.8744 38.7673 18.1736C38.4822 18.4729 38.2915 18.8493 38.2188 19.2562Z" fill="#F7E4CD"/>
<path d="M26.3359 19.2561C26.3359 20.5202 28.4781 20.4983 29.2641 20.0046C28.8408 19.2903 28.562 18.4998 28.4437 17.678L28.4281 17.6405C28.4281 17.6405 26.3359 17.9249 26.3359 19.2561Z" fill="#F7E4CD"/>
<path d="M11.4188 24.1639C11.3597 24.2273 11.2943 24.2844 11.2234 24.3342C11.2609 23.8706 11.4665 23.4366 11.8016 23.1139C11.8757 23.0409 11.9619 22.9812 12.0563 22.9374C12.2455 22.8454 12.4517 22.7936 12.662 22.785C12.8722 22.7764 13.082 22.8112 13.2781 22.8874C13.9686 23.0594 14.6332 23.3221 15.2547 23.6686C14.9531 22.6311 14.4359 21.6952 13.3672 21.578C12.9377 21.5426 12.5056 21.5949 12.097 21.7318C11.6884 21.8686 11.3118 22.0871 10.9903 22.374C10.6688 22.6609 10.409 23.0102 10.2266 23.4006C10.0443 23.791 9.94327 24.2145 9.92969 24.6452C9.93007 26.1536 10.496 27.6071 11.5156 28.7186C10.5625 27.0905 11.0719 25.7827 11.4188 24.1639Z" fill="#F7E4CD"/>
<path d="M27.0008 7.84836C30.116 7.03338 33.4022 7.15403 36.4492 8.19524C36.2066 8.00583 35.9507 7.83404 35.6836 7.68118C32.732 6.01555 27.7367 4.76399 24.5898 6.32805C22.057 7.59055 18.632 9.68118 17.4648 12.3296C17.9443 13.5951 18.0115 14.9798 17.657 16.2859C18.3373 14.1833 19.5588 12.2968 21.1989 10.8158C22.839 9.33474 24.84 8.31134 27.0008 7.84836Z" fill="#F7E4CD"/>
<path d="M36.4102 12.9811C36.4198 13.2453 36.4847 13.5045 36.6008 13.742C36.6008 13.742 36.7367 13.5858 36.9602 13.3795C37.0086 12.2326 38.3117 11.5795 39.8227 12.0264C39.4758 11.5795 39.1242 11.1061 38.7586 10.6373C38.1425 10.6561 37.5567 10.9089 37.1204 11.3443C36.6841 11.7797 36.4301 12.365 36.4102 12.9811Z" fill="#F7E4CD"/>
<path d="M22.1992 16.6217C22.3148 16.9342 22.3273 17.1998 22.5273 16.8342C22.3954 16.8065 22.2785 16.7308 22.1992 16.6217Z" fill="#F7E4CD"/>
<path d="M22.1059 16.4092C22.0607 16.0057 22.1221 15.5973 22.284 15.2249C22.599 14.4475 23.1297 13.7763 23.8134 13.2905C24.4972 12.8046 25.3056 12.5244 26.1434 12.4827C26.3638 12.5177 26.5757 12.5934 26.7684 12.7061C26.2996 11.8655 25.3621 11.1436 23.4871 12.4124C21.3965 13.8389 21.5856 15.8342 21.9668 16.2155C22.0219 16.2733 22.0687 16.3385 22.1059 16.4092Z" fill="#F7E4CD"/>
<path d="M9.31875 43.6858L17.5469 40.0092C16.9437 39.3092 15.8609 37.978 15.6719 38.0452C12.5138 39.4491 9.56415 41.2814 6.90625 43.4905C7.38475 44.5222 7.80724 45.5789 8.17187 46.6561H9.99688C9.61406 44.8639 9.31875 43.6858 9.31875 43.6858Z" fill="#49728B"/>
<path d="M42.3664 46.6983C42.7065 45.6417 42.9922 44.5684 43.2227 43.4827C43.2789 43.1999 43.3883 42.7405 43.4664 42.3014L38.957 38.9514C39.826 40.8763 39.899 43.0667 39.1602 45.0452C39.3164 45.6264 39.8695 45.8499 40.0977 46.3733C40.0445 46.467 39.9914 46.5592 39.9414 46.653H42.2477C42.2907 46.6568 42.3318 46.6725 42.3664 46.6983Z" fill="#335061"/>
<path d="M37.082 38.3217C37.3288 38.192 37.6072 38.1346 37.8852 38.1561L37.5133 37.8795C37.3501 38.0066 37.205 38.1554 37.082 38.3217Z" fill="#335061"/>
<path d="M43.5492 41.3421C43.4336 40.5031 42.2992 39.8812 41.718 39.364C40.6492 38.4062 39.9805 37.5624 38.8695 36.6671C38.4728 37.1298 38.0162 37.5376 37.5117 37.8796L37.8836 38.1562C38.1129 38.1939 38.3298 38.2859 38.5163 38.4245C38.7027 38.5631 38.8533 38.7443 38.9555 38.9531L43.4617 42.3015C43.5331 41.987 43.5625 41.6644 43.5492 41.3421Z" fill="#49728B"/>
<path d="M32.3242 46.5311C32.3254 46.571 32.3301 46.6107 32.3383 46.6498H33.0867C33.0867 46.5118 33.1415 46.3795 33.2391 46.2819C33.3367 46.1843 33.469 46.1295 33.607 46.1295C33.745 46.1295 33.8774 46.1843 33.9749 46.2819C34.0725 46.3795 34.1273 46.5118 34.1273 46.6498H35.3367V46.603C34.9086 46.378 33.9727 45.892 33.4617 45.6764C32.7992 45.3983 32.3242 46.5311 32.3242 46.5311Z" fill="white"/>
<path d="M32.3242 46.5312C32.3242 46.5312 32.793 45.3905 33.4648 45.6749C33.968 45.8905 34.9039 46.3765 35.3398 46.6015C35.3555 46.2577 35.3711 45.914 35.393 45.5702C34.4273 45.6312 33.8914 44.6968 33.2148 44.6249C32.6242 44.5608 32.1211 45.3046 31.3555 44.9827C31.1789 45.1765 31.0195 45.3874 30.8398 45.578C31.1181 45.9174 31.3733 46.275 31.6039 46.6483H32.3477C32.3364 46.61 32.3286 46.5708 32.3242 46.5312Z" fill="#DCD9D8"/>
<path d="M22.8519 40.2327C21.643 40.2294 20.4437 40.018 19.3065 39.6077C19.2618 39.6508 19.2267 39.703 19.2035 39.7607C19.1804 39.8184 19.1697 39.8804 19.1722 39.9425C19.1747 40.0047 19.1904 40.0656 19.2181 40.1212C19.2458 40.1769 19.285 40.2261 19.3331 40.2655C20.398 40.7271 21.5244 41.0313 22.6769 41.1686C22.7895 40.8693 22.8488 40.5525 22.8519 40.2327Z" fill="white"/>
<path d="M22.6117 41.639C22.6137 41.4807 22.6352 41.3232 22.6758 41.1702C21.5233 41.033 20.3969 40.7287 19.332 40.2671C20.2797 41.0148 21.4139 41.4892 22.6117 41.639Z" fill="#DCD9D8"/>
<path d="M38.6392 44.1765C38.7441 43.7315 38.7825 43.2734 38.7532 42.8171C38.7203 42.0908 38.6156 41.3696 38.4407 40.664C37.9146 40.6002 37.3816 40.6261 36.8642 40.7405C36.3954 40.8358 35.9126 40.9311 35.8188 41.5015C35.7251 42.0718 36.0095 42.3577 35.7235 42.8327C35.4376 43.3077 34.9626 43.0233 34.4876 43.3015C34.1642 43.4952 34.3688 43.9968 34.5329 44.2983C35.7943 44.5852 37.0817 44.7423 38.3751 44.7671C38.5003 44.5891 38.59 44.3885 38.6392 44.1765Z" fill="#D33833"/>
<path d="M24.4961 46.5608C24.5211 46.628 24.5477 46.6983 24.5695 46.7608C24.5914 46.8233 24.6148 46.9061 24.6352 46.978L24.6211 46.7952L24.4961 46.5608Z" fill="#D33833"/>
<path d="M30.7452 44.5389C30.7556 44.2639 30.7666 43.9894 30.778 43.7155C30.2815 43.8689 29.7452 43.8276 29.278 43.5998C27.814 42.8014 29.1999 43.0373 28.6812 41.978C28.0879 41.6627 27.4377 41.4688 26.7687 41.4077C24.8499 41.4077 24.1124 41.0217 24.3187 43.2342C24.4265 44.4217 24.5233 45.6077 24.6171 46.7967C24.7733 47.0905 24.914 47.3545 25.0265 47.578C26.0299 47.4809 27.0037 47.1839 27.8905 46.7045C28.8808 46.0352 29.8338 45.3122 30.7452 44.5389Z" fill="#D33833"/>
<path d="M31.4727 43.4061C31.5055 43.5452 31.5398 43.7014 31.5727 43.8905C31.7136 43.9662 31.8694 44.01 32.029 44.0189C32.1887 44.0278 32.3484 44.0016 32.4969 43.9421C32.6453 43.8826 32.7789 43.7913 32.8883 43.6746C32.9976 43.5578 33.08 43.4186 33.1297 43.2665C33.1794 43.1145 33.1951 42.9534 33.1758 42.7947C33.1564 42.6359 33.1025 42.4833 33.0178 42.3476C32.9331 42.212 32.8197 42.0965 32.6856 42.0095C32.5514 41.9224 32.3998 41.8658 32.2414 41.8436C32.2935 42.1518 32.2472 42.4685 32.1092 42.749C31.9713 43.0294 31.7486 43.2593 31.4727 43.4061Z" fill="#D33833"/>
<path d="M34.4805 43.3077C34.9492 43.0217 35.432 43.3077 35.7164 42.8389C36.0008 42.3702 35.7164 42.078 35.8117 41.5077C35.907 40.9374 36.382 40.8421 36.857 40.7467C37.3744 40.6323 37.9075 40.6064 38.4336 40.6702C38.3722 40.2791 38.1806 39.9201 37.8898 39.6514C36.7227 38.9702 34.6773 40.9405 33.7258 41.3592L33.6367 41.3952C33.7777 41.6678 33.8702 41.9628 33.9102 42.2671C34.1206 42.215 34.3373 42.1929 34.5539 42.2014C34.6988 42.2072 34.843 42.2245 34.9852 42.253C35.0555 42.2671 35.1242 42.2842 35.193 42.303C35.3235 42.3396 35.4506 42.3877 35.5727 42.4467C35.1745 42.4629 34.7786 42.5152 34.3898 42.603C34.2785 42.6356 34.173 42.6857 34.0773 42.7514C34.0346 43.2189 34.0164 43.6883 34.0227 44.1577C34.1872 44.2046 34.3549 44.2483 34.5258 44.2889C34.3617 44.003 34.157 43.5014 34.4805 43.3077Z" fill="#EF3D3A"/>
<path d="M24.6352 46.9764C24.7148 47.2624 24.7836 47.5202 25.0305 47.578C24.918 47.353 24.7758 47.0889 24.6211 46.7968L24.6352 46.9764Z" fill="#EF3D3A"/>
<path d="M24.3204 43.2327C24.1189 41.0202 24.8517 41.4062 26.7704 41.4062C27.4395 41.4673 28.0897 41.6612 28.6829 41.9765C29.2017 43.0358 27.8157 42.7999 29.2798 43.5983C29.747 43.8261 30.2833 43.8674 30.7798 43.714V43.6155C30.3298 43.3896 29.8466 43.2366 29.3486 43.1624C29.1565 43.1334 28.963 43.1146 28.7689 43.1062C28.9145 43.036 29.0669 42.9805 29.2236 42.9405C29.7142 42.8634 30.191 42.7155 30.6392 42.5015C30.6392 42.378 30.6486 42.2546 30.6532 42.1327C30.5484 42.1243 30.4441 42.1102 30.3407 42.0905C30.2473 42.073 30.155 42.0501 30.0642 42.0218C29.9047 41.9713 29.7508 41.9048 29.6048 41.8233C29.3267 41.6671 29.0876 41.4858 28.7845 41.3202C27.6018 40.6856 26.335 40.2222 25.022 39.9437C23.5829 39.6687 23.5704 41.6702 23.6314 43.1452C23.6314 43.3015 23.6439 43.4452 23.6517 43.5827C23.7841 44.6094 24.0706 45.6103 24.5017 46.5515L24.6251 46.7858C24.5267 45.6077 24.4282 44.4202 24.3204 43.2327Z" fill="#EF3D3A"/>
<path d="M32.2403 41.8436C31.912 41.8506 31.5941 41.9598 31.3309 42.1561C31.3084 42.3704 31.3121 42.5865 31.3418 42.7999C31.359 42.9233 31.3856 43.0421 31.4168 43.1718L31.4653 43.3764V43.403C31.7418 43.2573 31.9654 43.0283 32.1045 42.7484C32.2436 42.4685 32.2911 42.152 32.2403 41.8436Z" fill="#EF3D3A"/>
<path d="M22.2824 15.2249C22.1205 15.5973 22.0591 16.0057 22.1043 16.4092C22.1222 16.4855 22.1545 16.5576 22.1996 16.6217C22.2788 16.7308 22.3958 16.8065 22.5277 16.8342C23.309 15.0842 24.6012 13.3967 27.1918 13.9999C27.2604 13.8894 27.3039 13.7653 27.3192 13.6362C27.3345 13.5071 27.3212 13.3762 27.2804 13.2528C27.2396 13.1294 27.1721 13.0165 27.0828 12.922C26.9935 12.8275 26.8846 12.7538 26.7637 12.7061C26.571 12.5934 26.3591 12.5177 26.1387 12.4827C25.3014 12.5249 24.4937 12.8055 23.8105 13.2913C23.1274 13.7771 22.5972 14.4479 22.2824 15.2249Z" fill="#231F20"/>
<path d="M38.0748 20.6358C38.0248 22.7046 41.2764 21.6858 41.7717 20.5327C41.0725 19.3875 40.4604 18.1915 39.9404 16.9546H39.817C39.8032 17.1627 39.8032 17.3715 39.817 17.5796C39.8561 18.0684 39.9661 18.549 40.1435 19.0062C40.292 19.4062 40.4638 19.7874 40.6123 20.1874C39.992 20.5733 38.7748 20.328 38.0748 20.6358Z" fill="#231F20"/>
<path d="M29.7639 20.8639C29.0014 21.6045 27.628 20.9889 26.6077 20.942C25.6343 22.4811 28.5108 22.7701 29.7452 22.4061C30.1564 22.236 30.5062 21.945 30.7483 21.5717C31.0905 20.6076 30.3999 20.1858 30.0436 19.8389C29.3948 18.9679 28.8802 18.0046 28.5171 16.9811C28.4446 17.2052 28.4185 17.4418 28.4405 17.6764C28.5588 18.4982 28.8375 19.2887 29.2608 20.003C29.4389 20.3311 29.6155 20.6264 29.7639 20.8639Z" fill="#231F20"/>
<path d="M32.3742 29.5233C34.8896 29.673 37.3725 28.8946 39.3523 27.3358C39.2788 26.8671 39.9148 26.0233 39.7382 25.3202C39.6773 25.078 39.1257 24.7264 38.7913 24.3608C37.2114 22.7461 35.8731 20.9115 34.8179 18.9139C34.7351 18.7218 34.6851 17.6639 34.1117 18.0858C34.0429 20.6514 35.9492 22.7733 37.371 24.4921C38.0648 25.328 38.9023 25.8061 38.132 27.1061C36.882 27.5749 34.8773 28.9327 33.1492 28.6358C32.557 28.5343 32.4335 28.0655 32.332 27.5921C32.295 27.3992 32.2427 27.2095 32.1757 27.0249C32.1558 26.971 32.1318 26.9188 32.1038 26.8686C31.8277 27.2716 31.7033 27.7595 31.7528 28.2455C31.8023 28.7315 32.0225 29.1843 32.3742 29.5233Z" fill="#231F20"/>
<path d="M12.0531 22.9374C11.9638 22.9853 11.8805 23.0435 11.8047 23.1108C11.4697 23.4335 11.2641 23.8675 11.2266 24.3311C11.2974 24.2813 11.3628 24.2242 11.4219 24.1608C11.6609 23.917 11.9109 23.603 12.3594 23.8217C12.1116 24.376 12.0088 24.9841 12.0607 25.589C12.1127 26.1939 12.3176 26.7757 12.6562 27.2795C12.6562 26.1342 12.4734 24.1749 13.4516 24.2327C14.1359 24.2749 14.275 25.7389 14.8578 26.0717C15.0263 25.4389 14.9578 24.7663 14.6651 24.1805C14.3725 23.5946 13.8759 23.1359 13.2688 22.8905C13.0737 22.8147 12.8652 22.7798 12.6561 22.7879C12.447 22.7959 12.2418 22.8468 12.0531 22.9374Z" fill="#231F20"/>
<path d="M35.9107 30.3983C35.8371 30.9495 35.8371 31.508 35.9107 32.0592C36.9386 31.9815 37.9222 31.6085 38.7432 30.9851C39.5643 30.3617 40.1878 29.5144 40.5388 28.5452C39.1262 29.4482 37.5561 30.0769 35.9107 30.3983Z" fill="#231F20"/>
<path d="M35.2883 32.1562C35.3086 31.5983 35.2683 31.0398 35.168 30.4906C32.8656 30.69 30.5472 30.3905 28.3711 29.6124C29.1133 31.5999 32.4586 32.2999 35.2883 32.1562Z" fill="#231F20"/>
<path d="M28.0622 31.203C26.6325 31.203 27.8387 31.9999 28.0809 32.3108C28.5885 33.1851 29.2716 33.9448 30.0872 34.5421C31.8193 35.1454 33.7033 35.1531 35.4403 34.5639C35.8294 34.3637 36.1286 34.0238 36.2778 33.6124C33.0309 33.6905 29.1825 34.0139 28.0622 31.203Z" fill="#231F20"/>
<path d="M39.1812 46.6562C38.8124 46.067 38.2283 45.6449 37.5531 45.4796C37.0674 45.3817 36.563 45.4476 36.1188 45.6671C36.1063 45.9796 36.0906 46.3155 36.0703 46.6546L39.1812 46.6562Z" fill="#81B0C4"/>
<path d="M34.5078 39.5764C33.4359 39.6717 32.175 40.1592 30.9891 40.2311C30.8813 40.2311 30.7734 40.2405 30.6672 40.2405C30.5609 40.2405 30.4547 40.2405 30.3547 40.2249C30.147 40.2066 29.9417 40.1668 29.7422 40.1061C29.6422 40.0756 29.5441 40.0391 29.4484 39.9967C29.4484 40.078 29.3375 40.0483 29.3203 40.1155C29.4531 40.2186 29.5813 40.3124 29.7063 40.3952C29.8313 40.478 29.9547 40.5514 30.0781 40.6186C30.3132 40.7459 30.5623 40.8455 30.8203 40.9155C31.237 41.0196 31.6659 41.0669 32.0953 41.0561C32.2516 41.0561 32.4266 41.0561 32.6063 41.042C33.2547 40.5686 33.8297 40.017 34.5078 39.5764Z" fill="#F0D6B7"/>
<path d="M30.0016 46.2936L29.4531 46.6576H30.2766C30.187 46.5337 30.0953 46.4123 30.0016 46.2936Z" fill="#81B0C4"/>
<path d="M7.49528 47.4202V46.8968C7.49528 46.8334 7.52047 46.7725 7.5653 46.7277C7.61013 46.6829 7.67094 46.6577 7.73434 46.6577H8.17653C7.81189 45.5805 7.3894 44.5237 6.91091 43.4921C9.56881 41.283 12.5184 39.4506 15.6765 38.0468C15.8609 37.9733 16.9437 39.3108 17.5515 40.0108C17.6663 40.1538 17.7917 40.2881 17.9265 40.4124C19.4598 41.4067 21.0732 42.2716 22.75 42.9983C22.9137 44.0316 23.1625 45.0497 23.4937 46.0421C23.5547 46.2389 23.6156 46.4483 23.6781 46.6577H23.9312C23.9946 46.6577 24.0554 46.6829 24.1003 46.7277C24.1451 46.7725 24.1703 46.8334 24.1703 46.8968V47.1436H24.3875C24.4509 47.1436 24.5117 47.1688 24.5565 47.2136C24.6013 47.2585 24.6265 47.3193 24.6265 47.3827V47.7811H27.2687V47.3827C27.2687 47.3193 27.2939 47.2585 27.3387 47.2136C27.3836 47.1688 27.4444 47.1436 27.5078 47.1436H28.7265V46.8968C28.7265 46.8334 28.7517 46.7725 28.7965 46.7277C28.8414 46.6829 28.9022 46.6577 28.9656 46.6577H29.4609L30.0093 46.2936C30.1031 46.4124 30.1948 46.5337 30.2843 46.6577H31.6015C31.3709 46.2843 31.1157 45.9268 30.8375 45.5874C31.0172 45.3968 31.1765 45.1874 31.3531 44.9921C32.1218 45.3139 32.6218 44.5702 33.2125 44.6343C33.889 44.7061 34.425 45.6405 35.3906 45.5796C35.3687 45.9233 35.3531 46.2671 35.3375 46.6108V46.6577H36.0781C36.0968 46.3186 36.114 45.9874 36.1265 45.6702C36.5707 45.4507 37.0752 45.3848 37.5609 45.4827C38.2361 45.648 38.8201 46.0701 39.189 46.6593H39.9406C39.9937 46.5655 40.0484 46.4733 40.0968 46.3796C39.8734 45.8561 39.3234 45.6343 39.1593 45.0514C39.8982 43.0729 39.8252 40.8826 38.9562 38.9577C38.8541 38.749 38.7035 38.5678 38.517 38.4291C38.3306 38.2905 38.1136 38.1985 37.8843 38.1608C37.6064 38.1394 37.328 38.1968 37.0812 38.3264C37.2037 38.1602 37.3483 38.0115 37.5109 37.8843C38.0154 37.5422 38.472 37.1344 38.8687 36.6718C39.9812 37.5671 40.6515 38.4093 41.7187 39.3671C42.2968 39.8858 43.4375 40.5077 43.55 41.3452C43.5643 41.6673 43.5359 41.9899 43.4656 42.3046C43.3859 42.7436 43.2781 43.203 43.2218 43.4858C42.9924 44.5705 42.7076 45.6427 42.3687 46.6983C42.4028 46.7191 42.431 46.7482 42.4507 46.7829C42.4704 46.8177 42.4809 46.8568 42.4812 46.8968V47.7811H43.0562C43.4593 46.5186 43.8547 45.2264 44.2531 43.8921C44.7071 42.8077 44.9602 41.6498 45 40.4749C44.8781 39.5108 43.375 38.4983 42.5828 37.7343C42.1437 37.3108 40.0937 35.7546 39.975 35.1718C39.8562 34.5889 40.8109 33.3311 41.1172 32.6936C41.5157 31.7902 41.8402 30.8559 42.0875 29.8999C43.7 24.2327 43.864 16.4452 41.5578 11.7874C40.289 9.71728 38.6465 7.90102 36.714 6.43113C33.1203 3.70926 26.4593 3.40769 22.1218 5.00457C20.9348 5.39081 19.7844 5.8818 18.6843 6.47176C15.8437 8.13738 12.8281 9.25301 11.9859 12.6093C9.91091 13.5468 9.28434 16.203 9.38903 19.278C9.53009 19.9078 9.60807 20.55 9.62184 21.1952C9.56403 21.4827 9.17497 21.8499 9.09684 22.0358C8.70196 23.2258 8.58243 24.4899 8.74726 25.7328C8.9121 26.9757 9.357 28.1649 10.0484 29.2108C10.4317 29.7821 10.928 30.2688 11.5065 30.6409C12.0851 31.0131 12.7337 31.2629 13.4125 31.3749C13.4767 32.2823 13.7137 33.169 14.1109 33.9874C14.3765 34.5702 15.3687 35.6171 15.0031 36.3608C14.292 36.9615 13.507 37.4687 12.6672 37.8702C10.8578 38.9561 9.54216 39.6202 7.87653 40.8233C6.79528 41.6046 5.10622 41.7014 5.37653 43.4952C5.69998 44.8334 6.12196 46.1458 6.63903 47.4218C6.67809 47.5436 6.72184 47.6639 6.76403 47.7843H7.49841L7.49528 47.4202ZM20.5437 7.71082C20.467 7.80296 20.384 7.88963 20.2953 7.97019C19.7838 8.34768 19.293 8.75243 18.825 9.18269C18.2422 9.82801 17.5906 11.5593 16.8172 11.7514C16.4275 11.7746 16.0366 11.7594 15.65 11.7061C15.4024 11.7245 15.1576 11.7707 14.9203 11.8436C14.3695 12.056 13.8033 12.2257 13.2265 12.3514C14.3953 9.79676 18.039 7.73113 20.8828 6.92488C21.039 6.88113 21.1765 6.98738 21.3062 7.12644C21.289 7.57488 20.8437 7.56551 20.5437 7.71082ZM16.8172 13.4921C17.2859 15.8686 15.9406 18.5764 16.5172 21.0874C16.7125 21.9405 17.3922 23.2655 16.3078 23.2952C16.2685 22.7383 16.0908 22.2001 15.791 21.7292C15.4911 21.2584 15.0784 20.8698 14.5904 20.5987C14.1024 20.3277 13.5545 20.1827 12.9963 20.1768C12.4381 20.171 11.8873 20.3046 11.3937 20.5655C11.2769 20.6219 11.1632 20.6845 11.0531 20.753C10.8968 18.9108 10.6375 16.3218 11.8937 14.9389C13.1112 13.6143 14.7987 12.8185 16.5953 12.7218C16.6929 12.9732 16.7672 13.2332 16.8172 13.4983V13.4921ZM11.5156 28.7186C10.4945 27.6115 9.92481 26.1622 9.91872 24.6561C9.9323 24.2254 10.0333 23.802 10.2157 23.4116C10.398 23.0211 10.6578 22.6719 10.9794 22.385C11.3009 22.0981 11.6774 21.8796 12.086 21.7427C12.4946 21.6059 12.9268 21.5536 13.3562 21.5889C14.425 21.7061 14.9406 22.6421 15.2437 23.6796C15.3281 23.9718 15.4 24.2718 15.4562 24.5639C16.2453 24.6061 17.3859 24.5296 17.7593 23.9139C17.7062 22.4108 17.0078 21.2061 17.0562 19.8249C17.1617 18.6317 17.3645 17.4491 17.6625 16.2889C18.017 14.9829 17.9497 13.5982 17.4703 12.3327C18.6375 9.68426 22.0625 7.59519 24.5953 6.33113C27.7343 4.76863 32.7312 6.01863 35.689 7.68426C35.9562 7.83712 36.212 8.00891 36.4547 8.19832C37.3233 8.91331 38.0996 9.73368 38.7656 10.6405C39.1312 11.1093 39.4828 11.578 39.8297 12.0296C38.3187 11.5811 37.0172 12.2358 36.9672 13.3827C36.9607 13.5114 36.969 13.6403 36.9922 13.7671C38.3984 12.4843 40.7843 13.753 41.4922 15.1733C42.0798 16.9052 42.3446 18.7302 42.2734 20.5577C42.621 25.2903 41.4467 30.0101 38.9218 34.028C38.3688 35.0203 37.6471 35.9085 36.789 36.653C34.5625 38.2155 31.1781 39.6343 28.2797 38.6624C24.45 37.3764 22.7093 34.8249 20.6031 31.903C20.8615 33.5125 21.6752 34.9808 22.9031 36.053C23.8255 37.2107 24.9848 38.1579 26.3031 38.8311C25.2515 38.5843 23.6468 38.5061 23.2015 39.4561C22.391 39.4125 21.5832 39.328 20.7812 39.203C20.1098 39.1502 19.456 38.9615 18.8597 38.6483C18.2635 38.3351 17.737 37.904 17.3125 37.3811C16.2802 35.7623 15.5177 33.9866 15.0547 32.1233C14.9421 31.6985 14.8766 31.2625 14.8593 30.8233C14.9968 30.0764 16.3265 29.7499 15.7968 28.7061C14.8312 28.6968 14.614 29.5843 13.7281 29.6718C13.3108 29.6943 12.8939 29.62 12.5101 29.4546C12.1263 29.2893 11.7859 29.0374 11.5156 28.7186ZM31.4687 43.3749L31.4203 43.1702C31.389 43.0405 31.364 42.9218 31.3453 42.7983C31.3155 42.585 31.3119 42.3688 31.3343 42.1546C31.5975 41.9582 31.9154 41.849 32.2437 41.8421C32.4021 41.8642 32.5537 41.9208 32.6879 42.0079C32.822 42.095 32.9354 42.2104 33.0201 42.3461C33.1048 42.4818 33.1587 42.6343 33.1781 42.7931C33.1974 42.9519 33.1817 43.1129 33.132 43.265C33.0823 43.417 32.9999 43.5563 32.8906 43.673C32.7813 43.7897 32.6476 43.8811 32.4992 43.9406C32.3507 44 32.191 44.0263 32.0314 44.0173C31.8717 44.0084 31.7159 43.9646 31.575 43.8889C31.5422 43.6999 31.5078 43.5436 31.475 43.4046L31.4687 43.3749ZM19.3093 39.5952C20.4465 40.0055 21.6458 40.2169 22.8547 40.2202C22.8518 40.5405 22.7925 40.8579 22.6797 41.1577C22.6391 41.3107 22.6176 41.4682 22.6156 41.6264C21.4166 41.4752 20.2818 40.9986 19.3343 40.2483C19.2884 40.2088 19.251 40.1603 19.2247 40.1057C19.1983 40.0511 19.1835 39.9917 19.1811 39.9311C19.1788 39.8705 19.189 39.8101 19.211 39.7537C19.2331 39.6972 19.2666 39.6459 19.3093 39.603V39.5952ZM30.8203 40.9061C30.5623 40.8361 30.3132 40.7365 30.0781 40.6093C29.9562 40.5436 29.8328 40.4686 29.7062 40.3858C29.5797 40.303 29.4531 40.2093 29.3203 40.1061C29.3375 40.0389 29.4437 40.0686 29.4484 39.9874C29.544 40.0297 29.6421 40.0662 29.7422 40.0968C29.9417 40.1574 30.1469 40.1972 30.3547 40.2155C30.4593 40.2249 30.564 40.2296 30.6672 40.2311C30.7703 40.2327 30.8812 40.2311 30.989 40.2218C32.175 40.1499 33.4359 39.6624 34.5078 39.5671C33.8312 40.0093 33.2578 40.5608 32.6047 41.0327C32.425 41.0421 32.2547 41.0468 32.0937 41.0468C31.6652 41.0599 31.2369 41.0153 30.8203 40.9139V40.9061ZM27.8953 46.6968C27.0084 47.1761 26.0346 47.4731 25.0312 47.5702C24.7843 47.5124 24.7187 47.2577 24.6359 46.9686C24.6156 46.8968 24.5953 46.8249 24.5703 46.7514C24.5453 46.678 24.5234 46.6186 24.4968 46.5514C24.0658 45.6103 23.7792 44.6094 23.6468 43.5827C23.6468 43.4452 23.6328 43.2983 23.6265 43.1452C23.5656 41.6702 23.5781 39.6686 25.0172 39.9436C26.3301 40.2221 27.5969 40.6856 28.7797 41.3202C29.0828 41.4858 29.3218 41.6718 29.6 41.8233C29.746 41.9048 29.8999 41.9713 30.0593 42.0218C30.1501 42.05 30.2425 42.073 30.3359 42.0905C30.4392 42.1101 30.5436 42.1242 30.6484 42.1327C30.6484 42.2546 30.639 42.378 30.6343 42.5014C30.1862 42.7155 29.7093 42.8634 29.2187 42.9405C29.062 42.9804 28.9097 43.0359 28.764 43.1061C28.9581 43.1146 29.1516 43.1334 29.3437 43.1624C29.8418 43.2366 30.3249 43.3895 30.775 43.6155V43.7139C30.7646 43.9889 30.7536 44.2634 30.7422 44.5374C29.8333 45.311 28.8829 46.0345 27.8953 46.7046V46.6968ZM34.5281 44.2968C34.3573 44.2561 34.1896 44.2124 34.025 44.1655C34.0187 43.6961 34.0369 43.2267 34.0797 42.7593C34.1753 42.6935 34.2808 42.6434 34.3922 42.6108C34.7809 42.523 35.1768 42.4707 35.575 42.4546C35.4529 42.3955 35.3259 42.3474 35.1953 42.3108C35.1281 42.2921 35.0578 42.2749 34.9875 42.2608C34.8455 42.2297 34.7013 42.2098 34.5562 42.2014C34.3425 42.1916 34.1285 42.2116 33.9203 42.2608C33.8804 41.9565 33.7878 41.6615 33.6468 41.3889L33.7359 41.353C34.6875 40.9343 36.7328 38.9639 37.9 39.6452C38.1908 39.9139 38.3824 40.2728 38.4437 40.6639C38.6186 41.3696 38.7233 42.0908 38.7562 42.8171C38.7855 43.2733 38.7471 43.7314 38.6422 44.1764C38.5922 44.3905 38.5009 44.5927 38.3734 44.7718C37.079 44.7472 35.7905 44.5901 34.5281 44.303V44.2968Z" fill="#231F20"/>
<path d="M27.5702 30.378C26.6077 29.9093 25.9202 30.1671 25.7952 30.3343C25.5577 30.6468 26.0499 32.3749 26.0499 32.3749L26.5187 32.4702C26.4296 30.5686 27.5702 30.378 27.5702 30.378Z" fill="#F7E4CD"/>
<path d="M33.6063 46.1577C33.4721 46.158 33.3432 46.2099 33.2463 46.3027C33.1494 46.3955 33.092 46.5221 33.0859 46.6562H34.1266C34.1205 46.5221 34.0631 46.3955 33.9662 46.3027C33.8693 46.2099 33.7404 46.158 33.6063 46.1577Z" fill="#1D1919"/>
<path d="M24.6188 47.3827C24.6188 47.3193 24.5936 47.2585 24.5487 47.2137C24.5039 47.1689 24.4431 47.1437 24.3797 47.1437H24.1625V47.4202C24.1625 47.4836 24.1373 47.5445 24.0925 47.5893C24.0476 47.6341 23.9868 47.6593 23.9234 47.6593H7.73125C7.66785 47.6593 7.60704 47.6341 7.56221 47.5893C7.51737 47.5445 7.49219 47.4836 7.49219 47.4202V47.7812H24.6188V47.3827Z" fill="#231F20"/>
<path d="M42.2398 47.6593H28.9586C28.8952 47.6593 28.8344 47.6341 28.7895 47.5893C28.7447 47.5445 28.7195 47.4836 28.7195 47.4202V47.1437H27.5008C27.4374 47.1437 27.3766 47.1689 27.3317 47.2137C27.2869 47.2585 27.2617 47.3193 27.2617 47.3827V47.7812H42.4758V47.4202C42.4758 47.4831 42.451 47.5434 42.4069 47.5882C42.3627 47.6329 42.3027 47.6585 42.2398 47.6593Z" fill="#231F20"/>
<path d="M7.73125 47.6593H23.9281C23.9915 47.6593 24.0523 47.6341 24.0972 47.5893C24.142 47.5444 24.1672 47.4836 24.1672 47.4202V46.8968C24.1672 46.8334 24.142 46.7726 24.0972 46.7277C24.0523 46.6829 23.9915 46.6577 23.9281 46.6577H7.73125C7.66785 46.6577 7.60704 46.6829 7.56221 46.7277C7.51737 46.7726 7.49219 46.8334 7.49219 46.8968V47.4202C7.49219 47.4836 7.51737 47.5444 7.56221 47.5893C7.60704 47.6341 7.66785 47.6593 7.73125 47.6593Z" fill="#231F20"/>
<path d="M28.7188 47.4202C28.7187 47.4836 28.7439 47.5444 28.7888 47.5893C28.8336 47.6341 28.8944 47.6593 28.9578 47.6593H42.2391C42.3025 47.6593 42.3633 47.6341 42.4081 47.5893C42.4529 47.5444 42.4781 47.4836 42.4781 47.4202V46.8968C42.4778 46.8569 42.4673 46.8177 42.4476 46.7829C42.428 46.7482 42.3997 46.7191 42.3656 46.6983C42.3283 46.6728 42.2843 46.6587 42.2391 46.6577H28.9578C28.8944 46.6577 28.8336 46.6829 28.7888 46.7277C28.7439 46.7726 28.7187 46.8334 28.7188 46.8968V47.4202Z" fill="#231F20"/>
</svg>
