<svg width="52" height="51" viewBox="0 0 52 51" fill="none" xmlns="http://www.w3.org/2000/svg">
<g clip-path="url(#clip0_2611_4443)">
<path d="M9.27855 0.108459H42.3914C47.4118 0.108459 51.4708 4.16746 51.4708 9.18779V41.0189C51.4708 46.0392 47.4118 50.0982 42.3914 50.0982H9.27855C4.25821 50.0982 0.199219 46.0392 0.199219 41.0189V9.18779C0.199219 4.16746 4.25821 0.108459 9.27855 0.108459Z" fill="#470137"/>
<path d="M27.1595 13.2468L20.7506 23.8216L27.5868 35.0372C27.6295 35.1227 27.6509 35.2081 27.6295 35.2936C27.6082 35.379 27.5227 35.3149 27.3945 35.3363H22.5024C22.1606 35.3363 21.9256 35.3149 21.776 35.1013C21.3274 34.2041 20.8574 33.3282 20.4088 32.4309C19.9602 31.555 19.4688 30.6578 18.9561 29.7392C18.4434 28.8205 17.9307 27.9019 17.4179 26.9619H17.3752C16.9266 27.8806 16.4352 28.7992 15.9439 29.7178C15.4525 30.6364 14.9612 31.555 14.4912 32.4523C13.9998 33.3495 13.5085 34.2681 13.0171 35.144C12.9317 35.3577 12.7608 35.379 12.5258 35.379H7.82589C7.74044 35.379 7.67635 35.4218 7.67635 35.3149C7.65499 35.2295 7.67635 35.144 7.71908 35.0799L14.363 24.1847L7.88998 13.2255C7.82589 13.14 7.80453 13.0545 7.84725 13.0118C7.88998 12.9477 7.97543 12.9264 8.06089 12.9264H12.9103C13.0171 12.9264 13.124 12.9477 13.2094 12.9691C13.2949 13.0118 13.3589 13.0759 13.423 13.1614C13.8289 14.08 14.2989 14.9986 14.7903 15.9172C15.303 16.8358 15.7943 17.7331 16.3284 18.6303C16.8411 19.5276 17.3111 20.4248 17.7598 21.3434H17.8025C18.2511 20.4035 18.7211 19.4848 19.1911 18.5876C19.6611 17.6903 20.1524 16.7931 20.6438 15.8958C21.1351 14.9986 21.6051 14.08 22.0751 13.2041C22.0965 13.1186 22.1392 13.0332 22.2033 12.9905C22.2887 12.9477 22.3742 12.9264 22.481 12.9477H26.9886C27.0954 12.9264 27.2023 12.9905 27.2236 13.0973C27.245 13.1186 27.2023 13.2041 27.1595 13.2468ZM37.0293 35.7849C35.4484 35.8063 33.8676 35.4858 32.4362 34.8236C31.0904 34.2041 29.9795 33.1786 29.2104 31.9182C28.42 30.615 28.0354 28.9914 28.0354 27.0474C28.0141 25.4665 28.42 23.907 29.2104 22.5398C30.0222 21.1512 31.1972 19.9976 32.6071 19.2285C34.1026 18.3953 35.8971 17.9894 38.012 17.9894C38.1188 17.9894 38.2684 17.9894 38.4606 18.0108C38.6529 18.0322 38.8665 18.0322 39.1229 18.0535V11.3028C39.1229 11.1532 39.187 11.0678 39.3365 11.0678H43.6732C43.7801 11.0464 43.8655 11.1319 43.8869 11.2173V31.5977C43.8869 31.9823 43.9082 32.4095 43.9296 32.8795C43.9723 33.3282 43.9937 33.7554 44.0151 34.1186C44.0151 34.2681 43.951 34.3963 43.8014 34.4604C42.6905 34.9304 41.5156 35.2722 40.3192 35.4858C39.2297 35.6781 38.1402 35.7849 37.0293 35.7849ZM39.1229 31.5123V22.1125C38.9306 22.0698 38.7384 22.0271 38.5461 22.0057C38.3111 21.9843 38.0761 21.963 37.8411 21.963C37.0079 21.963 36.1748 22.1339 35.4271 22.5184C34.7007 22.8816 34.0812 23.4157 33.6112 24.0993C33.1412 24.7829 32.9062 25.7015 32.9062 26.8124C32.8849 27.5601 33.013 28.3078 33.2694 29.0128C33.483 29.5896 33.8035 30.1023 34.2307 30.5296C34.6366 30.9141 35.128 31.2132 35.6834 31.3841C36.2602 31.5764 36.8584 31.6618 37.4566 31.6618C37.777 31.6618 38.0761 31.6405 38.3538 31.6191C38.6315 31.6405 38.8665 31.5978 39.1229 31.5123Z" fill="#FF61F6"/>
</g>
<defs>
<clipPath id="clip0_2611_4443">
<rect width="51.2715" height="50" fill="white" transform="translate(0.199219 0.103333)"/>
</clipPath>
</defs>
</svg>
