<svg width="34" height="51" viewBox="0 0 34 51" fill="none" xmlns="http://www.w3.org/2000/svg">
<g clip-path="url(#clip0_2611_4451)">
<path d="M8.83724 50.1033C13.4372 50.1033 17.1706 46.37 17.1706 41.77V33.4366H8.83724C4.23724 33.4366 0.503906 37.17 0.503906 41.77C0.503906 46.37 4.23724 50.1033 8.83724 50.1033Z" fill="#0ACF83"/>
<path d="M0.503906 25.1034C0.503906 20.5034 4.23724 16.77 8.83724 16.77H17.1706V33.4367H8.83724C4.23724 33.4367 0.503906 29.7034 0.503906 25.1034Z" fill="#A259FF"/>
<path d="M0.503906 8.43667C0.503906 3.83667 4.23724 0.103333 8.83724 0.103333H17.1706V16.77H8.83724C4.23724 16.77 0.503906 13.0367 0.503906 8.43667Z" fill="#F24E1E"/>
<path d="M17.1719 0.103333H25.5052C30.1052 0.103333 33.8385 3.83667 33.8385 8.43667C33.8385 13.0367 30.1052 16.77 25.5052 16.77H17.1719V0.103333Z" fill="#FF7262"/>
<path d="M33.8385 25.1034C33.8385 29.7034 30.1052 33.4367 25.5052 33.4367C20.9052 33.4367 17.1719 29.7034 17.1719 25.1034C17.1719 20.5034 20.9052 16.77 25.5052 16.77C30.1052 16.77 33.8385 20.5034 33.8385 25.1034Z" fill="#1ABCFE"/>
</g>
<defs>
<clipPath id="clip0_2611_4451">
<rect width="33.3333" height="50" fill="white" transform="translate(0.5 0.103333)"/>
</clipPath>
</defs>
</svg>
