<svg width="51" height="51" viewBox="0 0 51 51" fill="none" xmlns="http://www.w3.org/2000/svg">
<g clip-path="url(#clip0_2611_4460)">
<path d="M0.492188 43.6563C0.492188 47.2172 3.37871 50.1033 6.93926 50.1033H44.0449C47.6061 50.1033 50.4922 47.2168 50.4922 43.6563V6.5506C50.4922 2.98946 47.6057 0.103333 44.0451 0.103333H6.93945C3.37832 0.103333 0.492188 2.98986 0.492188 6.5504V43.6563Z" fill="#563D7C"/>
<path d="M21.2271 22.2201V15.1395H27.4598C28.0535 15.1395 28.6258 15.1889 29.177 15.2879C29.7281 15.3867 30.2158 15.5633 30.6398 15.8178C31.0637 16.0723 31.4029 16.4256 31.6574 16.8777C31.9117 17.3301 32.0391 17.9096 32.0391 18.616C32.0391 19.8881 31.6574 20.8068 30.8941 21.3721C30.1311 21.9375 29.1559 22.2201 27.9686 22.2201H21.2271ZM14.5703 9.96661V40.2401H29.2406C30.5975 40.2401 31.9189 40.0705 33.2051 39.7313C34.4912 39.392 35.6359 38.8692 36.6395 38.1625C37.6428 37.4559 38.4414 36.5442 39.035 35.4277C39.6287 34.3111 39.9254 32.9897 39.9254 31.4633C39.9254 29.5693 39.466 27.9512 38.5475 26.6086C37.6287 25.2658 36.2365 24.326 34.3709 23.7889C35.7277 23.1389 36.7525 22.3049 37.4451 21.2873C38.1375 20.2697 38.4838 18.9979 38.4838 17.4713C38.4838 16.058 38.2506 14.8709 37.7842 13.9098C37.3178 12.9488 36.6605 12.1785 35.8125 11.599C34.9647 11.0195 33.9471 10.6026 32.7598 10.3483C31.5727 10.0938 30.2582 9.96661 28.8166 9.96661H14.5703ZM21.2271 35.0672V26.7568H28.4773C29.9189 26.7568 31.0779 27.0889 31.9543 27.7533C32.8305 28.4176 33.2688 29.527 33.2688 31.0817C33.2688 31.8733 33.1344 32.5233 32.8658 33.032C32.5973 33.5408 32.2369 33.9438 31.7846 34.2404C31.3324 34.5373 30.8094 34.7492 30.2158 34.8766C29.6221 35.0035 29.0004 35.0672 28.3502 35.0672H21.2271Z" fill="white"/>
</g>
<defs>
<clipPath id="clip0_2611_4460">
<rect width="50" height="50" fill="white" transform="translate(0.492188 0.103333)"/>
</clipPath>
</defs>
</svg>
