<svg width="51" height="51" viewBox="0 0 51 51" fill="none" xmlns="http://www.w3.org/2000/svg">
<g clip-path="url(#clip0_2611_4465)">
<path d="M25.5 29.9998C27.9853 29.9998 30 27.9851 30 25.4998C30 23.0145 27.9853 20.9998 25.5 20.9998C23.0147 20.9998 21 23.0145 21 25.4998C21 27.9851 23.0147 29.9998 25.5 29.9998Z" fill="#00D8FF"/>
<path d="M26 34.9853C20.6342 35.1125 15.2818 34.4034 10.1429 32.8845C7.76897 32.1468 5.55488 30.9847 3.6125 29.4568C2.8713 28.9349 2.25406 28.2619 1.80311 27.4841C1.35217 26.7063 1.0782 25.8421 1 24.9507C1 22.057 4.24286 19.221 9.675 17.3653C14.9513 15.721 20.4641 14.9241 26 15.0055C31.462 14.9307 36.901 15.7132 42.1107 17.3233C44.3969 18.0378 46.5359 19.1438 48.4286 20.5899C49.1571 21.0875 49.7651 21.7361 50.2095 22.4897C50.6538 23.2433 50.9237 24.0835 51 24.9507C51 27.9583 47.375 31.0061 41.5357 32.9003C36.4963 34.3697 31.2568 35.0729 26 34.9853ZM26 17.0992C20.7038 17.0298 15.43 17.7874 10.3768 19.3435C5.37679 21.0539 3.13571 23.3927 3.13571 24.9455C3.13571 26.5701 5.54464 29.1242 10.8339 30.8976C15.7501 32.3433 20.8689 33.0163 26 32.8915C31.0293 32.9797 36.0427 32.3126 40.8661 30.9133C46.3571 29.1295 48.8571 26.5718 48.8571 24.9507C48.767 24.3944 48.5602 23.8625 48.2498 23.3885C47.9394 22.9145 47.5321 22.5088 47.0536 22.197C45.3603 20.9141 43.4495 19.9339 41.4089 19.3015C36.425 17.7675 31.2232 17.0241 26 17.0992Z" fill="#00D8FF"/>
<path d="M15.2624 46.9986C14.4197 47.0175 13.587 46.8175 12.8492 46.419C10.2626 44.9596 9.36664 40.7508 10.4522 35.1585C11.6492 29.8067 13.7231 24.6794 16.5936 19.9754C19.2863 15.2562 22.7335 10.9887 26.8045 7.33489C28.5985 5.73531 30.6679 4.45931 32.917 3.56606C33.7305 3.19313 34.6179 2.99982 35.5163 2.99982C36.4146 2.99982 37.302 3.19313 38.1155 3.56606C40.8051 5.08207 41.6956 9.72552 40.4402 15.6853C39.2063 20.7468 37.1863 25.5932 34.4505 30.0556C31.8526 34.7192 28.514 38.9494 24.5593 42.5884C22.7003 44.2507 20.5427 45.562 18.1958 46.4561C17.2562 46.7973 16.2644 46.9807 15.2624 46.9986ZM18.4649 21.0249C15.7268 25.5294 13.7391 30.4315 12.5764 35.5472C11.5775 40.6978 12.5367 43.7952 13.9311 44.5832C15.3762 45.4013 18.884 44.6256 23.1432 40.9858C26.9184 37.4996 30.105 33.4502 32.5846 28.9884C35.2055 24.7222 37.1432 20.0887 38.3304 15.2489C39.5118 9.63895 38.4912 6.20406 37.0426 5.38775C36.4996 5.18425 35.9194 5.09315 35.3386 5.12022C34.7579 5.14729 34.1891 5.29193 33.6684 5.545C31.6665 6.3531 29.826 7.50032 28.2315 8.93395C24.342 12.4338 21.0491 16.5192 18.4776 21.0355L18.4649 21.0249Z" fill="#00D8FF"/>
<path d="M35.7015 47.9986C33.2584 47.9986 30.1553 46.5155 26.9241 43.7284C22.7891 39.9542 19.2898 35.5341 16.5618 30.6392C13.7323 25.8903 11.6784 20.718 10.4782 15.3182C9.95763 12.9425 9.86118 10.493 10.1933 8.08357C10.2701 7.18975 10.5414 6.32371 10.9881 5.54652C11.4349 4.76932 12.0462 4.09991 12.7789 3.58547C15.4601 2.02822 20.0093 3.62888 24.6522 7.76344C28.5119 11.4209 31.7896 15.6504 34.3709 20.3046C37.1986 24.9426 39.274 30.0017 40.5194 35.2928C41.0623 37.7557 41.1461 40.2981 40.7664 42.7915C40.6761 43.711 40.3886 44.6001 39.9236 45.3977C39.4586 46.1953 38.8272 46.8827 38.0726 47.4126C37.3481 47.8154 36.5297 48.0177 35.7015 47.9986ZM18.428 29.5504C21.045 34.2283 24.3877 38.4586 28.3305 42.0825C32.3857 45.5822 35.6024 46.3346 36.9853 45.5189C38.4278 44.6779 39.4916 41.2451 38.3954 35.6907C37.1943 30.6391 35.2037 25.8099 32.4975 21.3825C30.0341 16.9281 26.9056 12.878 23.2206 9.37314C18.8499 5.48093 15.305 4.61097 13.8608 5.45018C13.4106 5.81712 13.0412 6.2737 12.7758 6.79109C12.5105 7.30848 12.355 7.87543 12.3191 8.45615C12.0324 10.605 12.1258 12.7877 12.595 14.904C13.7495 20.0679 15.7193 25.0136 18.4298 29.554L18.428 29.5504Z" fill="#00D8FF"/>
</g>
<defs>
<clipPath id="clip0_2611_4465">
<rect width="50" height="50" fill="white" transform="translate(0.824219 0.103333)"/>
</clipPath>
</defs>
</svg>
