<svg width="56" height="51" viewBox="0 0 56 51" fill="none" xmlns="http://www.w3.org/2000/svg">
<g clip-path="url(#clip0_2611_4479)">
<path d="M7.51559 33.035C7.56237 33.1408 7.61526 33.2384 7.67221 33.336C7.69865 33.393 7.73526 33.452 7.76781 33.5049C7.82069 33.6106 7.87765 33.7123 7.93256 33.814L8.2519 34.351C8.31089 34.4507 8.36784 34.5483 8.43496 34.6459C8.54683 34.8371 8.67904 35.0243 8.79498 35.2155C8.84787 35.2948 8.89668 35.3741 8.95567 35.4534C9.17941 35.8012 9.38281 36.0901 9.60045 36.3708C9.75503 36.5803 9.90962 36.7857 10.0764 36.9911C10.1313 37.0684 10.1923 37.1457 10.2493 37.223L10.6988 37.7681C10.7537 37.8312 10.8087 37.9044 10.8676 37.9695C11.067 38.2095 11.2785 38.4414 11.49 38.6773C11.49 38.6814 11.4961 38.6855 11.5002 38.6916C11.7626 39.0211 12.0453 39.314 12.3545 39.5743L12.3626 39.5825C12.5254 39.7493 12.6881 39.914 12.861 40.0767L13.0664 40.274C13.2922 40.4856 13.518 40.6951 13.7559 40.8985C13.76 40.8985 13.762 40.9025 13.7661 40.9046L13.882 41.0063C14.0895 41.1873 14.299 41.3663 14.5126 41.5331L14.7668 41.7467C14.9397 41.885 15.1187 42.0151 15.2957 42.1514L15.5723 42.363C15.7615 42.5053 15.9628 42.6437 16.1561 42.782C16.2273 42.8328 16.2984 42.8837 16.3717 42.9304L16.4307 42.9772L17.0022 43.3515L17.2463 43.5142C17.5453 43.7054 17.8423 43.8844 18.1392 44.0634C18.2246 44.1061 18.3101 44.1529 18.3894 44.2017C18.6091 44.3278 18.8369 44.456 19.0586 44.5719C19.1806 44.641 19.3067 44.7 19.4328 44.7631C19.5854 44.8485 19.7441 44.9319 19.9068 45.0173C19.9515 45.0316 19.9881 45.0458 20.0247 45.0662L20.0329 45.058C20.1 45.0885 20.1631 45.1211 20.2281 45.1536C20.4722 45.2757 20.7265 45.3916 20.9909 45.5055C21.0397 45.5258 21.0926 45.5462 21.1455 45.5747C21.4384 45.7028 21.7313 45.8248 22.0343 45.9428C22.1035 45.9632 22.1767 45.9977 22.2479 46.0242C22.5225 46.1279 22.8052 46.2337 23.0859 46.3333L23.1876 46.37C23.4988 46.4757 23.806 46.5774 24.1233 46.673C24.1965 46.6934 24.2718 46.7198 24.349 46.7401C24.6725 46.8378 24.9857 46.9537 25.3132 47.0147C46.2085 50.8041 52.2801 34.5137 52.2801 34.5137C47.1788 41.1242 38.1254 42.8674 29.552 40.9269C29.2347 40.8537 28.9174 40.752 28.5961 40.6585C28.1424 40.5301 27.6927 40.3883 27.2475 40.2334L27.4407 40.2923L27.3146 40.2435C27.038 40.15 26.7716 40.0462 26.501 39.9425C26.4348 39.9144 26.3677 39.8886 26.2997 39.8652L26.2773 39.8591C25.9783 39.7391 25.6874 39.617 25.3986 39.4889C25.3355 39.4686 25.2827 39.4401 25.2196 39.4157C24.8775 39.2666 24.5384 39.1106 24.2026 38.9479L24.4833 39.0719C24.41 39.0396 24.3381 39.0043 24.2677 38.9662C24.0765 38.8767 23.8853 38.775 23.6982 38.6794C23.5556 38.6118 23.4152 38.5399 23.2771 38.4638L23.3178 38.4841C23.088 38.3621 22.8581 38.2299 22.6262 38.1058C22.5571 38.057 22.4778 38.0163 22.3984 37.9715C22.0538 37.7712 21.7133 37.5637 21.3774 37.3491L21.5055 37.4264C21.4194 37.3732 21.3353 37.3169 21.2533 37.2576L21.2655 37.2657C21.0469 37.1315 20.8325 36.9904 20.6227 36.8427C20.5536 36.7979 20.4905 36.7491 20.4193 36.7003C20.2002 36.5507 19.9845 36.3961 19.7725 36.2365L19.8213 36.2711C19.7359 36.2019 19.6444 36.1369 19.5529 36.0697C19.3739 35.9294 19.1928 35.7951 19.0138 35.6487L18.7738 35.4575C18.518 35.254 18.2671 35.0444 18.0212 34.829L18.0192 34.827L17.3134 34.1862L17.11 33.9951C16.9432 33.8262 16.7724 33.6655 16.6015 33.4987L16.4042 33.2954C16.1936 33.0868 15.9881 32.8732 15.7879 32.6546L15.7757 32.6404L15.7411 32.6119C15.5258 32.3754 15.3135 32.136 15.1045 31.8939C15.0496 31.8309 14.9987 31.7637 14.9418 31.6966L14.48 31.1373C14.2719 30.8758 14.0685 30.6107 13.8698 30.342L13.7885 30.2281C9.03296 23.7681 7.31219 14.853 11.1178 7.5387L7.75764 11.7877C3.43537 17.9691 3.97032 26.0075 7.27558 32.5712C7.35084 32.7319 7.43423 32.8824 7.51559 33.035Z" fill="#1266A9"/>
<path d="M22.0719 24.1301L22.0496 24.0975L22.0312 24.0731L22.0719 24.1301Z" fill="black"/>
<path d="M24.3464 26.7987L24.5294 26.9818C24.7613 27.2055 24.9993 27.4232 25.2413 27.6408L25.2718 27.6672C25.5159 27.8828 25.7905 28.1086 26.0732 28.3283L26.116 28.3608C26.1851 28.4076 26.2441 28.4625 26.3112 28.5093C26.596 28.729 26.8828 28.9385 27.1818 29.148L27.2123 29.1663C27.3384 29.2578 27.4726 29.3412 27.615 29.4307C27.672 29.4673 27.7371 29.5161 27.7981 29.5528C28.0137 29.6911 28.2252 29.8192 28.4429 29.9514C28.4774 29.9657 28.5079 29.984 28.5405 29.9982C28.7236 30.1101 28.9229 30.2179 29.1141 30.3155C29.1812 30.3562 29.2463 30.3867 29.3155 30.4254C29.4517 30.4925 29.586 30.5637 29.7162 30.6328L29.7812 30.6613C30.0558 30.7955 30.3365 30.9216 30.6111 31.0457C30.6803 31.0722 30.7393 31.0945 30.7982 31.123C31.024 31.2206 31.2539 31.3142 31.4796 31.3996C31.5813 31.4342 31.6769 31.4749 31.7725 31.5054C31.98 31.5827 32.1976 31.6539 32.4031 31.7251L32.6878 31.8166C32.9848 31.9081 33.2858 32.0281 33.6011 32.077C49.7369 34.7334 53.4713 22.3727 53.4713 22.3727C50.1091 27.1872 43.6023 29.4816 36.6684 27.6896C36.3223 27.6023 35.979 27.504 35.6392 27.3947L35.7551 27.4272C35.6575 27.4008 35.5721 27.3703 35.4785 27.3418C35.267 27.2686 35.0493 27.1974 34.8439 27.1221L34.551 27.0123C34.3232 26.9208 34.0913 26.8353 33.8696 26.7377C33.8004 26.7072 33.7374 26.6868 33.6845 26.6563C33.3997 26.5282 33.1129 26.4021 32.8343 26.2678L32.4153 26.0502L32.1732 25.9282C31.9861 25.8305 31.8132 25.7288 31.6342 25.6251C31.5886 25.6036 31.5444 25.5792 31.502 25.5519L31.5081 25.5539C31.2925 25.4197 31.0688 25.2895 30.8613 25.1532C30.7921 25.1146 30.7291 25.0678 30.664 25.0271L30.2409 24.7525C29.948 24.5491 29.6612 24.3315 29.3704 24.1199C29.3053 24.0609 29.2422 24.0121 29.1792 23.9592C26.1302 21.5733 23.726 18.3128 22.5849 14.6211C21.3828 10.7829 21.6472 6.47897 23.724 2.98657L21.1713 6.5827C18.0369 11.0596 18.2138 17.0436 20.6546 21.7788C21.1001 22.6534 21.5516 23.3917 22.05 24.0955C22.5137 24.7586 23.0263 25.5356 23.6446 26.0685C23.8643 26.3187 24.1003 26.5567 24.3464 26.7987Z" fill="#1266A9"/>
<path d="M9.60831 36.3829L9.60018 36.3707L9.58594 36.3524L9.60831 36.3829ZM18.0657 34.8696L18.0861 34.8839L18.0901 34.89L18.0657 34.8696Z" fill="black"/>
<path d="M32.4521 2.6896C30.6031 5.38873 30.4262 8.74078 31.6995 11.7165C33.0521 14.8774 35.8163 17.3589 39.0382 18.5345C39.1704 18.5854 39.2985 18.6281 39.4348 18.6769L39.6138 18.7318C39.8009 18.7908 39.9901 18.86 40.1833 18.9027C49.0943 20.6133 51.5067 14.3506 52.1555 13.4292C50.034 16.4598 46.4766 17.188 42.1116 16.1324C41.732 16.0398 41.3584 15.9243 40.9929 15.7866L41.06 15.809C40.6051 15.6515 40.1596 15.4682 39.7257 15.2598L39.803 15.2944C38.969 14.8876 38.2531 14.4482 37.5879 13.9438C33.6867 10.9945 31.2744 5.37856 33.8209 0.804077L32.4521 2.6896Z" fill="#1266A9"/>
</g>
<defs>
<clipPath id="clip0_2611_4479">
<rect width="54.7765" height="50" fill="white" transform="translate(0.460938 0.804077)"/>
</clipPath>
</defs>
</svg>
