<svg width="71" height="71" viewBox="0 0 71 71" fill="none" xmlns="http://www.w3.org/2000/svg">
<circle cx="35.5" cy="35.5" r="35.5" fill="black" fill-opacity="0.2"/>
<path d="M38.7585 20.2452C38.3641 20.0571 37.8995 20.1069 37.5595 20.3812L26.5344 29.2008H21.2667C20.0177 29.2008 19 30.2185 19 31.4675V40.5341C19 41.7853 20.0177 42.8008 21.2667 42.8008H26.5344L37.5572 51.6204C37.7635 51.7836 38.0151 51.8675 38.2667 51.8675C38.4344 51.8675 38.6021 51.8289 38.7585 51.7541C39.1507 51.566 39.4 51.1693 39.4 50.7341V21.2675C39.4 20.8323 39.1507 20.4356 38.7585 20.2452Z" fill="white"/>
<path d="M45.1366 27.9853C44.69 27.5456 43.9738 27.5524 43.534 27.9944C43.0943 28.4409 43.0988 29.1572 43.5431 29.5992C45.2567 31.2901 46.1996 33.5636 46.1996 36.0003C46.1996 38.4369 45.2567 40.7104 43.5431 42.4013C43.0988 42.8388 43.0943 43.5573 43.534 44.0039C43.7562 44.2283 44.0486 44.3393 44.3387 44.3393C44.6266 44.3393 44.9144 44.2305 45.1366 44.0107C47.2854 41.8959 48.4663 39.0489 48.4663 36.0003C48.4663 32.9516 47.2854 30.1047 45.1366 27.9853Z" fill="white"/>
<path d="M48.3344 24.7919C47.8879 24.3499 47.1716 24.3544 46.7296 24.7987C46.2899 25.2429 46.2944 25.9615 46.7364 26.4012C49.3136 28.9557 50.7325 32.3648 50.7325 36.0005C50.7325 39.6363 49.3136 43.0431 46.7364 45.5976C46.2944 46.0396 46.2899 46.7581 46.7296 47.2024C46.954 47.4245 47.2441 47.5356 47.5343 47.5356C47.8221 47.5356 48.1123 47.4268 48.3344 47.2069C51.3445 44.2263 52.9992 40.246 52.9992 36.0005C52.9992 31.7551 51.3445 27.7748 48.3344 24.7919Z" fill="white"/>
</svg>
