<svg width="196" height="32" viewBox="0 0 196 32" fill="none" xmlns="http://www.w3.org/2000/svg">
<g clip-path="url(#clip0_425_2193)">
<path d="M0.5 6.24742V5.50675C0.837378 2.32053 4.04034 -0.557352 7.33349 0.117615C9.69195 0.601853 11.4234 2.74543 12.5989 4.62622C13.9138 6.72918 14.8446 8.99108 15.3913 11.4119C15.3991 11.4494 15.3846 11.4723 15.3478 11.4808C13.453 11.9103 12.3192 13.0773 11.9464 14.9817C11.9453 14.9871 11.9431 14.9922 11.94 14.9967C11.9369 15.0012 11.933 15.005 11.9284 15.008C11.9239 15.011 11.9188 15.013 11.9135 15.0139C11.9083 15.0149 11.9028 15.0147 11.8976 15.0135C8.19603 14.2008 4.58885 12.355 2.01183 9.59046C1.14682 8.66366 0.642873 7.54931 0.5 6.24742Z" fill="white"/>
<path d="M16.5711 11.4713C16.5605 11.4691 16.5504 11.4649 16.5415 11.4588C16.5325 11.4528 16.5248 11.4451 16.5189 11.4361C16.513 11.4271 16.5089 11.4171 16.507 11.4066C16.505 11.396 16.5052 11.3853 16.5075 11.3748C17.2947 7.72556 19.0909 4.28079 21.7952 1.66675C24.6449 -1.08928 28.7167 -0.14199 30.6678 3.06331C32.2189 5.60953 31.4826 8.28079 29.3628 10.222C26.7614 12.604 23.5192 14.1309 20.0839 14.8969C20.0782 14.8982 20.0722 14.8984 20.0665 14.8974C20.0607 14.8965 20.0552 14.8944 20.0503 14.8914C20.0453 14.8883 20.0411 14.8843 20.0378 14.8797C20.0344 14.875 20.0321 14.8697 20.0308 14.8641C19.6128 12.9921 18.4596 11.8612 16.5711 11.4713Z" fill="white"/>
<path d="M108.158 20.1854H101.422C101.386 20.1854 101.368 20.2031 101.368 20.2384V25.7219C101.368 25.7359 101.363 25.7494 101.353 25.7593C101.343 25.7692 101.33 25.7748 101.315 25.7748H95.9864C95.972 25.7748 95.9582 25.7692 95.9481 25.7593C95.938 25.7494 95.9323 25.7359 95.9323 25.7219C95.9273 21.5181 95.9312 17.3061 95.9439 13.0861C95.9517 10.5946 96.9218 8.61951 98.8541 7.16079C101.693 5.01722 105.492 4.65695 108.743 6.03761C111.315 7.13112 113.127 9.08715 113.547 11.8644C113.608 12.2684 113.64 12.9738 113.642 13.9804C113.652 17.9045 113.653 21.8246 113.646 25.7409C113.646 25.7499 113.642 25.7585 113.636 25.7649C113.629 25.7713 113.621 25.7748 113.612 25.7748H108.265C108.251 25.7748 108.237 25.7692 108.227 25.7593C108.217 25.7494 108.212 25.7359 108.212 25.7219V20.2384C108.212 20.2031 108.194 20.1854 108.158 20.1854ZM101.412 15.9004L108.155 15.8877C108.17 15.8877 108.185 15.8818 108.195 15.8712C108.206 15.8607 108.212 15.8464 108.212 15.8315L108.206 13.0034C108.205 12.1465 107.862 11.3253 107.255 10.7205C106.648 10.1156 105.825 9.77661 104.968 9.77801H104.578C104.153 9.7787 103.733 9.86302 103.341 10.0261C102.949 10.1893 102.593 10.428 102.293 10.7287C101.993 11.0294 101.756 11.3862 101.594 11.7787C101.432 12.1712 101.35 12.5917 101.35 13.0162L101.356 15.8442C101.356 15.8591 101.362 15.8734 101.372 15.8839C101.383 15.8945 101.397 15.9004 101.412 15.9004Z" fill="white"/>
<path d="M52.5983 22.8408C50.1263 25.494 46.2953 26.3629 42.8536 25.4644C40.4474 24.835 37.9765 22.9828 37.1012 20.5033C36.7851 19.6069 36.7076 18.4424 36.7066 17.3414C36.703 13.3164 36.7027 9.29341 36.7055 5.27258C36.7055 5.25824 36.7112 5.2445 36.7213 5.23436C36.7315 5.22423 36.7453 5.21854 36.7596 5.21854H42.06C42.0744 5.21854 42.0882 5.22423 42.0983 5.23436C42.1085 5.2445 42.1141 5.25824 42.1141 5.27258C42.1149 9.17474 42.117 13.0861 42.1205 17.0066C42.1216 18.6458 42.2595 20.1812 43.9644 20.906C45.4709 21.547 47.5514 21.2683 48.4883 19.786C48.8553 19.2042 48.9816 18.2856 48.9816 17.6095C48.9858 13.4947 48.9865 9.38313 48.9837 5.2747C48.9837 5.2598 48.9896 5.24552 49.0002 5.23499C49.0107 5.22445 49.025 5.21854 49.0399 5.21854H54.3669C54.3815 5.21854 54.3956 5.22434 54.4059 5.23467C54.4163 5.24501 54.4221 5.25902 54.4221 5.27364C54.4235 9.26339 54.4224 13.2627 54.4189 17.2715C54.4168 19.3547 54.0804 21.2503 52.5983 22.8408Z" fill="white"/>
<path d="M62.2994 9.80134V25.7219C62.2994 25.7359 62.2939 25.7494 62.2839 25.7593C62.274 25.7693 62.2605 25.7748 62.2464 25.7748H56.9417C56.9276 25.7748 56.9142 25.7693 56.9042 25.7593C56.8943 25.7494 56.8887 25.7359 56.8887 25.7219V5.27365C56.8887 5.25904 56.8944 5.24503 56.9045 5.23469C56.9147 5.22436 56.9284 5.21855 56.9428 5.21855C59.4706 5.21785 62.0077 5.2182 64.5539 5.21961C65.332 5.21961 66.1803 5.28354 67.0991 5.4114C70.7912 5.92425 73.9559 8.80001 73.9676 12.6654C73.975 15.2127 72.4494 17.5089 70.2628 18.7635C68.1417 19.9806 65.8522 20.355 63.3943 19.8866C63.354 19.8789 63.3339 19.8545 63.3339 19.8135V15.3378C63.3339 15.3291 63.3358 15.3205 63.3395 15.3126C63.3432 15.3048 63.3486 15.2978 63.3552 15.2923C63.3619 15.2867 63.3697 15.2827 63.3781 15.2805C63.3865 15.2783 63.3953 15.2779 63.4039 15.2795C65.2117 15.5836 67.5256 15.591 68.3447 13.5862C68.9377 12.1346 67.9818 10.5748 66.5464 10.0938C65.234 9.65405 63.7275 9.66783 62.3578 9.73988C62.3189 9.742 62.2994 9.76248 62.2994 9.80134Z" fill="white"/>
<path d="M81.8472 9.80131V25.7218C81.8472 25.7359 81.8416 25.7494 81.8317 25.7593C81.8217 25.7692 81.8082 25.7748 81.7942 25.7748H76.463C76.4489 25.7748 76.4354 25.7692 76.4254 25.7593C76.4155 25.7494 76.4099 25.7359 76.4099 25.7218V5.27257C76.4099 5.23867 76.4269 5.22171 76.4608 5.22171C79.029 5.21394 81.5933 5.215 84.1537 5.22489C85.7589 5.23125 87.3938 5.40502 88.8324 6.00476C94.3482 8.30621 95.2861 15.4903 89.9411 18.6755C88.4077 19.5889 86.7558 20.0593 84.9855 20.0869C84.3447 20.0964 83.6073 19.9862 82.9315 19.911C82.9177 19.9094 82.905 19.9029 82.8958 19.8928C82.8866 19.8826 82.8816 19.8695 82.8816 19.8559V15.3653C82.8816 15.2975 82.9149 15.2696 82.9813 15.2816C84.7722 15.591 87.1774 15.5677 87.9158 13.5057C88.0742 13.0614 88.1025 12.6089 88.0006 12.1483C87.4182 9.51098 83.9171 9.63496 81.9056 9.73986C81.8899 9.74041 81.875 9.74712 81.8642 9.75859C81.8533 9.77006 81.8472 9.78538 81.8472 9.80131Z" fill="white"/>
<path d="M132.089 22.8938C130.781 24.308 129.135 25.1984 127.149 25.565C123.975 26.151 120.133 25.315 118.008 22.7052C116.771 21.1878 116.359 19.3155 116.356 17.3838C116.354 13.3531 116.353 9.32485 116.355 5.29907C116.355 5.28473 116.361 5.27099 116.371 5.26085C116.381 5.25072 116.395 5.24503 116.409 5.24503H121.232C121.24 5.24503 121.247 5.24645 121.254 5.24922C121.26 5.25199 121.266 5.25605 121.271 5.26116C121.277 5.26628 121.281 5.27235 121.283 5.27904C121.286 5.28572 121.288 5.29289 121.288 5.30013C121.288 9.03416 121.289 12.7774 121.292 16.5298C121.293 18.1107 121.305 19.8241 122.757 20.8254C123.665 21.4513 124.705 21.6812 125.877 21.5152C127.81 21.2408 129.359 19.6069 128.982 17.5714C128.608 15.5592 126.469 14.5324 124.608 14.738C123.901 14.8157 123.137 14.9983 122.316 15.2858C122.307 15.2887 122.299 15.2895 122.29 15.2883C122.281 15.287 122.273 15.2838 122.266 15.2787C122.259 15.2736 122.253 15.2669 122.249 15.2591C122.245 15.2513 122.243 15.2427 122.242 15.2339V10.9934C122.242 10.9821 122.246 10.9712 122.253 10.9624C122.261 10.9535 122.271 10.9473 122.282 10.9446C124.881 10.3375 127.29 10.3682 129.714 11.5846C134.071 13.7716 135.554 19.1481 132.089 22.8938Z" fill="white"/>
<path d="M172.947 14.6511C175.625 19.1046 172.622 24.0487 168.042 25.3298C163.748 26.5314 157.981 25.0437 156.642 20.2119C156.416 19.3953 156.3 18.5014 156.296 17.5301C156.277 13.4513 156.268 9.375 156.27 5.30118C156.27 5.28629 156.276 5.27201 156.286 5.26147C156.297 5.25094 156.311 5.24503 156.326 5.24503H161.177C161.184 5.24503 161.191 5.24645 161.198 5.24922C161.205 5.25199 161.211 5.25605 161.216 5.26116C161.221 5.26628 161.226 5.27235 161.228 5.27904C161.231 5.28572 161.233 5.29289 161.233 5.30013C161.231 9.29695 161.231 13.3029 161.234 17.3181C161.235 19.0336 161.693 20.5309 163.401 21.227C164.764 21.7822 166.408 21.6689 167.616 20.7862C169.326 19.538 169.456 17.0373 167.787 15.6842C166.164 14.3671 164.079 14.5833 162.231 15.3038C162.226 15.3057 162.221 15.3064 162.215 15.3057C162.21 15.3051 162.205 15.3032 162.201 15.3002C162.196 15.2971 162.193 15.2931 162.19 15.2884C162.188 15.2837 162.187 15.2784 162.187 15.2731V11.023C162.186 11.0026 162.193 10.9828 162.206 10.9668C162.219 10.9508 162.237 10.9397 162.257 10.9351C163.317 10.6914 164.442 10.5197 165.5 10.542C168.508 10.6045 171.371 12.0318 172.947 14.6511Z" fill="white"/>
<path d="M136.434 16.2903C137.244 13.3563 140.122 11.2085 143.06 10.6871C147.052 9.97721 151.853 11.5147 153.328 15.6556C153.748 16.835 153.824 18.0026 153.828 19.4225C153.834 21.4711 153.834 23.5179 153.83 25.5629C153.83 25.5982 153.812 25.6159 153.776 25.6159H148.953C148.939 25.6159 148.924 25.61 148.914 25.5994C148.903 25.5889 148.897 25.5746 148.897 25.5597C148.899 23.6715 148.9 21.7741 148.901 19.8675C148.903 18.1065 148.866 16.3656 147.232 15.3674C145.04 14.0312 141.553 14.9001 141.178 17.8066C140.984 19.3017 141.805 20.5478 143.133 21.2058C144.676 21.9687 146.301 21.6095 147.874 21.1168C147.882 21.1143 147.891 21.1137 147.899 21.115C147.907 21.1163 147.915 21.1195 147.922 21.1244C147.929 21.1292 147.934 21.1356 147.938 21.1429C147.942 21.1503 147.944 21.1584 147.943 21.1666V25.4315C147.943 25.4732 147.923 25.4983 147.882 25.5067C145.881 25.9306 144.04 26.0588 142.083 25.4824C138.121 24.3168 135.277 20.4895 136.434 16.2903Z" fill="white"/>
<path d="M186.423 24.6072C184.194 25.8501 181.432 26.1733 179.174 24.9039C177.005 23.6832 176.39 21.8024 176.375 19.4109C176.355 16.4977 176.347 13.5869 176.348 10.6787C176.348 10.6638 176.354 10.6495 176.365 10.639C176.375 10.6284 176.389 10.6225 176.404 10.6225H181.228C181.243 10.6225 181.258 10.6284 181.268 10.639C181.279 10.6495 181.285 10.6638 181.285 10.6787C181.282 13.3263 181.281 15.9831 181.281 18.649C181.281 19.9205 181.461 21.2249 182.927 21.5661C184.667 21.9698 186.463 21.0088 186.473 19.0782C186.485 16.2942 186.487 13.5124 186.479 10.7327C186.479 10.7176 186.485 10.703 186.496 10.6923C186.506 10.6815 186.521 10.6755 186.536 10.6755H191.36C191.375 10.6755 191.389 10.6813 191.399 10.6916C191.41 10.702 191.415 10.716 191.415 10.7306C191.415 14.9238 191.415 19.1262 191.415 23.3378C191.417 25.5216 191.188 27.4554 189.659 29.1338C186.711 32.3677 181.783 32.231 177.817 31.5952C177.776 31.5889 177.756 31.5649 177.756 31.5232V27.396C177.756 27.3862 177.758 27.3765 177.762 27.3676C177.766 27.3587 177.773 27.3509 177.78 27.3447C177.788 27.3385 177.797 27.3341 177.806 27.3318C177.816 27.3295 177.826 27.3293 177.835 27.3314C180.512 27.8718 186.17 28.9717 186.472 24.6379C186.474 24.5976 186.458 24.5874 186.423 24.6072Z" fill="white"/>
<path d="M195.452 11.7997C195.452 12.117 195.326 12.4213 195.101 12.6457C194.877 12.87 194.572 12.996 194.254 12.996C193.937 12.996 193.632 12.87 193.407 12.6457C193.183 12.4213 193.057 12.117 193.057 11.7997C193.057 11.6426 193.088 11.4871 193.148 11.3419C193.208 11.1968 193.296 11.0649 193.407 10.9538C193.519 10.8428 193.651 10.7546 193.796 10.6945C193.941 10.6344 194.097 10.6035 194.254 10.6035C194.412 10.6035 194.567 10.6344 194.713 10.6945C194.858 10.7546 194.99 10.8428 195.101 10.9538C195.213 11.0649 195.301 11.1968 195.361 11.3419C195.421 11.4871 195.452 11.6426 195.452 11.7997ZM195.171 11.8008C195.171 11.6803 195.147 11.561 195.101 11.4496C195.055 11.3383 194.987 11.2372 194.902 11.152C194.817 11.0667 194.715 10.9992 194.604 10.953C194.492 10.9069 194.373 10.8832 194.252 10.8832C194.132 10.8832 194.012 10.9069 193.901 10.953C193.789 10.9992 193.688 11.0667 193.603 11.152C193.517 11.2372 193.45 11.3383 193.403 11.4496C193.357 11.561 193.334 11.6803 193.334 11.8008C193.334 12.0442 193.43 12.2776 193.603 12.4497C193.775 12.6217 194.009 12.7184 194.252 12.7184C194.496 12.7184 194.73 12.6217 194.902 12.4497C195.074 12.2776 195.171 12.0442 195.171 11.8008Z" fill="white"/>
<path d="M194.094 12.0646V12.4662C194.094 12.5129 194.071 12.5348 194.024 12.5319L193.873 12.5224C193.854 12.5213 193.836 12.513 193.823 12.4992C193.81 12.4854 193.802 12.4672 193.802 12.4482V11.1608C193.803 11.1433 193.809 11.1263 193.82 11.1128C193.832 11.0993 193.848 11.09 193.865 11.0866C194.309 11.0029 195.151 11.2593 194.605 11.8506C194.576 11.8824 194.573 11.9156 194.598 11.9502L194.841 12.302C194.847 12.3098 194.85 12.3187 194.852 12.328C194.854 12.3373 194.854 12.3469 194.853 12.3563C194.851 12.3657 194.847 12.3746 194.842 12.3825C194.837 12.3905 194.83 12.3973 194.822 12.4027L194.677 12.5001C194.636 12.5277 194.602 12.5203 194.575 12.4779L194.286 12.0095C194.274 11.9905 194.256 11.9758 194.235 11.9678C194.214 11.9597 194.191 11.9587 194.17 11.9649C194.148 11.9712 194.129 11.9843 194.115 12.0022C194.102 12.0202 194.094 12.0421 194.094 12.0646ZM194.094 11.3642V11.68C194.094 11.6876 194.097 11.6949 194.103 11.7002C194.108 11.7056 194.115 11.7086 194.123 11.7086H194.199C194.231 11.7086 194.262 11.7042 194.292 11.6954C194.321 11.6867 194.347 11.6739 194.37 11.6578C194.392 11.6416 194.41 11.6225 194.422 11.6014C194.434 11.5803 194.44 11.5577 194.44 11.5348V11.5094C194.44 11.4634 194.415 11.4192 194.369 11.3866C194.324 11.354 194.263 11.3357 194.199 11.3356H194.123C194.115 11.3356 194.108 11.3386 194.103 11.344C194.097 11.3494 194.094 11.3567 194.094 11.3642Z" fill="white"/>
<path d="M20.1104 16.0127C23.7165 16.7841 27.3768 18.6342 29.9166 21.3489C30.9776 22.4837 31.594 23.9693 31.4794 25.528C31.298 27.9894 29.2196 30.2411 26.8622 30.8334C24.6162 31.3971 22.6514 30.382 21.1576 28.7184C18.8309 26.1245 17.3934 22.9669 16.5934 19.5995C16.5856 19.5642 16.5994 19.5426 16.6348 19.5348C18.5268 19.1202 19.6631 17.9606 20.0436 16.0562C20.0506 16.0187 20.0729 16.0042 20.1104 16.0127Z" fill="white"/>
<path d="M0.5 25.5152V24.7629C0.689908 23.1174 1.51744 21.7462 2.7651 20.6432C5.35696 18.3513 8.54189 16.888 11.9029 16.1123C11.9091 16.1109 11.9154 16.1107 11.9216 16.1118C11.9278 16.1128 11.9338 16.1151 11.9391 16.1184C11.9444 16.1218 11.949 16.1262 11.9526 16.1313C11.9563 16.1364 11.9588 16.1422 11.9602 16.1484C12.3903 18.0401 13.5576 19.1739 15.4624 19.5497C15.4693 19.5511 15.4759 19.5538 15.4818 19.5578C15.4876 19.5617 15.4926 19.5668 15.4965 19.5728C15.5003 19.5787 15.503 19.5853 15.5042 19.5923C15.5055 19.5992 15.5053 19.6064 15.5038 19.6133C14.6688 23.2986 12.9225 26.6978 10.2553 29.3182C6.54309 32.9653 1.11428 30.1277 0.5 25.5152Z" fill="white"/>
</g>
<defs>
<clipPath id="clip0_425_2193">
<rect width="195" height="32" fill="white" transform="translate(0.5)"/>
</clipPath>
</defs>
</svg>
