<svg width="142" height="48" viewBox="0 0 142 48" fill="none" xmlns="http://www.w3.org/2000/svg">
<path d="M103.473 14.4315V0.964515C103.473 0.923657 103.493 0.903229 103.534 0.903229H110.306C110.347 0.903229 110.367 0.923657 110.367 0.964515V36.8476C110.367 36.8884 110.347 36.9088 110.306 36.9088H103.533C103.517 36.9088 103.503 36.9028 103.492 36.892C103.481 36.8812 103.475 36.8665 103.475 36.8512C103.47 36.4026 103.398 35.9087 103.6 35.4907C104.578 33.4633 105.557 31.4372 106.536 29.4123C106.539 29.4047 106.541 29.3963 106.541 29.3879C106.54 29.3795 106.538 29.3713 106.533 29.3641C106.529 29.3569 106.523 29.3509 106.516 29.3467C106.508 29.3425 106.5 29.3402 106.492 29.34H105.095C105.051 29.34 105.021 29.36 105.004 29.4001C103.229 33.4376 100.716 36.877 95.9773 37.4702C91.7094 38.0059 87.765 36.3781 85.2118 32.9191C79.3418 24.9666 82.6868 10.6097 93.9782 9.76643C97.7914 9.48207 101.519 10.9762 103.43 14.4426C103.432 14.4467 103.436 14.4499 103.441 14.4517C103.445 14.4535 103.45 14.4539 103.455 14.4526C103.46 14.4514 103.464 14.4487 103.467 14.4449C103.47 14.4411 103.472 14.4364 103.473 14.4315ZM89.9026 21.2625C89.0226 24.8379 90.0939 29.5962 94.0958 30.9028C95.7081 31.4299 97.3031 31.4581 98.8811 30.9874C102.922 29.7837 104.057 25.4005 103.4 21.7185C102.731 17.9653 99.8727 15.7786 96.0496 16.0299C92.8971 16.2383 90.6516 18.2252 89.9026 21.2625Z" fill="white"/>
<path d="M47.5944 14.4404C47.5968 14.4454 47.6009 14.4494 47.6059 14.4518C47.6109 14.4542 47.6166 14.4548 47.6221 14.4536C47.6275 14.4523 47.6323 14.4492 47.6358 14.4448C47.6392 14.4404 47.641 14.4349 47.6409 14.4294V10.4948C47.6409 10.4539 47.6614 10.4335 47.7022 10.4335H54.4743C54.5152 10.4335 54.5356 10.4539 54.5356 10.4948V36.8478C54.5356 36.8887 54.5152 36.9091 54.4743 36.9091H47.7059C47.6699 36.9091 47.6507 36.8911 47.6483 36.8552C47.6152 36.3134 47.5833 35.8722 47.8309 35.3635C48.7935 33.3786 49.7529 31.393 50.7089 29.4065C50.7302 29.3623 50.7167 29.3403 50.6685 29.3403H49.2711C49.2295 29.3403 49.2001 29.3591 49.1829 29.3967C47.2487 33.6511 44.7642 37.0452 39.7277 37.5244C30.6475 38.3873 25.8194 29.8244 26.6382 21.8621C27.3405 15.0422 32.3795 9.43208 39.583 9.74586C42.9378 9.8905 46.0083 11.4815 47.5944 14.4404ZM33.8368 26.4083C34.9081 30.2191 38.5203 31.9204 42.249 31.12C45.2103 30.4851 46.8883 28.1146 47.3014 25.2353C47.8677 21.2897 46.4385 17.0389 42.0627 16.176C35.5332 14.889 32.2728 20.8436 33.8368 26.4083Z" fill="white"/>
<path d="M134.551 14.4305C134.555 14.4362 134.56 14.4406 134.565 14.4432C134.571 14.4458 134.578 14.4464 134.584 14.4449C134.59 14.4433 134.596 14.4398 134.6 14.4347C134.604 14.4297 134.606 14.4235 134.607 14.417L134.604 10.4947C134.604 10.4539 134.625 10.4334 134.667 10.4334H141.439C141.455 10.4334 141.471 10.4399 141.482 10.4514C141.494 10.4629 141.5 10.4785 141.5 10.4947V36.8478C141.5 36.8886 141.48 36.9091 141.439 36.9091H134.694C134.673 36.9091 134.653 36.9011 134.637 36.8868C134.622 36.8724 134.613 36.8528 134.612 36.8318C134.581 36.3072 134.548 35.8843 134.787 35.3904C135.749 33.4055 136.709 31.4186 137.666 29.4297C137.671 29.4202 137.673 29.4096 137.672 29.3991C137.671 29.3886 137.668 29.3783 137.663 29.3694C137.657 29.3605 137.649 29.3531 137.64 29.348C137.631 29.3429 137.62 29.3402 137.61 29.3402H136.207C136.174 29.3402 136.151 29.3557 136.138 29.3868C134.422 33.4942 131.779 36.8919 127.038 37.4655C123.723 37.8659 120.835 37.0659 118.372 35.0656C114.086 31.5833 112.805 25.3198 113.909 20.0946C115.33 13.3715 121.12 8.69781 128.14 9.94069C130.873 10.4236 133.261 11.9803 134.551 14.4305ZM121.031 21.2897C120.044 25.1899 121.504 30.1627 125.996 31.1151C129.488 31.8554 132.964 30.4826 134.174 26.9501C135.018 24.4851 134.925 21.2933 133.532 19.0233C132.107 16.703 129.437 15.7175 126.76 16.0669C123.719 16.4628 121.756 18.419 121.031 21.2897Z" fill="white"/>
<path d="M10.9002 33.6916H12.2951C12.349 33.6916 12.3833 33.6655 12.398 33.6132L19.077 10.4874C19.0876 10.4515 19.1113 10.4335 19.1481 10.4335H26.1543C26.1612 10.4336 26.168 10.4352 26.1742 10.4384C26.1803 10.4416 26.1857 10.4462 26.1897 10.4518C26.1938 10.4574 26.1965 10.4639 26.1975 10.4707C26.1986 10.4775 26.1981 10.4845 26.196 10.4911L17.4946 36.8576C17.4831 36.892 17.4594 36.9091 17.4235 36.9091H9.37416C9.35808 36.9091 9.34242 36.904 9.32942 36.8945C9.31643 36.8851 9.30677 36.8717 9.30184 36.8564L0.503603 10.5279C0.499899 10.5172 0.498849 10.5058 0.500542 10.4945C0.502234 10.4833 0.506619 10.4727 0.513333 10.4634C0.520046 10.4542 0.528895 10.4467 0.539141 10.4415C0.549388 10.4363 0.560736 10.4335 0.572244 10.4335H7.64589C7.68185 10.4335 7.70514 10.4507 7.71576 10.485C8.57867 13.2584 9.43749 16.0306 10.2922 18.8015C11.0791 21.3547 11.8011 24.0206 11.882 26.6437C11.9568 29.0645 11.3917 31.2916 10.8487 33.6266C10.8381 33.6699 10.8552 33.6916 10.9002 33.6916Z" fill="white"/>
<path d="M67.4683 32.4659H68.8693C68.9257 32.4659 68.9616 32.4385 68.9771 32.3838L75.2185 10.4862C75.2291 10.4511 75.2524 10.4335 75.2884 10.4335H82.2958C82.3383 10.4335 82.3531 10.4535 82.34 10.4936C79.0828 20.3843 75.822 30.2727 72.5575 40.1585C71.4114 43.631 69.2443 46.5249 65.3625 47.0042C63.6685 47.2138 61.814 47.0986 60.2868 46.3362C60.2524 46.319 60.2353 46.2916 60.2353 46.254V40.3755C60.2353 40.3395 60.252 40.3281 60.2855 40.3412C62.9417 41.4002 65.9655 40.7297 66.723 37.6115C66.7318 37.5756 66.7297 37.538 66.7169 37.5036L56.6525 10.5193C56.6312 10.4621 56.6513 10.4335 56.7126 10.4335H63.7874C63.825 10.4335 63.8495 10.4519 63.861 10.4887C64.929 13.9321 65.997 17.3735 67.065 20.8129C67.5602 22.4088 67.8969 23.885 68.075 25.2415C68.3876 27.6071 68.0186 30.1002 67.4156 32.3985C67.4033 32.4434 67.4209 32.4659 67.4683 32.4659Z" fill="white"/>
</svg>
