<svg width="67" height="66" viewBox="0 0 67 66" fill="none" xmlns="http://www.w3.org/2000/svg">
<circle cx="17.5734" cy="17.5734" r="17.5734" transform="matrix(1 0 0 -1 14.2031 50.5659)" fill="black"/>
<path d="M33.0729 65.8652C14.8849 65.8652 0.140625 51.121 0.140625 32.933C0.140625 14.745 14.8849 0.000762939 33.0729 0.000762939C51.2608 0.000762939 66.0051 14.745 66.0051 32.933C65.9858 51.1128 51.2528 65.8458 33.0729 65.8652ZM46.9419 31.8837C46.7139 31.4264 46.3433 31.0556 45.8859 30.8276V30.8159L27.0675 21.4067C25.9053 20.826 24.4925 21.2972 23.9117 22.4594C23.7466 22.7898 23.6615 23.1545 23.6636 23.5237V42.3421C23.663 43.6413 24.7157 44.6949 26.0148 44.6956C26.3802 44.6957 26.7407 44.6108 27.0675 44.4475L45.8859 35.0382C47.0486 34.4588 47.5215 33.0464 46.9419 31.8837Z" fill="white"/>
</svg>
