<svg width="120" height="120" viewBox="0 0 120 120" fill="none" xmlns="http://www.w3.org/2000/svg">
<circle cx="60" cy="60" r="60" fill="#001838"/>
<circle cx="60" cy="60" r="43" fill="#04234D"/>
<circle cx="60" cy="60" r="23" fill="white"/>
<path d="M58.8323 69.456C57.4883 69.456 56.3283 69.2 55.3523 68.688C54.3923 68.176 53.6563 67.496 53.1443 66.648C52.6323 65.784 52.3763 64.824 52.3763 63.768H55.6643C55.6643 64.616 55.9443 65.304 56.5043 65.832C57.0803 66.344 57.8563 66.6 58.8323 66.6C59.4883 66.6 60.0483 66.48 60.5123 66.24C60.9923 65.984 61.3603 65.64 61.6163 65.208C61.8723 64.76 62.0003 64.248 62.0003 63.672C62.0003 62.808 61.7203 62.104 61.1603 61.56C60.6003 61 59.8323 60.72 58.8563 60.72C58.3763 60.72 57.9523 60.784 57.5843 60.912C57.2323 61.04 56.9203 61.208 56.6483 61.416L55.0883 58.728L60.8483 54.792L60.6323 54.384H53.0963V51.48H64.5443V54.984L58.6163 58.92L56.7683 58.584C57.0723 58.488 57.4003 58.416 57.7523 58.368C58.1043 58.304 58.4883 58.272 58.9043 58.272C60.2323 58.272 61.3683 58.504 62.3123 58.968C63.2723 59.416 64.0083 60.04 64.5203 60.84C65.0323 61.64 65.2883 62.56 65.2883 63.6V63.912C65.2883 64.92 65.0323 65.848 64.5203 66.696C64.0083 67.528 63.2723 68.2 62.3123 68.712C61.3523 69.208 60.1923 69.456 58.8323 69.456Z" fill="#001838"/>
</svg>
