<svg width="120" height="120" viewBox="0 0 120 120" fill="none" xmlns="http://www.w3.org/2000/svg">
<circle cx="60" cy="60" r="60" fill="#001838"/>
<circle cx="60" cy="60" r="43" fill="#04234D"/>
<circle cx="60" cy="60" r="23" fill="white"/>
<path d="M53.0366 69V65.64C53.0366 64.904 53.1486 64.264 53.3726 63.72C53.6126 63.176 53.9966 62.696 54.5246 62.28C55.0686 61.848 55.7806 61.44 56.6606 61.056L59.6366 59.736C60.3726 59.4 60.9326 58.992 61.3166 58.512C61.7166 58.016 61.9166 57.384 61.9166 56.616C61.9166 55.768 61.6606 55.096 61.1486 54.6C60.6526 54.088 59.9406 53.832 59.0126 53.832C58.0846 53.832 57.3646 54.088 56.8526 54.6C56.3566 55.112 56.1086 55.824 56.1086 56.736H52.8206C52.8206 55.648 53.0526 54.672 53.5166 53.808C53.9806 52.928 54.6686 52.24 55.5806 51.744C56.4926 51.232 57.6366 50.976 59.0126 50.976C60.3886 50.976 61.5326 51.224 62.4446 51.72C63.3566 52.216 64.0446 52.88 64.5086 53.712C64.9726 54.528 65.2046 55.44 65.2046 56.448V56.76C65.2046 58.072 64.8366 59.168 64.1006 60.048C63.3646 60.912 62.2846 61.664 60.8606 62.304L57.8846 63.624C57.3246 63.864 56.9326 64.12 56.7086 64.392C56.4846 64.648 56.3726 65 56.3726 65.448V66.984L55.5566 66.096H65.2766V69H53.0366Z" fill="#001838"/>
</svg>
