<svg width="18" height="14" viewBox="0 0 18 14" fill="none" xmlns="http://www.w3.org/2000/svg">
<path d="M9.20455 0.351562C9.64964 0.354013 10.7632 0.364779 11.9464 0.412171L12.3659 0.430462C13.5571 0.486862 14.7474 0.583213 15.3377 0.747813C16.1251 0.969021 16.7441 1.61448 16.9532 2.43266C17.2863 3.7319 17.328 6.26773 17.3331 6.8814L17.3339 7.00856V7.01748C17.3339 7.01748 17.3339 7.02056 17.3339 7.02648L17.3331 7.15365C17.328 7.76731 17.2863 10.3031 16.9532 11.6024C16.7411 12.4236 16.1222 13.0691 15.3377 13.2872C14.7474 13.4518 13.5571 13.5481 12.3659 13.6046L11.9464 13.6228C10.7632 13.6702 9.64964 13.681 9.20455 13.6835L9.00922 13.6841H9.00055C9.00055 13.6841 8.99763 13.6841 8.99189 13.6841L8.79672 13.6835C7.85472 13.6783 3.91607 13.6357 2.66339 13.2872C1.87597 13.066 1.25707 12.4206 1.04786 11.6024C0.714802 10.3031 0.673169 7.76731 0.667969 7.15365V6.8814C0.673169 6.26773 0.714802 3.7319 1.04786 2.43266C1.25997 1.61145 1.87887 0.965996 2.66339 0.747813C3.91607 0.399254 7.85472 0.356746 8.79672 0.351562H9.20455ZM7.33389 4.10085V9.93415L12.3339 7.01748L7.33389 4.10085Z" fill="white"/>
</svg>
