<svg width="56" height="57" viewBox="0 0 56 57" fill="none" xmlns="http://www.w3.org/2000/svg">
<path d="M28.2046 21.3516C28.6496 21.354 29.7632 21.3648 30.9464 21.4122L31.3659 21.4305C32.5571 21.4869 33.7474 21.5832 34.3377 21.7478C35.1251 21.969 35.7441 22.6145 35.9532 23.4327C36.2863 24.7319 36.328 27.2677 36.3331 27.8814L36.3339 28.0086V28.0175C36.3339 28.0175 36.3339 28.0206 36.3339 28.0265L36.3331 28.1536C36.328 28.7673 36.2863 31.3031 35.9532 32.6024C35.7411 33.4236 35.1222 34.0691 34.3377 34.2872C33.7474 34.4518 32.5571 34.5481 31.3659 34.6046L30.9464 34.6228C29.7632 34.6702 28.6496 34.681 28.2046 34.6835L28.0092 34.6841H28.0006C28.0006 34.6841 27.9976 34.6841 27.9919 34.6841L27.7967 34.6835C26.8547 34.6783 22.9161 34.6357 21.6634 34.2872C20.876 34.066 20.2571 33.4206 20.0479 32.6024C19.7148 31.3031 19.6732 28.7673 19.668 28.1536V27.8814C19.6732 27.2677 19.7148 24.7319 20.0479 23.4327C20.26 22.6114 20.8789 21.966 21.6634 21.7478C22.9161 21.3993 26.8547 21.3567 27.7967 21.3516H28.2046ZM26.3339 25.1008V30.9341L31.3339 28.0175L26.3339 25.1008Z" fill="white"/>
<rect x="0.5" y="0.517578" width="55" height="55" rx="27.5" stroke="#2D2D2D"/>
</svg>
