<svg width="16" height="17" viewBox="0 0 16 17" fill="none" xmlns="http://www.w3.org/2000/svg">
<path d="M14.6779 0.616034H1.33992C1.01592 0.616034 0.739922 0.727034 0.511922 0.949034C0.283922 1.17103 0.169922 1.43803 0.169922 1.75003V15.25C0.169922 15.562 0.283922 15.829 0.511922 16.051C0.739922 16.273 1.01592 16.384 1.33992 16.384H14.6779C14.9899 16.384 15.2599 16.273 15.4879 16.051C15.7159 15.829 15.8299 15.562 15.8299 15.25V1.75003C15.8299 1.43803 15.7159 1.17103 15.4879 0.949034C15.2599 0.727034 14.9899 0.616034 14.6779 0.616034ZM4.92192 13.81H2.56392V6.70003H4.92192V13.81ZM3.73392 5.72803H3.71592C3.33192 5.72803 3.01992 5.61103 2.77992 5.37703C2.53992 5.14303 2.41992 4.84903 2.41992 4.49503C2.41992 4.14103 2.54292 3.84703 2.78892 3.61303C3.03492 3.37903 3.35592 3.26203 3.75192 3.26203C4.14792 3.26203 4.46592 3.37903 4.70592 3.61303C4.94592 3.84703 5.06592 4.14103 5.06592 4.49503C5.06592 4.84903 4.94592 5.14303 4.70592 5.37703C4.46592 5.61103 4.14192 5.72803 3.73392 5.72803ZM13.4359 13.81H11.0779V9.99403C11.0779 9.49003 10.9879 9.10603 10.8079 8.84203C10.6039 8.54203 10.2979 8.39203 9.88992 8.39203C9.58992 8.39203 9.32592 8.48203 9.09792 8.66203C8.91792 8.81803 8.77392 9.01603 8.66592 9.25603C8.61792 9.40003 8.59392 9.59203 8.59392 9.83203V13.81H6.23592V10.498C6.24792 8.24203 6.24792 6.97603 6.23592 6.70003H8.59392V7.70803C9.08592 6.92803 9.79392 6.53803 10.7179 6.53803C11.5339 6.53803 12.1819 6.79603 12.6619 7.31203C13.1779 7.87603 13.4359 8.68003 13.4359 9.72403V13.81Z" fill="#343A40"/>
</svg>
