<svg width="50" height="51" viewBox="0 0 50 51" fill="none" xmlns="http://www.w3.org/2000/svg">
<rect x="0.5" y="1" width="49" height="49" rx="24.5" stroke="#0A4D3C" stroke-opacity="0.25"/>
<path d="M31.6779 17.616H18.3399C18.0159 17.616 17.7399 17.727 17.5119 17.949C17.2839 18.171 17.1699 18.438 17.1699 18.75V32.25C17.1699 32.562 17.2839 32.829 17.5119 33.051C17.7399 33.273 18.0159 33.384 18.3399 33.384H31.6779C31.9899 33.384 32.2599 33.273 32.4879 33.051C32.7159 32.829 32.8299 32.562 32.8299 32.25V18.75C32.8299 18.438 32.7159 18.171 32.4879 17.949C32.2599 17.727 31.9899 17.616 31.6779 17.616ZM21.9219 30.81H19.5639V23.7H21.9219V30.81ZM20.7339 22.728H20.7159C20.3319 22.728 20.0199 22.611 19.7799 22.377C19.5399 22.143 19.4199 21.849 19.4199 21.495C19.4199 21.141 19.5429 20.847 19.7889 20.613C20.0349 20.379 20.3559 20.262 20.7519 20.262C21.1479 20.262 21.4659 20.379 21.7059 20.613C21.9459 20.847 22.0659 21.141 22.0659 21.495C22.0659 21.849 21.9459 22.143 21.7059 22.377C21.4659 22.611 21.1419 22.728 20.7339 22.728ZM30.4359 30.81H28.0779V26.994C28.0779 26.49 27.9879 26.106 27.8079 25.842C27.6039 25.542 27.2979 25.392 26.8899 25.392C26.5899 25.392 26.3259 25.482 26.0979 25.662C25.9179 25.818 25.7739 26.016 25.6659 26.256C25.6179 26.4 25.5939 26.592 25.5939 26.832V30.81H23.2359V27.498C23.2479 25.242 23.2479 23.976 23.2359 23.7H25.5939V24.708C26.0859 23.928 26.7939 23.538 27.7179 23.538C28.5339 23.538 29.1819 23.796 29.6619 24.312C30.1779 24.876 30.4359 25.68 30.4359 26.724V30.81Z" fill="#343A40"/>
</svg>
