<svg width="14" height="12" viewBox="0 0 14 12" fill="none" xmlns="http://www.w3.org/2000/svg">
<path d="M0 1.25C0 0.84375 0.3125 0.5 0.75 0.5H13.25C13.6562 0.5 14 0.84375 14 1.25C14 1.6875 13.6562 2 13.25 2H0.75C0.3125 2 0 1.6875 0 1.25ZM0 6.25C0 5.84375 0.3125 5.5 0.75 5.5H13.25C13.6562 5.5 14 5.84375 14 6.25C14 6.6875 13.6562 7 13.25 7H0.75C0.3125 7 0 6.6875 0 6.25ZM14 11.25C14 11.6875 13.6562 12 13.25 12H0.75C0.3125 12 0 11.6875 0 11.25C0 10.8438 0.3125 10.5 0.75 10.5H13.25C13.6562 10.5 14 10.8438 14 11.25Z" fill="#2C241B"/>
</svg>
