<svg width="77" height="12" viewBox="0 0 77 12" fill="none" xmlns="http://www.w3.org/2000/svg">
<g clip-path="url(#clip0_10_131)">
<path d="M11.9691 4.65911C11.8228 4.82029 11.5941 5.06206 11.283 5.38443L11.2419 5.42709C10.4277 6.25197 9.81475 6.86825 9.40309 7.27595C9.27501 7.40868 9.17896 7.51298 9.11492 7.58883C9.07833 7.62675 9.06003 7.68364 9.06003 7.75949L9.75986 11.9692V11.9976C9.75072 12.0071 9.70497 11.9881 9.62264 11.9407C9.45798 11.8554 9.22013 11.7274 8.90909 11.5567L6.06861 10.0066C6.00457 9.96863 5.93596 9.97337 5.86278 10.0208L4.46312 10.7888C3.51172 11.3102 2.7936 11.699 2.30875 11.955C2.29045 11.9739 2.27216 11.9834 2.25386 11.9834C2.20812 12.0024 2.1944 11.9644 2.21269 11.8696L2.36364 10.8883C2.60149 9.48509 2.7753 8.43266 2.88508 7.73105C2.89423 7.71208 2.89194 7.68601 2.87822 7.65283C2.86449 7.61964 2.84848 7.59357 2.83019 7.57461L2.36364 7.10528C1.75071 6.489 1.29331 6.01967 0.991424 5.69731C0.707833 5.41287 0.38765 5.06206 0.0308748 4.64489C0.00343053 4.61644 -0.00571755 4.59037 0.00343053 4.56667C0.0125786 4.54296 0.0354488 4.52637 0.0720412 4.51689L3.36535 4.01912C3.6215 3.97171 3.81361 3.94327 3.94168 3.93379C3.99657 3.92431 4.03774 3.91009 4.06518 3.89112C4.09262 3.87216 4.12007 3.83424 4.14751 3.77735C4.91595 2.14656 5.49686 0.923478 5.89022 0.108087L5.93139 0.0369768C5.94054 0.018014 5.95426 0.00616264 5.97256 0.00142193C5.99085 -0.00331879 6.00686 0.00379276 6.02058 0.0227547C6.03431 0.0417175 6.04117 0.0606804 6.04117 0.0796423L7.81132 3.79157C7.84791 3.8769 7.91195 3.92431 8.00343 3.93379L11.928 4.53111C11.9646 4.53111 11.9874 4.54296 11.9966 4.56667C12.0057 4.59037 11.9966 4.62118 11.9691 4.65911Z" fill="#FFBA00"/>
<path d="M27.9691 4.65911C27.8228 4.82029 27.5941 5.06206 27.283 5.38443L27.2419 5.42709C26.4277 6.25197 25.8148 6.86825 25.4031 7.27595C25.275 7.40868 25.179 7.51298 25.1149 7.58883C25.0783 7.62675 25.06 7.68364 25.06 7.75949L25.7599 11.9692V11.9976C25.7507 12.0071 25.705 11.9881 25.6226 11.9407C25.458 11.8554 25.2201 11.7274 24.9091 11.5567L22.0686 10.0066C22.0046 9.96863 21.936 9.97337 21.8628 10.0208L20.4631 10.7888C19.5117 11.3102 18.7936 11.699 18.3087 11.955C18.2905 11.9739 18.2722 11.9834 18.2539 11.9834C18.2081 12.0024 18.1944 11.9644 18.2127 11.8696L18.3636 10.8883C18.6015 9.48509 18.7753 8.43266 18.8851 7.73105C18.8942 7.71208 18.8919 7.68601 18.8782 7.65283C18.8645 7.61964 18.8485 7.59357 18.8302 7.57461L18.3636 7.10528C17.7507 6.489 17.2933 6.01967 16.9914 5.69731C16.7078 5.41287 16.3877 5.06206 16.0309 4.64489C16.0034 4.61644 15.9943 4.59037 16.0034 4.56667C16.0126 4.54296 16.0354 4.52637 16.072 4.51689L19.3654 4.01912C19.6215 3.97171 19.8136 3.94327 19.9417 3.93379C19.9966 3.92431 20.0377 3.91009 20.0652 3.89112C20.0926 3.87216 20.1201 3.83424 20.1475 3.77735C20.916 2.14656 21.4969 0.923478 21.8902 0.108087L21.9314 0.0369768C21.9405 0.018014 21.9543 0.00616264 21.9726 0.00142193C21.9909 -0.00331879 22.0069 0.00379276 22.0206 0.0227547C22.0343 0.0417175 22.0412 0.0606804 22.0412 0.0796423L23.8113 3.79157C23.8479 3.8769 23.9119 3.92431 24.0034 3.93379L27.928 4.53111C27.9646 4.53111 27.9874 4.54296 27.9966 4.56667C28.0057 4.59037 27.9966 4.62118 27.9691 4.65911Z" fill="#FFBA00"/>
<path d="M43.9691 4.65911C43.8228 4.82029 43.5941 5.06206 43.283 5.38443L43.2419 5.42709C42.4277 6.25197 41.8148 6.86825 41.4031 7.27595C41.275 7.40868 41.179 7.51298 41.1149 7.58883C41.0783 7.62675 41.06 7.68364 41.06 7.75949L41.7599 11.9692V11.9976C41.7507 12.0071 41.705 11.9881 41.6226 11.9407C41.458 11.8554 41.2201 11.7274 40.9091 11.5567L38.0686 10.0066C38.0046 9.96863 37.936 9.97337 37.8628 10.0208L36.4631 10.7888C35.5117 11.3102 34.7936 11.699 34.3087 11.955C34.2905 11.9739 34.2722 11.9834 34.2539 11.9834C34.2081 12.0024 34.1944 11.9644 34.2127 11.8696L34.3636 10.8883C34.6015 9.48509 34.7753 8.43266 34.8851 7.73105C34.8942 7.71208 34.8919 7.68601 34.8782 7.65283C34.8645 7.61964 34.8485 7.59357 34.8302 7.57461L34.3636 7.10528C33.7507 6.489 33.2933 6.01967 32.9914 5.69731C32.7078 5.41287 32.3877 5.06206 32.0309 4.64489C32.0034 4.61644 31.9943 4.59037 32.0034 4.56667C32.0126 4.54296 32.0354 4.52637 32.072 4.51689L35.3654 4.01912C35.6215 3.97171 35.8136 3.94327 35.9417 3.93379C35.9966 3.92431 36.0377 3.91009 36.0652 3.89112C36.0926 3.87216 36.1201 3.83424 36.1475 3.77735C36.916 2.14656 37.4969 0.923478 37.8902 0.108087L37.9314 0.0369768C37.9405 0.018014 37.9543 0.00616264 37.9726 0.00142193C37.9909 -0.00331879 38.0069 0.00379276 38.0206 0.0227547C38.0343 0.0417175 38.0412 0.0606804 38.0412 0.0796423L39.8113 3.79157C39.8479 3.8769 39.912 3.92431 40.0034 3.93379L43.928 4.53111C43.9646 4.53111 43.9874 4.54296 43.9966 4.56667C44.0057 4.59037 43.9966 4.62118 43.9691 4.65911Z" fill="#FFBA00"/>
<path d="M59.9691 4.65911C59.8228 4.82029 59.5941 5.06206 59.283 5.38443L59.2419 5.42709C58.4277 6.25197 57.8148 6.86825 57.4031 7.27595C57.275 7.40868 57.179 7.51298 57.1149 7.58883C57.0783 7.62675 57.06 7.68364 57.06 7.75949L57.7599 11.9692V11.9976C57.7507 12.0071 57.705 11.9881 57.6226 11.9407C57.458 11.8554 57.2201 11.7274 56.9091 11.5567L54.0686 10.0066C54.0046 9.96863 53.936 9.97337 53.8628 10.0208L52.4631 10.7888C51.5117 11.3102 50.7936 11.699 50.3087 11.955C50.2905 11.9739 50.2722 11.9834 50.2539 11.9834C50.2081 12.0024 50.1944 11.9644 50.2127 11.8696L50.3636 10.8883C50.6015 9.48509 50.7753 8.43266 50.8851 7.73105C50.8942 7.71208 50.8919 7.68601 50.8782 7.65283C50.8645 7.61964 50.8485 7.59357 50.8302 7.57461L50.3636 7.10528C49.7507 6.489 49.2933 6.01967 48.9914 5.69731C48.7078 5.41287 48.3877 5.06206 48.0309 4.64489C48.0034 4.61644 47.9943 4.59037 48.0034 4.56667C48.0126 4.54296 48.0354 4.52637 48.072 4.51689L51.3654 4.01912C51.6215 3.97171 51.8136 3.94327 51.9417 3.93379C51.9966 3.92431 52.0377 3.91009 52.0652 3.89112C52.0926 3.87216 52.1201 3.83424 52.1475 3.77735C52.916 2.14656 53.4969 0.923478 53.8902 0.108087L53.9314 0.0369768C53.9405 0.018014 53.9543 0.00616264 53.9726 0.00142193C53.9909 -0.00331879 54.0069 0.00379276 54.0206 0.0227547C54.0343 0.0417175 54.0412 0.0606804 54.0412 0.0796423L55.8113 3.79157C55.8479 3.8769 55.912 3.92431 56.0034 3.93379L59.928 4.53111C59.9646 4.53111 59.9874 4.54296 59.9966 4.56667C60.0057 4.59037 59.9966 4.62118 59.9691 4.65911Z" fill="#FFBA00"/>
<path d="M76.2115 4.77367C76.0622 4.93233 75.8288 5.17033 75.5115 5.48767L75.4695 5.52967C74.6388 6.34167 74.0135 6.94833 73.5935 7.34967C73.4628 7.48033 73.3648 7.583 73.2995 7.65767C73.2622 7.695 73.2435 7.751 73.2435 7.82567L73.9575 11.9697V11.9977C73.9482 12.007 73.9015 11.9883 73.8175 11.9417C73.6495 11.8577 73.4068 11.7317 73.0895 11.5637L70.1915 10.0377C70.1262 10.0003 70.0562 10.005 69.9815 10.0517L68.5535 10.8077C67.5828 11.321 66.8502 11.7037 66.3555 11.9557C66.3368 11.9743 66.3182 11.9837 66.2995 11.9837C66.2528 12.0023 66.2388 11.965 66.2575 11.8717L66.4115 10.9057C66.6542 9.52433 66.8315 8.48833 66.9435 7.79767C66.9528 7.779 66.9505 7.75333 66.9365 7.72067C66.9225 7.688 66.9062 7.66233 66.8875 7.64367L66.4115 7.18167C65.7862 6.575 65.3195 6.113 65.0115 5.79567C64.7222 5.51567 64.3955 5.17033 64.0315 4.75967C64.0035 4.73167 63.9942 4.706 64.0035 4.68267C64.0128 4.65933 64.0362 4.643 64.0735 4.63367L67.4335 4.14367C67.6948 4.097 67.8908 4.069 68.0215 4.05967C68.0775 4.05033 68.1195 4.03633 68.1475 4.01767C68.1755 3.999 68.2035 3.96167 68.2315 3.90567C69.0155 2.30033 69.6082 1.09633 70.0095 0.293666L70.0515 0.223666C70.0608 0.204999 70.0748 0.193333 70.0935 0.188666C70.1122 0.183999 70.1285 0.190999 70.1425 0.209666C70.1565 0.228333 70.1635 0.247 70.1635 0.265666L71.9695 3.91967C72.0068 4.00367 72.0722 4.05033 72.1655 4.05967L76.1695 4.64767C76.2068 4.64767 76.2302 4.65933 76.2395 4.68267C76.2488 4.706 76.2395 4.73633 76.2115 4.77367Z" fill="#D0D0D0"/>
</g>
<defs>
<clipPath id="clip0_10_131">
<rect width="76.243" height="12" fill="white" transform="matrix(1 0 0 -1 0 12)"/>
</clipPath>
</defs>
</svg>
