<svg width="16" height="17" viewBox="0 0 16 17" fill="none" xmlns="http://www.w3.org/2000/svg">
<path d="M15.2134 9.643C15.2734 9.247 15.3034 8.869 15.3034 8.509C15.3034 7.189 14.9734 5.959 14.3134 4.819C13.6654 3.715 12.7894 2.839 11.6854 2.191C10.5454 1.531 9.31539 1.201 7.99539 1.201C7.63539 1.201 7.25739 1.231 6.86139 1.291C6.12939 0.847001 5.35839 0.625001 4.54839 0.625001C3.73839 0.625001 2.99739 0.823001 2.32539 1.219C1.65339 1.615 1.11939 2.152 0.723395 2.83C0.327395 3.508 0.129395 4.249 0.129395 5.053C0.129395 5.893 0.345395 6.661 0.777395 7.357C0.717395 7.777 0.687394 8.161 0.687394 8.509C0.687394 9.829 1.01739 11.059 1.67739 12.199C2.32539 13.303 3.20139 14.179 4.30539 14.827C5.44539 15.487 6.67539 15.817 7.99539 15.817C8.35539 15.817 8.73339 15.787 9.12939 15.727C9.83739 16.159 10.6114 16.375 11.4514 16.375C12.2554 16.375 12.9934 16.177 13.6654 15.781C14.3374 15.385 14.8714 14.848 15.2674 14.17C15.6634 13.492 15.8644 12.754 15.8704 11.956C15.8764 11.158 15.6574 10.387 15.2134 9.643ZM11.4694 11.839C11.1454 12.295 10.6894 12.643 10.1014 12.883C9.51339 13.123 8.81139 13.243 7.99539 13.243C7.01139 13.243 6.20739 13.075 5.58339 12.739C5.13939 12.487 4.77339 12.154 4.48539 11.74C4.19739 11.326 4.05339 10.927 4.05339 10.543C4.05339 10.315 4.14039 10.117 4.31439 9.949C4.48839 9.781 4.71339 9.697 4.98939 9.697C5.20539 9.697 5.39139 9.757 5.54739 9.877C5.70339 10.033 5.82939 10.225 5.92539 10.453C6.05739 10.741 6.19539 10.981 6.33939 11.173C6.48339 11.365 6.67839 11.521 6.92439 11.641C7.17039 11.761 7.50939 11.821 7.94139 11.821C8.52939 11.821 9.00339 11.695 9.36339 11.443C9.72339 11.191 9.90339 10.885 9.90339 10.525C9.90339 10.237 9.80439 9.997 9.60639 9.805C9.40839 9.613 9.15939 9.475 8.85939 9.391C8.69139 9.331 8.37339 9.247 7.90539 9.139L7.59939 9.067C6.90339 8.923 6.30939 8.746 5.81739 8.536C5.32539 8.326 4.94139 8.041 4.66539 7.681C4.38939 7.321 4.25139 6.88 4.25139 6.358C4.25139 5.836 4.39839 5.38 4.69239 4.99C4.98639 4.6 5.41839 4.297 5.98839 4.081C6.55839 3.865 7.22139 3.757 7.97739 3.757C8.58939 3.757 9.11439 3.829 9.55239 3.973C9.99039 4.117 10.3564 4.306 10.6504 4.54C10.9444 4.774 11.1604 5.017 11.2984 5.269C11.4364 5.521 11.5054 5.767 11.5054 6.007C11.5054 6.247 11.4214 6.457 11.2534 6.637C11.0854 6.817 10.8634 6.907 10.5874 6.907C10.3594 6.907 10.1794 6.853 10.0474 6.745C9.93939 6.649 9.80739 6.475 9.65139 6.223C9.48339 5.875 9.27339 5.611 9.02139 5.431C8.79339 5.239 8.39739 5.143 7.83339 5.143C7.32939 5.143 6.92439 5.248 6.61839 5.458C6.31239 5.668 6.15939 5.905 6.15939 6.169C6.15939 6.325 6.20739 6.481 6.30339 6.637C6.41139 6.757 6.55539 6.865 6.73539 6.961C6.95139 7.057 7.14339 7.129 7.31139 7.177C7.59939 7.261 7.91139 7.339 8.24739 7.411C8.89539 7.555 9.39939 7.693 9.75939 7.825C10.2274 7.981 10.6114 8.155 10.9114 8.347C11.2474 8.575 11.5024 8.845 11.6764 9.157C11.8504 9.469 11.9374 9.859 11.9374 10.327C11.9374 10.879 11.7814 11.383 11.4694 11.839Z" fill="#343A40"/>
</svg>
