<svg width="50" height="51" viewBox="0 0 50 51" fill="none" xmlns="http://www.w3.org/2000/svg">
<rect x="0.5" y="1" width="49" height="49" rx="24.5" stroke="#0A4D3C" stroke-opacity="0.25"/>
<path d="M32.2134 26.643C32.2734 26.247 32.3034 25.869 32.3034 25.509C32.3034 24.189 31.9734 22.959 31.3134 21.819C30.6654 20.715 29.7894 19.839 28.6854 19.191C27.5454 18.531 26.3154 18.201 24.9954 18.201C24.6354 18.201 24.2574 18.231 23.8614 18.291C23.1294 17.847 22.3584 17.625 21.5484 17.625C20.7384 17.625 19.9974 17.823 19.3254 18.219C18.6534 18.615 18.1194 19.152 17.7234 19.83C17.3274 20.508 17.1294 21.249 17.1294 22.053C17.1294 22.893 17.3454 23.661 17.7774 24.357C17.7174 24.777 17.6874 25.161 17.6874 25.509C17.6874 26.829 18.0174 28.059 18.6774 29.199C19.3254 30.303 20.2014 31.179 21.3054 31.827C22.4454 32.487 23.6754 32.817 24.9954 32.817C25.3554 32.817 25.7334 32.787 26.1294 32.727C26.8374 33.159 27.6114 33.375 28.4514 33.375C29.2554 33.375 29.9934 33.177 30.6654 32.781C31.3374 32.385 31.8714 31.848 32.2674 31.17C32.6634 30.492 32.8644 29.754 32.8704 28.956C32.8764 28.158 32.6574 27.387 32.2134 26.643ZM28.4694 28.839C28.1454 29.295 27.6894 29.643 27.1014 29.883C26.5134 30.123 25.8114 30.243 24.9954 30.243C24.0114 30.243 23.2074 30.075 22.5834 29.739C22.1394 29.487 21.7734 29.154 21.4854 28.74C21.1974 28.326 21.0534 27.927 21.0534 27.543C21.0534 27.315 21.1404 27.117 21.3144 26.949C21.4884 26.781 21.7134 26.697 21.9894 26.697C22.2054 26.697 22.3914 26.757 22.5474 26.877C22.7034 27.033 22.8294 27.225 22.9254 27.453C23.0574 27.741 23.1954 27.981 23.3394 28.173C23.4834 28.365 23.6784 28.521 23.9244 28.641C24.1704 28.761 24.5094 28.821 24.9414 28.821C25.5294 28.821 26.0034 28.695 26.3634 28.443C26.7234 28.191 26.9034 27.885 26.9034 27.525C26.9034 27.237 26.8044 26.997 26.6064 26.805C26.4084 26.613 26.1594 26.475 25.8594 26.391C25.6914 26.331 25.3734 26.247 24.9054 26.139L24.5994 26.067C23.9034 25.923 23.3094 25.746 22.8174 25.536C22.3254 25.326 21.9414 25.041 21.6654 24.681C21.3894 24.321 21.2514 23.88 21.2514 23.358C21.2514 22.836 21.3984 22.38 21.6924 21.99C21.9864 21.6 22.4184 21.297 22.9884 21.081C23.5584 20.865 24.2214 20.757 24.9774 20.757C25.5894 20.757 26.1144 20.829 26.5524 20.973C26.9904 21.117 27.3564 21.306 27.6504 21.54C27.9444 21.774 28.1604 22.017 28.2984 22.269C28.4364 22.521 28.5054 22.767 28.5054 23.007C28.5054 23.247 28.4214 23.457 28.2534 23.637C28.0854 23.817 27.8634 23.907 27.5874 23.907C27.3594 23.907 27.1794 23.853 27.0474 23.745C26.9394 23.649 26.8074 23.475 26.6514 23.223C26.4834 22.875 26.2734 22.611 26.0214 22.431C25.7934 22.239 25.3974 22.143 24.8334 22.143C24.3294 22.143 23.9244 22.248 23.6184 22.458C23.3124 22.668 23.1594 22.905 23.1594 23.169C23.1594 23.325 23.2074 23.481 23.3034 23.637C23.4114 23.757 23.5554 23.865 23.7354 23.961C23.9514 24.057 24.1434 24.129 24.3114 24.177C24.5994 24.261 24.9114 24.339 25.2474 24.411C25.8954 24.555 26.3994 24.693 26.7594 24.825C27.2274 24.981 27.6114 25.155 27.9114 25.347C28.2474 25.575 28.5024 25.845 28.6764 26.157C28.8504 26.469 28.9374 26.859 28.9374 27.327C28.9374 27.879 28.7814 28.383 28.4694 28.839Z" fill="#343A40"/>
</svg>
