<svg width="16" height="13" viewBox="0 0 16 13" fill="none" xmlns="http://www.w3.org/2000/svg">
<path d="M15.884 1.61299C15.32 1.86499 14.696 2.03899 14.012 2.13499C14.348 1.94299 14.639 1.69099 14.885 1.37899C15.131 1.06699 15.314 0.718987 15.434 0.334988C14.822 0.718987 14.138 0.982987 13.382 1.12699C13.094 0.802987 12.743 0.550987 12.329 0.370987C11.915 0.190988 11.48 0.100987 11.024 0.100987C10.436 0.100987 9.89597 0.247988 9.40397 0.541987C8.91197 0.835987 8.52197 1.22899 8.23397 1.72099C7.94597 2.21299 7.80197 2.75299 7.80197 3.34099C7.80197 3.62899 7.82597 3.87499 7.87397 4.07899C6.55397 4.00699 5.31197 3.67099 4.14797 3.07099C3.00797 2.48299 2.02997 1.69099 1.21397 0.694987C0.925967 1.21099 0.781967 1.74799 0.781967 2.30599C0.781967 2.86399 0.910967 3.37999 1.16897 3.85399C1.42697 4.32799 1.77797 4.71499 2.22197 5.01499C1.69397 5.00299 1.20797 4.86499 0.763967 4.60099V4.65499C0.763967 5.43499 1.00697 6.11899 1.49297 6.70699C1.97897 7.29499 2.59997 7.66699 3.35597 7.82299C3.09197 7.89499 2.80397 7.93099 2.49197 7.93099C2.27597 7.93099 2.07797 7.91299 1.89797 7.87699C2.10197 8.52499 2.47997 9.05599 3.03197 9.46999C3.58397 9.88399 4.20797 10.097 4.90397 10.109C4.35197 10.553 3.73097 10.895 3.04097 11.135C2.35097 11.375 1.63397 11.495 0.889967 11.495C0.733967 11.495 0.493967 11.483 0.169967 11.459H0.115967C1.61597 12.419 3.27197 12.899 5.08397 12.899C6.51197 12.899 7.82597 12.623 9.02597 12.071C10.13 11.555 11.09 10.835 11.906 9.91099C12.662 9.04699 13.25 8.06299 13.67 6.95899C14.066 5.89099 14.264 4.81099 14.264 3.71899V3.28699C14.9 2.83099 15.44 2.27299 15.884 1.61299Z" fill="#343A40"/>
</svg>
