<svg width="50" height="51" viewBox="0 0 50 51" fill="none" xmlns="http://www.w3.org/2000/svg">
<rect x="0.5" y="1" width="49" height="49" rx="24.5" stroke="#0A4D3C" stroke-opacity="0.25"/>
<path d="M32.884 20.613C32.32 20.865 31.696 21.039 31.012 21.135C31.348 20.943 31.639 20.691 31.885 20.379C32.131 20.067 32.314 19.719 32.434 19.335C31.822 19.719 31.138 19.983 30.382 20.127C30.094 19.803 29.743 19.551 29.329 19.371C28.915 19.191 28.48 19.101 28.024 19.101C27.436 19.101 26.896 19.248 26.404 19.542C25.912 19.836 25.522 20.229 25.234 20.721C24.946 21.213 24.802 21.753 24.802 22.341C24.802 22.629 24.826 22.875 24.874 23.079C23.554 23.007 22.312 22.671 21.148 22.071C20.008 21.483 19.03 20.691 18.214 19.695C17.926 20.211 17.782 20.748 17.782 21.306C17.782 21.864 17.911 22.38 18.169 22.854C18.427 23.328 18.778 23.715 19.222 24.015C18.694 24.003 18.208 23.865 17.764 23.601V23.655C17.764 24.435 18.007 25.119 18.493 25.707C18.979 26.295 19.6 26.667 20.356 26.823C20.092 26.895 19.804 26.931 19.492 26.931C19.276 26.931 19.078 26.913 18.898 26.877C19.102 27.525 19.48 28.056 20.032 28.47C20.584 28.884 21.208 29.097 21.904 29.109C21.352 29.553 20.731 29.895 20.041 30.135C19.351 30.375 18.634 30.495 17.89 30.495C17.734 30.495 17.494 30.483 17.17 30.459H17.116C18.616 31.419 20.272 31.899 22.084 31.899C23.512 31.899 24.826 31.623 26.026 31.071C27.13 30.555 28.09 29.835 28.906 28.911C29.662 28.047 30.25 27.063 30.67 25.959C31.066 24.891 31.264 23.811 31.264 22.719V22.287C31.9 21.831 32.44 21.273 32.884 20.613Z" fill="#343A40"/>
</svg>
