<svg width="102" height="28" viewBox="0 0 102 28" fill="none" xmlns="http://www.w3.org/2000/svg">
<path d="M15.609 13.3331C16.7191 13.7924 17.7975 14.3248 18.837 14.927C19.9521 15.6089 20.8323 16.6151 21.3599 17.8111C21.8875 19.0071 22.0373 20.3357 21.7892 21.6192C21.6039 22.8671 21.0496 24.031 20.1977 24.9614C19.3458 25.8918 18.2351 26.546 17.0085 26.8401C16.0848 27.1493 15.1216 27.3248 14.1482 27.3612C9.85776 27.4225 5.55712 27.3612 1.2667 27.3612C0.828686 27.267 0.412645 27.0901 0.0408621 26.8401C0.439259 26.5949 0.807009 26.1964 1.22584 26.1453C1.42862 26.146 1.62917 26.1029 1.81378 26.019C1.9984 25.9351 2.16274 25.8123 2.29558 25.6591C2.42843 25.5058 2.52666 25.3257 2.58357 25.131C2.64048 24.9364 2.65472 24.7317 2.62533 24.531V3.61673C2.6619 3.37448 2.64426 3.12715 2.57366 2.89256C2.50307 2.65796 2.38128 2.44197 2.21709 2.26016C2.05291 2.07836 1.85042 1.93527 1.62424 1.84123C1.39806 1.74719 1.15383 1.70453 0.909164 1.71635C0.59249 1.71635 0.306459 1.25658 0 1.01137C0.326889 0.796816 0.653779 0.388133 1.02153 0.388133C4.88291 0.388133 8.75451 0.255312 12.6261 0.388133C14.5453 0.375424 16.4267 0.922181 18.0402 1.96157C18.9017 2.51881 19.6056 3.28816 20.0842 4.19578C20.5628 5.10341 20.8002 6.11884 20.7736 7.14463C20.7469 8.17042 20.4571 9.17214 19.9319 10.0537C19.4068 10.9352 18.6639 11.6669 17.7746 12.1786C17.0085 12.6384 16.324 12.9449 15.609 13.3331ZM8.0803 20.1275V22.6817C8.0803 25.9206 8.0803 25.9206 11.3696 25.8899C13.76 25.8899 15.2004 24.8682 15.6703 22.5796C15.9256 21.2482 15.9463 19.8824 15.7316 18.5438C15.6708 17.6872 15.3539 16.8686 14.822 16.1944C14.29 15.5202 13.5676 15.0217 12.7487 14.7635C11.4266 14.483 10.0735 14.3765 8.72386 14.4468C8.51956 14.4468 8.13138 15.07 8.11095 15.4072C8.04965 16.9806 8.0803 18.5541 8.0803 20.1275ZM10.0621 2.06373C9.72512 1.99407 9.37749 1.99407 9.04054 2.06373C8.67279 2.2272 8.14159 2.61546 8.13138 2.92197C8.07008 5.8134 8.13138 8.70482 8.13138 11.6065C8.13138 11.9028 8.52977 12.434 8.75451 12.4443C9.81061 12.5523 10.8767 12.511 11.9212 12.3217C14.189 11.7597 14.8122 9.97174 14.9858 7.86702C15.2106 4.20932 13.6885 1.76743 10.0621 2.06373Z" fill="#05264A"/>
<path d="M44.0585 26.1866L37.0815 27.9644V24.1125C35.7042 25.2345 34.25 26.2587 32.7298 27.1777C31.7805 27.7563 30.6811 28.0409 29.5703 27.9954C28.4595 27.95 27.3871 27.5765 26.4882 26.9222C24.8232 25.7064 24.6086 23.8571 24.578 22.0283C24.5167 18.5851 24.578 15.1318 24.578 11.6886C24.578 10.6056 24.4452 9.71672 23.0763 9.64521C22.8618 9.64521 22.6779 9.31825 22.4736 9.14456C22.7086 8.88914 22.8925 8.47023 23.1785 8.3885C24.5984 7.97981 26.0388 7.61201 27.4893 7.29528C30.0432 6.75378 30.0534 6.77421 30.0534 9.42043C30.0534 13.5072 30.1249 17.5941 30.0534 21.6809C29.9921 24.2658 30.9217 24.746 33.5368 24.2556C33.9554 24.1677 34.363 24.0341 34.7524 23.8571C36.3869 23.1726 36.6627 22.7332 36.6627 20.9657V11.7703C36.6627 10.1254 36.489 9.95172 34.8239 9.67586C34.4601 9.56162 34.1156 9.39282 33.8024 9.17521C34.0986 8.88914 34.3642 8.4498 34.7116 8.35785C36.8057 7.82656 38.9203 7.38723 41.0144 6.89682C42.087 6.65161 42.1074 7.28505 42.1074 8.05133C42.1074 12.9078 42.1074 17.7609 42.1074 22.6106C42.1074 23.7345 42.1074 24.8584 43.558 25.2364C43.7521 25.2364 43.844 25.7575 44.0585 26.1866Z" fill="#05264A"/>
<path d="M89.8637 17.4614C90.068 20.3937 90.6401 23.0297 93.2858 24.4601C96.5854 26.2481 99.2209 24.5622 101.642 22.4167L101.999 22.5188C101.975 22.8992 101.885 23.2726 101.734 23.6223C97.8827 29.119 90.3847 29.5686 86.4926 23.6223C85.1229 21.6267 84.4425 19.2382 84.555 16.8203C84.6675 14.4024 85.5667 12.0874 87.1158 10.2277C89.0363 7.86757 91.5901 7.16259 94.6342 7.16259C98.6693 7.11151 101.611 11.1064 101.856 14.8254C102.03 17.4409 102.091 17.4307 99.4661 17.4307H91.4266C90.9669 17.3899 90.5583 17.4307 89.8637 17.4614ZM89.9454 15.6121H97.1574C96.7692 13.8557 96.2815 12.1228 95.6966 10.4218C95.5806 10.077 95.3801 9.76673 95.1132 9.51944C94.8464 9.27215 94.5218 9.09572 94.1692 9.00628C93.8166 8.91684 93.4472 8.91726 93.0948 9.00748C92.7424 9.0977 92.4182 9.27485 92.1519 9.52273C90.4051 11.1268 90.0067 13.2417 89.9454 15.6121Z" fill="#05264A"/>
<path d="M59.3203 12.3419C58.2988 12.7505 58.0332 12.1784 57.7676 11.4019C56.746 8.33675 53.7427 7.06984 51.383 8.72501C51.0571 8.92842 50.7811 9.20247 50.5754 9.52691C50.3696 9.85134 50.2393 10.2179 50.1942 10.5994C50.1491 10.9809 50.1903 11.3678 50.3147 11.7313C50.4392 12.0947 50.6437 12.4256 50.9131 12.6994C51.9505 13.5639 53.0537 14.3462 54.2126 15.0392C55.7249 15.8895 57.1664 16.8599 58.5235 17.9408C61.9354 21.1489 60.7096 25.9305 56.2353 27.2996C53.0409 28.217 49.6313 28.0371 46.5512 26.7888C46.3603 26.6969 46.193 26.5626 46.062 26.3962C45.9309 26.2297 45.8397 26.0355 45.7953 25.8284C45.5909 24.0608 45.499 22.2932 45.3662 20.4848C46.2039 20.1783 46.5001 20.3111 46.7248 21.2C47.2356 23.2434 48.2367 25.0723 50.4432 25.8692C51.0634 26.0908 51.7234 26.179 52.38 26.1279C53.0366 26.0769 53.675 25.8878 54.2535 25.5729C54.6109 25.3989 54.9207 25.1406 55.1561 24.8203C55.3916 24.4999 55.5455 24.1271 55.6049 23.734C55.6642 23.3408 55.627 22.9392 55.4966 22.5636C55.3662 22.188 55.1464 21.8498 54.8562 21.5781C53.5175 20.4798 52.0892 19.4955 50.5862 18.6355C48.7883 17.4912 47.0007 16.398 46.0404 14.3342C45.6904 13.6406 45.4953 12.8794 45.4684 12.103C45.4415 11.3266 45.5835 10.5536 45.8847 9.83754C46.1858 9.12145 46.6389 8.47935 47.2125 7.95561C47.7862 7.43187 48.4668 7.03901 49.2072 6.8042C52.2775 5.88321 55.5715 6.04921 58.5337 7.27419C58.8197 7.37636 59.0649 7.96894 59.0956 8.35719C59.2284 9.66497 59.2488 10.9728 59.3203 12.3419Z" fill="#05264A"/>
<path d="M81.8965 0V1.77776C81.8965 9.26686 81.8965 16.7457 81.8965 24.2553C81.8965 25.3689 82.0293 26.2987 83.4186 26.4417C83.5923 26.4417 83.7455 26.7278 83.9089 26.8708C83.7251 27.0445 83.531 27.3715 83.3369 27.3715C80.6605 27.4123 77.9841 27.4123 75.3077 27.3715C75.0931 27.3715 74.8786 27.0854 74.6743 26.9219C74.8582 26.7482 75.0216 26.4622 75.2259 26.4213C76.4109 26.2067 76.6663 25.3996 76.6663 24.3779C76.6663 18.0842 76.6663 11.7905 76.6663 5.50699C76.6663 3.46358 76.4518 3.3001 74.47 3.02424C74.1738 2.97315 73.9184 2.66665 73.6426 2.47252C73.8571 2.20688 74.041 1.76755 74.3066 1.70625C76.7378 1.09322 79.2201 0.582372 81.8965 0Z" fill="#05264A"/>
<path d="M72.9574 24.1122L73.7542 24.7865C72.0686 27.6575 69.5659 28.1786 66.7465 27.729C64.6319 27.3919 63.4163 25.6856 63.4061 23.1313C63.4061 19.0445 63.4061 15.0497 63.4061 11.0139V9.48136C62.8831 9.49183 62.3603 9.45765 61.8431 9.37919C61.5017 9.25264 61.184 9.06958 60.9033 8.83768C61.1178 8.4903 61.2711 7.92837 61.5775 7.81598C63.3946 7.3245 64.9839 6.21545 66.0723 4.67935C66.551 3.9822 66.9389 3.22685 67.2266 2.43159C67.5126 1.51205 68.0234 1.49163 68.8815 1.78792C68.8815 3.28983 68.8815 4.85304 68.8815 6.33451C68.8815 7.19274 69.1164 7.56055 70.0256 7.50946C71.1186 7.44816 72.2219 7.50946 73.4171 7.50946V9.40984C72.2525 9.40984 71.0778 9.40984 69.9132 9.40984C69.1266 9.40984 68.8917 9.69591 68.8917 10.4315C68.8917 14.5184 68.8917 18.6052 68.8917 22.692C68.9088 23.5286 69.2281 24.3306 69.7906 24.95C70.996 26.033 71.9665 25.0521 72.9574 24.1122Z" fill="#05264A"/>
</svg>
