<svg width="80" height="16" viewBox="0 0 80 16" fill="none" xmlns="http://www.w3.org/2000/svg">
<path d="M9.15327 2.33977L10.3266 4.68643C10.4866 5.0131 10.9133 5.32643 11.2733 5.38643L13.3999 5.73977C14.7599 5.96643 15.0799 6.9531 14.0999 7.92643L12.4466 9.57977C12.1666 9.85977 12.0133 10.3998 12.0999 10.7864L12.5733 12.8331C12.9466 14.4531 12.0866 15.0798 10.6533 14.2331L8.65994 13.0531C8.29994 12.8398 7.70661 12.8398 7.33994 13.0531L5.34661 14.2331C3.91994 15.0798 3.05327 14.4464 3.42661 12.8331L3.89994 10.7864C3.98661 10.3998 3.83327 9.85977 3.55327 9.57977L1.89994 7.92643C0.926606 6.9531 1.23994 5.96643 2.59994 5.73977L4.72661 5.38643C5.07994 5.32643 5.50661 5.0131 5.66661 4.68643L6.83994 2.33977C7.47994 1.06643 8.51994 1.06643 9.15327 2.33977Z" fill="#FFCC00"/>
<path d="M25.1533 2.33977L26.3266 4.68643C26.4866 5.0131 26.9133 5.32643 27.2733 5.38643L29.3999 5.73977C30.7599 5.96643 31.0799 6.9531 30.0999 7.92643L28.4466 9.57977C28.1666 9.85977 28.0133 10.3998 28.0999 10.7864L28.5733 12.8331C28.9466 14.4531 28.0866 15.0798 26.6533 14.2331L24.6599 13.0531C24.2999 12.8398 23.7066 12.8398 23.3399 13.0531L21.3466 14.2331C19.9199 15.0798 19.0533 14.4464 19.4266 12.8331L19.8999 10.7864C19.9866 10.3998 19.8333 9.85977 19.5533 9.57977L17.8999 7.92643C16.9266 6.9531 17.2399 5.96643 18.5999 5.73977L20.7266 5.38643C21.0799 5.32643 21.5066 5.0131 21.6666 4.68643L22.8399 2.33977C23.4799 1.06643 24.5199 1.06643 25.1533 2.33977Z" fill="#FFCC00"/>
<path d="M41.1533 2.33977L42.3266 4.68643C42.4866 5.0131 42.9133 5.32643 43.2733 5.38643L45.3999 5.73977C46.7599 5.96643 47.0799 6.9531 46.0999 7.92643L44.4466 9.57977C44.1666 9.85977 44.0133 10.3998 44.0999 10.7864L44.5733 12.8331C44.9466 14.4531 44.0866 15.0798 42.6533 14.2331L40.6599 13.0531C40.2999 12.8398 39.7066 12.8398 39.3399 13.0531L37.3466 14.2331C35.9199 15.0798 35.0533 14.4464 35.4266 12.8331L35.8999 10.7864C35.9866 10.3998 35.8333 9.85977 35.5533 9.57977L33.8999 7.92643C32.9266 6.9531 33.2399 5.96643 34.5999 5.73977L36.7266 5.38643C37.0799 5.32643 37.5066 5.0131 37.6666 4.68643L38.8399 2.33977C39.4799 1.06643 40.5199 1.06643 41.1533 2.33977Z" fill="#FFCC00"/>
<path d="M57.1533 2.33977L58.3266 4.68643C58.4866 5.0131 58.9133 5.32643 59.2733 5.38643L61.3999 5.73977C62.7599 5.96643 63.0799 6.9531 62.0999 7.92643L60.4466 9.57977C60.1666 9.85977 60.0133 10.3998 60.0999 10.7864L60.5733 12.8331C60.9466 14.4531 60.0866 15.0798 58.6533 14.2331L56.6599 13.0531C56.2999 12.8398 55.7066 12.8398 55.3399 13.0531L53.3466 14.2331C51.9199 15.0798 51.0533 14.4464 51.4266 12.8331L51.8999 10.7864C51.9866 10.3998 51.8333 9.85977 51.5533 9.57977L49.8999 7.92643C48.9266 6.9531 49.2399 5.96643 50.5999 5.73977L52.7266 5.38643C53.0799 5.32643 53.5066 5.0131 53.6666 4.68643L54.8399 2.33977C55.4799 1.06643 56.5199 1.06643 57.1533 2.33977Z" fill="#FFCC00"/>
<path d="M73.1533 2.33977L74.3266 4.68643C74.4866 5.0131 74.9133 5.32643 75.2733 5.38643L77.3999 5.73977C78.7599 5.96643 79.0799 6.9531 78.0999 7.92643L76.4466 9.57977C76.1666 9.85977 76.0133 10.3998 76.0999 10.7864L76.5733 12.8331C76.9466 14.4531 76.0866 15.0798 74.6533 14.2331L72.6599 13.0531C72.2999 12.8398 71.7066 12.8398 71.3399 13.0531L69.3466 14.2331C67.9199 15.0798 67.0533 14.4464 67.4266 12.8331L67.8999 10.7864C67.9866 10.3998 67.8333 9.85977 67.5533 9.57977L65.8999 7.92643C64.9266 6.9531 65.2399 5.96643 66.5999 5.73977L68.7266 5.38643C69.0799 5.32643 69.5066 5.0131 69.6666 4.68643L70.8399 2.33977C71.4799 1.06643 72.5199 1.06643 73.1533 2.33977Z" fill="#FFCC00"/>
</svg>
