<svg width="166" height="32" viewBox="0 0 166 32" fill="none" xmlns="http://www.w3.org/2000/svg">
<path d="M0.00958307 26.8722C0.967685 25.5056 1.74375 25.188 2.96054 25.7654C4.17733 26.3428 4.54141 27.4688 4.01445 28.922C3.93605 29.0616 3.88718 29.216 3.8709 29.3754C3.85462 29.5348 3.87129 29.6959 3.91985 29.8486C3.96842 30.0013 4.04784 30.1423 4.15314 30.2627C4.25845 30.3831 4.38737 30.4804 4.53183 30.5484C5.12499 30.9248 5.79615 31.1595 6.49375 31.2346C7.19134 31.3097 7.89678 31.2231 8.55585 30.9815C8.78195 30.9276 8.99415 30.8264 9.17853 30.6843C9.36291 30.5422 9.51529 30.3626 9.62568 30.1572C9.73606 29.9518 9.80195 29.7253 9.81903 29.4925C9.8361 29.2597 9.80396 29.026 9.72474 28.8065C9.30684 27.6479 8.79077 26.5275 8.18219 25.4575C7.22409 23.6674 5.98814 21.9929 5.18334 20.1355C3.40127 16.0262 5.92107 12.013 10.3954 11.7917C11.9028 11.747 13.409 11.9155 14.8697 12.2921C15.4973 12.4397 16.073 12.7559 16.5354 13.2068C16.9978 13.6577 17.3295 14.2264 17.4949 14.8521C17.8973 16.1801 17.4949 17.0752 16.4027 17.3061C16.1112 17.3723 15.8095 17.3793 15.5153 17.3267C15.221 17.2741 14.9403 17.163 14.6894 16.9998C14.4386 16.8366 14.2228 16.6247 14.0546 16.3765C13.8865 16.1283 13.7695 15.8489 13.7104 15.5546C13.6763 15.2347 13.6763 14.9121 13.7104 14.5922C13.7871 13.7838 13.7104 13.062 12.9056 12.6675C12.3948 12.4377 11.8335 12.3444 11.2761 12.3966C10.7188 12.4489 10.1844 12.645 9.72474 12.9658C9.39306 13.2348 9.1635 13.6101 9.07454 14.0288C8.98558 14.4476 9.04262 14.8843 9.2361 15.2659C9.77264 16.4207 10.3858 17.5371 10.9607 18.6823C12.1583 21.0594 13.538 23.3787 14.5057 25.852C15.2626 27.7768 14.3619 29.5476 12.5895 30.6639C9.71515 32.4924 4.71386 32.4155 2.05034 30.3175C1.25357 29.5051 0.564439 28.593 0 27.6036L0.00958307 26.8722Z" fill="#05264A"/>
<path d="M15.8477 31.376C17.2273 27.055 18.5687 22.9167 19.8813 18.7689C21.4621 13.7741 23.0143 8.7794 24.576 3.77504C24.8634 2.81266 24.94 1.85029 23.9532 1.33061C23.5308 1.12768 23.0491 1.08711 22.599 1.21654C22.1489 1.34597 21.7615 1.63645 21.51 2.03314C20.7571 2.95509 20.0566 3.919 19.4118 4.92027C19.316 4.41984 19.1435 4.07338 19.2202 3.81354C20.1304 0.926404 23.225 -0.632647 26.4922 0.243116C27.1382 0.400269 27.7446 0.690735 28.2727 1.09604C28.8009 1.50135 29.2394 2.01262 29.5602 2.59736C29.881 3.18209 30.0771 3.82749 30.1361 4.49249C30.1952 5.1575 30.1158 5.82756 29.903 6.46007C28.9449 10.1171 27.594 13.6875 26.4251 17.3061C26.2718 17.768 26.1473 18.2684 26.0227 18.6919C27.4024 17.027 28.6383 15.3139 30.1042 13.88C30.8554 13.0967 31.7726 12.4936 32.7877 12.1153C33.8029 11.7371 34.8898 11.5936 35.9678 11.6954C39.12 11.9264 40.9308 14.2361 40.011 17.3253C39.3403 19.6254 38.3152 21.81 37.4529 24.062C36.8926 25.3437 36.4188 26.662 36.0349 28.0077C35.9619 28.3815 35.9632 28.7662 36.0388 29.1394C36.1145 29.5127 36.2629 29.8673 36.4756 30.1827C37.0888 30.9333 38.0181 30.4329 38.6313 29.9613C39.561 29.1802 40.447 28.3481 41.2853 27.4688C41.2853 27.873 41.4865 28.2964 41.3428 28.537C40.4524 29.9036 39.1437 30.9421 37.6141 31.4959C36.0845 32.0497 34.4171 32.0887 32.8636 31.607C31.8966 31.2875 31.083 30.6174 30.5817 29.7276C30.0803 28.8378 29.9271 27.7922 30.1521 26.7951C30.855 24.3423 31.6897 21.9296 32.6528 19.5677C33.2372 18.0375 34.0899 16.6132 34.6456 15.083C34.7514 14.3758 34.7286 13.6552 34.5786 12.9561C33.8589 12.8995 33.135 12.9745 32.442 13.1775C30.3836 14.352 28.6739 16.0561 27.4886 18.1145C25.4095 21.2518 24.3269 24.8511 23.1867 28.3638C22.8801 29.3262 22.7939 30.6061 22.1328 31.0873C21.4717 31.5685 20.2166 31.1547 19.2585 31.1836C18.3004 31.2124 17.1315 31.3087 15.8477 31.376Z" fill="#05264A"/>
<path d="M120.52 11.8787C120.622 11.8375 120.728 11.8053 120.836 11.7824C123.02 11.667 123.03 11.6573 123.787 13.7072C125.329 17.8647 126.843 22.0414 128.386 26.2181C128.529 26.6127 128.711 26.988 129.027 27.7098C129.861 25.4771 130.58 23.5908 131.269 21.6853C132.343 18.7501 133.454 15.8341 134.431 12.8796C134.776 11.8017 135.389 11.7632 136.347 11.7536C136.71 11.6844 137.085 11.7591 137.394 11.9618C137.703 12.1646 137.922 12.4797 138.005 12.8411C139.576 17.2873 141.243 21.7046 142.882 26.1315C143.035 26.5261 143.198 26.9206 143.476 27.6328C143.763 26.9784 143.926 26.6704 144.051 26.3047L148.669 13.688C149.435 11.5707 149.56 11.5034 151.984 11.9268C151.179 14.121 150.403 16.296 149.598 18.4613C148.113 22.4745 146.609 26.478 145.133 30.4911C144.865 31.2417 144.577 31.6748 143.639 31.6652C143.272 31.7009 142.905 31.5986 142.61 31.3781C142.314 31.1576 142.11 30.8346 142.039 30.4718C140.324 25.8235 138.551 21.1849 136.798 16.5558C136.664 16.1901 136.472 15.8437 136.194 15.2374C135.926 15.8918 135.725 16.296 135.571 16.7291C133.885 21.387 132.189 26.0449 130.522 30.722C130.283 31.3765 129.976 31.6844 129.238 31.6844C128.501 31.6844 127.964 31.771 127.629 30.8664C125.329 24.7264 122.972 18.6057 120.634 12.4754C120.582 12.2795 120.544 12.0801 120.52 11.8787Z" fill="#05264A"/>
<path d="M60.7044 26.0159C60.0926 27.2761 59.2376 28.4016 58.1891 29.3272C57.1407 30.2527 55.9196 30.9599 54.5968 31.4076C53.274 31.8552 51.8759 32.0345 50.4836 31.935C49.0913 31.8354 47.7325 31.4591 46.4862 30.8278C42.8933 28.8164 41.4274 24.4183 42.9412 20.155C44.9724 14.3807 52.0815 10.5312 57.9738 12.0421C59.4206 12.3982 60.7715 13.0045 61.1835 14.5828C61.5955 16.1611 60.7907 17.47 59.6218 18.4997C57.3415 20.5111 54.5247 21.3868 51.6791 22.2337C48.8335 23.0806 48.7569 23.0132 48.9868 26.0832C49.0478 27.0404 49.2215 27.9869 49.5042 28.903C49.7063 29.6273 50.1818 30.2438 50.8296 30.6213C51.4774 30.9988 52.2462 31.1074 52.9725 30.924C54.3298 30.6641 55.6184 30.1234 56.7565 29.3365C57.8945 28.5495 58.8573 27.5334 59.5834 26.3527C59.8448 26.0789 60.1451 25.8454 60.4745 25.6598L60.7044 26.0159ZM49.3126 21.9161C52.1102 21.3195 54.4959 20.4052 56.1822 18.365C56.9085 17.4322 57.3658 16.317 57.5044 15.141C57.7151 13.043 55.866 11.9267 53.9786 12.8794C53.4816 13.1189 53.0308 13.4447 52.6468 13.8418C50.6731 16.0938 49.8779 18.8173 49.3126 21.9161Z" fill="#05264A"/>
<path d="M111.207 31.9058C109.18 31.9057 107.198 31.303 105.511 30.1736C103.824 29.0442 102.508 27.4386 101.727 25.5591C100.947 23.6796 100.738 21.6102 101.127 19.6116C101.516 17.613 102.484 15.7747 103.911 14.3281C105.338 12.8815 107.159 11.8914 109.145 11.4826C111.131 11.0737 113.193 11.2643 115.071 12.0304C116.95 12.7965 118.56 14.1039 119.7 15.7877C120.84 17.4716 121.459 19.4567 121.478 21.4929C121.545 22.8701 121.327 24.2464 120.836 25.5341C120.345 26.8217 119.592 27.9926 118.626 28.9722C117.66 29.9517 116.501 30.7184 115.224 31.2235C113.947 31.7286 112.579 31.961 111.207 31.9058ZM111.207 13.6977C110.177 13.655 109.149 13.8256 108.188 14.1991C107.227 14.5725 106.352 15.1407 105.619 15.8683C104.885 16.5959 104.309 17.4674 103.925 18.4284C103.542 19.3894 103.359 20.4195 103.389 21.4544C103.389 26.1316 106.618 29.548 111.13 29.5576C112.17 29.5746 113.202 29.3812 114.166 28.9891C115.13 28.5969 116.005 28.014 116.74 27.275C117.475 26.5359 118.054 25.656 118.444 24.6874C118.833 23.7189 119.024 22.6816 119.006 21.6373C119.033 20.5971 118.85 19.5621 118.468 18.5949C118.086 17.6276 117.513 16.7482 116.783 16.0097C116.054 15.2713 115.182 14.6891 114.222 14.2983C113.262 13.9075 112.233 13.7163 111.197 13.7362L111.207 13.6977Z" fill="#05264A"/>
<path d="M66.2244 19.1157C68.2077 17.191 70.2197 15.5453 71.9059 13.5917C72.5068 12.8135 73.3281 12.2361 74.2618 11.9355C75.1955 11.6349 76.1979 11.6251 77.1372 11.9075L68.8783 20.3572L79.724 31.5015C77.7216 31.8095 76.2366 31.6459 74.8761 30.0868C72.5 27.3826 69.8748 24.9189 67.3454 22.3878C67.0771 22.1087 66.7801 21.8585 66.2819 21.4254C66.2244 22.128 66.1573 22.5803 66.1573 23.023C66.1573 25.5155 66.1573 27.9985 66.1573 30.4814C66.1573 31.3957 65.9082 31.7614 64.9405 31.7133C63.9729 31.6651 63.6279 31.5881 63.6279 30.5584C63.6279 20.9346 63.6279 11.3108 63.6279 1.68707C63.6279 0.666951 64.0687 0.541841 64.9309 0.51297C65.7932 0.484098 66.1669 0.811313 66.1573 1.74482C66.1573 7.02827 66.1573 12.331 66.1573 17.6144C66.1573 18.0571 66.2052 18.5575 66.2244 19.1157Z" fill="#05264A"/>
<path d="M83.7759 31.5589H81.3711V11.8494H83.728V15.0637C83.9627 14.8884 84.1837 14.6954 84.3891 14.4863C85.3839 13.1193 86.7854 12.1053 88.3914 11.5905C89.9973 11.0757 91.7245 11.0869 93.3237 11.6223C94.9229 12.1578 96.3114 13.1898 97.2886 14.5695C98.2658 15.9492 98.7813 17.6051 98.7606 19.2982C98.866 23.3305 98.7606 27.3725 98.7606 31.5011H96.3462C96.3462 31.0681 96.2696 30.6061 96.2696 30.1442C96.2696 26.824 96.2696 23.4941 96.2696 20.1739C96.2696 16.8537 94.4588 14.3997 91.6419 13.88C90.6927 13.6645 89.7074 13.6667 88.7591 13.8863C87.8109 14.106 86.9241 14.5374 86.1646 15.1486C85.4052 15.7598 84.7926 16.535 84.3724 17.4167C83.9522 18.2984 83.7353 19.2638 83.7376 20.2413C83.7376 23.5326 83.7376 26.8143 83.7376 30.096L83.7759 31.5589Z" fill="#05264A"/>
<path d="M165.119 16.4117C163.96 16.5368 162.954 16.8255 162.293 15.3146C161.631 13.8036 159.294 13.1685 157.435 13.7459C156.704 13.895 156.049 14.298 155.585 14.8841C155.12 15.4702 154.877 16.2018 154.896 16.9506C154.897 17.5804 155.108 18.1917 155.495 18.6871C155.883 19.1824 156.424 19.5333 157.033 19.6838C158.23 20.1168 159.514 20.2804 160.712 20.7135C161.931 21.0631 163.09 21.5951 164.151 22.2918C164.681 22.7338 165.117 23.2788 165.433 23.8941C165.748 24.5094 165.936 25.1823 165.986 25.8726C166.037 26.5628 165.947 27.2561 165.724 27.9108C165.501 28.5656 165.149 29.1683 164.688 29.6829C161.814 32.8587 155.548 32.7625 152.894 29.4423C152.33 28.5918 151.855 27.6856 151.476 26.738C153.267 26.1606 153.593 26.276 154.35 27.5849C155.912 30.1448 160.53 30.5875 162.57 28.3644C162.932 27.9843 163.19 27.5177 163.321 27.0089C163.452 26.5002 163.451 25.9662 163.319 25.4579C163.186 24.9495 162.926 24.4837 162.564 24.1047C162.201 23.7257 161.749 23.4462 161.248 23.2927C160.031 22.8115 158.7 22.6479 157.416 22.2341C156.277 21.906 155.185 21.4304 154.168 20.8194C153.607 20.3812 153.145 19.8284 152.813 19.1976C152.48 18.5668 152.285 17.8723 152.24 17.16C152.194 16.4477 152.3 15.7339 152.55 15.0657C152.8 14.3975 153.188 13.7902 153.689 13.284C154.625 12.367 155.793 11.726 157.067 11.4307C158.341 11.1354 159.672 11.1972 160.913 11.6094C161.921 11.8093 162.849 12.2998 163.584 13.0211C164.319 13.7423 164.829 14.663 165.052 15.6706C165.052 15.7861 165.052 15.9016 165.1 16.0267C165.119 16.154 165.126 16.283 165.119 16.4117Z" fill="#05264A"/>
</svg>
