<svg width="32" height="33" viewBox="0 0 32 33" fill="none" xmlns="http://www.w3.org/2000/svg">
<path d="M16.3831 21.2039L16.3839 21.2034L18.0906 20.2168L19.7965 19.2305C19.7966 19.2304 19.7968 19.2304 19.7969 19.2303C20.9897 18.5434 21.697 17.5675 21.697 16.4906C21.697 15.4137 20.9897 14.4377 19.7969 13.7509C19.7968 13.7508 19.7966 13.7507 19.7965 13.7506L18.0906 12.7644L16.3839 11.7777L16.3831 11.7772C15.1914 11.0911 13.9927 10.9641 13.0595 11.5004C12.1255 12.0372 11.6337 13.1372 11.6337 14.5172V16.4906V18.4639C11.6337 19.8382 12.126 20.9371 13.0588 21.4753C13.9913 22.0134 15.1902 21.8907 16.3831 21.2039ZM3.16699 16.4906C3.16699 9.4067 8.91647 3.65723 16.0003 3.65723C23.0842 3.65723 28.8337 9.4067 28.8337 16.4906C28.8337 23.5744 23.0842 29.3239 16.0003 29.3239C8.91647 29.3239 3.16699 23.5744 3.16699 16.4906Z" fill="white" stroke="white"/>
</svg>
