<svg width="108" height="40" viewBox="0 0 108 40" fill="none" xmlns="http://www.w3.org/2000/svg">
<path d="M44.2786 0.0200195V8.87676C45.2259 8.27654 46.2303 7.77148 47.2772 7.36901C51.0654 6.37051 54.214 8.57721 54.4239 12.6212C54.6238 16.3056 54.4739 20.0101 54.4739 23.8144H48.8665V16.4654C48.8665 15.8463 48.8665 15.2173 48.8665 14.5982C48.7365 13.1404 47.9269 12.3016 46.7275 12.3116C46.423 12.3093 46.1213 12.3702 45.8416 12.4905C45.562 12.6107 45.3103 12.7877 45.1026 13.0101C44.895 13.2326 44.7358 13.4957 44.6353 13.7828C44.5347 14.07 44.4949 14.3748 44.5185 14.6781C44.4485 16.9247 44.5185 19.1614 44.5185 21.408C44.5185 23.9242 44.5185 23.9242 42.0396 23.9242C38.8711 23.9242 38.8711 23.9242 38.8711 20.709C38.8711 13.8193 38.8711 6.92301 38.8711 0.0200195H44.2786Z" fill="#05264A"/>
<path d="M0.0499799 7.50878C1.62925 7.50878 3.20852 7.57867 4.78779 7.50878C5.09218 7.46588 5.40162 7.53847 5.65509 7.71221C5.90857 7.88595 6.08768 8.14823 6.15715 8.44738C7.15668 11.0435 8.15622 13.6196 9.15576 16.2058C9.25571 16.4754 9.38566 16.725 9.61555 17.2043C9.88543 16.6551 10.1053 16.2856 10.2553 15.9062C11.2548 13.4399 12.2543 10.9736 13.1639 8.48732C13.236 8.16759 13.4266 7.88694 13.6972 7.70173C13.9679 7.51652 14.2987 7.44046 14.6232 7.48882C16.1625 7.54873 17.6918 7.48882 19.401 7.48882C19.2611 7.94813 19.1911 8.28762 19.0612 8.59716C16.2491 15.387 13.4438 22.1701 10.6451 28.9467C10.5586 29.3234 10.3316 29.653 10.0103 29.8682C9.68895 30.0834 9.29755 30.1681 8.91588 30.1049C7.42657 30.0151 5.91726 30.1049 4.17807 30.1049C4.59502 28.9188 5.08232 27.7584 5.63738 26.6301C6.07981 25.8925 6.31764 25.0505 6.32643 24.1906C6.33521 23.3307 6.11463 22.484 5.68737 21.7375C3.89819 17.9132 2.35891 13.9691 0.689683 10.0749C0.488539 9.68522 0.257976 9.31137 0 8.95662L0.0499799 7.50878Z" fill="#05264A"/>
<path d="M108 1.51772C107.401 2.82576 106.771 4.12381 106.211 5.45182C105.032 8.23765 103.852 11.0335 102.743 13.8492C102.663 14.2058 102.453 14.5195 102.153 14.7285C101.853 14.9374 101.486 15.0263 101.124 14.9776C99.3444 14.9077 97.5552 14.9776 95.5361 14.9776L101.753 0H108V1.51772Z" fill="#05264A"/>
<path d="M65.7695 39.9603C64.1003 39.2713 62.7709 38.3328 62.2911 36.4056C62.0101 35.4249 62.0222 34.3836 62.3258 33.4096C62.6295 32.4357 63.2116 31.5717 64.0004 30.9239C64.7201 30.3543 65.6208 30.062 66.5382 30.1005C67.4557 30.139 68.3287 30.5056 68.9981 31.1335C69.8377 29.5958 71.1471 30.7042 72.3065 30.2049V39.6308C71.177 39.3413 69.8876 40.3098 69.028 38.8719L66.979 39.9603H65.7695ZM69.3379 34.9179C69.3384 34.6452 69.283 34.3754 69.1751 34.1249C69.0672 33.8745 68.9092 33.6488 68.7106 33.4617C68.5121 33.2746 68.2773 33.1301 68.0208 33.0371C67.7642 32.944 67.4913 32.9045 67.2189 32.9209C66.9511 32.9287 66.6875 32.9892 66.4431 33.0988C66.1987 33.2085 65.9784 33.3651 65.7946 33.5598C65.4235 33.9531 65.2239 34.4775 65.2398 35.0177C65.2557 35.558 65.4858 36.0697 65.8794 36.4405C66.2731 36.8113 66.798 37.0106 67.3388 36.9948C67.6082 36.995 67.8749 36.9408 68.1228 36.8355C68.3707 36.7302 68.5947 36.5759 68.7814 36.3819C68.9681 36.1879 69.1137 35.9582 69.2093 35.7066C69.3049 35.4551 69.3487 35.1868 69.3379 34.9179Z" fill="#05264A"/>
<path d="M96.5061 39.9602C96.1962 39.8504 95.8964 39.7206 95.5865 39.6207C94.5462 39.2991 93.6516 38.6236 93.0582 37.7115C92.4647 36.7994 92.2099 35.7085 92.338 34.6282C92.4263 33.4544 92.9343 32.3516 93.7693 31.5211C94.6043 30.6906 95.7106 30.188 96.8859 30.105C97.9502 30.002 99.0173 30.2713 99.905 30.8668C100.793 31.4622 101.446 32.347 101.754 33.3701C101.849 33.731 101.919 34.098 101.964 34.4684C102.103 35.3471 101.834 35.7565 100.844 35.7166C99.1149 35.6467 97.3757 35.7166 95.6265 35.7166C95.8364 37.1544 96.766 37.8633 97.9254 37.2642C99.3248 36.5453 100.274 37.2642 101.474 37.7236C100.874 39.2413 99.4047 39.411 98.2553 40.0001L96.5061 39.9602ZM98.895 33.9692C98.8752 33.7561 98.8128 33.5493 98.7114 33.3608C98.6101 33.1723 98.4719 33.0061 98.305 32.872C98.1381 32.7379 97.946 32.6386 97.74 32.5801C97.534 32.5216 97.3183 32.505 97.1058 32.5313C96.3562 32.5912 95.6465 32.8908 95.6265 33.9692H98.895Z" fill="#05264A"/>
<path d="M88.5088 39.9602C88.2958 39.843 88.0754 39.7396 87.8491 39.6507C87.2165 39.4768 86.6265 39.1748 86.1156 38.7635C85.6047 38.3522 85.1839 37.8405 84.8793 37.2599C84.5747 36.6794 84.3928 36.0426 84.3448 35.3889C84.2969 34.7352 84.3839 34.0787 84.6006 33.46C84.9857 32.2873 85.8001 31.3033 86.8808 30.7052C87.9615 30.1071 89.2285 29.9391 90.4279 30.2348C91.1776 30.3946 91.5174 30.6841 91.4275 31.463C91.4028 31.8887 91.4028 32.3154 91.4275 32.7411C90.3139 32.9896 89.2212 33.3235 88.159 33.7396C87.8391 33.8893 87.6792 34.7381 87.6892 35.1874C87.7491 36.6452 88.8986 37.1345 91.2875 36.785C91.6873 39.0017 91.6074 39.2014 89.9881 39.9702L88.5088 39.9602Z" fill="#05264A"/>
<path d="M36.3928 23.8644H31.1952L30.9653 22.5164C30.113 23.3663 29.0416 23.9636 27.87 24.2421C26.6985 24.5206 25.4726 24.4693 24.3284 24.0941C22.6765 23.6083 21.2431 22.5679 20.2703 21.1485C19.0745 19.4083 18.4966 17.3181 18.6289 15.2115C18.7612 13.1049 19.5959 11.1032 21 9.52588C23.6187 6.7101 26.9972 6.46048 30.9453 8.82693L31.2152 7.62873H36.3928V23.8644ZM31.1353 15.7066C31.1465 15.2391 31.0618 14.7741 30.8863 14.3405C30.7108 13.9069 30.4483 13.5138 30.1149 13.1854C29.7815 12.8571 29.3843 12.6004 28.9478 12.4312C28.5113 12.2621 28.0448 12.184 27.5769 12.2019C27.0946 12.1832 26.6135 12.2627 26.1629 12.4356C25.7122 12.6085 25.3016 12.8712 24.9558 13.2077C24.6101 13.5442 24.3364 13.9474 24.1516 14.3929C23.9668 14.8383 23.8746 15.3167 23.8808 15.7989C23.8869 16.281 23.9911 16.7569 24.1872 17.1976C24.3832 17.6382 24.6669 18.0344 25.0211 18.362C25.3753 18.6897 25.7925 18.9419 26.2473 19.1033C26.7022 19.2648 27.1852 19.3322 27.6669 19.3012C28.1343 19.3044 28.5975 19.2126 29.0283 19.0314C29.4591 18.8502 29.8485 18.5834 30.1729 18.2472C30.4973 17.911 30.7499 17.5124 30.9153 17.0756C31.0808 16.6389 31.1556 16.1731 31.1353 15.7066Z" fill="#05264A"/>
<path d="M74.8047 15.6967C74.7922 14.551 75.0112 13.4146 75.4485 12.3555C75.8859 11.2964 76.5327 10.3363 77.3502 9.53276C78.1677 8.72918 79.139 8.09861 80.2061 7.6788C81.2733 7.259 82.4142 7.05858 83.5607 7.08954C85.859 7.08954 88.0632 8.00161 89.6884 9.62512C91.3136 11.2486 92.2266 13.4506 92.2266 15.7466C92.2266 18.0426 91.3136 20.2445 89.6884 21.868C88.0632 23.4915 85.859 24.4036 83.5607 24.4036C82.4045 24.4394 81.2532 24.2389 80.1774 23.8145C79.1015 23.3901 78.1237 22.7507 77.3039 21.9355C76.4842 21.1203 75.8397 20.1465 75.4099 19.0737C74.9801 18.0009 74.7742 16.8518 74.8047 15.6967ZM80.1522 15.7765C80.1414 16.2354 80.2235 16.6918 80.3937 17.1182C80.5639 17.5445 80.8187 17.9321 81.1427 18.2577C81.4666 18.5832 81.8532 18.8399 82.279 19.0124C82.7048 19.1848 83.1612 19.2695 83.6206 19.2613C84.5025 19.1886 85.3243 18.7857 85.9214 18.1334C86.5185 17.481 86.8468 16.6273 86.8405 15.7434C86.8341 14.8594 86.4937 14.0106 85.8873 13.3668C85.281 12.723 84.4535 12.3319 83.5706 12.2718C83.1141 12.2716 82.6621 12.3628 82.2414 12.54C81.8206 12.7172 81.4397 12.9769 81.1211 13.3035C80.8025 13.6302 80.5526 14.0174 80.3862 14.4421C80.2198 14.8668 80.1402 15.3206 80.1522 15.7765Z" fill="#05264A"/>
<path d="M73.4857 15.7264C73.5094 16.8817 73.2973 18.0297 72.8622 19.1004C72.4271 20.1711 71.7783 21.1421 70.9552 21.954C70.1321 22.7659 69.1521 23.4019 68.0749 23.823C66.9977 24.2441 65.8459 24.4416 64.6898 24.4034C63.5517 24.3994 62.4256 24.1716 61.3757 23.7329C60.3258 23.2942 59.3727 22.6532 58.5708 21.8466C57.7689 21.0399 57.1338 20.0834 56.702 19.0316C56.2701 17.9797 56.0498 16.8532 56.0538 15.7164C56.0577 14.5795 56.2858 13.4546 56.7249 12.4057C57.164 11.3569 57.8057 10.4048 58.6132 9.6037C59.4207 8.8026 60.3782 8.16822 61.4311 7.7368C62.484 7.30538 63.6117 7.08536 64.7497 7.08929C65.8975 7.05953 67.0394 7.26193 68.1068 7.6843C69.1742 8.10667 70.1452 8.7403 70.9612 9.54709C71.7772 10.3539 72.4215 11.3172 72.8554 12.3791C73.2892 13.441 73.5036 14.5796 73.4857 15.7264ZM68.1182 15.7264C68.1372 15.2682 68.0626 14.8109 67.8988 14.3824C67.7351 13.954 67.4856 13.5634 67.1657 13.2345C66.8458 12.9056 66.4622 12.6452 66.0382 12.4694C65.6142 12.2935 65.1588 12.2058 64.6997 12.2116C63.8176 12.2783 62.9932 12.6754 62.3917 13.3235C61.7902 13.9715 61.456 14.8226 61.456 15.7064C61.456 16.5901 61.7902 17.4413 62.3917 18.0893C62.9932 18.7374 63.8176 19.1345 64.6997 19.2011C65.1507 19.2025 65.5975 19.1144 66.0141 18.942C66.4308 18.7696 66.8091 18.5163 67.127 18.1969C67.445 17.8774 67.6963 17.498 67.8664 17.0808C68.0366 16.6636 68.1221 16.2168 68.1182 15.7663V15.7264Z" fill="#05264A"/>
<path d="M77.6435 31.1736C78.1096 30.6312 78.7473 30.2642 79.4508 30.1335C80.1543 30.0027 80.8815 30.116 81.5117 30.4547C82.921 31.1836 83.2109 32.4517 83.1909 33.9395C83.1909 35.7667 83.1909 37.594 83.1909 39.5211H80.0324C80.0324 38.1731 80.0324 36.8651 80.0324 35.5271C80.0965 35.0361 80.0452 34.537 79.8824 34.0693C79.6425 33.6299 79.0628 33.0708 78.713 33.0708C78.4356 33.1376 78.1791 33.272 77.9663 33.4619C77.7536 33.6518 77.5912 33.8913 77.4936 34.1591C77.3284 35.4837 77.2849 36.8206 77.3636 38.1532C77.3636 39.2515 77.1237 39.8207 75.9043 39.6409C75.3386 39.6006 74.7708 39.6006 74.2051 39.6409V30.3249C75.3745 30.5545 76.7039 29.6759 77.6435 31.1736Z" fill="#05264A"/>
<path d="M51.9355 30.5045C53.9946 30.1051 54.6843 30.2349 55.194 30.9339C56.1032 30.5406 57.0615 30.2719 58.0427 30.1351C58.423 30.1294 58.8005 30.2011 59.1521 30.346C59.5038 30.4909 59.8221 30.7059 60.0878 30.9779C60.3535 31.2498 60.5608 31.573 60.6973 31.9276C60.8337 32.2823 60.8964 32.6611 60.8814 33.0407C61.0413 35.1775 60.8814 37.3343 60.8814 39.3812C60.7515 39.5011 60.7215 39.551 60.6815 39.551C57.6829 39.9604 57.6829 39.9604 57.6829 36.9848C57.6829 36.1561 57.6829 35.3273 57.6829 34.4985C57.6829 33.6698 57.353 33.0707 56.4634 33.0407C55.5739 33.0108 55.1241 33.6698 55.0641 34.4786C54.9941 35.7567 55.0641 37.0447 55.0041 38.3328C55.0041 38.7023 55.0041 39.0717 54.9442 39.531H51.9456L51.9355 30.5045Z" fill="#05264A"/>
<path d="M45.679 28.4478C43.7299 28.4478 43.3001 28.7773 43.3101 30.2451L45.4092 30.4249V32.6915C45.3092 32.7614 45.2492 32.8412 45.1793 32.8512C43.1802 33.0609 43.1802 33.0609 43.1802 35.0479V39.6111C42.3115 39.6666 41.4401 39.6666 40.5714 39.6111C40.3515 39.6111 40.0516 39.042 40.0417 38.7224C39.9817 37.1448 40.0416 35.5672 39.9717 33.9895C39.9717 33.6301 39.4919 33.3105 39.282 32.991C39.0239 32.6361 38.8528 32.2258 38.7822 31.7928C38.8444 31.313 39.0116 30.8528 39.272 30.4448C39.4719 30.0654 39.9517 29.7858 40.0117 29.4463C40.0439 28.8834 40.2007 28.3347 40.4707 27.8396C40.7408 27.3444 41.1173 26.9153 41.5733 26.583C42.0292 26.2507 42.5532 26.0235 43.1076 25.9178C43.662 25.812 44.233 25.8304 44.7794 25.9715C44.9811 26.0548 45.1613 26.1824 45.3067 26.3449C45.4521 26.5074 45.5588 26.7006 45.6191 26.9101C45.7051 27.418 45.7253 27.9348 45.679 28.4478Z" fill="#05264A"/>
<path d="M97.0049 24.194C96.5171 24.205 96.0322 24.1168 95.5797 23.9348C95.1271 23.7528 94.7163 23.4807 94.3722 23.1351C94.0282 22.7896 93.7581 22.3778 93.5783 21.9247C93.3986 21.4716 93.3129 20.9867 93.3266 20.4995C93.3272 19.9914 93.4314 19.4887 93.6327 19.022C93.8341 18.5554 94.1284 18.1346 94.4978 17.7852C94.8672 17.4358 95.3038 17.1652 95.7813 16.9898C96.2587 16.8145 96.7668 16.738 97.2748 16.7651C97.7524 16.7625 98.226 16.8543 98.6679 17.0354C99.1099 17.2165 99.5116 17.4832 99.8498 17.8202C100.188 18.1572 100.456 18.5577 100.639 18.9987C100.821 19.4397 100.914 19.9125 100.913 20.3897C100.915 20.8982 100.814 21.4018 100.617 21.8706C100.42 22.3394 100.13 22.7639 99.7656 23.1188C99.401 23.4736 98.9688 23.7517 98.4945 23.9364C98.0203 24.1211 97.5137 24.2087 97.0049 24.194Z" fill="#05264A"/>
<path d="M50.1867 39.3911C49.9768 39.5209 49.9468 39.5609 49.9068 39.5609C46.9082 39.9203 46.9082 39.9203 46.9082 36.9048C46.9082 35.1175 46.9082 33.3302 46.9082 31.5429C46.9082 30.6442 47.1481 30.2848 48.1077 30.3147C50.6365 30.3846 50.1967 30.105 50.2167 32.4515C50.2367 34.798 50.1867 37.0945 50.1867 39.3911Z" fill="#05264A"/>
<path d="M48.4281 29.2062C48.0926 29.1749 47.7735 29.0464 47.5101 28.8365C47.2467 28.6266 47.0504 28.3443 46.9455 28.0244C46.8405 27.7046 46.8313 27.361 46.9191 27.036C47.0069 26.711 47.1879 26.4188 47.4397 26.1951C47.6916 25.9715 48.0034 25.8262 48.3368 25.7772C48.6702 25.7282 49.0106 25.7775 49.3163 25.9192C49.622 26.0609 49.8796 26.2887 50.0574 26.5746C50.2352 26.8605 50.3255 27.1921 50.3172 27.5287C50.3159 27.7668 50.2645 28.002 50.1662 28.219C50.068 28.4359 49.9251 28.6298 49.7469 28.788C49.5688 28.9462 49.3593 29.0652 49.1321 29.1373C48.9048 29.2093 48.665 29.2328 48.4281 29.2062Z" fill="#05264A"/>
</svg>
